G04 MADE WITH FRITZING*
G04 WWW.FRITZING.ORG*
G04 DOUBLE SIDED*
G04 HOLES PLATED*
G04 CONTOUR ON CENTER OF CONTOUR VECTOR*
%ASAXBY*%
%FSLAX23Y23*%
%MOIN*%
%OFA0B0*%
%SFA1.0B1.0*%
%ADD10C,0.078000*%
%ADD11C,0.039370*%
%ADD12C,0.075000*%
%ADD13C,0.082677*%
%ADD14C,0.083071*%
%ADD15C,0.074000*%
%ADD16C,0.066194*%
%ADD17C,0.066222*%
%ADD18C,0.080000*%
%ADD19R,0.062992X0.074803*%
%ADD20R,0.078740X0.047244*%
%ADD21C,0.012000*%
%ADD22C,0.008000*%
%ADD23C,0.024000*%
%ADD24C,0.016000*%
%ADD25C,0.017000*%
%ADD26C,0.020000*%
%ADD27R,0.001000X0.001000*%
%LNCOPPER1*%
G90*
G70*
G54D10*
X748Y1778D03*
X848Y1778D03*
G54D11*
X1925Y947D03*
X2033Y917D03*
X2100Y939D03*
X1940Y1125D03*
X2132Y1563D03*
X2179Y1215D03*
X2173Y311D03*
X1474Y1067D03*
X1587Y847D03*
X1890Y754D03*
X1126Y293D03*
X1004Y244D03*
X551Y847D03*
X1189Y721D03*
X1024Y1049D03*
X1250Y787D03*
X831Y656D03*
X945Y1089D03*
X492Y715D03*
X471Y907D03*
X467Y1425D03*
X596Y1008D03*
X591Y1561D03*
X684Y1028D03*
X689Y1482D03*
G54D10*
X1460Y1738D03*
X1360Y1738D03*
X1260Y1738D03*
X1160Y1738D03*
X1060Y1738D03*
G54D12*
X787Y183D03*
X532Y183D03*
X787Y360D03*
X532Y360D03*
G54D13*
X2223Y559D03*
G54D14*
X2322Y460D03*
X2223Y359D03*
X2223Y559D03*
X2423Y359D03*
X2423Y559D03*
G54D13*
X2223Y559D03*
G54D14*
X2322Y460D03*
X2223Y359D03*
X2223Y559D03*
X2423Y359D03*
X2423Y559D03*
G54D13*
X2223Y952D03*
G54D14*
X2322Y853D03*
X2223Y752D03*
X2223Y952D03*
X2423Y752D03*
X2423Y952D03*
G54D13*
X2223Y952D03*
G54D14*
X2322Y853D03*
X2223Y752D03*
X2223Y952D03*
X2423Y752D03*
X2423Y952D03*
G54D13*
X2223Y1740D03*
G54D14*
X2322Y1641D03*
X2223Y1540D03*
X2223Y1740D03*
X2423Y1540D03*
X2423Y1740D03*
G54D13*
X2223Y1740D03*
G54D14*
X2322Y1641D03*
X2223Y1540D03*
X2223Y1740D03*
X2423Y1540D03*
X2423Y1740D03*
G54D15*
X176Y577D03*
X176Y677D03*
X176Y777D03*
X176Y877D03*
X176Y977D03*
X276Y577D03*
X276Y677D03*
X276Y777D03*
X276Y877D03*
X276Y977D03*
G54D16*
X2103Y111D03*
X2203Y111D03*
X2303Y111D03*
X2403Y111D03*
X2503Y111D03*
G54D17*
X1643Y2011D03*
X1543Y2011D03*
X1443Y2011D03*
X1343Y2011D03*
X1243Y2011D03*
X1143Y2011D03*
X1043Y2011D03*
X943Y2011D03*
X843Y2011D03*
X743Y2011D03*
X2503Y2011D03*
X2403Y2011D03*
X2303Y2011D03*
X2203Y2011D03*
X2103Y2011D03*
X2003Y2011D03*
X1903Y2011D03*
X1803Y2011D03*
G54D16*
X1203Y111D03*
X1103Y111D03*
X1303Y111D03*
X1403Y111D03*
X1503Y111D03*
X1603Y111D03*
X1703Y111D03*
X1803Y111D03*
X2003Y111D03*
G54D13*
X2223Y1346D03*
G54D14*
X2322Y1247D03*
X2223Y1146D03*
X2223Y1346D03*
X2423Y1146D03*
X2423Y1346D03*
G54D13*
X2223Y1346D03*
G54D14*
X2322Y1247D03*
X2223Y1146D03*
X2223Y1346D03*
X2423Y1146D03*
X2423Y1346D03*
G54D18*
X551Y1994D03*
X413Y1994D03*
X276Y1994D03*
X138Y1994D03*
G54D11*
X1792Y872D03*
X1791Y1541D03*
X1870Y892D03*
X1870Y1541D03*
G54D19*
X1280Y715D03*
X1402Y715D03*
X1280Y577D03*
X1402Y577D03*
X1693Y498D03*
X1815Y498D03*
G54D20*
X1701Y380D03*
X1811Y380D03*
G54D19*
X1693Y774D03*
X1815Y774D03*
X1693Y656D03*
X1815Y656D03*
X1772Y1797D03*
X1894Y1797D03*
G54D21*
X1438Y1987D02*
X1417Y1896D01*
D02*
X1417Y1896D02*
X1368Y1761D01*
D02*
X1167Y1762D02*
X1236Y1987D01*
D02*
X1132Y1989D02*
X1063Y1856D01*
D02*
X1063Y1856D02*
X1061Y1763D01*
G54D22*
D02*
X1964Y1085D02*
X1920Y1085D01*
D02*
X1964Y1023D02*
X1890Y1025D01*
D02*
X1992Y1046D02*
X1920Y1046D01*
D02*
X2117Y1636D02*
X1964Y1085D01*
D02*
X2112Y850D02*
X1992Y1046D01*
D02*
X2285Y853D02*
X2112Y850D01*
D02*
X2285Y460D02*
X2115Y461D01*
D02*
X2115Y461D02*
X1964Y1023D01*
G54D21*
D02*
X2186Y948D02*
X2114Y940D01*
G54D22*
D02*
X1989Y1067D02*
X1905Y1066D01*
D02*
X2285Y1247D02*
X2120Y1246D01*
D02*
X2120Y1246D02*
X1989Y1067D01*
D02*
X2285Y1640D02*
X2117Y1636D01*
D02*
X1919Y1006D02*
X1866Y1006D01*
G54D21*
D02*
X2114Y1279D02*
X2192Y1327D01*
D02*
X1988Y1106D02*
X2114Y1279D01*
D02*
X2128Y1550D02*
X1988Y1106D01*
D02*
X2093Y1670D02*
X1943Y1138D01*
D02*
X2191Y1722D02*
X2093Y1670D01*
G54D22*
D02*
X1924Y960D02*
X1919Y1006D01*
G54D21*
D02*
X2127Y1211D02*
X2031Y1057D01*
D02*
X2031Y1057D02*
X2094Y951D01*
D02*
X2166Y1214D02*
X2127Y1211D01*
D02*
X2042Y896D02*
X1990Y1006D01*
D02*
X2053Y807D02*
X2179Y810D01*
D02*
X2053Y805D02*
X2042Y896D01*
D02*
X2179Y810D02*
X2053Y805D01*
D02*
X1990Y1006D02*
X2027Y929D01*
D02*
X2142Y552D02*
X2053Y807D01*
D02*
X2186Y555D02*
X2142Y552D01*
G54D23*
D02*
X1700Y398D02*
X1695Y466D01*
G54D21*
D02*
X1403Y136D02*
X1398Y380D01*
D02*
X1398Y380D02*
X1667Y380D01*
D02*
X2074Y408D02*
X1929Y934D01*
D02*
X2164Y320D02*
X2074Y408D01*
G54D23*
D02*
X1812Y398D02*
X1814Y466D01*
D02*
X1779Y277D02*
X1698Y243D01*
D02*
X1698Y243D02*
X1702Y141D01*
D02*
X1806Y362D02*
X1779Y277D01*
G54D22*
D02*
X1968Y655D02*
X1952Y651D01*
G54D21*
D02*
X1968Y655D02*
X1969Y656D01*
D02*
X1516Y1010D02*
X1493Y848D01*
D02*
X1969Y656D02*
X1969Y183D01*
D02*
X2402Y183D02*
X2403Y136D01*
D02*
X1969Y183D02*
X2402Y183D01*
D02*
X1841Y656D02*
X1968Y655D01*
G54D22*
D02*
X1952Y651D02*
X1841Y655D01*
D02*
X1638Y952D02*
X1857Y895D01*
D02*
X1632Y1006D02*
X1638Y952D01*
D02*
X1579Y914D02*
X1779Y875D01*
D02*
X1669Y1006D02*
X1632Y1006D01*
D02*
X1878Y881D02*
X1929Y813D01*
D02*
X1929Y813D02*
X1968Y655D01*
D02*
X1579Y1026D02*
X1579Y914D01*
G54D21*
D02*
X1496Y498D02*
X1667Y498D01*
D02*
X1493Y848D02*
X1496Y498D01*
D02*
X1566Y1047D02*
X1516Y1010D01*
D02*
X1636Y1046D02*
X1566Y1047D01*
G54D23*
D02*
X1693Y624D02*
X1693Y530D01*
D02*
X1693Y687D02*
X1693Y742D01*
G54D22*
D02*
X1583Y1067D02*
X1488Y1067D01*
G54D24*
D02*
X1747Y842D02*
X1749Y553D01*
D02*
X1600Y846D02*
X1747Y842D01*
G54D22*
D02*
X1616Y1026D02*
X1579Y1026D01*
D02*
X1795Y859D02*
X1808Y806D01*
D02*
X1642Y1066D02*
X1583Y1067D01*
G54D24*
D02*
X1749Y553D02*
X1789Y520D01*
G54D21*
D02*
X1009Y700D02*
X1007Y557D01*
D02*
X1054Y764D02*
X1009Y700D01*
G54D24*
D02*
X1003Y424D02*
X1005Y494D01*
D02*
X1125Y424D02*
X1127Y494D01*
G54D21*
D02*
X1004Y258D02*
X1002Y360D01*
G54D24*
D02*
X1126Y307D02*
X1125Y360D01*
G54D21*
D02*
X1841Y767D02*
X1877Y757D01*
G54D24*
D02*
X1280Y609D02*
X1280Y683D01*
D02*
X1402Y609D02*
X1402Y683D01*
G54D21*
D02*
X1139Y791D02*
X1181Y732D01*
D02*
X565Y846D02*
X714Y844D01*
D02*
X1109Y791D02*
X1139Y791D01*
D02*
X1055Y790D02*
X1055Y767D01*
D02*
X1130Y892D02*
X1109Y892D01*
D02*
X1339Y1167D02*
X1339Y892D01*
D02*
X1339Y892D02*
X1130Y892D01*
D02*
X375Y1009D02*
X473Y1108D01*
D02*
X335Y892D02*
X375Y1009D01*
D02*
X473Y1108D02*
X551Y1168D01*
D02*
X300Y883D02*
X335Y892D01*
D02*
X551Y1168D02*
X1339Y1167D01*
D02*
X657Y896D02*
X714Y895D01*
D02*
X433Y971D02*
X524Y992D01*
D02*
X354Y774D02*
X394Y911D01*
D02*
X394Y911D02*
X433Y971D01*
D02*
X301Y776D02*
X354Y774D01*
D02*
X524Y992D02*
X657Y896D01*
D02*
X1398Y852D02*
X1401Y746D01*
D02*
X1398Y380D02*
X1401Y545D01*
D02*
X906Y916D02*
X1002Y918D01*
D02*
X898Y793D02*
X906Y916D01*
D02*
X821Y792D02*
X898Y793D01*
D02*
X1028Y1036D02*
X1055Y946D01*
D02*
X1122Y843D02*
X1398Y852D01*
D02*
X1122Y817D02*
X1109Y817D01*
D02*
X1398Y853D02*
X1401Y746D01*
D02*
X904Y1030D02*
X937Y1078D01*
D02*
X906Y916D02*
X904Y1030D01*
D02*
X1254Y568D02*
X1154Y534D01*
D02*
X375Y577D02*
X818Y653D01*
D02*
X1182Y810D02*
X1122Y817D01*
D02*
X301Y577D02*
X375Y577D01*
D02*
X1237Y792D02*
X1182Y810D01*
D02*
X59Y833D02*
X64Y1339D01*
D02*
X64Y1339D02*
X1399Y1343D01*
D02*
X1399Y1343D02*
X1398Y853D01*
D02*
X153Y788D02*
X59Y833D01*
D02*
X1109Y843D02*
X1122Y843D01*
D02*
X693Y766D02*
X714Y766D01*
D02*
X669Y714D02*
X693Y766D01*
D02*
X1063Y1856D02*
X945Y1856D01*
D02*
X945Y1856D02*
X945Y1561D01*
D02*
X1555Y1916D02*
X1555Y1424D01*
D02*
X1536Y1934D02*
X1555Y1916D01*
D02*
X945Y1561D02*
X604Y1561D01*
D02*
X698Y945D02*
X714Y945D01*
D02*
X683Y917D02*
X714Y918D01*
D02*
X1132Y1989D02*
X1063Y1856D01*
D02*
X606Y998D02*
X683Y917D01*
D02*
X1555Y1424D02*
X480Y1425D01*
D02*
X640Y871D02*
X714Y869D01*
D02*
X1541Y1986D02*
X1536Y1934D01*
D02*
X484Y904D02*
X640Y871D01*
D02*
X648Y819D02*
X714Y818D01*
D02*
X375Y676D02*
X433Y774D01*
D02*
X301Y677D02*
X375Y676D01*
D02*
X433Y774D02*
X648Y819D01*
D02*
X506Y715D02*
X669Y714D01*
D02*
X983Y182D02*
X868Y262D01*
D02*
X868Y262D02*
X589Y262D01*
D02*
X1299Y184D02*
X983Y182D01*
D02*
X589Y262D02*
X545Y202D01*
D02*
X1302Y136D02*
X1299Y184D01*
D02*
X157Y517D02*
X158Y458D01*
D02*
X158Y458D02*
X788Y458D01*
D02*
X788Y458D02*
X788Y383D01*
D02*
X168Y552D02*
X157Y517D01*
D02*
X1516Y1896D02*
X1516Y1482D01*
D02*
X1417Y1896D02*
X1516Y1896D01*
D02*
X1516Y1482D02*
X702Y1482D01*
D02*
X687Y1014D02*
X698Y945D01*
D02*
X1438Y1987D02*
X1417Y1896D01*
D02*
X1929Y1640D02*
X1908Y1640D01*
D02*
X1929Y1738D02*
X1929Y1640D01*
D02*
X1913Y1765D02*
X1929Y1738D01*
D02*
X1732Y1640D02*
X1758Y1640D01*
D02*
X1732Y1738D02*
X1732Y1640D01*
D02*
X1750Y1765D02*
X1732Y1738D01*
D02*
X1772Y1560D02*
X1782Y1551D01*
D02*
X1772Y1598D02*
X1772Y1560D01*
D02*
X1732Y1640D02*
X1732Y1738D01*
D02*
X1732Y1522D02*
X1732Y1640D01*
D02*
X1732Y1738D02*
X1750Y1765D01*
D02*
X1791Y1482D02*
X1732Y1522D01*
D02*
X1493Y848D02*
X1437Y911D01*
D02*
X1437Y911D02*
X1437Y1344D01*
D02*
X1791Y1344D02*
X1791Y1482D01*
D02*
X1437Y1344D02*
X1791Y1344D01*
D02*
X1870Y1482D02*
X1870Y1306D01*
D02*
X1870Y1306D02*
X1476Y1305D01*
D02*
X1929Y1522D02*
X1870Y1482D01*
D02*
X1476Y1305D02*
X1475Y1080D01*
D02*
X1929Y1640D02*
X1929Y1522D01*
D02*
X1894Y1599D02*
X1890Y1560D01*
D02*
X1890Y1560D02*
X1880Y1551D01*
G54D25*
X247Y548D02*
X247Y605D01*
X304Y605D01*
X304Y548D01*
X247Y548D01*
D02*
G36*
X1807Y1011D02*
X1925Y1011D01*
X1925Y1001D01*
X1807Y1001D01*
X1807Y1011D01*
G37*
D02*
G36*
X1807Y1031D02*
X1925Y1031D01*
X1925Y1021D01*
X1807Y1021D01*
X1807Y1031D01*
G37*
D02*
G36*
X1807Y1050D02*
X1925Y1050D01*
X1925Y1040D01*
X1807Y1040D01*
X1807Y1050D01*
G37*
D02*
G36*
X1807Y1070D02*
X1925Y1070D01*
X1925Y1060D01*
X1807Y1060D01*
X1807Y1070D01*
G37*
D02*
G36*
X1807Y1090D02*
X1925Y1090D01*
X1925Y1080D01*
X1807Y1080D01*
X1807Y1090D01*
G37*
D02*
G36*
X1610Y1090D02*
X1728Y1090D01*
X1728Y1080D01*
X1610Y1080D01*
X1610Y1090D01*
G37*
D02*
G36*
X1610Y1070D02*
X1728Y1070D01*
X1728Y1060D01*
X1610Y1060D01*
X1610Y1070D01*
G37*
D02*
G36*
X1610Y1050D02*
X1728Y1050D01*
X1728Y1040D01*
X1610Y1040D01*
X1610Y1050D01*
G37*
D02*
G36*
X1610Y1031D02*
X1728Y1031D01*
X1728Y1021D01*
X1610Y1021D01*
X1610Y1031D01*
G37*
D02*
G36*
X1610Y1011D02*
X1728Y1011D01*
X1728Y1001D01*
X1610Y1001D01*
X1610Y1011D01*
G37*
D02*
G36*
X996Y773D02*
X1114Y773D01*
X1114Y759D01*
X996Y759D01*
X996Y773D01*
G37*
D02*
G36*
X996Y798D02*
X1114Y798D01*
X1114Y784D01*
X996Y784D01*
X996Y798D01*
G37*
D02*
G36*
X996Y824D02*
X1114Y824D01*
X1114Y810D01*
X996Y810D01*
X996Y824D01*
G37*
D02*
G36*
X996Y849D02*
X1114Y849D01*
X1114Y836D01*
X996Y836D01*
X996Y849D01*
G37*
D02*
G36*
X996Y875D02*
X1114Y875D01*
X1114Y861D01*
X996Y861D01*
X996Y875D01*
G37*
D02*
G36*
X996Y901D02*
X1114Y901D01*
X1114Y887D01*
X996Y887D01*
X996Y901D01*
G37*
D02*
G36*
X996Y926D02*
X1114Y926D01*
X1114Y912D01*
X996Y912D01*
X996Y926D01*
G37*
D02*
G36*
X996Y952D02*
X1114Y952D01*
X1114Y938D01*
X996Y938D01*
X996Y952D01*
G37*
D02*
G36*
X709Y952D02*
X827Y952D01*
X827Y938D01*
X709Y938D01*
X709Y952D01*
G37*
D02*
G36*
X709Y926D02*
X827Y926D01*
X827Y912D01*
X709Y912D01*
X709Y926D01*
G37*
D02*
G36*
X709Y901D02*
X827Y901D01*
X827Y887D01*
X709Y887D01*
X709Y901D01*
G37*
D02*
G36*
X709Y875D02*
X827Y875D01*
X827Y861D01*
X709Y861D01*
X709Y875D01*
G37*
D02*
G36*
X709Y849D02*
X827Y849D01*
X827Y836D01*
X709Y836D01*
X709Y849D01*
G37*
D02*
G36*
X709Y824D02*
X827Y824D01*
X827Y810D01*
X709Y810D01*
X709Y824D01*
G37*
D02*
G36*
X709Y798D02*
X827Y798D01*
X827Y784D01*
X709Y784D01*
X709Y798D01*
G37*
D02*
G36*
X709Y773D02*
X827Y773D01*
X827Y759D01*
X709Y759D01*
X709Y773D01*
G37*
D02*
G36*
X1093Y354D02*
X1093Y429D01*
X1156Y429D01*
X1156Y354D01*
X1093Y354D01*
G37*
D02*
G36*
X971Y354D02*
X971Y429D01*
X1034Y429D01*
X1034Y354D01*
X971Y354D01*
G37*
D02*
G36*
X1097Y488D02*
X1097Y563D01*
X1160Y563D01*
X1160Y488D01*
X1097Y488D01*
G37*
D02*
G36*
X974Y488D02*
X974Y563D01*
X1037Y563D01*
X1037Y488D01*
X974Y488D01*
G37*
D02*
G54D26*
X581Y1964D02*
X521Y1964D01*
X521Y2024D01*
X581Y2024D01*
X581Y1964D01*
D02*
G36*
X1791Y1671D02*
X1752Y1671D01*
X1752Y1687D01*
X1791Y1687D01*
X1791Y1671D01*
G37*
D02*
G36*
X1791Y1632D02*
X1752Y1632D01*
X1752Y1648D01*
X1791Y1648D01*
X1791Y1632D01*
G37*
D02*
G36*
X1791Y1593D02*
X1752Y1593D01*
X1752Y1608D01*
X1791Y1608D01*
X1791Y1593D01*
G37*
D02*
G36*
X1913Y1594D02*
X1874Y1594D01*
X1874Y1610D01*
X1913Y1610D01*
X1913Y1594D01*
G37*
D02*
G36*
X1913Y1632D02*
X1874Y1632D01*
X1874Y1648D01*
X1913Y1648D01*
X1913Y1632D01*
G37*
D02*
G36*
X1913Y1671D02*
X1874Y1671D01*
X1874Y1687D01*
X1913Y1687D01*
X1913Y1671D01*
G37*
D02*
G36*
X1862Y1593D02*
X1803Y1593D01*
X1803Y1687D01*
X1862Y1687D01*
X1862Y1593D01*
G37*
D02*
G54D27*
X2284Y1681D02*
X2360Y1681D01*
X2279Y1680D02*
X2364Y1680D01*
X2276Y1679D02*
X2367Y1679D01*
X2274Y1678D02*
X2369Y1678D01*
X2272Y1677D02*
X2371Y1677D01*
X2271Y1676D02*
X2372Y1676D01*
X2269Y1675D02*
X2374Y1675D01*
X2268Y1674D02*
X2375Y1674D01*
X2267Y1673D02*
X2376Y1673D01*
X2266Y1672D02*
X2377Y1672D01*
X2265Y1671D02*
X2378Y1671D01*
X2264Y1670D02*
X2379Y1670D01*
X2263Y1669D02*
X2380Y1669D01*
X2262Y1668D02*
X2381Y1668D01*
X2262Y1667D02*
X2382Y1667D01*
X2261Y1666D02*
X2382Y1666D01*
X2260Y1665D02*
X2318Y1665D01*
X2325Y1665D02*
X2383Y1665D01*
X2260Y1664D02*
X2315Y1664D01*
X2329Y1664D02*
X2384Y1664D01*
X2259Y1663D02*
X2313Y1663D01*
X2331Y1663D02*
X2384Y1663D01*
X2259Y1662D02*
X2311Y1662D01*
X2332Y1662D02*
X2385Y1662D01*
X2258Y1661D02*
X2310Y1661D01*
X2334Y1661D02*
X2385Y1661D01*
X2258Y1660D02*
X2308Y1660D01*
X2335Y1660D02*
X2386Y1660D01*
X2257Y1659D02*
X2307Y1659D01*
X2336Y1659D02*
X2386Y1659D01*
X2257Y1658D02*
X2306Y1658D01*
X2337Y1658D02*
X2387Y1658D01*
X2256Y1657D02*
X2306Y1657D01*
X2338Y1657D02*
X2387Y1657D01*
X2256Y1656D02*
X2305Y1656D01*
X2338Y1656D02*
X2387Y1656D01*
X2256Y1655D02*
X2304Y1655D01*
X2339Y1655D02*
X2388Y1655D01*
X2255Y1654D02*
X2304Y1654D01*
X2340Y1654D02*
X2388Y1654D01*
X2255Y1653D02*
X2303Y1653D01*
X2340Y1653D02*
X2388Y1653D01*
X2255Y1652D02*
X2303Y1652D01*
X2341Y1652D02*
X2389Y1652D01*
X2255Y1651D02*
X2302Y1651D01*
X2341Y1651D02*
X2389Y1651D01*
X2254Y1650D02*
X2302Y1650D01*
X2341Y1650D02*
X2389Y1650D01*
X2254Y1649D02*
X2302Y1649D01*
X2342Y1649D02*
X2389Y1649D01*
X2254Y1648D02*
X2301Y1648D01*
X2342Y1648D02*
X2389Y1648D01*
X2254Y1647D02*
X2301Y1647D01*
X2342Y1647D02*
X2389Y1647D01*
X2254Y1646D02*
X2301Y1646D01*
X2343Y1646D02*
X2390Y1646D01*
X2254Y1645D02*
X2301Y1645D01*
X2343Y1645D02*
X2390Y1645D01*
X2253Y1644D02*
X2300Y1644D01*
X2343Y1644D02*
X2390Y1644D01*
X2253Y1643D02*
X2300Y1643D01*
X2343Y1643D02*
X2390Y1643D01*
X2253Y1642D02*
X2300Y1642D01*
X2343Y1642D02*
X2390Y1642D01*
X2253Y1641D02*
X2300Y1641D01*
X2343Y1641D02*
X2390Y1641D01*
X2253Y1640D02*
X2300Y1640D01*
X2343Y1640D02*
X2390Y1640D01*
X2253Y1639D02*
X2300Y1639D01*
X2343Y1639D02*
X2390Y1639D01*
X2253Y1638D02*
X2300Y1638D01*
X2343Y1638D02*
X2390Y1638D01*
X2253Y1637D02*
X2300Y1637D01*
X2343Y1637D02*
X2390Y1637D01*
X2253Y1636D02*
X2300Y1636D01*
X2343Y1636D02*
X2390Y1636D01*
X2254Y1635D02*
X2300Y1635D01*
X2343Y1635D02*
X2390Y1635D01*
X2254Y1634D02*
X2301Y1634D01*
X2343Y1634D02*
X2390Y1634D01*
X2254Y1633D02*
X2301Y1633D01*
X2342Y1633D02*
X2389Y1633D01*
X2254Y1632D02*
X2301Y1632D01*
X2342Y1632D02*
X2389Y1632D01*
X2254Y1631D02*
X2301Y1631D01*
X2342Y1631D02*
X2389Y1631D01*
X2254Y1630D02*
X2302Y1630D01*
X2341Y1630D02*
X2389Y1630D01*
X2255Y1629D02*
X2302Y1629D01*
X2341Y1629D02*
X2389Y1629D01*
X2255Y1628D02*
X2303Y1628D01*
X2341Y1628D02*
X2389Y1628D01*
X2255Y1627D02*
X2303Y1627D01*
X2340Y1627D02*
X2388Y1627D01*
X2255Y1626D02*
X2304Y1626D01*
X2340Y1626D02*
X2388Y1626D01*
X2256Y1625D02*
X2304Y1625D01*
X2339Y1625D02*
X2388Y1625D01*
X2256Y1624D02*
X2305Y1624D01*
X2338Y1624D02*
X2387Y1624D01*
X2256Y1623D02*
X2306Y1623D01*
X2338Y1623D02*
X2387Y1623D01*
X2257Y1622D02*
X2306Y1622D01*
X2337Y1622D02*
X2387Y1622D01*
X2257Y1621D02*
X2307Y1621D01*
X2336Y1621D02*
X2386Y1621D01*
X2258Y1620D02*
X2308Y1620D01*
X2335Y1620D02*
X2386Y1620D01*
X2258Y1619D02*
X2309Y1619D01*
X2334Y1619D02*
X2385Y1619D01*
X2259Y1618D02*
X2311Y1618D01*
X2332Y1618D02*
X2385Y1618D01*
X2259Y1617D02*
X2312Y1617D01*
X2331Y1617D02*
X2384Y1617D01*
X2260Y1616D02*
X2314Y1616D01*
X2329Y1616D02*
X2384Y1616D01*
X2260Y1615D02*
X2318Y1615D01*
X2325Y1615D02*
X2383Y1615D01*
X2261Y1614D02*
X2382Y1614D01*
X2262Y1613D02*
X2382Y1613D01*
X2262Y1612D02*
X2381Y1612D01*
X2263Y1611D02*
X2380Y1611D01*
X2264Y1610D02*
X2379Y1610D01*
X2265Y1609D02*
X2378Y1609D01*
X2266Y1608D02*
X2377Y1608D01*
X2267Y1607D02*
X2376Y1607D01*
X2268Y1606D02*
X2375Y1606D01*
X2269Y1605D02*
X2374Y1605D01*
X2271Y1604D02*
X2373Y1604D01*
X2272Y1603D02*
X2371Y1603D01*
X2274Y1602D02*
X2369Y1602D01*
X2276Y1601D02*
X2367Y1601D01*
X2279Y1600D02*
X2364Y1600D01*
X2283Y1599D02*
X2360Y1599D01*
X2282Y1287D02*
X2362Y1287D01*
X2278Y1286D02*
X2365Y1286D01*
X2276Y1285D02*
X2368Y1285D01*
X2274Y1284D02*
X2370Y1284D01*
X2272Y1283D02*
X2371Y1283D01*
X2270Y1282D02*
X2373Y1282D01*
X2269Y1281D02*
X2374Y1281D01*
X2268Y1280D02*
X2376Y1280D01*
X2267Y1279D02*
X2377Y1279D01*
X2266Y1278D02*
X2378Y1278D01*
X2265Y1277D02*
X2379Y1277D01*
X2264Y1276D02*
X2380Y1276D01*
X2263Y1275D02*
X2380Y1275D01*
X2262Y1274D02*
X2381Y1274D01*
X2261Y1273D02*
X2382Y1273D01*
X2261Y1272D02*
X2383Y1272D01*
X2260Y1271D02*
X2317Y1271D01*
X2327Y1271D02*
X2383Y1271D01*
X2259Y1270D02*
X2314Y1270D01*
X2330Y1270D02*
X2384Y1270D01*
X2259Y1269D02*
X2312Y1269D01*
X2331Y1269D02*
X2384Y1269D01*
X2258Y1268D02*
X2310Y1268D01*
X2333Y1268D02*
X2385Y1268D01*
X2258Y1267D02*
X2309Y1267D01*
X2334Y1267D02*
X2385Y1267D01*
X2257Y1266D02*
X2308Y1266D01*
X2335Y1266D02*
X2386Y1266D01*
X2257Y1265D02*
X2307Y1265D01*
X2336Y1265D02*
X2386Y1265D01*
X2257Y1264D02*
X2306Y1264D01*
X2337Y1264D02*
X2387Y1264D01*
X2256Y1263D02*
X2305Y1263D01*
X2338Y1263D02*
X2387Y1263D01*
X2256Y1262D02*
X2305Y1262D01*
X2339Y1262D02*
X2387Y1262D01*
X2256Y1261D02*
X2304Y1261D01*
X2339Y1261D02*
X2388Y1261D01*
X2255Y1260D02*
X2303Y1260D01*
X2340Y1260D02*
X2388Y1260D01*
X2255Y1259D02*
X2303Y1259D01*
X2340Y1259D02*
X2388Y1259D01*
X2255Y1258D02*
X2303Y1258D01*
X2341Y1258D02*
X2389Y1258D01*
X2254Y1257D02*
X2302Y1257D01*
X2341Y1257D02*
X2389Y1257D01*
X2254Y1256D02*
X2302Y1256D01*
X2342Y1256D02*
X2389Y1256D01*
X2254Y1255D02*
X2301Y1255D01*
X2342Y1255D02*
X2389Y1255D01*
X2254Y1254D02*
X2301Y1254D01*
X2342Y1254D02*
X2389Y1254D01*
X2254Y1253D02*
X2301Y1253D01*
X2342Y1253D02*
X2390Y1253D01*
X2254Y1252D02*
X2301Y1252D01*
X2343Y1252D02*
X2390Y1252D01*
X2253Y1251D02*
X2300Y1251D01*
X2343Y1251D02*
X2390Y1251D01*
X2253Y1250D02*
X2300Y1250D01*
X2343Y1250D02*
X2390Y1250D01*
X2253Y1249D02*
X2300Y1249D01*
X2343Y1249D02*
X2390Y1249D01*
X2253Y1248D02*
X2300Y1248D01*
X2343Y1248D02*
X2390Y1248D01*
X2253Y1247D02*
X2300Y1247D01*
X2343Y1247D02*
X2390Y1247D01*
X2253Y1246D02*
X2300Y1246D01*
X2343Y1246D02*
X2390Y1246D01*
X2253Y1245D02*
X2300Y1245D01*
X2343Y1245D02*
X2390Y1245D01*
X2253Y1244D02*
X2300Y1244D01*
X2343Y1244D02*
X2390Y1244D01*
X2253Y1243D02*
X2300Y1243D01*
X2343Y1243D02*
X2390Y1243D01*
X2253Y1242D02*
X2300Y1242D01*
X2343Y1242D02*
X2390Y1242D01*
X2254Y1241D02*
X2301Y1241D01*
X2343Y1241D02*
X2390Y1241D01*
X2254Y1240D02*
X2301Y1240D01*
X2342Y1240D02*
X2390Y1240D01*
X2254Y1239D02*
X2301Y1239D01*
X2342Y1239D02*
X2389Y1239D01*
X2254Y1238D02*
X2301Y1238D01*
X2342Y1238D02*
X2389Y1238D01*
X2254Y1237D02*
X2302Y1237D01*
X2342Y1237D02*
X2389Y1237D01*
X2254Y1236D02*
X2302Y1236D01*
X2341Y1236D02*
X2389Y1236D01*
X2255Y1235D02*
X2302Y1235D01*
X2341Y1235D02*
X2389Y1235D01*
X2255Y1234D02*
X2303Y1234D01*
X2340Y1234D02*
X2388Y1234D01*
X2255Y1233D02*
X2303Y1233D01*
X2340Y1233D02*
X2388Y1233D01*
X2255Y1232D02*
X2304Y1232D01*
X2339Y1232D02*
X2388Y1232D01*
X2256Y1231D02*
X2305Y1231D01*
X2339Y1231D02*
X2388Y1231D01*
X2256Y1230D02*
X2305Y1230D01*
X2338Y1230D02*
X2387Y1230D01*
X2256Y1229D02*
X2306Y1229D01*
X2337Y1229D02*
X2387Y1229D01*
X2257Y1228D02*
X2307Y1228D01*
X2337Y1228D02*
X2386Y1228D01*
X2257Y1227D02*
X2308Y1227D01*
X2336Y1227D02*
X2386Y1227D01*
X2258Y1226D02*
X2309Y1226D01*
X2335Y1226D02*
X2386Y1226D01*
X2258Y1225D02*
X2310Y1225D01*
X2333Y1225D02*
X2385Y1225D01*
X2259Y1224D02*
X2312Y1224D01*
X2332Y1224D02*
X2385Y1224D01*
X2259Y1223D02*
X2313Y1223D01*
X2330Y1223D02*
X2384Y1223D01*
X2260Y1222D02*
X2316Y1222D01*
X2328Y1222D02*
X2383Y1222D01*
X2261Y1221D02*
X2383Y1221D01*
X2261Y1220D02*
X2382Y1220D01*
X2262Y1219D02*
X2381Y1219D01*
X2263Y1218D02*
X2381Y1218D01*
X2263Y1217D02*
X2380Y1217D01*
X2264Y1216D02*
X2379Y1216D01*
X2265Y1215D02*
X2378Y1215D01*
X2266Y1214D02*
X2377Y1214D01*
X2267Y1213D02*
X2376Y1213D01*
X2269Y1212D02*
X2375Y1212D01*
X2270Y1211D02*
X2373Y1211D01*
X2271Y1210D02*
X2372Y1210D01*
X2273Y1209D02*
X2370Y1209D01*
X2275Y1208D02*
X2368Y1208D01*
X2277Y1207D02*
X2366Y1207D01*
X2280Y1206D02*
X2363Y1206D01*
X2287Y894D02*
X2357Y894D01*
X2280Y893D02*
X2363Y893D01*
X2277Y892D02*
X2366Y892D01*
X2275Y891D02*
X2369Y891D01*
X2273Y890D02*
X2370Y890D01*
X2271Y889D02*
X2372Y889D01*
X2270Y888D02*
X2373Y888D01*
X2268Y887D02*
X2375Y887D01*
X2267Y886D02*
X2376Y886D01*
X2266Y885D02*
X2377Y885D01*
X2265Y884D02*
X2378Y884D01*
X2264Y883D02*
X2379Y883D01*
X2263Y882D02*
X2380Y882D01*
X2263Y881D02*
X2381Y881D01*
X2262Y880D02*
X2381Y880D01*
X2261Y879D02*
X2382Y879D01*
X2260Y878D02*
X2383Y878D01*
X2260Y877D02*
X2315Y877D01*
X2328Y877D02*
X2383Y877D01*
X2259Y876D02*
X2313Y876D01*
X2330Y876D02*
X2384Y876D01*
X2259Y875D02*
X2311Y875D01*
X2332Y875D02*
X2385Y875D01*
X2258Y874D02*
X2310Y874D01*
X2333Y874D02*
X2385Y874D01*
X2258Y873D02*
X2309Y873D01*
X2335Y873D02*
X2386Y873D01*
X2257Y872D02*
X2308Y872D01*
X2336Y872D02*
X2386Y872D01*
X2257Y871D02*
X2307Y871D01*
X2337Y871D02*
X2386Y871D01*
X2256Y870D02*
X2306Y870D01*
X2337Y870D02*
X2387Y870D01*
X2256Y869D02*
X2305Y869D01*
X2338Y869D02*
X2387Y869D01*
X2256Y868D02*
X2304Y868D01*
X2339Y868D02*
X2388Y868D01*
X2255Y867D02*
X2304Y867D01*
X2339Y867D02*
X2388Y867D01*
X2255Y866D02*
X2303Y866D01*
X2340Y866D02*
X2388Y866D01*
X2255Y865D02*
X2303Y865D01*
X2340Y865D02*
X2388Y865D01*
X2255Y864D02*
X2302Y864D01*
X2341Y864D02*
X2389Y864D01*
X2254Y863D02*
X2302Y863D01*
X2341Y863D02*
X2389Y863D01*
X2254Y862D02*
X2302Y862D01*
X2342Y862D02*
X2389Y862D01*
X2254Y861D02*
X2301Y861D01*
X2342Y861D02*
X2389Y861D01*
X2254Y860D02*
X2301Y860D01*
X2342Y860D02*
X2389Y860D01*
X2254Y859D02*
X2301Y859D01*
X2342Y859D02*
X2390Y859D01*
X2254Y858D02*
X2301Y858D01*
X2343Y858D02*
X2390Y858D01*
X2253Y857D02*
X2300Y857D01*
X2343Y857D02*
X2390Y857D01*
X2253Y856D02*
X2300Y856D01*
X2343Y856D02*
X2390Y856D01*
X2253Y855D02*
X2300Y855D01*
X2343Y855D02*
X2390Y855D01*
X2253Y854D02*
X2300Y854D01*
X2343Y854D02*
X2390Y854D01*
X2253Y853D02*
X2300Y853D01*
X2343Y853D02*
X2390Y853D01*
X2253Y852D02*
X2300Y852D01*
X2343Y852D02*
X2390Y852D01*
X2253Y851D02*
X2300Y851D01*
X2343Y851D02*
X2390Y851D01*
X2253Y850D02*
X2300Y850D01*
X2343Y850D02*
X2390Y850D01*
X2253Y849D02*
X2300Y849D01*
X2343Y849D02*
X2390Y849D01*
X2253Y848D02*
X2300Y848D01*
X2343Y848D02*
X2390Y848D01*
X2254Y847D02*
X2301Y847D01*
X2343Y847D02*
X2390Y847D01*
X2254Y846D02*
X2301Y846D01*
X2342Y846D02*
X2390Y846D01*
X2254Y845D02*
X2301Y845D01*
X2342Y845D02*
X2389Y845D01*
X2254Y844D02*
X2301Y844D01*
X2342Y844D02*
X2389Y844D01*
X2254Y843D02*
X2302Y843D01*
X2342Y843D02*
X2389Y843D01*
X2254Y842D02*
X2302Y842D01*
X2341Y842D02*
X2389Y842D01*
X2255Y841D02*
X2303Y841D01*
X2341Y841D02*
X2389Y841D01*
X2255Y840D02*
X2303Y840D01*
X2340Y840D02*
X2388Y840D01*
X2255Y839D02*
X2303Y839D01*
X2340Y839D02*
X2388Y839D01*
X2256Y838D02*
X2304Y838D01*
X2339Y838D02*
X2388Y838D01*
X2256Y837D02*
X2305Y837D01*
X2338Y837D02*
X2387Y837D01*
X2256Y836D02*
X2305Y836D01*
X2338Y836D02*
X2387Y836D01*
X2257Y835D02*
X2306Y835D01*
X2337Y835D02*
X2387Y835D01*
X2257Y834D02*
X2307Y834D01*
X2336Y834D02*
X2386Y834D01*
X2257Y833D02*
X2308Y833D01*
X2335Y833D02*
X2386Y833D01*
X2258Y832D02*
X2309Y832D01*
X2334Y832D02*
X2385Y832D01*
X2258Y831D02*
X2311Y831D01*
X2333Y831D02*
X2385Y831D01*
X2259Y830D02*
X2312Y830D01*
X2331Y830D02*
X2384Y830D01*
X2260Y829D02*
X2314Y829D01*
X2329Y829D02*
X2384Y829D01*
X2260Y828D02*
X2317Y828D01*
X2326Y828D02*
X2383Y828D01*
X2261Y827D02*
X2382Y827D01*
X2261Y826D02*
X2382Y826D01*
X2262Y825D02*
X2381Y825D01*
X2263Y824D02*
X2380Y824D01*
X2264Y823D02*
X2379Y823D01*
X2265Y822D02*
X2379Y822D01*
X2266Y821D02*
X2378Y821D01*
X2267Y820D02*
X2377Y820D01*
X2268Y819D02*
X2375Y819D01*
X2269Y818D02*
X2374Y818D01*
X2270Y817D02*
X2373Y817D01*
X2272Y816D02*
X2371Y816D01*
X2274Y815D02*
X2370Y815D01*
X2276Y814D02*
X2367Y814D01*
X2278Y813D02*
X2365Y813D01*
X2282Y812D02*
X2361Y812D01*
X2283Y500D02*
X2360Y500D01*
X2279Y499D02*
X2365Y499D01*
X2276Y498D02*
X2367Y498D01*
X2274Y497D02*
X2369Y497D01*
X2272Y496D02*
X2371Y496D01*
X2271Y495D02*
X2373Y495D01*
X2269Y494D02*
X2374Y494D01*
X2268Y493D02*
X2375Y493D01*
X2267Y492D02*
X2376Y492D01*
X2266Y491D02*
X2377Y491D01*
X2265Y490D02*
X2378Y490D01*
X2264Y489D02*
X2379Y489D01*
X2263Y488D02*
X2380Y488D01*
X2262Y487D02*
X2381Y487D01*
X2262Y486D02*
X2382Y486D01*
X2261Y485D02*
X2382Y485D01*
X2260Y484D02*
X2318Y484D01*
X2326Y484D02*
X2383Y484D01*
X2260Y483D02*
X2314Y483D01*
X2329Y483D02*
X2384Y483D01*
X2259Y482D02*
X2312Y482D01*
X2331Y482D02*
X2384Y482D01*
X2259Y481D02*
X2311Y481D01*
X2332Y481D02*
X2385Y481D01*
X2258Y480D02*
X2309Y480D01*
X2334Y480D02*
X2385Y480D01*
X2257Y479D02*
X2308Y479D01*
X2335Y479D02*
X2386Y479D01*
X2257Y478D02*
X2307Y478D01*
X2336Y478D02*
X2386Y478D01*
X2257Y477D02*
X2306Y477D01*
X2337Y477D02*
X2387Y477D01*
X2256Y476D02*
X2306Y476D01*
X2338Y476D02*
X2387Y476D01*
X2256Y475D02*
X2305Y475D01*
X2338Y475D02*
X2387Y475D01*
X2256Y474D02*
X2304Y474D01*
X2339Y474D02*
X2388Y474D01*
X2255Y473D02*
X2304Y473D01*
X2340Y473D02*
X2388Y473D01*
X2255Y472D02*
X2303Y472D01*
X2340Y472D02*
X2388Y472D01*
X2255Y471D02*
X2303Y471D01*
X2341Y471D02*
X2389Y471D01*
X2255Y470D02*
X2302Y470D01*
X2341Y470D02*
X2389Y470D01*
X2254Y469D02*
X2302Y469D01*
X2342Y469D02*
X2389Y469D01*
X2254Y468D02*
X2301Y468D01*
X2342Y468D02*
X2389Y468D01*
X2254Y467D02*
X2301Y467D01*
X2342Y467D02*
X2389Y467D01*
X2254Y466D02*
X2301Y466D01*
X2342Y466D02*
X2389Y466D01*
X2254Y465D02*
X2301Y465D01*
X2343Y465D02*
X2390Y465D01*
X2254Y464D02*
X2300Y464D01*
X2343Y464D02*
X2390Y464D01*
X2253Y463D02*
X2300Y463D01*
X2343Y463D02*
X2390Y463D01*
X2253Y462D02*
X2300Y462D01*
X2343Y462D02*
X2390Y462D01*
X2253Y461D02*
X2300Y461D01*
X2343Y461D02*
X2390Y461D01*
X2253Y460D02*
X2300Y460D01*
X2343Y460D02*
X2390Y460D01*
X2253Y459D02*
X2300Y459D01*
X2343Y459D02*
X2390Y459D01*
X2253Y458D02*
X2300Y458D01*
X2343Y458D02*
X2390Y458D01*
X2253Y457D02*
X2300Y457D01*
X2343Y457D02*
X2390Y457D01*
X2253Y456D02*
X2300Y456D01*
X2343Y456D02*
X2390Y456D01*
X2253Y455D02*
X2300Y455D01*
X2343Y455D02*
X2390Y455D01*
X2254Y454D02*
X2301Y454D01*
X2343Y454D02*
X2390Y454D01*
X2254Y453D02*
X2301Y453D01*
X2342Y453D02*
X2390Y453D01*
X2254Y452D02*
X2301Y452D01*
X2342Y452D02*
X2389Y452D01*
X2254Y451D02*
X2301Y451D01*
X2342Y451D02*
X2389Y451D01*
X2254Y450D02*
X2302Y450D01*
X2342Y450D02*
X2389Y450D01*
X2254Y449D02*
X2302Y449D01*
X2341Y449D02*
X2389Y449D01*
X2255Y448D02*
X2302Y448D01*
X2341Y448D02*
X2389Y448D01*
X2255Y447D02*
X2303Y447D01*
X2341Y447D02*
X2388Y447D01*
X2255Y446D02*
X2303Y446D01*
X2340Y446D02*
X2388Y446D01*
X2255Y445D02*
X2304Y445D01*
X2340Y445D02*
X2388Y445D01*
X2256Y444D02*
X2304Y444D01*
X2339Y444D02*
X2388Y444D01*
X2256Y443D02*
X2305Y443D01*
X2338Y443D02*
X2387Y443D01*
X2256Y442D02*
X2306Y442D01*
X2338Y442D02*
X2387Y442D01*
X2257Y441D02*
X2306Y441D01*
X2337Y441D02*
X2386Y441D01*
X2257Y440D02*
X2307Y440D01*
X2336Y440D02*
X2386Y440D01*
X2258Y439D02*
X2309Y439D01*
X2335Y439D02*
X2386Y439D01*
X2258Y438D02*
X2310Y438D01*
X2334Y438D02*
X2385Y438D01*
X2259Y437D02*
X2311Y437D01*
X2332Y437D02*
X2385Y437D01*
X2259Y436D02*
X2313Y436D01*
X2331Y436D02*
X2384Y436D01*
X2260Y435D02*
X2315Y435D01*
X2328Y435D02*
X2383Y435D01*
X2260Y434D02*
X2319Y434D01*
X2324Y434D02*
X2383Y434D01*
X2261Y433D02*
X2382Y433D01*
X2262Y432D02*
X2382Y432D01*
X2263Y431D02*
X2381Y431D01*
X2263Y430D02*
X2380Y430D01*
X2264Y429D02*
X2379Y429D01*
X2265Y428D02*
X2378Y428D01*
X2266Y427D02*
X2377Y427D01*
X2267Y426D02*
X2376Y426D01*
X2268Y425D02*
X2375Y425D01*
X2270Y424D02*
X2374Y424D01*
X2271Y423D02*
X2372Y423D01*
X2273Y422D02*
X2371Y422D01*
X2274Y421D02*
X2369Y421D01*
X2277Y420D02*
X2367Y420D01*
X2280Y419D02*
X2364Y419D01*
X2284Y418D02*
X2359Y418D01*
D02*
G04 End of Copper1*
M02*