G04 MADE WITH FRITZING*
G04 WWW.FRITZING.ORG*
G04 DOUBLE SIDED*
G04 HOLES PLATED*
G04 CONTOUR ON CENTER OF CONTOUR VECTOR*
%ASAXBY*%
%FSLAX23Y23*%
%MOIN*%
%OFA0B0*%
%SFA1.0B1.0*%
%ADD10C,0.083071*%
%ADD11R,0.062992X0.074803*%
%ADD12R,0.078740X0.047244*%
%LNPASTEMASK1*%
G90*
G70*
G54D10*
X2223Y359D03*
X2423Y359D03*
X2423Y559D03*
X2223Y359D03*
X2423Y359D03*
X2423Y559D03*
X2223Y752D03*
X2423Y752D03*
X2423Y952D03*
X2223Y752D03*
X2423Y752D03*
X2423Y952D03*
X2223Y1540D03*
X2423Y1540D03*
X2423Y1740D03*
X2223Y1540D03*
X2423Y1540D03*
X2423Y1740D03*
X2223Y1146D03*
X2423Y1146D03*
X2423Y1346D03*
X2223Y1146D03*
X2423Y1146D03*
X2423Y1346D03*
G54D11*
X1280Y715D03*
X1402Y715D03*
X1280Y577D03*
X1402Y577D03*
X1693Y498D03*
X1815Y498D03*
G54D12*
X1701Y380D03*
X1811Y380D03*
G54D11*
X1693Y774D03*
X1815Y774D03*
X1693Y656D03*
X1815Y656D03*
X1772Y1797D03*
X1894Y1797D03*
G36*
X1807Y1011D02*
X1925Y1011D01*
X1925Y1001D01*
X1807Y1001D01*
X1807Y1011D01*
G37*
D02*
G36*
X1807Y1031D02*
X1925Y1031D01*
X1925Y1021D01*
X1807Y1021D01*
X1807Y1031D01*
G37*
D02*
G36*
X1807Y1050D02*
X1925Y1050D01*
X1925Y1040D01*
X1807Y1040D01*
X1807Y1050D01*
G37*
D02*
G36*
X1807Y1070D02*
X1925Y1070D01*
X1925Y1060D01*
X1807Y1060D01*
X1807Y1070D01*
G37*
D02*
G36*
X1807Y1090D02*
X1925Y1090D01*
X1925Y1080D01*
X1807Y1080D01*
X1807Y1090D01*
G37*
D02*
G36*
X1610Y1090D02*
X1728Y1090D01*
X1728Y1080D01*
X1610Y1080D01*
X1610Y1090D01*
G37*
D02*
G36*
X1610Y1070D02*
X1728Y1070D01*
X1728Y1060D01*
X1610Y1060D01*
X1610Y1070D01*
G37*
D02*
G36*
X1610Y1050D02*
X1728Y1050D01*
X1728Y1040D01*
X1610Y1040D01*
X1610Y1050D01*
G37*
D02*
G36*
X1610Y1031D02*
X1728Y1031D01*
X1728Y1021D01*
X1610Y1021D01*
X1610Y1031D01*
G37*
D02*
G36*
X1610Y1011D02*
X1728Y1011D01*
X1728Y1001D01*
X1610Y1001D01*
X1610Y1011D01*
G37*
D02*
G36*
X996Y773D02*
X1114Y773D01*
X1114Y759D01*
X996Y759D01*
X996Y773D01*
G37*
D02*
G36*
X996Y798D02*
X1114Y798D01*
X1114Y784D01*
X996Y784D01*
X996Y798D01*
G37*
D02*
G36*
X996Y824D02*
X1114Y824D01*
X1114Y810D01*
X996Y810D01*
X996Y824D01*
G37*
D02*
G36*
X996Y849D02*
X1114Y849D01*
X1114Y836D01*
X996Y836D01*
X996Y849D01*
G37*
D02*
G36*
X996Y875D02*
X1114Y875D01*
X1114Y861D01*
X996Y861D01*
X996Y875D01*
G37*
D02*
G36*
X996Y901D02*
X1114Y901D01*
X1114Y887D01*
X996Y887D01*
X996Y901D01*
G37*
D02*
G36*
X996Y926D02*
X1114Y926D01*
X1114Y912D01*
X996Y912D01*
X996Y926D01*
G37*
D02*
G36*
X996Y952D02*
X1114Y952D01*
X1114Y938D01*
X996Y938D01*
X996Y952D01*
G37*
D02*
G36*
X709Y952D02*
X827Y952D01*
X827Y938D01*
X709Y938D01*
X709Y952D01*
G37*
D02*
G36*
X709Y926D02*
X827Y926D01*
X827Y912D01*
X709Y912D01*
X709Y926D01*
G37*
D02*
G36*
X709Y901D02*
X827Y901D01*
X827Y887D01*
X709Y887D01*
X709Y901D01*
G37*
D02*
G36*
X709Y875D02*
X827Y875D01*
X827Y861D01*
X709Y861D01*
X709Y875D01*
G37*
D02*
G36*
X709Y849D02*
X827Y849D01*
X827Y836D01*
X709Y836D01*
X709Y849D01*
G37*
D02*
G36*
X709Y824D02*
X827Y824D01*
X827Y810D01*
X709Y810D01*
X709Y824D01*
G37*
D02*
G36*
X709Y798D02*
X827Y798D01*
X827Y784D01*
X709Y784D01*
X709Y798D01*
G37*
D02*
G36*
X709Y773D02*
X827Y773D01*
X827Y759D01*
X709Y759D01*
X709Y773D01*
G37*
D02*
G36*
X1093Y354D02*
X1093Y429D01*
X1156Y429D01*
X1156Y354D01*
X1093Y354D01*
G37*
D02*
G36*
X971Y354D02*
X971Y429D01*
X1034Y429D01*
X1034Y354D01*
X971Y354D01*
G37*
D02*
G36*
X1097Y488D02*
X1097Y563D01*
X1160Y563D01*
X1160Y488D01*
X1097Y488D01*
G37*
D02*
G36*
X974Y488D02*
X974Y563D01*
X1037Y563D01*
X1037Y488D01*
X974Y488D01*
G37*
D02*
G36*
X1791Y1671D02*
X1752Y1671D01*
X1752Y1687D01*
X1791Y1687D01*
X1791Y1671D01*
G37*
D02*
G36*
X1791Y1632D02*
X1752Y1632D01*
X1752Y1648D01*
X1791Y1648D01*
X1791Y1632D01*
G37*
D02*
G36*
X1791Y1593D02*
X1752Y1593D01*
X1752Y1608D01*
X1791Y1608D01*
X1791Y1593D01*
G37*
D02*
G36*
X1913Y1594D02*
X1874Y1594D01*
X1874Y1610D01*
X1913Y1610D01*
X1913Y1594D01*
G37*
D02*
G36*
X1913Y1632D02*
X1874Y1632D01*
X1874Y1648D01*
X1913Y1648D01*
X1913Y1632D01*
G37*
D02*
G36*
X1913Y1671D02*
X1874Y1671D01*
X1874Y1687D01*
X1913Y1687D01*
X1913Y1671D01*
G37*
D02*
G36*
X1862Y1593D02*
X1803Y1593D01*
X1803Y1687D01*
X1862Y1687D01*
X1862Y1593D01*
G37*
D02*
G04 End of PasteMask1*
M02*