; NON-PLATED HOLES START AT T1
; THROUGH (PLATED) HOLES START AT T100
M48
INCH
T1C0.039370
T100C0.015748
T101C0.038000
T102C0.038417
T103C0.040000
T104C0.062677
T105C0.035000
T106C0.038445
T107C0.063071
%
T1
X017953Y017264
X019882Y016988
X019882Y016398
X016733Y016398
X016733Y016988
X019882Y015217
X019882Y015807
X016733Y015217
X016733Y015807
X019292Y014705
X017284Y014705
X018740Y017264
X019882Y017579
X016733Y017579
X018307Y014705
T100
X019397Y011251
X004921Y007146
X006844Y010275
X010040Y002441
X017918Y008723
X021792Y012146
X021733Y003110
X017914Y015413
X010236Y010492
X020333Y009172
X005512Y008465
X018701Y008917
X021319Y015630
X004705Y009068
X021004Y009390
X018701Y015413
X006890Y014823
X005906Y015610
X012500Y007874
X011890Y007205
X014744Y010669
X008312Y006557
X019253Y009466
X004668Y014249
X009449Y010886
X018898Y007539
X015866Y008465
X005963Y010079
X011260Y002933
T101
X013599Y017382
X012599Y017382
X011599Y017382
X010599Y017382
X008481Y017776
X014599Y017382
X007481Y017776
T102
X014030Y001110
X015030Y001110
X024030Y001110
X025030Y001110
X016030Y001110
X017030Y001110
X018030Y001110
X020030Y001110
X021030Y001110
X011030Y001110
X012030Y001110
X013030Y001110
X022030Y001110
X023031Y001110
T103
X002756Y008768
X001378Y019941
X002756Y009768
X002756Y019941
X001756Y005768
X004134Y019941
X001756Y006768
X002756Y005768
X001756Y007768
X005512Y019941
X002756Y006768
X001756Y008768
X002756Y007768
X001756Y009768
T104
X022231Y005585
X022231Y013459
X022231Y017396
X022231Y009522
T105
X005315Y003602
X007874Y001831
X005315Y001831
X007874Y003602
T106
X016430Y020110
X024030Y020110
X010430Y020110
X025030Y020110
X008430Y020110
X009430Y020110
X018030Y020110
X011430Y020110
X012430Y020110
X020030Y020110
X021030Y020110
X019030Y020110
X013430Y020110
X014430Y020110
X015430Y020110
X022030Y020110
X023031Y020110
X007430Y020110
T107
X024229Y011461
X024229Y017398
X024229Y005587
X022229Y007524
X023221Y016406
X023221Y008532
X024229Y013461
X022229Y015398
X022229Y003587
X023221Y012469
X022229Y009524
X023221Y004595
X024229Y007524
X022229Y011461
X022229Y017398
X022229Y005587
X024229Y015398
X024229Y003587
X024229Y009524
X022229Y013461
T00
M30
