G04 #@! TF.FileFunction,Soldermask,Bot*
%FSLAX46Y46*%
G04 Gerber Fmt 4.6, Leading zero omitted, Abs format (unit mm)*
G04 Created by KiCad (PCBNEW 4.0.5) date 01/31/17 23:14:55*
%MOMM*%
%LPD*%
G01*
G04 APERTURE LIST*
%ADD10C,0.100000*%
%ADD11O,2.400000X1.600000*%
%ADD12C,2.400000*%
%ADD13R,1.750000X1.750000*%
%ADD14C,1.750000*%
%ADD15C,3.400000*%
%ADD16R,2.000000X2.000000*%
%ADD17O,2.000000X2.000000*%
%ADD18R,2.400000X2.100000*%
%ADD19C,3.900000*%
%ADD20O,1.924000X2.940000*%
G04 APERTURE END LIST*
D10*
D11*
X159258000Y-97663000D03*
X161798000Y-98933000D03*
X159258000Y-100203000D03*
X161798000Y-101473000D03*
X159258000Y-102743000D03*
X161798000Y-104013000D03*
X159258000Y-105283000D03*
X161798000Y-106553000D03*
X159258000Y-107823000D03*
X161798000Y-109093000D03*
X159258000Y-110363000D03*
X161798000Y-111633000D03*
D12*
X161028000Y-96298000D03*
D13*
X160020000Y-91948000D03*
D14*
X158020000Y-91948000D03*
D15*
X166116000Y-87630000D03*
D16*
X168656000Y-124460000D03*
D17*
X171196000Y-116840000D03*
X171196000Y-124460000D03*
X168656000Y-116840000D03*
D16*
X181102000Y-96774000D03*
D17*
X181102000Y-89154000D03*
D16*
X160020000Y-124460000D03*
D17*
X162560000Y-116840000D03*
X162560000Y-124460000D03*
X160020000Y-116840000D03*
D16*
X177292000Y-124460000D03*
D17*
X179832000Y-116840000D03*
X179832000Y-124460000D03*
X177292000Y-116840000D03*
D16*
X175006000Y-96774000D03*
D17*
X175006000Y-89154000D03*
D18*
X176816000Y-121920000D03*
X180816000Y-121920000D03*
X167672000Y-119380000D03*
X171672000Y-119380000D03*
X167672000Y-121920000D03*
X171672000Y-121920000D03*
X159036000Y-119380000D03*
X163036000Y-119380000D03*
X159036000Y-121920000D03*
X163036000Y-121920000D03*
X176816000Y-119380000D03*
X180816000Y-119380000D03*
D11*
X152654000Y-114173000D03*
X150114000Y-112903000D03*
X152654000Y-111633000D03*
X150114000Y-110363000D03*
X152654000Y-109093000D03*
X150114000Y-107823000D03*
X152654000Y-106553000D03*
X150114000Y-105283000D03*
X152654000Y-104013000D03*
X150114000Y-102743000D03*
X152654000Y-101473000D03*
X150114000Y-100203000D03*
D12*
X150884000Y-115538000D03*
D19*
X197104000Y-94180000D03*
X197104000Y-119180000D03*
D20*
X147828000Y-82804000D03*
X150368000Y-82804000D03*
X152908000Y-82804000D03*
X160528000Y-82804000D03*
X157988000Y-82804000D03*
X155448000Y-82804000D03*
X165608000Y-82804000D03*
X168148000Y-82804000D03*
X170688000Y-82804000D03*
X175768000Y-82804000D03*
X147828000Y-131064000D03*
X150368000Y-131064000D03*
X152908000Y-131064000D03*
X155448000Y-131064000D03*
X157988000Y-131064000D03*
X160528000Y-131064000D03*
X163068000Y-131064000D03*
X165608000Y-131064000D03*
X169672000Y-131064000D03*
X172212000Y-131064000D03*
X174752000Y-131064000D03*
X177292000Y-131064000D03*
X179832000Y-131064000D03*
X173228000Y-82804000D03*
M02*
