M48
;DRILL file {KiCad 4.0.4+e1-6308~48~ubuntu14.04.1-stable} date Wed Jan  4 17:00:49 2017
;FORMAT={-:-/ absolute / inch / decimal}
FMAT,2
INCH,TZ
T1C0.016
T2C0.031
T3C0.033
T4C0.059
%
G90
G05
M72
T1
X5.9449Y-4.6654
X6.2205Y-4.8031
X6.4409Y-3.811
X6.6732Y-3.8681
X6.7323Y-3.563
X6.7815Y-3.8681
X6.8268Y-3.7165
X6.8504Y-3.563
X6.8898Y-3.874
X7.5591Y-4.1535
X7.5591Y-4.2126
X7.7953Y-4.1142
X7.8976Y-4.626
X7.9724Y-3.8976
X8.189Y-4.1142
X8.2185Y-4.2224
X8.2185Y-4.3307
X8.4547Y-4.0059
X8.4547Y-4.1142
X8.4547Y-4.2224
X8.4547Y-4.3406
T2
X6.063Y-3.6614
X6.1417Y-3.6614
X6.4846Y-4.3898
X6.4846Y-4.6898
X6.5846Y-4.3898
X6.5846Y-4.6898
X6.9079Y-4.3996
X6.9079Y-4.6996
X7.0079Y-4.3996
X7.0079Y-4.6996
X7.1654Y-3.622
X7.1654Y-3.922
X7.3409Y-4.3898
X7.3409Y-4.6898
X7.4409Y-3.622
X7.4409Y-3.922
X7.4409Y-4.3898
X7.4409Y-4.6898
T3
X6.0524Y-3.9535
X6.0524Y-4.0538
X6.0524Y-4.1535
X6.0524Y-4.2535
X6.0524Y-4.3614
X6.0524Y-4.4535
X6.1524Y-3.9035
X6.1524Y-4.0035
X6.1524Y-4.1035
X6.1524Y-4.2035
X6.1524Y-4.3071
X6.1524Y-4.4035
T4
X5.9843Y-4.7638
T0
M30
