G04 #@! TF.FileFunction,Legend,Top*
%FSLAX46Y46*%
G04 Gerber Fmt 4.6, Leading zero omitted, Abs format (unit mm)*
G04 Created by KiCad (PCBNEW 4.0.4+e1-6308~48~ubuntu14.04.1-stable) date Wed Jan  4 17:00:53 2017*
%MOMM*%
%LPD*%
G01*
G04 APERTURE LIST*
%ADD10C,0.100000*%
%ADD11C,0.300000*%
%ADD12C,0.150000*%
%ADD13C,0.400000*%
%ADD14C,0.120000*%
%ADD15C,0.304800*%
G04 APERTURE END LIST*
D10*
D11*
X166785715Y-107178571D02*
X166785715Y-105678571D01*
X167500001Y-106392857D02*
X168000001Y-106392857D01*
X168214287Y-107178571D02*
X167500001Y-107178571D01*
X167500001Y-105678571D01*
X168214287Y-105678571D01*
X168785715Y-107107143D02*
X169000001Y-107178571D01*
X169357144Y-107178571D01*
X169500001Y-107107143D01*
X169571430Y-107035714D01*
X169642858Y-106892857D01*
X169642858Y-106750000D01*
X169571430Y-106607143D01*
X169500001Y-106535714D01*
X169357144Y-106464286D01*
X169071430Y-106392857D01*
X168928572Y-106321429D01*
X168857144Y-106250000D01*
X168785715Y-106107143D01*
X168785715Y-105964286D01*
X168857144Y-105821429D01*
X168928572Y-105750000D01*
X169071430Y-105678571D01*
X169428572Y-105678571D01*
X169642858Y-105750000D01*
X170214286Y-107107143D02*
X170428572Y-107178571D01*
X170785715Y-107178571D01*
X170928572Y-107107143D01*
X171000001Y-107035714D01*
X171071429Y-106892857D01*
X171071429Y-106750000D01*
X171000001Y-106607143D01*
X170928572Y-106535714D01*
X170785715Y-106464286D01*
X170500001Y-106392857D01*
X170357143Y-106321429D01*
X170285715Y-106250000D01*
X170214286Y-106107143D01*
X170214286Y-105964286D01*
X170285715Y-105821429D01*
X170357143Y-105750000D01*
X170500001Y-105678571D01*
X170857143Y-105678571D01*
X171071429Y-105750000D01*
X172714286Y-106178571D02*
X173071429Y-107178571D01*
X173428571Y-106178571D01*
X174285714Y-105678571D02*
X174428571Y-105678571D01*
X174571428Y-105750000D01*
X174642857Y-105821429D01*
X174714286Y-105964286D01*
X174785714Y-106250000D01*
X174785714Y-106607143D01*
X174714286Y-106892857D01*
X174642857Y-107035714D01*
X174571428Y-107107143D01*
X174428571Y-107178571D01*
X174285714Y-107178571D01*
X174142857Y-107107143D01*
X174071428Y-107035714D01*
X174000000Y-106892857D01*
X173928571Y-106607143D01*
X173928571Y-106250000D01*
X174000000Y-105964286D01*
X174071428Y-105821429D01*
X174142857Y-105750000D01*
X174285714Y-105678571D01*
X175428571Y-107035714D02*
X175499999Y-107107143D01*
X175428571Y-107178571D01*
X175357142Y-107107143D01*
X175428571Y-107035714D01*
X175428571Y-107178571D01*
X176928571Y-107178571D02*
X176071428Y-107178571D01*
X176500000Y-107178571D02*
X176500000Y-105678571D01*
X176357143Y-105892857D01*
X176214285Y-106035714D01*
X176071428Y-106107143D01*
X177571428Y-107178571D02*
X177571428Y-105678571D01*
X177571428Y-106250000D02*
X177714285Y-106178571D01*
X177999999Y-106178571D01*
X178142856Y-106250000D01*
X178214285Y-106321429D01*
X178285714Y-106464286D01*
X178285714Y-106892857D01*
X178214285Y-107035714D01*
X178142856Y-107107143D01*
X177999999Y-107178571D01*
X177714285Y-107178571D01*
X177571428Y-107107143D01*
D12*
X171600000Y-101550000D02*
X171600000Y-100850000D01*
X172800000Y-100850000D02*
X172800000Y-101550000D01*
X174400000Y-101550000D02*
X174400000Y-100850000D01*
X175600000Y-100850000D02*
X175600000Y-101550000D01*
X205850000Y-100600000D02*
X205150000Y-100600000D01*
X205150000Y-99400000D02*
X205850000Y-99400000D01*
X168800000Y-101550000D02*
X168800000Y-100850000D01*
X170000000Y-100850000D02*
X170000000Y-101550000D01*
X195350000Y-107600000D02*
X194650000Y-107600000D01*
X194650000Y-106400000D02*
X195350000Y-106400000D01*
X195350000Y-106100000D02*
X194650000Y-106100000D01*
X194650000Y-104900000D02*
X195350000Y-104900000D01*
X165250000Y-101600000D02*
X165950000Y-101600000D01*
X165950000Y-102800000D02*
X165250000Y-102800000D01*
X155000000Y-94000000D02*
X155000000Y-92000000D01*
X155000000Y-92000000D02*
X157000000Y-92000000D01*
X157000000Y-92000000D02*
X157000000Y-94000000D01*
X157000000Y-94000000D02*
X155000000Y-94000000D01*
X154000000Y-94500000D02*
X152500000Y-94500000D01*
X152500000Y-94500000D02*
X152500000Y-93000000D01*
X162350000Y-92600000D02*
X161650000Y-92600000D01*
X161650000Y-91400000D02*
X162350000Y-91400000D01*
X177200000Y-93950000D02*
X177200000Y-93250000D01*
X178400000Y-93250000D02*
X178400000Y-93950000D01*
X185200000Y-107450000D02*
X185200000Y-108150000D01*
X184000000Y-108150000D02*
X184000000Y-107450000D01*
X188200000Y-107450000D02*
X188200000Y-108150000D01*
X187000000Y-108150000D02*
X187000000Y-107450000D01*
X168500000Y-91250000D02*
G75*
G03X168500000Y-91250000I-250000J0D01*
G01*
X172250000Y-92850000D02*
X172250000Y-92350000D01*
X167750000Y-93600000D02*
X167750000Y-94100000D01*
X167750000Y-94100000D02*
X167750000Y-94350000D01*
X167750000Y-94350000D02*
X172250000Y-94350000D01*
X172250000Y-94350000D02*
X172250000Y-93600000D01*
X167750000Y-92350000D02*
X167750000Y-92850000D01*
X172250000Y-91600000D02*
X172250000Y-90850000D01*
X172250000Y-90850000D02*
X167750000Y-90850000D01*
X167750000Y-90850000D02*
X167750000Y-91600000D01*
X204500000Y-103500000D02*
X200500000Y-103500000D01*
X200500000Y-103500000D02*
X200500000Y-103750000D01*
X204500000Y-103500000D02*
X204500000Y-103750000D01*
X204250000Y-107000000D02*
G75*
G03X204250000Y-107000000I-250000J0D01*
G01*
X204500000Y-106750000D02*
X204500000Y-107500000D01*
X204500000Y-107500000D02*
X200500000Y-107500000D01*
X200500000Y-107500000D02*
X200500000Y-107250000D01*
X200500000Y-104250000D02*
X200500000Y-103750000D01*
X204500000Y-103750000D02*
X204500000Y-104250000D01*
X200500000Y-107250000D02*
X200500000Y-106750000D01*
X194500640Y-114500640D02*
X199499360Y-114500640D01*
X199499360Y-114500640D02*
X199499360Y-119499360D01*
X199499360Y-119499360D02*
X194500640Y-119499360D01*
X194500640Y-119499360D02*
X194500640Y-114500640D01*
X194500640Y-92500640D02*
X199499360Y-92500640D01*
X199499360Y-92500640D02*
X199499360Y-97499360D01*
X199499360Y-97499360D02*
X194500640Y-97499360D01*
X194500640Y-97499360D02*
X194500640Y-92500640D01*
X160775000Y-99000000D02*
X160775000Y-101000000D01*
X162825000Y-101000000D02*
X162825000Y-99000000D01*
X217000000Y-115500000D02*
X206500000Y-115500000D01*
X217000000Y-96500000D02*
X206500000Y-96500000D01*
D13*
X217000000Y-121500000D02*
X217000000Y-90500000D01*
X217000000Y-90500000D02*
X206500000Y-90500000D01*
X206500000Y-90500000D02*
X206500000Y-121500000D01*
X217000000Y-121500000D02*
X206500000Y-121500000D01*
D14*
X169730000Y-110300000D02*
X169730000Y-120320000D01*
X169730000Y-120320000D02*
X162230000Y-120320000D01*
X162230000Y-120320000D02*
X162230000Y-110300000D01*
X162230000Y-110300000D02*
X165980000Y-110300000D01*
X167885000Y-113280000D02*
X166615000Y-113280000D01*
X166615000Y-113280000D02*
X166615000Y-117340000D01*
X166615000Y-117340000D02*
X167885000Y-117340000D01*
X167885000Y-117340000D02*
X167885000Y-113280000D01*
X167885000Y-115310000D02*
X166615000Y-115310000D01*
X165345000Y-113280000D02*
X164075000Y-113280000D01*
X164075000Y-113280000D02*
X164075000Y-117340000D01*
X164075000Y-117340000D02*
X165345000Y-117340000D01*
X165345000Y-117340000D02*
X165345000Y-113280000D01*
X165345000Y-115310000D02*
X164075000Y-115310000D01*
X191480000Y-90800000D02*
X191480000Y-100820000D01*
X191480000Y-100820000D02*
X186520000Y-100820000D01*
X186520000Y-100820000D02*
X186520000Y-90800000D01*
X186520000Y-90800000D02*
X187730000Y-90800000D01*
X189635000Y-93780000D02*
X188365000Y-93780000D01*
X188365000Y-93780000D02*
X188365000Y-97840000D01*
X188365000Y-97840000D02*
X189635000Y-97840000D01*
X189635000Y-97840000D02*
X189635000Y-93780000D01*
X189635000Y-95810000D02*
X188365000Y-95810000D01*
X180480000Y-110550000D02*
X180480000Y-120570000D01*
X180480000Y-120570000D02*
X172980000Y-120570000D01*
X172980000Y-120570000D02*
X172980000Y-110550000D01*
X172980000Y-110550000D02*
X176730000Y-110550000D01*
X178635000Y-113530000D02*
X177365000Y-113530000D01*
X177365000Y-113530000D02*
X177365000Y-117590000D01*
X177365000Y-117590000D02*
X178635000Y-117590000D01*
X178635000Y-117590000D02*
X178635000Y-113530000D01*
X178635000Y-115560000D02*
X177365000Y-115560000D01*
X176095000Y-113530000D02*
X174825000Y-113530000D01*
X174825000Y-113530000D02*
X174825000Y-117590000D01*
X174825000Y-117590000D02*
X176095000Y-117590000D01*
X176095000Y-117590000D02*
X176095000Y-113530000D01*
X176095000Y-115560000D02*
X174825000Y-115560000D01*
X191480000Y-110300000D02*
X191480000Y-120320000D01*
X191480000Y-120320000D02*
X183980000Y-120320000D01*
X183980000Y-120320000D02*
X183980000Y-110300000D01*
X183980000Y-110300000D02*
X187730000Y-110300000D01*
X189635000Y-113280000D02*
X188365000Y-113280000D01*
X188365000Y-113280000D02*
X188365000Y-117340000D01*
X188365000Y-117340000D02*
X189635000Y-117340000D01*
X189635000Y-117340000D02*
X189635000Y-113280000D01*
X189635000Y-115310000D02*
X188365000Y-115310000D01*
X187095000Y-113280000D02*
X185825000Y-113280000D01*
X185825000Y-113280000D02*
X185825000Y-117340000D01*
X185825000Y-117340000D02*
X187095000Y-117340000D01*
X187095000Y-117340000D02*
X187095000Y-113280000D01*
X187095000Y-115310000D02*
X185825000Y-115310000D01*
X184480000Y-90800000D02*
X184480000Y-100820000D01*
X184480000Y-100820000D02*
X179520000Y-100820000D01*
X179520000Y-100820000D02*
X179520000Y-90800000D01*
X179520000Y-90800000D02*
X180730000Y-90800000D01*
X182635000Y-93780000D02*
X181365000Y-93780000D01*
X181365000Y-93780000D02*
X181365000Y-97840000D01*
X181365000Y-97840000D02*
X182635000Y-97840000D01*
X182635000Y-97840000D02*
X182635000Y-93780000D01*
X182635000Y-95810000D02*
X181365000Y-95810000D01*
D12*
X152230000Y-98515000D02*
X153230000Y-97515000D01*
X153230000Y-97515000D02*
X157770000Y-97515000D01*
X157770000Y-97515000D02*
X157770000Y-114685000D01*
X157770000Y-114685000D02*
X152230000Y-114685000D01*
X152230000Y-114685000D02*
X152230000Y-98515000D01*
X158270000Y-97515000D02*
X158270000Y-114685000D01*
X158270000Y-114685000D02*
X151730000Y-114685000D01*
X151730000Y-114685000D02*
X151730000Y-97515000D01*
X151730000Y-97515000D02*
X158270000Y-97515000D01*
X172083334Y-104357143D02*
X172035715Y-104404762D01*
X171892858Y-104452381D01*
X171797620Y-104452381D01*
X171654762Y-104404762D01*
X171559524Y-104309524D01*
X171511905Y-104214286D01*
X171464286Y-104023810D01*
X171464286Y-103880952D01*
X171511905Y-103690476D01*
X171559524Y-103595238D01*
X171654762Y-103500000D01*
X171797620Y-103452381D01*
X171892858Y-103452381D01*
X172035715Y-103500000D01*
X172083334Y-103547619D01*
X173035715Y-104452381D02*
X172464286Y-104452381D01*
X172750000Y-104452381D02*
X172750000Y-103452381D01*
X172654762Y-103595238D01*
X172559524Y-103690476D01*
X172464286Y-103738095D01*
X174833334Y-104357143D02*
X174785715Y-104404762D01*
X174642858Y-104452381D01*
X174547620Y-104452381D01*
X174404762Y-104404762D01*
X174309524Y-104309524D01*
X174261905Y-104214286D01*
X174214286Y-104023810D01*
X174214286Y-103880952D01*
X174261905Y-103690476D01*
X174309524Y-103595238D01*
X174404762Y-103500000D01*
X174547620Y-103452381D01*
X174642858Y-103452381D01*
X174785715Y-103500000D01*
X174833334Y-103547619D01*
X175214286Y-103547619D02*
X175261905Y-103500000D01*
X175357143Y-103452381D01*
X175595239Y-103452381D01*
X175690477Y-103500000D01*
X175738096Y-103547619D01*
X175785715Y-103642857D01*
X175785715Y-103738095D01*
X175738096Y-103880952D01*
X175166667Y-104452381D01*
X175785715Y-104452381D01*
X204333334Y-98857143D02*
X204285715Y-98904762D01*
X204142858Y-98952381D01*
X204047620Y-98952381D01*
X203904762Y-98904762D01*
X203809524Y-98809524D01*
X203761905Y-98714286D01*
X203714286Y-98523810D01*
X203714286Y-98380952D01*
X203761905Y-98190476D01*
X203809524Y-98095238D01*
X203904762Y-98000000D01*
X204047620Y-97952381D01*
X204142858Y-97952381D01*
X204285715Y-98000000D01*
X204333334Y-98047619D01*
X205190477Y-98285714D02*
X205190477Y-98952381D01*
X204952381Y-97904762D02*
X204714286Y-98619048D01*
X205333334Y-98619048D01*
X169083334Y-104357143D02*
X169035715Y-104404762D01*
X168892858Y-104452381D01*
X168797620Y-104452381D01*
X168654762Y-104404762D01*
X168559524Y-104309524D01*
X168511905Y-104214286D01*
X168464286Y-104023810D01*
X168464286Y-103880952D01*
X168511905Y-103690476D01*
X168559524Y-103595238D01*
X168654762Y-103500000D01*
X168797620Y-103452381D01*
X168892858Y-103452381D01*
X169035715Y-103500000D01*
X169083334Y-103547619D01*
X169988096Y-103452381D02*
X169511905Y-103452381D01*
X169464286Y-103928571D01*
X169511905Y-103880952D01*
X169607143Y-103833333D01*
X169845239Y-103833333D01*
X169940477Y-103880952D01*
X169988096Y-103928571D01*
X170035715Y-104023810D01*
X170035715Y-104261905D01*
X169988096Y-104357143D01*
X169940477Y-104404762D01*
X169845239Y-104452381D01*
X169607143Y-104452381D01*
X169511905Y-104404762D01*
X169464286Y-104357143D01*
X194833334Y-108857143D02*
X194785715Y-108904762D01*
X194642858Y-108952381D01*
X194547620Y-108952381D01*
X194404762Y-108904762D01*
X194309524Y-108809524D01*
X194261905Y-108714286D01*
X194214286Y-108523810D01*
X194214286Y-108380952D01*
X194261905Y-108190476D01*
X194309524Y-108095238D01*
X194404762Y-108000000D01*
X194547620Y-107952381D01*
X194642858Y-107952381D01*
X194785715Y-108000000D01*
X194833334Y-108047619D01*
X195690477Y-107952381D02*
X195500000Y-107952381D01*
X195404762Y-108000000D01*
X195357143Y-108047619D01*
X195261905Y-108190476D01*
X195214286Y-108380952D01*
X195214286Y-108761905D01*
X195261905Y-108857143D01*
X195309524Y-108904762D01*
X195404762Y-108952381D01*
X195595239Y-108952381D01*
X195690477Y-108904762D01*
X195738096Y-108857143D01*
X195785715Y-108761905D01*
X195785715Y-108523810D01*
X195738096Y-108428571D01*
X195690477Y-108380952D01*
X195595239Y-108333333D01*
X195404762Y-108333333D01*
X195309524Y-108380952D01*
X195261905Y-108428571D01*
X195214286Y-108523810D01*
X194833334Y-104357143D02*
X194785715Y-104404762D01*
X194642858Y-104452381D01*
X194547620Y-104452381D01*
X194404762Y-104404762D01*
X194309524Y-104309524D01*
X194261905Y-104214286D01*
X194214286Y-104023810D01*
X194214286Y-103880952D01*
X194261905Y-103690476D01*
X194309524Y-103595238D01*
X194404762Y-103500000D01*
X194547620Y-103452381D01*
X194642858Y-103452381D01*
X194785715Y-103500000D01*
X194833334Y-103547619D01*
X195166667Y-103452381D02*
X195833334Y-103452381D01*
X195404762Y-104452381D01*
X165333334Y-104452381D02*
X164857143Y-104452381D01*
X164857143Y-103452381D01*
X166190477Y-104452381D02*
X165619048Y-104452381D01*
X165904762Y-104452381D02*
X165904762Y-103452381D01*
X165809524Y-103595238D01*
X165714286Y-103690476D01*
X165619048Y-103738095D01*
X154261905Y-90952381D02*
X154261905Y-89952381D01*
X154642858Y-89952381D01*
X154738096Y-90000000D01*
X154785715Y-90047619D01*
X154833334Y-90142857D01*
X154833334Y-90285714D01*
X154785715Y-90380952D01*
X154738096Y-90428571D01*
X154642858Y-90476190D01*
X154261905Y-90476190D01*
X155785715Y-90952381D02*
X155214286Y-90952381D01*
X155500000Y-90952381D02*
X155500000Y-89952381D01*
X155404762Y-90095238D01*
X155309524Y-90190476D01*
X155214286Y-90238095D01*
X161833334Y-94352381D02*
X161500000Y-93876190D01*
X161261905Y-94352381D02*
X161261905Y-93352381D01*
X161642858Y-93352381D01*
X161738096Y-93400000D01*
X161785715Y-93447619D01*
X161833334Y-93542857D01*
X161833334Y-93685714D01*
X161785715Y-93780952D01*
X161738096Y-93828571D01*
X161642858Y-93876190D01*
X161261905Y-93876190D01*
X162785715Y-94352381D02*
X162214286Y-94352381D01*
X162500000Y-94352381D02*
X162500000Y-93352381D01*
X162404762Y-93495238D01*
X162309524Y-93590476D01*
X162214286Y-93638095D01*
X176352381Y-93766666D02*
X175876190Y-94100000D01*
X176352381Y-94338095D02*
X175352381Y-94338095D01*
X175352381Y-93957142D01*
X175400000Y-93861904D01*
X175447619Y-93814285D01*
X175542857Y-93766666D01*
X175685714Y-93766666D01*
X175780952Y-93814285D01*
X175828571Y-93861904D01*
X175876190Y-93957142D01*
X175876190Y-94338095D01*
X175352381Y-93433333D02*
X175352381Y-92766666D01*
X176352381Y-93195238D01*
X183452381Y-109630952D02*
X182976190Y-109964286D01*
X183452381Y-110202381D02*
X182452381Y-110202381D01*
X182452381Y-109821428D01*
X182500000Y-109726190D01*
X182547619Y-109678571D01*
X182642857Y-109630952D01*
X182785714Y-109630952D01*
X182880952Y-109678571D01*
X182928571Y-109726190D01*
X182976190Y-109821428D01*
X182976190Y-110202381D01*
X183452381Y-109202381D02*
X182452381Y-109202381D01*
X182547619Y-108773810D02*
X182500000Y-108726191D01*
X182452381Y-108630953D01*
X182452381Y-108392857D01*
X182500000Y-108297619D01*
X182547619Y-108250000D01*
X182642857Y-108202381D01*
X182738095Y-108202381D01*
X182880952Y-108250000D01*
X183452381Y-108821429D01*
X183452381Y-108202381D01*
X183357143Y-107202381D02*
X183404762Y-107250000D01*
X183452381Y-107392857D01*
X183452381Y-107488095D01*
X183404762Y-107630953D01*
X183309524Y-107726191D01*
X183214286Y-107773810D01*
X183023810Y-107821429D01*
X182880952Y-107821429D01*
X182690476Y-107773810D01*
X182595238Y-107726191D01*
X182500000Y-107630953D01*
X182452381Y-107488095D01*
X182452381Y-107392857D01*
X182500000Y-107250000D01*
X182547619Y-107202381D01*
X183452381Y-106250000D02*
X183452381Y-106821429D01*
X183452381Y-106535715D02*
X182452381Y-106535715D01*
X182595238Y-106630953D01*
X182690476Y-106726191D01*
X182738095Y-106821429D01*
X186952381Y-109380952D02*
X186476190Y-109714286D01*
X186952381Y-109952381D02*
X185952381Y-109952381D01*
X185952381Y-109571428D01*
X186000000Y-109476190D01*
X186047619Y-109428571D01*
X186142857Y-109380952D01*
X186285714Y-109380952D01*
X186380952Y-109428571D01*
X186428571Y-109476190D01*
X186476190Y-109571428D01*
X186476190Y-109952381D01*
X186952381Y-108952381D02*
X185952381Y-108952381D01*
X186047619Y-108523810D02*
X186000000Y-108476191D01*
X185952381Y-108380953D01*
X185952381Y-108142857D01*
X186000000Y-108047619D01*
X186047619Y-108000000D01*
X186142857Y-107952381D01*
X186238095Y-107952381D01*
X186380952Y-108000000D01*
X186952381Y-108571429D01*
X186952381Y-107952381D01*
X186857143Y-106952381D02*
X186904762Y-107000000D01*
X186952381Y-107142857D01*
X186952381Y-107238095D01*
X186904762Y-107380953D01*
X186809524Y-107476191D01*
X186714286Y-107523810D01*
X186523810Y-107571429D01*
X186380952Y-107571429D01*
X186190476Y-107523810D01*
X186095238Y-107476191D01*
X186000000Y-107380953D01*
X185952381Y-107238095D01*
X185952381Y-107142857D01*
X186000000Y-107000000D01*
X186047619Y-106952381D01*
X186047619Y-106571429D02*
X186000000Y-106523810D01*
X185952381Y-106428572D01*
X185952381Y-106190476D01*
X186000000Y-106095238D01*
X186047619Y-106047619D01*
X186142857Y-106000000D01*
X186238095Y-106000000D01*
X186380952Y-106047619D01*
X186952381Y-106619048D01*
X186952381Y-106000000D01*
X169085714Y-89307857D02*
X169085714Y-90279286D01*
X169142857Y-90393571D01*
X169200000Y-90450714D01*
X169314286Y-90507857D01*
X169542857Y-90507857D01*
X169657143Y-90450714D01*
X169714286Y-90393571D01*
X169771429Y-90279286D01*
X169771429Y-89307857D01*
X170971429Y-90507857D02*
X170285714Y-90507857D01*
X170628572Y-90507857D02*
X170628572Y-89307857D01*
X170514286Y-89479286D01*
X170400000Y-89593571D01*
X170285714Y-89650714D01*
X201585714Y-108342857D02*
X201585714Y-109314286D01*
X201642857Y-109428571D01*
X201700000Y-109485714D01*
X201814286Y-109542857D01*
X202042857Y-109542857D01*
X202157143Y-109485714D01*
X202214286Y-109428571D01*
X202271429Y-109314286D01*
X202271429Y-108342857D01*
X202785714Y-108457143D02*
X202842857Y-108400000D01*
X202957143Y-108342857D01*
X203242857Y-108342857D01*
X203357143Y-108400000D01*
X203414286Y-108457143D01*
X203471429Y-108571429D01*
X203471429Y-108685714D01*
X203414286Y-108857143D01*
X202728572Y-109542857D01*
X203471429Y-109542857D01*
X161533334Y-104557143D02*
X161485715Y-104604762D01*
X161342858Y-104652381D01*
X161247620Y-104652381D01*
X161104762Y-104604762D01*
X161009524Y-104509524D01*
X160961905Y-104414286D01*
X160914286Y-104223810D01*
X160914286Y-104080952D01*
X160961905Y-103890476D01*
X161009524Y-103795238D01*
X161104762Y-103700000D01*
X161247620Y-103652381D01*
X161342858Y-103652381D01*
X161485715Y-103700000D01*
X161533334Y-103747619D01*
X161866667Y-103652381D02*
X162485715Y-103652381D01*
X162152381Y-104033333D01*
X162295239Y-104033333D01*
X162390477Y-104080952D01*
X162438096Y-104128571D01*
X162485715Y-104223810D01*
X162485715Y-104461905D01*
X162438096Y-104557143D01*
X162390477Y-104604762D01*
X162295239Y-104652381D01*
X162009524Y-104652381D01*
X161914286Y-104604762D01*
X161866667Y-104557143D01*
D15*
X205689429Y-119624857D02*
X204165429Y-119624857D01*
X204165429Y-119044285D01*
X204238000Y-118899143D01*
X204310571Y-118826571D01*
X204455714Y-118754000D01*
X204673429Y-118754000D01*
X204818571Y-118826571D01*
X204891143Y-118899143D01*
X204963714Y-119044285D01*
X204963714Y-119624857D01*
X204165429Y-118246000D02*
X204165429Y-117302571D01*
X204746000Y-117810571D01*
X204746000Y-117592857D01*
X204818571Y-117447714D01*
X204891143Y-117375143D01*
X205036286Y-117302571D01*
X205399143Y-117302571D01*
X205544286Y-117375143D01*
X205616857Y-117447714D01*
X205689429Y-117592857D01*
X205689429Y-118028285D01*
X205616857Y-118173428D01*
X205544286Y-118246000D01*
X216044286Y-111632286D02*
X216116857Y-111704857D01*
X216189429Y-111922571D01*
X216189429Y-112067714D01*
X216116857Y-112285429D01*
X215971714Y-112430571D01*
X215826571Y-112503143D01*
X215536286Y-112575714D01*
X215318571Y-112575714D01*
X215028286Y-112503143D01*
X214883143Y-112430571D01*
X214738000Y-112285429D01*
X214665429Y-112067714D01*
X214665429Y-111922571D01*
X214738000Y-111704857D01*
X214810571Y-111632286D01*
X214665429Y-110688857D02*
X214665429Y-110398571D01*
X214738000Y-110253429D01*
X214883143Y-110108286D01*
X215173429Y-110035714D01*
X215681429Y-110035714D01*
X215971714Y-110108286D01*
X216116857Y-110253429D01*
X216189429Y-110398571D01*
X216189429Y-110688857D01*
X216116857Y-110834000D01*
X215971714Y-110979143D01*
X215681429Y-111051714D01*
X215173429Y-111051714D01*
X214883143Y-110979143D01*
X214738000Y-110834000D01*
X214665429Y-110688857D01*
X216189429Y-109382572D02*
X214665429Y-109382572D01*
X216189429Y-108511715D01*
X214665429Y-108511715D01*
X216189429Y-107786001D02*
X214665429Y-107786001D01*
X216189429Y-106915144D01*
X214665429Y-106915144D01*
X216334571Y-106552287D02*
X216334571Y-105391144D01*
X214665429Y-104738001D02*
X214665429Y-104592858D01*
X214738000Y-104447715D01*
X214810571Y-104375144D01*
X214955714Y-104302573D01*
X215246000Y-104230001D01*
X215608857Y-104230001D01*
X215899143Y-104302573D01*
X216044286Y-104375144D01*
X216116857Y-104447715D01*
X216189429Y-104592858D01*
X216189429Y-104738001D01*
X216116857Y-104883144D01*
X216044286Y-104955715D01*
X215899143Y-105028287D01*
X215608857Y-105100858D01*
X215246000Y-105100858D01*
X214955714Y-105028287D01*
X214810571Y-104955715D01*
X214738000Y-104883144D01*
X214665429Y-104738001D01*
X216189429Y-102778572D02*
X216189429Y-103649429D01*
X216189429Y-103214001D02*
X214665429Y-103214001D01*
X214883143Y-103359144D01*
X215028286Y-103504286D01*
X215100857Y-103649429D01*
X214665429Y-102270572D02*
X216189429Y-101254572D01*
X214665429Y-101254572D02*
X216189429Y-102270572D01*
X216189429Y-99875714D02*
X216189429Y-100746571D01*
X216189429Y-100311143D02*
X214665429Y-100311143D01*
X214883143Y-100456286D01*
X215028286Y-100601428D01*
X215100857Y-100746571D01*
X214665429Y-98932285D02*
X214665429Y-98787142D01*
X214738000Y-98641999D01*
X214810571Y-98569428D01*
X214955714Y-98496857D01*
X215246000Y-98424285D01*
X215608857Y-98424285D01*
X215899143Y-98496857D01*
X216044286Y-98569428D01*
X216116857Y-98641999D01*
X216189429Y-98787142D01*
X216189429Y-98932285D01*
X216116857Y-99077428D01*
X216044286Y-99149999D01*
X215899143Y-99222571D01*
X215608857Y-99295142D01*
X215246000Y-99295142D01*
X214955714Y-99222571D01*
X214810571Y-99149999D01*
X214738000Y-99077428D01*
X214665429Y-98932285D01*
D12*
X150761905Y-118000000D02*
X150666667Y-117952381D01*
X150523810Y-117952381D01*
X150380952Y-118000000D01*
X150285714Y-118095238D01*
X150238095Y-118190476D01*
X150190476Y-118380952D01*
X150190476Y-118523810D01*
X150238095Y-118714286D01*
X150285714Y-118809524D01*
X150380952Y-118904762D01*
X150523810Y-118952381D01*
X150619048Y-118952381D01*
X150761905Y-118904762D01*
X150809524Y-118857143D01*
X150809524Y-118523810D01*
X150619048Y-118523810D01*
X151238095Y-118952381D02*
X151238095Y-117952381D01*
X151809524Y-118952381D01*
X151809524Y-117952381D01*
X152285714Y-118952381D02*
X152285714Y-117952381D01*
X152523809Y-117952381D01*
X152666667Y-118000000D01*
X152761905Y-118095238D01*
X152809524Y-118190476D01*
X152857143Y-118380952D01*
X152857143Y-118523810D01*
X152809524Y-118714286D01*
X152761905Y-118809524D01*
X152666667Y-118904762D01*
X152523809Y-118952381D01*
X152285714Y-118952381D01*
X153809524Y-118952381D02*
X153238095Y-118952381D01*
X153523809Y-118952381D02*
X153523809Y-117952381D01*
X153428571Y-118095238D01*
X153333333Y-118190476D01*
X153238095Y-118238095D01*
X163309524Y-121857143D02*
X163261905Y-121904762D01*
X163119048Y-121952381D01*
X163023810Y-121952381D01*
X162880952Y-121904762D01*
X162785714Y-121809524D01*
X162738095Y-121714286D01*
X162690476Y-121523810D01*
X162690476Y-121380952D01*
X162738095Y-121190476D01*
X162785714Y-121095238D01*
X162880952Y-121000000D01*
X163023810Y-120952381D01*
X163119048Y-120952381D01*
X163261905Y-121000000D01*
X163309524Y-121047619D01*
X163738095Y-121952381D02*
X163738095Y-120952381D01*
X164166667Y-121952381D02*
X164166667Y-121428571D01*
X164119048Y-121333333D01*
X164023810Y-121285714D01*
X163880952Y-121285714D01*
X163785714Y-121333333D01*
X163738095Y-121380952D01*
X165071429Y-121952381D02*
X165071429Y-121428571D01*
X165023810Y-121333333D01*
X164928572Y-121285714D01*
X164738095Y-121285714D01*
X164642857Y-121333333D01*
X165071429Y-121904762D02*
X164976191Y-121952381D01*
X164738095Y-121952381D01*
X164642857Y-121904762D01*
X164595238Y-121809524D01*
X164595238Y-121714286D01*
X164642857Y-121619048D01*
X164738095Y-121571429D01*
X164976191Y-121571429D01*
X165071429Y-121523810D01*
X165547619Y-121285714D02*
X165547619Y-121952381D01*
X165547619Y-121380952D02*
X165595238Y-121333333D01*
X165690476Y-121285714D01*
X165833334Y-121285714D01*
X165928572Y-121333333D01*
X165976191Y-121428571D01*
X165976191Y-121952381D01*
X166452381Y-121285714D02*
X166452381Y-121952381D01*
X166452381Y-121380952D02*
X166500000Y-121333333D01*
X166595238Y-121285714D01*
X166738096Y-121285714D01*
X166833334Y-121333333D01*
X166880953Y-121428571D01*
X166880953Y-121952381D01*
X167738096Y-121904762D02*
X167642858Y-121952381D01*
X167452381Y-121952381D01*
X167357143Y-121904762D01*
X167309524Y-121809524D01*
X167309524Y-121428571D01*
X167357143Y-121333333D01*
X167452381Y-121285714D01*
X167642858Y-121285714D01*
X167738096Y-121333333D01*
X167785715Y-121428571D01*
X167785715Y-121523810D01*
X167309524Y-121619048D01*
X168357143Y-121952381D02*
X168261905Y-121904762D01*
X168214286Y-121809524D01*
X168214286Y-120952381D01*
X187142857Y-101500000D02*
X187047619Y-101452381D01*
X186904762Y-101452381D01*
X186761904Y-101500000D01*
X186666666Y-101595238D01*
X186619047Y-101690476D01*
X186571428Y-101880952D01*
X186571428Y-102023810D01*
X186619047Y-102214286D01*
X186666666Y-102309524D01*
X186761904Y-102404762D01*
X186904762Y-102452381D01*
X187000000Y-102452381D01*
X187142857Y-102404762D01*
X187190476Y-102357143D01*
X187190476Y-102023810D01*
X187000000Y-102023810D01*
X187619047Y-102452381D02*
X187619047Y-101785714D01*
X187619047Y-101976190D02*
X187666666Y-101880952D01*
X187714285Y-101833333D01*
X187809523Y-101785714D01*
X187904762Y-101785714D01*
X188380952Y-102452381D02*
X188285714Y-102404762D01*
X188238095Y-102357143D01*
X188190476Y-102261905D01*
X188190476Y-101976190D01*
X188238095Y-101880952D01*
X188285714Y-101833333D01*
X188380952Y-101785714D01*
X188523810Y-101785714D01*
X188619048Y-101833333D01*
X188666667Y-101880952D01*
X188714286Y-101976190D01*
X188714286Y-102261905D01*
X188666667Y-102357143D01*
X188619048Y-102404762D01*
X188523810Y-102452381D01*
X188380952Y-102452381D01*
X189571429Y-101785714D02*
X189571429Y-102452381D01*
X189142857Y-101785714D02*
X189142857Y-102309524D01*
X189190476Y-102404762D01*
X189285714Y-102452381D01*
X189428572Y-102452381D01*
X189523810Y-102404762D01*
X189571429Y-102357143D01*
X190047619Y-101785714D02*
X190047619Y-102452381D01*
X190047619Y-101880952D02*
X190095238Y-101833333D01*
X190190476Y-101785714D01*
X190333334Y-101785714D01*
X190428572Y-101833333D01*
X190476191Y-101928571D01*
X190476191Y-102452381D01*
X191380953Y-102452381D02*
X191380953Y-101452381D01*
X191380953Y-102404762D02*
X191285715Y-102452381D01*
X191095238Y-102452381D01*
X191000000Y-102404762D01*
X190952381Y-102357143D01*
X190904762Y-102261905D01*
X190904762Y-101976190D01*
X190952381Y-101880952D01*
X191000000Y-101833333D01*
X191095238Y-101785714D01*
X191285715Y-101785714D01*
X191380953Y-101833333D01*
X175023810Y-121952381D02*
X174690476Y-121476190D01*
X174452381Y-121952381D02*
X174452381Y-120952381D01*
X174833334Y-120952381D01*
X174928572Y-121000000D01*
X174976191Y-121047619D01*
X175023810Y-121142857D01*
X175023810Y-121285714D01*
X174976191Y-121380952D01*
X174928572Y-121428571D01*
X174833334Y-121476190D01*
X174452381Y-121476190D01*
X175880953Y-121952381D02*
X175880953Y-121428571D01*
X175833334Y-121333333D01*
X175738096Y-121285714D01*
X175547619Y-121285714D01*
X175452381Y-121333333D01*
X175880953Y-121904762D02*
X175785715Y-121952381D01*
X175547619Y-121952381D01*
X175452381Y-121904762D01*
X175404762Y-121809524D01*
X175404762Y-121714286D01*
X175452381Y-121619048D01*
X175547619Y-121571429D01*
X175785715Y-121571429D01*
X175880953Y-121523810D01*
X176357143Y-121285714D02*
X176357143Y-121952381D01*
X176357143Y-121380952D02*
X176404762Y-121333333D01*
X176500000Y-121285714D01*
X176642858Y-121285714D01*
X176738096Y-121333333D01*
X176785715Y-121428571D01*
X176785715Y-121952381D01*
X177690477Y-121285714D02*
X177690477Y-122095238D01*
X177642858Y-122190476D01*
X177595239Y-122238095D01*
X177500000Y-122285714D01*
X177357143Y-122285714D01*
X177261905Y-122238095D01*
X177690477Y-121904762D02*
X177595239Y-121952381D01*
X177404762Y-121952381D01*
X177309524Y-121904762D01*
X177261905Y-121857143D01*
X177214286Y-121761905D01*
X177214286Y-121476190D01*
X177261905Y-121380952D01*
X177309524Y-121333333D01*
X177404762Y-121285714D01*
X177595239Y-121285714D01*
X177690477Y-121333333D01*
X178547620Y-121904762D02*
X178452382Y-121952381D01*
X178261905Y-121952381D01*
X178166667Y-121904762D01*
X178119048Y-121809524D01*
X178119048Y-121428571D01*
X178166667Y-121333333D01*
X178261905Y-121285714D01*
X178452382Y-121285714D01*
X178547620Y-121333333D01*
X178595239Y-121428571D01*
X178595239Y-121523810D01*
X178119048Y-121619048D01*
X185452381Y-121904762D02*
X185595238Y-121952381D01*
X185833334Y-121952381D01*
X185928572Y-121904762D01*
X185976191Y-121857143D01*
X186023810Y-121761905D01*
X186023810Y-121666667D01*
X185976191Y-121571429D01*
X185928572Y-121523810D01*
X185833334Y-121476190D01*
X185642857Y-121428571D01*
X185547619Y-121380952D01*
X185500000Y-121333333D01*
X185452381Y-121238095D01*
X185452381Y-121142857D01*
X185500000Y-121047619D01*
X185547619Y-121000000D01*
X185642857Y-120952381D01*
X185880953Y-120952381D01*
X186023810Y-121000000D01*
X186880953Y-121952381D02*
X186880953Y-121428571D01*
X186833334Y-121333333D01*
X186738096Y-121285714D01*
X186547619Y-121285714D01*
X186452381Y-121333333D01*
X186880953Y-121904762D02*
X186785715Y-121952381D01*
X186547619Y-121952381D01*
X186452381Y-121904762D01*
X186404762Y-121809524D01*
X186404762Y-121714286D01*
X186452381Y-121619048D01*
X186547619Y-121571429D01*
X186785715Y-121571429D01*
X186880953Y-121523810D01*
X187357143Y-121952381D02*
X187357143Y-121285714D01*
X187357143Y-121380952D02*
X187404762Y-121333333D01*
X187500000Y-121285714D01*
X187642858Y-121285714D01*
X187738096Y-121333333D01*
X187785715Y-121428571D01*
X187785715Y-121952381D01*
X187785715Y-121428571D02*
X187833334Y-121333333D01*
X187928572Y-121285714D01*
X188071429Y-121285714D01*
X188166667Y-121333333D01*
X188214286Y-121428571D01*
X188214286Y-121952381D01*
X188690476Y-121285714D02*
X188690476Y-122285714D01*
X188690476Y-121333333D02*
X188785714Y-121285714D01*
X188976191Y-121285714D01*
X189071429Y-121333333D01*
X189119048Y-121380952D01*
X189166667Y-121476190D01*
X189166667Y-121761905D01*
X189119048Y-121857143D01*
X189071429Y-121904762D01*
X188976191Y-121952381D01*
X188785714Y-121952381D01*
X188690476Y-121904762D01*
X189738095Y-121952381D02*
X189642857Y-121904762D01*
X189595238Y-121809524D01*
X189595238Y-120952381D01*
X190500001Y-121904762D02*
X190404763Y-121952381D01*
X190214286Y-121952381D01*
X190119048Y-121904762D01*
X190071429Y-121809524D01*
X190071429Y-121428571D01*
X190119048Y-121333333D01*
X190214286Y-121285714D01*
X190404763Y-121285714D01*
X190500001Y-121333333D01*
X190547620Y-121428571D01*
X190547620Y-121523810D01*
X190071429Y-121619048D01*
X179523809Y-101452381D02*
X180095238Y-101452381D01*
X179809523Y-102452381D02*
X179809523Y-101452381D01*
X180428571Y-102452381D02*
X180428571Y-101785714D01*
X180428571Y-101976190D02*
X180476190Y-101880952D01*
X180523809Y-101833333D01*
X180619047Y-101785714D01*
X180714286Y-101785714D01*
X181047619Y-102452381D02*
X181047619Y-101785714D01*
X181047619Y-101452381D02*
X181000000Y-101500000D01*
X181047619Y-101547619D01*
X181095238Y-101500000D01*
X181047619Y-101452381D01*
X181047619Y-101547619D01*
X181952381Y-101785714D02*
X181952381Y-102595238D01*
X181904762Y-102690476D01*
X181857143Y-102738095D01*
X181761904Y-102785714D01*
X181619047Y-102785714D01*
X181523809Y-102738095D01*
X181952381Y-102404762D02*
X181857143Y-102452381D01*
X181666666Y-102452381D01*
X181571428Y-102404762D01*
X181523809Y-102357143D01*
X181476190Y-102261905D01*
X181476190Y-101976190D01*
X181523809Y-101880952D01*
X181571428Y-101833333D01*
X181666666Y-101785714D01*
X181857143Y-101785714D01*
X181952381Y-101833333D01*
X182857143Y-101785714D02*
X182857143Y-102595238D01*
X182809524Y-102690476D01*
X182761905Y-102738095D01*
X182666666Y-102785714D01*
X182523809Y-102785714D01*
X182428571Y-102738095D01*
X182857143Y-102404762D02*
X182761905Y-102452381D01*
X182571428Y-102452381D01*
X182476190Y-102404762D01*
X182428571Y-102357143D01*
X182380952Y-102261905D01*
X182380952Y-101976190D01*
X182428571Y-101880952D01*
X182476190Y-101833333D01*
X182571428Y-101785714D01*
X182761905Y-101785714D01*
X182857143Y-101833333D01*
X183714286Y-102404762D02*
X183619048Y-102452381D01*
X183428571Y-102452381D01*
X183333333Y-102404762D01*
X183285714Y-102309524D01*
X183285714Y-101928571D01*
X183333333Y-101833333D01*
X183428571Y-101785714D01*
X183619048Y-101785714D01*
X183714286Y-101833333D01*
X183761905Y-101928571D01*
X183761905Y-102023810D01*
X183285714Y-102119048D01*
X184190476Y-102452381D02*
X184190476Y-101785714D01*
X184190476Y-101976190D02*
X184238095Y-101880952D01*
X184285714Y-101833333D01*
X184380952Y-101785714D01*
X184476191Y-101785714D01*
X159512857Y-106985714D02*
X158312857Y-106985714D01*
X158312857Y-106528571D01*
X158370000Y-106414285D01*
X158427143Y-106357142D01*
X158541429Y-106299999D01*
X158712857Y-106299999D01*
X158827143Y-106357142D01*
X158884286Y-106414285D01*
X158941429Y-106528571D01*
X158941429Y-106985714D01*
X158427143Y-105842857D02*
X158370000Y-105785714D01*
X158312857Y-105671428D01*
X158312857Y-105385714D01*
X158370000Y-105271428D01*
X158427143Y-105214285D01*
X158541429Y-105157142D01*
X158655714Y-105157142D01*
X158827143Y-105214285D01*
X159512857Y-105899999D01*
X159512857Y-105157142D01*
M02*
