G04 #@! TF.FileFunction,Soldermask,Top*
%FSLAX46Y46*%
G04 Gerber Fmt 4.6, Leading zero omitted, Abs format (unit mm)*
G04 Created by KiCad (PCBNEW 4.0.4+e1-6308~48~ubuntu14.04.1-stable) date Wed Jan  4 17:00:53 2017*
%MOMM*%
%LPD*%
G01*
G04 APERTURE LIST*
%ADD10C,0.100000*%
%ADD11R,1.150000X1.600000*%
%ADD12R,1.600000X1.150000*%
%ADD13R,1.750000X1.750000*%
%ADD14C,1.750000*%
%ADD15R,2.900000X1.000000*%
%ADD16R,2.900000X0.670000*%
%ADD17R,4.464000X4.464000*%
%ADD18R,2.000000X2.400000*%
%ADD19C,2.500000*%
%ADD20R,9.400000X5.000000*%
%ADD21R,2.500000X1.600000*%
%ADD22C,2.100000*%
%ADD23C,3.400000*%
%ADD24R,2.000000X2.000000*%
%ADD25O,2.000000X2.000000*%
%ADD26O,2.400000X1.600000*%
%ADD27C,2.400000*%
G04 APERTURE END LIST*
D10*
D11*
X172200000Y-102150000D03*
X172200000Y-100250000D03*
X175000000Y-102150000D03*
X175000000Y-100250000D03*
D12*
X206450000Y-100000000D03*
X204550000Y-100000000D03*
D11*
X169400000Y-102150000D03*
X169400000Y-100250000D03*
D12*
X195950000Y-107000000D03*
X194050000Y-107000000D03*
X195950000Y-105500000D03*
X194050000Y-105500000D03*
X164650000Y-102200000D03*
X166550000Y-102200000D03*
D13*
X154000000Y-93000000D03*
D14*
X156000000Y-93000000D03*
D12*
X162950000Y-92000000D03*
X161050000Y-92000000D03*
D11*
X177800000Y-94550000D03*
X177800000Y-92650000D03*
X184600000Y-106850000D03*
X184600000Y-108750000D03*
X187600000Y-106850000D03*
X187600000Y-108750000D03*
D15*
X172600000Y-91965000D03*
X167400000Y-91965000D03*
X172600000Y-93235000D03*
X167400000Y-93235000D03*
D16*
X200250000Y-106500000D03*
X204750000Y-106500000D03*
X200250000Y-106000000D03*
X204750000Y-106000000D03*
X200250000Y-105500000D03*
X204750000Y-105500000D03*
X200250000Y-105000000D03*
X204750000Y-105000000D03*
X200250000Y-104500000D03*
X204750000Y-104500000D03*
D17*
X197000000Y-117000000D03*
X197000000Y-95000000D03*
D18*
X161800000Y-102000000D03*
X161800000Y-98000000D03*
D19*
X212800000Y-97700000D03*
D20*
X212400000Y-93225000D03*
D21*
X209200000Y-100520000D03*
X212600000Y-101890000D03*
X209200000Y-103260000D03*
X212600000Y-104630000D03*
X209200000Y-106000000D03*
X212600000Y-107370000D03*
X209200000Y-108740000D03*
X212600000Y-110110000D03*
X209200000Y-111480000D03*
D20*
X212400000Y-118775000D03*
D22*
X212800000Y-114300000D03*
D23*
X152000000Y-121000000D03*
D24*
X167250000Y-111500000D03*
D25*
X164710000Y-119120000D03*
X164710000Y-111500000D03*
X167250000Y-119120000D03*
D24*
X189000000Y-92000000D03*
D25*
X189000000Y-99620000D03*
D24*
X178000000Y-111750000D03*
D25*
X175460000Y-119370000D03*
X175460000Y-111750000D03*
X178000000Y-119370000D03*
D24*
X189000000Y-111500000D03*
D25*
X186460000Y-119120000D03*
X186460000Y-111500000D03*
X189000000Y-119120000D03*
D24*
X182000000Y-92000000D03*
D25*
X182000000Y-99620000D03*
D26*
X156270000Y-99150000D03*
X153730000Y-100420000D03*
X156270000Y-101690000D03*
X153730000Y-102966000D03*
X156270000Y-104230000D03*
X153730000Y-105500000D03*
X156270000Y-106770000D03*
X153730000Y-108040000D03*
X156270000Y-109400000D03*
X153730000Y-110780000D03*
X156270000Y-111850000D03*
X153730000Y-113120000D03*
D27*
X154470000Y-97800000D03*
M02*
