G04 #@! TF.FileFunction,Soldermask,Bot*
%FSLAX46Y46*%
G04 Gerber Fmt 4.6, Leading zero omitted, Abs format (unit mm)*
G04 Created by KiCad (PCBNEW 4.0.4+e1-6308~48~ubuntu14.04.1-stable) date Wed Jan  4 17:00:53 2017*
%MOMM*%
%LPD*%
G01*
G04 APERTURE LIST*
%ADD10C,0.100000*%
%ADD11R,1.750000X1.750000*%
%ADD12C,1.750000*%
%ADD13R,1.150000X1.600000*%
%ADD14C,2.500000*%
%ADD15C,2.100000*%
%ADD16C,3.400000*%
%ADD17R,2.000000X2.000000*%
%ADD18O,2.000000X2.000000*%
%ADD19O,2.400000X1.600000*%
%ADD20C,2.400000*%
G04 APERTURE END LIST*
D10*
D11*
X154000000Y-93000000D03*
D12*
X156000000Y-93000000D03*
D13*
X189000000Y-115050000D03*
X189000000Y-116950000D03*
X186000000Y-115050000D03*
X186000000Y-116950000D03*
X168000000Y-115050000D03*
X168000000Y-116950000D03*
X164000000Y-115050000D03*
X164000000Y-116950000D03*
X178000000Y-115050000D03*
X178000000Y-116950000D03*
X175000000Y-115050000D03*
X175000000Y-116950000D03*
D14*
X212800000Y-97700000D03*
D15*
X212800000Y-114300000D03*
D16*
X152000000Y-121000000D03*
D17*
X167250000Y-111500000D03*
D18*
X164710000Y-119120000D03*
X164710000Y-111500000D03*
X167250000Y-119120000D03*
D17*
X189000000Y-92000000D03*
D18*
X189000000Y-99620000D03*
D17*
X178000000Y-111750000D03*
D18*
X175460000Y-119370000D03*
X175460000Y-111750000D03*
X178000000Y-119370000D03*
D17*
X189000000Y-111500000D03*
D18*
X186460000Y-119120000D03*
X186460000Y-111500000D03*
X189000000Y-119120000D03*
D17*
X182000000Y-92000000D03*
D18*
X182000000Y-99620000D03*
D19*
X156270000Y-99150000D03*
X153730000Y-100420000D03*
X156270000Y-101690000D03*
X153730000Y-102966000D03*
X156270000Y-104230000D03*
X153730000Y-105500000D03*
X156270000Y-106770000D03*
X153730000Y-108040000D03*
X156270000Y-109400000D03*
X153730000Y-110780000D03*
X156270000Y-111850000D03*
X153730000Y-113120000D03*
D20*
X154470000Y-97800000D03*
M02*
