G04 #@! TF.FileFunction,Copper,L2,Bot,Signal*
%FSLAX46Y46*%
G04 Gerber Fmt 4.6, Leading zero omitted, Abs format (unit mm)*
G04 Created by KiCad (PCBNEW 4.0.4+e1-6308~48~ubuntu14.04.1-stable) date Wed Jan  4 17:00:53 2017*
%MOMM*%
%LPD*%
G01*
G04 APERTURE LIST*
%ADD10C,0.100000*%
%ADD11R,1.350000X1.350000*%
%ADD12C,1.350000*%
%ADD13R,0.750000X1.200000*%
%ADD14C,1.700000*%
%ADD15C,3.000000*%
%ADD16R,1.600000X1.600000*%
%ADD17O,1.600000X1.600000*%
%ADD18O,2.000000X1.200000*%
%ADD19C,2.000000*%
%ADD20C,0.600000*%
%ADD21C,0.250000*%
%ADD22C,0.254000*%
G04 APERTURE END LIST*
D10*
D11*
X154000000Y-93000000D03*
D12*
X156000000Y-93000000D03*
D13*
X189000000Y-115050000D03*
X189000000Y-116950000D03*
X186000000Y-115050000D03*
X186000000Y-116950000D03*
X168000000Y-115050000D03*
X168000000Y-116950000D03*
X164000000Y-115050000D03*
X164000000Y-116950000D03*
X178000000Y-115050000D03*
X178000000Y-116950000D03*
X175000000Y-115050000D03*
X175000000Y-116950000D03*
D14*
X212800000Y-114300000D03*
D15*
X152000000Y-121000000D03*
D16*
X167250000Y-111500000D03*
D17*
X164710000Y-119120000D03*
X164710000Y-111500000D03*
X167250000Y-119120000D03*
D16*
X189000000Y-92000000D03*
D17*
X189000000Y-99620000D03*
D16*
X178000000Y-111750000D03*
D17*
X175460000Y-119370000D03*
X175460000Y-111750000D03*
X178000000Y-119370000D03*
D16*
X189000000Y-111500000D03*
D17*
X186460000Y-119120000D03*
X186460000Y-111500000D03*
X189000000Y-119120000D03*
D16*
X182000000Y-92000000D03*
D17*
X182000000Y-99620000D03*
D18*
X156270000Y-99150000D03*
X153730000Y-100420000D03*
X156270000Y-101690000D03*
X153730000Y-102966000D03*
X156270000Y-104230000D03*
X153730000Y-105500000D03*
X156270000Y-106770000D03*
X153730000Y-108040000D03*
X156270000Y-109400000D03*
X153730000Y-110780000D03*
X156270000Y-111850000D03*
X153730000Y-113120000D03*
D19*
X154470000Y-97800000D03*
D20*
X172250000Y-98250000D03*
X169500000Y-98250000D03*
X214750000Y-110250000D03*
X214750000Y-107250000D03*
X214750000Y-101750000D03*
X214750000Y-104500000D03*
X202500000Y-99000000D03*
X198000000Y-104500000D03*
X192000000Y-105500000D03*
X192000000Y-107000000D03*
X163600000Y-96800000D03*
X200600000Y-117500000D03*
X175000000Y-98400000D03*
X173400000Y-94400000D03*
X208750000Y-110000000D03*
X208750000Y-107250000D03*
X208000000Y-104500000D03*
X174000000Y-90500000D03*
X171000000Y-90500000D03*
X151000000Y-118500000D03*
X158000000Y-122000000D03*
D21*
X156270000Y-99150000D02*
X156270000Y-96730000D01*
X157000000Y-96000000D02*
X163600000Y-96000000D01*
X156270000Y-96730000D02*
X157000000Y-96000000D01*
X214750000Y-101750000D02*
X214750000Y-96350000D01*
X205300000Y-96200000D02*
X202500000Y-99000000D01*
X214600000Y-96200000D02*
X205300000Y-96200000D01*
X214750000Y-96350000D02*
X214600000Y-96200000D01*
X172000000Y-98000000D02*
X172000000Y-96000000D01*
X172250000Y-98250000D02*
X172000000Y-98000000D01*
X169500000Y-98250000D02*
X169500000Y-96000000D01*
X214750000Y-110250000D02*
X214750000Y-107250000D01*
X214750000Y-107250000D02*
X214750000Y-104500000D01*
X214750000Y-104500000D02*
X214750000Y-101750000D01*
X201680000Y-99820000D02*
X188600000Y-99820000D01*
X202500000Y-99000000D02*
X201680000Y-99820000D01*
X164000000Y-116950000D02*
X156050000Y-116950000D01*
X156050000Y-116950000D02*
X152000000Y-121000000D01*
X193500000Y-104000000D02*
X192000000Y-105500000D01*
X197500000Y-104000000D02*
X193500000Y-104000000D01*
X198000000Y-104500000D02*
X197500000Y-104000000D01*
X192000000Y-105500000D02*
X192000000Y-107000000D01*
X192000000Y-107000000D02*
X190400000Y-107000000D01*
X190400000Y-107000000D02*
X188600000Y-105200000D01*
X188600000Y-105200000D02*
X188600000Y-99820000D01*
X182200000Y-92200000D02*
X182200000Y-92800000D01*
X182200000Y-92800000D02*
X184100000Y-94700000D01*
X188600000Y-99820000D02*
X185580000Y-99820000D01*
X185580000Y-99820000D02*
X185400000Y-100000000D01*
X163600000Y-96800000D02*
X163600000Y-96000000D01*
X182800000Y-96000000D02*
X182800000Y-97600000D01*
X184100000Y-94700000D02*
X182800000Y-96000000D01*
X164000000Y-116950000D02*
X168000000Y-116950000D01*
X168000000Y-116950000D02*
X175000000Y-116950000D01*
X175000000Y-116950000D02*
X178000000Y-116950000D01*
X178000000Y-116950000D02*
X186000000Y-116950000D01*
X186000000Y-116950000D02*
X189000000Y-116950000D01*
X189000000Y-116950000D02*
X189050000Y-117000000D01*
X189050000Y-117000000D02*
X191200000Y-117000000D01*
X191200000Y-117000000D02*
X192200000Y-116000000D01*
X173400000Y-96000000D02*
X172000000Y-96000000D01*
X172000000Y-96000000D02*
X169500000Y-96000000D01*
X169500000Y-96000000D02*
X163600000Y-96000000D01*
X192200000Y-116000000D02*
X192200000Y-113400000D01*
X197400000Y-113400000D02*
X192200000Y-113400000D01*
X192200000Y-113400000D02*
X192200000Y-111400000D01*
X192200000Y-111400000D02*
X190400000Y-109600000D01*
X197400000Y-114300000D02*
X197400000Y-113400000D01*
X200600000Y-117500000D02*
X197400000Y-114300000D01*
X175000000Y-98400000D02*
X175000000Y-96000000D01*
X173400000Y-94400000D02*
X173400000Y-96000000D01*
X181200000Y-96000000D02*
X175000000Y-96000000D01*
X175000000Y-96000000D02*
X173400000Y-96000000D01*
X190400000Y-105200000D02*
X188200000Y-103000000D01*
X188200000Y-103000000D02*
X185600000Y-100400000D01*
X185600000Y-100400000D02*
X182800000Y-97600000D01*
X190400000Y-107000000D02*
X190400000Y-105500000D01*
X190400000Y-105500000D02*
X190400000Y-105200000D01*
X190400000Y-109600000D02*
X190400000Y-107000000D01*
X182800000Y-97600000D02*
X181200000Y-96000000D01*
X208500000Y-109750000D02*
X207000000Y-109750000D01*
X208750000Y-110000000D02*
X208500000Y-109750000D01*
X208000000Y-106500000D02*
X207250000Y-106500000D01*
X208750000Y-107250000D02*
X208000000Y-106500000D01*
X207250000Y-103750000D02*
X207250000Y-102500000D01*
X208000000Y-104500000D02*
X207250000Y-103750000D01*
X171000000Y-90500000D02*
X174000000Y-90500000D01*
X164710000Y-119120000D02*
X164710000Y-121790000D01*
X150500000Y-103650000D02*
X153730000Y-100420000D01*
X150500000Y-118000000D02*
X150500000Y-103650000D01*
X151000000Y-118500000D02*
X150500000Y-118000000D01*
X164500000Y-122000000D02*
X158000000Y-122000000D01*
X164710000Y-121790000D02*
X164500000Y-122000000D01*
X175000000Y-115050000D02*
X175000000Y-112460000D01*
X175000000Y-112460000D02*
X175460000Y-112000000D01*
X178000000Y-115050000D02*
X178000000Y-112000000D01*
X164000000Y-112460000D02*
X164460000Y-112000000D01*
X164000000Y-115050000D02*
X164000000Y-112460000D01*
X168000000Y-113000000D02*
X167000000Y-112000000D01*
X168000000Y-115050000D02*
X168000000Y-113000000D01*
X186000000Y-115050000D02*
X186000000Y-112460000D01*
X186000000Y-112460000D02*
X186460000Y-112000000D01*
X189000000Y-115050000D02*
X189000000Y-112000000D01*
D22*
G36*
X210873000Y-112447394D02*
X210697394Y-112623000D01*
X207552606Y-112623000D01*
X205877000Y-110947394D01*
X205877000Y-107000000D01*
X205866994Y-106950590D01*
X205838553Y-106908965D01*
X205796159Y-106881685D01*
X205750000Y-106873000D01*
X202377000Y-106873000D01*
X202377000Y-103377000D01*
X204750000Y-103377000D01*
X204799410Y-103366994D01*
X204839803Y-103339803D01*
X206839803Y-101339803D01*
X206867666Y-101297789D01*
X206877000Y-101250000D01*
X206877000Y-100302606D01*
X207552606Y-99627000D01*
X210873000Y-99627000D01*
X210873000Y-112447394D01*
X210873000Y-112447394D01*
G37*
X210873000Y-112447394D02*
X210697394Y-112623000D01*
X207552606Y-112623000D01*
X205877000Y-110947394D01*
X205877000Y-107000000D01*
X205866994Y-106950590D01*
X205838553Y-106908965D01*
X205796159Y-106881685D01*
X205750000Y-106873000D01*
X202377000Y-106873000D01*
X202377000Y-103377000D01*
X204750000Y-103377000D01*
X204799410Y-103366994D01*
X204839803Y-103339803D01*
X206839803Y-101339803D01*
X206867666Y-101297789D01*
X206877000Y-101250000D01*
X206877000Y-100302606D01*
X207552606Y-99627000D01*
X210873000Y-99627000D01*
X210873000Y-112447394D01*
D10*
G36*
X216450000Y-122675000D02*
X206050000Y-122675000D01*
X206050000Y-114517844D01*
X211699810Y-114517844D01*
X211866922Y-114922286D01*
X212176087Y-115231991D01*
X212580237Y-115399808D01*
X213017844Y-115400190D01*
X213422286Y-115233078D01*
X213731991Y-114923913D01*
X213899808Y-114519763D01*
X213900190Y-114082156D01*
X213733078Y-113677714D01*
X213423913Y-113368009D01*
X213019763Y-113200192D01*
X212582156Y-113199810D01*
X212177714Y-113366922D01*
X211868009Y-113676087D01*
X211700192Y-114080237D01*
X211699810Y-114517844D01*
X206050000Y-114517844D01*
X206050000Y-114050000D01*
X211000000Y-114050000D01*
X211019453Y-114046061D01*
X211035355Y-114035355D01*
X212035355Y-113035355D01*
X212046325Y-113018815D01*
X212050000Y-113000000D01*
X212050000Y-99000000D01*
X212046061Y-98980547D01*
X212035355Y-98964645D01*
X211535355Y-98464645D01*
X211518815Y-98453675D01*
X211500000Y-98450000D01*
X207000000Y-98450000D01*
X206980547Y-98453939D01*
X206964645Y-98464645D01*
X205964645Y-99464645D01*
X205953675Y-99481185D01*
X205950000Y-99500000D01*
X205950000Y-100479290D01*
X204479290Y-101950000D01*
X202000000Y-101950000D01*
X201980547Y-101953939D01*
X201964645Y-101964645D01*
X201464645Y-102464645D01*
X201453675Y-102481185D01*
X201450000Y-102500000D01*
X201450000Y-107500000D01*
X201453939Y-107519453D01*
X201464645Y-107535355D01*
X202464645Y-108535355D01*
X202481185Y-108546325D01*
X202500000Y-108550000D01*
X204450000Y-108550000D01*
X204450000Y-111500000D01*
X204453939Y-111519453D01*
X204464645Y-111535355D01*
X205450000Y-112520710D01*
X205450000Y-122450000D01*
X158327711Y-122450000D01*
X158402842Y-122375000D01*
X164500000Y-122375000D01*
X164643507Y-122346455D01*
X164765165Y-122265165D01*
X164975165Y-122055165D01*
X165056455Y-121933507D01*
X165085000Y-121790000D01*
X165085000Y-120115979D01*
X165111818Y-120110645D01*
X165452462Y-119883033D01*
X165680074Y-119542389D01*
X165760000Y-119140571D01*
X165760000Y-119099429D01*
X166200000Y-119099429D01*
X166200000Y-119140571D01*
X166279926Y-119542389D01*
X166507538Y-119883033D01*
X166848182Y-120110645D01*
X167250000Y-120190571D01*
X167651818Y-120110645D01*
X167992462Y-119883033D01*
X168220074Y-119542389D01*
X168258455Y-119349429D01*
X174410000Y-119349429D01*
X174410000Y-119390571D01*
X174489926Y-119792389D01*
X174717538Y-120133033D01*
X175058182Y-120360645D01*
X175460000Y-120440571D01*
X175861818Y-120360645D01*
X176202462Y-120133033D01*
X176430074Y-119792389D01*
X176510000Y-119390571D01*
X176510000Y-119349429D01*
X176950000Y-119349429D01*
X176950000Y-119390571D01*
X177029926Y-119792389D01*
X177257538Y-120133033D01*
X177598182Y-120360645D01*
X178000000Y-120440571D01*
X178401818Y-120360645D01*
X178742462Y-120133033D01*
X178970074Y-119792389D01*
X179050000Y-119390571D01*
X179050000Y-119349429D01*
X179000273Y-119099429D01*
X185410000Y-119099429D01*
X185410000Y-119140571D01*
X185489926Y-119542389D01*
X185717538Y-119883033D01*
X186058182Y-120110645D01*
X186460000Y-120190571D01*
X186861818Y-120110645D01*
X187202462Y-119883033D01*
X187430074Y-119542389D01*
X187510000Y-119140571D01*
X187510000Y-119099429D01*
X187950000Y-119099429D01*
X187950000Y-119140571D01*
X188029926Y-119542389D01*
X188257538Y-119883033D01*
X188598182Y-120110645D01*
X189000000Y-120190571D01*
X189401818Y-120110645D01*
X189742462Y-119883033D01*
X189970074Y-119542389D01*
X190050000Y-119140571D01*
X190050000Y-119099429D01*
X189970074Y-118697611D01*
X189742462Y-118356967D01*
X189401818Y-118129355D01*
X189204002Y-118090007D01*
X189204002Y-117985002D01*
X189327000Y-118108000D01*
X189485993Y-118108000D01*
X189691082Y-118023049D01*
X189848050Y-117866082D01*
X189933000Y-117660993D01*
X189933000Y-117293500D01*
X189793500Y-117154000D01*
X189187500Y-117154000D01*
X189187500Y-117174000D01*
X188812500Y-117174000D01*
X188812500Y-117154000D01*
X188206500Y-117154000D01*
X188067000Y-117293500D01*
X188067000Y-117660993D01*
X188151950Y-117866082D01*
X188308918Y-118023049D01*
X188514007Y-118108000D01*
X188673000Y-118108000D01*
X188795998Y-117985002D01*
X188795998Y-118090007D01*
X188598182Y-118129355D01*
X188257538Y-118356967D01*
X188029926Y-118697611D01*
X187950000Y-119099429D01*
X187510000Y-119099429D01*
X187430074Y-118697611D01*
X187202462Y-118356967D01*
X186861818Y-118129355D01*
X186573089Y-118071924D01*
X186691082Y-118023049D01*
X186848050Y-117866082D01*
X186933000Y-117660993D01*
X186933000Y-117293500D01*
X186793500Y-117154000D01*
X186187500Y-117154000D01*
X186187500Y-117968500D01*
X186300212Y-118081212D01*
X186058182Y-118129355D01*
X185717538Y-118356967D01*
X185489926Y-118697611D01*
X185410000Y-119099429D01*
X179000273Y-119099429D01*
X178970074Y-118947611D01*
X178742462Y-118606967D01*
X178401818Y-118379355D01*
X178000000Y-118299429D01*
X177598182Y-118379355D01*
X177257538Y-118606967D01*
X177029926Y-118947611D01*
X176950000Y-119349429D01*
X176510000Y-119349429D01*
X176430074Y-118947611D01*
X176202462Y-118606967D01*
X175861818Y-118379355D01*
X175460000Y-118299429D01*
X175058182Y-118379355D01*
X174717538Y-118606967D01*
X174489926Y-118947611D01*
X174410000Y-119349429D01*
X168258455Y-119349429D01*
X168300000Y-119140571D01*
X168300000Y-119099429D01*
X168220074Y-118697611D01*
X167992462Y-118356967D01*
X167651818Y-118129355D01*
X167544458Y-118108000D01*
X167673000Y-118108000D01*
X167812500Y-117968500D01*
X167812500Y-117154000D01*
X168187500Y-117154000D01*
X168187500Y-117968500D01*
X168327000Y-118108000D01*
X168485993Y-118108000D01*
X168691082Y-118023049D01*
X168848050Y-117866082D01*
X168933000Y-117660993D01*
X168933000Y-117293500D01*
X174067000Y-117293500D01*
X174067000Y-117660993D01*
X174151950Y-117866082D01*
X174308918Y-118023049D01*
X174514007Y-118108000D01*
X174673000Y-118108000D01*
X174812500Y-117968500D01*
X174812500Y-117154000D01*
X175187500Y-117154000D01*
X175187500Y-117968500D01*
X175327000Y-118108000D01*
X175485993Y-118108000D01*
X175691082Y-118023049D01*
X175848050Y-117866082D01*
X175933000Y-117660993D01*
X175933000Y-117293500D01*
X177067000Y-117293500D01*
X177067000Y-117660993D01*
X177151950Y-117866082D01*
X177308918Y-118023049D01*
X177514007Y-118108000D01*
X177673000Y-118108000D01*
X177812500Y-117968500D01*
X177812500Y-117154000D01*
X178187500Y-117154000D01*
X178187500Y-117968500D01*
X178327000Y-118108000D01*
X178485993Y-118108000D01*
X178691082Y-118023049D01*
X178848050Y-117866082D01*
X178933000Y-117660993D01*
X178933000Y-117293500D01*
X185067000Y-117293500D01*
X185067000Y-117660993D01*
X185151950Y-117866082D01*
X185308918Y-118023049D01*
X185514007Y-118108000D01*
X185673000Y-118108000D01*
X185812500Y-117968500D01*
X185812500Y-117154000D01*
X185206500Y-117154000D01*
X185067000Y-117293500D01*
X178933000Y-117293500D01*
X178793500Y-117154000D01*
X178187500Y-117154000D01*
X177812500Y-117154000D01*
X177206500Y-117154000D01*
X177067000Y-117293500D01*
X175933000Y-117293500D01*
X175793500Y-117154000D01*
X175187500Y-117154000D01*
X174812500Y-117154000D01*
X174206500Y-117154000D01*
X174067000Y-117293500D01*
X168933000Y-117293500D01*
X168793500Y-117154000D01*
X168187500Y-117154000D01*
X167812500Y-117154000D01*
X167206500Y-117154000D01*
X167067000Y-117293500D01*
X167067000Y-117660993D01*
X167151950Y-117866082D01*
X167308918Y-118023049D01*
X167485874Y-118096347D01*
X167250000Y-118049429D01*
X166848182Y-118129355D01*
X166507538Y-118356967D01*
X166279926Y-118697611D01*
X166200000Y-119099429D01*
X165760000Y-119099429D01*
X165680074Y-118697611D01*
X165452462Y-118356967D01*
X165111818Y-118129355D01*
X164710000Y-118049429D01*
X164551080Y-118081040D01*
X164691082Y-118023049D01*
X164848050Y-117866082D01*
X164933000Y-117660993D01*
X164933000Y-117293500D01*
X164793500Y-117154000D01*
X164187500Y-117154000D01*
X164187500Y-117968500D01*
X164327000Y-118108000D01*
X164415542Y-118108000D01*
X164308182Y-118129355D01*
X163967538Y-118356967D01*
X163739926Y-118697611D01*
X163660000Y-119099429D01*
X163660000Y-119140571D01*
X163739926Y-119542389D01*
X163967538Y-119883033D01*
X164308182Y-120110645D01*
X164335000Y-120115979D01*
X164335000Y-121625000D01*
X158402793Y-121625000D01*
X158311957Y-121534005D01*
X158109882Y-121450096D01*
X157891078Y-121449905D01*
X157688857Y-121533461D01*
X157534005Y-121688043D01*
X157450096Y-121890118D01*
X157449905Y-122108922D01*
X157533461Y-122311143D01*
X157672076Y-122450000D01*
X153516085Y-122450000D01*
X153627294Y-122338791D01*
X153521814Y-122233311D01*
X153809442Y-122062479D01*
X154078300Y-121289159D01*
X154030756Y-120471817D01*
X153809442Y-119937521D01*
X153521812Y-119766688D01*
X152288500Y-121000000D01*
X152302642Y-121014142D01*
X152014142Y-121302642D01*
X152000000Y-121288500D01*
X151985858Y-121302642D01*
X151697358Y-121014142D01*
X151711500Y-121000000D01*
X151697358Y-120985858D01*
X151985858Y-120697358D01*
X152000000Y-120711500D01*
X153233312Y-119478188D01*
X153062479Y-119190558D01*
X152289159Y-118921700D01*
X151471817Y-118969244D01*
X150937521Y-119190558D01*
X150766689Y-119478186D01*
X150661209Y-119372706D01*
X150550000Y-119483915D01*
X150550000Y-118827711D01*
X150688043Y-118965995D01*
X150890118Y-119049904D01*
X151108922Y-119050095D01*
X151311143Y-118966539D01*
X151465995Y-118811957D01*
X151549904Y-118609882D01*
X151550095Y-118391078D01*
X151466539Y-118188857D01*
X151311957Y-118034005D01*
X151109882Y-117950096D01*
X150980313Y-117949983D01*
X150875000Y-117844670D01*
X150875000Y-117293500D01*
X163067000Y-117293500D01*
X163067000Y-117660993D01*
X163151950Y-117866082D01*
X163308918Y-118023049D01*
X163514007Y-118108000D01*
X163673000Y-118108000D01*
X163812500Y-117968500D01*
X163812500Y-117154000D01*
X163206500Y-117154000D01*
X163067000Y-117293500D01*
X150875000Y-117293500D01*
X150875000Y-116239007D01*
X163067000Y-116239007D01*
X163067000Y-116606500D01*
X163206500Y-116746000D01*
X163812500Y-116746000D01*
X163812500Y-116726000D01*
X164187500Y-116726000D01*
X164187500Y-116746000D01*
X164793500Y-116746000D01*
X164933000Y-116606500D01*
X164933000Y-116239007D01*
X164848050Y-116033918D01*
X164691082Y-115876951D01*
X164559691Y-115822527D01*
X164609815Y-115749169D01*
X164629897Y-115650000D01*
X164629897Y-114450000D01*
X164612465Y-114357356D01*
X164557712Y-114272268D01*
X164474169Y-114215185D01*
X164375000Y-114195103D01*
X164375000Y-112615330D01*
X164467913Y-112522417D01*
X164710000Y-112570571D01*
X165111818Y-112490645D01*
X165452462Y-112263033D01*
X165680074Y-111922389D01*
X165760000Y-111520571D01*
X165760000Y-111479429D01*
X165680074Y-111077611D01*
X165452462Y-110736967D01*
X165397138Y-110700000D01*
X166195103Y-110700000D01*
X166195103Y-112300000D01*
X166212535Y-112392644D01*
X166267288Y-112477732D01*
X166350831Y-112534815D01*
X166450000Y-112554897D01*
X167024567Y-112554897D01*
X167625000Y-113155330D01*
X167625000Y-114195103D01*
X167532356Y-114212535D01*
X167447268Y-114267288D01*
X167390185Y-114350831D01*
X167370103Y-114450000D01*
X167370103Y-115650000D01*
X167387535Y-115742644D01*
X167439227Y-115822975D01*
X167308918Y-115876951D01*
X167151950Y-116033918D01*
X167067000Y-116239007D01*
X167067000Y-116606500D01*
X167206500Y-116746000D01*
X167812500Y-116746000D01*
X167812500Y-116726000D01*
X168187500Y-116726000D01*
X168187500Y-116746000D01*
X168793500Y-116746000D01*
X168933000Y-116606500D01*
X168933000Y-116239007D01*
X174067000Y-116239007D01*
X174067000Y-116606500D01*
X174206500Y-116746000D01*
X174812500Y-116746000D01*
X174812500Y-116726000D01*
X175187500Y-116726000D01*
X175187500Y-116746000D01*
X175793500Y-116746000D01*
X175933000Y-116606500D01*
X175933000Y-116239007D01*
X175848050Y-116033918D01*
X175691082Y-115876951D01*
X175559691Y-115822527D01*
X175609815Y-115749169D01*
X175629897Y-115650000D01*
X175629897Y-114450000D01*
X175612465Y-114357356D01*
X175557712Y-114272268D01*
X175474169Y-114215185D01*
X175375000Y-114195103D01*
X175375000Y-112803664D01*
X175460000Y-112820571D01*
X175861818Y-112740645D01*
X176202462Y-112513033D01*
X176430074Y-112172389D01*
X176510000Y-111770571D01*
X176510000Y-111729429D01*
X176430074Y-111327611D01*
X176202462Y-110986967D01*
X176147138Y-110950000D01*
X176945103Y-110950000D01*
X176945103Y-112550000D01*
X176962535Y-112642644D01*
X177017288Y-112727732D01*
X177100831Y-112784815D01*
X177200000Y-112804897D01*
X177625000Y-112804897D01*
X177625000Y-114195103D01*
X177532356Y-114212535D01*
X177447268Y-114267288D01*
X177390185Y-114350831D01*
X177370103Y-114450000D01*
X177370103Y-115650000D01*
X177387535Y-115742644D01*
X177439227Y-115822975D01*
X177308918Y-115876951D01*
X177151950Y-116033918D01*
X177067000Y-116239007D01*
X177067000Y-116606500D01*
X177206500Y-116746000D01*
X177812500Y-116746000D01*
X177812500Y-116726000D01*
X178187500Y-116726000D01*
X178187500Y-116746000D01*
X178793500Y-116746000D01*
X178933000Y-116606500D01*
X178933000Y-116239007D01*
X185067000Y-116239007D01*
X185067000Y-116606500D01*
X185206500Y-116746000D01*
X185812500Y-116746000D01*
X185812500Y-116726000D01*
X186187500Y-116726000D01*
X186187500Y-116746000D01*
X186793500Y-116746000D01*
X186933000Y-116606500D01*
X186933000Y-116239007D01*
X186848050Y-116033918D01*
X186691082Y-115876951D01*
X186559691Y-115822527D01*
X186609815Y-115749169D01*
X186629897Y-115650000D01*
X186629897Y-114450000D01*
X186612465Y-114357356D01*
X186557712Y-114272268D01*
X186474169Y-114215185D01*
X186375000Y-114195103D01*
X186375000Y-112615330D01*
X186426435Y-112563895D01*
X186460000Y-112570571D01*
X186861818Y-112490645D01*
X187202462Y-112263033D01*
X187430074Y-111922389D01*
X187510000Y-111520571D01*
X187510000Y-111479429D01*
X187430074Y-111077611D01*
X187202462Y-110736967D01*
X187147138Y-110700000D01*
X187945103Y-110700000D01*
X187945103Y-112300000D01*
X187962535Y-112392644D01*
X188017288Y-112477732D01*
X188100831Y-112534815D01*
X188200000Y-112554897D01*
X188625000Y-112554897D01*
X188625000Y-114195103D01*
X188532356Y-114212535D01*
X188447268Y-114267288D01*
X188390185Y-114350831D01*
X188370103Y-114450000D01*
X188370103Y-115650000D01*
X188387535Y-115742644D01*
X188439227Y-115822975D01*
X188308918Y-115876951D01*
X188151950Y-116033918D01*
X188067000Y-116239007D01*
X188067000Y-116606500D01*
X188206500Y-116746000D01*
X188812500Y-116746000D01*
X188812500Y-116726000D01*
X189187500Y-116726000D01*
X189187500Y-116746000D01*
X189793500Y-116746000D01*
X189933000Y-116606500D01*
X189933000Y-116239007D01*
X189848050Y-116033918D01*
X189691082Y-115876951D01*
X189559691Y-115822527D01*
X189609815Y-115749169D01*
X189629897Y-115650000D01*
X189629897Y-114450000D01*
X189612465Y-114357356D01*
X189557712Y-114272268D01*
X189474169Y-114215185D01*
X189375000Y-114195103D01*
X189375000Y-112554897D01*
X189800000Y-112554897D01*
X189892644Y-112537465D01*
X189977732Y-112482712D01*
X190034815Y-112399169D01*
X190054897Y-112300000D01*
X190054897Y-110700000D01*
X190037465Y-110607356D01*
X189982712Y-110522268D01*
X189899169Y-110465185D01*
X189800000Y-110445103D01*
X188200000Y-110445103D01*
X188107356Y-110462535D01*
X188022268Y-110517288D01*
X187965185Y-110600831D01*
X187945103Y-110700000D01*
X187147138Y-110700000D01*
X186861818Y-110509355D01*
X186460000Y-110429429D01*
X186058182Y-110509355D01*
X185717538Y-110736967D01*
X185489926Y-111077611D01*
X185410000Y-111479429D01*
X185410000Y-111520571D01*
X185489926Y-111922389D01*
X185703402Y-112241877D01*
X185653545Y-112316493D01*
X185653545Y-112316494D01*
X185625000Y-112460000D01*
X185625000Y-114195103D01*
X185532356Y-114212535D01*
X185447268Y-114267288D01*
X185390185Y-114350831D01*
X185370103Y-114450000D01*
X185370103Y-115650000D01*
X185387535Y-115742644D01*
X185439227Y-115822975D01*
X185308918Y-115876951D01*
X185151950Y-116033918D01*
X185067000Y-116239007D01*
X178933000Y-116239007D01*
X178848050Y-116033918D01*
X178691082Y-115876951D01*
X178559691Y-115822527D01*
X178609815Y-115749169D01*
X178629897Y-115650000D01*
X178629897Y-114450000D01*
X178612465Y-114357356D01*
X178557712Y-114272268D01*
X178474169Y-114215185D01*
X178375000Y-114195103D01*
X178375000Y-112804897D01*
X178800000Y-112804897D01*
X178892644Y-112787465D01*
X178977732Y-112732712D01*
X179034815Y-112649169D01*
X179054897Y-112550000D01*
X179054897Y-110950000D01*
X179037465Y-110857356D01*
X178982712Y-110772268D01*
X178899169Y-110715185D01*
X178800000Y-110695103D01*
X177200000Y-110695103D01*
X177107356Y-110712535D01*
X177022268Y-110767288D01*
X176965185Y-110850831D01*
X176945103Y-110950000D01*
X176147138Y-110950000D01*
X175861818Y-110759355D01*
X175460000Y-110679429D01*
X175058182Y-110759355D01*
X174717538Y-110986967D01*
X174489926Y-111327611D01*
X174410000Y-111729429D01*
X174410000Y-111770571D01*
X174489926Y-112172389D01*
X174638099Y-112394145D01*
X174625000Y-112460000D01*
X174625000Y-114195103D01*
X174532356Y-114212535D01*
X174447268Y-114267288D01*
X174390185Y-114350831D01*
X174370103Y-114450000D01*
X174370103Y-115650000D01*
X174387535Y-115742644D01*
X174439227Y-115822975D01*
X174308918Y-115876951D01*
X174151950Y-116033918D01*
X174067000Y-116239007D01*
X168933000Y-116239007D01*
X168848050Y-116033918D01*
X168691082Y-115876951D01*
X168559691Y-115822527D01*
X168609815Y-115749169D01*
X168629897Y-115650000D01*
X168629897Y-114450000D01*
X168612465Y-114357356D01*
X168557712Y-114272268D01*
X168474169Y-114215185D01*
X168375000Y-114195103D01*
X168375000Y-113000000D01*
X168346455Y-112856494D01*
X168265165Y-112734835D01*
X168079648Y-112549318D01*
X168142644Y-112537465D01*
X168227732Y-112482712D01*
X168284815Y-112399169D01*
X168304897Y-112300000D01*
X168304897Y-110700000D01*
X168287465Y-110607356D01*
X168232712Y-110522268D01*
X168149169Y-110465185D01*
X168050000Y-110445103D01*
X166450000Y-110445103D01*
X166357356Y-110462535D01*
X166272268Y-110517288D01*
X166215185Y-110600831D01*
X166195103Y-110700000D01*
X165397138Y-110700000D01*
X165111818Y-110509355D01*
X164710000Y-110429429D01*
X164308182Y-110509355D01*
X163967538Y-110736967D01*
X163739926Y-111077611D01*
X163660000Y-111479429D01*
X163660000Y-111520571D01*
X163739926Y-111922389D01*
X163847014Y-112082656D01*
X163734835Y-112194835D01*
X163653545Y-112316493D01*
X163653545Y-112316494D01*
X163625000Y-112460000D01*
X163625000Y-114195103D01*
X163532356Y-114212535D01*
X163447268Y-114267288D01*
X163390185Y-114350831D01*
X163370103Y-114450000D01*
X163370103Y-115650000D01*
X163387535Y-115742644D01*
X163439227Y-115822975D01*
X163308918Y-115876951D01*
X163151950Y-116033918D01*
X163067000Y-116239007D01*
X150875000Y-116239007D01*
X150875000Y-113120000D01*
X152455511Y-113120000D01*
X152520213Y-113445281D01*
X152704470Y-113721041D01*
X152980230Y-113905298D01*
X153305511Y-113970000D01*
X154154489Y-113970000D01*
X154479770Y-113905298D01*
X154755530Y-113721041D01*
X154939787Y-113445281D01*
X155004489Y-113120000D01*
X154939787Y-112794719D01*
X154755530Y-112518959D01*
X154479770Y-112334702D01*
X154154489Y-112270000D01*
X153305511Y-112270000D01*
X152980230Y-112334702D01*
X152704470Y-112518959D01*
X152520213Y-112794719D01*
X152455511Y-113120000D01*
X150875000Y-113120000D01*
X150875000Y-111850000D01*
X154995511Y-111850000D01*
X155060213Y-112175281D01*
X155244470Y-112451041D01*
X155520230Y-112635298D01*
X155845511Y-112700000D01*
X156694489Y-112700000D01*
X157019770Y-112635298D01*
X157295530Y-112451041D01*
X157479787Y-112175281D01*
X157544489Y-111850000D01*
X157479787Y-111524719D01*
X157295530Y-111248959D01*
X157019770Y-111064702D01*
X156694489Y-111000000D01*
X155845511Y-111000000D01*
X155520230Y-111064702D01*
X155244470Y-111248959D01*
X155060213Y-111524719D01*
X154995511Y-111850000D01*
X150875000Y-111850000D01*
X150875000Y-110780000D01*
X152455511Y-110780000D01*
X152520213Y-111105281D01*
X152704470Y-111381041D01*
X152980230Y-111565298D01*
X153305511Y-111630000D01*
X154154489Y-111630000D01*
X154479770Y-111565298D01*
X154755530Y-111381041D01*
X154939787Y-111105281D01*
X155004489Y-110780000D01*
X154939787Y-110454719D01*
X154755530Y-110178959D01*
X154479770Y-109994702D01*
X154154489Y-109930000D01*
X153305511Y-109930000D01*
X152980230Y-109994702D01*
X152704470Y-110178959D01*
X152520213Y-110454719D01*
X152455511Y-110780000D01*
X150875000Y-110780000D01*
X150875000Y-109400000D01*
X154995511Y-109400000D01*
X155060213Y-109725281D01*
X155244470Y-110001041D01*
X155520230Y-110185298D01*
X155845511Y-110250000D01*
X156694489Y-110250000D01*
X157019770Y-110185298D01*
X157295530Y-110001041D01*
X157479787Y-109725281D01*
X157544489Y-109400000D01*
X157479787Y-109074719D01*
X157295530Y-108798959D01*
X157019770Y-108614702D01*
X156694489Y-108550000D01*
X155845511Y-108550000D01*
X155520230Y-108614702D01*
X155244470Y-108798959D01*
X155060213Y-109074719D01*
X154995511Y-109400000D01*
X150875000Y-109400000D01*
X150875000Y-108040000D01*
X152455511Y-108040000D01*
X152520213Y-108365281D01*
X152704470Y-108641041D01*
X152980230Y-108825298D01*
X153305511Y-108890000D01*
X154154489Y-108890000D01*
X154479770Y-108825298D01*
X154755530Y-108641041D01*
X154939787Y-108365281D01*
X155004489Y-108040000D01*
X154939787Y-107714719D01*
X154755530Y-107438959D01*
X154479770Y-107254702D01*
X154154489Y-107190000D01*
X153305511Y-107190000D01*
X152980230Y-107254702D01*
X152704470Y-107438959D01*
X152520213Y-107714719D01*
X152455511Y-108040000D01*
X150875000Y-108040000D01*
X150875000Y-106770000D01*
X154995511Y-106770000D01*
X155060213Y-107095281D01*
X155244470Y-107371041D01*
X155520230Y-107555298D01*
X155845511Y-107620000D01*
X156694489Y-107620000D01*
X157019770Y-107555298D01*
X157295530Y-107371041D01*
X157479787Y-107095281D01*
X157544489Y-106770000D01*
X157479787Y-106444719D01*
X157295530Y-106168959D01*
X157019770Y-105984702D01*
X156694489Y-105920000D01*
X155845511Y-105920000D01*
X155520230Y-105984702D01*
X155244470Y-106168959D01*
X155060213Y-106444719D01*
X154995511Y-106770000D01*
X150875000Y-106770000D01*
X150875000Y-105500000D01*
X152455511Y-105500000D01*
X152520213Y-105825281D01*
X152704470Y-106101041D01*
X152980230Y-106285298D01*
X153305511Y-106350000D01*
X154154489Y-106350000D01*
X154479770Y-106285298D01*
X154755530Y-106101041D01*
X154939787Y-105825281D01*
X155004489Y-105500000D01*
X154939787Y-105174719D01*
X154755530Y-104898959D01*
X154479770Y-104714702D01*
X154154489Y-104650000D01*
X153305511Y-104650000D01*
X152980230Y-104714702D01*
X152704470Y-104898959D01*
X152520213Y-105174719D01*
X152455511Y-105500000D01*
X150875000Y-105500000D01*
X150875000Y-104230000D01*
X154995511Y-104230000D01*
X155060213Y-104555281D01*
X155244470Y-104831041D01*
X155520230Y-105015298D01*
X155845511Y-105080000D01*
X156694489Y-105080000D01*
X157019770Y-105015298D01*
X157295530Y-104831041D01*
X157479787Y-104555281D01*
X157544489Y-104230000D01*
X157479787Y-103904719D01*
X157295530Y-103628959D01*
X157019770Y-103444702D01*
X156694489Y-103380000D01*
X155845511Y-103380000D01*
X155520230Y-103444702D01*
X155244470Y-103628959D01*
X155060213Y-103904719D01*
X154995511Y-104230000D01*
X150875000Y-104230000D01*
X150875000Y-103805330D01*
X151714330Y-102966000D01*
X152455511Y-102966000D01*
X152520213Y-103291281D01*
X152704470Y-103567041D01*
X152980230Y-103751298D01*
X153305511Y-103816000D01*
X154154489Y-103816000D01*
X154479770Y-103751298D01*
X154755530Y-103567041D01*
X154939787Y-103291281D01*
X155004489Y-102966000D01*
X154939787Y-102640719D01*
X154755530Y-102364959D01*
X154479770Y-102180702D01*
X154154489Y-102116000D01*
X153305511Y-102116000D01*
X152980230Y-102180702D01*
X152704470Y-102364959D01*
X152520213Y-102640719D01*
X152455511Y-102966000D01*
X151714330Y-102966000D01*
X152990330Y-101690000D01*
X154995511Y-101690000D01*
X155060213Y-102015281D01*
X155244470Y-102291041D01*
X155520230Y-102475298D01*
X155845511Y-102540000D01*
X156694489Y-102540000D01*
X157019770Y-102475298D01*
X157295530Y-102291041D01*
X157479787Y-102015281D01*
X157544489Y-101690000D01*
X157479787Y-101364719D01*
X157295530Y-101088959D01*
X157019770Y-100904702D01*
X156694489Y-100840000D01*
X155845511Y-100840000D01*
X155520230Y-100904702D01*
X155244470Y-101088959D01*
X155060213Y-101364719D01*
X154995511Y-101690000D01*
X152990330Y-101690000D01*
X153410330Y-101270000D01*
X154154489Y-101270000D01*
X154479770Y-101205298D01*
X154755530Y-101021041D01*
X154939787Y-100745281D01*
X155004489Y-100420000D01*
X154939787Y-100094719D01*
X154755530Y-99818959D01*
X154479770Y-99634702D01*
X154154489Y-99570000D01*
X153305511Y-99570000D01*
X152980230Y-99634702D01*
X152704470Y-99818959D01*
X152520213Y-100094719D01*
X152455511Y-100420000D01*
X152520213Y-100745281D01*
X152662076Y-100957594D01*
X150550000Y-103069670D01*
X150550000Y-99529806D01*
X154776058Y-99529806D01*
X155034515Y-99999285D01*
X155423120Y-100254363D01*
X155879758Y-100341312D01*
X156066000Y-100185619D01*
X156066000Y-99354000D01*
X156474000Y-99354000D01*
X156474000Y-100185619D01*
X156660242Y-100341312D01*
X157116880Y-100254363D01*
X157505485Y-99999285D01*
X157725613Y-99599429D01*
X180950000Y-99599429D01*
X180950000Y-99640571D01*
X181029926Y-100042389D01*
X181257538Y-100383033D01*
X181598182Y-100610645D01*
X182000000Y-100690571D01*
X182401818Y-100610645D01*
X182742462Y-100383033D01*
X182970074Y-100042389D01*
X182972236Y-100031518D01*
X187705835Y-100031518D01*
X187961829Y-100495449D01*
X188375875Y-100826100D01*
X188588484Y-100914148D01*
X188796000Y-100821302D01*
X188796000Y-99824000D01*
X189204000Y-99824000D01*
X189204000Y-100821302D01*
X189411516Y-100914148D01*
X189624125Y-100826100D01*
X190038171Y-100495449D01*
X190294165Y-100031518D01*
X190203107Y-99824000D01*
X189204000Y-99824000D01*
X188796000Y-99824000D01*
X187796893Y-99824000D01*
X187705835Y-100031518D01*
X182972236Y-100031518D01*
X183050000Y-99640571D01*
X183050000Y-99599429D01*
X182972237Y-99208482D01*
X187705835Y-99208482D01*
X187796893Y-99416000D01*
X188796000Y-99416000D01*
X188796000Y-98418698D01*
X189204000Y-98418698D01*
X189204000Y-99416000D01*
X190203107Y-99416000D01*
X190294165Y-99208482D01*
X190038171Y-98744551D01*
X189624125Y-98413900D01*
X189411516Y-98325852D01*
X189204000Y-98418698D01*
X188796000Y-98418698D01*
X188588484Y-98325852D01*
X188375875Y-98413900D01*
X187961829Y-98744551D01*
X187705835Y-99208482D01*
X182972237Y-99208482D01*
X182970074Y-99197611D01*
X182742462Y-98856967D01*
X182401818Y-98629355D01*
X182000000Y-98549429D01*
X181598182Y-98629355D01*
X181257538Y-98856967D01*
X181029926Y-99197611D01*
X180950000Y-99599429D01*
X157725613Y-99599429D01*
X157763942Y-99529806D01*
X157667861Y-99354000D01*
X156474000Y-99354000D01*
X156066000Y-99354000D01*
X154872139Y-99354000D01*
X154776058Y-99529806D01*
X150550000Y-99529806D01*
X150550000Y-98047550D01*
X153219783Y-98047550D01*
X153409684Y-98507143D01*
X153761007Y-98859081D01*
X154220269Y-99049783D01*
X154717550Y-99050217D01*
X154969773Y-98946000D01*
X156066000Y-98946000D01*
X156066000Y-98114381D01*
X156474000Y-98114381D01*
X156474000Y-98946000D01*
X157667861Y-98946000D01*
X157763942Y-98770194D01*
X157505485Y-98300715D01*
X157116880Y-98045637D01*
X156660242Y-97958688D01*
X156474000Y-98114381D01*
X156066000Y-98114381D01*
X155879758Y-97958688D01*
X155719836Y-97989139D01*
X155719863Y-97957452D01*
X211499774Y-97957452D01*
X211697271Y-98435429D01*
X212062647Y-98801444D01*
X212540279Y-98999774D01*
X213057452Y-99000226D01*
X213535429Y-98802729D01*
X213901444Y-98437353D01*
X214099774Y-97959721D01*
X214100226Y-97442548D01*
X213902729Y-96964571D01*
X213537353Y-96598556D01*
X213059721Y-96400226D01*
X212542548Y-96399774D01*
X212064571Y-96597271D01*
X211698556Y-96962647D01*
X211500226Y-97440279D01*
X211499774Y-97957452D01*
X155719863Y-97957452D01*
X155720217Y-97552450D01*
X155530316Y-97092857D01*
X155178993Y-96740919D01*
X154719731Y-96550217D01*
X154222450Y-96549783D01*
X153762857Y-96739684D01*
X153410919Y-97091007D01*
X153220217Y-97550269D01*
X153219783Y-98047550D01*
X150550000Y-98047550D01*
X150550000Y-92325000D01*
X153070103Y-92325000D01*
X153070103Y-93675000D01*
X153087535Y-93767644D01*
X153142288Y-93852732D01*
X153225831Y-93909815D01*
X153325000Y-93929897D01*
X154675000Y-93929897D01*
X154767644Y-93912465D01*
X154852732Y-93857712D01*
X154909815Y-93774169D01*
X154929897Y-93675000D01*
X154929897Y-93183187D01*
X155074840Y-93183187D01*
X155215366Y-93523286D01*
X155475345Y-93783720D01*
X155815199Y-93924839D01*
X156183187Y-93925160D01*
X156523286Y-93784634D01*
X156783720Y-93524655D01*
X156924839Y-93184801D01*
X156925160Y-92816813D01*
X156784634Y-92476714D01*
X156651653Y-92343500D01*
X180642000Y-92343500D01*
X180642000Y-92910993D01*
X180726950Y-93116082D01*
X180883918Y-93273049D01*
X181089007Y-93358000D01*
X181656500Y-93358000D01*
X181796000Y-93218500D01*
X181796000Y-92204000D01*
X182204000Y-92204000D01*
X182204000Y-93218500D01*
X182343500Y-93358000D01*
X182910993Y-93358000D01*
X183116082Y-93273049D01*
X183273050Y-93116082D01*
X183358000Y-92910993D01*
X183358000Y-92343500D01*
X183218500Y-92204000D01*
X182204000Y-92204000D01*
X181796000Y-92204000D01*
X180781500Y-92204000D01*
X180642000Y-92343500D01*
X156651653Y-92343500D01*
X156524655Y-92216280D01*
X156184801Y-92075161D01*
X155816813Y-92074840D01*
X155476714Y-92215366D01*
X155216280Y-92475345D01*
X155075161Y-92815199D01*
X155074840Y-93183187D01*
X154929897Y-93183187D01*
X154929897Y-92325000D01*
X154912465Y-92232356D01*
X154857712Y-92147268D01*
X154774169Y-92090185D01*
X154675000Y-92070103D01*
X153325000Y-92070103D01*
X153232356Y-92087535D01*
X153147268Y-92142288D01*
X153090185Y-92225831D01*
X153070103Y-92325000D01*
X150550000Y-92325000D01*
X150550000Y-91089007D01*
X180642000Y-91089007D01*
X180642000Y-91656500D01*
X180781500Y-91796000D01*
X181796000Y-91796000D01*
X181796000Y-90781500D01*
X182204000Y-90781500D01*
X182204000Y-91796000D01*
X183218500Y-91796000D01*
X183358000Y-91656500D01*
X183358000Y-91200000D01*
X187945103Y-91200000D01*
X187945103Y-92800000D01*
X187962535Y-92892644D01*
X188017288Y-92977732D01*
X188100831Y-93034815D01*
X188200000Y-93054897D01*
X189800000Y-93054897D01*
X189892644Y-93037465D01*
X189977732Y-92982712D01*
X190034815Y-92899169D01*
X190054897Y-92800000D01*
X190054897Y-91200000D01*
X190037465Y-91107356D01*
X189982712Y-91022268D01*
X189899169Y-90965185D01*
X189800000Y-90945103D01*
X188200000Y-90945103D01*
X188107356Y-90962535D01*
X188022268Y-91017288D01*
X187965185Y-91100831D01*
X187945103Y-91200000D01*
X183358000Y-91200000D01*
X183358000Y-91089007D01*
X183273050Y-90883918D01*
X183116082Y-90726951D01*
X182910993Y-90642000D01*
X182343500Y-90642000D01*
X182204000Y-90781500D01*
X181796000Y-90781500D01*
X181656500Y-90642000D01*
X181089007Y-90642000D01*
X180883918Y-90726951D01*
X180726950Y-90883918D01*
X180642000Y-91089007D01*
X150550000Y-91089007D01*
X150550000Y-90608922D01*
X170449905Y-90608922D01*
X170533461Y-90811143D01*
X170688043Y-90965995D01*
X170890118Y-91049904D01*
X171108922Y-91050095D01*
X171311143Y-90966539D01*
X171402842Y-90875000D01*
X173597207Y-90875000D01*
X173688043Y-90965995D01*
X173890118Y-91049904D01*
X174108922Y-91050095D01*
X174311143Y-90966539D01*
X174465995Y-90811957D01*
X174549904Y-90609882D01*
X174550095Y-90391078D01*
X174466539Y-90188857D01*
X174311957Y-90034005D01*
X174109882Y-89950096D01*
X173891078Y-89949905D01*
X173688857Y-90033461D01*
X173597158Y-90125000D01*
X171402793Y-90125000D01*
X171311957Y-90034005D01*
X171109882Y-89950096D01*
X170891078Y-89949905D01*
X170688857Y-90033461D01*
X170534005Y-90188043D01*
X170450096Y-90390118D01*
X170449905Y-90608922D01*
X150550000Y-90608922D01*
X150550000Y-89550000D01*
X216450000Y-89550000D01*
X216450000Y-122675000D01*
X216450000Y-122675000D01*
G37*
X216450000Y-122675000D02*
X206050000Y-122675000D01*
X206050000Y-114517844D01*
X211699810Y-114517844D01*
X211866922Y-114922286D01*
X212176087Y-115231991D01*
X212580237Y-115399808D01*
X213017844Y-115400190D01*
X213422286Y-115233078D01*
X213731991Y-114923913D01*
X213899808Y-114519763D01*
X213900190Y-114082156D01*
X213733078Y-113677714D01*
X213423913Y-113368009D01*
X213019763Y-113200192D01*
X212582156Y-113199810D01*
X212177714Y-113366922D01*
X211868009Y-113676087D01*
X211700192Y-114080237D01*
X211699810Y-114517844D01*
X206050000Y-114517844D01*
X206050000Y-114050000D01*
X211000000Y-114050000D01*
X211019453Y-114046061D01*
X211035355Y-114035355D01*
X212035355Y-113035355D01*
X212046325Y-113018815D01*
X212050000Y-113000000D01*
X212050000Y-99000000D01*
X212046061Y-98980547D01*
X212035355Y-98964645D01*
X211535355Y-98464645D01*
X211518815Y-98453675D01*
X211500000Y-98450000D01*
X207000000Y-98450000D01*
X206980547Y-98453939D01*
X206964645Y-98464645D01*
X205964645Y-99464645D01*
X205953675Y-99481185D01*
X205950000Y-99500000D01*
X205950000Y-100479290D01*
X204479290Y-101950000D01*
X202000000Y-101950000D01*
X201980547Y-101953939D01*
X201964645Y-101964645D01*
X201464645Y-102464645D01*
X201453675Y-102481185D01*
X201450000Y-102500000D01*
X201450000Y-107500000D01*
X201453939Y-107519453D01*
X201464645Y-107535355D01*
X202464645Y-108535355D01*
X202481185Y-108546325D01*
X202500000Y-108550000D01*
X204450000Y-108550000D01*
X204450000Y-111500000D01*
X204453939Y-111519453D01*
X204464645Y-111535355D01*
X205450000Y-112520710D01*
X205450000Y-122450000D01*
X158327711Y-122450000D01*
X158402842Y-122375000D01*
X164500000Y-122375000D01*
X164643507Y-122346455D01*
X164765165Y-122265165D01*
X164975165Y-122055165D01*
X165056455Y-121933507D01*
X165085000Y-121790000D01*
X165085000Y-120115979D01*
X165111818Y-120110645D01*
X165452462Y-119883033D01*
X165680074Y-119542389D01*
X165760000Y-119140571D01*
X165760000Y-119099429D01*
X166200000Y-119099429D01*
X166200000Y-119140571D01*
X166279926Y-119542389D01*
X166507538Y-119883033D01*
X166848182Y-120110645D01*
X167250000Y-120190571D01*
X167651818Y-120110645D01*
X167992462Y-119883033D01*
X168220074Y-119542389D01*
X168258455Y-119349429D01*
X174410000Y-119349429D01*
X174410000Y-119390571D01*
X174489926Y-119792389D01*
X174717538Y-120133033D01*
X175058182Y-120360645D01*
X175460000Y-120440571D01*
X175861818Y-120360645D01*
X176202462Y-120133033D01*
X176430074Y-119792389D01*
X176510000Y-119390571D01*
X176510000Y-119349429D01*
X176950000Y-119349429D01*
X176950000Y-119390571D01*
X177029926Y-119792389D01*
X177257538Y-120133033D01*
X177598182Y-120360645D01*
X178000000Y-120440571D01*
X178401818Y-120360645D01*
X178742462Y-120133033D01*
X178970074Y-119792389D01*
X179050000Y-119390571D01*
X179050000Y-119349429D01*
X179000273Y-119099429D01*
X185410000Y-119099429D01*
X185410000Y-119140571D01*
X185489926Y-119542389D01*
X185717538Y-119883033D01*
X186058182Y-120110645D01*
X186460000Y-120190571D01*
X186861818Y-120110645D01*
X187202462Y-119883033D01*
X187430074Y-119542389D01*
X187510000Y-119140571D01*
X187510000Y-119099429D01*
X187950000Y-119099429D01*
X187950000Y-119140571D01*
X188029926Y-119542389D01*
X188257538Y-119883033D01*
X188598182Y-120110645D01*
X189000000Y-120190571D01*
X189401818Y-120110645D01*
X189742462Y-119883033D01*
X189970074Y-119542389D01*
X190050000Y-119140571D01*
X190050000Y-119099429D01*
X189970074Y-118697611D01*
X189742462Y-118356967D01*
X189401818Y-118129355D01*
X189204002Y-118090007D01*
X189204002Y-117985002D01*
X189327000Y-118108000D01*
X189485993Y-118108000D01*
X189691082Y-118023049D01*
X189848050Y-117866082D01*
X189933000Y-117660993D01*
X189933000Y-117293500D01*
X189793500Y-117154000D01*
X189187500Y-117154000D01*
X189187500Y-117174000D01*
X188812500Y-117174000D01*
X188812500Y-117154000D01*
X188206500Y-117154000D01*
X188067000Y-117293500D01*
X188067000Y-117660993D01*
X188151950Y-117866082D01*
X188308918Y-118023049D01*
X188514007Y-118108000D01*
X188673000Y-118108000D01*
X188795998Y-117985002D01*
X188795998Y-118090007D01*
X188598182Y-118129355D01*
X188257538Y-118356967D01*
X188029926Y-118697611D01*
X187950000Y-119099429D01*
X187510000Y-119099429D01*
X187430074Y-118697611D01*
X187202462Y-118356967D01*
X186861818Y-118129355D01*
X186573089Y-118071924D01*
X186691082Y-118023049D01*
X186848050Y-117866082D01*
X186933000Y-117660993D01*
X186933000Y-117293500D01*
X186793500Y-117154000D01*
X186187500Y-117154000D01*
X186187500Y-117968500D01*
X186300212Y-118081212D01*
X186058182Y-118129355D01*
X185717538Y-118356967D01*
X185489926Y-118697611D01*
X185410000Y-119099429D01*
X179000273Y-119099429D01*
X178970074Y-118947611D01*
X178742462Y-118606967D01*
X178401818Y-118379355D01*
X178000000Y-118299429D01*
X177598182Y-118379355D01*
X177257538Y-118606967D01*
X177029926Y-118947611D01*
X176950000Y-119349429D01*
X176510000Y-119349429D01*
X176430074Y-118947611D01*
X176202462Y-118606967D01*
X175861818Y-118379355D01*
X175460000Y-118299429D01*
X175058182Y-118379355D01*
X174717538Y-118606967D01*
X174489926Y-118947611D01*
X174410000Y-119349429D01*
X168258455Y-119349429D01*
X168300000Y-119140571D01*
X168300000Y-119099429D01*
X168220074Y-118697611D01*
X167992462Y-118356967D01*
X167651818Y-118129355D01*
X167544458Y-118108000D01*
X167673000Y-118108000D01*
X167812500Y-117968500D01*
X167812500Y-117154000D01*
X168187500Y-117154000D01*
X168187500Y-117968500D01*
X168327000Y-118108000D01*
X168485993Y-118108000D01*
X168691082Y-118023049D01*
X168848050Y-117866082D01*
X168933000Y-117660993D01*
X168933000Y-117293500D01*
X174067000Y-117293500D01*
X174067000Y-117660993D01*
X174151950Y-117866082D01*
X174308918Y-118023049D01*
X174514007Y-118108000D01*
X174673000Y-118108000D01*
X174812500Y-117968500D01*
X174812500Y-117154000D01*
X175187500Y-117154000D01*
X175187500Y-117968500D01*
X175327000Y-118108000D01*
X175485993Y-118108000D01*
X175691082Y-118023049D01*
X175848050Y-117866082D01*
X175933000Y-117660993D01*
X175933000Y-117293500D01*
X177067000Y-117293500D01*
X177067000Y-117660993D01*
X177151950Y-117866082D01*
X177308918Y-118023049D01*
X177514007Y-118108000D01*
X177673000Y-118108000D01*
X177812500Y-117968500D01*
X177812500Y-117154000D01*
X178187500Y-117154000D01*
X178187500Y-117968500D01*
X178327000Y-118108000D01*
X178485993Y-118108000D01*
X178691082Y-118023049D01*
X178848050Y-117866082D01*
X178933000Y-117660993D01*
X178933000Y-117293500D01*
X185067000Y-117293500D01*
X185067000Y-117660993D01*
X185151950Y-117866082D01*
X185308918Y-118023049D01*
X185514007Y-118108000D01*
X185673000Y-118108000D01*
X185812500Y-117968500D01*
X185812500Y-117154000D01*
X185206500Y-117154000D01*
X185067000Y-117293500D01*
X178933000Y-117293500D01*
X178793500Y-117154000D01*
X178187500Y-117154000D01*
X177812500Y-117154000D01*
X177206500Y-117154000D01*
X177067000Y-117293500D01*
X175933000Y-117293500D01*
X175793500Y-117154000D01*
X175187500Y-117154000D01*
X174812500Y-117154000D01*
X174206500Y-117154000D01*
X174067000Y-117293500D01*
X168933000Y-117293500D01*
X168793500Y-117154000D01*
X168187500Y-117154000D01*
X167812500Y-117154000D01*
X167206500Y-117154000D01*
X167067000Y-117293500D01*
X167067000Y-117660993D01*
X167151950Y-117866082D01*
X167308918Y-118023049D01*
X167485874Y-118096347D01*
X167250000Y-118049429D01*
X166848182Y-118129355D01*
X166507538Y-118356967D01*
X166279926Y-118697611D01*
X166200000Y-119099429D01*
X165760000Y-119099429D01*
X165680074Y-118697611D01*
X165452462Y-118356967D01*
X165111818Y-118129355D01*
X164710000Y-118049429D01*
X164551080Y-118081040D01*
X164691082Y-118023049D01*
X164848050Y-117866082D01*
X164933000Y-117660993D01*
X164933000Y-117293500D01*
X164793500Y-117154000D01*
X164187500Y-117154000D01*
X164187500Y-117968500D01*
X164327000Y-118108000D01*
X164415542Y-118108000D01*
X164308182Y-118129355D01*
X163967538Y-118356967D01*
X163739926Y-118697611D01*
X163660000Y-119099429D01*
X163660000Y-119140571D01*
X163739926Y-119542389D01*
X163967538Y-119883033D01*
X164308182Y-120110645D01*
X164335000Y-120115979D01*
X164335000Y-121625000D01*
X158402793Y-121625000D01*
X158311957Y-121534005D01*
X158109882Y-121450096D01*
X157891078Y-121449905D01*
X157688857Y-121533461D01*
X157534005Y-121688043D01*
X157450096Y-121890118D01*
X157449905Y-122108922D01*
X157533461Y-122311143D01*
X157672076Y-122450000D01*
X153516085Y-122450000D01*
X153627294Y-122338791D01*
X153521814Y-122233311D01*
X153809442Y-122062479D01*
X154078300Y-121289159D01*
X154030756Y-120471817D01*
X153809442Y-119937521D01*
X153521812Y-119766688D01*
X152288500Y-121000000D01*
X152302642Y-121014142D01*
X152014142Y-121302642D01*
X152000000Y-121288500D01*
X151985858Y-121302642D01*
X151697358Y-121014142D01*
X151711500Y-121000000D01*
X151697358Y-120985858D01*
X151985858Y-120697358D01*
X152000000Y-120711500D01*
X153233312Y-119478188D01*
X153062479Y-119190558D01*
X152289159Y-118921700D01*
X151471817Y-118969244D01*
X150937521Y-119190558D01*
X150766689Y-119478186D01*
X150661209Y-119372706D01*
X150550000Y-119483915D01*
X150550000Y-118827711D01*
X150688043Y-118965995D01*
X150890118Y-119049904D01*
X151108922Y-119050095D01*
X151311143Y-118966539D01*
X151465995Y-118811957D01*
X151549904Y-118609882D01*
X151550095Y-118391078D01*
X151466539Y-118188857D01*
X151311957Y-118034005D01*
X151109882Y-117950096D01*
X150980313Y-117949983D01*
X150875000Y-117844670D01*
X150875000Y-117293500D01*
X163067000Y-117293500D01*
X163067000Y-117660993D01*
X163151950Y-117866082D01*
X163308918Y-118023049D01*
X163514007Y-118108000D01*
X163673000Y-118108000D01*
X163812500Y-117968500D01*
X163812500Y-117154000D01*
X163206500Y-117154000D01*
X163067000Y-117293500D01*
X150875000Y-117293500D01*
X150875000Y-116239007D01*
X163067000Y-116239007D01*
X163067000Y-116606500D01*
X163206500Y-116746000D01*
X163812500Y-116746000D01*
X163812500Y-116726000D01*
X164187500Y-116726000D01*
X164187500Y-116746000D01*
X164793500Y-116746000D01*
X164933000Y-116606500D01*
X164933000Y-116239007D01*
X164848050Y-116033918D01*
X164691082Y-115876951D01*
X164559691Y-115822527D01*
X164609815Y-115749169D01*
X164629897Y-115650000D01*
X164629897Y-114450000D01*
X164612465Y-114357356D01*
X164557712Y-114272268D01*
X164474169Y-114215185D01*
X164375000Y-114195103D01*
X164375000Y-112615330D01*
X164467913Y-112522417D01*
X164710000Y-112570571D01*
X165111818Y-112490645D01*
X165452462Y-112263033D01*
X165680074Y-111922389D01*
X165760000Y-111520571D01*
X165760000Y-111479429D01*
X165680074Y-111077611D01*
X165452462Y-110736967D01*
X165397138Y-110700000D01*
X166195103Y-110700000D01*
X166195103Y-112300000D01*
X166212535Y-112392644D01*
X166267288Y-112477732D01*
X166350831Y-112534815D01*
X166450000Y-112554897D01*
X167024567Y-112554897D01*
X167625000Y-113155330D01*
X167625000Y-114195103D01*
X167532356Y-114212535D01*
X167447268Y-114267288D01*
X167390185Y-114350831D01*
X167370103Y-114450000D01*
X167370103Y-115650000D01*
X167387535Y-115742644D01*
X167439227Y-115822975D01*
X167308918Y-115876951D01*
X167151950Y-116033918D01*
X167067000Y-116239007D01*
X167067000Y-116606500D01*
X167206500Y-116746000D01*
X167812500Y-116746000D01*
X167812500Y-116726000D01*
X168187500Y-116726000D01*
X168187500Y-116746000D01*
X168793500Y-116746000D01*
X168933000Y-116606500D01*
X168933000Y-116239007D01*
X174067000Y-116239007D01*
X174067000Y-116606500D01*
X174206500Y-116746000D01*
X174812500Y-116746000D01*
X174812500Y-116726000D01*
X175187500Y-116726000D01*
X175187500Y-116746000D01*
X175793500Y-116746000D01*
X175933000Y-116606500D01*
X175933000Y-116239007D01*
X175848050Y-116033918D01*
X175691082Y-115876951D01*
X175559691Y-115822527D01*
X175609815Y-115749169D01*
X175629897Y-115650000D01*
X175629897Y-114450000D01*
X175612465Y-114357356D01*
X175557712Y-114272268D01*
X175474169Y-114215185D01*
X175375000Y-114195103D01*
X175375000Y-112803664D01*
X175460000Y-112820571D01*
X175861818Y-112740645D01*
X176202462Y-112513033D01*
X176430074Y-112172389D01*
X176510000Y-111770571D01*
X176510000Y-111729429D01*
X176430074Y-111327611D01*
X176202462Y-110986967D01*
X176147138Y-110950000D01*
X176945103Y-110950000D01*
X176945103Y-112550000D01*
X176962535Y-112642644D01*
X177017288Y-112727732D01*
X177100831Y-112784815D01*
X177200000Y-112804897D01*
X177625000Y-112804897D01*
X177625000Y-114195103D01*
X177532356Y-114212535D01*
X177447268Y-114267288D01*
X177390185Y-114350831D01*
X177370103Y-114450000D01*
X177370103Y-115650000D01*
X177387535Y-115742644D01*
X177439227Y-115822975D01*
X177308918Y-115876951D01*
X177151950Y-116033918D01*
X177067000Y-116239007D01*
X177067000Y-116606500D01*
X177206500Y-116746000D01*
X177812500Y-116746000D01*
X177812500Y-116726000D01*
X178187500Y-116726000D01*
X178187500Y-116746000D01*
X178793500Y-116746000D01*
X178933000Y-116606500D01*
X178933000Y-116239007D01*
X185067000Y-116239007D01*
X185067000Y-116606500D01*
X185206500Y-116746000D01*
X185812500Y-116746000D01*
X185812500Y-116726000D01*
X186187500Y-116726000D01*
X186187500Y-116746000D01*
X186793500Y-116746000D01*
X186933000Y-116606500D01*
X186933000Y-116239007D01*
X186848050Y-116033918D01*
X186691082Y-115876951D01*
X186559691Y-115822527D01*
X186609815Y-115749169D01*
X186629897Y-115650000D01*
X186629897Y-114450000D01*
X186612465Y-114357356D01*
X186557712Y-114272268D01*
X186474169Y-114215185D01*
X186375000Y-114195103D01*
X186375000Y-112615330D01*
X186426435Y-112563895D01*
X186460000Y-112570571D01*
X186861818Y-112490645D01*
X187202462Y-112263033D01*
X187430074Y-111922389D01*
X187510000Y-111520571D01*
X187510000Y-111479429D01*
X187430074Y-111077611D01*
X187202462Y-110736967D01*
X187147138Y-110700000D01*
X187945103Y-110700000D01*
X187945103Y-112300000D01*
X187962535Y-112392644D01*
X188017288Y-112477732D01*
X188100831Y-112534815D01*
X188200000Y-112554897D01*
X188625000Y-112554897D01*
X188625000Y-114195103D01*
X188532356Y-114212535D01*
X188447268Y-114267288D01*
X188390185Y-114350831D01*
X188370103Y-114450000D01*
X188370103Y-115650000D01*
X188387535Y-115742644D01*
X188439227Y-115822975D01*
X188308918Y-115876951D01*
X188151950Y-116033918D01*
X188067000Y-116239007D01*
X188067000Y-116606500D01*
X188206500Y-116746000D01*
X188812500Y-116746000D01*
X188812500Y-116726000D01*
X189187500Y-116726000D01*
X189187500Y-116746000D01*
X189793500Y-116746000D01*
X189933000Y-116606500D01*
X189933000Y-116239007D01*
X189848050Y-116033918D01*
X189691082Y-115876951D01*
X189559691Y-115822527D01*
X189609815Y-115749169D01*
X189629897Y-115650000D01*
X189629897Y-114450000D01*
X189612465Y-114357356D01*
X189557712Y-114272268D01*
X189474169Y-114215185D01*
X189375000Y-114195103D01*
X189375000Y-112554897D01*
X189800000Y-112554897D01*
X189892644Y-112537465D01*
X189977732Y-112482712D01*
X190034815Y-112399169D01*
X190054897Y-112300000D01*
X190054897Y-110700000D01*
X190037465Y-110607356D01*
X189982712Y-110522268D01*
X189899169Y-110465185D01*
X189800000Y-110445103D01*
X188200000Y-110445103D01*
X188107356Y-110462535D01*
X188022268Y-110517288D01*
X187965185Y-110600831D01*
X187945103Y-110700000D01*
X187147138Y-110700000D01*
X186861818Y-110509355D01*
X186460000Y-110429429D01*
X186058182Y-110509355D01*
X185717538Y-110736967D01*
X185489926Y-111077611D01*
X185410000Y-111479429D01*
X185410000Y-111520571D01*
X185489926Y-111922389D01*
X185703402Y-112241877D01*
X185653545Y-112316493D01*
X185653545Y-112316494D01*
X185625000Y-112460000D01*
X185625000Y-114195103D01*
X185532356Y-114212535D01*
X185447268Y-114267288D01*
X185390185Y-114350831D01*
X185370103Y-114450000D01*
X185370103Y-115650000D01*
X185387535Y-115742644D01*
X185439227Y-115822975D01*
X185308918Y-115876951D01*
X185151950Y-116033918D01*
X185067000Y-116239007D01*
X178933000Y-116239007D01*
X178848050Y-116033918D01*
X178691082Y-115876951D01*
X178559691Y-115822527D01*
X178609815Y-115749169D01*
X178629897Y-115650000D01*
X178629897Y-114450000D01*
X178612465Y-114357356D01*
X178557712Y-114272268D01*
X178474169Y-114215185D01*
X178375000Y-114195103D01*
X178375000Y-112804897D01*
X178800000Y-112804897D01*
X178892644Y-112787465D01*
X178977732Y-112732712D01*
X179034815Y-112649169D01*
X179054897Y-112550000D01*
X179054897Y-110950000D01*
X179037465Y-110857356D01*
X178982712Y-110772268D01*
X178899169Y-110715185D01*
X178800000Y-110695103D01*
X177200000Y-110695103D01*
X177107356Y-110712535D01*
X177022268Y-110767288D01*
X176965185Y-110850831D01*
X176945103Y-110950000D01*
X176147138Y-110950000D01*
X175861818Y-110759355D01*
X175460000Y-110679429D01*
X175058182Y-110759355D01*
X174717538Y-110986967D01*
X174489926Y-111327611D01*
X174410000Y-111729429D01*
X174410000Y-111770571D01*
X174489926Y-112172389D01*
X174638099Y-112394145D01*
X174625000Y-112460000D01*
X174625000Y-114195103D01*
X174532356Y-114212535D01*
X174447268Y-114267288D01*
X174390185Y-114350831D01*
X174370103Y-114450000D01*
X174370103Y-115650000D01*
X174387535Y-115742644D01*
X174439227Y-115822975D01*
X174308918Y-115876951D01*
X174151950Y-116033918D01*
X174067000Y-116239007D01*
X168933000Y-116239007D01*
X168848050Y-116033918D01*
X168691082Y-115876951D01*
X168559691Y-115822527D01*
X168609815Y-115749169D01*
X168629897Y-115650000D01*
X168629897Y-114450000D01*
X168612465Y-114357356D01*
X168557712Y-114272268D01*
X168474169Y-114215185D01*
X168375000Y-114195103D01*
X168375000Y-113000000D01*
X168346455Y-112856494D01*
X168265165Y-112734835D01*
X168079648Y-112549318D01*
X168142644Y-112537465D01*
X168227732Y-112482712D01*
X168284815Y-112399169D01*
X168304897Y-112300000D01*
X168304897Y-110700000D01*
X168287465Y-110607356D01*
X168232712Y-110522268D01*
X168149169Y-110465185D01*
X168050000Y-110445103D01*
X166450000Y-110445103D01*
X166357356Y-110462535D01*
X166272268Y-110517288D01*
X166215185Y-110600831D01*
X166195103Y-110700000D01*
X165397138Y-110700000D01*
X165111818Y-110509355D01*
X164710000Y-110429429D01*
X164308182Y-110509355D01*
X163967538Y-110736967D01*
X163739926Y-111077611D01*
X163660000Y-111479429D01*
X163660000Y-111520571D01*
X163739926Y-111922389D01*
X163847014Y-112082656D01*
X163734835Y-112194835D01*
X163653545Y-112316493D01*
X163653545Y-112316494D01*
X163625000Y-112460000D01*
X163625000Y-114195103D01*
X163532356Y-114212535D01*
X163447268Y-114267288D01*
X163390185Y-114350831D01*
X163370103Y-114450000D01*
X163370103Y-115650000D01*
X163387535Y-115742644D01*
X163439227Y-115822975D01*
X163308918Y-115876951D01*
X163151950Y-116033918D01*
X163067000Y-116239007D01*
X150875000Y-116239007D01*
X150875000Y-113120000D01*
X152455511Y-113120000D01*
X152520213Y-113445281D01*
X152704470Y-113721041D01*
X152980230Y-113905298D01*
X153305511Y-113970000D01*
X154154489Y-113970000D01*
X154479770Y-113905298D01*
X154755530Y-113721041D01*
X154939787Y-113445281D01*
X155004489Y-113120000D01*
X154939787Y-112794719D01*
X154755530Y-112518959D01*
X154479770Y-112334702D01*
X154154489Y-112270000D01*
X153305511Y-112270000D01*
X152980230Y-112334702D01*
X152704470Y-112518959D01*
X152520213Y-112794719D01*
X152455511Y-113120000D01*
X150875000Y-113120000D01*
X150875000Y-111850000D01*
X154995511Y-111850000D01*
X155060213Y-112175281D01*
X155244470Y-112451041D01*
X155520230Y-112635298D01*
X155845511Y-112700000D01*
X156694489Y-112700000D01*
X157019770Y-112635298D01*
X157295530Y-112451041D01*
X157479787Y-112175281D01*
X157544489Y-111850000D01*
X157479787Y-111524719D01*
X157295530Y-111248959D01*
X157019770Y-111064702D01*
X156694489Y-111000000D01*
X155845511Y-111000000D01*
X155520230Y-111064702D01*
X155244470Y-111248959D01*
X155060213Y-111524719D01*
X154995511Y-111850000D01*
X150875000Y-111850000D01*
X150875000Y-110780000D01*
X152455511Y-110780000D01*
X152520213Y-111105281D01*
X152704470Y-111381041D01*
X152980230Y-111565298D01*
X153305511Y-111630000D01*
X154154489Y-111630000D01*
X154479770Y-111565298D01*
X154755530Y-111381041D01*
X154939787Y-111105281D01*
X155004489Y-110780000D01*
X154939787Y-110454719D01*
X154755530Y-110178959D01*
X154479770Y-109994702D01*
X154154489Y-109930000D01*
X153305511Y-109930000D01*
X152980230Y-109994702D01*
X152704470Y-110178959D01*
X152520213Y-110454719D01*
X152455511Y-110780000D01*
X150875000Y-110780000D01*
X150875000Y-109400000D01*
X154995511Y-109400000D01*
X155060213Y-109725281D01*
X155244470Y-110001041D01*
X155520230Y-110185298D01*
X155845511Y-110250000D01*
X156694489Y-110250000D01*
X157019770Y-110185298D01*
X157295530Y-110001041D01*
X157479787Y-109725281D01*
X157544489Y-109400000D01*
X157479787Y-109074719D01*
X157295530Y-108798959D01*
X157019770Y-108614702D01*
X156694489Y-108550000D01*
X155845511Y-108550000D01*
X155520230Y-108614702D01*
X155244470Y-108798959D01*
X155060213Y-109074719D01*
X154995511Y-109400000D01*
X150875000Y-109400000D01*
X150875000Y-108040000D01*
X152455511Y-108040000D01*
X152520213Y-108365281D01*
X152704470Y-108641041D01*
X152980230Y-108825298D01*
X153305511Y-108890000D01*
X154154489Y-108890000D01*
X154479770Y-108825298D01*
X154755530Y-108641041D01*
X154939787Y-108365281D01*
X155004489Y-108040000D01*
X154939787Y-107714719D01*
X154755530Y-107438959D01*
X154479770Y-107254702D01*
X154154489Y-107190000D01*
X153305511Y-107190000D01*
X152980230Y-107254702D01*
X152704470Y-107438959D01*
X152520213Y-107714719D01*
X152455511Y-108040000D01*
X150875000Y-108040000D01*
X150875000Y-106770000D01*
X154995511Y-106770000D01*
X155060213Y-107095281D01*
X155244470Y-107371041D01*
X155520230Y-107555298D01*
X155845511Y-107620000D01*
X156694489Y-107620000D01*
X157019770Y-107555298D01*
X157295530Y-107371041D01*
X157479787Y-107095281D01*
X157544489Y-106770000D01*
X157479787Y-106444719D01*
X157295530Y-106168959D01*
X157019770Y-105984702D01*
X156694489Y-105920000D01*
X155845511Y-105920000D01*
X155520230Y-105984702D01*
X155244470Y-106168959D01*
X155060213Y-106444719D01*
X154995511Y-106770000D01*
X150875000Y-106770000D01*
X150875000Y-105500000D01*
X152455511Y-105500000D01*
X152520213Y-105825281D01*
X152704470Y-106101041D01*
X152980230Y-106285298D01*
X153305511Y-106350000D01*
X154154489Y-106350000D01*
X154479770Y-106285298D01*
X154755530Y-106101041D01*
X154939787Y-105825281D01*
X155004489Y-105500000D01*
X154939787Y-105174719D01*
X154755530Y-104898959D01*
X154479770Y-104714702D01*
X154154489Y-104650000D01*
X153305511Y-104650000D01*
X152980230Y-104714702D01*
X152704470Y-104898959D01*
X152520213Y-105174719D01*
X152455511Y-105500000D01*
X150875000Y-105500000D01*
X150875000Y-104230000D01*
X154995511Y-104230000D01*
X155060213Y-104555281D01*
X155244470Y-104831041D01*
X155520230Y-105015298D01*
X155845511Y-105080000D01*
X156694489Y-105080000D01*
X157019770Y-105015298D01*
X157295530Y-104831041D01*
X157479787Y-104555281D01*
X157544489Y-104230000D01*
X157479787Y-103904719D01*
X157295530Y-103628959D01*
X157019770Y-103444702D01*
X156694489Y-103380000D01*
X155845511Y-103380000D01*
X155520230Y-103444702D01*
X155244470Y-103628959D01*
X155060213Y-103904719D01*
X154995511Y-104230000D01*
X150875000Y-104230000D01*
X150875000Y-103805330D01*
X151714330Y-102966000D01*
X152455511Y-102966000D01*
X152520213Y-103291281D01*
X152704470Y-103567041D01*
X152980230Y-103751298D01*
X153305511Y-103816000D01*
X154154489Y-103816000D01*
X154479770Y-103751298D01*
X154755530Y-103567041D01*
X154939787Y-103291281D01*
X155004489Y-102966000D01*
X154939787Y-102640719D01*
X154755530Y-102364959D01*
X154479770Y-102180702D01*
X154154489Y-102116000D01*
X153305511Y-102116000D01*
X152980230Y-102180702D01*
X152704470Y-102364959D01*
X152520213Y-102640719D01*
X152455511Y-102966000D01*
X151714330Y-102966000D01*
X152990330Y-101690000D01*
X154995511Y-101690000D01*
X155060213Y-102015281D01*
X155244470Y-102291041D01*
X155520230Y-102475298D01*
X155845511Y-102540000D01*
X156694489Y-102540000D01*
X157019770Y-102475298D01*
X157295530Y-102291041D01*
X157479787Y-102015281D01*
X157544489Y-101690000D01*
X157479787Y-101364719D01*
X157295530Y-101088959D01*
X157019770Y-100904702D01*
X156694489Y-100840000D01*
X155845511Y-100840000D01*
X155520230Y-100904702D01*
X155244470Y-101088959D01*
X155060213Y-101364719D01*
X154995511Y-101690000D01*
X152990330Y-101690000D01*
X153410330Y-101270000D01*
X154154489Y-101270000D01*
X154479770Y-101205298D01*
X154755530Y-101021041D01*
X154939787Y-100745281D01*
X155004489Y-100420000D01*
X154939787Y-100094719D01*
X154755530Y-99818959D01*
X154479770Y-99634702D01*
X154154489Y-99570000D01*
X153305511Y-99570000D01*
X152980230Y-99634702D01*
X152704470Y-99818959D01*
X152520213Y-100094719D01*
X152455511Y-100420000D01*
X152520213Y-100745281D01*
X152662076Y-100957594D01*
X150550000Y-103069670D01*
X150550000Y-99529806D01*
X154776058Y-99529806D01*
X155034515Y-99999285D01*
X155423120Y-100254363D01*
X155879758Y-100341312D01*
X156066000Y-100185619D01*
X156066000Y-99354000D01*
X156474000Y-99354000D01*
X156474000Y-100185619D01*
X156660242Y-100341312D01*
X157116880Y-100254363D01*
X157505485Y-99999285D01*
X157725613Y-99599429D01*
X180950000Y-99599429D01*
X180950000Y-99640571D01*
X181029926Y-100042389D01*
X181257538Y-100383033D01*
X181598182Y-100610645D01*
X182000000Y-100690571D01*
X182401818Y-100610645D01*
X182742462Y-100383033D01*
X182970074Y-100042389D01*
X182972236Y-100031518D01*
X187705835Y-100031518D01*
X187961829Y-100495449D01*
X188375875Y-100826100D01*
X188588484Y-100914148D01*
X188796000Y-100821302D01*
X188796000Y-99824000D01*
X189204000Y-99824000D01*
X189204000Y-100821302D01*
X189411516Y-100914148D01*
X189624125Y-100826100D01*
X190038171Y-100495449D01*
X190294165Y-100031518D01*
X190203107Y-99824000D01*
X189204000Y-99824000D01*
X188796000Y-99824000D01*
X187796893Y-99824000D01*
X187705835Y-100031518D01*
X182972236Y-100031518D01*
X183050000Y-99640571D01*
X183050000Y-99599429D01*
X182972237Y-99208482D01*
X187705835Y-99208482D01*
X187796893Y-99416000D01*
X188796000Y-99416000D01*
X188796000Y-98418698D01*
X189204000Y-98418698D01*
X189204000Y-99416000D01*
X190203107Y-99416000D01*
X190294165Y-99208482D01*
X190038171Y-98744551D01*
X189624125Y-98413900D01*
X189411516Y-98325852D01*
X189204000Y-98418698D01*
X188796000Y-98418698D01*
X188588484Y-98325852D01*
X188375875Y-98413900D01*
X187961829Y-98744551D01*
X187705835Y-99208482D01*
X182972237Y-99208482D01*
X182970074Y-99197611D01*
X182742462Y-98856967D01*
X182401818Y-98629355D01*
X182000000Y-98549429D01*
X181598182Y-98629355D01*
X181257538Y-98856967D01*
X181029926Y-99197611D01*
X180950000Y-99599429D01*
X157725613Y-99599429D01*
X157763942Y-99529806D01*
X157667861Y-99354000D01*
X156474000Y-99354000D01*
X156066000Y-99354000D01*
X154872139Y-99354000D01*
X154776058Y-99529806D01*
X150550000Y-99529806D01*
X150550000Y-98047550D01*
X153219783Y-98047550D01*
X153409684Y-98507143D01*
X153761007Y-98859081D01*
X154220269Y-99049783D01*
X154717550Y-99050217D01*
X154969773Y-98946000D01*
X156066000Y-98946000D01*
X156066000Y-98114381D01*
X156474000Y-98114381D01*
X156474000Y-98946000D01*
X157667861Y-98946000D01*
X157763942Y-98770194D01*
X157505485Y-98300715D01*
X157116880Y-98045637D01*
X156660242Y-97958688D01*
X156474000Y-98114381D01*
X156066000Y-98114381D01*
X155879758Y-97958688D01*
X155719836Y-97989139D01*
X155719863Y-97957452D01*
X211499774Y-97957452D01*
X211697271Y-98435429D01*
X212062647Y-98801444D01*
X212540279Y-98999774D01*
X213057452Y-99000226D01*
X213535429Y-98802729D01*
X213901444Y-98437353D01*
X214099774Y-97959721D01*
X214100226Y-97442548D01*
X213902729Y-96964571D01*
X213537353Y-96598556D01*
X213059721Y-96400226D01*
X212542548Y-96399774D01*
X212064571Y-96597271D01*
X211698556Y-96962647D01*
X211500226Y-97440279D01*
X211499774Y-97957452D01*
X155719863Y-97957452D01*
X155720217Y-97552450D01*
X155530316Y-97092857D01*
X155178993Y-96740919D01*
X154719731Y-96550217D01*
X154222450Y-96549783D01*
X153762857Y-96739684D01*
X153410919Y-97091007D01*
X153220217Y-97550269D01*
X153219783Y-98047550D01*
X150550000Y-98047550D01*
X150550000Y-92325000D01*
X153070103Y-92325000D01*
X153070103Y-93675000D01*
X153087535Y-93767644D01*
X153142288Y-93852732D01*
X153225831Y-93909815D01*
X153325000Y-93929897D01*
X154675000Y-93929897D01*
X154767644Y-93912465D01*
X154852732Y-93857712D01*
X154909815Y-93774169D01*
X154929897Y-93675000D01*
X154929897Y-93183187D01*
X155074840Y-93183187D01*
X155215366Y-93523286D01*
X155475345Y-93783720D01*
X155815199Y-93924839D01*
X156183187Y-93925160D01*
X156523286Y-93784634D01*
X156783720Y-93524655D01*
X156924839Y-93184801D01*
X156925160Y-92816813D01*
X156784634Y-92476714D01*
X156651653Y-92343500D01*
X180642000Y-92343500D01*
X180642000Y-92910993D01*
X180726950Y-93116082D01*
X180883918Y-93273049D01*
X181089007Y-93358000D01*
X181656500Y-93358000D01*
X181796000Y-93218500D01*
X181796000Y-92204000D01*
X182204000Y-92204000D01*
X182204000Y-93218500D01*
X182343500Y-93358000D01*
X182910993Y-93358000D01*
X183116082Y-93273049D01*
X183273050Y-93116082D01*
X183358000Y-92910993D01*
X183358000Y-92343500D01*
X183218500Y-92204000D01*
X182204000Y-92204000D01*
X181796000Y-92204000D01*
X180781500Y-92204000D01*
X180642000Y-92343500D01*
X156651653Y-92343500D01*
X156524655Y-92216280D01*
X156184801Y-92075161D01*
X155816813Y-92074840D01*
X155476714Y-92215366D01*
X155216280Y-92475345D01*
X155075161Y-92815199D01*
X155074840Y-93183187D01*
X154929897Y-93183187D01*
X154929897Y-92325000D01*
X154912465Y-92232356D01*
X154857712Y-92147268D01*
X154774169Y-92090185D01*
X154675000Y-92070103D01*
X153325000Y-92070103D01*
X153232356Y-92087535D01*
X153147268Y-92142288D01*
X153090185Y-92225831D01*
X153070103Y-92325000D01*
X150550000Y-92325000D01*
X150550000Y-91089007D01*
X180642000Y-91089007D01*
X180642000Y-91656500D01*
X180781500Y-91796000D01*
X181796000Y-91796000D01*
X181796000Y-90781500D01*
X182204000Y-90781500D01*
X182204000Y-91796000D01*
X183218500Y-91796000D01*
X183358000Y-91656500D01*
X183358000Y-91200000D01*
X187945103Y-91200000D01*
X187945103Y-92800000D01*
X187962535Y-92892644D01*
X188017288Y-92977732D01*
X188100831Y-93034815D01*
X188200000Y-93054897D01*
X189800000Y-93054897D01*
X189892644Y-93037465D01*
X189977732Y-92982712D01*
X190034815Y-92899169D01*
X190054897Y-92800000D01*
X190054897Y-91200000D01*
X190037465Y-91107356D01*
X189982712Y-91022268D01*
X189899169Y-90965185D01*
X189800000Y-90945103D01*
X188200000Y-90945103D01*
X188107356Y-90962535D01*
X188022268Y-91017288D01*
X187965185Y-91100831D01*
X187945103Y-91200000D01*
X183358000Y-91200000D01*
X183358000Y-91089007D01*
X183273050Y-90883918D01*
X183116082Y-90726951D01*
X182910993Y-90642000D01*
X182343500Y-90642000D01*
X182204000Y-90781500D01*
X181796000Y-90781500D01*
X181656500Y-90642000D01*
X181089007Y-90642000D01*
X180883918Y-90726951D01*
X180726950Y-90883918D01*
X180642000Y-91089007D01*
X150550000Y-91089007D01*
X150550000Y-90608922D01*
X170449905Y-90608922D01*
X170533461Y-90811143D01*
X170688043Y-90965995D01*
X170890118Y-91049904D01*
X171108922Y-91050095D01*
X171311143Y-90966539D01*
X171402842Y-90875000D01*
X173597207Y-90875000D01*
X173688043Y-90965995D01*
X173890118Y-91049904D01*
X174108922Y-91050095D01*
X174311143Y-90966539D01*
X174465995Y-90811957D01*
X174549904Y-90609882D01*
X174550095Y-90391078D01*
X174466539Y-90188857D01*
X174311957Y-90034005D01*
X174109882Y-89950096D01*
X173891078Y-89949905D01*
X173688857Y-90033461D01*
X173597158Y-90125000D01*
X171402793Y-90125000D01*
X171311957Y-90034005D01*
X171109882Y-89950096D01*
X170891078Y-89949905D01*
X170688857Y-90033461D01*
X170534005Y-90188043D01*
X170450096Y-90390118D01*
X170449905Y-90608922D01*
X150550000Y-90608922D01*
X150550000Y-89550000D01*
X216450000Y-89550000D01*
X216450000Y-122675000D01*
M02*
