G04 #@! TF.FileFunction,Copper,L1,Top,Signal*
%FSLAX46Y46*%
G04 Gerber Fmt 4.6, Leading zero omitted, Abs format (unit mm)*
G04 Created by KiCad (PCBNEW 4.0.5) date 02/01/17 23:23:48*
%MOMM*%
%LPD*%
G01*
G04 APERTURE LIST*
%ADD10C,0.100000*%
%ADD11O,1.524000X2.540000*%
%ADD12O,2.000000X1.200000*%
%ADD13C,2.000000*%
%ADD14C,0.250000*%
G04 APERTURE END LIST*
D10*
D11*
X154178000Y-82804000D03*
X156718000Y-82804000D03*
X159258000Y-82804000D03*
X166878000Y-82804000D03*
X164338000Y-82804000D03*
X161798000Y-82804000D03*
X171958000Y-82804000D03*
X174498000Y-82804000D03*
X177038000Y-82804000D03*
X182118000Y-82804000D03*
X154178000Y-131064000D03*
X156718000Y-131064000D03*
X159258000Y-131064000D03*
X161798000Y-131064000D03*
X164338000Y-131064000D03*
X166878000Y-131064000D03*
X169418000Y-131064000D03*
X171958000Y-131064000D03*
X176022000Y-131064000D03*
X178562000Y-131064000D03*
X181102000Y-131064000D03*
X179578000Y-82804000D03*
D12*
X157480000Y-111760000D03*
X160020000Y-110490000D03*
X157480000Y-109220000D03*
X160020000Y-107950000D03*
X157480000Y-106680000D03*
X160020000Y-105410000D03*
X157480000Y-104140000D03*
X160020000Y-102870000D03*
X157480000Y-101600000D03*
X160020000Y-100330000D03*
X157480000Y-99060000D03*
X160020000Y-97790000D03*
D13*
X159280000Y-113110000D03*
D14*
X177038000Y-82804000D02*
X177038000Y-83566000D01*
X177038000Y-83566000D02*
X176022000Y-84582000D01*
X176022000Y-84582000D02*
X156210000Y-84582000D01*
X156210000Y-84582000D02*
X154178000Y-86614000D01*
X154178000Y-86614000D02*
X154178000Y-109728000D01*
X154178000Y-109728000D02*
X156210000Y-111760000D01*
X156210000Y-111760000D02*
X157480000Y-111760000D01*
X160020000Y-110490000D02*
X156464000Y-110490000D01*
X179578000Y-84328000D02*
X179578000Y-82804000D01*
X178562000Y-85344000D02*
X179578000Y-84328000D01*
X156718000Y-85344000D02*
X178562000Y-85344000D01*
X154940000Y-87122000D02*
X156718000Y-85344000D01*
X154940000Y-108966000D02*
X154940000Y-87122000D01*
X156464000Y-110490000D02*
X154940000Y-108966000D01*
X182118000Y-82804000D02*
X182118000Y-84836000D01*
X155702000Y-107442000D02*
X157480000Y-109220000D01*
X155702000Y-87630000D02*
X155702000Y-107442000D01*
X157226000Y-86106000D02*
X155702000Y-87630000D01*
X180848000Y-86106000D02*
X157226000Y-86106000D01*
X182118000Y-84836000D02*
X180848000Y-86106000D01*
X159258000Y-131064000D02*
X159258000Y-128016000D01*
X161544000Y-105410000D02*
X160020000Y-105410000D01*
X162052000Y-105918000D02*
X161544000Y-105410000D01*
X162052000Y-125222000D02*
X162052000Y-105918000D01*
X159258000Y-128016000D02*
X162052000Y-125222000D01*
X157480000Y-104140000D02*
X162306000Y-104140000D01*
X161798000Y-128524000D02*
X161798000Y-131064000D01*
X163322000Y-127000000D02*
X161798000Y-128524000D01*
X163322000Y-105156000D02*
X163322000Y-127000000D01*
X162306000Y-104140000D02*
X163322000Y-105156000D01*
X160020000Y-102870000D02*
X163068000Y-102870000D01*
X164338000Y-104140000D02*
X164338000Y-131064000D01*
X163068000Y-102870000D02*
X164338000Y-104140000D01*
X157480000Y-101600000D02*
X163576000Y-101600000D01*
X166878000Y-128524000D02*
X166878000Y-131064000D01*
X165354000Y-127000000D02*
X166878000Y-128524000D01*
X165354000Y-103378000D02*
X165354000Y-127000000D01*
X163576000Y-101600000D02*
X165354000Y-103378000D01*
X169418000Y-131064000D02*
X169418000Y-129540000D01*
X164592000Y-100330000D02*
X160020000Y-100330000D01*
X166370000Y-102108000D02*
X164592000Y-100330000D01*
X166370000Y-126492000D02*
X166370000Y-102108000D01*
X169418000Y-129540000D02*
X166370000Y-126492000D01*
X171958000Y-131064000D02*
X171958000Y-128016000D01*
X165354000Y-99060000D02*
X157480000Y-99060000D01*
X167386000Y-101092000D02*
X165354000Y-99060000D01*
X167386000Y-126238000D02*
X167386000Y-101092000D01*
X169164000Y-128016000D02*
X167386000Y-126238000D01*
X171958000Y-128016000D02*
X169164000Y-128016000D01*
X160020000Y-97790000D02*
X167894000Y-97790000D01*
X176022000Y-128270000D02*
X176022000Y-131064000D01*
X174752000Y-127000000D02*
X176022000Y-128270000D01*
X169164000Y-127000000D02*
X174752000Y-127000000D01*
X168148000Y-125984000D02*
X169164000Y-127000000D01*
X168148000Y-98044000D02*
X168148000Y-125984000D01*
X167894000Y-97790000D02*
X168148000Y-98044000D01*
M02*
