M48
;DRILL file {KiCad 4.0.5} date 02/15/17 18:02:57
;FORMAT={-:-/ absolute / inch / decimal}
FMAT,2
INCH,TZ
T1C0.033
T2C0.040
%
G90
G05
M72
T1
X6.2Y-3.95
X6.2Y-4.05
X6.2Y-4.15
X6.2Y-4.25
X6.2Y-4.35
X6.2Y-4.45
X6.3Y-3.9
X6.3Y-4.
X6.3Y-4.1
X6.3Y-4.2
X6.3Y-4.3
X6.3Y-4.4
T2
X6.07Y-3.26
X6.07Y-5.16
X6.17Y-3.26
X6.17Y-5.16
X6.27Y-3.26
X6.27Y-5.16
X6.37Y-3.26
X6.37Y-5.16
X6.47Y-3.26
X6.47Y-5.16
X6.57Y-3.26
X6.57Y-5.16
X6.67Y-5.16
X6.77Y-3.26
X6.77Y-5.16
X6.87Y-3.26
X6.93Y-5.16
X6.97Y-3.26
X7.03Y-5.16
X7.07Y-3.26
X7.13Y-5.16
X7.17Y-3.26
T0
M30
