M48
;DRILL file {KiCad 4.0.4+e1-6308~48~ubuntu14.04.1-stable} date Sun Oct 16 10:35:45 2016
;FORMAT={-:-/ absolute / inch / decimal}
FMAT,2
INCH,TZ
T1C0.016
T2C0.030
T3C0.031
T4C0.033
T5C0.059
%
G90
G05
M72
T1
X6.2598Y-3.8504
X6.4409Y-3.811
X6.6693Y-3.874
X6.7795Y-3.874
X6.8268Y-3.7165
X6.8898Y-3.874
X7.4961Y-4.1417
X7.4961Y-4.2126
X7.6929Y-4.0551
X7.8583Y-4.378
X7.8976Y-4.626
X7.9921Y-4.2283
X8.0866Y-4.2283
X8.1024Y-3.9764
X8.1102Y-4.063
X8.126Y-4.1654
X8.1417Y-4.063
X8.1575Y-4.2835
X8.1732Y-4.1732
X8.3976Y-4.0118
X8.3976Y-4.1181
X8.3976Y-4.2283
X8.4646Y-4.0709
X8.4724Y-3.9528
X8.4724Y-4.1732
X8.4724Y-4.2835
T2
X6.4748Y-4.4094
X6.4748Y-4.7094
X6.5748Y-4.4094
X6.5748Y-4.7094
X6.9079Y-4.4094
X6.9079Y-4.7094
X7.0079Y-4.4094
X7.0079Y-4.7094
X7.1732Y-3.6299
X7.1732Y-3.9299
X7.3409Y-4.4094
X7.3409Y-4.7094
X7.4252Y-3.6299
X7.4252Y-3.9299
X7.4409Y-4.4094
X7.4409Y-4.7094
T3
X6.063Y-3.6614
X6.1417Y-3.6614
T4
X6.0524Y-3.8982
X6.0524Y-3.9982
X6.0524Y-4.0982
X6.0524Y-4.1982
X6.0524Y-4.2982
X6.0524Y-4.3982
X6.1524Y-3.9482
X6.1524Y-4.0482
X6.1524Y-4.1482
X6.1524Y-4.2482
X6.1524Y-4.3482
X6.1524Y-4.4482
T5
X6.1181Y-4.7205
T0
M30
