G04 #@! TF.FileFunction,Soldermask,Bot*
%FSLAX46Y46*%
G04 Gerber Fmt 4.6, Leading zero omitted, Abs format (unit mm)*
G04 Created by KiCad (PCBNEW 4.0.4+e1-6308~48~ubuntu14.04.1-stable) date Sun Oct 16 10:35:48 2016*
%MOMM*%
%LPD*%
G01*
G04 APERTURE LIST*
%ADD10C,0.100000*%
%ADD11R,1.750000X1.750000*%
%ADD12C,1.750000*%
%ADD13O,2.400000X1.600000*%
%ADD14C,2.400000*%
%ADD15R,1.150000X1.600000*%
%ADD16R,1.924000X2.224000*%
%ADD17O,1.924000X2.224000*%
%ADD18C,2.500000*%
%ADD19C,2.000000*%
%ADD20C,3.400000*%
G04 APERTURE END LIST*
D10*
D11*
X154000000Y-93000000D03*
D12*
X156000000Y-93000000D03*
D13*
X153730000Y-99015000D03*
X156270000Y-100285000D03*
X153730000Y-101555000D03*
X156270000Y-102825000D03*
X153730000Y-104095000D03*
X156270000Y-105365000D03*
X153730000Y-106635000D03*
X156270000Y-107905000D03*
X153730000Y-109175000D03*
X156270000Y-110445000D03*
X153730000Y-111715000D03*
X156270000Y-112985000D03*
D14*
X155500000Y-97650000D03*
D15*
X189000000Y-115050000D03*
X189000000Y-116950000D03*
X186000000Y-115050000D03*
X186000000Y-116950000D03*
X168000000Y-115050000D03*
X168000000Y-116950000D03*
X164000000Y-115050000D03*
X164000000Y-116950000D03*
X178000000Y-115050000D03*
X178000000Y-116950000D03*
X175000000Y-115050000D03*
X175000000Y-116950000D03*
D16*
X188600000Y-92200000D03*
D17*
X188600000Y-99820000D03*
D16*
X182200000Y-92200000D03*
D17*
X182200000Y-99820000D03*
D16*
X167000000Y-112000000D03*
D17*
X167000000Y-119620000D03*
X164460000Y-112000000D03*
X164460000Y-119620000D03*
D16*
X178000000Y-112000000D03*
D17*
X178000000Y-119620000D03*
X175460000Y-112000000D03*
X175460000Y-119620000D03*
D16*
X189000000Y-112000000D03*
D17*
X189000000Y-119620000D03*
X186460000Y-112000000D03*
X186460000Y-119620000D03*
D18*
X209700000Y-114300000D03*
D19*
X209700000Y-97700000D03*
D20*
X155400000Y-119900000D03*
M02*
