G04 #@! TF.FileFunction,Copper,L2,Bot,Signal*
%FSLAX46Y46*%
G04 Gerber Fmt 4.6, Leading zero omitted, Abs format (unit mm)*
G04 Created by KiCad (PCBNEW 4.0.4+e1-6308~48~ubuntu14.04.1-stable) date Sun Oct 16 10:35:48 2016*
%MOMM*%
%LPD*%
G01*
G04 APERTURE LIST*
%ADD10C,0.100000*%
%ADD11R,1.350000X1.350000*%
%ADD12C,1.350000*%
%ADD13O,2.000000X1.200000*%
%ADD14C,2.000000*%
%ADD15R,0.750000X1.200000*%
%ADD16R,1.524000X1.824000*%
%ADD17O,1.524000X1.824000*%
%ADD18C,3.000000*%
%ADD19C,0.600000*%
%ADD20C,0.250000*%
%ADD21C,0.254000*%
G04 APERTURE END LIST*
D10*
D11*
X154000000Y-93000000D03*
D12*
X156000000Y-93000000D03*
D13*
X153730000Y-99015000D03*
X156270000Y-100285000D03*
X153730000Y-101555000D03*
X156270000Y-102825000D03*
X153730000Y-104095000D03*
X156270000Y-105365000D03*
X153730000Y-106635000D03*
X156270000Y-107905000D03*
X153730000Y-109175000D03*
X156270000Y-110445000D03*
X153730000Y-111715000D03*
X156270000Y-112985000D03*
D14*
X155500000Y-97650000D03*
D15*
X189000000Y-115050000D03*
X189000000Y-116950000D03*
X186000000Y-115050000D03*
X186000000Y-116950000D03*
X168000000Y-115050000D03*
X168000000Y-116950000D03*
X164000000Y-115050000D03*
X164000000Y-116950000D03*
X178000000Y-115050000D03*
X178000000Y-116950000D03*
X175000000Y-115050000D03*
X175000000Y-116950000D03*
D16*
X188600000Y-92200000D03*
D17*
X188600000Y-99820000D03*
D16*
X182200000Y-92200000D03*
D17*
X182200000Y-99820000D03*
D16*
X167000000Y-112000000D03*
D17*
X167000000Y-119620000D03*
X164460000Y-112000000D03*
X164460000Y-119620000D03*
D16*
X178000000Y-112000000D03*
D17*
X178000000Y-119620000D03*
X175460000Y-112000000D03*
X175460000Y-119620000D03*
D16*
X189000000Y-112000000D03*
D17*
X189000000Y-119620000D03*
X186460000Y-112000000D03*
X186460000Y-119620000D03*
D18*
X155400000Y-119900000D03*
D19*
X213300000Y-107400000D03*
X213300000Y-104600000D03*
X213300000Y-101900000D03*
X163600000Y-96800000D03*
X200600000Y-117500000D03*
X199600000Y-111200000D03*
X172200000Y-98400000D03*
X169400000Y-98400000D03*
X215200000Y-108800000D03*
X215200000Y-106000000D03*
X215000000Y-103400000D03*
X215200000Y-100400000D03*
X190400000Y-107000000D03*
X175000000Y-98400000D03*
X173400000Y-94400000D03*
X195400000Y-103000000D03*
X190400000Y-105200000D03*
X203000000Y-107400000D03*
X207200000Y-108800000D03*
X205800000Y-101000000D03*
X206000000Y-103200000D03*
X207600000Y-106000000D03*
X206800000Y-103200000D03*
X205400000Y-107400000D03*
X206400000Y-105800000D03*
X159000000Y-97800000D03*
D20*
X164000000Y-116950000D02*
X158350000Y-116950000D01*
X158350000Y-116950000D02*
X155400000Y-119900000D01*
X213400000Y-107500000D02*
X215200000Y-107500000D01*
X213300000Y-107400000D02*
X213400000Y-107500000D01*
X213300000Y-101900000D02*
X213300000Y-104600000D01*
X215200000Y-108800000D02*
X215200000Y-115600000D01*
X213300000Y-117500000D02*
X200600000Y-117500000D01*
X215200000Y-115600000D02*
X213300000Y-117500000D01*
X182200000Y-92200000D02*
X182200000Y-92800000D01*
X182200000Y-92800000D02*
X184100000Y-94700000D01*
X188600000Y-99820000D02*
X185580000Y-99820000D01*
X185580000Y-99820000D02*
X185400000Y-100000000D01*
X163600000Y-96800000D02*
X163600000Y-96000000D01*
X182800000Y-96000000D02*
X182800000Y-97600000D01*
X184100000Y-94700000D02*
X182800000Y-96000000D01*
X164000000Y-116950000D02*
X168000000Y-116950000D01*
X168000000Y-116950000D02*
X175000000Y-116950000D01*
X175000000Y-116950000D02*
X178000000Y-116950000D01*
X178000000Y-116950000D02*
X186000000Y-116950000D01*
X186000000Y-116950000D02*
X189000000Y-116950000D01*
X189000000Y-116950000D02*
X189050000Y-117000000D01*
X189050000Y-117000000D02*
X191200000Y-117000000D01*
X191200000Y-117000000D02*
X192200000Y-116000000D01*
X172200000Y-96000000D02*
X172200000Y-96200000D01*
X172200000Y-98400000D02*
X172200000Y-96000000D01*
X169400000Y-98400000D02*
X169400000Y-96200000D01*
X153730000Y-96670000D02*
X153730000Y-99015000D01*
X154400000Y-96000000D02*
X153730000Y-96670000D01*
X173400000Y-96000000D02*
X163600000Y-96000000D01*
X163600000Y-96000000D02*
X161800000Y-96000000D01*
X161800000Y-96000000D02*
X159600000Y-96000000D01*
X159600000Y-96000000D02*
X158600000Y-96000000D01*
X158600000Y-96000000D02*
X154400000Y-96000000D01*
X215200000Y-103600000D02*
X215200000Y-104000000D01*
X215000000Y-103400000D02*
X215200000Y-103600000D01*
X215200000Y-100400000D02*
X215200000Y-104000000D01*
X215200000Y-104000000D02*
X215200000Y-106000000D01*
X215200000Y-106000000D02*
X215200000Y-107500000D01*
X215200000Y-107500000D02*
X215200000Y-108800000D01*
X199600000Y-111200000D02*
X197400000Y-113400000D01*
X192200000Y-116000000D02*
X192200000Y-113400000D01*
X197400000Y-113400000D02*
X192200000Y-113400000D01*
X192200000Y-113400000D02*
X192200000Y-111400000D01*
X192200000Y-111400000D02*
X190400000Y-109600000D01*
X197400000Y-114300000D02*
X197400000Y-113400000D01*
X200600000Y-117500000D02*
X197400000Y-114300000D01*
X175000000Y-98400000D02*
X175000000Y-96000000D01*
X173400000Y-94400000D02*
X173400000Y-96000000D01*
X181200000Y-96000000D02*
X175000000Y-96000000D01*
X175000000Y-96000000D02*
X173400000Y-96000000D01*
X195400000Y-103000000D02*
X188200000Y-103000000D01*
X190400000Y-105200000D02*
X188200000Y-103000000D01*
X188200000Y-103000000D02*
X185600000Y-100400000D01*
X185600000Y-100400000D02*
X182800000Y-97600000D01*
X190400000Y-107000000D02*
X190400000Y-105200000D01*
X190400000Y-109600000D02*
X190400000Y-107000000D01*
X182800000Y-97600000D02*
X181200000Y-96000000D01*
X204400000Y-108800000D02*
X207200000Y-108800000D01*
X203000000Y-107400000D02*
X204400000Y-108800000D01*
X206000000Y-103200000D02*
X205800000Y-103000000D01*
X205800000Y-101000000D02*
X205800000Y-103000000D01*
X207600000Y-104000000D02*
X207600000Y-106000000D01*
X206800000Y-103200000D02*
X207600000Y-104000000D01*
X206400000Y-105800000D02*
X206400000Y-106400000D01*
X206400000Y-106400000D02*
X205400000Y-107400000D01*
X164460000Y-119620000D02*
X164460000Y-122240000D01*
X151815000Y-100285000D02*
X156270000Y-100285000D01*
X151200000Y-100900000D02*
X151815000Y-100285000D01*
X151200000Y-122000000D02*
X151200000Y-100900000D01*
X151400000Y-122200000D02*
X151200000Y-122000000D01*
X164420000Y-122200000D02*
X151400000Y-122200000D01*
X164460000Y-122240000D02*
X164420000Y-122200000D01*
X156270000Y-100285000D02*
X156515000Y-100285000D01*
X156515000Y-100285000D02*
X159000000Y-97800000D01*
X175000000Y-115050000D02*
X175000000Y-112460000D01*
X175000000Y-112460000D02*
X175460000Y-112000000D01*
X178000000Y-115050000D02*
X178000000Y-112000000D01*
X164000000Y-115050000D02*
X164000000Y-112460000D01*
X164000000Y-112460000D02*
X164460000Y-112000000D01*
X168000000Y-115050000D02*
X168000000Y-113000000D01*
X168000000Y-113000000D02*
X167000000Y-112000000D01*
X186000000Y-115050000D02*
X186000000Y-112460000D01*
X186000000Y-112460000D02*
X186460000Y-112000000D01*
X189000000Y-115050000D02*
X189000000Y-112000000D01*
D21*
G36*
X211473000Y-111473000D02*
X203666359Y-111473000D01*
X200527000Y-106960171D01*
X200527000Y-103327000D01*
X202600000Y-103327000D01*
X202649410Y-103316994D01*
X202689803Y-103289803D01*
X205452606Y-100527000D01*
X211473000Y-100527000D01*
X211473000Y-111473000D01*
X211473000Y-111473000D01*
G37*
X211473000Y-111473000D02*
X203666359Y-111473000D01*
X200527000Y-106960171D01*
X200527000Y-103327000D01*
X202600000Y-103327000D01*
X202649410Y-103316994D01*
X202689803Y-103289803D01*
X205452606Y-100527000D01*
X211473000Y-100527000D01*
X211473000Y-111473000D01*
G36*
X216290000Y-122123000D02*
X165220000Y-122123000D01*
X165220000Y-120940366D01*
X165447828Y-120788136D01*
X165730000Y-120365837D01*
X166012172Y-120788136D01*
X166465391Y-121090968D01*
X167000000Y-121197308D01*
X167534609Y-121090968D01*
X167987828Y-120788136D01*
X168290660Y-120334917D01*
X168397000Y-119800308D01*
X168397000Y-119439692D01*
X168290660Y-118905083D01*
X167987828Y-118451864D01*
X167588439Y-118185000D01*
X167714250Y-118185000D01*
X167873000Y-118026250D01*
X167873000Y-117077000D01*
X168127000Y-117077000D01*
X168127000Y-118026250D01*
X168285750Y-118185000D01*
X168501310Y-118185000D01*
X168734699Y-118088327D01*
X168913327Y-117909698D01*
X169010000Y-117676309D01*
X169010000Y-117235750D01*
X173990000Y-117235750D01*
X173990000Y-117676309D01*
X174086673Y-117909698D01*
X174265301Y-118088327D01*
X174498690Y-118185000D01*
X174714250Y-118185000D01*
X174872998Y-118026252D01*
X174872998Y-118184040D01*
X174472172Y-118451864D01*
X174169340Y-118905083D01*
X174063000Y-119439692D01*
X174063000Y-119800308D01*
X174169340Y-120334917D01*
X174472172Y-120788136D01*
X174925391Y-121090968D01*
X175460000Y-121197308D01*
X175994609Y-121090968D01*
X176447828Y-120788136D01*
X176730000Y-120365837D01*
X177012172Y-120788136D01*
X177465391Y-121090968D01*
X178000000Y-121197308D01*
X178534609Y-121090968D01*
X178987828Y-120788136D01*
X179290660Y-120334917D01*
X179397000Y-119800308D01*
X179397000Y-119439692D01*
X179290660Y-118905083D01*
X178987828Y-118451864D01*
X178555096Y-118162721D01*
X178734699Y-118088327D01*
X178913327Y-117909698D01*
X179010000Y-117676309D01*
X179010000Y-117235750D01*
X184990000Y-117235750D01*
X184990000Y-117676309D01*
X185086673Y-117909698D01*
X185265301Y-118088327D01*
X185498690Y-118185000D01*
X185714250Y-118185000D01*
X185872998Y-118026252D01*
X185872998Y-118184040D01*
X185472172Y-118451864D01*
X185169340Y-118905083D01*
X185063000Y-119439692D01*
X185063000Y-119800308D01*
X185169340Y-120334917D01*
X185472172Y-120788136D01*
X185925391Y-121090968D01*
X186460000Y-121197308D01*
X186994609Y-121090968D01*
X187447828Y-120788136D01*
X187730000Y-120365837D01*
X188012172Y-120788136D01*
X188465391Y-121090968D01*
X189000000Y-121197308D01*
X189534609Y-121090968D01*
X189987828Y-120788136D01*
X190290660Y-120334917D01*
X190397000Y-119800308D01*
X190397000Y-119439692D01*
X190290660Y-118905083D01*
X189987828Y-118451864D01*
X189555096Y-118162721D01*
X189734699Y-118088327D01*
X189913327Y-117909698D01*
X190010000Y-117676309D01*
X190010000Y-117235750D01*
X189851250Y-117077000D01*
X189127000Y-117077000D01*
X189127000Y-117097000D01*
X188873000Y-117097000D01*
X188873000Y-117077000D01*
X188148750Y-117077000D01*
X187990000Y-117235750D01*
X187990000Y-117676309D01*
X188086673Y-117909698D01*
X188265301Y-118088327D01*
X188444904Y-118162721D01*
X188012172Y-118451864D01*
X187730000Y-118874163D01*
X187447828Y-118451864D01*
X186994609Y-118149032D01*
X186720011Y-118094411D01*
X186734699Y-118088327D01*
X186913327Y-117909698D01*
X187010000Y-117676309D01*
X187010000Y-117235750D01*
X186851250Y-117077000D01*
X186127000Y-117077000D01*
X186127000Y-117097000D01*
X185873000Y-117097000D01*
X185873000Y-117077000D01*
X185148750Y-117077000D01*
X184990000Y-117235750D01*
X179010000Y-117235750D01*
X178851250Y-117077000D01*
X178127000Y-117077000D01*
X178127000Y-117097000D01*
X177873000Y-117097000D01*
X177873000Y-117077000D01*
X177148750Y-117077000D01*
X176990000Y-117235750D01*
X176990000Y-117676309D01*
X177086673Y-117909698D01*
X177265301Y-118088327D01*
X177444904Y-118162721D01*
X177012172Y-118451864D01*
X176730000Y-118874163D01*
X176447828Y-118451864D01*
X175994609Y-118149032D01*
X175720011Y-118094411D01*
X175734699Y-118088327D01*
X175913327Y-117909698D01*
X176010000Y-117676309D01*
X176010000Y-117235750D01*
X175851250Y-117077000D01*
X175127000Y-117077000D01*
X175127000Y-117097000D01*
X174873000Y-117097000D01*
X174873000Y-117077000D01*
X174148750Y-117077000D01*
X173990000Y-117235750D01*
X169010000Y-117235750D01*
X168851250Y-117077000D01*
X168127000Y-117077000D01*
X167873000Y-117077000D01*
X167148750Y-117077000D01*
X166990000Y-117235750D01*
X166990000Y-117676309D01*
X167086673Y-117909698D01*
X167265301Y-118088327D01*
X167298447Y-118102057D01*
X167000000Y-118042692D01*
X166465391Y-118149032D01*
X166012172Y-118451864D01*
X165730000Y-118874163D01*
X165447828Y-118451864D01*
X164994609Y-118149032D01*
X164720011Y-118094411D01*
X164734699Y-118088327D01*
X164913327Y-117909698D01*
X165010000Y-117676309D01*
X165010000Y-117235750D01*
X164851250Y-117077000D01*
X164127000Y-117077000D01*
X164127000Y-117097000D01*
X163873000Y-117097000D01*
X163873000Y-117077000D01*
X163148750Y-117077000D01*
X162990000Y-117235750D01*
X162990000Y-117676309D01*
X163086673Y-117909698D01*
X163265301Y-118088327D01*
X163498690Y-118185000D01*
X163714250Y-118185000D01*
X163872998Y-118026252D01*
X163872998Y-118184040D01*
X163472172Y-118451864D01*
X163169340Y-118905083D01*
X163063000Y-119439692D01*
X163063000Y-119800308D01*
X163169340Y-120334917D01*
X163472172Y-120788136D01*
X163700000Y-120940366D01*
X163700000Y-121440000D01*
X156721317Y-121440000D01*
X156734365Y-121413970D01*
X155400000Y-120079605D01*
X154065635Y-121413970D01*
X154078683Y-121440000D01*
X151960000Y-121440000D01*
X151960000Y-119516187D01*
X153257277Y-119516187D01*
X153273503Y-120365387D01*
X153567261Y-121074582D01*
X153886030Y-121234365D01*
X155220395Y-119900000D01*
X155579605Y-119900000D01*
X156913970Y-121234365D01*
X157232739Y-121074582D01*
X157542723Y-120283813D01*
X157526497Y-119434613D01*
X157232739Y-118725418D01*
X156913970Y-118565635D01*
X155579605Y-119900000D01*
X155220395Y-119900000D01*
X153886030Y-118565635D01*
X153567261Y-118725418D01*
X153257277Y-119516187D01*
X151960000Y-119516187D01*
X151960000Y-118386030D01*
X154065635Y-118386030D01*
X155400000Y-119720395D01*
X156734365Y-118386030D01*
X156574582Y-118067261D01*
X155783813Y-117757277D01*
X154934613Y-117773503D01*
X154225418Y-118067261D01*
X154065635Y-118386030D01*
X151960000Y-118386030D01*
X151960000Y-114450000D01*
X162977560Y-114450000D01*
X162977560Y-115650000D01*
X163021838Y-115885317D01*
X163088329Y-115988646D01*
X163086673Y-115990302D01*
X162990000Y-116223691D01*
X162990000Y-116664250D01*
X163148750Y-116823000D01*
X163873000Y-116823000D01*
X163873000Y-116803000D01*
X164127000Y-116803000D01*
X164127000Y-116823000D01*
X164851250Y-116823000D01*
X165010000Y-116664250D01*
X165010000Y-116223691D01*
X164913327Y-115990302D01*
X164911957Y-115988932D01*
X164971431Y-115901890D01*
X165022440Y-115650000D01*
X165022440Y-114450000D01*
X164978162Y-114214683D01*
X164839090Y-113998559D01*
X164760000Y-113944519D01*
X164760000Y-113517634D01*
X164994609Y-113470968D01*
X165447828Y-113168136D01*
X165596803Y-112945179D01*
X165634838Y-113147317D01*
X165773910Y-113363441D01*
X165986110Y-113508431D01*
X166238000Y-113559440D01*
X167240000Y-113559440D01*
X167240000Y-113943156D01*
X167173559Y-113985910D01*
X167028569Y-114198110D01*
X166977560Y-114450000D01*
X166977560Y-115650000D01*
X167021838Y-115885317D01*
X167088329Y-115988646D01*
X167086673Y-115990302D01*
X166990000Y-116223691D01*
X166990000Y-116664250D01*
X167148750Y-116823000D01*
X167873000Y-116823000D01*
X167873000Y-116803000D01*
X168127000Y-116803000D01*
X168127000Y-116823000D01*
X168851250Y-116823000D01*
X169010000Y-116664250D01*
X169010000Y-116223691D01*
X168913327Y-115990302D01*
X168911957Y-115988932D01*
X168971431Y-115901890D01*
X169022440Y-115650000D01*
X169022440Y-114450000D01*
X173977560Y-114450000D01*
X173977560Y-115650000D01*
X174021838Y-115885317D01*
X174088329Y-115988646D01*
X174086673Y-115990302D01*
X173990000Y-116223691D01*
X173990000Y-116664250D01*
X174148750Y-116823000D01*
X174873000Y-116823000D01*
X174873000Y-116803000D01*
X175127000Y-116803000D01*
X175127000Y-116823000D01*
X175851250Y-116823000D01*
X176010000Y-116664250D01*
X176010000Y-116223691D01*
X175913327Y-115990302D01*
X175911957Y-115988932D01*
X175971431Y-115901890D01*
X176022440Y-115650000D01*
X176022440Y-114450000D01*
X175978162Y-114214683D01*
X175839090Y-113998559D01*
X175760000Y-113944519D01*
X175760000Y-113517634D01*
X175994609Y-113470968D01*
X176447828Y-113168136D01*
X176596803Y-112945179D01*
X176634838Y-113147317D01*
X176773910Y-113363441D01*
X176986110Y-113508431D01*
X177238000Y-113559440D01*
X177240000Y-113559440D01*
X177240000Y-113943156D01*
X177173559Y-113985910D01*
X177028569Y-114198110D01*
X176977560Y-114450000D01*
X176977560Y-115650000D01*
X177021838Y-115885317D01*
X177088329Y-115988646D01*
X177086673Y-115990302D01*
X176990000Y-116223691D01*
X176990000Y-116664250D01*
X177148750Y-116823000D01*
X177873000Y-116823000D01*
X177873000Y-116803000D01*
X178127000Y-116803000D01*
X178127000Y-116823000D01*
X178851250Y-116823000D01*
X179010000Y-116664250D01*
X179010000Y-116223691D01*
X178913327Y-115990302D01*
X178911957Y-115988932D01*
X178971431Y-115901890D01*
X179022440Y-115650000D01*
X179022440Y-114450000D01*
X184977560Y-114450000D01*
X184977560Y-115650000D01*
X185021838Y-115885317D01*
X185088329Y-115988646D01*
X185086673Y-115990302D01*
X184990000Y-116223691D01*
X184990000Y-116664250D01*
X185148750Y-116823000D01*
X185873000Y-116823000D01*
X185873000Y-116803000D01*
X186127000Y-116803000D01*
X186127000Y-116823000D01*
X186851250Y-116823000D01*
X187010000Y-116664250D01*
X187010000Y-116223691D01*
X186913327Y-115990302D01*
X186911957Y-115988932D01*
X186971431Y-115901890D01*
X187022440Y-115650000D01*
X187022440Y-114450000D01*
X186978162Y-114214683D01*
X186839090Y-113998559D01*
X186760000Y-113944519D01*
X186760000Y-113517634D01*
X186994609Y-113470968D01*
X187447828Y-113168136D01*
X187596803Y-112945179D01*
X187634838Y-113147317D01*
X187773910Y-113363441D01*
X187986110Y-113508431D01*
X188238000Y-113559440D01*
X188240000Y-113559440D01*
X188240000Y-113943156D01*
X188173559Y-113985910D01*
X188028569Y-114198110D01*
X187977560Y-114450000D01*
X187977560Y-115650000D01*
X188021838Y-115885317D01*
X188088329Y-115988646D01*
X188086673Y-115990302D01*
X187990000Y-116223691D01*
X187990000Y-116664250D01*
X188148750Y-116823000D01*
X188873000Y-116823000D01*
X188873000Y-116803000D01*
X189127000Y-116803000D01*
X189127000Y-116823000D01*
X189851250Y-116823000D01*
X190010000Y-116664250D01*
X190010000Y-116223691D01*
X189913327Y-115990302D01*
X189911957Y-115988932D01*
X189971431Y-115901890D01*
X190022440Y-115650000D01*
X190022440Y-114450000D01*
X189978162Y-114214683D01*
X189839090Y-113998559D01*
X189760000Y-113944519D01*
X189760000Y-113559440D01*
X189762000Y-113559440D01*
X189997317Y-113515162D01*
X190213441Y-113376090D01*
X190358431Y-113163890D01*
X190409440Y-112912000D01*
X190409440Y-111088000D01*
X190365162Y-110852683D01*
X190226090Y-110636559D01*
X190013890Y-110491569D01*
X189762000Y-110440560D01*
X188238000Y-110440560D01*
X188002683Y-110484838D01*
X187786559Y-110623910D01*
X187641569Y-110836110D01*
X187597168Y-111055367D01*
X187447828Y-110831864D01*
X186994609Y-110529032D01*
X186460000Y-110422692D01*
X185925391Y-110529032D01*
X185472172Y-110831864D01*
X185169340Y-111285083D01*
X185063000Y-111819692D01*
X185063000Y-112180308D01*
X185169340Y-112714917D01*
X185240000Y-112820667D01*
X185240000Y-113943156D01*
X185173559Y-113985910D01*
X185028569Y-114198110D01*
X184977560Y-114450000D01*
X179022440Y-114450000D01*
X178978162Y-114214683D01*
X178839090Y-113998559D01*
X178760000Y-113944519D01*
X178760000Y-113559440D01*
X178762000Y-113559440D01*
X178997317Y-113515162D01*
X179213441Y-113376090D01*
X179358431Y-113163890D01*
X179409440Y-112912000D01*
X179409440Y-111088000D01*
X179365162Y-110852683D01*
X179226090Y-110636559D01*
X179013890Y-110491569D01*
X178762000Y-110440560D01*
X177238000Y-110440560D01*
X177002683Y-110484838D01*
X176786559Y-110623910D01*
X176641569Y-110836110D01*
X176597168Y-111055367D01*
X176447828Y-110831864D01*
X175994609Y-110529032D01*
X175460000Y-110422692D01*
X174925391Y-110529032D01*
X174472172Y-110831864D01*
X174169340Y-111285083D01*
X174063000Y-111819692D01*
X174063000Y-112180308D01*
X174169340Y-112714917D01*
X174240000Y-112820667D01*
X174240000Y-113943156D01*
X174173559Y-113985910D01*
X174028569Y-114198110D01*
X173977560Y-114450000D01*
X169022440Y-114450000D01*
X168978162Y-114214683D01*
X168839090Y-113998559D01*
X168760000Y-113944519D01*
X168760000Y-113000000D01*
X168702148Y-112709161D01*
X168537401Y-112462599D01*
X168409440Y-112334638D01*
X168409440Y-111088000D01*
X168365162Y-110852683D01*
X168226090Y-110636559D01*
X168013890Y-110491569D01*
X167762000Y-110440560D01*
X166238000Y-110440560D01*
X166002683Y-110484838D01*
X165786559Y-110623910D01*
X165641569Y-110836110D01*
X165597168Y-111055367D01*
X165447828Y-110831864D01*
X164994609Y-110529032D01*
X164460000Y-110422692D01*
X163925391Y-110529032D01*
X163472172Y-110831864D01*
X163169340Y-111285083D01*
X163063000Y-111819692D01*
X163063000Y-112180308D01*
X163169340Y-112714917D01*
X163240000Y-112820667D01*
X163240000Y-113943156D01*
X163173559Y-113985910D01*
X163028569Y-114198110D01*
X162977560Y-114450000D01*
X151960000Y-114450000D01*
X151960000Y-101214802D01*
X152129802Y-101045000D01*
X152181957Y-101045000D01*
X152156977Y-101082386D01*
X152062968Y-101555000D01*
X152156977Y-102027614D01*
X152424691Y-102428277D01*
X152825354Y-102695991D01*
X153297968Y-102790000D01*
X154162032Y-102790000D01*
X154628382Y-102697237D01*
X154602968Y-102825000D01*
X154628382Y-102952763D01*
X154162032Y-102860000D01*
X153297968Y-102860000D01*
X152825354Y-102954009D01*
X152424691Y-103221723D01*
X152156977Y-103622386D01*
X152062968Y-104095000D01*
X152156977Y-104567614D01*
X152424691Y-104968277D01*
X152825354Y-105235991D01*
X153297968Y-105330000D01*
X154162032Y-105330000D01*
X154628382Y-105237237D01*
X154602968Y-105365000D01*
X154628382Y-105492763D01*
X154162032Y-105400000D01*
X153297968Y-105400000D01*
X152825354Y-105494009D01*
X152424691Y-105761723D01*
X152156977Y-106162386D01*
X152062968Y-106635000D01*
X152156977Y-107107614D01*
X152424691Y-107508277D01*
X152825354Y-107775991D01*
X153297968Y-107870000D01*
X154162032Y-107870000D01*
X154628382Y-107777237D01*
X154602968Y-107905000D01*
X154628382Y-108032763D01*
X154162032Y-107940000D01*
X153297968Y-107940000D01*
X152825354Y-108034009D01*
X152424691Y-108301723D01*
X152156977Y-108702386D01*
X152062968Y-109175000D01*
X152156977Y-109647614D01*
X152424691Y-110048277D01*
X152825354Y-110315991D01*
X153297968Y-110410000D01*
X154162032Y-110410000D01*
X154628382Y-110317237D01*
X154602968Y-110445000D01*
X154628382Y-110572763D01*
X154162032Y-110480000D01*
X153297968Y-110480000D01*
X152825354Y-110574009D01*
X152424691Y-110841723D01*
X152156977Y-111242386D01*
X152062968Y-111715000D01*
X152156977Y-112187614D01*
X152424691Y-112588277D01*
X152825354Y-112855991D01*
X153297968Y-112950000D01*
X154162032Y-112950000D01*
X154628382Y-112857237D01*
X154602968Y-112985000D01*
X154696977Y-113457614D01*
X154964691Y-113858277D01*
X155365354Y-114125991D01*
X155837968Y-114220000D01*
X156702032Y-114220000D01*
X157174646Y-114125991D01*
X157575309Y-113858277D01*
X157843023Y-113457614D01*
X157937032Y-112985000D01*
X157843023Y-112512386D01*
X157575309Y-112111723D01*
X157174646Y-111844009D01*
X156702032Y-111750000D01*
X155837968Y-111750000D01*
X155371618Y-111842763D01*
X155397032Y-111715000D01*
X155371618Y-111587237D01*
X155837968Y-111680000D01*
X156702032Y-111680000D01*
X157174646Y-111585991D01*
X157575309Y-111318277D01*
X157843023Y-110917614D01*
X157937032Y-110445000D01*
X157843023Y-109972386D01*
X157575309Y-109571723D01*
X157174646Y-109304009D01*
X156702032Y-109210000D01*
X155837968Y-109210000D01*
X155371618Y-109302763D01*
X155397032Y-109175000D01*
X155371618Y-109047237D01*
X155837968Y-109140000D01*
X156702032Y-109140000D01*
X157174646Y-109045991D01*
X157575309Y-108778277D01*
X157843023Y-108377614D01*
X157937032Y-107905000D01*
X157843023Y-107432386D01*
X157575309Y-107031723D01*
X157174646Y-106764009D01*
X156702032Y-106670000D01*
X155837968Y-106670000D01*
X155371618Y-106762763D01*
X155397032Y-106635000D01*
X155371618Y-106507237D01*
X155837968Y-106600000D01*
X156702032Y-106600000D01*
X157174646Y-106505991D01*
X157575309Y-106238277D01*
X157843023Y-105837614D01*
X157937032Y-105365000D01*
X157843023Y-104892386D01*
X157575309Y-104491723D01*
X157174646Y-104224009D01*
X156702032Y-104130000D01*
X155837968Y-104130000D01*
X155371618Y-104222763D01*
X155397032Y-104095000D01*
X155371618Y-103967237D01*
X155837968Y-104060000D01*
X156702032Y-104060000D01*
X157174646Y-103965991D01*
X157575309Y-103698277D01*
X157843023Y-103297614D01*
X157937032Y-102825000D01*
X157843023Y-102352386D01*
X157575309Y-101951723D01*
X157174646Y-101684009D01*
X156702032Y-101590000D01*
X155837968Y-101590000D01*
X155371618Y-101682763D01*
X155397032Y-101555000D01*
X155371618Y-101427237D01*
X155837968Y-101520000D01*
X156702032Y-101520000D01*
X157174646Y-101425991D01*
X157575309Y-101158277D01*
X157843023Y-100757614D01*
X157937032Y-100285000D01*
X157879423Y-99995379D01*
X158235110Y-99639692D01*
X180803000Y-99639692D01*
X180803000Y-100000308D01*
X180909340Y-100534917D01*
X181212172Y-100988136D01*
X181665391Y-101290968D01*
X182200000Y-101397308D01*
X182734609Y-101290968D01*
X183187828Y-100988136D01*
X183490660Y-100534917D01*
X183564044Y-100165985D01*
X187215571Y-100165985D01*
X187395955Y-100680865D01*
X187759644Y-101087522D01*
X188251269Y-101324046D01*
X188256930Y-101324220D01*
X188473000Y-101201720D01*
X188473000Y-99947000D01*
X188727000Y-99947000D01*
X188727000Y-101201720D01*
X188943070Y-101324220D01*
X188948731Y-101324046D01*
X189440356Y-101087522D01*
X189804045Y-100680865D01*
X189984429Y-100165985D01*
X189839293Y-99947000D01*
X188727000Y-99947000D01*
X188473000Y-99947000D01*
X187360707Y-99947000D01*
X187215571Y-100165985D01*
X183564044Y-100165985D01*
X183597000Y-100000308D01*
X183597000Y-99639692D01*
X183564045Y-99474015D01*
X187215571Y-99474015D01*
X187360707Y-99693000D01*
X188473000Y-99693000D01*
X188473000Y-98438280D01*
X188727000Y-98438280D01*
X188727000Y-99693000D01*
X189839293Y-99693000D01*
X189984429Y-99474015D01*
X189804045Y-98959135D01*
X189440356Y-98552478D01*
X188948731Y-98315954D01*
X188943070Y-98315780D01*
X188727000Y-98438280D01*
X188473000Y-98438280D01*
X188256930Y-98315780D01*
X188251269Y-98315954D01*
X187759644Y-98552478D01*
X187395955Y-98959135D01*
X187215571Y-99474015D01*
X183564045Y-99474015D01*
X183490660Y-99105083D01*
X183187828Y-98651864D01*
X182734609Y-98349032D01*
X182200000Y-98242692D01*
X181665391Y-98349032D01*
X181212172Y-98651864D01*
X180909340Y-99105083D01*
X180803000Y-99639692D01*
X158235110Y-99639692D01*
X159139680Y-98735122D01*
X159185167Y-98735162D01*
X159528943Y-98593117D01*
X159792192Y-98330327D01*
X159934838Y-97986799D01*
X159935162Y-97614833D01*
X159793117Y-97271057D01*
X159530327Y-97007808D01*
X159186799Y-96865162D01*
X158814833Y-96864838D01*
X158471057Y-97006883D01*
X158207808Y-97269673D01*
X158065162Y-97613201D01*
X158065121Y-97660077D01*
X156675198Y-99050000D01*
X156393224Y-99050000D01*
X156424943Y-99036894D01*
X156885278Y-98577363D01*
X157134716Y-97976648D01*
X157135284Y-97326205D01*
X156886894Y-96725057D01*
X156427363Y-96264722D01*
X155826648Y-96015284D01*
X155176205Y-96014716D01*
X154575057Y-96263106D01*
X154114722Y-96722637D01*
X153865284Y-97323352D01*
X153864885Y-97780000D01*
X153857000Y-97780000D01*
X153857000Y-98888000D01*
X153877000Y-98888000D01*
X153877000Y-99142000D01*
X153857000Y-99142000D01*
X153857000Y-99162000D01*
X153603000Y-99162000D01*
X153603000Y-99142000D01*
X152261269Y-99142000D01*
X152136538Y-99332609D01*
X152140408Y-99370281D01*
X152222254Y-99525000D01*
X151815000Y-99525000D01*
X151524160Y-99582852D01*
X151277599Y-99747599D01*
X151127000Y-99898198D01*
X151127000Y-98697391D01*
X152136538Y-98697391D01*
X152261269Y-98888000D01*
X153603000Y-98888000D01*
X153603000Y-97780000D01*
X153203000Y-97780000D01*
X152740053Y-97922610D01*
X152366920Y-98231526D01*
X152140408Y-98659719D01*
X152136538Y-98697391D01*
X151127000Y-98697391D01*
X151127000Y-92325000D01*
X152677560Y-92325000D01*
X152677560Y-93675000D01*
X152721838Y-93910317D01*
X152860910Y-94126441D01*
X153073110Y-94271431D01*
X153325000Y-94322440D01*
X154675000Y-94322440D01*
X154910317Y-94278162D01*
X155126441Y-94139090D01*
X155191316Y-94044142D01*
X155256976Y-94109916D01*
X155738282Y-94309772D01*
X156259432Y-94310226D01*
X156741086Y-94111211D01*
X157109916Y-93743024D01*
X157309772Y-93261718D01*
X157310226Y-92740568D01*
X157204938Y-92485750D01*
X180803000Y-92485750D01*
X180803000Y-93238310D01*
X180899673Y-93471699D01*
X181078302Y-93650327D01*
X181311691Y-93747000D01*
X181914250Y-93747000D01*
X182073000Y-93588250D01*
X182073000Y-92327000D01*
X182327000Y-92327000D01*
X182327000Y-93588250D01*
X182485750Y-93747000D01*
X183088309Y-93747000D01*
X183321698Y-93650327D01*
X183500327Y-93471699D01*
X183597000Y-93238310D01*
X183597000Y-92485750D01*
X183438250Y-92327000D01*
X182327000Y-92327000D01*
X182073000Y-92327000D01*
X180961750Y-92327000D01*
X180803000Y-92485750D01*
X157204938Y-92485750D01*
X157111211Y-92258914D01*
X156743024Y-91890084D01*
X156261718Y-91690228D01*
X155740568Y-91689774D01*
X155258914Y-91888789D01*
X155191923Y-91955663D01*
X155139090Y-91873559D01*
X154926890Y-91728569D01*
X154675000Y-91677560D01*
X153325000Y-91677560D01*
X153089683Y-91721838D01*
X152873559Y-91860910D01*
X152728569Y-92073110D01*
X152677560Y-92325000D01*
X151127000Y-92325000D01*
X151127000Y-91161690D01*
X180803000Y-91161690D01*
X180803000Y-91914250D01*
X180961750Y-92073000D01*
X182073000Y-92073000D01*
X182073000Y-90811750D01*
X182327000Y-90811750D01*
X182327000Y-92073000D01*
X183438250Y-92073000D01*
X183597000Y-91914250D01*
X183597000Y-91288000D01*
X187190560Y-91288000D01*
X187190560Y-93112000D01*
X187234838Y-93347317D01*
X187373910Y-93563441D01*
X187586110Y-93708431D01*
X187838000Y-93759440D01*
X189362000Y-93759440D01*
X189597317Y-93715162D01*
X189813441Y-93576090D01*
X189958431Y-93363890D01*
X190009440Y-93112000D01*
X190009440Y-91288000D01*
X189965162Y-91052683D01*
X189826090Y-90836559D01*
X189613890Y-90691569D01*
X189362000Y-90640560D01*
X187838000Y-90640560D01*
X187602683Y-90684838D01*
X187386559Y-90823910D01*
X187241569Y-91036110D01*
X187190560Y-91288000D01*
X183597000Y-91288000D01*
X183597000Y-91161690D01*
X183500327Y-90928301D01*
X183321698Y-90749673D01*
X183088309Y-90653000D01*
X182485750Y-90653000D01*
X182327000Y-90811750D01*
X182073000Y-90811750D01*
X181914250Y-90653000D01*
X181311691Y-90653000D01*
X181078302Y-90749673D01*
X180899673Y-90928301D01*
X180803000Y-91161690D01*
X151127000Y-91161690D01*
X151127000Y-90626406D01*
X204123000Y-90377598D01*
X204123000Y-99682032D01*
X199679553Y-102644330D01*
X199643992Y-102680063D01*
X199623000Y-102750000D01*
X199623000Y-107750000D01*
X199633006Y-107799410D01*
X199650320Y-107828695D01*
X203400320Y-112578695D01*
X203438790Y-112611276D01*
X203500000Y-112627000D01*
X209336554Y-112627000D01*
X208746771Y-112870694D01*
X208272360Y-113344278D01*
X208015293Y-113963362D01*
X208014708Y-114633697D01*
X208270694Y-115253229D01*
X208744278Y-115727640D01*
X209363362Y-115984707D01*
X210033697Y-115985292D01*
X210653229Y-115729306D01*
X211127640Y-115255722D01*
X211384707Y-114636638D01*
X211385292Y-113966303D01*
X211129306Y-113346771D01*
X210655722Y-112872360D01*
X210064831Y-112627000D01*
X212250000Y-112627000D01*
X212299410Y-112616994D01*
X212341035Y-112588553D01*
X212368315Y-112546159D01*
X212377000Y-112500000D01*
X212377000Y-99500000D01*
X212366994Y-99450590D01*
X212338553Y-99408965D01*
X212296159Y-99381685D01*
X212250000Y-99373000D01*
X205377000Y-99373000D01*
X205377000Y-97984187D01*
X208264752Y-97984187D01*
X208482757Y-98511800D01*
X208886077Y-98915824D01*
X209413309Y-99134750D01*
X209984187Y-99135248D01*
X210511800Y-98917243D01*
X210915824Y-98513923D01*
X211134750Y-97986691D01*
X211135248Y-97415813D01*
X210917243Y-96888200D01*
X210513923Y-96484176D01*
X209986691Y-96265250D01*
X209415813Y-96264752D01*
X208888200Y-96482757D01*
X208484176Y-96886077D01*
X208265250Y-97413309D01*
X208264752Y-97984187D01*
X205377000Y-97984187D01*
X205377000Y-90127000D01*
X216290000Y-90127000D01*
X216290000Y-122123000D01*
X216290000Y-122123000D01*
G37*
X216290000Y-122123000D02*
X165220000Y-122123000D01*
X165220000Y-120940366D01*
X165447828Y-120788136D01*
X165730000Y-120365837D01*
X166012172Y-120788136D01*
X166465391Y-121090968D01*
X167000000Y-121197308D01*
X167534609Y-121090968D01*
X167987828Y-120788136D01*
X168290660Y-120334917D01*
X168397000Y-119800308D01*
X168397000Y-119439692D01*
X168290660Y-118905083D01*
X167987828Y-118451864D01*
X167588439Y-118185000D01*
X167714250Y-118185000D01*
X167873000Y-118026250D01*
X167873000Y-117077000D01*
X168127000Y-117077000D01*
X168127000Y-118026250D01*
X168285750Y-118185000D01*
X168501310Y-118185000D01*
X168734699Y-118088327D01*
X168913327Y-117909698D01*
X169010000Y-117676309D01*
X169010000Y-117235750D01*
X173990000Y-117235750D01*
X173990000Y-117676309D01*
X174086673Y-117909698D01*
X174265301Y-118088327D01*
X174498690Y-118185000D01*
X174714250Y-118185000D01*
X174872998Y-118026252D01*
X174872998Y-118184040D01*
X174472172Y-118451864D01*
X174169340Y-118905083D01*
X174063000Y-119439692D01*
X174063000Y-119800308D01*
X174169340Y-120334917D01*
X174472172Y-120788136D01*
X174925391Y-121090968D01*
X175460000Y-121197308D01*
X175994609Y-121090968D01*
X176447828Y-120788136D01*
X176730000Y-120365837D01*
X177012172Y-120788136D01*
X177465391Y-121090968D01*
X178000000Y-121197308D01*
X178534609Y-121090968D01*
X178987828Y-120788136D01*
X179290660Y-120334917D01*
X179397000Y-119800308D01*
X179397000Y-119439692D01*
X179290660Y-118905083D01*
X178987828Y-118451864D01*
X178555096Y-118162721D01*
X178734699Y-118088327D01*
X178913327Y-117909698D01*
X179010000Y-117676309D01*
X179010000Y-117235750D01*
X184990000Y-117235750D01*
X184990000Y-117676309D01*
X185086673Y-117909698D01*
X185265301Y-118088327D01*
X185498690Y-118185000D01*
X185714250Y-118185000D01*
X185872998Y-118026252D01*
X185872998Y-118184040D01*
X185472172Y-118451864D01*
X185169340Y-118905083D01*
X185063000Y-119439692D01*
X185063000Y-119800308D01*
X185169340Y-120334917D01*
X185472172Y-120788136D01*
X185925391Y-121090968D01*
X186460000Y-121197308D01*
X186994609Y-121090968D01*
X187447828Y-120788136D01*
X187730000Y-120365837D01*
X188012172Y-120788136D01*
X188465391Y-121090968D01*
X189000000Y-121197308D01*
X189534609Y-121090968D01*
X189987828Y-120788136D01*
X190290660Y-120334917D01*
X190397000Y-119800308D01*
X190397000Y-119439692D01*
X190290660Y-118905083D01*
X189987828Y-118451864D01*
X189555096Y-118162721D01*
X189734699Y-118088327D01*
X189913327Y-117909698D01*
X190010000Y-117676309D01*
X190010000Y-117235750D01*
X189851250Y-117077000D01*
X189127000Y-117077000D01*
X189127000Y-117097000D01*
X188873000Y-117097000D01*
X188873000Y-117077000D01*
X188148750Y-117077000D01*
X187990000Y-117235750D01*
X187990000Y-117676309D01*
X188086673Y-117909698D01*
X188265301Y-118088327D01*
X188444904Y-118162721D01*
X188012172Y-118451864D01*
X187730000Y-118874163D01*
X187447828Y-118451864D01*
X186994609Y-118149032D01*
X186720011Y-118094411D01*
X186734699Y-118088327D01*
X186913327Y-117909698D01*
X187010000Y-117676309D01*
X187010000Y-117235750D01*
X186851250Y-117077000D01*
X186127000Y-117077000D01*
X186127000Y-117097000D01*
X185873000Y-117097000D01*
X185873000Y-117077000D01*
X185148750Y-117077000D01*
X184990000Y-117235750D01*
X179010000Y-117235750D01*
X178851250Y-117077000D01*
X178127000Y-117077000D01*
X178127000Y-117097000D01*
X177873000Y-117097000D01*
X177873000Y-117077000D01*
X177148750Y-117077000D01*
X176990000Y-117235750D01*
X176990000Y-117676309D01*
X177086673Y-117909698D01*
X177265301Y-118088327D01*
X177444904Y-118162721D01*
X177012172Y-118451864D01*
X176730000Y-118874163D01*
X176447828Y-118451864D01*
X175994609Y-118149032D01*
X175720011Y-118094411D01*
X175734699Y-118088327D01*
X175913327Y-117909698D01*
X176010000Y-117676309D01*
X176010000Y-117235750D01*
X175851250Y-117077000D01*
X175127000Y-117077000D01*
X175127000Y-117097000D01*
X174873000Y-117097000D01*
X174873000Y-117077000D01*
X174148750Y-117077000D01*
X173990000Y-117235750D01*
X169010000Y-117235750D01*
X168851250Y-117077000D01*
X168127000Y-117077000D01*
X167873000Y-117077000D01*
X167148750Y-117077000D01*
X166990000Y-117235750D01*
X166990000Y-117676309D01*
X167086673Y-117909698D01*
X167265301Y-118088327D01*
X167298447Y-118102057D01*
X167000000Y-118042692D01*
X166465391Y-118149032D01*
X166012172Y-118451864D01*
X165730000Y-118874163D01*
X165447828Y-118451864D01*
X164994609Y-118149032D01*
X164720011Y-118094411D01*
X164734699Y-118088327D01*
X164913327Y-117909698D01*
X165010000Y-117676309D01*
X165010000Y-117235750D01*
X164851250Y-117077000D01*
X164127000Y-117077000D01*
X164127000Y-117097000D01*
X163873000Y-117097000D01*
X163873000Y-117077000D01*
X163148750Y-117077000D01*
X162990000Y-117235750D01*
X162990000Y-117676309D01*
X163086673Y-117909698D01*
X163265301Y-118088327D01*
X163498690Y-118185000D01*
X163714250Y-118185000D01*
X163872998Y-118026252D01*
X163872998Y-118184040D01*
X163472172Y-118451864D01*
X163169340Y-118905083D01*
X163063000Y-119439692D01*
X163063000Y-119800308D01*
X163169340Y-120334917D01*
X163472172Y-120788136D01*
X163700000Y-120940366D01*
X163700000Y-121440000D01*
X156721317Y-121440000D01*
X156734365Y-121413970D01*
X155400000Y-120079605D01*
X154065635Y-121413970D01*
X154078683Y-121440000D01*
X151960000Y-121440000D01*
X151960000Y-119516187D01*
X153257277Y-119516187D01*
X153273503Y-120365387D01*
X153567261Y-121074582D01*
X153886030Y-121234365D01*
X155220395Y-119900000D01*
X155579605Y-119900000D01*
X156913970Y-121234365D01*
X157232739Y-121074582D01*
X157542723Y-120283813D01*
X157526497Y-119434613D01*
X157232739Y-118725418D01*
X156913970Y-118565635D01*
X155579605Y-119900000D01*
X155220395Y-119900000D01*
X153886030Y-118565635D01*
X153567261Y-118725418D01*
X153257277Y-119516187D01*
X151960000Y-119516187D01*
X151960000Y-118386030D01*
X154065635Y-118386030D01*
X155400000Y-119720395D01*
X156734365Y-118386030D01*
X156574582Y-118067261D01*
X155783813Y-117757277D01*
X154934613Y-117773503D01*
X154225418Y-118067261D01*
X154065635Y-118386030D01*
X151960000Y-118386030D01*
X151960000Y-114450000D01*
X162977560Y-114450000D01*
X162977560Y-115650000D01*
X163021838Y-115885317D01*
X163088329Y-115988646D01*
X163086673Y-115990302D01*
X162990000Y-116223691D01*
X162990000Y-116664250D01*
X163148750Y-116823000D01*
X163873000Y-116823000D01*
X163873000Y-116803000D01*
X164127000Y-116803000D01*
X164127000Y-116823000D01*
X164851250Y-116823000D01*
X165010000Y-116664250D01*
X165010000Y-116223691D01*
X164913327Y-115990302D01*
X164911957Y-115988932D01*
X164971431Y-115901890D01*
X165022440Y-115650000D01*
X165022440Y-114450000D01*
X164978162Y-114214683D01*
X164839090Y-113998559D01*
X164760000Y-113944519D01*
X164760000Y-113517634D01*
X164994609Y-113470968D01*
X165447828Y-113168136D01*
X165596803Y-112945179D01*
X165634838Y-113147317D01*
X165773910Y-113363441D01*
X165986110Y-113508431D01*
X166238000Y-113559440D01*
X167240000Y-113559440D01*
X167240000Y-113943156D01*
X167173559Y-113985910D01*
X167028569Y-114198110D01*
X166977560Y-114450000D01*
X166977560Y-115650000D01*
X167021838Y-115885317D01*
X167088329Y-115988646D01*
X167086673Y-115990302D01*
X166990000Y-116223691D01*
X166990000Y-116664250D01*
X167148750Y-116823000D01*
X167873000Y-116823000D01*
X167873000Y-116803000D01*
X168127000Y-116803000D01*
X168127000Y-116823000D01*
X168851250Y-116823000D01*
X169010000Y-116664250D01*
X169010000Y-116223691D01*
X168913327Y-115990302D01*
X168911957Y-115988932D01*
X168971431Y-115901890D01*
X169022440Y-115650000D01*
X169022440Y-114450000D01*
X173977560Y-114450000D01*
X173977560Y-115650000D01*
X174021838Y-115885317D01*
X174088329Y-115988646D01*
X174086673Y-115990302D01*
X173990000Y-116223691D01*
X173990000Y-116664250D01*
X174148750Y-116823000D01*
X174873000Y-116823000D01*
X174873000Y-116803000D01*
X175127000Y-116803000D01*
X175127000Y-116823000D01*
X175851250Y-116823000D01*
X176010000Y-116664250D01*
X176010000Y-116223691D01*
X175913327Y-115990302D01*
X175911957Y-115988932D01*
X175971431Y-115901890D01*
X176022440Y-115650000D01*
X176022440Y-114450000D01*
X175978162Y-114214683D01*
X175839090Y-113998559D01*
X175760000Y-113944519D01*
X175760000Y-113517634D01*
X175994609Y-113470968D01*
X176447828Y-113168136D01*
X176596803Y-112945179D01*
X176634838Y-113147317D01*
X176773910Y-113363441D01*
X176986110Y-113508431D01*
X177238000Y-113559440D01*
X177240000Y-113559440D01*
X177240000Y-113943156D01*
X177173559Y-113985910D01*
X177028569Y-114198110D01*
X176977560Y-114450000D01*
X176977560Y-115650000D01*
X177021838Y-115885317D01*
X177088329Y-115988646D01*
X177086673Y-115990302D01*
X176990000Y-116223691D01*
X176990000Y-116664250D01*
X177148750Y-116823000D01*
X177873000Y-116823000D01*
X177873000Y-116803000D01*
X178127000Y-116803000D01*
X178127000Y-116823000D01*
X178851250Y-116823000D01*
X179010000Y-116664250D01*
X179010000Y-116223691D01*
X178913327Y-115990302D01*
X178911957Y-115988932D01*
X178971431Y-115901890D01*
X179022440Y-115650000D01*
X179022440Y-114450000D01*
X184977560Y-114450000D01*
X184977560Y-115650000D01*
X185021838Y-115885317D01*
X185088329Y-115988646D01*
X185086673Y-115990302D01*
X184990000Y-116223691D01*
X184990000Y-116664250D01*
X185148750Y-116823000D01*
X185873000Y-116823000D01*
X185873000Y-116803000D01*
X186127000Y-116803000D01*
X186127000Y-116823000D01*
X186851250Y-116823000D01*
X187010000Y-116664250D01*
X187010000Y-116223691D01*
X186913327Y-115990302D01*
X186911957Y-115988932D01*
X186971431Y-115901890D01*
X187022440Y-115650000D01*
X187022440Y-114450000D01*
X186978162Y-114214683D01*
X186839090Y-113998559D01*
X186760000Y-113944519D01*
X186760000Y-113517634D01*
X186994609Y-113470968D01*
X187447828Y-113168136D01*
X187596803Y-112945179D01*
X187634838Y-113147317D01*
X187773910Y-113363441D01*
X187986110Y-113508431D01*
X188238000Y-113559440D01*
X188240000Y-113559440D01*
X188240000Y-113943156D01*
X188173559Y-113985910D01*
X188028569Y-114198110D01*
X187977560Y-114450000D01*
X187977560Y-115650000D01*
X188021838Y-115885317D01*
X188088329Y-115988646D01*
X188086673Y-115990302D01*
X187990000Y-116223691D01*
X187990000Y-116664250D01*
X188148750Y-116823000D01*
X188873000Y-116823000D01*
X188873000Y-116803000D01*
X189127000Y-116803000D01*
X189127000Y-116823000D01*
X189851250Y-116823000D01*
X190010000Y-116664250D01*
X190010000Y-116223691D01*
X189913327Y-115990302D01*
X189911957Y-115988932D01*
X189971431Y-115901890D01*
X190022440Y-115650000D01*
X190022440Y-114450000D01*
X189978162Y-114214683D01*
X189839090Y-113998559D01*
X189760000Y-113944519D01*
X189760000Y-113559440D01*
X189762000Y-113559440D01*
X189997317Y-113515162D01*
X190213441Y-113376090D01*
X190358431Y-113163890D01*
X190409440Y-112912000D01*
X190409440Y-111088000D01*
X190365162Y-110852683D01*
X190226090Y-110636559D01*
X190013890Y-110491569D01*
X189762000Y-110440560D01*
X188238000Y-110440560D01*
X188002683Y-110484838D01*
X187786559Y-110623910D01*
X187641569Y-110836110D01*
X187597168Y-111055367D01*
X187447828Y-110831864D01*
X186994609Y-110529032D01*
X186460000Y-110422692D01*
X185925391Y-110529032D01*
X185472172Y-110831864D01*
X185169340Y-111285083D01*
X185063000Y-111819692D01*
X185063000Y-112180308D01*
X185169340Y-112714917D01*
X185240000Y-112820667D01*
X185240000Y-113943156D01*
X185173559Y-113985910D01*
X185028569Y-114198110D01*
X184977560Y-114450000D01*
X179022440Y-114450000D01*
X178978162Y-114214683D01*
X178839090Y-113998559D01*
X178760000Y-113944519D01*
X178760000Y-113559440D01*
X178762000Y-113559440D01*
X178997317Y-113515162D01*
X179213441Y-113376090D01*
X179358431Y-113163890D01*
X179409440Y-112912000D01*
X179409440Y-111088000D01*
X179365162Y-110852683D01*
X179226090Y-110636559D01*
X179013890Y-110491569D01*
X178762000Y-110440560D01*
X177238000Y-110440560D01*
X177002683Y-110484838D01*
X176786559Y-110623910D01*
X176641569Y-110836110D01*
X176597168Y-111055367D01*
X176447828Y-110831864D01*
X175994609Y-110529032D01*
X175460000Y-110422692D01*
X174925391Y-110529032D01*
X174472172Y-110831864D01*
X174169340Y-111285083D01*
X174063000Y-111819692D01*
X174063000Y-112180308D01*
X174169340Y-112714917D01*
X174240000Y-112820667D01*
X174240000Y-113943156D01*
X174173559Y-113985910D01*
X174028569Y-114198110D01*
X173977560Y-114450000D01*
X169022440Y-114450000D01*
X168978162Y-114214683D01*
X168839090Y-113998559D01*
X168760000Y-113944519D01*
X168760000Y-113000000D01*
X168702148Y-112709161D01*
X168537401Y-112462599D01*
X168409440Y-112334638D01*
X168409440Y-111088000D01*
X168365162Y-110852683D01*
X168226090Y-110636559D01*
X168013890Y-110491569D01*
X167762000Y-110440560D01*
X166238000Y-110440560D01*
X166002683Y-110484838D01*
X165786559Y-110623910D01*
X165641569Y-110836110D01*
X165597168Y-111055367D01*
X165447828Y-110831864D01*
X164994609Y-110529032D01*
X164460000Y-110422692D01*
X163925391Y-110529032D01*
X163472172Y-110831864D01*
X163169340Y-111285083D01*
X163063000Y-111819692D01*
X163063000Y-112180308D01*
X163169340Y-112714917D01*
X163240000Y-112820667D01*
X163240000Y-113943156D01*
X163173559Y-113985910D01*
X163028569Y-114198110D01*
X162977560Y-114450000D01*
X151960000Y-114450000D01*
X151960000Y-101214802D01*
X152129802Y-101045000D01*
X152181957Y-101045000D01*
X152156977Y-101082386D01*
X152062968Y-101555000D01*
X152156977Y-102027614D01*
X152424691Y-102428277D01*
X152825354Y-102695991D01*
X153297968Y-102790000D01*
X154162032Y-102790000D01*
X154628382Y-102697237D01*
X154602968Y-102825000D01*
X154628382Y-102952763D01*
X154162032Y-102860000D01*
X153297968Y-102860000D01*
X152825354Y-102954009D01*
X152424691Y-103221723D01*
X152156977Y-103622386D01*
X152062968Y-104095000D01*
X152156977Y-104567614D01*
X152424691Y-104968277D01*
X152825354Y-105235991D01*
X153297968Y-105330000D01*
X154162032Y-105330000D01*
X154628382Y-105237237D01*
X154602968Y-105365000D01*
X154628382Y-105492763D01*
X154162032Y-105400000D01*
X153297968Y-105400000D01*
X152825354Y-105494009D01*
X152424691Y-105761723D01*
X152156977Y-106162386D01*
X152062968Y-106635000D01*
X152156977Y-107107614D01*
X152424691Y-107508277D01*
X152825354Y-107775991D01*
X153297968Y-107870000D01*
X154162032Y-107870000D01*
X154628382Y-107777237D01*
X154602968Y-107905000D01*
X154628382Y-108032763D01*
X154162032Y-107940000D01*
X153297968Y-107940000D01*
X152825354Y-108034009D01*
X152424691Y-108301723D01*
X152156977Y-108702386D01*
X152062968Y-109175000D01*
X152156977Y-109647614D01*
X152424691Y-110048277D01*
X152825354Y-110315991D01*
X153297968Y-110410000D01*
X154162032Y-110410000D01*
X154628382Y-110317237D01*
X154602968Y-110445000D01*
X154628382Y-110572763D01*
X154162032Y-110480000D01*
X153297968Y-110480000D01*
X152825354Y-110574009D01*
X152424691Y-110841723D01*
X152156977Y-111242386D01*
X152062968Y-111715000D01*
X152156977Y-112187614D01*
X152424691Y-112588277D01*
X152825354Y-112855991D01*
X153297968Y-112950000D01*
X154162032Y-112950000D01*
X154628382Y-112857237D01*
X154602968Y-112985000D01*
X154696977Y-113457614D01*
X154964691Y-113858277D01*
X155365354Y-114125991D01*
X155837968Y-114220000D01*
X156702032Y-114220000D01*
X157174646Y-114125991D01*
X157575309Y-113858277D01*
X157843023Y-113457614D01*
X157937032Y-112985000D01*
X157843023Y-112512386D01*
X157575309Y-112111723D01*
X157174646Y-111844009D01*
X156702032Y-111750000D01*
X155837968Y-111750000D01*
X155371618Y-111842763D01*
X155397032Y-111715000D01*
X155371618Y-111587237D01*
X155837968Y-111680000D01*
X156702032Y-111680000D01*
X157174646Y-111585991D01*
X157575309Y-111318277D01*
X157843023Y-110917614D01*
X157937032Y-110445000D01*
X157843023Y-109972386D01*
X157575309Y-109571723D01*
X157174646Y-109304009D01*
X156702032Y-109210000D01*
X155837968Y-109210000D01*
X155371618Y-109302763D01*
X155397032Y-109175000D01*
X155371618Y-109047237D01*
X155837968Y-109140000D01*
X156702032Y-109140000D01*
X157174646Y-109045991D01*
X157575309Y-108778277D01*
X157843023Y-108377614D01*
X157937032Y-107905000D01*
X157843023Y-107432386D01*
X157575309Y-107031723D01*
X157174646Y-106764009D01*
X156702032Y-106670000D01*
X155837968Y-106670000D01*
X155371618Y-106762763D01*
X155397032Y-106635000D01*
X155371618Y-106507237D01*
X155837968Y-106600000D01*
X156702032Y-106600000D01*
X157174646Y-106505991D01*
X157575309Y-106238277D01*
X157843023Y-105837614D01*
X157937032Y-105365000D01*
X157843023Y-104892386D01*
X157575309Y-104491723D01*
X157174646Y-104224009D01*
X156702032Y-104130000D01*
X155837968Y-104130000D01*
X155371618Y-104222763D01*
X155397032Y-104095000D01*
X155371618Y-103967237D01*
X155837968Y-104060000D01*
X156702032Y-104060000D01*
X157174646Y-103965991D01*
X157575309Y-103698277D01*
X157843023Y-103297614D01*
X157937032Y-102825000D01*
X157843023Y-102352386D01*
X157575309Y-101951723D01*
X157174646Y-101684009D01*
X156702032Y-101590000D01*
X155837968Y-101590000D01*
X155371618Y-101682763D01*
X155397032Y-101555000D01*
X155371618Y-101427237D01*
X155837968Y-101520000D01*
X156702032Y-101520000D01*
X157174646Y-101425991D01*
X157575309Y-101158277D01*
X157843023Y-100757614D01*
X157937032Y-100285000D01*
X157879423Y-99995379D01*
X158235110Y-99639692D01*
X180803000Y-99639692D01*
X180803000Y-100000308D01*
X180909340Y-100534917D01*
X181212172Y-100988136D01*
X181665391Y-101290968D01*
X182200000Y-101397308D01*
X182734609Y-101290968D01*
X183187828Y-100988136D01*
X183490660Y-100534917D01*
X183564044Y-100165985D01*
X187215571Y-100165985D01*
X187395955Y-100680865D01*
X187759644Y-101087522D01*
X188251269Y-101324046D01*
X188256930Y-101324220D01*
X188473000Y-101201720D01*
X188473000Y-99947000D01*
X188727000Y-99947000D01*
X188727000Y-101201720D01*
X188943070Y-101324220D01*
X188948731Y-101324046D01*
X189440356Y-101087522D01*
X189804045Y-100680865D01*
X189984429Y-100165985D01*
X189839293Y-99947000D01*
X188727000Y-99947000D01*
X188473000Y-99947000D01*
X187360707Y-99947000D01*
X187215571Y-100165985D01*
X183564044Y-100165985D01*
X183597000Y-100000308D01*
X183597000Y-99639692D01*
X183564045Y-99474015D01*
X187215571Y-99474015D01*
X187360707Y-99693000D01*
X188473000Y-99693000D01*
X188473000Y-98438280D01*
X188727000Y-98438280D01*
X188727000Y-99693000D01*
X189839293Y-99693000D01*
X189984429Y-99474015D01*
X189804045Y-98959135D01*
X189440356Y-98552478D01*
X188948731Y-98315954D01*
X188943070Y-98315780D01*
X188727000Y-98438280D01*
X188473000Y-98438280D01*
X188256930Y-98315780D01*
X188251269Y-98315954D01*
X187759644Y-98552478D01*
X187395955Y-98959135D01*
X187215571Y-99474015D01*
X183564045Y-99474015D01*
X183490660Y-99105083D01*
X183187828Y-98651864D01*
X182734609Y-98349032D01*
X182200000Y-98242692D01*
X181665391Y-98349032D01*
X181212172Y-98651864D01*
X180909340Y-99105083D01*
X180803000Y-99639692D01*
X158235110Y-99639692D01*
X159139680Y-98735122D01*
X159185167Y-98735162D01*
X159528943Y-98593117D01*
X159792192Y-98330327D01*
X159934838Y-97986799D01*
X159935162Y-97614833D01*
X159793117Y-97271057D01*
X159530327Y-97007808D01*
X159186799Y-96865162D01*
X158814833Y-96864838D01*
X158471057Y-97006883D01*
X158207808Y-97269673D01*
X158065162Y-97613201D01*
X158065121Y-97660077D01*
X156675198Y-99050000D01*
X156393224Y-99050000D01*
X156424943Y-99036894D01*
X156885278Y-98577363D01*
X157134716Y-97976648D01*
X157135284Y-97326205D01*
X156886894Y-96725057D01*
X156427363Y-96264722D01*
X155826648Y-96015284D01*
X155176205Y-96014716D01*
X154575057Y-96263106D01*
X154114722Y-96722637D01*
X153865284Y-97323352D01*
X153864885Y-97780000D01*
X153857000Y-97780000D01*
X153857000Y-98888000D01*
X153877000Y-98888000D01*
X153877000Y-99142000D01*
X153857000Y-99142000D01*
X153857000Y-99162000D01*
X153603000Y-99162000D01*
X153603000Y-99142000D01*
X152261269Y-99142000D01*
X152136538Y-99332609D01*
X152140408Y-99370281D01*
X152222254Y-99525000D01*
X151815000Y-99525000D01*
X151524160Y-99582852D01*
X151277599Y-99747599D01*
X151127000Y-99898198D01*
X151127000Y-98697391D01*
X152136538Y-98697391D01*
X152261269Y-98888000D01*
X153603000Y-98888000D01*
X153603000Y-97780000D01*
X153203000Y-97780000D01*
X152740053Y-97922610D01*
X152366920Y-98231526D01*
X152140408Y-98659719D01*
X152136538Y-98697391D01*
X151127000Y-98697391D01*
X151127000Y-92325000D01*
X152677560Y-92325000D01*
X152677560Y-93675000D01*
X152721838Y-93910317D01*
X152860910Y-94126441D01*
X153073110Y-94271431D01*
X153325000Y-94322440D01*
X154675000Y-94322440D01*
X154910317Y-94278162D01*
X155126441Y-94139090D01*
X155191316Y-94044142D01*
X155256976Y-94109916D01*
X155738282Y-94309772D01*
X156259432Y-94310226D01*
X156741086Y-94111211D01*
X157109916Y-93743024D01*
X157309772Y-93261718D01*
X157310226Y-92740568D01*
X157204938Y-92485750D01*
X180803000Y-92485750D01*
X180803000Y-93238310D01*
X180899673Y-93471699D01*
X181078302Y-93650327D01*
X181311691Y-93747000D01*
X181914250Y-93747000D01*
X182073000Y-93588250D01*
X182073000Y-92327000D01*
X182327000Y-92327000D01*
X182327000Y-93588250D01*
X182485750Y-93747000D01*
X183088309Y-93747000D01*
X183321698Y-93650327D01*
X183500327Y-93471699D01*
X183597000Y-93238310D01*
X183597000Y-92485750D01*
X183438250Y-92327000D01*
X182327000Y-92327000D01*
X182073000Y-92327000D01*
X180961750Y-92327000D01*
X180803000Y-92485750D01*
X157204938Y-92485750D01*
X157111211Y-92258914D01*
X156743024Y-91890084D01*
X156261718Y-91690228D01*
X155740568Y-91689774D01*
X155258914Y-91888789D01*
X155191923Y-91955663D01*
X155139090Y-91873559D01*
X154926890Y-91728569D01*
X154675000Y-91677560D01*
X153325000Y-91677560D01*
X153089683Y-91721838D01*
X152873559Y-91860910D01*
X152728569Y-92073110D01*
X152677560Y-92325000D01*
X151127000Y-92325000D01*
X151127000Y-91161690D01*
X180803000Y-91161690D01*
X180803000Y-91914250D01*
X180961750Y-92073000D01*
X182073000Y-92073000D01*
X182073000Y-90811750D01*
X182327000Y-90811750D01*
X182327000Y-92073000D01*
X183438250Y-92073000D01*
X183597000Y-91914250D01*
X183597000Y-91288000D01*
X187190560Y-91288000D01*
X187190560Y-93112000D01*
X187234838Y-93347317D01*
X187373910Y-93563441D01*
X187586110Y-93708431D01*
X187838000Y-93759440D01*
X189362000Y-93759440D01*
X189597317Y-93715162D01*
X189813441Y-93576090D01*
X189958431Y-93363890D01*
X190009440Y-93112000D01*
X190009440Y-91288000D01*
X189965162Y-91052683D01*
X189826090Y-90836559D01*
X189613890Y-90691569D01*
X189362000Y-90640560D01*
X187838000Y-90640560D01*
X187602683Y-90684838D01*
X187386559Y-90823910D01*
X187241569Y-91036110D01*
X187190560Y-91288000D01*
X183597000Y-91288000D01*
X183597000Y-91161690D01*
X183500327Y-90928301D01*
X183321698Y-90749673D01*
X183088309Y-90653000D01*
X182485750Y-90653000D01*
X182327000Y-90811750D01*
X182073000Y-90811750D01*
X181914250Y-90653000D01*
X181311691Y-90653000D01*
X181078302Y-90749673D01*
X180899673Y-90928301D01*
X180803000Y-91161690D01*
X151127000Y-91161690D01*
X151127000Y-90626406D01*
X204123000Y-90377598D01*
X204123000Y-99682032D01*
X199679553Y-102644330D01*
X199643992Y-102680063D01*
X199623000Y-102750000D01*
X199623000Y-107750000D01*
X199633006Y-107799410D01*
X199650320Y-107828695D01*
X203400320Y-112578695D01*
X203438790Y-112611276D01*
X203500000Y-112627000D01*
X209336554Y-112627000D01*
X208746771Y-112870694D01*
X208272360Y-113344278D01*
X208015293Y-113963362D01*
X208014708Y-114633697D01*
X208270694Y-115253229D01*
X208744278Y-115727640D01*
X209363362Y-115984707D01*
X210033697Y-115985292D01*
X210653229Y-115729306D01*
X211127640Y-115255722D01*
X211384707Y-114636638D01*
X211385292Y-113966303D01*
X211129306Y-113346771D01*
X210655722Y-112872360D01*
X210064831Y-112627000D01*
X212250000Y-112627000D01*
X212299410Y-112616994D01*
X212341035Y-112588553D01*
X212368315Y-112546159D01*
X212377000Y-112500000D01*
X212377000Y-99500000D01*
X212366994Y-99450590D01*
X212338553Y-99408965D01*
X212296159Y-99381685D01*
X212250000Y-99373000D01*
X205377000Y-99373000D01*
X205377000Y-97984187D01*
X208264752Y-97984187D01*
X208482757Y-98511800D01*
X208886077Y-98915824D01*
X209413309Y-99134750D01*
X209984187Y-99135248D01*
X210511800Y-98917243D01*
X210915824Y-98513923D01*
X211134750Y-97986691D01*
X211135248Y-97415813D01*
X210917243Y-96888200D01*
X210513923Y-96484176D01*
X209986691Y-96265250D01*
X209415813Y-96264752D01*
X208888200Y-96482757D01*
X208484176Y-96886077D01*
X208265250Y-97413309D01*
X208264752Y-97984187D01*
X205377000Y-97984187D01*
X205377000Y-90127000D01*
X216290000Y-90127000D01*
X216290000Y-122123000D01*
M02*
