G04 #@! TF.FileFunction,Soldermask,Top*
%FSLAX46Y46*%
G04 Gerber Fmt 4.6, Leading zero omitted, Abs format (unit mm)*
G04 Created by KiCad (PCBNEW 4.0.4+e1-6308~48~ubuntu14.04.1-stable) date Sun Oct 16 10:35:48 2016*
%MOMM*%
%LPD*%
G01*
G04 APERTURE LIST*
%ADD10C,0.100000*%
%ADD11R,1.150000X1.600000*%
%ADD12R,1.600000X1.150000*%
%ADD13R,1.750000X1.750000*%
%ADD14C,1.750000*%
%ADD15O,2.400000X1.600000*%
%ADD16C,2.400000*%
%ADD17R,1.924000X2.224000*%
%ADD18O,1.924000X2.224000*%
%ADD19R,2.900000X1.000000*%
%ADD20R,2.900000X0.670000*%
%ADD21R,4.464000X4.464000*%
%ADD22C,2.500000*%
%ADD23R,9.400000X4.850000*%
%ADD24R,2.500000X1.600000*%
%ADD25C,2.000000*%
%ADD26R,2.000000X2.400000*%
%ADD27C,3.400000*%
G04 APERTURE END LIST*
D10*
D11*
X172200000Y-102150000D03*
X172200000Y-100250000D03*
X175000000Y-102150000D03*
X175000000Y-100250000D03*
D12*
X204350000Y-111200000D03*
X202450000Y-111200000D03*
D11*
X169400000Y-102150000D03*
X169400000Y-100250000D03*
D12*
X193950000Y-107000000D03*
X192050000Y-107000000D03*
X193950000Y-105000000D03*
X192050000Y-105000000D03*
X164650000Y-102200000D03*
X166550000Y-102200000D03*
D13*
X154000000Y-93000000D03*
D14*
X156000000Y-93000000D03*
D15*
X153730000Y-99015000D03*
X156270000Y-100285000D03*
X153730000Y-101555000D03*
X156270000Y-102825000D03*
X153730000Y-104095000D03*
X156270000Y-105365000D03*
X153730000Y-106635000D03*
X156270000Y-107905000D03*
X153730000Y-109175000D03*
X156270000Y-110445000D03*
X153730000Y-111715000D03*
X156270000Y-112985000D03*
D16*
X155500000Y-97650000D03*
D12*
X162950000Y-92000000D03*
X161050000Y-92000000D03*
D11*
X177800000Y-94550000D03*
X177800000Y-92650000D03*
X184600000Y-106850000D03*
X184600000Y-108750000D03*
X187600000Y-106850000D03*
X187600000Y-108750000D03*
D17*
X188600000Y-92200000D03*
D18*
X188600000Y-99820000D03*
D17*
X182200000Y-92200000D03*
D18*
X182200000Y-99820000D03*
D19*
X172600000Y-91965000D03*
X167400000Y-91965000D03*
X172600000Y-93235000D03*
X167400000Y-93235000D03*
D20*
X197750000Y-106000000D03*
X202250000Y-106000000D03*
X197750000Y-105500000D03*
X202250000Y-105500000D03*
X197750000Y-105000000D03*
X202250000Y-105000000D03*
X197750000Y-104500000D03*
X202250000Y-104500000D03*
X197750000Y-104000000D03*
X202250000Y-104000000D03*
D21*
X195000000Y-117500000D03*
X195000000Y-95000000D03*
D17*
X167000000Y-112000000D03*
D18*
X167000000Y-119620000D03*
X164460000Y-112000000D03*
X164460000Y-119620000D03*
D17*
X178000000Y-112000000D03*
D18*
X178000000Y-119620000D03*
X175460000Y-112000000D03*
X175460000Y-119620000D03*
D17*
X189000000Y-112000000D03*
D18*
X189000000Y-119620000D03*
X186460000Y-112000000D03*
X186460000Y-119620000D03*
D22*
X209700000Y-114300000D03*
D23*
X210100000Y-118775000D03*
D24*
X213300000Y-111480000D03*
X209900000Y-110110000D03*
X213300000Y-108740000D03*
X209900000Y-107370000D03*
X213300000Y-106000000D03*
X209900000Y-104630000D03*
X213300000Y-103260000D03*
X209900000Y-101890000D03*
X213300000Y-100520000D03*
D23*
X210100000Y-93225000D03*
D25*
X209700000Y-97700000D03*
D26*
X161800000Y-102000000D03*
X161800000Y-98000000D03*
D27*
X155400000Y-119900000D03*
M02*
