; NON-PLATED HOLES START AT T1
; THROUGH (PLATED) HOLES START AT T100
M48
INCH
T1C0.039370
T100C0.063071
T101C0.015748
T102C0.038417
T103C0.043307
T104C0.062677
T105C0.035000
T106C0.065055
T107C0.038445
%
T1
X019638Y014748
X019874Y018174
X016725Y018174
X016725Y015221
X019874Y015221
X017709Y017307
X016725Y017583
X016961Y014709
X019874Y017583
X018300Y014512
X018260Y017307
X018851Y017307
X019874Y016992
X016725Y016992
X019126Y014591
X016725Y016402
X019874Y016402
X019874Y015811
X016725Y015811
X017512Y014551
T100
X022221Y003591
X024221Y015402
X023213Y016410
X023213Y004599
X024221Y009528
X022221Y013465
X022221Y005591
X024221Y011465
X023213Y012473
X024221Y017402
X024221Y003591
X022221Y007528
X024221Y013465
X022221Y015402
X024221Y005591
X022221Y009528
X024221Y007528
X023213Y008536
X022221Y011465
X022221Y017402
T101
X021725Y003114
X020996Y009394
X014953Y010890
X020325Y009177
X018693Y015418
X018693Y008922
X018890Y007544
X017910Y008727
X017906Y015418
X019389Y011255
X019246Y009471
X021311Y015634
X021784Y012150
X015859Y008469
T102
X016023Y001115
X017022Y001115
X020023Y001115
X018023Y001115
X011023Y001115
X012023Y001115
X021023Y001115
X013023Y001115
X014023Y001115
X022022Y001115
X015023Y001115
X023023Y001115
X024023Y001115
X025023Y001115
T103
X007473Y015614
X009441Y015614
X011410Y015614
X013378Y015614
X005504Y015614
T104
X022223Y009526
X022223Y017400
X022223Y005589
X022223Y013463
T105
X004914Y005772
X007473Y005772
X004914Y007544
X007473Y007544
T106
X007473Y000654
T107
X011423Y020115
X009422Y020115
X012423Y020115
X020023Y020115
X018023Y020115
X019023Y020115
X013423Y020115
X014423Y020115
X021023Y020115
X022022Y020115
X015423Y020115
X016422Y020115
X023023Y020115
X024023Y020115
X007422Y020115
X025023Y020115
X008422Y020115
X010423Y020115
T00
M30
