G04 MADE WITH FRITZING*
G04 WWW.FRITZING.ORG*
G04 DOUBLE SIDED*
G04 HOLES PLATED*
G04 CONTOUR ON CENTER OF CONTOUR VECTOR*
%ASAXBY*%
%FSLAX23Y23*%
%MOIN*%
%OFA0B0*%
%SFA1.0B1.0*%
%ADD10C,0.083071*%
%ADD11R,0.062992X0.074803*%
%ADD12R,0.078740X0.047244*%
%ADD13R,0.001000X0.001000*%
%LNPASTEMASK1*%
G90*
G70*
G54D10*
X1565Y377D03*
X1765Y377D03*
X1765Y577D03*
X1565Y377D03*
X1765Y377D03*
X1765Y577D03*
X1565Y771D03*
X1765Y771D03*
X1765Y971D03*
X1565Y771D03*
X1765Y771D03*
X1765Y971D03*
X1565Y1558D03*
X1765Y1558D03*
X1765Y1758D03*
X1565Y1558D03*
X1765Y1558D03*
X1765Y1758D03*
X1565Y1164D03*
X1765Y1164D03*
X1765Y1364D03*
X1565Y1164D03*
X1765Y1164D03*
X1765Y1364D03*
G54D11*
X1114Y1815D03*
X1236Y1815D03*
X1035Y516D03*
X1157Y516D03*
G54D12*
X1043Y398D03*
X1153Y398D03*
G54D11*
X1035Y792D03*
X1157Y792D03*
X1035Y674D03*
X1157Y674D03*
G36*
X1134Y1690D02*
X1094Y1690D01*
X1094Y1705D01*
X1134Y1705D01*
X1134Y1690D01*
G37*
D02*
G36*
X1134Y1650D02*
X1094Y1650D01*
X1094Y1666D01*
X1134Y1666D01*
X1134Y1650D01*
G37*
D02*
G36*
X1134Y1611D02*
X1094Y1611D01*
X1094Y1627D01*
X1134Y1627D01*
X1134Y1611D01*
G37*
D02*
G36*
X1256Y1612D02*
X1216Y1612D01*
X1216Y1628D01*
X1256Y1628D01*
X1256Y1612D01*
G37*
D02*
G36*
X1256Y1650D02*
X1216Y1650D01*
X1216Y1666D01*
X1256Y1666D01*
X1256Y1650D01*
G37*
D02*
G36*
X1256Y1690D02*
X1216Y1690D01*
X1216Y1705D01*
X1256Y1705D01*
X1256Y1690D01*
G37*
D02*
G36*
X1204Y1611D02*
X1145Y1611D01*
X1145Y1705D01*
X1204Y1705D01*
X1204Y1611D01*
G37*
D02*
G36*
X1149Y1029D02*
X1267Y1029D01*
X1267Y1019D01*
X1149Y1019D01*
X1149Y1029D01*
G37*
D02*
G36*
X1149Y1049D02*
X1267Y1049D01*
X1267Y1039D01*
X1149Y1039D01*
X1149Y1049D01*
G37*
D02*
G36*
X1149Y1068D02*
X1267Y1068D01*
X1267Y1059D01*
X1149Y1059D01*
X1149Y1068D01*
G37*
D02*
G36*
X1149Y1088D02*
X1267Y1088D01*
X1267Y1078D01*
X1149Y1078D01*
X1149Y1088D01*
G37*
D02*
G36*
X1149Y1108D02*
X1267Y1108D01*
X1267Y1098D01*
X1149Y1098D01*
X1149Y1108D01*
G37*
D02*
G36*
X953Y1108D02*
X1071Y1108D01*
X1071Y1098D01*
X953Y1098D01*
X953Y1108D01*
G37*
D02*
G36*
X953Y1088D02*
X1071Y1088D01*
X1071Y1078D01*
X953Y1078D01*
X953Y1088D01*
G37*
D02*
G36*
X953Y1068D02*
X1071Y1068D01*
X1071Y1059D01*
X953Y1059D01*
X953Y1068D01*
G37*
D02*
G36*
X953Y1049D02*
X1071Y1049D01*
X1071Y1039D01*
X953Y1039D01*
X953Y1049D01*
G37*
D02*
G36*
X953Y1029D02*
X1071Y1029D01*
X1071Y1019D01*
X953Y1019D01*
X953Y1029D01*
G37*
D02*
G36*
X876Y957D02*
X801Y957D01*
X801Y1020D01*
X876Y1020D01*
X876Y957D01*
G37*
D02*
G36*
X876Y835D02*
X801Y835D01*
X801Y898D01*
X876Y898D01*
X876Y835D01*
G37*
D02*
G54D13*
D02*
G04 End of PasteMask1*
M02*