; NON-PLATED HOLES START AT T1
; THROUGH (PLATED) HOLES START AT T100
M48
INCH
T1C0.039370
T100C0.038445
T101C0.059055
T102C0.063071
T103C0.015748
T104C0.038000
T105C0.038417
T106C0.040000
T107C0.062677
T108C0.035000
%
T1
X013304Y018351
X010391Y014887
X013304Y015399
X010155Y015399
X012281Y017485
X013304Y017761
X010155Y017761
X012556Y014769
X013068Y014926
X011139Y017485
X010154Y018351
X011729Y014690
X010942Y014729
X013304Y017170
X010155Y017170
X013304Y015989
X010155Y015989
X011690Y017485
X013304Y016580
X010155Y016580
T100
X006852Y020292
X007852Y020292
X014452Y020292
X000852Y020292
X015452Y020292
X016453Y020292
X008852Y020292
X001852Y020292
X009852Y020292
X002852Y020292
X017452Y020292
X018452Y020292
X011452Y020292
X003852Y020292
X004852Y020292
X005852Y020292
X012452Y020292
X013452Y020292
T101
X000902Y000832
T102
X017650Y003769
X017650Y009706
X015650Y013643
X015650Y017580
X017650Y011643
X017650Y015580
X017650Y005769
X016643Y008714
X015650Y007706
X017650Y013643
X016643Y016588
X017650Y017580
X016643Y004777
X015650Y003769
X015650Y009706
X017650Y007706
X016643Y012651
X015650Y011643
X015650Y015580
X015650Y005769
T103
X011336Y015595
X014426Y009572
X014741Y015812
X012320Y007721
X012675Y009648
X008383Y011068
X013755Y009354
X012123Y009099
X009288Y008647
X015214Y012328
X012123Y015595
X012819Y011433
X011340Y008905
X015155Y003292
T104
X006776Y017761
X005776Y017761
X004776Y017761
X001902Y017958
X000902Y017958
X008776Y017761
X007776Y017761
T105
X004452Y001292
X005452Y001292
X014452Y001292
X015452Y001292
X016453Y001292
X006452Y001292
X007452Y001292
X008452Y001292
X017452Y001292
X010452Y001292
X018452Y001292
X011452Y001292
X009452Y001292
X013452Y001292
T106
X006906Y004867
X004151Y004867
X002773Y004867
X005528Y004867
X001395Y004867
T107
X015652Y009704
X015652Y005767
X015652Y013641
X015652Y017578
T108
X003461Y010084
X003461Y008312
X006021Y010084
X006021Y008312
T00
M30
