G04 MADE WITH FRITZING*
G04 WWW.FRITZING.ORG*
G04 DOUBLE SIDED*
G04 HOLES PLATED*
G04 CONTOUR ON CENTER OF CONTOUR VECTOR*
%ASAXBY*%
%FSLAX23Y23*%
%MOIN*%
%OFA0B0*%
%SFA1.0B1.0*%
%ADD10C,0.075000*%
%ADD11C,0.069055*%
%ADD12C,0.039370*%
%ADD13C,0.083307*%
%ADD14C,0.082677*%
%ADD15C,0.083071*%
%ADD16C,0.066194*%
%ADD17C,0.066222*%
%ADD18R,0.062992X0.074803*%
%ADD19R,0.078740X0.047244*%
%ADD20C,0.008000*%
%ADD21C,0.012000*%
%ADD22C,0.024000*%
%ADD23C,0.016000*%
%ADD24C,0.020000*%
%ADD25R,0.001000X0.001000*%
%LNCOPPER1*%
G90*
G70*
G54D10*
X132Y2012D03*
X1853Y248D03*
X1493Y292D03*
G54D11*
X747Y65D03*
G54D12*
X1791Y873D03*
X1791Y1542D03*
X1869Y892D03*
X1869Y1542D03*
G54D13*
X1338Y1561D03*
X1141Y1561D03*
X944Y1561D03*
X747Y1561D03*
X550Y1561D03*
G54D12*
X1925Y947D03*
X2033Y918D03*
X2100Y939D03*
X1939Y1126D03*
X2131Y1563D03*
X2178Y1215D03*
X2173Y311D03*
X1495Y1089D03*
X1586Y847D03*
X1889Y754D03*
G54D10*
X747Y577D03*
X491Y577D03*
X747Y754D03*
X491Y754D03*
G54D14*
X2222Y559D03*
G54D15*
X2321Y460D03*
X2222Y359D03*
X2222Y559D03*
X2422Y359D03*
X2422Y559D03*
G54D14*
X2222Y559D03*
G54D15*
X2321Y460D03*
X2222Y359D03*
X2222Y559D03*
X2422Y359D03*
X2422Y559D03*
G54D14*
X2222Y953D03*
G54D15*
X2321Y854D03*
X2222Y753D03*
X2222Y953D03*
X2422Y753D03*
X2422Y953D03*
G54D14*
X2222Y953D03*
G54D15*
X2321Y854D03*
X2222Y753D03*
X2222Y953D03*
X2422Y753D03*
X2422Y953D03*
G54D14*
X2222Y1740D03*
G54D15*
X2321Y1641D03*
X2222Y1540D03*
X2222Y1740D03*
X2422Y1540D03*
X2422Y1740D03*
G54D14*
X2222Y1740D03*
G54D15*
X2321Y1641D03*
X2222Y1540D03*
X2222Y1740D03*
X2422Y1540D03*
X2422Y1740D03*
G54D16*
X2102Y112D03*
X2202Y112D03*
X2302Y112D03*
X2402Y112D03*
X2502Y112D03*
G54D17*
X1642Y2012D03*
X1542Y2012D03*
X1442Y2012D03*
X1342Y2012D03*
X1242Y2012D03*
X1142Y2012D03*
X1042Y2012D03*
X942Y2012D03*
X842Y2012D03*
X742Y2012D03*
X2502Y2012D03*
X2402Y2012D03*
X2302Y2012D03*
X2202Y2012D03*
X2102Y2012D03*
X2002Y2012D03*
X1902Y2012D03*
X1802Y2012D03*
G54D16*
X1202Y112D03*
X1102Y112D03*
X1302Y112D03*
X1402Y112D03*
X1502Y112D03*
X1602Y112D03*
X1702Y112D03*
X1802Y112D03*
X2002Y112D03*
G54D14*
X2222Y1346D03*
G54D15*
X2321Y1247D03*
X2222Y1147D03*
X2222Y1347D03*
X2422Y1147D03*
X2422Y1347D03*
G54D14*
X2222Y1346D03*
G54D15*
X2321Y1247D03*
X2222Y1147D03*
X2222Y1347D03*
X2422Y1147D03*
X2422Y1347D03*
G54D18*
X1771Y1798D03*
X1893Y1798D03*
X1692Y499D03*
X1814Y499D03*
G54D19*
X1700Y380D03*
X1810Y380D03*
G54D18*
X1692Y774D03*
X1814Y774D03*
X1692Y656D03*
X1814Y656D03*
G54D20*
X1534Y1040D02*
X1653Y1045D01*
G54D21*
D02*
X1790Y1406D02*
X1790Y1482D01*
D02*
X1790Y1482D02*
X1731Y1522D01*
D02*
X1731Y1522D02*
X1731Y1640D01*
D02*
X1731Y1640D02*
X1757Y1640D01*
D02*
X1376Y1404D02*
X1790Y1406D01*
D02*
X1376Y931D02*
X1376Y1404D01*
D02*
X1464Y871D02*
X1376Y931D01*
G54D20*
D02*
X1510Y997D02*
X1534Y1040D01*
G54D21*
D02*
X1574Y773D02*
X1522Y823D01*
D02*
X1666Y774D02*
X1574Y773D01*
D02*
X1929Y1739D02*
X1929Y1640D01*
D02*
X1731Y1640D02*
X1757Y1640D01*
D02*
X1750Y1766D02*
X1731Y1739D01*
D02*
X1731Y1739D02*
X1731Y1640D01*
D02*
X1912Y1766D02*
X1929Y1739D01*
D02*
X1929Y1640D02*
X1907Y1640D01*
D02*
X1870Y1483D02*
X1870Y1306D01*
D02*
X1929Y1523D02*
X1870Y1483D01*
D02*
X1771Y1561D02*
X1781Y1551D01*
D02*
X1889Y1561D02*
X1879Y1551D01*
D02*
X1893Y1600D02*
X1889Y1561D01*
D02*
X1870Y1306D02*
X1475Y1305D01*
D02*
X1475Y1305D02*
X1494Y1102D01*
D02*
X1929Y1640D02*
X1929Y1523D01*
D02*
X1771Y1599D02*
X1771Y1561D01*
G54D20*
D02*
X1964Y1086D02*
X1919Y1085D01*
D02*
X1964Y1023D02*
X1889Y1025D01*
D02*
X1991Y1046D02*
X1919Y1046D01*
D02*
X2116Y1636D02*
X1964Y1086D01*
D02*
X2111Y851D02*
X1991Y1046D01*
D02*
X2284Y853D02*
X2111Y851D01*
D02*
X2284Y460D02*
X2114Y461D01*
D02*
X2114Y461D02*
X1964Y1023D01*
G54D21*
D02*
X2186Y949D02*
X2113Y941D01*
G54D20*
D02*
X1988Y1067D02*
X1904Y1066D01*
D02*
X2284Y1247D02*
X2119Y1246D01*
D02*
X2119Y1246D02*
X1988Y1067D01*
D02*
X2284Y1640D02*
X2116Y1636D01*
D02*
X1919Y1006D02*
X1865Y1006D01*
G54D21*
D02*
X2113Y1279D02*
X2191Y1327D01*
D02*
X1987Y1107D02*
X2113Y1279D01*
D02*
X2127Y1551D02*
X1987Y1107D01*
D02*
X2093Y1671D02*
X1943Y1139D01*
D02*
X2190Y1723D02*
X2093Y1671D01*
G54D20*
D02*
X1923Y960D02*
X1919Y1006D01*
G54D21*
D02*
X2126Y1211D02*
X2030Y1057D01*
D02*
X2030Y1057D02*
X2093Y951D01*
D02*
X2165Y1214D02*
X2126Y1211D01*
D02*
X2041Y897D02*
X1989Y1007D01*
D02*
X2052Y807D02*
X2178Y810D01*
D02*
X2052Y806D02*
X2041Y897D01*
D02*
X2178Y810D02*
X2052Y806D01*
D02*
X1989Y1007D02*
X2027Y930D01*
D02*
X2142Y552D02*
X2052Y807D01*
D02*
X2186Y556D02*
X2142Y552D01*
G54D22*
D02*
X1699Y398D02*
X1694Y467D01*
G54D21*
D02*
X1402Y136D02*
X1397Y381D01*
D02*
X1397Y381D02*
X1666Y380D01*
D02*
X2073Y409D02*
X1928Y934D01*
D02*
X2163Y321D02*
X2073Y409D01*
G54D22*
D02*
X1811Y398D02*
X1813Y467D01*
D02*
X1779Y277D02*
X1697Y243D01*
D02*
X1697Y243D02*
X1701Y142D01*
D02*
X1805Y362D02*
X1779Y277D01*
G54D20*
D02*
X1968Y656D02*
X1952Y652D01*
G54D21*
D02*
X1968Y656D02*
X1968Y656D01*
D02*
X1968Y656D02*
X1968Y183D01*
D02*
X2401Y183D02*
X2402Y136D01*
D02*
X1968Y183D02*
X2401Y183D01*
D02*
X1840Y656D02*
X1968Y656D01*
G54D20*
D02*
X1952Y652D02*
X1840Y655D01*
D02*
X1637Y952D02*
X1856Y896D01*
D02*
X1631Y1007D02*
X1637Y952D01*
D02*
X1578Y914D02*
X1778Y875D01*
D02*
X1669Y1006D02*
X1631Y1007D01*
D02*
X1928Y813D02*
X1968Y656D01*
D02*
X1877Y881D02*
X1928Y813D01*
D02*
X1578Y1026D02*
X1578Y914D01*
G54D22*
D02*
X1692Y624D02*
X1692Y530D01*
D02*
X1692Y688D02*
X1692Y742D01*
G54D20*
D02*
X1582Y1067D02*
X1508Y1086D01*
G54D23*
D02*
X1747Y843D02*
X1749Y553D01*
D02*
X1599Y847D02*
X1747Y843D01*
G54D20*
D02*
X1615Y1026D02*
X1578Y1026D01*
D02*
X1794Y860D02*
X1807Y806D01*
D02*
X1642Y1066D02*
X1582Y1067D01*
G54D23*
D02*
X1749Y553D02*
X1788Y520D01*
G54D21*
D02*
X1840Y767D02*
X1876Y758D01*
D02*
X1299Y301D02*
X549Y341D01*
D02*
X1298Y184D02*
X1299Y301D01*
D02*
X549Y341D02*
X497Y555D01*
D02*
X1301Y136D02*
X1298Y184D01*
G36*
X76Y2059D02*
X76Y2057D01*
X70Y2057D01*
X70Y2055D01*
X68Y2055D01*
X68Y2053D01*
X64Y2053D01*
X64Y2051D01*
X62Y2051D01*
X62Y2049D01*
X60Y2049D01*
X60Y2047D01*
X58Y2047D01*
X58Y2043D01*
X56Y2043D01*
X56Y2041D01*
X54Y2041D01*
X54Y2035D01*
X52Y2035D01*
X52Y1963D01*
X742Y1963D01*
X742Y1965D01*
X730Y1965D01*
X730Y1967D01*
X726Y1967D01*
X726Y1969D01*
X722Y1969D01*
X722Y1971D01*
X718Y1971D01*
X718Y1973D01*
X716Y1973D01*
X716Y1975D01*
X714Y1975D01*
X714Y1977D01*
X712Y1977D01*
X712Y1979D01*
X710Y1979D01*
X710Y1981D01*
X708Y1981D01*
X708Y1983D01*
X706Y1983D01*
X706Y1985D01*
X704Y1985D01*
X704Y1987D01*
X702Y1987D01*
X702Y1991D01*
X700Y1991D01*
X700Y1995D01*
X698Y1995D01*
X698Y2001D01*
X696Y2001D01*
X696Y2021D01*
X698Y2021D01*
X698Y2027D01*
X700Y2027D01*
X700Y2031D01*
X702Y2031D01*
X702Y2035D01*
X704Y2035D01*
X704Y2037D01*
X706Y2037D01*
X706Y2039D01*
X708Y2039D01*
X708Y2059D01*
X76Y2059D01*
G37*
D02*
G36*
X1678Y2059D02*
X1678Y2037D01*
X1680Y2037D01*
X1680Y2035D01*
X1682Y2035D01*
X1682Y2033D01*
X1684Y2033D01*
X1684Y2029D01*
X1686Y2029D01*
X1686Y2023D01*
X1688Y2023D01*
X1688Y2015D01*
X1690Y2015D01*
X1690Y2007D01*
X1688Y2007D01*
X1688Y1999D01*
X1686Y1999D01*
X1686Y1993D01*
X1684Y1993D01*
X1684Y1991D01*
X1682Y1991D01*
X1682Y1987D01*
X1680Y1987D01*
X1680Y1985D01*
X1678Y1985D01*
X1678Y1981D01*
X1676Y1981D01*
X1676Y1979D01*
X1674Y1979D01*
X1674Y1977D01*
X1672Y1977D01*
X1672Y1975D01*
X1668Y1975D01*
X1668Y1973D01*
X1666Y1973D01*
X1666Y1971D01*
X1662Y1971D01*
X1662Y1969D01*
X1660Y1969D01*
X1660Y1967D01*
X1654Y1967D01*
X1654Y1965D01*
X1644Y1965D01*
X1644Y1963D01*
X1802Y1963D01*
X1802Y1965D01*
X1790Y1965D01*
X1790Y1967D01*
X1786Y1967D01*
X1786Y1969D01*
X1782Y1969D01*
X1782Y1971D01*
X1778Y1971D01*
X1778Y1973D01*
X1776Y1973D01*
X1776Y1975D01*
X1774Y1975D01*
X1774Y1977D01*
X1772Y1977D01*
X1772Y1979D01*
X1770Y1979D01*
X1770Y1981D01*
X1768Y1981D01*
X1768Y1983D01*
X1766Y1983D01*
X1766Y1985D01*
X1764Y1985D01*
X1764Y1987D01*
X1762Y1987D01*
X1762Y1991D01*
X1760Y1991D01*
X1760Y1995D01*
X1758Y1995D01*
X1758Y2001D01*
X1756Y2001D01*
X1756Y2021D01*
X1758Y2021D01*
X1758Y2027D01*
X1760Y2027D01*
X1760Y2031D01*
X1762Y2031D01*
X1762Y2035D01*
X1764Y2035D01*
X1764Y2037D01*
X1766Y2037D01*
X1766Y2039D01*
X1768Y2039D01*
X1768Y2059D01*
X1678Y2059D01*
G37*
D02*
G36*
X782Y1991D02*
X782Y1987D01*
X780Y1987D01*
X780Y1985D01*
X778Y1985D01*
X778Y1981D01*
X776Y1981D01*
X776Y1979D01*
X774Y1979D01*
X774Y1977D01*
X772Y1977D01*
X772Y1975D01*
X768Y1975D01*
X768Y1973D01*
X766Y1973D01*
X766Y1971D01*
X762Y1971D01*
X762Y1969D01*
X760Y1969D01*
X760Y1967D01*
X754Y1967D01*
X754Y1965D01*
X744Y1965D01*
X744Y1963D01*
X842Y1963D01*
X842Y1965D01*
X830Y1965D01*
X830Y1967D01*
X826Y1967D01*
X826Y1969D01*
X822Y1969D01*
X822Y1971D01*
X818Y1971D01*
X818Y1973D01*
X816Y1973D01*
X816Y1975D01*
X814Y1975D01*
X814Y1977D01*
X812Y1977D01*
X812Y1979D01*
X810Y1979D01*
X810Y1981D01*
X808Y1981D01*
X808Y1983D01*
X806Y1983D01*
X806Y1985D01*
X804Y1985D01*
X804Y1987D01*
X802Y1987D01*
X802Y1991D01*
X782Y1991D01*
G37*
D02*
G36*
X882Y1991D02*
X882Y1987D01*
X880Y1987D01*
X880Y1985D01*
X878Y1985D01*
X878Y1981D01*
X876Y1981D01*
X876Y1979D01*
X874Y1979D01*
X874Y1977D01*
X872Y1977D01*
X872Y1975D01*
X868Y1975D01*
X868Y1973D01*
X866Y1973D01*
X866Y1971D01*
X862Y1971D01*
X862Y1969D01*
X860Y1969D01*
X860Y1967D01*
X854Y1967D01*
X854Y1965D01*
X844Y1965D01*
X844Y1963D01*
X942Y1963D01*
X942Y1965D01*
X930Y1965D01*
X930Y1967D01*
X926Y1967D01*
X926Y1969D01*
X922Y1969D01*
X922Y1971D01*
X918Y1971D01*
X918Y1973D01*
X916Y1973D01*
X916Y1975D01*
X914Y1975D01*
X914Y1977D01*
X912Y1977D01*
X912Y1979D01*
X910Y1979D01*
X910Y1981D01*
X908Y1981D01*
X908Y1983D01*
X906Y1983D01*
X906Y1985D01*
X904Y1985D01*
X904Y1987D01*
X902Y1987D01*
X902Y1991D01*
X882Y1991D01*
G37*
D02*
G36*
X982Y1991D02*
X982Y1987D01*
X980Y1987D01*
X980Y1985D01*
X978Y1985D01*
X978Y1981D01*
X976Y1981D01*
X976Y1979D01*
X974Y1979D01*
X974Y1977D01*
X972Y1977D01*
X972Y1975D01*
X968Y1975D01*
X968Y1973D01*
X966Y1973D01*
X966Y1971D01*
X962Y1971D01*
X962Y1969D01*
X960Y1969D01*
X960Y1967D01*
X954Y1967D01*
X954Y1965D01*
X944Y1965D01*
X944Y1963D01*
X1042Y1963D01*
X1042Y1965D01*
X1030Y1965D01*
X1030Y1967D01*
X1026Y1967D01*
X1026Y1969D01*
X1022Y1969D01*
X1022Y1971D01*
X1018Y1971D01*
X1018Y1973D01*
X1016Y1973D01*
X1016Y1975D01*
X1014Y1975D01*
X1014Y1977D01*
X1012Y1977D01*
X1012Y1979D01*
X1010Y1979D01*
X1010Y1981D01*
X1008Y1981D01*
X1008Y1983D01*
X1006Y1983D01*
X1006Y1985D01*
X1004Y1985D01*
X1004Y1987D01*
X1002Y1987D01*
X1002Y1991D01*
X982Y1991D01*
G37*
D02*
G36*
X1082Y1991D02*
X1082Y1987D01*
X1080Y1987D01*
X1080Y1985D01*
X1078Y1985D01*
X1078Y1981D01*
X1076Y1981D01*
X1076Y1979D01*
X1074Y1979D01*
X1074Y1977D01*
X1072Y1977D01*
X1072Y1975D01*
X1068Y1975D01*
X1068Y1973D01*
X1066Y1973D01*
X1066Y1971D01*
X1062Y1971D01*
X1062Y1969D01*
X1060Y1969D01*
X1060Y1967D01*
X1054Y1967D01*
X1054Y1965D01*
X1044Y1965D01*
X1044Y1963D01*
X1142Y1963D01*
X1142Y1965D01*
X1130Y1965D01*
X1130Y1967D01*
X1126Y1967D01*
X1126Y1969D01*
X1122Y1969D01*
X1122Y1971D01*
X1118Y1971D01*
X1118Y1973D01*
X1116Y1973D01*
X1116Y1975D01*
X1114Y1975D01*
X1114Y1977D01*
X1112Y1977D01*
X1112Y1979D01*
X1110Y1979D01*
X1110Y1981D01*
X1108Y1981D01*
X1108Y1983D01*
X1106Y1983D01*
X1106Y1985D01*
X1104Y1985D01*
X1104Y1987D01*
X1102Y1987D01*
X1102Y1991D01*
X1082Y1991D01*
G37*
D02*
G36*
X1182Y1991D02*
X1182Y1987D01*
X1180Y1987D01*
X1180Y1985D01*
X1178Y1985D01*
X1178Y1981D01*
X1176Y1981D01*
X1176Y1979D01*
X1174Y1979D01*
X1174Y1977D01*
X1172Y1977D01*
X1172Y1975D01*
X1168Y1975D01*
X1168Y1973D01*
X1166Y1973D01*
X1166Y1971D01*
X1162Y1971D01*
X1162Y1969D01*
X1160Y1969D01*
X1160Y1967D01*
X1154Y1967D01*
X1154Y1965D01*
X1144Y1965D01*
X1144Y1963D01*
X1242Y1963D01*
X1242Y1965D01*
X1230Y1965D01*
X1230Y1967D01*
X1226Y1967D01*
X1226Y1969D01*
X1222Y1969D01*
X1222Y1971D01*
X1218Y1971D01*
X1218Y1973D01*
X1216Y1973D01*
X1216Y1975D01*
X1214Y1975D01*
X1214Y1977D01*
X1212Y1977D01*
X1212Y1979D01*
X1210Y1979D01*
X1210Y1981D01*
X1208Y1981D01*
X1208Y1983D01*
X1206Y1983D01*
X1206Y1985D01*
X1204Y1985D01*
X1204Y1987D01*
X1202Y1987D01*
X1202Y1991D01*
X1182Y1991D01*
G37*
D02*
G36*
X1282Y1991D02*
X1282Y1987D01*
X1280Y1987D01*
X1280Y1985D01*
X1278Y1985D01*
X1278Y1981D01*
X1276Y1981D01*
X1276Y1979D01*
X1274Y1979D01*
X1274Y1977D01*
X1272Y1977D01*
X1272Y1975D01*
X1268Y1975D01*
X1268Y1973D01*
X1266Y1973D01*
X1266Y1971D01*
X1262Y1971D01*
X1262Y1969D01*
X1260Y1969D01*
X1260Y1967D01*
X1254Y1967D01*
X1254Y1965D01*
X1244Y1965D01*
X1244Y1963D01*
X1342Y1963D01*
X1342Y1965D01*
X1330Y1965D01*
X1330Y1967D01*
X1326Y1967D01*
X1326Y1969D01*
X1322Y1969D01*
X1322Y1971D01*
X1318Y1971D01*
X1318Y1973D01*
X1316Y1973D01*
X1316Y1975D01*
X1314Y1975D01*
X1314Y1977D01*
X1312Y1977D01*
X1312Y1979D01*
X1310Y1979D01*
X1310Y1981D01*
X1308Y1981D01*
X1308Y1983D01*
X1306Y1983D01*
X1306Y1985D01*
X1304Y1985D01*
X1304Y1987D01*
X1302Y1987D01*
X1302Y1991D01*
X1282Y1991D01*
G37*
D02*
G36*
X1382Y1991D02*
X1382Y1987D01*
X1380Y1987D01*
X1380Y1985D01*
X1378Y1985D01*
X1378Y1981D01*
X1376Y1981D01*
X1376Y1979D01*
X1374Y1979D01*
X1374Y1977D01*
X1372Y1977D01*
X1372Y1975D01*
X1368Y1975D01*
X1368Y1973D01*
X1366Y1973D01*
X1366Y1971D01*
X1362Y1971D01*
X1362Y1969D01*
X1360Y1969D01*
X1360Y1967D01*
X1354Y1967D01*
X1354Y1965D01*
X1344Y1965D01*
X1344Y1963D01*
X1442Y1963D01*
X1442Y1965D01*
X1430Y1965D01*
X1430Y1967D01*
X1426Y1967D01*
X1426Y1969D01*
X1422Y1969D01*
X1422Y1971D01*
X1418Y1971D01*
X1418Y1973D01*
X1416Y1973D01*
X1416Y1975D01*
X1414Y1975D01*
X1414Y1977D01*
X1412Y1977D01*
X1412Y1979D01*
X1410Y1979D01*
X1410Y1981D01*
X1408Y1981D01*
X1408Y1983D01*
X1406Y1983D01*
X1406Y1985D01*
X1404Y1985D01*
X1404Y1987D01*
X1402Y1987D01*
X1402Y1991D01*
X1382Y1991D01*
G37*
D02*
G36*
X1482Y1991D02*
X1482Y1987D01*
X1480Y1987D01*
X1480Y1985D01*
X1478Y1985D01*
X1478Y1981D01*
X1476Y1981D01*
X1476Y1979D01*
X1474Y1979D01*
X1474Y1977D01*
X1472Y1977D01*
X1472Y1975D01*
X1468Y1975D01*
X1468Y1973D01*
X1466Y1973D01*
X1466Y1971D01*
X1462Y1971D01*
X1462Y1969D01*
X1460Y1969D01*
X1460Y1967D01*
X1454Y1967D01*
X1454Y1965D01*
X1444Y1965D01*
X1444Y1963D01*
X1542Y1963D01*
X1542Y1965D01*
X1530Y1965D01*
X1530Y1967D01*
X1526Y1967D01*
X1526Y1969D01*
X1522Y1969D01*
X1522Y1971D01*
X1518Y1971D01*
X1518Y1973D01*
X1516Y1973D01*
X1516Y1975D01*
X1514Y1975D01*
X1514Y1977D01*
X1512Y1977D01*
X1512Y1979D01*
X1510Y1979D01*
X1510Y1981D01*
X1508Y1981D01*
X1508Y1983D01*
X1506Y1983D01*
X1506Y1985D01*
X1504Y1985D01*
X1504Y1987D01*
X1502Y1987D01*
X1502Y1991D01*
X1482Y1991D01*
G37*
D02*
G36*
X1582Y1991D02*
X1582Y1987D01*
X1580Y1987D01*
X1580Y1985D01*
X1578Y1985D01*
X1578Y1981D01*
X1576Y1981D01*
X1576Y1979D01*
X1574Y1979D01*
X1574Y1977D01*
X1572Y1977D01*
X1572Y1975D01*
X1568Y1975D01*
X1568Y1973D01*
X1566Y1973D01*
X1566Y1971D01*
X1562Y1971D01*
X1562Y1969D01*
X1560Y1969D01*
X1560Y1967D01*
X1554Y1967D01*
X1554Y1965D01*
X1544Y1965D01*
X1544Y1963D01*
X1642Y1963D01*
X1642Y1965D01*
X1630Y1965D01*
X1630Y1967D01*
X1626Y1967D01*
X1626Y1969D01*
X1622Y1969D01*
X1622Y1971D01*
X1618Y1971D01*
X1618Y1973D01*
X1616Y1973D01*
X1616Y1975D01*
X1614Y1975D01*
X1614Y1977D01*
X1612Y1977D01*
X1612Y1979D01*
X1610Y1979D01*
X1610Y1981D01*
X1608Y1981D01*
X1608Y1983D01*
X1606Y1983D01*
X1606Y1985D01*
X1604Y1985D01*
X1604Y1987D01*
X1602Y1987D01*
X1602Y1991D01*
X1582Y1991D01*
G37*
D02*
G36*
X1842Y1991D02*
X1842Y1987D01*
X1840Y1987D01*
X1840Y1985D01*
X1838Y1985D01*
X1838Y1981D01*
X1836Y1981D01*
X1836Y1979D01*
X1834Y1979D01*
X1834Y1977D01*
X1832Y1977D01*
X1832Y1975D01*
X1828Y1975D01*
X1828Y1973D01*
X1826Y1973D01*
X1826Y1971D01*
X1822Y1971D01*
X1822Y1969D01*
X1820Y1969D01*
X1820Y1967D01*
X1814Y1967D01*
X1814Y1965D01*
X1804Y1965D01*
X1804Y1963D01*
X1902Y1963D01*
X1902Y1965D01*
X1890Y1965D01*
X1890Y1967D01*
X1886Y1967D01*
X1886Y1969D01*
X1882Y1969D01*
X1882Y1971D01*
X1878Y1971D01*
X1878Y1973D01*
X1876Y1973D01*
X1876Y1975D01*
X1874Y1975D01*
X1874Y1977D01*
X1872Y1977D01*
X1872Y1979D01*
X1870Y1979D01*
X1870Y1981D01*
X1868Y1981D01*
X1868Y1983D01*
X1866Y1983D01*
X1866Y1985D01*
X1864Y1985D01*
X1864Y1987D01*
X1862Y1987D01*
X1862Y1991D01*
X1842Y1991D01*
G37*
D02*
G36*
X52Y1963D02*
X52Y1961D01*
X1920Y1961D01*
X1920Y1963D01*
X52Y1963D01*
G37*
D02*
G36*
X52Y1963D02*
X52Y1961D01*
X1920Y1961D01*
X1920Y1963D01*
X52Y1963D01*
G37*
D02*
G36*
X52Y1963D02*
X52Y1961D01*
X1920Y1961D01*
X1920Y1963D01*
X52Y1963D01*
G37*
D02*
G36*
X52Y1963D02*
X52Y1961D01*
X1920Y1961D01*
X1920Y1963D01*
X52Y1963D01*
G37*
D02*
G36*
X52Y1963D02*
X52Y1961D01*
X1920Y1961D01*
X1920Y1963D01*
X52Y1963D01*
G37*
D02*
G36*
X52Y1963D02*
X52Y1961D01*
X1920Y1961D01*
X1920Y1963D01*
X52Y1963D01*
G37*
D02*
G36*
X52Y1963D02*
X52Y1961D01*
X1920Y1961D01*
X1920Y1963D01*
X52Y1963D01*
G37*
D02*
G36*
X52Y1963D02*
X52Y1961D01*
X1920Y1961D01*
X1920Y1963D01*
X52Y1963D01*
G37*
D02*
G36*
X52Y1963D02*
X52Y1961D01*
X1920Y1961D01*
X1920Y1963D01*
X52Y1963D01*
G37*
D02*
G36*
X52Y1963D02*
X52Y1961D01*
X1920Y1961D01*
X1920Y1963D01*
X52Y1963D01*
G37*
D02*
G36*
X52Y1963D02*
X52Y1961D01*
X1920Y1961D01*
X1920Y1963D01*
X52Y1963D01*
G37*
D02*
G36*
X52Y1963D02*
X52Y1961D01*
X1920Y1961D01*
X1920Y1963D01*
X52Y1963D01*
G37*
D02*
G36*
X52Y1961D02*
X52Y1851D01*
X1678Y1851D01*
X1678Y1849D01*
X1816Y1849D01*
X1816Y1763D01*
X1848Y1763D01*
X1848Y1849D01*
X1920Y1849D01*
X1920Y1961D01*
X52Y1961D01*
G37*
D02*
G36*
X52Y1851D02*
X52Y1617D01*
X1394Y1617D01*
X1394Y1505D01*
X1644Y1505D01*
X1644Y1507D01*
X1642Y1507D01*
X1642Y1511D01*
X1640Y1511D01*
X1640Y1521D01*
X1638Y1521D01*
X1638Y1523D01*
X1640Y1523D01*
X1640Y1531D01*
X1642Y1531D01*
X1642Y1537D01*
X1644Y1537D01*
X1644Y1539D01*
X1646Y1539D01*
X1646Y1541D01*
X1648Y1541D01*
X1648Y1561D01*
X1646Y1561D01*
X1646Y1563D01*
X1644Y1563D01*
X1644Y1567D01*
X1642Y1567D01*
X1642Y1571D01*
X1640Y1571D01*
X1640Y1579D01*
X1638Y1579D01*
X1638Y1583D01*
X1640Y1583D01*
X1640Y1591D01*
X1642Y1591D01*
X1642Y1595D01*
X1644Y1595D01*
X1644Y1599D01*
X1646Y1599D01*
X1646Y1623D01*
X1644Y1623D01*
X1644Y1625D01*
X1642Y1625D01*
X1642Y1629D01*
X1640Y1629D01*
X1640Y1639D01*
X1638Y1639D01*
X1638Y1641D01*
X1640Y1641D01*
X1640Y1651D01*
X1642Y1651D01*
X1642Y1655D01*
X1644Y1655D01*
X1644Y1657D01*
X1646Y1657D01*
X1646Y1681D01*
X1644Y1681D01*
X1644Y1685D01*
X1642Y1685D01*
X1642Y1689D01*
X1640Y1689D01*
X1640Y1697D01*
X1638Y1697D01*
X1638Y1701D01*
X1640Y1701D01*
X1640Y1709D01*
X1642Y1709D01*
X1642Y1713D01*
X1644Y1713D01*
X1644Y1717D01*
X1646Y1717D01*
X1646Y1741D01*
X1644Y1741D01*
X1644Y1743D01*
X1642Y1743D01*
X1642Y1747D01*
X1640Y1747D01*
X1640Y1757D01*
X1638Y1757D01*
X1638Y1759D01*
X1640Y1759D01*
X1640Y1769D01*
X1642Y1769D01*
X1642Y1773D01*
X1644Y1773D01*
X1644Y1775D01*
X1646Y1775D01*
X1646Y1799D01*
X1644Y1799D01*
X1644Y1803D01*
X1642Y1803D01*
X1642Y1807D01*
X1640Y1807D01*
X1640Y1815D01*
X1638Y1815D01*
X1638Y1819D01*
X1640Y1819D01*
X1640Y1827D01*
X1642Y1827D01*
X1642Y1831D01*
X1644Y1831D01*
X1644Y1835D01*
X1646Y1835D01*
X1646Y1837D01*
X1648Y1837D01*
X1648Y1839D01*
X1650Y1839D01*
X1650Y1841D01*
X1652Y1841D01*
X1652Y1843D01*
X1654Y1843D01*
X1654Y1845D01*
X1658Y1845D01*
X1658Y1847D01*
X1660Y1847D01*
X1660Y1849D01*
X1668Y1849D01*
X1668Y1851D01*
X52Y1851D01*
G37*
D02*
G36*
X1684Y1849D02*
X1684Y1847D01*
X1688Y1847D01*
X1688Y1845D01*
X1690Y1845D01*
X1690Y1843D01*
X1694Y1843D01*
X1694Y1841D01*
X1696Y1841D01*
X1696Y1839D01*
X1698Y1839D01*
X1698Y1837D01*
X1700Y1837D01*
X1700Y1833D01*
X1702Y1833D01*
X1702Y1829D01*
X1704Y1829D01*
X1704Y1825D01*
X1706Y1825D01*
X1706Y1809D01*
X1704Y1809D01*
X1704Y1805D01*
X1702Y1805D01*
X1702Y1801D01*
X1700Y1801D01*
X1700Y1797D01*
X1698Y1797D01*
X1698Y1777D01*
X1700Y1777D01*
X1700Y1775D01*
X1702Y1775D01*
X1702Y1771D01*
X1704Y1771D01*
X1704Y1765D01*
X1726Y1765D01*
X1726Y1849D01*
X1684Y1849D01*
G37*
D02*
G36*
X52Y1617D02*
X52Y1505D01*
X544Y1505D01*
X544Y1507D01*
X536Y1507D01*
X536Y1509D01*
X530Y1509D01*
X530Y1511D01*
X528Y1511D01*
X528Y1513D01*
X524Y1513D01*
X524Y1515D01*
X520Y1515D01*
X520Y1517D01*
X518Y1517D01*
X518Y1519D01*
X516Y1519D01*
X516Y1521D01*
X514Y1521D01*
X514Y1523D01*
X512Y1523D01*
X512Y1525D01*
X510Y1525D01*
X510Y1527D01*
X508Y1527D01*
X508Y1529D01*
X506Y1529D01*
X506Y1531D01*
X504Y1531D01*
X504Y1535D01*
X502Y1535D01*
X502Y1539D01*
X500Y1539D01*
X500Y1543D01*
X498Y1543D01*
X498Y1547D01*
X496Y1547D01*
X496Y1557D01*
X494Y1557D01*
X494Y1565D01*
X496Y1565D01*
X496Y1575D01*
X498Y1575D01*
X498Y1579D01*
X500Y1579D01*
X500Y1583D01*
X502Y1583D01*
X502Y1587D01*
X504Y1587D01*
X504Y1591D01*
X506Y1591D01*
X506Y1593D01*
X508Y1593D01*
X508Y1595D01*
X510Y1595D01*
X510Y1597D01*
X512Y1597D01*
X512Y1599D01*
X514Y1599D01*
X514Y1601D01*
X516Y1601D01*
X516Y1603D01*
X518Y1603D01*
X518Y1605D01*
X520Y1605D01*
X520Y1607D01*
X524Y1607D01*
X524Y1609D01*
X528Y1609D01*
X528Y1611D01*
X530Y1611D01*
X530Y1613D01*
X536Y1613D01*
X536Y1615D01*
X544Y1615D01*
X544Y1617D01*
X52Y1617D01*
G37*
D02*
G36*
X558Y1617D02*
X558Y1615D01*
X566Y1615D01*
X566Y1613D01*
X570Y1613D01*
X570Y1611D01*
X574Y1611D01*
X574Y1609D01*
X578Y1609D01*
X578Y1607D01*
X580Y1607D01*
X580Y1605D01*
X582Y1605D01*
X582Y1603D01*
X586Y1603D01*
X586Y1601D01*
X588Y1601D01*
X588Y1599D01*
X590Y1599D01*
X590Y1597D01*
X592Y1597D01*
X592Y1593D01*
X594Y1593D01*
X594Y1591D01*
X596Y1591D01*
X596Y1589D01*
X598Y1589D01*
X598Y1585D01*
X600Y1585D01*
X600Y1581D01*
X602Y1581D01*
X602Y1577D01*
X604Y1577D01*
X604Y1571D01*
X606Y1571D01*
X606Y1551D01*
X604Y1551D01*
X604Y1545D01*
X602Y1545D01*
X602Y1541D01*
X600Y1541D01*
X600Y1537D01*
X598Y1537D01*
X598Y1533D01*
X596Y1533D01*
X596Y1531D01*
X594Y1531D01*
X594Y1529D01*
X592Y1529D01*
X592Y1525D01*
X590Y1525D01*
X590Y1523D01*
X588Y1523D01*
X588Y1521D01*
X586Y1521D01*
X586Y1519D01*
X582Y1519D01*
X582Y1517D01*
X580Y1517D01*
X580Y1515D01*
X578Y1515D01*
X578Y1513D01*
X574Y1513D01*
X574Y1511D01*
X570Y1511D01*
X570Y1509D01*
X566Y1509D01*
X566Y1507D01*
X558Y1507D01*
X558Y1505D01*
X740Y1505D01*
X740Y1507D01*
X732Y1507D01*
X732Y1509D01*
X728Y1509D01*
X728Y1511D01*
X724Y1511D01*
X724Y1513D01*
X720Y1513D01*
X720Y1515D01*
X718Y1515D01*
X718Y1517D01*
X716Y1517D01*
X716Y1519D01*
X712Y1519D01*
X712Y1521D01*
X710Y1521D01*
X710Y1523D01*
X708Y1523D01*
X708Y1525D01*
X706Y1525D01*
X706Y1527D01*
X704Y1527D01*
X704Y1531D01*
X702Y1531D01*
X702Y1533D01*
X700Y1533D01*
X700Y1537D01*
X698Y1537D01*
X698Y1539D01*
X696Y1539D01*
X696Y1545D01*
X694Y1545D01*
X694Y1551D01*
X692Y1551D01*
X692Y1571D01*
X694Y1571D01*
X694Y1577D01*
X696Y1577D01*
X696Y1583D01*
X698Y1583D01*
X698Y1585D01*
X700Y1585D01*
X700Y1589D01*
X702Y1589D01*
X702Y1591D01*
X704Y1591D01*
X704Y1595D01*
X706Y1595D01*
X706Y1597D01*
X708Y1597D01*
X708Y1599D01*
X710Y1599D01*
X710Y1601D01*
X712Y1601D01*
X712Y1603D01*
X714Y1603D01*
X714Y1605D01*
X718Y1605D01*
X718Y1607D01*
X720Y1607D01*
X720Y1609D01*
X724Y1609D01*
X724Y1611D01*
X728Y1611D01*
X728Y1613D01*
X732Y1613D01*
X732Y1615D01*
X740Y1615D01*
X740Y1617D01*
X558Y1617D01*
G37*
D02*
G36*
X754Y1617D02*
X754Y1615D01*
X762Y1615D01*
X762Y1613D01*
X768Y1613D01*
X768Y1611D01*
X770Y1611D01*
X770Y1609D01*
X774Y1609D01*
X774Y1607D01*
X778Y1607D01*
X778Y1605D01*
X780Y1605D01*
X780Y1603D01*
X782Y1603D01*
X782Y1601D01*
X784Y1601D01*
X784Y1599D01*
X786Y1599D01*
X786Y1597D01*
X788Y1597D01*
X788Y1595D01*
X790Y1595D01*
X790Y1593D01*
X792Y1593D01*
X792Y1591D01*
X794Y1591D01*
X794Y1587D01*
X796Y1587D01*
X796Y1583D01*
X798Y1583D01*
X798Y1579D01*
X800Y1579D01*
X800Y1573D01*
X802Y1573D01*
X802Y1549D01*
X800Y1549D01*
X800Y1543D01*
X798Y1543D01*
X798Y1539D01*
X796Y1539D01*
X796Y1535D01*
X794Y1535D01*
X794Y1533D01*
X792Y1533D01*
X792Y1529D01*
X790Y1529D01*
X790Y1527D01*
X788Y1527D01*
X788Y1525D01*
X786Y1525D01*
X786Y1523D01*
X784Y1523D01*
X784Y1521D01*
X782Y1521D01*
X782Y1519D01*
X780Y1519D01*
X780Y1517D01*
X778Y1517D01*
X778Y1515D01*
X774Y1515D01*
X774Y1513D01*
X770Y1513D01*
X770Y1511D01*
X766Y1511D01*
X766Y1509D01*
X762Y1509D01*
X762Y1507D01*
X754Y1507D01*
X754Y1505D01*
X938Y1505D01*
X938Y1507D01*
X930Y1507D01*
X930Y1509D01*
X924Y1509D01*
X924Y1511D01*
X920Y1511D01*
X920Y1513D01*
X918Y1513D01*
X918Y1515D01*
X914Y1515D01*
X914Y1517D01*
X912Y1517D01*
X912Y1519D01*
X910Y1519D01*
X910Y1521D01*
X908Y1521D01*
X908Y1523D01*
X906Y1523D01*
X906Y1525D01*
X904Y1525D01*
X904Y1527D01*
X902Y1527D01*
X902Y1529D01*
X900Y1529D01*
X900Y1531D01*
X898Y1531D01*
X898Y1535D01*
X896Y1535D01*
X896Y1537D01*
X894Y1537D01*
X894Y1541D01*
X892Y1541D01*
X892Y1547D01*
X890Y1547D01*
X890Y1555D01*
X888Y1555D01*
X888Y1567D01*
X890Y1567D01*
X890Y1575D01*
X892Y1575D01*
X892Y1581D01*
X894Y1581D01*
X894Y1585D01*
X896Y1585D01*
X896Y1587D01*
X898Y1587D01*
X898Y1591D01*
X900Y1591D01*
X900Y1593D01*
X902Y1593D01*
X902Y1595D01*
X904Y1595D01*
X904Y1597D01*
X906Y1597D01*
X906Y1599D01*
X908Y1599D01*
X908Y1601D01*
X910Y1601D01*
X910Y1603D01*
X912Y1603D01*
X912Y1605D01*
X914Y1605D01*
X914Y1607D01*
X918Y1607D01*
X918Y1609D01*
X920Y1609D01*
X920Y1611D01*
X924Y1611D01*
X924Y1613D01*
X930Y1613D01*
X930Y1615D01*
X936Y1615D01*
X936Y1617D01*
X754Y1617D01*
G37*
D02*
G36*
X952Y1617D02*
X952Y1615D01*
X960Y1615D01*
X960Y1613D01*
X964Y1613D01*
X964Y1611D01*
X968Y1611D01*
X968Y1609D01*
X970Y1609D01*
X970Y1607D01*
X974Y1607D01*
X974Y1605D01*
X976Y1605D01*
X976Y1603D01*
X978Y1603D01*
X978Y1601D01*
X982Y1601D01*
X982Y1599D01*
X984Y1599D01*
X984Y1595D01*
X986Y1595D01*
X986Y1593D01*
X988Y1593D01*
X988Y1591D01*
X990Y1591D01*
X990Y1589D01*
X992Y1589D01*
X992Y1585D01*
X994Y1585D01*
X994Y1581D01*
X996Y1581D01*
X996Y1577D01*
X998Y1577D01*
X998Y1569D01*
X1000Y1569D01*
X1000Y1553D01*
X998Y1553D01*
X998Y1545D01*
X996Y1545D01*
X996Y1541D01*
X994Y1541D01*
X994Y1537D01*
X992Y1537D01*
X992Y1535D01*
X990Y1535D01*
X990Y1531D01*
X988Y1531D01*
X988Y1529D01*
X986Y1529D01*
X986Y1527D01*
X984Y1527D01*
X984Y1523D01*
X982Y1523D01*
X982Y1521D01*
X978Y1521D01*
X978Y1519D01*
X976Y1519D01*
X976Y1517D01*
X974Y1517D01*
X974Y1515D01*
X970Y1515D01*
X970Y1513D01*
X968Y1513D01*
X968Y1511D01*
X964Y1511D01*
X964Y1509D01*
X958Y1509D01*
X958Y1507D01*
X950Y1507D01*
X950Y1505D01*
X1134Y1505D01*
X1134Y1507D01*
X1126Y1507D01*
X1126Y1509D01*
X1122Y1509D01*
X1122Y1511D01*
X1118Y1511D01*
X1118Y1513D01*
X1114Y1513D01*
X1114Y1515D01*
X1112Y1515D01*
X1112Y1517D01*
X1108Y1517D01*
X1108Y1519D01*
X1106Y1519D01*
X1106Y1521D01*
X1104Y1521D01*
X1104Y1523D01*
X1102Y1523D01*
X1102Y1525D01*
X1100Y1525D01*
X1100Y1527D01*
X1098Y1527D01*
X1098Y1529D01*
X1096Y1529D01*
X1096Y1533D01*
X1094Y1533D01*
X1094Y1535D01*
X1092Y1535D01*
X1092Y1539D01*
X1090Y1539D01*
X1090Y1543D01*
X1088Y1543D01*
X1088Y1549D01*
X1086Y1549D01*
X1086Y1573D01*
X1088Y1573D01*
X1088Y1579D01*
X1090Y1579D01*
X1090Y1583D01*
X1092Y1583D01*
X1092Y1587D01*
X1094Y1587D01*
X1094Y1589D01*
X1096Y1589D01*
X1096Y1593D01*
X1098Y1593D01*
X1098Y1595D01*
X1100Y1595D01*
X1100Y1597D01*
X1102Y1597D01*
X1102Y1599D01*
X1104Y1599D01*
X1104Y1601D01*
X1106Y1601D01*
X1106Y1603D01*
X1108Y1603D01*
X1108Y1605D01*
X1110Y1605D01*
X1110Y1607D01*
X1114Y1607D01*
X1114Y1609D01*
X1118Y1609D01*
X1118Y1611D01*
X1122Y1611D01*
X1122Y1613D01*
X1126Y1613D01*
X1126Y1615D01*
X1134Y1615D01*
X1134Y1617D01*
X952Y1617D01*
G37*
D02*
G36*
X1148Y1617D02*
X1148Y1615D01*
X1156Y1615D01*
X1156Y1613D01*
X1160Y1613D01*
X1160Y1611D01*
X1164Y1611D01*
X1164Y1609D01*
X1168Y1609D01*
X1168Y1607D01*
X1172Y1607D01*
X1172Y1605D01*
X1174Y1605D01*
X1174Y1603D01*
X1176Y1603D01*
X1176Y1601D01*
X1178Y1601D01*
X1178Y1599D01*
X1180Y1599D01*
X1180Y1597D01*
X1182Y1597D01*
X1182Y1595D01*
X1184Y1595D01*
X1184Y1593D01*
X1186Y1593D01*
X1186Y1589D01*
X1188Y1589D01*
X1188Y1587D01*
X1190Y1587D01*
X1190Y1583D01*
X1192Y1583D01*
X1192Y1579D01*
X1194Y1579D01*
X1194Y1573D01*
X1196Y1573D01*
X1196Y1549D01*
X1194Y1549D01*
X1194Y1543D01*
X1192Y1543D01*
X1192Y1539D01*
X1190Y1539D01*
X1190Y1537D01*
X1188Y1537D01*
X1188Y1533D01*
X1186Y1533D01*
X1186Y1529D01*
X1184Y1529D01*
X1184Y1527D01*
X1182Y1527D01*
X1182Y1525D01*
X1180Y1525D01*
X1180Y1523D01*
X1178Y1523D01*
X1178Y1521D01*
X1176Y1521D01*
X1176Y1519D01*
X1174Y1519D01*
X1174Y1517D01*
X1170Y1517D01*
X1170Y1515D01*
X1168Y1515D01*
X1168Y1513D01*
X1164Y1513D01*
X1164Y1511D01*
X1160Y1511D01*
X1160Y1509D01*
X1156Y1509D01*
X1156Y1507D01*
X1148Y1507D01*
X1148Y1505D01*
X1282Y1505D01*
X1282Y1617D01*
X1148Y1617D01*
G37*
D02*
G36*
X52Y1505D02*
X52Y1503D01*
X1644Y1503D01*
X1644Y1505D01*
X52Y1505D01*
G37*
D02*
G36*
X52Y1505D02*
X52Y1503D01*
X1644Y1503D01*
X1644Y1505D01*
X52Y1505D01*
G37*
D02*
G36*
X52Y1505D02*
X52Y1503D01*
X1644Y1503D01*
X1644Y1505D01*
X52Y1505D01*
G37*
D02*
G36*
X52Y1505D02*
X52Y1503D01*
X1644Y1503D01*
X1644Y1505D01*
X52Y1505D01*
G37*
D02*
G36*
X52Y1505D02*
X52Y1503D01*
X1644Y1503D01*
X1644Y1505D01*
X52Y1505D01*
G37*
D02*
G36*
X52Y1505D02*
X52Y1503D01*
X1644Y1503D01*
X1644Y1505D01*
X52Y1505D01*
G37*
D02*
G36*
X52Y1503D02*
X52Y805D01*
X758Y805D01*
X758Y803D01*
X764Y803D01*
X764Y801D01*
X768Y801D01*
X768Y799D01*
X770Y799D01*
X770Y797D01*
X774Y797D01*
X774Y795D01*
X776Y795D01*
X776Y793D01*
X780Y793D01*
X780Y791D01*
X782Y791D01*
X782Y789D01*
X784Y789D01*
X784Y787D01*
X786Y787D01*
X786Y783D01*
X788Y783D01*
X788Y781D01*
X790Y781D01*
X790Y779D01*
X792Y779D01*
X792Y775D01*
X794Y775D01*
X794Y771D01*
X796Y771D01*
X796Y765D01*
X798Y765D01*
X798Y743D01*
X796Y743D01*
X796Y737D01*
X794Y737D01*
X794Y733D01*
X792Y733D01*
X792Y729D01*
X790Y729D01*
X790Y727D01*
X788Y727D01*
X788Y725D01*
X786Y725D01*
X786Y721D01*
X784Y721D01*
X784Y719D01*
X782Y719D01*
X782Y717D01*
X780Y717D01*
X780Y715D01*
X776Y715D01*
X776Y713D01*
X774Y713D01*
X774Y711D01*
X772Y711D01*
X772Y709D01*
X768Y709D01*
X768Y707D01*
X764Y707D01*
X764Y705D01*
X758Y705D01*
X758Y703D01*
X1646Y703D01*
X1646Y753D01*
X1568Y753D01*
X1568Y755D01*
X1564Y755D01*
X1564Y757D01*
X1560Y757D01*
X1560Y759D01*
X1558Y759D01*
X1558Y761D01*
X1556Y761D01*
X1556Y763D01*
X1554Y763D01*
X1554Y765D01*
X1552Y765D01*
X1552Y767D01*
X1550Y767D01*
X1550Y769D01*
X1548Y769D01*
X1548Y771D01*
X1546Y771D01*
X1546Y773D01*
X1544Y773D01*
X1544Y775D01*
X1542Y775D01*
X1542Y777D01*
X1540Y777D01*
X1540Y779D01*
X1538Y779D01*
X1538Y781D01*
X1536Y781D01*
X1536Y783D01*
X1534Y783D01*
X1534Y785D01*
X1532Y785D01*
X1532Y787D01*
X1530Y787D01*
X1530Y789D01*
X1528Y789D01*
X1528Y791D01*
X1526Y791D01*
X1526Y793D01*
X1524Y793D01*
X1524Y795D01*
X1522Y795D01*
X1522Y797D01*
X1518Y797D01*
X1518Y799D01*
X1516Y799D01*
X1516Y801D01*
X1514Y801D01*
X1514Y803D01*
X1444Y803D01*
X1444Y861D01*
X1440Y861D01*
X1440Y863D01*
X1438Y863D01*
X1438Y865D01*
X1434Y865D01*
X1434Y867D01*
X1432Y867D01*
X1432Y869D01*
X1428Y869D01*
X1428Y871D01*
X1426Y871D01*
X1426Y873D01*
X1424Y873D01*
X1424Y875D01*
X1420Y875D01*
X1420Y877D01*
X1418Y877D01*
X1418Y879D01*
X1414Y879D01*
X1414Y881D01*
X1412Y881D01*
X1412Y883D01*
X1408Y883D01*
X1408Y885D01*
X1406Y885D01*
X1406Y887D01*
X1402Y887D01*
X1402Y889D01*
X1400Y889D01*
X1400Y891D01*
X1396Y891D01*
X1396Y893D01*
X1394Y893D01*
X1394Y895D01*
X1392Y895D01*
X1392Y897D01*
X1388Y897D01*
X1388Y899D01*
X1386Y899D01*
X1386Y901D01*
X1382Y901D01*
X1382Y903D01*
X1380Y903D01*
X1380Y905D01*
X1376Y905D01*
X1376Y907D01*
X1374Y907D01*
X1374Y909D01*
X1370Y909D01*
X1370Y911D01*
X1368Y911D01*
X1368Y913D01*
X1366Y913D01*
X1366Y915D01*
X1362Y915D01*
X1362Y917D01*
X1360Y917D01*
X1360Y921D01*
X1358Y921D01*
X1358Y925D01*
X1356Y925D01*
X1356Y1409D01*
X1358Y1409D01*
X1358Y1415D01*
X1360Y1415D01*
X1360Y1417D01*
X1362Y1417D01*
X1362Y1419D01*
X1364Y1419D01*
X1364Y1421D01*
X1368Y1421D01*
X1368Y1423D01*
X1416Y1423D01*
X1416Y1425D01*
X1678Y1425D01*
X1678Y1445D01*
X1674Y1445D01*
X1674Y1447D01*
X1672Y1447D01*
X1672Y1449D01*
X1670Y1449D01*
X1670Y1453D01*
X1668Y1453D01*
X1668Y1455D01*
X1666Y1455D01*
X1666Y1459D01*
X1664Y1459D01*
X1664Y1465D01*
X1662Y1465D01*
X1662Y1491D01*
X1658Y1491D01*
X1658Y1493D01*
X1654Y1493D01*
X1654Y1495D01*
X1652Y1495D01*
X1652Y1497D01*
X1650Y1497D01*
X1650Y1499D01*
X1648Y1499D01*
X1648Y1501D01*
X1646Y1501D01*
X1646Y1503D01*
X52Y1503D01*
G37*
D02*
G36*
X52Y805D02*
X52Y703D01*
X480Y703D01*
X480Y705D01*
X476Y705D01*
X476Y707D01*
X472Y707D01*
X472Y709D01*
X468Y709D01*
X468Y711D01*
X464Y711D01*
X464Y713D01*
X462Y713D01*
X462Y715D01*
X460Y715D01*
X460Y717D01*
X458Y717D01*
X458Y719D01*
X456Y719D01*
X456Y721D01*
X454Y721D01*
X454Y723D01*
X452Y723D01*
X452Y725D01*
X450Y725D01*
X450Y727D01*
X448Y727D01*
X448Y731D01*
X446Y731D01*
X446Y735D01*
X444Y735D01*
X444Y739D01*
X442Y739D01*
X442Y745D01*
X440Y745D01*
X440Y763D01*
X442Y763D01*
X442Y769D01*
X444Y769D01*
X444Y773D01*
X446Y773D01*
X446Y777D01*
X448Y777D01*
X448Y781D01*
X450Y781D01*
X450Y783D01*
X452Y783D01*
X452Y785D01*
X454Y785D01*
X454Y787D01*
X456Y787D01*
X456Y789D01*
X458Y789D01*
X458Y791D01*
X460Y791D01*
X460Y793D01*
X462Y793D01*
X462Y795D01*
X464Y795D01*
X464Y797D01*
X468Y797D01*
X468Y799D01*
X472Y799D01*
X472Y801D01*
X476Y801D01*
X476Y803D01*
X480Y803D01*
X480Y805D01*
X52Y805D01*
G37*
D02*
G36*
X502Y805D02*
X502Y803D01*
X508Y803D01*
X508Y801D01*
X512Y801D01*
X512Y799D01*
X514Y799D01*
X514Y797D01*
X518Y797D01*
X518Y795D01*
X520Y795D01*
X520Y793D01*
X524Y793D01*
X524Y791D01*
X526Y791D01*
X526Y789D01*
X528Y789D01*
X528Y787D01*
X530Y787D01*
X530Y783D01*
X532Y783D01*
X532Y781D01*
X534Y781D01*
X534Y779D01*
X536Y779D01*
X536Y775D01*
X538Y775D01*
X538Y771D01*
X540Y771D01*
X540Y765D01*
X542Y765D01*
X542Y743D01*
X540Y743D01*
X540Y737D01*
X538Y737D01*
X538Y733D01*
X536Y733D01*
X536Y729D01*
X534Y729D01*
X534Y727D01*
X532Y727D01*
X532Y725D01*
X530Y725D01*
X530Y721D01*
X528Y721D01*
X528Y719D01*
X526Y719D01*
X526Y717D01*
X524Y717D01*
X524Y715D01*
X520Y715D01*
X520Y713D01*
X518Y713D01*
X518Y711D01*
X516Y711D01*
X516Y709D01*
X512Y709D01*
X512Y707D01*
X508Y707D01*
X508Y705D01*
X502Y705D01*
X502Y703D01*
X736Y703D01*
X736Y705D01*
X730Y705D01*
X730Y707D01*
X726Y707D01*
X726Y709D01*
X724Y709D01*
X724Y711D01*
X720Y711D01*
X720Y713D01*
X718Y713D01*
X718Y715D01*
X716Y715D01*
X716Y717D01*
X714Y717D01*
X714Y719D01*
X712Y719D01*
X712Y721D01*
X710Y721D01*
X710Y723D01*
X708Y723D01*
X708Y725D01*
X706Y725D01*
X706Y727D01*
X704Y727D01*
X704Y731D01*
X702Y731D01*
X702Y735D01*
X700Y735D01*
X700Y739D01*
X698Y739D01*
X698Y745D01*
X696Y745D01*
X696Y763D01*
X698Y763D01*
X698Y769D01*
X700Y769D01*
X700Y773D01*
X702Y773D01*
X702Y777D01*
X704Y777D01*
X704Y781D01*
X706Y781D01*
X706Y783D01*
X708Y783D01*
X708Y785D01*
X710Y785D01*
X710Y787D01*
X712Y787D01*
X712Y789D01*
X714Y789D01*
X714Y791D01*
X716Y791D01*
X716Y793D01*
X718Y793D01*
X718Y795D01*
X720Y795D01*
X720Y797D01*
X724Y797D01*
X724Y799D01*
X728Y799D01*
X728Y801D01*
X732Y801D01*
X732Y803D01*
X736Y803D01*
X736Y805D01*
X502Y805D01*
G37*
D02*
G36*
X52Y703D02*
X52Y701D01*
X1646Y701D01*
X1646Y703D01*
X52Y703D01*
G37*
D02*
G36*
X52Y703D02*
X52Y701D01*
X1646Y701D01*
X1646Y703D01*
X52Y703D01*
G37*
D02*
G36*
X52Y703D02*
X52Y701D01*
X1646Y701D01*
X1646Y703D01*
X52Y703D01*
G37*
D02*
G36*
X52Y701D02*
X52Y629D01*
X752Y629D01*
X752Y627D01*
X760Y627D01*
X760Y625D01*
X766Y625D01*
X766Y623D01*
X768Y623D01*
X768Y621D01*
X772Y621D01*
X772Y619D01*
X776Y619D01*
X776Y617D01*
X778Y617D01*
X778Y615D01*
X780Y615D01*
X780Y613D01*
X782Y613D01*
X782Y611D01*
X784Y611D01*
X784Y609D01*
X786Y609D01*
X786Y607D01*
X788Y607D01*
X788Y605D01*
X790Y605D01*
X790Y601D01*
X792Y601D01*
X792Y597D01*
X794Y597D01*
X794Y593D01*
X796Y593D01*
X796Y589D01*
X798Y589D01*
X798Y565D01*
X796Y565D01*
X796Y559D01*
X794Y559D01*
X794Y555D01*
X792Y555D01*
X792Y553D01*
X790Y553D01*
X790Y549D01*
X788Y549D01*
X788Y547D01*
X786Y547D01*
X786Y545D01*
X784Y545D01*
X784Y543D01*
X782Y543D01*
X782Y541D01*
X780Y541D01*
X780Y539D01*
X778Y539D01*
X778Y537D01*
X776Y537D01*
X776Y535D01*
X774Y535D01*
X774Y533D01*
X770Y533D01*
X770Y531D01*
X766Y531D01*
X766Y529D01*
X762Y529D01*
X762Y527D01*
X754Y527D01*
X754Y525D01*
X1646Y525D01*
X1646Y549D01*
X1666Y549D01*
X1666Y605D01*
X1646Y605D01*
X1646Y701D01*
X52Y701D01*
G37*
D02*
G36*
X52Y629D02*
X52Y159D01*
X1204Y159D01*
X1204Y157D01*
X1214Y157D01*
X1214Y155D01*
X1220Y155D01*
X1220Y153D01*
X1222Y153D01*
X1222Y151D01*
X1226Y151D01*
X1226Y149D01*
X1228Y149D01*
X1228Y147D01*
X1232Y147D01*
X1232Y145D01*
X1234Y145D01*
X1234Y143D01*
X1236Y143D01*
X1236Y141D01*
X1238Y141D01*
X1238Y137D01*
X1240Y137D01*
X1240Y135D01*
X1242Y135D01*
X1242Y133D01*
X1262Y133D01*
X1262Y135D01*
X1264Y135D01*
X1264Y137D01*
X1266Y137D01*
X1266Y139D01*
X1268Y139D01*
X1268Y143D01*
X1270Y143D01*
X1270Y145D01*
X1274Y145D01*
X1274Y147D01*
X1276Y147D01*
X1276Y149D01*
X1278Y149D01*
X1278Y281D01*
X1262Y281D01*
X1262Y283D01*
X1226Y283D01*
X1226Y285D01*
X1188Y285D01*
X1188Y287D01*
X1152Y287D01*
X1152Y289D01*
X1114Y289D01*
X1114Y291D01*
X1076Y291D01*
X1076Y293D01*
X1040Y293D01*
X1040Y295D01*
X1002Y295D01*
X1002Y297D01*
X966Y297D01*
X966Y299D01*
X928Y299D01*
X928Y301D01*
X892Y301D01*
X892Y303D01*
X854Y303D01*
X854Y305D01*
X818Y305D01*
X818Y307D01*
X780Y307D01*
X780Y309D01*
X744Y309D01*
X744Y311D01*
X706Y311D01*
X706Y313D01*
X670Y313D01*
X670Y315D01*
X632Y315D01*
X632Y317D01*
X596Y317D01*
X596Y319D01*
X558Y319D01*
X558Y321D01*
X542Y321D01*
X542Y323D01*
X538Y323D01*
X538Y325D01*
X536Y325D01*
X536Y327D01*
X534Y327D01*
X534Y329D01*
X532Y329D01*
X532Y333D01*
X530Y333D01*
X530Y341D01*
X528Y341D01*
X528Y349D01*
X526Y349D01*
X526Y357D01*
X524Y357D01*
X524Y365D01*
X522Y365D01*
X522Y373D01*
X520Y373D01*
X520Y381D01*
X518Y381D01*
X518Y389D01*
X516Y389D01*
X516Y397D01*
X514Y397D01*
X514Y405D01*
X512Y405D01*
X512Y413D01*
X510Y413D01*
X510Y421D01*
X508Y421D01*
X508Y429D01*
X506Y429D01*
X506Y437D01*
X504Y437D01*
X504Y445D01*
X502Y445D01*
X502Y453D01*
X500Y453D01*
X500Y463D01*
X498Y463D01*
X498Y471D01*
X496Y471D01*
X496Y479D01*
X494Y479D01*
X494Y487D01*
X492Y487D01*
X492Y495D01*
X490Y495D01*
X490Y503D01*
X488Y503D01*
X488Y511D01*
X486Y511D01*
X486Y519D01*
X484Y519D01*
X484Y527D01*
X478Y527D01*
X478Y529D01*
X472Y529D01*
X472Y531D01*
X470Y531D01*
X470Y533D01*
X466Y533D01*
X466Y535D01*
X462Y535D01*
X462Y537D01*
X460Y537D01*
X460Y539D01*
X458Y539D01*
X458Y541D01*
X456Y541D01*
X456Y543D01*
X454Y543D01*
X454Y545D01*
X452Y545D01*
X452Y547D01*
X450Y547D01*
X450Y551D01*
X448Y551D01*
X448Y553D01*
X446Y553D01*
X446Y557D01*
X444Y557D01*
X444Y561D01*
X442Y561D01*
X442Y567D01*
X440Y567D01*
X440Y585D01*
X442Y585D01*
X442Y593D01*
X444Y593D01*
X444Y597D01*
X446Y597D01*
X446Y599D01*
X448Y599D01*
X448Y603D01*
X450Y603D01*
X450Y605D01*
X452Y605D01*
X452Y609D01*
X454Y609D01*
X454Y611D01*
X456Y611D01*
X456Y613D01*
X458Y613D01*
X458Y615D01*
X460Y615D01*
X460Y617D01*
X464Y617D01*
X464Y619D01*
X466Y619D01*
X466Y621D01*
X470Y621D01*
X470Y623D01*
X474Y623D01*
X474Y625D01*
X478Y625D01*
X478Y627D01*
X486Y627D01*
X486Y629D01*
X52Y629D01*
G37*
D02*
G36*
X496Y629D02*
X496Y627D01*
X504Y627D01*
X504Y625D01*
X510Y625D01*
X510Y623D01*
X514Y623D01*
X514Y621D01*
X516Y621D01*
X516Y619D01*
X520Y619D01*
X520Y617D01*
X522Y617D01*
X522Y615D01*
X524Y615D01*
X524Y613D01*
X526Y613D01*
X526Y611D01*
X528Y611D01*
X528Y609D01*
X530Y609D01*
X530Y607D01*
X532Y607D01*
X532Y605D01*
X534Y605D01*
X534Y601D01*
X536Y601D01*
X536Y597D01*
X538Y597D01*
X538Y593D01*
X540Y593D01*
X540Y589D01*
X542Y589D01*
X542Y565D01*
X540Y565D01*
X540Y559D01*
X538Y559D01*
X538Y555D01*
X536Y555D01*
X536Y553D01*
X534Y553D01*
X534Y549D01*
X532Y549D01*
X532Y547D01*
X530Y547D01*
X530Y545D01*
X528Y545D01*
X528Y543D01*
X526Y543D01*
X526Y525D01*
X740Y525D01*
X740Y527D01*
X734Y527D01*
X734Y529D01*
X728Y529D01*
X728Y531D01*
X724Y531D01*
X724Y533D01*
X722Y533D01*
X722Y535D01*
X718Y535D01*
X718Y537D01*
X716Y537D01*
X716Y539D01*
X714Y539D01*
X714Y541D01*
X712Y541D01*
X712Y543D01*
X710Y543D01*
X710Y545D01*
X708Y545D01*
X708Y547D01*
X706Y547D01*
X706Y551D01*
X704Y551D01*
X704Y553D01*
X702Y553D01*
X702Y557D01*
X700Y557D01*
X700Y561D01*
X698Y561D01*
X698Y567D01*
X696Y567D01*
X696Y587D01*
X698Y587D01*
X698Y593D01*
X700Y593D01*
X700Y597D01*
X702Y597D01*
X702Y599D01*
X704Y599D01*
X704Y603D01*
X706Y603D01*
X706Y605D01*
X708Y605D01*
X708Y609D01*
X710Y609D01*
X710Y611D01*
X712Y611D01*
X712Y613D01*
X714Y613D01*
X714Y615D01*
X716Y615D01*
X716Y617D01*
X720Y617D01*
X720Y619D01*
X722Y619D01*
X722Y621D01*
X726Y621D01*
X726Y623D01*
X730Y623D01*
X730Y625D01*
X734Y625D01*
X734Y627D01*
X742Y627D01*
X742Y629D01*
X496Y629D01*
G37*
D02*
G36*
X526Y525D02*
X526Y523D01*
X1646Y523D01*
X1646Y525D01*
X526Y525D01*
G37*
D02*
G36*
X526Y525D02*
X526Y523D01*
X1646Y523D01*
X1646Y525D01*
X526Y525D01*
G37*
D02*
G36*
X526Y523D02*
X526Y515D01*
X528Y515D01*
X528Y507D01*
X530Y507D01*
X530Y499D01*
X532Y499D01*
X532Y491D01*
X534Y491D01*
X534Y483D01*
X536Y483D01*
X536Y475D01*
X538Y475D01*
X538Y467D01*
X540Y467D01*
X540Y459D01*
X542Y459D01*
X542Y451D01*
X544Y451D01*
X544Y443D01*
X546Y443D01*
X546Y435D01*
X548Y435D01*
X548Y427D01*
X550Y427D01*
X550Y419D01*
X552Y419D01*
X552Y409D01*
X554Y409D01*
X554Y401D01*
X556Y401D01*
X556Y393D01*
X558Y393D01*
X558Y385D01*
X560Y385D01*
X560Y377D01*
X562Y377D01*
X562Y369D01*
X564Y369D01*
X564Y361D01*
X566Y361D01*
X566Y359D01*
X596Y359D01*
X596Y357D01*
X634Y357D01*
X634Y355D01*
X672Y355D01*
X672Y353D01*
X708Y353D01*
X708Y351D01*
X746Y351D01*
X746Y349D01*
X782Y349D01*
X782Y347D01*
X820Y347D01*
X820Y345D01*
X856Y345D01*
X856Y343D01*
X894Y343D01*
X894Y341D01*
X930Y341D01*
X930Y339D01*
X968Y339D01*
X968Y337D01*
X1004Y337D01*
X1004Y335D01*
X1042Y335D01*
X1042Y333D01*
X1078Y333D01*
X1078Y331D01*
X1116Y331D01*
X1116Y329D01*
X1152Y329D01*
X1152Y327D01*
X1190Y327D01*
X1190Y325D01*
X1226Y325D01*
X1226Y323D01*
X1264Y323D01*
X1264Y321D01*
X1300Y321D01*
X1300Y319D01*
X1308Y319D01*
X1308Y317D01*
X1310Y317D01*
X1310Y315D01*
X1312Y315D01*
X1312Y313D01*
X1314Y313D01*
X1314Y311D01*
X1316Y311D01*
X1316Y307D01*
X1318Y307D01*
X1318Y171D01*
X1320Y171D01*
X1320Y153D01*
X1322Y153D01*
X1322Y151D01*
X1326Y151D01*
X1326Y149D01*
X1328Y149D01*
X1328Y147D01*
X1332Y147D01*
X1332Y145D01*
X1334Y145D01*
X1334Y143D01*
X1336Y143D01*
X1336Y141D01*
X1338Y141D01*
X1338Y137D01*
X1340Y137D01*
X1340Y135D01*
X1342Y135D01*
X1342Y133D01*
X1362Y133D01*
X1362Y135D01*
X1364Y135D01*
X1364Y137D01*
X1366Y137D01*
X1366Y139D01*
X1368Y139D01*
X1368Y143D01*
X1370Y143D01*
X1370Y145D01*
X1374Y145D01*
X1374Y147D01*
X1376Y147D01*
X1376Y149D01*
X1378Y149D01*
X1378Y151D01*
X1382Y151D01*
X1382Y181D01*
X1380Y181D01*
X1380Y293D01*
X1378Y293D01*
X1378Y389D01*
X1380Y389D01*
X1380Y391D01*
X1382Y391D01*
X1382Y395D01*
X1386Y395D01*
X1386Y397D01*
X1388Y397D01*
X1388Y399D01*
X1394Y399D01*
X1394Y401D01*
X1646Y401D01*
X1646Y417D01*
X1670Y417D01*
X1670Y447D01*
X1646Y447D01*
X1646Y523D01*
X526Y523D01*
G37*
D02*
G36*
X52Y159D02*
X52Y147D01*
X762Y147D01*
X762Y145D01*
X770Y145D01*
X770Y143D01*
X774Y143D01*
X774Y141D01*
X778Y141D01*
X778Y139D01*
X782Y139D01*
X782Y137D01*
X786Y137D01*
X786Y135D01*
X790Y135D01*
X790Y133D01*
X792Y133D01*
X792Y131D01*
X794Y131D01*
X794Y129D01*
X798Y129D01*
X798Y127D01*
X800Y127D01*
X800Y125D01*
X802Y125D01*
X802Y123D01*
X804Y123D01*
X804Y121D01*
X806Y121D01*
X806Y119D01*
X808Y119D01*
X808Y117D01*
X810Y117D01*
X810Y115D01*
X812Y115D01*
X812Y111D01*
X814Y111D01*
X814Y109D01*
X816Y109D01*
X816Y105D01*
X818Y105D01*
X818Y103D01*
X820Y103D01*
X820Y99D01*
X822Y99D01*
X822Y95D01*
X824Y95D01*
X824Y91D01*
X826Y91D01*
X826Y85D01*
X828Y85D01*
X828Y77D01*
X830Y77D01*
X830Y47D01*
X1090Y47D01*
X1090Y67D01*
X1086Y67D01*
X1086Y69D01*
X1082Y69D01*
X1082Y71D01*
X1078Y71D01*
X1078Y73D01*
X1076Y73D01*
X1076Y75D01*
X1074Y75D01*
X1074Y77D01*
X1072Y77D01*
X1072Y79D01*
X1070Y79D01*
X1070Y81D01*
X1068Y81D01*
X1068Y83D01*
X1066Y83D01*
X1066Y85D01*
X1064Y85D01*
X1064Y87D01*
X1062Y87D01*
X1062Y91D01*
X1060Y91D01*
X1060Y95D01*
X1058Y95D01*
X1058Y101D01*
X1056Y101D01*
X1056Y121D01*
X1058Y121D01*
X1058Y127D01*
X1060Y127D01*
X1060Y131D01*
X1062Y131D01*
X1062Y135D01*
X1064Y135D01*
X1064Y137D01*
X1066Y137D01*
X1066Y139D01*
X1068Y139D01*
X1068Y143D01*
X1070Y143D01*
X1070Y145D01*
X1074Y145D01*
X1074Y147D01*
X1076Y147D01*
X1076Y149D01*
X1078Y149D01*
X1078Y151D01*
X1082Y151D01*
X1082Y153D01*
X1086Y153D01*
X1086Y155D01*
X1090Y155D01*
X1090Y157D01*
X1100Y157D01*
X1100Y159D01*
X52Y159D01*
G37*
D02*
G36*
X1104Y159D02*
X1104Y157D01*
X1114Y157D01*
X1114Y155D01*
X1120Y155D01*
X1120Y153D01*
X1122Y153D01*
X1122Y151D01*
X1126Y151D01*
X1126Y149D01*
X1128Y149D01*
X1128Y147D01*
X1132Y147D01*
X1132Y145D01*
X1134Y145D01*
X1134Y143D01*
X1136Y143D01*
X1136Y141D01*
X1138Y141D01*
X1138Y137D01*
X1140Y137D01*
X1140Y135D01*
X1142Y135D01*
X1142Y133D01*
X1162Y133D01*
X1162Y135D01*
X1164Y135D01*
X1164Y137D01*
X1166Y137D01*
X1166Y139D01*
X1168Y139D01*
X1168Y143D01*
X1170Y143D01*
X1170Y145D01*
X1174Y145D01*
X1174Y147D01*
X1176Y147D01*
X1176Y149D01*
X1178Y149D01*
X1178Y151D01*
X1182Y151D01*
X1182Y153D01*
X1186Y153D01*
X1186Y155D01*
X1190Y155D01*
X1190Y157D01*
X1200Y157D01*
X1200Y159D01*
X1104Y159D01*
G37*
D02*
G36*
X52Y147D02*
X52Y71D01*
X54Y71D01*
X54Y67D01*
X56Y67D01*
X56Y63D01*
X58Y63D01*
X58Y61D01*
X60Y61D01*
X60Y59D01*
X62Y59D01*
X62Y57D01*
X64Y57D01*
X64Y55D01*
X66Y55D01*
X66Y53D01*
X70Y53D01*
X70Y51D01*
X74Y51D01*
X74Y49D01*
X82Y49D01*
X82Y47D01*
X664Y47D01*
X664Y73D01*
X666Y73D01*
X666Y83D01*
X668Y83D01*
X668Y89D01*
X670Y89D01*
X670Y93D01*
X672Y93D01*
X672Y97D01*
X674Y97D01*
X674Y101D01*
X676Y101D01*
X676Y105D01*
X678Y105D01*
X678Y109D01*
X680Y109D01*
X680Y111D01*
X682Y111D01*
X682Y113D01*
X684Y113D01*
X684Y115D01*
X686Y115D01*
X686Y119D01*
X688Y119D01*
X688Y121D01*
X690Y121D01*
X690Y123D01*
X692Y123D01*
X692Y125D01*
X694Y125D01*
X694Y127D01*
X698Y127D01*
X698Y129D01*
X700Y129D01*
X700Y131D01*
X702Y131D01*
X702Y133D01*
X706Y133D01*
X706Y135D01*
X708Y135D01*
X708Y137D01*
X712Y137D01*
X712Y139D01*
X716Y139D01*
X716Y141D01*
X720Y141D01*
X720Y143D01*
X726Y143D01*
X726Y145D01*
X732Y145D01*
X732Y147D01*
X52Y147D01*
G37*
D02*
G36*
X1890Y1425D02*
X1890Y1301D01*
X1888Y1301D01*
X1888Y1295D01*
X1886Y1295D01*
X1886Y1293D01*
X1884Y1293D01*
X1884Y1291D01*
X1882Y1291D01*
X1882Y1289D01*
X1878Y1289D01*
X1878Y1287D01*
X1872Y1287D01*
X1872Y1267D01*
X1920Y1267D01*
X1920Y1425D01*
X1890Y1425D01*
G37*
D02*
G36*
X1810Y1417D02*
X1810Y1399D01*
X1808Y1399D01*
X1808Y1395D01*
X1806Y1395D01*
X1806Y1393D01*
X1804Y1393D01*
X1804Y1391D01*
X1802Y1391D01*
X1802Y1389D01*
X1800Y1389D01*
X1800Y1387D01*
X1794Y1387D01*
X1794Y1385D01*
X1418Y1385D01*
X1418Y1383D01*
X1396Y1383D01*
X1396Y941D01*
X1398Y941D01*
X1398Y939D01*
X1400Y939D01*
X1400Y937D01*
X1404Y937D01*
X1404Y935D01*
X1406Y935D01*
X1406Y933D01*
X1410Y933D01*
X1410Y931D01*
X1412Y931D01*
X1412Y929D01*
X1416Y929D01*
X1416Y927D01*
X1418Y927D01*
X1418Y925D01*
X1422Y925D01*
X1422Y923D01*
X1424Y923D01*
X1424Y921D01*
X1444Y921D01*
X1444Y1017D01*
X1502Y1017D01*
X1502Y1021D01*
X1504Y1021D01*
X1504Y1025D01*
X1506Y1025D01*
X1506Y1027D01*
X1508Y1027D01*
X1508Y1031D01*
X1510Y1031D01*
X1510Y1035D01*
X1512Y1035D01*
X1512Y1039D01*
X1514Y1039D01*
X1514Y1043D01*
X1516Y1043D01*
X1516Y1045D01*
X1518Y1045D01*
X1518Y1055D01*
X1488Y1055D01*
X1488Y1057D01*
X1484Y1057D01*
X1484Y1059D01*
X1480Y1059D01*
X1480Y1061D01*
X1478Y1061D01*
X1478Y1063D01*
X1474Y1063D01*
X1474Y1065D01*
X1472Y1065D01*
X1472Y1067D01*
X1470Y1067D01*
X1470Y1069D01*
X1468Y1069D01*
X1468Y1073D01*
X1466Y1073D01*
X1466Y1077D01*
X1464Y1077D01*
X1464Y1081D01*
X1462Y1081D01*
X1462Y1097D01*
X1464Y1097D01*
X1464Y1101D01*
X1466Y1101D01*
X1466Y1105D01*
X1468Y1105D01*
X1468Y1107D01*
X1470Y1107D01*
X1470Y1109D01*
X1472Y1109D01*
X1472Y1135D01*
X1470Y1135D01*
X1470Y1155D01*
X1468Y1155D01*
X1468Y1177D01*
X1466Y1177D01*
X1466Y1199D01*
X1464Y1199D01*
X1464Y1219D01*
X1462Y1219D01*
X1462Y1241D01*
X1460Y1241D01*
X1460Y1263D01*
X1458Y1263D01*
X1458Y1283D01*
X1456Y1283D01*
X1456Y1313D01*
X1458Y1313D01*
X1458Y1317D01*
X1460Y1317D01*
X1460Y1319D01*
X1462Y1319D01*
X1462Y1321D01*
X1464Y1321D01*
X1464Y1323D01*
X1470Y1323D01*
X1470Y1325D01*
X1850Y1325D01*
X1850Y1417D01*
X1810Y1417D01*
G37*
D02*
G36*
X1498Y1285D02*
X1498Y1265D01*
X1500Y1265D01*
X1500Y1243D01*
X1502Y1243D01*
X1502Y1221D01*
X1504Y1221D01*
X1504Y1201D01*
X1506Y1201D01*
X1506Y1179D01*
X1508Y1179D01*
X1508Y1157D01*
X1510Y1157D01*
X1510Y1135D01*
X1512Y1135D01*
X1512Y1115D01*
X1516Y1115D01*
X1516Y1113D01*
X1518Y1113D01*
X1518Y1111D01*
X1520Y1111D01*
X1520Y1109D01*
X1522Y1109D01*
X1522Y1105D01*
X1524Y1105D01*
X1524Y1103D01*
X1526Y1103D01*
X1526Y1099D01*
X1532Y1099D01*
X1532Y1097D01*
X1540Y1097D01*
X1540Y1095D01*
X1548Y1095D01*
X1548Y1093D01*
X1556Y1093D01*
X1556Y1091D01*
X1564Y1091D01*
X1564Y1089D01*
X1584Y1089D01*
X1584Y1285D01*
X1498Y1285D01*
G37*
D02*
G36*
X1448Y925D02*
X1448Y905D01*
X1450Y905D01*
X1450Y903D01*
X1452Y903D01*
X1452Y901D01*
X1456Y901D01*
X1456Y899D01*
X1458Y899D01*
X1458Y897D01*
X1462Y897D01*
X1462Y895D01*
X1464Y895D01*
X1464Y893D01*
X1546Y893D01*
X1546Y871D01*
X1566Y871D01*
X1566Y873D01*
X1568Y873D01*
X1568Y875D01*
X1572Y875D01*
X1572Y877D01*
X1574Y877D01*
X1574Y897D01*
X1568Y897D01*
X1568Y899D01*
X1566Y899D01*
X1566Y901D01*
X1564Y901D01*
X1564Y903D01*
X1562Y903D01*
X1562Y907D01*
X1560Y907D01*
X1560Y925D01*
X1448Y925D01*
G37*
D02*
G36*
X1860Y839D02*
X1860Y785D01*
X1880Y785D01*
X1880Y787D01*
X1914Y787D01*
X1914Y799D01*
X1912Y799D01*
X1912Y805D01*
X1910Y805D01*
X1910Y809D01*
X1908Y809D01*
X1908Y811D01*
X1906Y811D01*
X1906Y813D01*
X1904Y813D01*
X1904Y817D01*
X1902Y817D01*
X1902Y819D01*
X1900Y819D01*
X1900Y821D01*
X1898Y821D01*
X1898Y825D01*
X1896Y825D01*
X1896Y827D01*
X1894Y827D01*
X1894Y829D01*
X1892Y829D01*
X1892Y833D01*
X1890Y833D01*
X1890Y835D01*
X1888Y835D01*
X1888Y837D01*
X1886Y837D01*
X1886Y839D01*
X1860Y839D01*
G37*
D02*
G36*
X1606Y823D02*
X1606Y821D01*
X1604Y821D01*
X1604Y819D01*
X1602Y819D01*
X1602Y817D01*
X1598Y817D01*
X1598Y815D01*
X1592Y815D01*
X1592Y813D01*
X1580Y813D01*
X1580Y793D01*
X1646Y793D01*
X1646Y823D01*
X1606Y823D01*
G37*
D02*
G36*
X1860Y723D02*
X1860Y721D01*
X1880Y721D01*
X1880Y723D01*
X1860Y723D01*
G37*
D02*
G36*
X1898Y723D02*
X1898Y721D01*
X1920Y721D01*
X1920Y723D01*
X1898Y723D01*
G37*
D02*
G36*
X1860Y721D02*
X1860Y719D01*
X1920Y719D01*
X1920Y721D01*
X1860Y721D01*
G37*
D02*
G36*
X1860Y721D02*
X1860Y719D01*
X1920Y719D01*
X1920Y721D01*
X1860Y721D01*
G37*
D02*
G36*
X1860Y719D02*
X1860Y675D01*
X1920Y675D01*
X1920Y719D01*
X1860Y719D01*
G37*
D02*
G36*
X1860Y635D02*
X1860Y605D01*
X1770Y605D01*
X1770Y563D01*
X1772Y563D01*
X1772Y561D01*
X1774Y561D01*
X1774Y559D01*
X1776Y559D01*
X1776Y557D01*
X1778Y557D01*
X1778Y555D01*
X1782Y555D01*
X1782Y553D01*
X1784Y553D01*
X1784Y551D01*
X1786Y551D01*
X1786Y549D01*
X1860Y549D01*
X1860Y447D01*
X1838Y447D01*
X1838Y417D01*
X1864Y417D01*
X1864Y343D01*
X1826Y343D01*
X1826Y339D01*
X1824Y339D01*
X1824Y333D01*
X1822Y333D01*
X1822Y327D01*
X1820Y327D01*
X1820Y319D01*
X1818Y319D01*
X1818Y313D01*
X1816Y313D01*
X1816Y307D01*
X1814Y307D01*
X1814Y301D01*
X1812Y301D01*
X1812Y293D01*
X1810Y293D01*
X1810Y287D01*
X1808Y287D01*
X1808Y281D01*
X1806Y281D01*
X1806Y275D01*
X1804Y275D01*
X1804Y269D01*
X1802Y269D01*
X1802Y263D01*
X1800Y263D01*
X1800Y261D01*
X1798Y261D01*
X1798Y259D01*
X1796Y259D01*
X1796Y257D01*
X1794Y257D01*
X1794Y255D01*
X1790Y255D01*
X1790Y253D01*
X1786Y253D01*
X1786Y251D01*
X1782Y251D01*
X1782Y249D01*
X1776Y249D01*
X1776Y247D01*
X1772Y247D01*
X1772Y245D01*
X1768Y245D01*
X1768Y243D01*
X1762Y243D01*
X1762Y241D01*
X1758Y241D01*
X1758Y239D01*
X1752Y239D01*
X1752Y237D01*
X1748Y237D01*
X1748Y235D01*
X1742Y235D01*
X1742Y233D01*
X1738Y233D01*
X1738Y231D01*
X1734Y231D01*
X1734Y229D01*
X1728Y229D01*
X1728Y227D01*
X1724Y227D01*
X1724Y189D01*
X1726Y189D01*
X1726Y159D01*
X1804Y159D01*
X1804Y157D01*
X1814Y157D01*
X1814Y155D01*
X1820Y155D01*
X1820Y153D01*
X1822Y153D01*
X1822Y151D01*
X1826Y151D01*
X1826Y149D01*
X1828Y149D01*
X1828Y147D01*
X1832Y147D01*
X1832Y145D01*
X1834Y145D01*
X1834Y143D01*
X1836Y143D01*
X1836Y141D01*
X1838Y141D01*
X1838Y137D01*
X1840Y137D01*
X1840Y135D01*
X1842Y135D01*
X1842Y133D01*
X1844Y133D01*
X1844Y129D01*
X1846Y129D01*
X1846Y123D01*
X1848Y123D01*
X1848Y115D01*
X1850Y115D01*
X1850Y107D01*
X1848Y107D01*
X1848Y99D01*
X1846Y99D01*
X1846Y93D01*
X1844Y93D01*
X1844Y91D01*
X1842Y91D01*
X1842Y87D01*
X1840Y87D01*
X1840Y85D01*
X1838Y85D01*
X1838Y81D01*
X1836Y81D01*
X1836Y79D01*
X1834Y79D01*
X1834Y77D01*
X1832Y77D01*
X1832Y75D01*
X1828Y75D01*
X1828Y73D01*
X1826Y73D01*
X1826Y71D01*
X1822Y71D01*
X1822Y69D01*
X1820Y69D01*
X1820Y67D01*
X1814Y67D01*
X1814Y47D01*
X1920Y47D01*
X1920Y635D01*
X1860Y635D01*
G37*
D02*
G36*
X1726Y159D02*
X1726Y149D01*
X1728Y149D01*
X1728Y147D01*
X1732Y147D01*
X1732Y145D01*
X1734Y145D01*
X1734Y143D01*
X1736Y143D01*
X1736Y141D01*
X1738Y141D01*
X1738Y137D01*
X1740Y137D01*
X1740Y135D01*
X1742Y135D01*
X1742Y131D01*
X1762Y131D01*
X1762Y135D01*
X1764Y135D01*
X1764Y137D01*
X1766Y137D01*
X1766Y139D01*
X1768Y139D01*
X1768Y143D01*
X1770Y143D01*
X1770Y145D01*
X1774Y145D01*
X1774Y147D01*
X1776Y147D01*
X1776Y149D01*
X1778Y149D01*
X1778Y151D01*
X1782Y151D01*
X1782Y153D01*
X1786Y153D01*
X1786Y155D01*
X1790Y155D01*
X1790Y157D01*
X1800Y157D01*
X1800Y159D01*
X1726Y159D01*
G37*
D02*
G36*
X1738Y517D02*
X1738Y447D01*
X1722Y447D01*
X1722Y427D01*
X1724Y427D01*
X1724Y417D01*
X1786Y417D01*
X1786Y447D01*
X1768Y447D01*
X1768Y509D01*
X1766Y509D01*
X1766Y511D01*
X1764Y511D01*
X1764Y513D01*
X1760Y513D01*
X1760Y515D01*
X1758Y515D01*
X1758Y517D01*
X1738Y517D01*
G37*
D02*
G36*
X1418Y361D02*
X1418Y293D01*
X1420Y293D01*
X1420Y183D01*
X1422Y183D01*
X1422Y159D01*
X1604Y159D01*
X1604Y157D01*
X1614Y157D01*
X1614Y155D01*
X1620Y155D01*
X1620Y153D01*
X1622Y153D01*
X1622Y151D01*
X1626Y151D01*
X1626Y149D01*
X1628Y149D01*
X1628Y147D01*
X1632Y147D01*
X1632Y145D01*
X1634Y145D01*
X1634Y143D01*
X1636Y143D01*
X1636Y141D01*
X1638Y141D01*
X1638Y137D01*
X1640Y137D01*
X1640Y135D01*
X1642Y135D01*
X1642Y133D01*
X1662Y133D01*
X1662Y135D01*
X1664Y135D01*
X1664Y137D01*
X1666Y137D01*
X1666Y139D01*
X1668Y139D01*
X1668Y143D01*
X1670Y143D01*
X1670Y145D01*
X1674Y145D01*
X1674Y189D01*
X1672Y189D01*
X1672Y237D01*
X1670Y237D01*
X1670Y245D01*
X1672Y245D01*
X1672Y253D01*
X1674Y253D01*
X1674Y257D01*
X1676Y257D01*
X1676Y259D01*
X1678Y259D01*
X1678Y261D01*
X1680Y261D01*
X1680Y263D01*
X1682Y263D01*
X1682Y265D01*
X1684Y265D01*
X1684Y267D01*
X1690Y267D01*
X1690Y269D01*
X1694Y269D01*
X1694Y271D01*
X1698Y271D01*
X1698Y273D01*
X1704Y273D01*
X1704Y275D01*
X1708Y275D01*
X1708Y277D01*
X1714Y277D01*
X1714Y279D01*
X1718Y279D01*
X1718Y281D01*
X1722Y281D01*
X1722Y283D01*
X1728Y283D01*
X1728Y285D01*
X1732Y285D01*
X1732Y287D01*
X1738Y287D01*
X1738Y289D01*
X1742Y289D01*
X1742Y291D01*
X1748Y291D01*
X1748Y293D01*
X1752Y293D01*
X1752Y295D01*
X1756Y295D01*
X1756Y297D01*
X1758Y297D01*
X1758Y301D01*
X1760Y301D01*
X1760Y309D01*
X1762Y309D01*
X1762Y315D01*
X1764Y315D01*
X1764Y321D01*
X1766Y321D01*
X1766Y343D01*
X1646Y343D01*
X1646Y361D01*
X1418Y361D01*
G37*
D02*
G36*
X1422Y159D02*
X1422Y151D01*
X1426Y151D01*
X1426Y149D01*
X1428Y149D01*
X1428Y147D01*
X1432Y147D01*
X1432Y145D01*
X1434Y145D01*
X1434Y143D01*
X1436Y143D01*
X1436Y141D01*
X1438Y141D01*
X1438Y137D01*
X1440Y137D01*
X1440Y135D01*
X1442Y135D01*
X1442Y133D01*
X1462Y133D01*
X1462Y135D01*
X1464Y135D01*
X1464Y137D01*
X1466Y137D01*
X1466Y139D01*
X1468Y139D01*
X1468Y143D01*
X1470Y143D01*
X1470Y145D01*
X1474Y145D01*
X1474Y147D01*
X1476Y147D01*
X1476Y149D01*
X1478Y149D01*
X1478Y151D01*
X1482Y151D01*
X1482Y153D01*
X1486Y153D01*
X1486Y155D01*
X1490Y155D01*
X1490Y157D01*
X1500Y157D01*
X1500Y159D01*
X1422Y159D01*
G37*
D02*
G36*
X1504Y159D02*
X1504Y157D01*
X1514Y157D01*
X1514Y155D01*
X1520Y155D01*
X1520Y153D01*
X1522Y153D01*
X1522Y151D01*
X1526Y151D01*
X1526Y149D01*
X1528Y149D01*
X1528Y147D01*
X1532Y147D01*
X1532Y145D01*
X1534Y145D01*
X1534Y143D01*
X1536Y143D01*
X1536Y141D01*
X1538Y141D01*
X1538Y137D01*
X1540Y137D01*
X1540Y135D01*
X1542Y135D01*
X1542Y133D01*
X1562Y133D01*
X1562Y135D01*
X1564Y135D01*
X1564Y137D01*
X1566Y137D01*
X1566Y139D01*
X1568Y139D01*
X1568Y143D01*
X1570Y143D01*
X1570Y145D01*
X1574Y145D01*
X1574Y147D01*
X1576Y147D01*
X1576Y149D01*
X1578Y149D01*
X1578Y151D01*
X1582Y151D01*
X1582Y153D01*
X1586Y153D01*
X1586Y155D01*
X1590Y155D01*
X1590Y157D01*
X1600Y157D01*
X1600Y159D01*
X1504Y159D01*
G37*
D02*
G36*
X1142Y91D02*
X1142Y87D01*
X1140Y87D01*
X1140Y85D01*
X1138Y85D01*
X1138Y81D01*
X1136Y81D01*
X1136Y79D01*
X1134Y79D01*
X1134Y77D01*
X1132Y77D01*
X1132Y75D01*
X1128Y75D01*
X1128Y73D01*
X1126Y73D01*
X1126Y71D01*
X1122Y71D01*
X1122Y69D01*
X1120Y69D01*
X1120Y67D01*
X1114Y67D01*
X1114Y47D01*
X1190Y47D01*
X1190Y67D01*
X1186Y67D01*
X1186Y69D01*
X1182Y69D01*
X1182Y71D01*
X1178Y71D01*
X1178Y73D01*
X1176Y73D01*
X1176Y75D01*
X1174Y75D01*
X1174Y77D01*
X1172Y77D01*
X1172Y79D01*
X1170Y79D01*
X1170Y81D01*
X1168Y81D01*
X1168Y83D01*
X1166Y83D01*
X1166Y85D01*
X1164Y85D01*
X1164Y87D01*
X1162Y87D01*
X1162Y91D01*
X1142Y91D01*
G37*
D02*
G36*
X1242Y91D02*
X1242Y87D01*
X1240Y87D01*
X1240Y85D01*
X1238Y85D01*
X1238Y81D01*
X1236Y81D01*
X1236Y79D01*
X1234Y79D01*
X1234Y77D01*
X1232Y77D01*
X1232Y75D01*
X1228Y75D01*
X1228Y73D01*
X1226Y73D01*
X1226Y71D01*
X1222Y71D01*
X1222Y69D01*
X1220Y69D01*
X1220Y67D01*
X1214Y67D01*
X1214Y47D01*
X1290Y47D01*
X1290Y67D01*
X1286Y67D01*
X1286Y69D01*
X1282Y69D01*
X1282Y71D01*
X1278Y71D01*
X1278Y73D01*
X1276Y73D01*
X1276Y75D01*
X1274Y75D01*
X1274Y77D01*
X1272Y77D01*
X1272Y79D01*
X1270Y79D01*
X1270Y81D01*
X1268Y81D01*
X1268Y83D01*
X1266Y83D01*
X1266Y85D01*
X1264Y85D01*
X1264Y87D01*
X1262Y87D01*
X1262Y91D01*
X1242Y91D01*
G37*
D02*
G36*
X1342Y91D02*
X1342Y87D01*
X1340Y87D01*
X1340Y85D01*
X1338Y85D01*
X1338Y81D01*
X1336Y81D01*
X1336Y79D01*
X1334Y79D01*
X1334Y77D01*
X1332Y77D01*
X1332Y75D01*
X1328Y75D01*
X1328Y73D01*
X1326Y73D01*
X1326Y71D01*
X1322Y71D01*
X1322Y69D01*
X1320Y69D01*
X1320Y67D01*
X1314Y67D01*
X1314Y47D01*
X1390Y47D01*
X1390Y67D01*
X1386Y67D01*
X1386Y69D01*
X1382Y69D01*
X1382Y71D01*
X1378Y71D01*
X1378Y73D01*
X1376Y73D01*
X1376Y75D01*
X1374Y75D01*
X1374Y77D01*
X1372Y77D01*
X1372Y79D01*
X1370Y79D01*
X1370Y81D01*
X1368Y81D01*
X1368Y83D01*
X1366Y83D01*
X1366Y85D01*
X1364Y85D01*
X1364Y87D01*
X1362Y87D01*
X1362Y91D01*
X1342Y91D01*
G37*
D02*
G36*
X1442Y91D02*
X1442Y87D01*
X1440Y87D01*
X1440Y85D01*
X1438Y85D01*
X1438Y81D01*
X1436Y81D01*
X1436Y79D01*
X1434Y79D01*
X1434Y77D01*
X1432Y77D01*
X1432Y75D01*
X1428Y75D01*
X1428Y73D01*
X1426Y73D01*
X1426Y71D01*
X1422Y71D01*
X1422Y69D01*
X1420Y69D01*
X1420Y67D01*
X1414Y67D01*
X1414Y47D01*
X1490Y47D01*
X1490Y67D01*
X1486Y67D01*
X1486Y69D01*
X1482Y69D01*
X1482Y71D01*
X1478Y71D01*
X1478Y73D01*
X1476Y73D01*
X1476Y75D01*
X1474Y75D01*
X1474Y77D01*
X1472Y77D01*
X1472Y79D01*
X1470Y79D01*
X1470Y81D01*
X1468Y81D01*
X1468Y83D01*
X1466Y83D01*
X1466Y85D01*
X1464Y85D01*
X1464Y87D01*
X1462Y87D01*
X1462Y91D01*
X1442Y91D01*
G37*
D02*
G36*
X1542Y91D02*
X1542Y87D01*
X1540Y87D01*
X1540Y85D01*
X1538Y85D01*
X1538Y81D01*
X1536Y81D01*
X1536Y79D01*
X1534Y79D01*
X1534Y77D01*
X1532Y77D01*
X1532Y75D01*
X1528Y75D01*
X1528Y73D01*
X1526Y73D01*
X1526Y71D01*
X1522Y71D01*
X1522Y69D01*
X1520Y69D01*
X1520Y67D01*
X1514Y67D01*
X1514Y47D01*
X1590Y47D01*
X1590Y67D01*
X1586Y67D01*
X1586Y69D01*
X1582Y69D01*
X1582Y71D01*
X1578Y71D01*
X1578Y73D01*
X1576Y73D01*
X1576Y75D01*
X1574Y75D01*
X1574Y77D01*
X1572Y77D01*
X1572Y79D01*
X1570Y79D01*
X1570Y81D01*
X1568Y81D01*
X1568Y83D01*
X1566Y83D01*
X1566Y85D01*
X1564Y85D01*
X1564Y87D01*
X1562Y87D01*
X1562Y91D01*
X1542Y91D01*
G37*
D02*
G36*
X1642Y91D02*
X1642Y87D01*
X1640Y87D01*
X1640Y85D01*
X1638Y85D01*
X1638Y81D01*
X1636Y81D01*
X1636Y79D01*
X1634Y79D01*
X1634Y77D01*
X1632Y77D01*
X1632Y75D01*
X1628Y75D01*
X1628Y73D01*
X1626Y73D01*
X1626Y71D01*
X1622Y71D01*
X1622Y69D01*
X1620Y69D01*
X1620Y67D01*
X1614Y67D01*
X1614Y47D01*
X1690Y47D01*
X1690Y67D01*
X1686Y67D01*
X1686Y69D01*
X1682Y69D01*
X1682Y71D01*
X1678Y71D01*
X1678Y73D01*
X1676Y73D01*
X1676Y75D01*
X1674Y75D01*
X1674Y77D01*
X1672Y77D01*
X1672Y79D01*
X1670Y79D01*
X1670Y81D01*
X1668Y81D01*
X1668Y83D01*
X1666Y83D01*
X1666Y85D01*
X1664Y85D01*
X1664Y87D01*
X1662Y87D01*
X1662Y91D01*
X1642Y91D01*
G37*
D02*
G36*
X1742Y91D02*
X1742Y87D01*
X1740Y87D01*
X1740Y85D01*
X1738Y85D01*
X1738Y81D01*
X1736Y81D01*
X1736Y79D01*
X1734Y79D01*
X1734Y77D01*
X1732Y77D01*
X1732Y75D01*
X1728Y75D01*
X1728Y73D01*
X1726Y73D01*
X1726Y71D01*
X1722Y71D01*
X1722Y69D01*
X1720Y69D01*
X1720Y67D01*
X1714Y67D01*
X1714Y47D01*
X1790Y47D01*
X1790Y67D01*
X1786Y67D01*
X1786Y69D01*
X1782Y69D01*
X1782Y71D01*
X1778Y71D01*
X1778Y73D01*
X1776Y73D01*
X1776Y75D01*
X1774Y75D01*
X1774Y77D01*
X1772Y77D01*
X1772Y79D01*
X1770Y79D01*
X1770Y81D01*
X1768Y81D01*
X1768Y83D01*
X1766Y83D01*
X1766Y85D01*
X1764Y85D01*
X1764Y87D01*
X1762Y87D01*
X1762Y91D01*
X1742Y91D01*
G37*
D02*
G36*
X1533Y939D02*
X1458Y939D01*
X1458Y1002D01*
X1533Y1002D01*
X1533Y939D01*
G37*
D02*
G36*
X1533Y817D02*
X1458Y817D01*
X1458Y880D01*
X1533Y880D01*
X1533Y817D01*
G37*
D02*
G36*
X1791Y1672D02*
X1751Y1672D01*
X1751Y1687D01*
X1791Y1687D01*
X1791Y1672D01*
G37*
D02*
G36*
X1791Y1632D02*
X1751Y1632D01*
X1751Y1648D01*
X1791Y1648D01*
X1791Y1632D01*
G37*
D02*
G36*
X1791Y1593D02*
X1751Y1593D01*
X1751Y1609D01*
X1791Y1609D01*
X1791Y1593D01*
G37*
D02*
G36*
X1913Y1594D02*
X1873Y1594D01*
X1873Y1610D01*
X1913Y1610D01*
X1913Y1594D01*
G37*
D02*
G36*
X1913Y1632D02*
X1873Y1632D01*
X1873Y1648D01*
X1913Y1648D01*
X1913Y1632D01*
G37*
D02*
G36*
X1913Y1672D02*
X1873Y1672D01*
X1873Y1687D01*
X1913Y1687D01*
X1913Y1672D01*
G37*
D02*
G36*
X1862Y1593D02*
X1802Y1593D01*
X1802Y1687D01*
X1862Y1687D01*
X1862Y1593D01*
G37*
D02*
G54D24*
X1370Y1530D02*
X1306Y1530D01*
X1306Y1593D01*
X1370Y1593D01*
X1370Y1530D01*
D02*
G36*
X1806Y1011D02*
X1924Y1011D01*
X1924Y1001D01*
X1806Y1001D01*
X1806Y1011D01*
G37*
D02*
G36*
X1806Y1031D02*
X1924Y1031D01*
X1924Y1021D01*
X1806Y1021D01*
X1806Y1031D01*
G37*
D02*
G36*
X1806Y1051D02*
X1924Y1051D01*
X1924Y1041D01*
X1806Y1041D01*
X1806Y1051D01*
G37*
D02*
G36*
X1806Y1070D02*
X1924Y1070D01*
X1924Y1061D01*
X1806Y1061D01*
X1806Y1070D01*
G37*
D02*
G36*
X1806Y1090D02*
X1924Y1090D01*
X1924Y1080D01*
X1806Y1080D01*
X1806Y1090D01*
G37*
D02*
G36*
X1610Y1090D02*
X1728Y1090D01*
X1728Y1080D01*
X1610Y1080D01*
X1610Y1090D01*
G37*
D02*
G36*
X1610Y1070D02*
X1728Y1070D01*
X1728Y1061D01*
X1610Y1061D01*
X1610Y1070D01*
G37*
D02*
G36*
X1610Y1051D02*
X1728Y1051D01*
X1728Y1041D01*
X1610Y1041D01*
X1610Y1051D01*
G37*
D02*
G36*
X1610Y1031D02*
X1728Y1031D01*
X1728Y1021D01*
X1610Y1021D01*
X1610Y1031D01*
G37*
D02*
G36*
X1610Y1011D02*
X1728Y1011D01*
X1728Y1001D01*
X1610Y1001D01*
X1610Y1011D01*
G37*
D02*
G54D25*
X2281Y1681D02*
X2361Y1681D01*
X2277Y1680D02*
X2365Y1680D01*
X2275Y1679D02*
X2367Y1679D01*
X2273Y1678D02*
X2369Y1678D01*
X2271Y1677D02*
X2371Y1677D01*
X2269Y1676D02*
X2372Y1676D01*
X2268Y1675D02*
X2374Y1675D01*
X2267Y1674D02*
X2375Y1674D01*
X2266Y1673D02*
X2376Y1673D01*
X2265Y1672D02*
X2377Y1672D01*
X2264Y1671D02*
X2378Y1671D01*
X2263Y1670D02*
X2379Y1670D01*
X2262Y1669D02*
X2380Y1669D01*
X2261Y1668D02*
X2380Y1668D01*
X2261Y1667D02*
X2381Y1667D01*
X2260Y1666D02*
X2382Y1666D01*
X2259Y1665D02*
X2316Y1665D01*
X2326Y1665D02*
X2382Y1665D01*
X2259Y1664D02*
X2313Y1664D01*
X2329Y1664D02*
X2383Y1664D01*
X2258Y1663D02*
X2311Y1663D01*
X2331Y1663D02*
X2384Y1663D01*
X2258Y1662D02*
X2310Y1662D01*
X2332Y1662D02*
X2384Y1662D01*
X2257Y1661D02*
X2308Y1661D01*
X2333Y1661D02*
X2385Y1661D01*
X2257Y1660D02*
X2307Y1660D01*
X2334Y1660D02*
X2385Y1660D01*
X2256Y1659D02*
X2306Y1659D01*
X2336Y1659D02*
X2386Y1659D01*
X2256Y1658D02*
X2305Y1658D01*
X2336Y1658D02*
X2386Y1658D01*
X2255Y1657D02*
X2305Y1657D01*
X2337Y1657D02*
X2386Y1657D01*
X2255Y1656D02*
X2304Y1656D01*
X2338Y1656D02*
X2387Y1656D01*
X2255Y1655D02*
X2303Y1655D01*
X2338Y1655D02*
X2387Y1655D01*
X2254Y1654D02*
X2303Y1654D01*
X2339Y1654D02*
X2387Y1654D01*
X2254Y1653D02*
X2302Y1653D01*
X2339Y1653D02*
X2388Y1653D01*
X2254Y1652D02*
X2302Y1652D01*
X2340Y1652D02*
X2388Y1652D01*
X2254Y1651D02*
X2301Y1651D01*
X2340Y1651D02*
X2388Y1651D01*
X2253Y1650D02*
X2301Y1650D01*
X2341Y1650D02*
X2388Y1650D01*
X2253Y1649D02*
X2301Y1649D01*
X2341Y1649D02*
X2388Y1649D01*
X2253Y1648D02*
X2300Y1648D01*
X2341Y1648D02*
X2389Y1648D01*
X2253Y1647D02*
X2300Y1647D01*
X2342Y1647D02*
X2389Y1647D01*
X2253Y1646D02*
X2300Y1646D01*
X2342Y1646D02*
X2389Y1646D01*
X2253Y1645D02*
X2300Y1645D01*
X2342Y1645D02*
X2389Y1645D01*
X2253Y1644D02*
X2300Y1644D01*
X2342Y1644D02*
X2389Y1644D01*
X2253Y1643D02*
X2299Y1643D01*
X2342Y1643D02*
X2389Y1643D01*
X2253Y1642D02*
X2299Y1642D01*
X2342Y1642D02*
X2389Y1642D01*
X2253Y1641D02*
X2299Y1641D01*
X2342Y1641D02*
X2389Y1641D01*
X2252Y1640D02*
X2299Y1640D01*
X2342Y1640D02*
X2389Y1640D01*
X2253Y1639D02*
X2299Y1639D01*
X2342Y1639D02*
X2389Y1639D01*
X2253Y1638D02*
X2299Y1638D01*
X2342Y1638D02*
X2389Y1638D01*
X2253Y1637D02*
X2300Y1637D01*
X2342Y1637D02*
X2389Y1637D01*
X2253Y1636D02*
X2300Y1636D01*
X2342Y1636D02*
X2389Y1636D01*
X2253Y1635D02*
X2300Y1635D01*
X2342Y1635D02*
X2389Y1635D01*
X2253Y1634D02*
X2300Y1634D01*
X2342Y1634D02*
X2389Y1634D01*
X2253Y1633D02*
X2300Y1633D01*
X2341Y1633D02*
X2389Y1633D01*
X2253Y1632D02*
X2301Y1632D01*
X2341Y1632D02*
X2389Y1632D01*
X2253Y1631D02*
X2301Y1631D01*
X2341Y1631D02*
X2388Y1631D01*
X2254Y1630D02*
X2301Y1630D01*
X2341Y1630D02*
X2388Y1630D01*
X2254Y1629D02*
X2302Y1629D01*
X2340Y1629D02*
X2388Y1629D01*
X2254Y1628D02*
X2302Y1628D01*
X2340Y1628D02*
X2388Y1628D01*
X2254Y1627D02*
X2303Y1627D01*
X2339Y1627D02*
X2387Y1627D01*
X2255Y1626D02*
X2303Y1626D01*
X2339Y1626D02*
X2387Y1626D01*
X2255Y1625D02*
X2304Y1625D01*
X2338Y1625D02*
X2387Y1625D01*
X2255Y1624D02*
X2304Y1624D01*
X2337Y1624D02*
X2386Y1624D01*
X2256Y1623D02*
X2305Y1623D01*
X2337Y1623D02*
X2386Y1623D01*
X2256Y1622D02*
X2306Y1622D01*
X2336Y1622D02*
X2386Y1622D01*
X2257Y1621D02*
X2307Y1621D01*
X2335Y1621D02*
X2385Y1621D01*
X2257Y1620D02*
X2308Y1620D01*
X2334Y1620D02*
X2385Y1620D01*
X2257Y1619D02*
X2309Y1619D01*
X2332Y1619D02*
X2384Y1619D01*
X2258Y1618D02*
X2311Y1618D01*
X2331Y1618D02*
X2384Y1618D01*
X2259Y1617D02*
X2312Y1617D01*
X2329Y1617D02*
X2383Y1617D01*
X2259Y1616D02*
X2315Y1616D01*
X2327Y1616D02*
X2383Y1616D01*
X2260Y1615D02*
X2382Y1615D01*
X2260Y1614D02*
X2381Y1614D01*
X2261Y1613D02*
X2381Y1613D01*
X2262Y1612D02*
X2380Y1612D01*
X2263Y1611D02*
X2379Y1611D01*
X2264Y1610D02*
X2378Y1610D01*
X2265Y1609D02*
X2377Y1609D01*
X2266Y1608D02*
X2376Y1608D01*
X2267Y1607D02*
X2375Y1607D01*
X2268Y1606D02*
X2374Y1606D01*
X2269Y1605D02*
X2373Y1605D01*
X2271Y1604D02*
X2371Y1604D01*
X2272Y1603D02*
X2369Y1603D01*
X2274Y1602D02*
X2367Y1602D01*
X2277Y1601D02*
X2365Y1601D01*
X2280Y1600D02*
X2362Y1600D01*
X2285Y1288D02*
X2357Y1288D01*
X2279Y1287D02*
X2363Y1287D01*
X2276Y1286D02*
X2366Y1286D01*
X2274Y1285D02*
X2368Y1285D01*
X2272Y1284D02*
X2370Y1284D01*
X2270Y1283D02*
X2371Y1283D01*
X2269Y1282D02*
X2373Y1282D01*
X2268Y1281D02*
X2374Y1281D01*
X2266Y1280D02*
X2375Y1280D01*
X2265Y1279D02*
X2376Y1279D01*
X2264Y1278D02*
X2377Y1278D01*
X2263Y1277D02*
X2378Y1277D01*
X2263Y1276D02*
X2379Y1276D01*
X2262Y1275D02*
X2380Y1275D01*
X2261Y1274D02*
X2381Y1274D01*
X2260Y1273D02*
X2381Y1273D01*
X2260Y1272D02*
X2320Y1272D01*
X2322Y1272D02*
X2382Y1272D01*
X2259Y1271D02*
X2314Y1271D01*
X2327Y1271D02*
X2383Y1271D01*
X2258Y1270D02*
X2312Y1270D01*
X2330Y1270D02*
X2383Y1270D01*
X2258Y1269D02*
X2311Y1269D01*
X2331Y1269D02*
X2384Y1269D01*
X2257Y1268D02*
X2309Y1268D01*
X2333Y1268D02*
X2384Y1268D01*
X2257Y1267D02*
X2308Y1267D01*
X2334Y1267D02*
X2385Y1267D01*
X2256Y1266D02*
X2307Y1266D01*
X2335Y1266D02*
X2385Y1266D01*
X2256Y1265D02*
X2306Y1265D01*
X2336Y1265D02*
X2386Y1265D01*
X2256Y1264D02*
X2305Y1264D01*
X2337Y1264D02*
X2386Y1264D01*
X2255Y1263D02*
X2304Y1263D01*
X2337Y1263D02*
X2386Y1263D01*
X2255Y1262D02*
X2304Y1262D01*
X2338Y1262D02*
X2387Y1262D01*
X2255Y1261D02*
X2303Y1261D01*
X2339Y1261D02*
X2387Y1261D01*
X2254Y1260D02*
X2302Y1260D01*
X2339Y1260D02*
X2387Y1260D01*
X2254Y1259D02*
X2302Y1259D01*
X2340Y1259D02*
X2388Y1259D01*
X2254Y1258D02*
X2302Y1258D01*
X2340Y1258D02*
X2388Y1258D01*
X2254Y1257D02*
X2301Y1257D01*
X2341Y1257D02*
X2388Y1257D01*
X2253Y1256D02*
X2301Y1256D01*
X2341Y1256D02*
X2388Y1256D01*
X2253Y1255D02*
X2301Y1255D01*
X2341Y1255D02*
X2389Y1255D01*
X2253Y1254D02*
X2300Y1254D01*
X2341Y1254D02*
X2389Y1254D01*
X2253Y1253D02*
X2300Y1253D01*
X2342Y1253D02*
X2389Y1253D01*
X2253Y1252D02*
X2300Y1252D01*
X2342Y1252D02*
X2389Y1252D01*
X2253Y1251D02*
X2300Y1251D01*
X2342Y1251D02*
X2389Y1251D01*
X2253Y1250D02*
X2299Y1250D01*
X2342Y1250D02*
X2389Y1250D01*
X2253Y1249D02*
X2299Y1249D01*
X2342Y1249D02*
X2389Y1249D01*
X2253Y1248D02*
X2299Y1248D01*
X2342Y1248D02*
X2389Y1248D01*
X2252Y1247D02*
X2299Y1247D01*
X2342Y1247D02*
X2389Y1247D01*
X2253Y1246D02*
X2299Y1246D01*
X2342Y1246D02*
X2389Y1246D01*
X2253Y1245D02*
X2299Y1245D01*
X2342Y1245D02*
X2389Y1245D01*
X2253Y1244D02*
X2299Y1244D01*
X2342Y1244D02*
X2389Y1244D01*
X2253Y1243D02*
X2300Y1243D01*
X2342Y1243D02*
X2389Y1243D01*
X2253Y1242D02*
X2300Y1242D01*
X2342Y1242D02*
X2389Y1242D01*
X2253Y1241D02*
X2300Y1241D01*
X2342Y1241D02*
X2389Y1241D01*
X2253Y1240D02*
X2300Y1240D01*
X2342Y1240D02*
X2389Y1240D01*
X2253Y1239D02*
X2300Y1239D01*
X2341Y1239D02*
X2389Y1239D01*
X2253Y1238D02*
X2301Y1238D01*
X2341Y1238D02*
X2388Y1238D01*
X2253Y1237D02*
X2301Y1237D01*
X2341Y1237D02*
X2388Y1237D01*
X2254Y1236D02*
X2301Y1236D01*
X2340Y1236D02*
X2388Y1236D01*
X2254Y1235D02*
X2302Y1235D01*
X2340Y1235D02*
X2388Y1235D01*
X2254Y1234D02*
X2302Y1234D01*
X2339Y1234D02*
X2388Y1234D01*
X2254Y1233D02*
X2303Y1233D01*
X2339Y1233D02*
X2387Y1233D01*
X2255Y1232D02*
X2303Y1232D01*
X2338Y1232D02*
X2387Y1232D01*
X2255Y1231D02*
X2304Y1231D01*
X2338Y1231D02*
X2387Y1231D01*
X2255Y1230D02*
X2305Y1230D01*
X2337Y1230D02*
X2386Y1230D01*
X2256Y1229D02*
X2305Y1229D01*
X2336Y1229D02*
X2386Y1229D01*
X2256Y1228D02*
X2306Y1228D01*
X2335Y1228D02*
X2385Y1228D01*
X2257Y1227D02*
X2307Y1227D01*
X2334Y1227D02*
X2385Y1227D01*
X2257Y1226D02*
X2308Y1226D01*
X2333Y1226D02*
X2385Y1226D01*
X2258Y1225D02*
X2310Y1225D01*
X2332Y1225D02*
X2384Y1225D01*
X2258Y1224D02*
X2311Y1224D01*
X2330Y1224D02*
X2384Y1224D01*
X2259Y1223D02*
X2313Y1223D01*
X2328Y1223D02*
X2383Y1223D01*
X2259Y1222D02*
X2316Y1222D01*
X2326Y1222D02*
X2382Y1222D01*
X2260Y1221D02*
X2382Y1221D01*
X2261Y1220D02*
X2381Y1220D01*
X2261Y1219D02*
X2380Y1219D01*
X2262Y1218D02*
X2379Y1218D01*
X2263Y1217D02*
X2379Y1217D01*
X2264Y1216D02*
X2378Y1216D01*
X2265Y1215D02*
X2377Y1215D01*
X2266Y1214D02*
X2376Y1214D01*
X2267Y1213D02*
X2375Y1213D01*
X2268Y1212D02*
X2373Y1212D01*
X2270Y1211D02*
X2372Y1211D01*
X2271Y1210D02*
X2370Y1210D01*
X2273Y1209D02*
X2369Y1209D01*
X2275Y1208D02*
X2367Y1208D01*
X2278Y1207D02*
X2364Y1207D01*
X2282Y1206D02*
X2360Y1206D01*
X2282Y894D02*
X2360Y894D01*
X2278Y893D02*
X2364Y893D01*
X2275Y892D02*
X2366Y892D01*
X2273Y891D02*
X2369Y891D01*
X2271Y890D02*
X2370Y890D01*
X2270Y889D02*
X2372Y889D01*
X2268Y888D02*
X2373Y888D01*
X2267Y887D02*
X2375Y887D01*
X2266Y886D02*
X2376Y886D01*
X2265Y885D02*
X2377Y885D01*
X2264Y884D02*
X2378Y884D01*
X2263Y883D02*
X2379Y883D01*
X2262Y882D02*
X2379Y882D01*
X2262Y881D02*
X2380Y881D01*
X2261Y880D02*
X2381Y880D01*
X2260Y879D02*
X2382Y879D01*
X2259Y878D02*
X2317Y878D01*
X2325Y878D02*
X2382Y878D01*
X2259Y877D02*
X2313Y877D01*
X2328Y877D02*
X2383Y877D01*
X2258Y876D02*
X2311Y876D01*
X2330Y876D02*
X2383Y876D01*
X2258Y875D02*
X2310Y875D01*
X2332Y875D02*
X2384Y875D01*
X2257Y874D02*
X2308Y874D01*
X2333Y874D02*
X2384Y874D01*
X2257Y873D02*
X2307Y873D01*
X2334Y873D02*
X2385Y873D01*
X2256Y872D02*
X2306Y872D01*
X2335Y872D02*
X2385Y872D01*
X2256Y871D02*
X2305Y871D01*
X2336Y871D02*
X2386Y871D01*
X2255Y870D02*
X2305Y870D01*
X2337Y870D02*
X2386Y870D01*
X2255Y869D02*
X2304Y869D01*
X2338Y869D02*
X2387Y869D01*
X2255Y868D02*
X2303Y868D01*
X2338Y868D02*
X2387Y868D01*
X2254Y867D02*
X2303Y867D01*
X2339Y867D02*
X2387Y867D01*
X2254Y866D02*
X2302Y866D01*
X2339Y866D02*
X2388Y866D01*
X2254Y865D02*
X2302Y865D01*
X2340Y865D02*
X2388Y865D01*
X2254Y864D02*
X2301Y864D01*
X2340Y864D02*
X2388Y864D01*
X2253Y863D02*
X2301Y863D01*
X2341Y863D02*
X2388Y863D01*
X2253Y862D02*
X2301Y862D01*
X2341Y862D02*
X2388Y862D01*
X2253Y861D02*
X2300Y861D01*
X2341Y861D02*
X2389Y861D01*
X2253Y860D02*
X2300Y860D01*
X2342Y860D02*
X2389Y860D01*
X2253Y859D02*
X2300Y859D01*
X2342Y859D02*
X2389Y859D01*
X2253Y858D02*
X2300Y858D01*
X2342Y858D02*
X2389Y858D01*
X2253Y857D02*
X2300Y857D01*
X2342Y857D02*
X2389Y857D01*
X2253Y856D02*
X2299Y856D01*
X2342Y856D02*
X2389Y856D01*
X2253Y855D02*
X2299Y855D01*
X2342Y855D02*
X2389Y855D01*
X2253Y854D02*
X2299Y854D01*
X2342Y854D02*
X2389Y854D01*
X2252Y853D02*
X2299Y853D01*
X2342Y853D02*
X2389Y853D01*
X2253Y852D02*
X2299Y852D01*
X2342Y852D02*
X2389Y852D01*
X2253Y851D02*
X2299Y851D01*
X2342Y851D02*
X2389Y851D01*
X2253Y850D02*
X2299Y850D01*
X2342Y850D02*
X2389Y850D01*
X2253Y849D02*
X2300Y849D01*
X2342Y849D02*
X2389Y849D01*
X2253Y848D02*
X2300Y848D01*
X2342Y848D02*
X2389Y848D01*
X2253Y847D02*
X2300Y847D01*
X2342Y847D02*
X2389Y847D01*
X2253Y846D02*
X2300Y846D01*
X2341Y846D02*
X2389Y846D01*
X2253Y845D02*
X2301Y845D01*
X2341Y845D02*
X2389Y845D01*
X2253Y844D02*
X2301Y844D01*
X2341Y844D02*
X2388Y844D01*
X2254Y843D02*
X2301Y843D01*
X2341Y843D02*
X2388Y843D01*
X2254Y842D02*
X2302Y842D01*
X2340Y842D02*
X2388Y842D01*
X2254Y841D02*
X2302Y841D01*
X2340Y841D02*
X2388Y841D01*
X2254Y840D02*
X2302Y840D01*
X2339Y840D02*
X2387Y840D01*
X2255Y839D02*
X2303Y839D01*
X2339Y839D02*
X2387Y839D01*
X2255Y838D02*
X2304Y838D01*
X2338Y838D02*
X2387Y838D01*
X2255Y837D02*
X2304Y837D01*
X2337Y837D02*
X2386Y837D01*
X2256Y836D02*
X2305Y836D01*
X2337Y836D02*
X2386Y836D01*
X2256Y835D02*
X2306Y835D01*
X2336Y835D02*
X2386Y835D01*
X2256Y834D02*
X2307Y834D01*
X2335Y834D02*
X2385Y834D01*
X2257Y833D02*
X2308Y833D01*
X2334Y833D02*
X2385Y833D01*
X2257Y832D02*
X2309Y832D01*
X2333Y832D02*
X2384Y832D01*
X2258Y831D02*
X2310Y831D01*
X2331Y831D02*
X2384Y831D01*
X2258Y830D02*
X2312Y830D01*
X2330Y830D02*
X2383Y830D01*
X2259Y829D02*
X2314Y829D01*
X2328Y829D02*
X2383Y829D01*
X2260Y828D02*
X2319Y828D01*
X2323Y828D02*
X2382Y828D01*
X2260Y827D02*
X2381Y827D01*
X2261Y826D02*
X2381Y826D01*
X2262Y825D02*
X2380Y825D01*
X2263Y824D02*
X2379Y824D01*
X2263Y823D02*
X2378Y823D01*
X2264Y822D02*
X2377Y822D01*
X2265Y821D02*
X2376Y821D01*
X2266Y820D02*
X2375Y820D01*
X2268Y819D02*
X2374Y819D01*
X2269Y818D02*
X2373Y818D01*
X2270Y817D02*
X2371Y817D01*
X2272Y816D02*
X2370Y816D01*
X2274Y815D02*
X2368Y815D01*
X2276Y814D02*
X2366Y814D01*
X2279Y813D02*
X2363Y813D01*
X2284Y812D02*
X2358Y812D01*
X2280Y500D02*
X2362Y500D01*
X2277Y499D02*
X2365Y499D01*
X2274Y498D02*
X2367Y498D01*
X2272Y497D02*
X2369Y497D01*
X2271Y496D02*
X2371Y496D01*
X2269Y495D02*
X2372Y495D01*
X2268Y494D02*
X2374Y494D01*
X2267Y493D02*
X2375Y493D01*
X2266Y492D02*
X2376Y492D01*
X2265Y491D02*
X2377Y491D01*
X2264Y490D02*
X2378Y490D01*
X2263Y489D02*
X2379Y489D01*
X2262Y488D02*
X2380Y488D01*
X2261Y487D02*
X2380Y487D01*
X2260Y486D02*
X2381Y486D01*
X2260Y485D02*
X2382Y485D01*
X2259Y484D02*
X2315Y484D01*
X2327Y484D02*
X2383Y484D01*
X2259Y483D02*
X2313Y483D01*
X2329Y483D02*
X2383Y483D01*
X2258Y482D02*
X2311Y482D01*
X2331Y482D02*
X2384Y482D01*
X2258Y481D02*
X2309Y481D01*
X2332Y481D02*
X2384Y481D01*
X2257Y480D02*
X2308Y480D01*
X2334Y480D02*
X2385Y480D01*
X2257Y479D02*
X2307Y479D01*
X2335Y479D02*
X2385Y479D01*
X2256Y478D02*
X2306Y478D01*
X2336Y478D02*
X2386Y478D01*
X2256Y477D02*
X2305Y477D01*
X2337Y477D02*
X2386Y477D01*
X2255Y476D02*
X2304Y476D01*
X2337Y476D02*
X2386Y476D01*
X2255Y475D02*
X2304Y475D01*
X2338Y475D02*
X2387Y475D01*
X2255Y474D02*
X2303Y474D01*
X2339Y474D02*
X2387Y474D01*
X2254Y473D02*
X2303Y473D01*
X2339Y473D02*
X2387Y473D01*
X2254Y472D02*
X2302Y472D01*
X2340Y472D02*
X2388Y472D01*
X2254Y471D02*
X2302Y471D01*
X2340Y471D02*
X2388Y471D01*
X2254Y470D02*
X2301Y470D01*
X2340Y470D02*
X2388Y470D01*
X2253Y469D02*
X2301Y469D01*
X2341Y469D02*
X2388Y469D01*
X2253Y468D02*
X2301Y468D01*
X2341Y468D02*
X2389Y468D01*
X2253Y467D02*
X2300Y467D01*
X2341Y467D02*
X2389Y467D01*
X2253Y466D02*
X2300Y466D01*
X2342Y466D02*
X2389Y466D01*
X2253Y465D02*
X2300Y465D01*
X2342Y465D02*
X2389Y465D01*
X2253Y464D02*
X2300Y464D01*
X2342Y464D02*
X2389Y464D01*
X2253Y463D02*
X2300Y463D01*
X2342Y463D02*
X2389Y463D01*
X2253Y462D02*
X2299Y462D01*
X2342Y462D02*
X2389Y462D01*
X2253Y461D02*
X2299Y461D01*
X2342Y461D02*
X2389Y461D01*
X2252Y460D02*
X2299Y460D01*
X2342Y460D02*
X2389Y460D01*
X2253Y459D02*
X2299Y459D01*
X2342Y459D02*
X2389Y459D01*
X2253Y458D02*
X2299Y458D01*
X2342Y458D02*
X2389Y458D01*
X2253Y457D02*
X2299Y457D01*
X2342Y457D02*
X2389Y457D01*
X2253Y456D02*
X2300Y456D01*
X2342Y456D02*
X2389Y456D01*
X2253Y455D02*
X2300Y455D01*
X2342Y455D02*
X2389Y455D01*
X2253Y454D02*
X2300Y454D01*
X2342Y454D02*
X2389Y454D01*
X2253Y453D02*
X2300Y453D01*
X2342Y453D02*
X2389Y453D01*
X2253Y452D02*
X2300Y452D01*
X2341Y452D02*
X2389Y452D01*
X2253Y451D02*
X2301Y451D01*
X2341Y451D02*
X2388Y451D01*
X2253Y450D02*
X2301Y450D01*
X2341Y450D02*
X2388Y450D01*
X2254Y449D02*
X2301Y449D01*
X2340Y449D02*
X2388Y449D01*
X2254Y448D02*
X2302Y448D01*
X2340Y448D02*
X2388Y448D01*
X2254Y447D02*
X2302Y447D01*
X2340Y447D02*
X2388Y447D01*
X2254Y446D02*
X2303Y446D01*
X2339Y446D02*
X2387Y446D01*
X2255Y445D02*
X2303Y445D01*
X2339Y445D02*
X2387Y445D01*
X2255Y444D02*
X2304Y444D01*
X2338Y444D02*
X2387Y444D01*
X2255Y443D02*
X2305Y443D01*
X2337Y443D02*
X2386Y443D01*
X2256Y442D02*
X2305Y442D01*
X2336Y442D02*
X2386Y442D01*
X2256Y441D02*
X2306Y441D01*
X2336Y441D02*
X2386Y441D01*
X2257Y440D02*
X2307Y440D01*
X2335Y440D02*
X2385Y440D01*
X2257Y439D02*
X2308Y439D01*
X2334Y439D02*
X2385Y439D01*
X2258Y438D02*
X2309Y438D01*
X2332Y438D02*
X2384Y438D01*
X2258Y437D02*
X2311Y437D01*
X2331Y437D02*
X2384Y437D01*
X2259Y436D02*
X2313Y436D01*
X2329Y436D02*
X2383Y436D01*
X2259Y435D02*
X2315Y435D01*
X2326Y435D02*
X2382Y435D01*
X2260Y434D02*
X2382Y434D01*
X2261Y433D02*
X2381Y433D01*
X2261Y432D02*
X2380Y432D01*
X2262Y431D02*
X2380Y431D01*
X2263Y430D02*
X2379Y430D01*
X2264Y429D02*
X2378Y429D01*
X2265Y428D02*
X2377Y428D01*
X2266Y427D02*
X2376Y427D01*
X2267Y426D02*
X2375Y426D01*
X2268Y425D02*
X2374Y425D01*
X2269Y424D02*
X2372Y424D01*
X2271Y423D02*
X2371Y423D01*
X2273Y422D02*
X2369Y422D01*
X2275Y421D02*
X2367Y421D01*
X2277Y420D02*
X2365Y420D01*
X2280Y419D02*
X2361Y419D01*
X738Y134D02*
X755Y134D01*
X733Y133D02*
X760Y133D01*
X729Y132D02*
X764Y132D01*
X726Y131D02*
X767Y131D01*
X724Y130D02*
X769Y130D01*
X721Y129D02*
X772Y129D01*
X719Y128D02*
X774Y128D01*
X717Y127D02*
X776Y127D01*
X716Y126D02*
X778Y126D01*
X714Y125D02*
X779Y125D01*
X712Y124D02*
X781Y124D01*
X711Y123D02*
X782Y123D01*
X709Y122D02*
X784Y122D01*
X708Y121D02*
X785Y121D01*
X707Y120D02*
X786Y120D01*
X705Y119D02*
X788Y119D01*
X704Y118D02*
X789Y118D01*
X703Y117D02*
X790Y117D01*
X702Y116D02*
X791Y116D01*
X701Y115D02*
X792Y115D01*
X700Y114D02*
X793Y114D01*
X699Y113D02*
X794Y113D01*
X698Y112D02*
X795Y112D01*
X697Y111D02*
X796Y111D01*
X696Y110D02*
X797Y110D01*
X695Y109D02*
X798Y109D01*
X694Y108D02*
X799Y108D01*
X694Y107D02*
X800Y107D01*
X693Y106D02*
X800Y106D01*
X692Y105D02*
X801Y105D01*
X691Y104D02*
X802Y104D01*
X691Y103D02*
X803Y103D01*
X690Y102D02*
X803Y102D01*
X689Y101D02*
X804Y101D01*
X689Y100D02*
X805Y100D01*
X688Y99D02*
X805Y99D01*
X687Y98D02*
X806Y98D01*
X687Y97D02*
X806Y97D01*
X686Y96D02*
X807Y96D01*
X686Y95D02*
X740Y95D01*
X753Y95D02*
X807Y95D01*
X685Y94D02*
X735Y94D01*
X758Y94D02*
X808Y94D01*
X685Y93D02*
X732Y93D01*
X761Y93D02*
X808Y93D01*
X684Y92D02*
X730Y92D01*
X763Y92D02*
X809Y92D01*
X684Y91D02*
X728Y91D01*
X765Y91D02*
X809Y91D01*
X683Y90D02*
X727Y90D01*
X766Y90D02*
X810Y90D01*
X683Y89D02*
X726Y89D01*
X768Y89D02*
X810Y89D01*
X683Y88D02*
X724Y88D01*
X769Y88D02*
X811Y88D01*
X682Y87D02*
X723Y87D01*
X770Y87D02*
X811Y87D01*
X682Y86D02*
X723Y86D01*
X771Y86D02*
X811Y86D01*
X681Y85D02*
X722Y85D01*
X771Y85D02*
X812Y85D01*
X681Y84D02*
X721Y84D01*
X772Y84D02*
X812Y84D01*
X681Y83D02*
X721Y83D01*
X773Y83D02*
X812Y83D01*
X681Y82D02*
X720Y82D01*
X773Y82D02*
X813Y82D01*
X680Y81D02*
X719Y81D01*
X774Y81D02*
X813Y81D01*
X680Y80D02*
X719Y80D01*
X774Y80D02*
X813Y80D01*
X680Y79D02*
X719Y79D01*
X774Y79D02*
X813Y79D01*
X680Y78D02*
X718Y78D01*
X775Y78D02*
X814Y78D01*
X679Y77D02*
X718Y77D01*
X775Y77D02*
X814Y77D01*
X679Y76D02*
X718Y76D01*
X775Y76D02*
X814Y76D01*
X679Y75D02*
X718Y75D01*
X776Y75D02*
X814Y75D01*
X679Y74D02*
X717Y74D01*
X776Y74D02*
X814Y74D01*
X679Y73D02*
X717Y73D01*
X776Y73D02*
X814Y73D01*
X679Y72D02*
X717Y72D01*
X776Y72D02*
X815Y72D01*
X678Y71D02*
X717Y71D01*
X776Y71D02*
X815Y71D01*
X678Y70D02*
X717Y70D01*
X776Y70D02*
X815Y70D01*
X678Y69D02*
X717Y69D01*
X776Y69D02*
X815Y69D01*
X678Y68D02*
X717Y68D01*
X777Y68D02*
X815Y68D01*
X678Y67D02*
X717Y67D01*
X777Y67D02*
X815Y67D01*
X678Y66D02*
X717Y66D01*
X777Y66D02*
X815Y66D01*
X678Y65D02*
X717Y65D01*
X777Y65D02*
X815Y65D01*
X678Y64D02*
X717Y64D01*
X777Y64D02*
X815Y64D01*
X678Y63D02*
X717Y63D01*
X776Y63D02*
X815Y63D01*
X678Y62D02*
X717Y62D01*
X776Y62D02*
X815Y62D01*
X678Y61D02*
X717Y61D01*
X776Y61D02*
X815Y61D01*
X679Y60D02*
X717Y60D01*
X776Y60D02*
X815Y60D01*
X679Y59D02*
X717Y59D01*
X776Y59D02*
X815Y59D01*
X679Y58D02*
X717Y58D01*
X776Y58D02*
X814Y58D01*
X679Y57D02*
X717Y57D01*
X776Y57D02*
X814Y57D01*
X679Y56D02*
X718Y56D01*
X775Y56D02*
X814Y56D01*
X679Y55D02*
X718Y55D01*
X775Y55D02*
X814Y55D01*
X679Y54D02*
X718Y54D01*
X775Y54D02*
X814Y54D01*
X680Y53D02*
X719Y53D01*
X775Y53D02*
X813Y53D01*
X680Y52D02*
X719Y52D01*
X774Y52D02*
X813Y52D01*
X680Y51D02*
X719Y51D01*
X774Y51D02*
X813Y51D01*
X681Y50D02*
X720Y50D01*
X773Y50D02*
X813Y50D01*
X681Y49D02*
X720Y49D01*
X773Y49D02*
X812Y49D01*
X681Y48D02*
X721Y48D01*
X772Y48D02*
X812Y48D01*
X681Y47D02*
X722Y47D01*
X771Y47D02*
X812Y47D01*
X682Y46D02*
X722Y46D01*
X771Y46D02*
X811Y46D01*
X682Y45D02*
X723Y45D01*
X770Y45D02*
X811Y45D01*
X682Y44D02*
X724Y44D01*
X769Y44D02*
X811Y44D01*
X683Y43D02*
X725Y43D01*
X768Y43D02*
X810Y43D01*
X683Y42D02*
X727Y42D01*
X767Y42D02*
X810Y42D01*
X684Y41D02*
X728Y41D01*
X765Y41D02*
X809Y41D01*
X684Y40D02*
X730Y40D01*
X763Y40D02*
X809Y40D01*
X685Y39D02*
X732Y39D01*
X761Y39D02*
X809Y39D01*
X685Y38D02*
X735Y38D01*
X759Y38D02*
X808Y38D01*
X686Y37D02*
X739Y37D01*
X754Y37D02*
X807Y37D01*
X686Y36D02*
X807Y36D01*
X687Y35D02*
X806Y35D01*
X687Y34D02*
X806Y34D01*
X688Y33D02*
X805Y33D01*
X689Y32D02*
X805Y32D01*
X689Y31D02*
X804Y31D01*
X690Y30D02*
X803Y30D01*
X690Y29D02*
X803Y29D01*
X691Y28D02*
X802Y28D01*
X692Y27D02*
X801Y27D01*
X693Y26D02*
X800Y26D01*
X693Y25D02*
X800Y25D01*
X694Y24D02*
X799Y24D01*
X695Y23D02*
X798Y23D01*
X696Y22D02*
X797Y22D01*
X697Y21D02*
X796Y21D01*
X698Y20D02*
X795Y20D01*
X699Y19D02*
X794Y19D01*
X700Y18D02*
X793Y18D01*
X701Y17D02*
X792Y17D01*
X702Y16D02*
X791Y16D01*
X703Y15D02*
X790Y15D01*
X704Y14D02*
X789Y14D01*
X705Y13D02*
X788Y13D01*
X707Y12D02*
X787Y12D01*
X708Y11D02*
X785Y11D01*
X709Y10D02*
X784Y10D01*
X711Y9D02*
X783Y9D01*
X712Y8D02*
X781Y8D01*
X714Y7D02*
X779Y7D01*
X715Y6D02*
X778Y6D01*
X717Y5D02*
X776Y5D01*
X719Y4D02*
X774Y4D01*
X721Y3D02*
X772Y3D01*
X724Y2D02*
X770Y2D01*
X726Y1D02*
X767Y1D01*
X729Y0D02*
X764Y0D01*
X732Y-1D02*
X761Y-1D01*
D02*
G04 End of Copper1*
M02*