G04 MADE WITH FRITZING*
G04 WWW.FRITZING.ORG*
G04 DOUBLE SIDED*
G04 HOLES PLATED*
G04 CONTOUR ON CENTER OF CONTOUR VECTOR*
%ASAXBY*%
%FSLAX23Y23*%
%MOIN*%
%OFA0B0*%
%SFA1.0B1.0*%
%ADD10C,0.075000*%
%ADD11C,0.039370*%
%ADD12C,0.080000*%
%ADD13C,0.078000*%
%ADD14C,0.082677*%
%ADD15C,0.083071*%
%ADD16C,0.066194*%
%ADD17C,0.066222*%
%ADD18C,0.137795*%
%ADD19C,0.012000*%
%ADD20C,0.024000*%
%ADD21C,0.016000*%
%ADD22C,0.020000*%
%ADD23R,0.001000X0.001000*%
%LNCOPPER0*%
G90*
G70*
G54D10*
X763Y1917D03*
X1954Y2052D03*
G54D11*
X1134Y891D03*
X1134Y1560D03*
X1212Y910D03*
X1212Y1560D03*
G54D12*
X140Y487D03*
X277Y487D03*
X415Y487D03*
X553Y487D03*
X691Y487D03*
G54D13*
X90Y1796D03*
X190Y1796D03*
G54D11*
X1268Y965D03*
X1376Y935D03*
X1443Y957D03*
X1282Y1143D03*
X1474Y1581D03*
X1521Y1233D03*
X1516Y329D03*
X838Y1107D03*
X929Y865D03*
X1232Y772D03*
G54D13*
X878Y1776D03*
X778Y1776D03*
X678Y1776D03*
X578Y1776D03*
X478Y1776D03*
G54D10*
X602Y831D03*
X346Y831D03*
X602Y1008D03*
X346Y1008D03*
G54D14*
X1565Y577D03*
G54D15*
X1664Y478D03*
X1565Y377D03*
X1565Y577D03*
X1765Y377D03*
X1765Y577D03*
G54D14*
X1565Y970D03*
G54D15*
X1664Y871D03*
X1565Y771D03*
X1565Y971D03*
X1765Y771D03*
X1765Y971D03*
G54D14*
X1565Y1758D03*
G54D15*
X1664Y1659D03*
X1565Y1558D03*
X1565Y1758D03*
X1765Y1558D03*
X1765Y1758D03*
G54D16*
X1445Y129D03*
X1545Y129D03*
X1645Y129D03*
X1745Y129D03*
X1845Y129D03*
G54D17*
X985Y2029D03*
X885Y2029D03*
X785Y2029D03*
X685Y2029D03*
X585Y2029D03*
X485Y2029D03*
X385Y2029D03*
X285Y2029D03*
X185Y2029D03*
X85Y2029D03*
X1845Y2029D03*
X1745Y2029D03*
X1645Y2029D03*
X1545Y2029D03*
X1445Y2029D03*
X1345Y2029D03*
X1245Y2029D03*
X1145Y2029D03*
G54D16*
X545Y129D03*
X445Y129D03*
X645Y129D03*
X745Y129D03*
X845Y129D03*
X945Y129D03*
X1045Y129D03*
X1145Y129D03*
X1345Y129D03*
G54D14*
X1565Y1364D03*
G54D15*
X1664Y1265D03*
X1565Y1164D03*
X1565Y1364D03*
X1765Y1164D03*
X1765Y1364D03*
G54D18*
X90Y83D03*
G54D19*
X1134Y1546D02*
X1134Y904D01*
D02*
X1212Y1546D02*
X1212Y923D01*
G54D20*
D02*
X446Y487D02*
X522Y487D01*
D02*
X308Y487D02*
X384Y487D01*
D02*
X171Y487D02*
X246Y487D01*
D02*
X288Y1934D02*
X288Y1698D01*
D02*
X288Y1698D02*
X286Y1108D01*
D02*
X286Y1108D02*
X147Y517D01*
D02*
X364Y2008D02*
X288Y1934D01*
G54D19*
D02*
X885Y2005D02*
X878Y1801D01*
D02*
X680Y1932D02*
X678Y1801D01*
D02*
X684Y2005D02*
X680Y1932D01*
D02*
X1363Y939D02*
X1281Y961D01*
D02*
X1430Y953D02*
X1388Y940D01*
D02*
X1287Y1156D02*
X1469Y1569D01*
D02*
X1281Y1130D02*
X1269Y978D01*
G54D21*
D02*
X843Y1094D02*
X924Y877D01*
G54D19*
D02*
X1232Y759D02*
X1232Y241D01*
D02*
X1232Y241D02*
X1843Y241D01*
D02*
X1843Y241D02*
X1845Y154D01*
G54D21*
D02*
X918Y595D02*
X947Y311D01*
D02*
X947Y311D02*
X946Y154D01*
G54D19*
D02*
X186Y2005D02*
X190Y1820D01*
D02*
X85Y1892D02*
X89Y1820D01*
D02*
X85Y2005D02*
X85Y1892D01*
D02*
X799Y715D02*
X615Y989D01*
D02*
X918Y595D02*
X799Y715D01*
G54D20*
D02*
X210Y280D02*
X111Y118D01*
D02*
X956Y280D02*
X210Y280D01*
D02*
X947Y160D02*
X956Y280D01*
D02*
X584Y487D02*
X660Y487D01*
G36*
X126Y2008D02*
X126Y2006D01*
X124Y2006D01*
X124Y2004D01*
X122Y2004D01*
X122Y2000D01*
X120Y2000D01*
X120Y1998D01*
X118Y1998D01*
X118Y1996D01*
X116Y1996D01*
X116Y1994D01*
X114Y1994D01*
X114Y1992D01*
X110Y1992D01*
X110Y1990D01*
X108Y1990D01*
X108Y1988D01*
X106Y1988D01*
X106Y1858D01*
X108Y1858D01*
X108Y1844D01*
X112Y1844D01*
X112Y1842D01*
X114Y1842D01*
X114Y1840D01*
X118Y1840D01*
X118Y1838D01*
X120Y1838D01*
X120Y1836D01*
X122Y1836D01*
X122Y1834D01*
X126Y1834D01*
X126Y1832D01*
X128Y1832D01*
X128Y1828D01*
X130Y1828D01*
X130Y1826D01*
X150Y1826D01*
X150Y1828D01*
X152Y1828D01*
X152Y1830D01*
X154Y1830D01*
X154Y1832D01*
X156Y1832D01*
X156Y1834D01*
X158Y1834D01*
X158Y1836D01*
X160Y1836D01*
X160Y1838D01*
X162Y1838D01*
X162Y1840D01*
X166Y1840D01*
X166Y1842D01*
X168Y1842D01*
X168Y1946D01*
X166Y1946D01*
X166Y1988D01*
X164Y1988D01*
X164Y1990D01*
X160Y1990D01*
X160Y1992D01*
X158Y1992D01*
X158Y1994D01*
X156Y1994D01*
X156Y1996D01*
X152Y1996D01*
X152Y2000D01*
X150Y2000D01*
X150Y2002D01*
X148Y2002D01*
X148Y2004D01*
X146Y2004D01*
X146Y2008D01*
X126Y2008D01*
G37*
D02*
G36*
X726Y2008D02*
X726Y2006D01*
X724Y2006D01*
X724Y2004D01*
X722Y2004D01*
X722Y2000D01*
X720Y2000D01*
X720Y1998D01*
X718Y1998D01*
X718Y1996D01*
X716Y1996D01*
X716Y1994D01*
X714Y1994D01*
X714Y1992D01*
X710Y1992D01*
X710Y1990D01*
X708Y1990D01*
X708Y1988D01*
X704Y1988D01*
X704Y1986D01*
X702Y1986D01*
X702Y1982D01*
X776Y1982D01*
X776Y1984D01*
X770Y1984D01*
X770Y1986D01*
X766Y1986D01*
X766Y1988D01*
X764Y1988D01*
X764Y1990D01*
X760Y1990D01*
X760Y1992D01*
X758Y1992D01*
X758Y1994D01*
X756Y1994D01*
X756Y1996D01*
X752Y1996D01*
X752Y2000D01*
X750Y2000D01*
X750Y2002D01*
X748Y2002D01*
X748Y2004D01*
X746Y2004D01*
X746Y2008D01*
X726Y2008D01*
G37*
D02*
G36*
X826Y2008D02*
X826Y2006D01*
X824Y2006D01*
X824Y2004D01*
X822Y2004D01*
X822Y2000D01*
X820Y2000D01*
X820Y1998D01*
X818Y1998D01*
X818Y1996D01*
X816Y1996D01*
X816Y1994D01*
X814Y1994D01*
X814Y1992D01*
X810Y1992D01*
X810Y1990D01*
X808Y1990D01*
X808Y1988D01*
X804Y1988D01*
X804Y1986D01*
X800Y1986D01*
X800Y1984D01*
X794Y1984D01*
X794Y1982D01*
X864Y1982D01*
X864Y1990D01*
X860Y1990D01*
X860Y1992D01*
X858Y1992D01*
X858Y1994D01*
X856Y1994D01*
X856Y1996D01*
X852Y1996D01*
X852Y2000D01*
X850Y2000D01*
X850Y2002D01*
X848Y2002D01*
X848Y2004D01*
X846Y2004D01*
X846Y2008D01*
X826Y2008D01*
G37*
D02*
G36*
X702Y1982D02*
X702Y1980D01*
X864Y1980D01*
X864Y1982D01*
X702Y1982D01*
G37*
D02*
G36*
X702Y1982D02*
X702Y1980D01*
X864Y1980D01*
X864Y1982D01*
X702Y1982D01*
G37*
D02*
G36*
X702Y1980D02*
X702Y1956D01*
X700Y1956D01*
X700Y1888D01*
X698Y1888D01*
X698Y1828D01*
X790Y1828D01*
X790Y1826D01*
X796Y1826D01*
X796Y1824D01*
X798Y1824D01*
X798Y1822D01*
X802Y1822D01*
X802Y1820D01*
X806Y1820D01*
X806Y1818D01*
X808Y1818D01*
X808Y1816D01*
X810Y1816D01*
X810Y1814D01*
X812Y1814D01*
X812Y1812D01*
X814Y1812D01*
X814Y1810D01*
X816Y1810D01*
X816Y1808D01*
X818Y1808D01*
X818Y1806D01*
X838Y1806D01*
X838Y1810D01*
X840Y1810D01*
X840Y1812D01*
X842Y1812D01*
X842Y1814D01*
X844Y1814D01*
X844Y1816D01*
X848Y1816D01*
X848Y1818D01*
X850Y1818D01*
X850Y1820D01*
X854Y1820D01*
X854Y1822D01*
X856Y1822D01*
X856Y1824D01*
X860Y1824D01*
X860Y1888D01*
X862Y1888D01*
X862Y1954D01*
X864Y1954D01*
X864Y1980D01*
X702Y1980D01*
G37*
D02*
G36*
X698Y1828D02*
X698Y1822D01*
X702Y1822D01*
X702Y1820D01*
X706Y1820D01*
X706Y1818D01*
X708Y1818D01*
X708Y1816D01*
X710Y1816D01*
X710Y1814D01*
X712Y1814D01*
X712Y1812D01*
X714Y1812D01*
X714Y1810D01*
X716Y1810D01*
X716Y1808D01*
X718Y1808D01*
X718Y1806D01*
X738Y1806D01*
X738Y1810D01*
X740Y1810D01*
X740Y1812D01*
X742Y1812D01*
X742Y1814D01*
X744Y1814D01*
X744Y1816D01*
X748Y1816D01*
X748Y1818D01*
X750Y1818D01*
X750Y1820D01*
X754Y1820D01*
X754Y1822D01*
X756Y1822D01*
X756Y1824D01*
X760Y1824D01*
X760Y1826D01*
X766Y1826D01*
X766Y1828D01*
X698Y1828D01*
G37*
D02*
G36*
X40Y1992D02*
X40Y1836D01*
X60Y1836D01*
X60Y1838D01*
X62Y1838D01*
X62Y1840D01*
X66Y1840D01*
X66Y1988D01*
X64Y1988D01*
X64Y1990D01*
X60Y1990D01*
X60Y1992D01*
X40Y1992D01*
G37*
D02*
G36*
X40Y2110D02*
X40Y2076D01*
X1854Y2076D01*
X1854Y2074D01*
X1860Y2074D01*
X1860Y2072D01*
X1864Y2072D01*
X1864Y2070D01*
X1868Y2070D01*
X1868Y2068D01*
X1870Y2068D01*
X1870Y2066D01*
X1874Y2066D01*
X1874Y2064D01*
X1876Y2064D01*
X1876Y2062D01*
X1878Y2062D01*
X1878Y2060D01*
X1880Y2060D01*
X1880Y2058D01*
X1882Y2058D01*
X1882Y2054D01*
X1884Y2054D01*
X1884Y2052D01*
X1886Y2052D01*
X1886Y2048D01*
X1888Y2048D01*
X1888Y2044D01*
X1890Y2044D01*
X1890Y2038D01*
X1892Y2038D01*
X1892Y2020D01*
X1890Y2020D01*
X1890Y2014D01*
X1888Y2014D01*
X1888Y2010D01*
X1886Y2010D01*
X1886Y2006D01*
X1884Y2006D01*
X1884Y2004D01*
X1882Y2004D01*
X1882Y2000D01*
X1880Y2000D01*
X1880Y1998D01*
X1878Y1998D01*
X1878Y1996D01*
X1876Y1996D01*
X1876Y1994D01*
X1874Y1994D01*
X1874Y1992D01*
X1870Y1992D01*
X1870Y1990D01*
X1868Y1990D01*
X1868Y1988D01*
X1864Y1988D01*
X1864Y1986D01*
X1860Y1986D01*
X1860Y1984D01*
X1854Y1984D01*
X1854Y1982D01*
X2036Y1982D01*
X2036Y2110D01*
X40Y2110D01*
G37*
D02*
G36*
X40Y2076D02*
X40Y2066D01*
X60Y2066D01*
X60Y2068D01*
X64Y2068D01*
X64Y2070D01*
X66Y2070D01*
X66Y2072D01*
X70Y2072D01*
X70Y2074D01*
X76Y2074D01*
X76Y2076D01*
X40Y2076D01*
G37*
D02*
G36*
X94Y2076D02*
X94Y2074D01*
X100Y2074D01*
X100Y2072D01*
X104Y2072D01*
X104Y2070D01*
X108Y2070D01*
X108Y2068D01*
X110Y2068D01*
X110Y2066D01*
X114Y2066D01*
X114Y2064D01*
X116Y2064D01*
X116Y2062D01*
X118Y2062D01*
X118Y2060D01*
X120Y2060D01*
X120Y2058D01*
X122Y2058D01*
X122Y2054D01*
X124Y2054D01*
X124Y2052D01*
X126Y2052D01*
X126Y2050D01*
X146Y2050D01*
X146Y2054D01*
X148Y2054D01*
X148Y2056D01*
X150Y2056D01*
X150Y2058D01*
X152Y2058D01*
X152Y2062D01*
X156Y2062D01*
X156Y2064D01*
X158Y2064D01*
X158Y2066D01*
X160Y2066D01*
X160Y2068D01*
X164Y2068D01*
X164Y2070D01*
X166Y2070D01*
X166Y2072D01*
X170Y2072D01*
X170Y2074D01*
X176Y2074D01*
X176Y2076D01*
X94Y2076D01*
G37*
D02*
G36*
X194Y2076D02*
X194Y2074D01*
X200Y2074D01*
X200Y2072D01*
X204Y2072D01*
X204Y2070D01*
X208Y2070D01*
X208Y2068D01*
X210Y2068D01*
X210Y2066D01*
X214Y2066D01*
X214Y2064D01*
X216Y2064D01*
X216Y2062D01*
X218Y2062D01*
X218Y2060D01*
X220Y2060D01*
X220Y2058D01*
X222Y2058D01*
X222Y2054D01*
X224Y2054D01*
X224Y2052D01*
X226Y2052D01*
X226Y2050D01*
X246Y2050D01*
X246Y2054D01*
X248Y2054D01*
X248Y2056D01*
X250Y2056D01*
X250Y2058D01*
X252Y2058D01*
X252Y2062D01*
X256Y2062D01*
X256Y2064D01*
X258Y2064D01*
X258Y2066D01*
X260Y2066D01*
X260Y2068D01*
X264Y2068D01*
X264Y2070D01*
X266Y2070D01*
X266Y2072D01*
X270Y2072D01*
X270Y2074D01*
X276Y2074D01*
X276Y2076D01*
X194Y2076D01*
G37*
D02*
G36*
X294Y2076D02*
X294Y2074D01*
X300Y2074D01*
X300Y2072D01*
X304Y2072D01*
X304Y2070D01*
X308Y2070D01*
X308Y2068D01*
X310Y2068D01*
X310Y2066D01*
X314Y2066D01*
X314Y2064D01*
X316Y2064D01*
X316Y2062D01*
X318Y2062D01*
X318Y2060D01*
X320Y2060D01*
X320Y2058D01*
X322Y2058D01*
X322Y2054D01*
X324Y2054D01*
X324Y2052D01*
X326Y2052D01*
X326Y2050D01*
X346Y2050D01*
X346Y2054D01*
X348Y2054D01*
X348Y2056D01*
X350Y2056D01*
X350Y2058D01*
X352Y2058D01*
X352Y2062D01*
X356Y2062D01*
X356Y2064D01*
X358Y2064D01*
X358Y2066D01*
X360Y2066D01*
X360Y2068D01*
X364Y2068D01*
X364Y2070D01*
X366Y2070D01*
X366Y2072D01*
X370Y2072D01*
X370Y2074D01*
X376Y2074D01*
X376Y2076D01*
X294Y2076D01*
G37*
D02*
G36*
X394Y2076D02*
X394Y2074D01*
X400Y2074D01*
X400Y2072D01*
X404Y2072D01*
X404Y2070D01*
X408Y2070D01*
X408Y2068D01*
X410Y2068D01*
X410Y2066D01*
X414Y2066D01*
X414Y2064D01*
X416Y2064D01*
X416Y2062D01*
X418Y2062D01*
X418Y2060D01*
X420Y2060D01*
X420Y2058D01*
X422Y2058D01*
X422Y2054D01*
X424Y2054D01*
X424Y2052D01*
X426Y2052D01*
X426Y2050D01*
X446Y2050D01*
X446Y2054D01*
X448Y2054D01*
X448Y2056D01*
X450Y2056D01*
X450Y2058D01*
X452Y2058D01*
X452Y2062D01*
X456Y2062D01*
X456Y2064D01*
X458Y2064D01*
X458Y2066D01*
X460Y2066D01*
X460Y2068D01*
X464Y2068D01*
X464Y2070D01*
X466Y2070D01*
X466Y2072D01*
X470Y2072D01*
X470Y2074D01*
X476Y2074D01*
X476Y2076D01*
X394Y2076D01*
G37*
D02*
G36*
X494Y2076D02*
X494Y2074D01*
X500Y2074D01*
X500Y2072D01*
X504Y2072D01*
X504Y2070D01*
X508Y2070D01*
X508Y2068D01*
X510Y2068D01*
X510Y2066D01*
X514Y2066D01*
X514Y2064D01*
X516Y2064D01*
X516Y2062D01*
X518Y2062D01*
X518Y2060D01*
X520Y2060D01*
X520Y2058D01*
X522Y2058D01*
X522Y2054D01*
X524Y2054D01*
X524Y2052D01*
X526Y2052D01*
X526Y2050D01*
X546Y2050D01*
X546Y2054D01*
X548Y2054D01*
X548Y2056D01*
X550Y2056D01*
X550Y2058D01*
X552Y2058D01*
X552Y2062D01*
X556Y2062D01*
X556Y2064D01*
X558Y2064D01*
X558Y2066D01*
X560Y2066D01*
X560Y2068D01*
X564Y2068D01*
X564Y2070D01*
X566Y2070D01*
X566Y2072D01*
X570Y2072D01*
X570Y2074D01*
X576Y2074D01*
X576Y2076D01*
X494Y2076D01*
G37*
D02*
G36*
X594Y2076D02*
X594Y2074D01*
X600Y2074D01*
X600Y2072D01*
X604Y2072D01*
X604Y2070D01*
X608Y2070D01*
X608Y2068D01*
X610Y2068D01*
X610Y2066D01*
X614Y2066D01*
X614Y2064D01*
X616Y2064D01*
X616Y2062D01*
X618Y2062D01*
X618Y2060D01*
X620Y2060D01*
X620Y2058D01*
X622Y2058D01*
X622Y2054D01*
X624Y2054D01*
X624Y2052D01*
X626Y2052D01*
X626Y2050D01*
X646Y2050D01*
X646Y2054D01*
X648Y2054D01*
X648Y2056D01*
X650Y2056D01*
X650Y2058D01*
X652Y2058D01*
X652Y2062D01*
X656Y2062D01*
X656Y2064D01*
X658Y2064D01*
X658Y2066D01*
X660Y2066D01*
X660Y2068D01*
X664Y2068D01*
X664Y2070D01*
X666Y2070D01*
X666Y2072D01*
X670Y2072D01*
X670Y2074D01*
X676Y2074D01*
X676Y2076D01*
X594Y2076D01*
G37*
D02*
G36*
X694Y2076D02*
X694Y2074D01*
X700Y2074D01*
X700Y2072D01*
X704Y2072D01*
X704Y2070D01*
X708Y2070D01*
X708Y2068D01*
X710Y2068D01*
X710Y2066D01*
X714Y2066D01*
X714Y2064D01*
X716Y2064D01*
X716Y2062D01*
X718Y2062D01*
X718Y2060D01*
X720Y2060D01*
X720Y2058D01*
X722Y2058D01*
X722Y2054D01*
X724Y2054D01*
X724Y2052D01*
X726Y2052D01*
X726Y2050D01*
X746Y2050D01*
X746Y2054D01*
X748Y2054D01*
X748Y2056D01*
X750Y2056D01*
X750Y2058D01*
X752Y2058D01*
X752Y2062D01*
X756Y2062D01*
X756Y2064D01*
X758Y2064D01*
X758Y2066D01*
X760Y2066D01*
X760Y2068D01*
X764Y2068D01*
X764Y2070D01*
X766Y2070D01*
X766Y2072D01*
X770Y2072D01*
X770Y2074D01*
X776Y2074D01*
X776Y2076D01*
X694Y2076D01*
G37*
D02*
G36*
X794Y2076D02*
X794Y2074D01*
X800Y2074D01*
X800Y2072D01*
X804Y2072D01*
X804Y2070D01*
X808Y2070D01*
X808Y2068D01*
X810Y2068D01*
X810Y2066D01*
X814Y2066D01*
X814Y2064D01*
X816Y2064D01*
X816Y2062D01*
X818Y2062D01*
X818Y2060D01*
X820Y2060D01*
X820Y2058D01*
X822Y2058D01*
X822Y2054D01*
X824Y2054D01*
X824Y2052D01*
X826Y2052D01*
X826Y2050D01*
X846Y2050D01*
X846Y2054D01*
X848Y2054D01*
X848Y2056D01*
X850Y2056D01*
X850Y2058D01*
X852Y2058D01*
X852Y2062D01*
X856Y2062D01*
X856Y2064D01*
X858Y2064D01*
X858Y2066D01*
X860Y2066D01*
X860Y2068D01*
X864Y2068D01*
X864Y2070D01*
X866Y2070D01*
X866Y2072D01*
X870Y2072D01*
X870Y2074D01*
X876Y2074D01*
X876Y2076D01*
X794Y2076D01*
G37*
D02*
G36*
X894Y2076D02*
X894Y2074D01*
X900Y2074D01*
X900Y2072D01*
X904Y2072D01*
X904Y2070D01*
X908Y2070D01*
X908Y2068D01*
X910Y2068D01*
X910Y2066D01*
X914Y2066D01*
X914Y2064D01*
X916Y2064D01*
X916Y2062D01*
X918Y2062D01*
X918Y2060D01*
X920Y2060D01*
X920Y2058D01*
X922Y2058D01*
X922Y2054D01*
X924Y2054D01*
X924Y2052D01*
X926Y2052D01*
X926Y2050D01*
X946Y2050D01*
X946Y2054D01*
X948Y2054D01*
X948Y2056D01*
X950Y2056D01*
X950Y2058D01*
X952Y2058D01*
X952Y2062D01*
X956Y2062D01*
X956Y2064D01*
X958Y2064D01*
X958Y2066D01*
X960Y2066D01*
X960Y2068D01*
X964Y2068D01*
X964Y2070D01*
X966Y2070D01*
X966Y2072D01*
X970Y2072D01*
X970Y2074D01*
X976Y2074D01*
X976Y2076D01*
X894Y2076D01*
G37*
D02*
G36*
X994Y2076D02*
X994Y2074D01*
X1000Y2074D01*
X1000Y2072D01*
X1004Y2072D01*
X1004Y2070D01*
X1008Y2070D01*
X1008Y2068D01*
X1010Y2068D01*
X1010Y2066D01*
X1014Y2066D01*
X1014Y2064D01*
X1016Y2064D01*
X1016Y2062D01*
X1018Y2062D01*
X1018Y2060D01*
X1020Y2060D01*
X1020Y2058D01*
X1022Y2058D01*
X1022Y2054D01*
X1024Y2054D01*
X1024Y2052D01*
X1026Y2052D01*
X1026Y2048D01*
X1028Y2048D01*
X1028Y2044D01*
X1030Y2044D01*
X1030Y2038D01*
X1032Y2038D01*
X1032Y2020D01*
X1030Y2020D01*
X1030Y2014D01*
X1028Y2014D01*
X1028Y2010D01*
X1026Y2010D01*
X1026Y2006D01*
X1024Y2006D01*
X1024Y2004D01*
X1022Y2004D01*
X1022Y2000D01*
X1020Y2000D01*
X1020Y1998D01*
X1018Y1998D01*
X1018Y1996D01*
X1016Y1996D01*
X1016Y1994D01*
X1014Y1994D01*
X1014Y1992D01*
X1010Y1992D01*
X1010Y1990D01*
X1008Y1990D01*
X1008Y1988D01*
X1004Y1988D01*
X1004Y1986D01*
X1000Y1986D01*
X1000Y1984D01*
X994Y1984D01*
X994Y1982D01*
X1136Y1982D01*
X1136Y1984D01*
X1130Y1984D01*
X1130Y1986D01*
X1126Y1986D01*
X1126Y1988D01*
X1124Y1988D01*
X1124Y1990D01*
X1120Y1990D01*
X1120Y1992D01*
X1118Y1992D01*
X1118Y1994D01*
X1116Y1994D01*
X1116Y1996D01*
X1112Y1996D01*
X1112Y2000D01*
X1110Y2000D01*
X1110Y2002D01*
X1108Y2002D01*
X1108Y2004D01*
X1106Y2004D01*
X1106Y2008D01*
X1104Y2008D01*
X1104Y2010D01*
X1102Y2010D01*
X1102Y2016D01*
X1100Y2016D01*
X1100Y2022D01*
X1098Y2022D01*
X1098Y2036D01*
X1100Y2036D01*
X1100Y2042D01*
X1102Y2042D01*
X1102Y2048D01*
X1104Y2048D01*
X1104Y2050D01*
X1106Y2050D01*
X1106Y2054D01*
X1108Y2054D01*
X1108Y2056D01*
X1110Y2056D01*
X1110Y2058D01*
X1112Y2058D01*
X1112Y2062D01*
X1116Y2062D01*
X1116Y2064D01*
X1118Y2064D01*
X1118Y2066D01*
X1120Y2066D01*
X1120Y2068D01*
X1124Y2068D01*
X1124Y2070D01*
X1126Y2070D01*
X1126Y2072D01*
X1130Y2072D01*
X1130Y2074D01*
X1136Y2074D01*
X1136Y2076D01*
X994Y2076D01*
G37*
D02*
G36*
X1154Y2076D02*
X1154Y2074D01*
X1160Y2074D01*
X1160Y2072D01*
X1164Y2072D01*
X1164Y2070D01*
X1168Y2070D01*
X1168Y2068D01*
X1170Y2068D01*
X1170Y2066D01*
X1174Y2066D01*
X1174Y2064D01*
X1176Y2064D01*
X1176Y2062D01*
X1178Y2062D01*
X1178Y2060D01*
X1180Y2060D01*
X1180Y2058D01*
X1182Y2058D01*
X1182Y2054D01*
X1184Y2054D01*
X1184Y2052D01*
X1186Y2052D01*
X1186Y2050D01*
X1206Y2050D01*
X1206Y2054D01*
X1208Y2054D01*
X1208Y2056D01*
X1210Y2056D01*
X1210Y2058D01*
X1212Y2058D01*
X1212Y2062D01*
X1216Y2062D01*
X1216Y2064D01*
X1218Y2064D01*
X1218Y2066D01*
X1220Y2066D01*
X1220Y2068D01*
X1224Y2068D01*
X1224Y2070D01*
X1226Y2070D01*
X1226Y2072D01*
X1230Y2072D01*
X1230Y2074D01*
X1236Y2074D01*
X1236Y2076D01*
X1154Y2076D01*
G37*
D02*
G36*
X1254Y2076D02*
X1254Y2074D01*
X1260Y2074D01*
X1260Y2072D01*
X1264Y2072D01*
X1264Y2070D01*
X1268Y2070D01*
X1268Y2068D01*
X1270Y2068D01*
X1270Y2066D01*
X1274Y2066D01*
X1274Y2064D01*
X1276Y2064D01*
X1276Y2062D01*
X1278Y2062D01*
X1278Y2060D01*
X1280Y2060D01*
X1280Y2058D01*
X1282Y2058D01*
X1282Y2054D01*
X1284Y2054D01*
X1284Y2052D01*
X1286Y2052D01*
X1286Y2050D01*
X1306Y2050D01*
X1306Y2054D01*
X1308Y2054D01*
X1308Y2056D01*
X1310Y2056D01*
X1310Y2058D01*
X1312Y2058D01*
X1312Y2062D01*
X1316Y2062D01*
X1316Y2064D01*
X1318Y2064D01*
X1318Y2066D01*
X1320Y2066D01*
X1320Y2068D01*
X1324Y2068D01*
X1324Y2070D01*
X1326Y2070D01*
X1326Y2072D01*
X1330Y2072D01*
X1330Y2074D01*
X1336Y2074D01*
X1336Y2076D01*
X1254Y2076D01*
G37*
D02*
G36*
X1354Y2076D02*
X1354Y2074D01*
X1360Y2074D01*
X1360Y2072D01*
X1364Y2072D01*
X1364Y2070D01*
X1368Y2070D01*
X1368Y2068D01*
X1370Y2068D01*
X1370Y2066D01*
X1374Y2066D01*
X1374Y2064D01*
X1376Y2064D01*
X1376Y2062D01*
X1378Y2062D01*
X1378Y2060D01*
X1380Y2060D01*
X1380Y2058D01*
X1382Y2058D01*
X1382Y2054D01*
X1384Y2054D01*
X1384Y2052D01*
X1386Y2052D01*
X1386Y2050D01*
X1406Y2050D01*
X1406Y2054D01*
X1408Y2054D01*
X1408Y2056D01*
X1410Y2056D01*
X1410Y2058D01*
X1412Y2058D01*
X1412Y2062D01*
X1416Y2062D01*
X1416Y2064D01*
X1418Y2064D01*
X1418Y2066D01*
X1420Y2066D01*
X1420Y2068D01*
X1424Y2068D01*
X1424Y2070D01*
X1426Y2070D01*
X1426Y2072D01*
X1430Y2072D01*
X1430Y2074D01*
X1436Y2074D01*
X1436Y2076D01*
X1354Y2076D01*
G37*
D02*
G36*
X1454Y2076D02*
X1454Y2074D01*
X1460Y2074D01*
X1460Y2072D01*
X1464Y2072D01*
X1464Y2070D01*
X1468Y2070D01*
X1468Y2068D01*
X1470Y2068D01*
X1470Y2066D01*
X1474Y2066D01*
X1474Y2064D01*
X1476Y2064D01*
X1476Y2062D01*
X1478Y2062D01*
X1478Y2060D01*
X1480Y2060D01*
X1480Y2058D01*
X1482Y2058D01*
X1482Y2054D01*
X1484Y2054D01*
X1484Y2052D01*
X1486Y2052D01*
X1486Y2050D01*
X1506Y2050D01*
X1506Y2054D01*
X1508Y2054D01*
X1508Y2056D01*
X1510Y2056D01*
X1510Y2058D01*
X1512Y2058D01*
X1512Y2062D01*
X1516Y2062D01*
X1516Y2064D01*
X1518Y2064D01*
X1518Y2066D01*
X1520Y2066D01*
X1520Y2068D01*
X1524Y2068D01*
X1524Y2070D01*
X1526Y2070D01*
X1526Y2072D01*
X1530Y2072D01*
X1530Y2074D01*
X1536Y2074D01*
X1536Y2076D01*
X1454Y2076D01*
G37*
D02*
G36*
X1554Y2076D02*
X1554Y2074D01*
X1560Y2074D01*
X1560Y2072D01*
X1564Y2072D01*
X1564Y2070D01*
X1568Y2070D01*
X1568Y2068D01*
X1570Y2068D01*
X1570Y2066D01*
X1574Y2066D01*
X1574Y2064D01*
X1576Y2064D01*
X1576Y2062D01*
X1578Y2062D01*
X1578Y2060D01*
X1580Y2060D01*
X1580Y2058D01*
X1582Y2058D01*
X1582Y2054D01*
X1584Y2054D01*
X1584Y2052D01*
X1586Y2052D01*
X1586Y2050D01*
X1606Y2050D01*
X1606Y2054D01*
X1608Y2054D01*
X1608Y2056D01*
X1610Y2056D01*
X1610Y2058D01*
X1612Y2058D01*
X1612Y2062D01*
X1616Y2062D01*
X1616Y2064D01*
X1618Y2064D01*
X1618Y2066D01*
X1620Y2066D01*
X1620Y2068D01*
X1624Y2068D01*
X1624Y2070D01*
X1626Y2070D01*
X1626Y2072D01*
X1630Y2072D01*
X1630Y2074D01*
X1636Y2074D01*
X1636Y2076D01*
X1554Y2076D01*
G37*
D02*
G36*
X1654Y2076D02*
X1654Y2074D01*
X1660Y2074D01*
X1660Y2072D01*
X1664Y2072D01*
X1664Y2070D01*
X1668Y2070D01*
X1668Y2068D01*
X1670Y2068D01*
X1670Y2066D01*
X1674Y2066D01*
X1674Y2064D01*
X1676Y2064D01*
X1676Y2062D01*
X1678Y2062D01*
X1678Y2060D01*
X1680Y2060D01*
X1680Y2058D01*
X1682Y2058D01*
X1682Y2054D01*
X1684Y2054D01*
X1684Y2052D01*
X1686Y2052D01*
X1686Y2050D01*
X1706Y2050D01*
X1706Y2054D01*
X1708Y2054D01*
X1708Y2056D01*
X1710Y2056D01*
X1710Y2058D01*
X1712Y2058D01*
X1712Y2062D01*
X1716Y2062D01*
X1716Y2064D01*
X1718Y2064D01*
X1718Y2066D01*
X1720Y2066D01*
X1720Y2068D01*
X1724Y2068D01*
X1724Y2070D01*
X1726Y2070D01*
X1726Y2072D01*
X1730Y2072D01*
X1730Y2074D01*
X1736Y2074D01*
X1736Y2076D01*
X1654Y2076D01*
G37*
D02*
G36*
X1754Y2076D02*
X1754Y2074D01*
X1760Y2074D01*
X1760Y2072D01*
X1764Y2072D01*
X1764Y2070D01*
X1768Y2070D01*
X1768Y2068D01*
X1770Y2068D01*
X1770Y2066D01*
X1774Y2066D01*
X1774Y2064D01*
X1776Y2064D01*
X1776Y2062D01*
X1778Y2062D01*
X1778Y2060D01*
X1780Y2060D01*
X1780Y2058D01*
X1782Y2058D01*
X1782Y2054D01*
X1784Y2054D01*
X1784Y2052D01*
X1786Y2052D01*
X1786Y2050D01*
X1806Y2050D01*
X1806Y2054D01*
X1808Y2054D01*
X1808Y2056D01*
X1810Y2056D01*
X1810Y2058D01*
X1812Y2058D01*
X1812Y2062D01*
X1816Y2062D01*
X1816Y2064D01*
X1818Y2064D01*
X1818Y2066D01*
X1820Y2066D01*
X1820Y2068D01*
X1824Y2068D01*
X1824Y2070D01*
X1826Y2070D01*
X1826Y2072D01*
X1830Y2072D01*
X1830Y2074D01*
X1836Y2074D01*
X1836Y2076D01*
X1754Y2076D01*
G37*
D02*
G36*
X226Y2008D02*
X226Y2006D01*
X224Y2006D01*
X224Y2004D01*
X222Y2004D01*
X222Y2000D01*
X220Y2000D01*
X220Y1998D01*
X218Y1998D01*
X218Y1996D01*
X216Y1996D01*
X216Y1994D01*
X214Y1994D01*
X214Y1992D01*
X210Y1992D01*
X210Y1990D01*
X208Y1990D01*
X208Y1988D01*
X206Y1988D01*
X206Y1982D01*
X276Y1982D01*
X276Y1984D01*
X270Y1984D01*
X270Y1986D01*
X266Y1986D01*
X266Y1988D01*
X264Y1988D01*
X264Y1990D01*
X260Y1990D01*
X260Y1992D01*
X258Y1992D01*
X258Y1994D01*
X256Y1994D01*
X256Y1996D01*
X252Y1996D01*
X252Y2000D01*
X250Y2000D01*
X250Y2002D01*
X248Y2002D01*
X248Y2004D01*
X246Y2004D01*
X246Y2008D01*
X226Y2008D01*
G37*
D02*
G36*
X326Y2008D02*
X326Y2006D01*
X324Y2006D01*
X324Y2004D01*
X322Y2004D01*
X322Y2000D01*
X320Y2000D01*
X320Y1998D01*
X318Y1998D01*
X318Y1996D01*
X316Y1996D01*
X316Y1994D01*
X314Y1994D01*
X314Y1992D01*
X310Y1992D01*
X310Y1990D01*
X308Y1990D01*
X308Y1988D01*
X304Y1988D01*
X304Y1986D01*
X300Y1986D01*
X300Y1984D01*
X294Y1984D01*
X294Y1982D01*
X376Y1982D01*
X376Y1984D01*
X370Y1984D01*
X370Y1986D01*
X366Y1986D01*
X366Y1988D01*
X364Y1988D01*
X364Y1990D01*
X360Y1990D01*
X360Y1992D01*
X358Y1992D01*
X358Y1994D01*
X356Y1994D01*
X356Y1996D01*
X352Y1996D01*
X352Y2000D01*
X350Y2000D01*
X350Y2002D01*
X348Y2002D01*
X348Y2004D01*
X346Y2004D01*
X346Y2008D01*
X326Y2008D01*
G37*
D02*
G36*
X426Y2008D02*
X426Y2006D01*
X424Y2006D01*
X424Y2004D01*
X422Y2004D01*
X422Y2000D01*
X420Y2000D01*
X420Y1998D01*
X418Y1998D01*
X418Y1996D01*
X416Y1996D01*
X416Y1994D01*
X414Y1994D01*
X414Y1992D01*
X410Y1992D01*
X410Y1990D01*
X408Y1990D01*
X408Y1988D01*
X404Y1988D01*
X404Y1986D01*
X400Y1986D01*
X400Y1984D01*
X394Y1984D01*
X394Y1982D01*
X476Y1982D01*
X476Y1984D01*
X470Y1984D01*
X470Y1986D01*
X466Y1986D01*
X466Y1988D01*
X464Y1988D01*
X464Y1990D01*
X460Y1990D01*
X460Y1992D01*
X458Y1992D01*
X458Y1994D01*
X456Y1994D01*
X456Y1996D01*
X452Y1996D01*
X452Y2000D01*
X450Y2000D01*
X450Y2002D01*
X448Y2002D01*
X448Y2004D01*
X446Y2004D01*
X446Y2008D01*
X426Y2008D01*
G37*
D02*
G36*
X526Y2008D02*
X526Y2006D01*
X524Y2006D01*
X524Y2004D01*
X522Y2004D01*
X522Y2000D01*
X520Y2000D01*
X520Y1998D01*
X518Y1998D01*
X518Y1996D01*
X516Y1996D01*
X516Y1994D01*
X514Y1994D01*
X514Y1992D01*
X510Y1992D01*
X510Y1990D01*
X508Y1990D01*
X508Y1988D01*
X504Y1988D01*
X504Y1986D01*
X500Y1986D01*
X500Y1984D01*
X494Y1984D01*
X494Y1982D01*
X576Y1982D01*
X576Y1984D01*
X570Y1984D01*
X570Y1986D01*
X566Y1986D01*
X566Y1988D01*
X564Y1988D01*
X564Y1990D01*
X560Y1990D01*
X560Y1992D01*
X558Y1992D01*
X558Y1994D01*
X556Y1994D01*
X556Y1996D01*
X552Y1996D01*
X552Y2000D01*
X550Y2000D01*
X550Y2002D01*
X548Y2002D01*
X548Y2004D01*
X546Y2004D01*
X546Y2008D01*
X526Y2008D01*
G37*
D02*
G36*
X626Y2008D02*
X626Y2006D01*
X624Y2006D01*
X624Y2004D01*
X622Y2004D01*
X622Y2000D01*
X620Y2000D01*
X620Y1998D01*
X618Y1998D01*
X618Y1996D01*
X616Y1996D01*
X616Y1994D01*
X614Y1994D01*
X614Y1992D01*
X610Y1992D01*
X610Y1990D01*
X608Y1990D01*
X608Y1988D01*
X604Y1988D01*
X604Y1986D01*
X600Y1986D01*
X600Y1984D01*
X594Y1984D01*
X594Y1982D01*
X662Y1982D01*
X662Y1990D01*
X660Y1990D01*
X660Y1992D01*
X658Y1992D01*
X658Y1994D01*
X656Y1994D01*
X656Y1996D01*
X652Y1996D01*
X652Y2000D01*
X650Y2000D01*
X650Y2002D01*
X648Y2002D01*
X648Y2004D01*
X646Y2004D01*
X646Y2008D01*
X626Y2008D01*
G37*
D02*
G36*
X926Y2008D02*
X926Y2006D01*
X924Y2006D01*
X924Y2004D01*
X922Y2004D01*
X922Y2000D01*
X920Y2000D01*
X920Y1998D01*
X918Y1998D01*
X918Y1996D01*
X916Y1996D01*
X916Y1994D01*
X914Y1994D01*
X914Y1992D01*
X910Y1992D01*
X910Y1990D01*
X908Y1990D01*
X908Y1988D01*
X904Y1988D01*
X904Y1982D01*
X976Y1982D01*
X976Y1984D01*
X970Y1984D01*
X970Y1986D01*
X966Y1986D01*
X966Y1988D01*
X964Y1988D01*
X964Y1990D01*
X960Y1990D01*
X960Y1992D01*
X958Y1992D01*
X958Y1994D01*
X956Y1994D01*
X956Y1996D01*
X952Y1996D01*
X952Y2000D01*
X950Y2000D01*
X950Y2002D01*
X948Y2002D01*
X948Y2004D01*
X946Y2004D01*
X946Y2008D01*
X926Y2008D01*
G37*
D02*
G36*
X1186Y2008D02*
X1186Y2006D01*
X1184Y2006D01*
X1184Y2004D01*
X1182Y2004D01*
X1182Y2000D01*
X1180Y2000D01*
X1180Y1998D01*
X1178Y1998D01*
X1178Y1996D01*
X1176Y1996D01*
X1176Y1994D01*
X1174Y1994D01*
X1174Y1992D01*
X1170Y1992D01*
X1170Y1990D01*
X1168Y1990D01*
X1168Y1988D01*
X1164Y1988D01*
X1164Y1986D01*
X1160Y1986D01*
X1160Y1984D01*
X1154Y1984D01*
X1154Y1982D01*
X1236Y1982D01*
X1236Y1984D01*
X1230Y1984D01*
X1230Y1986D01*
X1226Y1986D01*
X1226Y1988D01*
X1224Y1988D01*
X1224Y1990D01*
X1220Y1990D01*
X1220Y1992D01*
X1218Y1992D01*
X1218Y1994D01*
X1216Y1994D01*
X1216Y1996D01*
X1212Y1996D01*
X1212Y2000D01*
X1210Y2000D01*
X1210Y2002D01*
X1208Y2002D01*
X1208Y2004D01*
X1206Y2004D01*
X1206Y2008D01*
X1186Y2008D01*
G37*
D02*
G36*
X1286Y2008D02*
X1286Y2006D01*
X1284Y2006D01*
X1284Y2004D01*
X1282Y2004D01*
X1282Y2000D01*
X1280Y2000D01*
X1280Y1998D01*
X1278Y1998D01*
X1278Y1996D01*
X1276Y1996D01*
X1276Y1994D01*
X1274Y1994D01*
X1274Y1992D01*
X1270Y1992D01*
X1270Y1990D01*
X1268Y1990D01*
X1268Y1988D01*
X1264Y1988D01*
X1264Y1986D01*
X1260Y1986D01*
X1260Y1984D01*
X1254Y1984D01*
X1254Y1982D01*
X1336Y1982D01*
X1336Y1984D01*
X1330Y1984D01*
X1330Y1986D01*
X1326Y1986D01*
X1326Y1988D01*
X1324Y1988D01*
X1324Y1990D01*
X1320Y1990D01*
X1320Y1992D01*
X1318Y1992D01*
X1318Y1994D01*
X1316Y1994D01*
X1316Y1996D01*
X1312Y1996D01*
X1312Y2000D01*
X1310Y2000D01*
X1310Y2002D01*
X1308Y2002D01*
X1308Y2004D01*
X1306Y2004D01*
X1306Y2008D01*
X1286Y2008D01*
G37*
D02*
G36*
X1386Y2008D02*
X1386Y2006D01*
X1384Y2006D01*
X1384Y2004D01*
X1382Y2004D01*
X1382Y2000D01*
X1380Y2000D01*
X1380Y1998D01*
X1378Y1998D01*
X1378Y1996D01*
X1376Y1996D01*
X1376Y1994D01*
X1374Y1994D01*
X1374Y1992D01*
X1370Y1992D01*
X1370Y1990D01*
X1368Y1990D01*
X1368Y1988D01*
X1364Y1988D01*
X1364Y1986D01*
X1360Y1986D01*
X1360Y1984D01*
X1354Y1984D01*
X1354Y1982D01*
X1436Y1982D01*
X1436Y1984D01*
X1430Y1984D01*
X1430Y1986D01*
X1426Y1986D01*
X1426Y1988D01*
X1424Y1988D01*
X1424Y1990D01*
X1420Y1990D01*
X1420Y1992D01*
X1418Y1992D01*
X1418Y1994D01*
X1416Y1994D01*
X1416Y1996D01*
X1412Y1996D01*
X1412Y2000D01*
X1410Y2000D01*
X1410Y2002D01*
X1408Y2002D01*
X1408Y2004D01*
X1406Y2004D01*
X1406Y2008D01*
X1386Y2008D01*
G37*
D02*
G36*
X1486Y2008D02*
X1486Y2006D01*
X1484Y2006D01*
X1484Y2004D01*
X1482Y2004D01*
X1482Y2000D01*
X1480Y2000D01*
X1480Y1998D01*
X1478Y1998D01*
X1478Y1996D01*
X1476Y1996D01*
X1476Y1994D01*
X1474Y1994D01*
X1474Y1992D01*
X1470Y1992D01*
X1470Y1990D01*
X1468Y1990D01*
X1468Y1988D01*
X1464Y1988D01*
X1464Y1986D01*
X1460Y1986D01*
X1460Y1984D01*
X1454Y1984D01*
X1454Y1982D01*
X1536Y1982D01*
X1536Y1984D01*
X1530Y1984D01*
X1530Y1986D01*
X1526Y1986D01*
X1526Y1988D01*
X1524Y1988D01*
X1524Y1990D01*
X1520Y1990D01*
X1520Y1992D01*
X1518Y1992D01*
X1518Y1994D01*
X1516Y1994D01*
X1516Y1996D01*
X1512Y1996D01*
X1512Y2000D01*
X1510Y2000D01*
X1510Y2002D01*
X1508Y2002D01*
X1508Y2004D01*
X1506Y2004D01*
X1506Y2008D01*
X1486Y2008D01*
G37*
D02*
G36*
X1586Y2008D02*
X1586Y2006D01*
X1584Y2006D01*
X1584Y2004D01*
X1582Y2004D01*
X1582Y2000D01*
X1580Y2000D01*
X1580Y1998D01*
X1578Y1998D01*
X1578Y1996D01*
X1576Y1996D01*
X1576Y1994D01*
X1574Y1994D01*
X1574Y1992D01*
X1570Y1992D01*
X1570Y1990D01*
X1568Y1990D01*
X1568Y1988D01*
X1564Y1988D01*
X1564Y1986D01*
X1560Y1986D01*
X1560Y1984D01*
X1554Y1984D01*
X1554Y1982D01*
X1636Y1982D01*
X1636Y1984D01*
X1630Y1984D01*
X1630Y1986D01*
X1626Y1986D01*
X1626Y1988D01*
X1624Y1988D01*
X1624Y1990D01*
X1620Y1990D01*
X1620Y1992D01*
X1618Y1992D01*
X1618Y1994D01*
X1616Y1994D01*
X1616Y1996D01*
X1612Y1996D01*
X1612Y2000D01*
X1610Y2000D01*
X1610Y2002D01*
X1608Y2002D01*
X1608Y2004D01*
X1606Y2004D01*
X1606Y2008D01*
X1586Y2008D01*
G37*
D02*
G36*
X1686Y2008D02*
X1686Y2006D01*
X1684Y2006D01*
X1684Y2004D01*
X1682Y2004D01*
X1682Y2000D01*
X1680Y2000D01*
X1680Y1998D01*
X1678Y1998D01*
X1678Y1996D01*
X1676Y1996D01*
X1676Y1994D01*
X1674Y1994D01*
X1674Y1992D01*
X1670Y1992D01*
X1670Y1990D01*
X1668Y1990D01*
X1668Y1988D01*
X1664Y1988D01*
X1664Y1986D01*
X1660Y1986D01*
X1660Y1984D01*
X1654Y1984D01*
X1654Y1982D01*
X1736Y1982D01*
X1736Y1984D01*
X1730Y1984D01*
X1730Y1986D01*
X1726Y1986D01*
X1726Y1988D01*
X1724Y1988D01*
X1724Y1990D01*
X1720Y1990D01*
X1720Y1992D01*
X1718Y1992D01*
X1718Y1994D01*
X1716Y1994D01*
X1716Y1996D01*
X1712Y1996D01*
X1712Y2000D01*
X1710Y2000D01*
X1710Y2002D01*
X1708Y2002D01*
X1708Y2004D01*
X1706Y2004D01*
X1706Y2008D01*
X1686Y2008D01*
G37*
D02*
G36*
X1786Y2008D02*
X1786Y2006D01*
X1784Y2006D01*
X1784Y2004D01*
X1782Y2004D01*
X1782Y2000D01*
X1780Y2000D01*
X1780Y1998D01*
X1778Y1998D01*
X1778Y1996D01*
X1776Y1996D01*
X1776Y1994D01*
X1774Y1994D01*
X1774Y1992D01*
X1770Y1992D01*
X1770Y1990D01*
X1768Y1990D01*
X1768Y1988D01*
X1764Y1988D01*
X1764Y1986D01*
X1760Y1986D01*
X1760Y1984D01*
X1754Y1984D01*
X1754Y1982D01*
X1836Y1982D01*
X1836Y1984D01*
X1830Y1984D01*
X1830Y1986D01*
X1826Y1986D01*
X1826Y1988D01*
X1824Y1988D01*
X1824Y1990D01*
X1820Y1990D01*
X1820Y1992D01*
X1818Y1992D01*
X1818Y1994D01*
X1816Y1994D01*
X1816Y1996D01*
X1812Y1996D01*
X1812Y2000D01*
X1810Y2000D01*
X1810Y2002D01*
X1808Y2002D01*
X1808Y2004D01*
X1806Y2004D01*
X1806Y2008D01*
X1786Y2008D01*
G37*
D02*
G36*
X206Y1982D02*
X206Y1980D01*
X662Y1980D01*
X662Y1982D01*
X206Y1982D01*
G37*
D02*
G36*
X206Y1982D02*
X206Y1980D01*
X662Y1980D01*
X662Y1982D01*
X206Y1982D01*
G37*
D02*
G36*
X206Y1982D02*
X206Y1980D01*
X662Y1980D01*
X662Y1982D01*
X206Y1982D01*
G37*
D02*
G36*
X206Y1982D02*
X206Y1980D01*
X662Y1980D01*
X662Y1982D01*
X206Y1982D01*
G37*
D02*
G36*
X206Y1982D02*
X206Y1980D01*
X662Y1980D01*
X662Y1982D01*
X206Y1982D01*
G37*
D02*
G36*
X904Y1982D02*
X904Y1980D01*
X2036Y1980D01*
X2036Y1982D01*
X904Y1982D01*
G37*
D02*
G36*
X904Y1982D02*
X904Y1980D01*
X2036Y1980D01*
X2036Y1982D01*
X904Y1982D01*
G37*
D02*
G36*
X904Y1982D02*
X904Y1980D01*
X2036Y1980D01*
X2036Y1982D01*
X904Y1982D01*
G37*
D02*
G36*
X904Y1982D02*
X904Y1980D01*
X2036Y1980D01*
X2036Y1982D01*
X904Y1982D01*
G37*
D02*
G36*
X904Y1982D02*
X904Y1980D01*
X2036Y1980D01*
X2036Y1982D01*
X904Y1982D01*
G37*
D02*
G36*
X904Y1982D02*
X904Y1980D01*
X2036Y1980D01*
X2036Y1982D01*
X904Y1982D01*
G37*
D02*
G36*
X904Y1982D02*
X904Y1980D01*
X2036Y1980D01*
X2036Y1982D01*
X904Y1982D01*
G37*
D02*
G36*
X904Y1982D02*
X904Y1980D01*
X2036Y1980D01*
X2036Y1982D01*
X904Y1982D01*
G37*
D02*
G36*
X904Y1982D02*
X904Y1980D01*
X2036Y1980D01*
X2036Y1982D01*
X904Y1982D01*
G37*
D02*
G36*
X904Y1982D02*
X904Y1980D01*
X2036Y1980D01*
X2036Y1982D01*
X904Y1982D01*
G37*
D02*
G36*
X206Y1980D02*
X206Y1948D01*
X208Y1948D01*
X208Y1856D01*
X210Y1856D01*
X210Y1844D01*
X212Y1844D01*
X212Y1842D01*
X214Y1842D01*
X214Y1840D01*
X218Y1840D01*
X218Y1838D01*
X220Y1838D01*
X220Y1836D01*
X222Y1836D01*
X222Y1834D01*
X226Y1834D01*
X226Y1832D01*
X228Y1832D01*
X228Y1828D01*
X590Y1828D01*
X590Y1826D01*
X596Y1826D01*
X596Y1824D01*
X598Y1824D01*
X598Y1822D01*
X602Y1822D01*
X602Y1820D01*
X606Y1820D01*
X606Y1818D01*
X608Y1818D01*
X608Y1816D01*
X610Y1816D01*
X610Y1814D01*
X612Y1814D01*
X612Y1812D01*
X614Y1812D01*
X614Y1810D01*
X616Y1810D01*
X616Y1808D01*
X618Y1808D01*
X618Y1806D01*
X638Y1806D01*
X638Y1810D01*
X640Y1810D01*
X640Y1812D01*
X642Y1812D01*
X642Y1814D01*
X644Y1814D01*
X644Y1816D01*
X648Y1816D01*
X648Y1818D01*
X650Y1818D01*
X650Y1820D01*
X654Y1820D01*
X654Y1822D01*
X656Y1822D01*
X656Y1824D01*
X658Y1824D01*
X658Y1888D01*
X660Y1888D01*
X660Y1958D01*
X662Y1958D01*
X662Y1980D01*
X206Y1980D01*
G37*
D02*
G36*
X904Y1980D02*
X904Y1952D01*
X902Y1952D01*
X902Y1886D01*
X900Y1886D01*
X900Y1868D01*
X1340Y1868D01*
X1340Y1866D01*
X1344Y1866D01*
X1344Y1864D01*
X1348Y1864D01*
X1348Y1862D01*
X1350Y1862D01*
X1350Y1860D01*
X1352Y1860D01*
X1352Y1858D01*
X1354Y1858D01*
X1354Y1856D01*
X1356Y1856D01*
X1356Y1854D01*
X1358Y1854D01*
X1358Y1850D01*
X1360Y1850D01*
X1360Y1848D01*
X1362Y1848D01*
X1362Y1842D01*
X1364Y1842D01*
X1364Y1828D01*
X1362Y1828D01*
X1362Y1822D01*
X1360Y1822D01*
X1360Y1818D01*
X1358Y1818D01*
X1358Y1816D01*
X1356Y1816D01*
X1356Y1794D01*
X1358Y1794D01*
X1358Y1792D01*
X1360Y1792D01*
X1360Y1788D01*
X1362Y1788D01*
X1362Y1784D01*
X1364Y1784D01*
X1364Y1778D01*
X1410Y1778D01*
X1410Y1934D01*
X2036Y1934D01*
X2036Y1980D01*
X904Y1980D01*
G37*
D02*
G36*
X900Y1868D02*
X900Y1822D01*
X902Y1822D01*
X902Y1820D01*
X906Y1820D01*
X906Y1818D01*
X908Y1818D01*
X908Y1816D01*
X910Y1816D01*
X910Y1814D01*
X912Y1814D01*
X912Y1812D01*
X914Y1812D01*
X914Y1810D01*
X916Y1810D01*
X916Y1808D01*
X918Y1808D01*
X918Y1806D01*
X920Y1806D01*
X920Y1804D01*
X922Y1804D01*
X922Y1800D01*
X924Y1800D01*
X924Y1796D01*
X926Y1796D01*
X926Y1792D01*
X928Y1792D01*
X928Y1788D01*
X930Y1788D01*
X930Y1764D01*
X928Y1764D01*
X928Y1758D01*
X926Y1758D01*
X926Y1754D01*
X924Y1754D01*
X924Y1752D01*
X922Y1752D01*
X922Y1748D01*
X920Y1748D01*
X920Y1746D01*
X918Y1746D01*
X918Y1744D01*
X916Y1744D01*
X916Y1740D01*
X914Y1740D01*
X914Y1738D01*
X910Y1738D01*
X910Y1736D01*
X908Y1736D01*
X908Y1734D01*
X906Y1734D01*
X906Y1732D01*
X902Y1732D01*
X902Y1730D01*
X900Y1730D01*
X900Y1728D01*
X896Y1728D01*
X896Y1726D01*
X890Y1726D01*
X890Y1724D01*
X880Y1724D01*
X880Y1722D01*
X982Y1722D01*
X982Y1724D01*
X984Y1724D01*
X984Y1730D01*
X986Y1730D01*
X986Y1732D01*
X988Y1732D01*
X988Y1736D01*
X990Y1736D01*
X990Y1756D01*
X988Y1756D01*
X988Y1760D01*
X986Y1760D01*
X986Y1764D01*
X984Y1764D01*
X984Y1768D01*
X982Y1768D01*
X982Y1784D01*
X984Y1784D01*
X984Y1788D01*
X986Y1788D01*
X986Y1792D01*
X988Y1792D01*
X988Y1794D01*
X990Y1794D01*
X990Y1816D01*
X988Y1816D01*
X988Y1818D01*
X986Y1818D01*
X986Y1822D01*
X984Y1822D01*
X984Y1828D01*
X982Y1828D01*
X982Y1842D01*
X984Y1842D01*
X984Y1848D01*
X986Y1848D01*
X986Y1852D01*
X988Y1852D01*
X988Y1854D01*
X990Y1854D01*
X990Y1856D01*
X992Y1856D01*
X992Y1858D01*
X994Y1858D01*
X994Y1860D01*
X996Y1860D01*
X996Y1862D01*
X998Y1862D01*
X998Y1864D01*
X1002Y1864D01*
X1002Y1866D01*
X1006Y1866D01*
X1006Y1868D01*
X900Y1868D01*
G37*
D02*
G36*
X1024Y1868D02*
X1024Y1866D01*
X1028Y1866D01*
X1028Y1864D01*
X1032Y1864D01*
X1032Y1862D01*
X1036Y1862D01*
X1036Y1860D01*
X1038Y1860D01*
X1038Y1858D01*
X1040Y1858D01*
X1040Y1856D01*
X1042Y1856D01*
X1042Y1852D01*
X1044Y1852D01*
X1044Y1850D01*
X1046Y1850D01*
X1046Y1846D01*
X1048Y1846D01*
X1048Y1836D01*
X1050Y1836D01*
X1050Y1834D01*
X1048Y1834D01*
X1048Y1824D01*
X1046Y1824D01*
X1046Y1820D01*
X1044Y1820D01*
X1044Y1818D01*
X1042Y1818D01*
X1042Y1794D01*
X1044Y1794D01*
X1044Y1790D01*
X1046Y1790D01*
X1046Y1786D01*
X1048Y1786D01*
X1048Y1782D01*
X1234Y1782D01*
X1234Y1780D01*
X1240Y1780D01*
X1240Y1778D01*
X1244Y1778D01*
X1244Y1776D01*
X1246Y1776D01*
X1246Y1774D01*
X1250Y1774D01*
X1250Y1772D01*
X1252Y1772D01*
X1252Y1770D01*
X1254Y1770D01*
X1254Y1766D01*
X1256Y1766D01*
X1256Y1764D01*
X1258Y1764D01*
X1258Y1760D01*
X1260Y1760D01*
X1260Y1754D01*
X1262Y1754D01*
X1262Y1742D01*
X1260Y1742D01*
X1260Y1736D01*
X1258Y1736D01*
X1258Y1732D01*
X1256Y1732D01*
X1256Y1730D01*
X1254Y1730D01*
X1254Y1728D01*
X1252Y1728D01*
X1252Y1726D01*
X1250Y1726D01*
X1250Y1724D01*
X1248Y1724D01*
X1248Y1722D01*
X1246Y1722D01*
X1246Y1720D01*
X1242Y1720D01*
X1242Y1718D01*
X1238Y1718D01*
X1238Y1716D01*
X1232Y1716D01*
X1232Y1714D01*
X1294Y1714D01*
X1294Y1778D01*
X1298Y1778D01*
X1298Y1786D01*
X1300Y1786D01*
X1300Y1790D01*
X1302Y1790D01*
X1302Y1794D01*
X1304Y1794D01*
X1304Y1818D01*
X1302Y1818D01*
X1302Y1820D01*
X1300Y1820D01*
X1300Y1824D01*
X1298Y1824D01*
X1298Y1832D01*
X1296Y1832D01*
X1296Y1836D01*
X1298Y1836D01*
X1298Y1846D01*
X1300Y1846D01*
X1300Y1850D01*
X1302Y1850D01*
X1302Y1852D01*
X1304Y1852D01*
X1304Y1856D01*
X1306Y1856D01*
X1306Y1858D01*
X1308Y1858D01*
X1308Y1860D01*
X1310Y1860D01*
X1310Y1862D01*
X1314Y1862D01*
X1314Y1864D01*
X1318Y1864D01*
X1318Y1866D01*
X1322Y1866D01*
X1322Y1868D01*
X1024Y1868D01*
G37*
D02*
G36*
X230Y1828D02*
X230Y1826D01*
X232Y1826D01*
X232Y1824D01*
X234Y1824D01*
X234Y1820D01*
X236Y1820D01*
X236Y1818D01*
X238Y1818D01*
X238Y1814D01*
X240Y1814D01*
X240Y1808D01*
X242Y1808D01*
X242Y1800D01*
X244Y1800D01*
X244Y1792D01*
X242Y1792D01*
X242Y1782D01*
X240Y1782D01*
X240Y1778D01*
X238Y1778D01*
X238Y1774D01*
X236Y1774D01*
X236Y1770D01*
X234Y1770D01*
X234Y1766D01*
X232Y1766D01*
X232Y1764D01*
X230Y1764D01*
X230Y1762D01*
X228Y1762D01*
X228Y1760D01*
X226Y1760D01*
X226Y1758D01*
X224Y1758D01*
X224Y1756D01*
X222Y1756D01*
X222Y1754D01*
X220Y1754D01*
X220Y1752D01*
X216Y1752D01*
X216Y1750D01*
X212Y1750D01*
X212Y1748D01*
X210Y1748D01*
X210Y1746D01*
X204Y1746D01*
X204Y1744D01*
X196Y1744D01*
X196Y1742D01*
X438Y1742D01*
X438Y1744D01*
X436Y1744D01*
X436Y1748D01*
X434Y1748D01*
X434Y1750D01*
X432Y1750D01*
X432Y1754D01*
X430Y1754D01*
X430Y1758D01*
X428Y1758D01*
X428Y1762D01*
X426Y1762D01*
X426Y1772D01*
X424Y1772D01*
X424Y1780D01*
X426Y1780D01*
X426Y1790D01*
X428Y1790D01*
X428Y1794D01*
X430Y1794D01*
X430Y1798D01*
X432Y1798D01*
X432Y1802D01*
X434Y1802D01*
X434Y1804D01*
X436Y1804D01*
X436Y1806D01*
X438Y1806D01*
X438Y1810D01*
X440Y1810D01*
X440Y1812D01*
X442Y1812D01*
X442Y1814D01*
X444Y1814D01*
X444Y1816D01*
X448Y1816D01*
X448Y1818D01*
X450Y1818D01*
X450Y1820D01*
X454Y1820D01*
X454Y1822D01*
X456Y1822D01*
X456Y1824D01*
X460Y1824D01*
X460Y1826D01*
X466Y1826D01*
X466Y1828D01*
X230Y1828D01*
G37*
D02*
G36*
X490Y1828D02*
X490Y1826D01*
X496Y1826D01*
X496Y1824D01*
X498Y1824D01*
X498Y1822D01*
X502Y1822D01*
X502Y1820D01*
X506Y1820D01*
X506Y1818D01*
X508Y1818D01*
X508Y1816D01*
X510Y1816D01*
X510Y1814D01*
X512Y1814D01*
X512Y1812D01*
X514Y1812D01*
X514Y1810D01*
X516Y1810D01*
X516Y1808D01*
X518Y1808D01*
X518Y1806D01*
X538Y1806D01*
X538Y1810D01*
X540Y1810D01*
X540Y1812D01*
X542Y1812D01*
X542Y1814D01*
X544Y1814D01*
X544Y1816D01*
X548Y1816D01*
X548Y1818D01*
X550Y1818D01*
X550Y1820D01*
X554Y1820D01*
X554Y1822D01*
X556Y1822D01*
X556Y1824D01*
X560Y1824D01*
X560Y1826D01*
X566Y1826D01*
X566Y1828D01*
X490Y1828D01*
G37*
D02*
G36*
X1048Y1782D02*
X1048Y1778D01*
X1050Y1778D01*
X1050Y1774D01*
X1048Y1774D01*
X1048Y1766D01*
X1046Y1766D01*
X1046Y1762D01*
X1044Y1762D01*
X1044Y1758D01*
X1042Y1758D01*
X1042Y1734D01*
X1044Y1734D01*
X1044Y1732D01*
X1046Y1732D01*
X1046Y1726D01*
X1048Y1726D01*
X1048Y1718D01*
X1050Y1718D01*
X1050Y1716D01*
X1048Y1716D01*
X1048Y1714D01*
X1110Y1714D01*
X1110Y1716D01*
X1104Y1716D01*
X1104Y1718D01*
X1100Y1718D01*
X1100Y1720D01*
X1096Y1720D01*
X1096Y1722D01*
X1094Y1722D01*
X1094Y1724D01*
X1092Y1724D01*
X1092Y1726D01*
X1090Y1726D01*
X1090Y1728D01*
X1088Y1728D01*
X1088Y1730D01*
X1086Y1730D01*
X1086Y1732D01*
X1084Y1732D01*
X1084Y1736D01*
X1082Y1736D01*
X1082Y1742D01*
X1080Y1742D01*
X1080Y1754D01*
X1082Y1754D01*
X1082Y1760D01*
X1084Y1760D01*
X1084Y1764D01*
X1086Y1764D01*
X1086Y1766D01*
X1088Y1766D01*
X1088Y1770D01*
X1090Y1770D01*
X1090Y1772D01*
X1092Y1772D01*
X1092Y1774D01*
X1096Y1774D01*
X1096Y1776D01*
X1098Y1776D01*
X1098Y1778D01*
X1102Y1778D01*
X1102Y1780D01*
X1108Y1780D01*
X1108Y1782D01*
X1048Y1782D01*
G37*
D02*
G36*
X1120Y1782D02*
X1120Y1780D01*
X1126Y1780D01*
X1126Y1778D01*
X1130Y1778D01*
X1130Y1776D01*
X1154Y1776D01*
X1154Y1778D01*
X1156Y1778D01*
X1156Y1780D01*
X1162Y1780D01*
X1162Y1782D01*
X1120Y1782D01*
G37*
D02*
G36*
X1176Y1782D02*
X1176Y1780D01*
X1182Y1780D01*
X1182Y1778D01*
X1184Y1778D01*
X1184Y1776D01*
X1188Y1776D01*
X1188Y1774D01*
X1210Y1774D01*
X1210Y1776D01*
X1212Y1776D01*
X1212Y1778D01*
X1216Y1778D01*
X1216Y1780D01*
X1222Y1780D01*
X1222Y1782D01*
X1176Y1782D01*
G37*
D02*
G36*
X130Y1764D02*
X130Y1762D01*
X128Y1762D01*
X128Y1760D01*
X126Y1760D01*
X126Y1758D01*
X124Y1758D01*
X124Y1756D01*
X122Y1756D01*
X122Y1754D01*
X120Y1754D01*
X120Y1752D01*
X116Y1752D01*
X116Y1750D01*
X112Y1750D01*
X112Y1748D01*
X110Y1748D01*
X110Y1746D01*
X104Y1746D01*
X104Y1744D01*
X96Y1744D01*
X96Y1742D01*
X184Y1742D01*
X184Y1744D01*
X176Y1744D01*
X176Y1746D01*
X172Y1746D01*
X172Y1748D01*
X168Y1748D01*
X168Y1750D01*
X164Y1750D01*
X164Y1752D01*
X162Y1752D01*
X162Y1754D01*
X160Y1754D01*
X160Y1756D01*
X156Y1756D01*
X156Y1758D01*
X154Y1758D01*
X154Y1760D01*
X152Y1760D01*
X152Y1762D01*
X150Y1762D01*
X150Y1764D01*
X130Y1764D01*
G37*
D02*
G36*
X40Y1756D02*
X40Y1742D01*
X84Y1742D01*
X84Y1744D01*
X76Y1744D01*
X76Y1746D01*
X72Y1746D01*
X72Y1748D01*
X68Y1748D01*
X68Y1750D01*
X64Y1750D01*
X64Y1752D01*
X62Y1752D01*
X62Y1754D01*
X60Y1754D01*
X60Y1756D01*
X40Y1756D01*
G37*
D02*
G36*
X516Y1744D02*
X516Y1740D01*
X514Y1740D01*
X514Y1738D01*
X510Y1738D01*
X510Y1736D01*
X508Y1736D01*
X508Y1734D01*
X506Y1734D01*
X506Y1732D01*
X502Y1732D01*
X502Y1730D01*
X500Y1730D01*
X500Y1728D01*
X496Y1728D01*
X496Y1726D01*
X490Y1726D01*
X490Y1724D01*
X480Y1724D01*
X480Y1722D01*
X576Y1722D01*
X576Y1724D01*
X564Y1724D01*
X564Y1726D01*
X560Y1726D01*
X560Y1728D01*
X556Y1728D01*
X556Y1730D01*
X552Y1730D01*
X552Y1732D01*
X550Y1732D01*
X550Y1734D01*
X546Y1734D01*
X546Y1736D01*
X544Y1736D01*
X544Y1738D01*
X542Y1738D01*
X542Y1740D01*
X540Y1740D01*
X540Y1742D01*
X538Y1742D01*
X538Y1744D01*
X516Y1744D01*
G37*
D02*
G36*
X616Y1744D02*
X616Y1740D01*
X614Y1740D01*
X614Y1738D01*
X610Y1738D01*
X610Y1736D01*
X608Y1736D01*
X608Y1734D01*
X606Y1734D01*
X606Y1732D01*
X602Y1732D01*
X602Y1730D01*
X600Y1730D01*
X600Y1728D01*
X596Y1728D01*
X596Y1726D01*
X590Y1726D01*
X590Y1724D01*
X580Y1724D01*
X580Y1722D01*
X676Y1722D01*
X676Y1724D01*
X664Y1724D01*
X664Y1726D01*
X660Y1726D01*
X660Y1728D01*
X656Y1728D01*
X656Y1730D01*
X652Y1730D01*
X652Y1732D01*
X650Y1732D01*
X650Y1734D01*
X646Y1734D01*
X646Y1736D01*
X644Y1736D01*
X644Y1738D01*
X642Y1738D01*
X642Y1740D01*
X640Y1740D01*
X640Y1742D01*
X638Y1742D01*
X638Y1744D01*
X616Y1744D01*
G37*
D02*
G36*
X716Y1744D02*
X716Y1740D01*
X714Y1740D01*
X714Y1738D01*
X710Y1738D01*
X710Y1736D01*
X708Y1736D01*
X708Y1734D01*
X706Y1734D01*
X706Y1732D01*
X702Y1732D01*
X702Y1730D01*
X700Y1730D01*
X700Y1728D01*
X696Y1728D01*
X696Y1726D01*
X690Y1726D01*
X690Y1724D01*
X680Y1724D01*
X680Y1722D01*
X776Y1722D01*
X776Y1724D01*
X764Y1724D01*
X764Y1726D01*
X760Y1726D01*
X760Y1728D01*
X756Y1728D01*
X756Y1730D01*
X752Y1730D01*
X752Y1732D01*
X750Y1732D01*
X750Y1734D01*
X746Y1734D01*
X746Y1736D01*
X744Y1736D01*
X744Y1738D01*
X742Y1738D01*
X742Y1740D01*
X740Y1740D01*
X740Y1742D01*
X738Y1742D01*
X738Y1744D01*
X716Y1744D01*
G37*
D02*
G36*
X816Y1744D02*
X816Y1740D01*
X814Y1740D01*
X814Y1738D01*
X810Y1738D01*
X810Y1736D01*
X808Y1736D01*
X808Y1734D01*
X806Y1734D01*
X806Y1732D01*
X802Y1732D01*
X802Y1730D01*
X800Y1730D01*
X800Y1728D01*
X796Y1728D01*
X796Y1726D01*
X790Y1726D01*
X790Y1724D01*
X780Y1724D01*
X780Y1722D01*
X876Y1722D01*
X876Y1724D01*
X864Y1724D01*
X864Y1726D01*
X860Y1726D01*
X860Y1728D01*
X856Y1728D01*
X856Y1730D01*
X852Y1730D01*
X852Y1732D01*
X850Y1732D01*
X850Y1734D01*
X846Y1734D01*
X846Y1736D01*
X844Y1736D01*
X844Y1738D01*
X842Y1738D01*
X842Y1740D01*
X840Y1740D01*
X840Y1742D01*
X838Y1742D01*
X838Y1744D01*
X816Y1744D01*
G37*
D02*
G36*
X40Y1742D02*
X40Y1740D01*
X440Y1740D01*
X440Y1742D01*
X40Y1742D01*
G37*
D02*
G36*
X40Y1742D02*
X40Y1740D01*
X440Y1740D01*
X440Y1742D01*
X40Y1742D01*
G37*
D02*
G36*
X40Y1742D02*
X40Y1740D01*
X440Y1740D01*
X440Y1742D01*
X40Y1742D01*
G37*
D02*
G36*
X40Y1740D02*
X40Y1722D01*
X476Y1722D01*
X476Y1724D01*
X464Y1724D01*
X464Y1726D01*
X460Y1726D01*
X460Y1728D01*
X456Y1728D01*
X456Y1730D01*
X452Y1730D01*
X452Y1732D01*
X450Y1732D01*
X450Y1734D01*
X446Y1734D01*
X446Y1736D01*
X444Y1736D01*
X444Y1738D01*
X442Y1738D01*
X442Y1740D01*
X40Y1740D01*
G37*
D02*
G36*
X40Y1722D02*
X40Y1720D01*
X982Y1720D01*
X982Y1722D01*
X40Y1722D01*
G37*
D02*
G36*
X40Y1722D02*
X40Y1720D01*
X982Y1720D01*
X982Y1722D01*
X40Y1722D01*
G37*
D02*
G36*
X40Y1722D02*
X40Y1720D01*
X982Y1720D01*
X982Y1722D01*
X40Y1722D01*
G37*
D02*
G36*
X40Y1722D02*
X40Y1720D01*
X982Y1720D01*
X982Y1722D01*
X40Y1722D01*
G37*
D02*
G36*
X40Y1722D02*
X40Y1720D01*
X982Y1720D01*
X982Y1722D01*
X40Y1722D01*
G37*
D02*
G36*
X40Y1722D02*
X40Y1720D01*
X982Y1720D01*
X982Y1722D01*
X40Y1722D01*
G37*
D02*
G36*
X1188Y1722D02*
X1188Y1720D01*
X1184Y1720D01*
X1184Y1718D01*
X1180Y1718D01*
X1180Y1716D01*
X1172Y1716D01*
X1172Y1714D01*
X1224Y1714D01*
X1224Y1716D01*
X1218Y1716D01*
X1218Y1718D01*
X1214Y1718D01*
X1214Y1720D01*
X1210Y1720D01*
X1210Y1722D01*
X1188Y1722D01*
G37*
D02*
G36*
X40Y1720D02*
X40Y1454D01*
X1038Y1454D01*
X1038Y1456D01*
X1028Y1456D01*
X1028Y1458D01*
X1024Y1458D01*
X1024Y1460D01*
X1022Y1460D01*
X1022Y1462D01*
X1018Y1462D01*
X1018Y1464D01*
X1016Y1464D01*
X1016Y1466D01*
X1014Y1466D01*
X1014Y1468D01*
X1012Y1468D01*
X1012Y1472D01*
X1010Y1472D01*
X1010Y1476D01*
X1008Y1476D01*
X1008Y1480D01*
X1006Y1480D01*
X1006Y1508D01*
X1002Y1508D01*
X1002Y1510D01*
X1000Y1510D01*
X1000Y1512D01*
X996Y1512D01*
X996Y1514D01*
X994Y1514D01*
X994Y1516D01*
X992Y1516D01*
X992Y1518D01*
X990Y1518D01*
X990Y1520D01*
X988Y1520D01*
X988Y1524D01*
X986Y1524D01*
X986Y1526D01*
X984Y1526D01*
X984Y1532D01*
X982Y1532D01*
X982Y1548D01*
X984Y1548D01*
X984Y1552D01*
X986Y1552D01*
X986Y1556D01*
X988Y1556D01*
X988Y1558D01*
X990Y1558D01*
X990Y1580D01*
X988Y1580D01*
X988Y1582D01*
X986Y1582D01*
X986Y1586D01*
X984Y1586D01*
X984Y1592D01*
X982Y1592D01*
X982Y1606D01*
X984Y1606D01*
X984Y1612D01*
X986Y1612D01*
X986Y1614D01*
X988Y1614D01*
X988Y1618D01*
X990Y1618D01*
X990Y1638D01*
X988Y1638D01*
X988Y1642D01*
X986Y1642D01*
X986Y1644D01*
X984Y1644D01*
X984Y1650D01*
X982Y1650D01*
X982Y1666D01*
X984Y1666D01*
X984Y1670D01*
X986Y1670D01*
X986Y1674D01*
X988Y1674D01*
X988Y1676D01*
X990Y1676D01*
X990Y1698D01*
X988Y1698D01*
X988Y1700D01*
X986Y1700D01*
X986Y1704D01*
X984Y1704D01*
X984Y1710D01*
X982Y1710D01*
X982Y1720D01*
X40Y1720D01*
G37*
D02*
G36*
X1128Y1720D02*
X1128Y1718D01*
X1124Y1718D01*
X1124Y1716D01*
X1118Y1716D01*
X1118Y1714D01*
X1166Y1714D01*
X1166Y1716D01*
X1158Y1716D01*
X1158Y1718D01*
X1154Y1718D01*
X1154Y1720D01*
X1128Y1720D01*
G37*
D02*
G36*
X1048Y1714D02*
X1048Y1712D01*
X1294Y1712D01*
X1294Y1714D01*
X1048Y1714D01*
G37*
D02*
G36*
X1048Y1714D02*
X1048Y1712D01*
X1294Y1712D01*
X1294Y1714D01*
X1048Y1714D01*
G37*
D02*
G36*
X1048Y1714D02*
X1048Y1712D01*
X1294Y1712D01*
X1294Y1714D01*
X1048Y1714D01*
G37*
D02*
G36*
X1048Y1714D02*
X1048Y1712D01*
X1294Y1712D01*
X1294Y1714D01*
X1048Y1714D01*
G37*
D02*
G36*
X1048Y1712D02*
X1048Y1706D01*
X1046Y1706D01*
X1046Y1702D01*
X1044Y1702D01*
X1044Y1700D01*
X1042Y1700D01*
X1042Y1676D01*
X1044Y1676D01*
X1044Y1672D01*
X1046Y1672D01*
X1046Y1668D01*
X1048Y1668D01*
X1048Y1660D01*
X1050Y1660D01*
X1050Y1656D01*
X1048Y1656D01*
X1048Y1648D01*
X1046Y1648D01*
X1046Y1644D01*
X1044Y1644D01*
X1044Y1640D01*
X1042Y1640D01*
X1042Y1638D01*
X1040Y1638D01*
X1040Y1618D01*
X1042Y1618D01*
X1042Y1616D01*
X1044Y1616D01*
X1044Y1614D01*
X1046Y1614D01*
X1046Y1608D01*
X1048Y1608D01*
X1048Y1600D01*
X1050Y1600D01*
X1050Y1598D01*
X1048Y1598D01*
X1048Y1592D01*
X1222Y1592D01*
X1222Y1590D01*
X1226Y1590D01*
X1226Y1588D01*
X1230Y1588D01*
X1230Y1586D01*
X1232Y1586D01*
X1232Y1584D01*
X1234Y1584D01*
X1234Y1582D01*
X1236Y1582D01*
X1236Y1580D01*
X1238Y1580D01*
X1238Y1578D01*
X1240Y1578D01*
X1240Y1574D01*
X1242Y1574D01*
X1242Y1572D01*
X1244Y1572D01*
X1244Y1566D01*
X1246Y1566D01*
X1246Y1552D01*
X1244Y1552D01*
X1244Y1548D01*
X1242Y1548D01*
X1242Y1544D01*
X1240Y1544D01*
X1240Y1542D01*
X1238Y1542D01*
X1238Y1538D01*
X1236Y1538D01*
X1236Y1536D01*
X1234Y1536D01*
X1234Y1534D01*
X1232Y1534D01*
X1232Y1510D01*
X1280Y1510D01*
X1280Y1512D01*
X1282Y1512D01*
X1282Y1514D01*
X1284Y1514D01*
X1284Y1516D01*
X1286Y1516D01*
X1286Y1518D01*
X1288Y1518D01*
X1288Y1520D01*
X1290Y1520D01*
X1290Y1522D01*
X1294Y1522D01*
X1294Y1712D01*
X1048Y1712D01*
G37*
D02*
G36*
X1048Y1592D02*
X1048Y1588D01*
X1046Y1588D01*
X1046Y1584D01*
X1044Y1584D01*
X1044Y1580D01*
X1042Y1580D01*
X1042Y1558D01*
X1044Y1558D01*
X1044Y1554D01*
X1046Y1554D01*
X1046Y1550D01*
X1048Y1550D01*
X1048Y1540D01*
X1050Y1540D01*
X1050Y1520D01*
X1052Y1520D01*
X1052Y1518D01*
X1056Y1518D01*
X1056Y1516D01*
X1058Y1516D01*
X1058Y1514D01*
X1060Y1514D01*
X1060Y1512D01*
X1062Y1512D01*
X1062Y1510D01*
X1064Y1510D01*
X1064Y1508D01*
X1066Y1508D01*
X1066Y1506D01*
X1114Y1506D01*
X1114Y1534D01*
X1112Y1534D01*
X1112Y1536D01*
X1110Y1536D01*
X1110Y1538D01*
X1108Y1538D01*
X1108Y1540D01*
X1106Y1540D01*
X1106Y1544D01*
X1104Y1544D01*
X1104Y1548D01*
X1102Y1548D01*
X1102Y1552D01*
X1100Y1552D01*
X1100Y1566D01*
X1102Y1566D01*
X1102Y1572D01*
X1104Y1572D01*
X1104Y1574D01*
X1106Y1574D01*
X1106Y1578D01*
X1108Y1578D01*
X1108Y1580D01*
X1110Y1580D01*
X1110Y1582D01*
X1112Y1582D01*
X1112Y1584D01*
X1114Y1584D01*
X1114Y1586D01*
X1116Y1586D01*
X1116Y1588D01*
X1120Y1588D01*
X1120Y1590D01*
X1124Y1590D01*
X1124Y1592D01*
X1048Y1592D01*
G37*
D02*
G36*
X1142Y1592D02*
X1142Y1590D01*
X1148Y1590D01*
X1148Y1588D01*
X1150Y1588D01*
X1150Y1586D01*
X1152Y1586D01*
X1152Y1584D01*
X1156Y1584D01*
X1156Y1582D01*
X1158Y1582D01*
X1158Y1580D01*
X1160Y1580D01*
X1160Y1576D01*
X1162Y1576D01*
X1162Y1574D01*
X1184Y1574D01*
X1184Y1576D01*
X1186Y1576D01*
X1186Y1580D01*
X1188Y1580D01*
X1188Y1582D01*
X1190Y1582D01*
X1190Y1584D01*
X1192Y1584D01*
X1192Y1586D01*
X1196Y1586D01*
X1196Y1588D01*
X1198Y1588D01*
X1198Y1590D01*
X1204Y1590D01*
X1204Y1592D01*
X1142Y1592D01*
G37*
D02*
G36*
X1042Y1456D02*
X1042Y1454D01*
X1066Y1454D01*
X1066Y1456D01*
X1042Y1456D01*
G37*
D02*
G36*
X40Y1454D02*
X40Y1452D01*
X1068Y1452D01*
X1068Y1454D01*
X40Y1454D01*
G37*
D02*
G36*
X40Y1454D02*
X40Y1452D01*
X1068Y1452D01*
X1068Y1454D01*
X40Y1454D01*
G37*
D02*
G36*
X40Y1452D02*
X40Y1140D01*
X846Y1140D01*
X846Y1138D01*
X850Y1138D01*
X850Y1136D01*
X854Y1136D01*
X854Y1134D01*
X856Y1134D01*
X856Y1132D01*
X860Y1132D01*
X860Y1130D01*
X862Y1130D01*
X862Y1128D01*
X864Y1128D01*
X864Y1124D01*
X866Y1124D01*
X866Y1122D01*
X868Y1122D01*
X868Y1118D01*
X870Y1118D01*
X870Y1114D01*
X872Y1114D01*
X872Y1100D01*
X870Y1100D01*
X870Y1094D01*
X868Y1094D01*
X868Y1092D01*
X866Y1092D01*
X866Y1088D01*
X864Y1088D01*
X864Y1086D01*
X862Y1086D01*
X862Y1084D01*
X860Y1084D01*
X860Y1082D01*
X858Y1082D01*
X858Y1080D01*
X856Y1080D01*
X856Y1078D01*
X852Y1078D01*
X852Y1076D01*
X848Y1076D01*
X848Y1074D01*
X840Y1074D01*
X840Y1072D01*
X1082Y1072D01*
X1082Y1282D01*
X1114Y1282D01*
X1114Y1440D01*
X1084Y1440D01*
X1084Y1442D01*
X1080Y1442D01*
X1080Y1444D01*
X1076Y1444D01*
X1076Y1446D01*
X1074Y1446D01*
X1074Y1448D01*
X1072Y1448D01*
X1072Y1450D01*
X1070Y1450D01*
X1070Y1452D01*
X40Y1452D01*
G37*
D02*
G36*
X40Y1140D02*
X40Y1072D01*
X838Y1072D01*
X838Y1074D01*
X828Y1074D01*
X828Y1076D01*
X824Y1076D01*
X824Y1078D01*
X822Y1078D01*
X822Y1080D01*
X818Y1080D01*
X818Y1082D01*
X816Y1082D01*
X816Y1084D01*
X814Y1084D01*
X814Y1086D01*
X812Y1086D01*
X812Y1090D01*
X810Y1090D01*
X810Y1092D01*
X808Y1092D01*
X808Y1096D01*
X806Y1096D01*
X806Y1104D01*
X804Y1104D01*
X804Y1110D01*
X806Y1110D01*
X806Y1116D01*
X808Y1116D01*
X808Y1120D01*
X810Y1120D01*
X810Y1124D01*
X812Y1124D01*
X812Y1126D01*
X814Y1126D01*
X814Y1128D01*
X816Y1128D01*
X816Y1130D01*
X818Y1130D01*
X818Y1132D01*
X820Y1132D01*
X820Y1134D01*
X822Y1134D01*
X822Y1136D01*
X826Y1136D01*
X826Y1138D01*
X832Y1138D01*
X832Y1140D01*
X40Y1140D01*
G37*
D02*
G36*
X40Y1072D02*
X40Y1070D01*
X1082Y1070D01*
X1082Y1072D01*
X40Y1072D01*
G37*
D02*
G36*
X40Y1072D02*
X40Y1070D01*
X1082Y1070D01*
X1082Y1072D01*
X40Y1072D01*
G37*
D02*
G36*
X40Y1070D02*
X40Y1060D01*
X608Y1060D01*
X608Y1058D01*
X616Y1058D01*
X616Y1056D01*
X620Y1056D01*
X620Y1054D01*
X624Y1054D01*
X624Y1052D01*
X628Y1052D01*
X628Y1050D01*
X630Y1050D01*
X630Y1048D01*
X632Y1048D01*
X632Y1046D01*
X636Y1046D01*
X636Y1044D01*
X638Y1044D01*
X638Y1042D01*
X640Y1042D01*
X640Y1038D01*
X642Y1038D01*
X642Y1036D01*
X644Y1036D01*
X644Y1034D01*
X646Y1034D01*
X646Y1030D01*
X648Y1030D01*
X648Y1026D01*
X650Y1026D01*
X650Y1022D01*
X652Y1022D01*
X652Y1014D01*
X654Y1014D01*
X654Y1002D01*
X652Y1002D01*
X652Y994D01*
X650Y994D01*
X650Y990D01*
X648Y990D01*
X648Y986D01*
X646Y986D01*
X646Y982D01*
X644Y982D01*
X644Y980D01*
X642Y980D01*
X642Y978D01*
X640Y978D01*
X640Y974D01*
X638Y974D01*
X638Y972D01*
X634Y972D01*
X634Y970D01*
X632Y970D01*
X632Y968D01*
X630Y968D01*
X630Y966D01*
X628Y966D01*
X628Y964D01*
X624Y964D01*
X624Y962D01*
X620Y962D01*
X620Y960D01*
X616Y960D01*
X616Y958D01*
X608Y958D01*
X608Y956D01*
X1082Y956D01*
X1082Y1070D01*
X40Y1070D01*
G37*
D02*
G36*
X40Y1060D02*
X40Y956D01*
X342Y956D01*
X342Y958D01*
X332Y958D01*
X332Y960D01*
X328Y960D01*
X328Y962D01*
X324Y962D01*
X324Y964D01*
X320Y964D01*
X320Y966D01*
X318Y966D01*
X318Y968D01*
X316Y968D01*
X316Y970D01*
X314Y970D01*
X314Y972D01*
X312Y972D01*
X312Y974D01*
X310Y974D01*
X310Y976D01*
X308Y976D01*
X308Y978D01*
X306Y978D01*
X306Y980D01*
X304Y980D01*
X304Y984D01*
X302Y984D01*
X302Y986D01*
X300Y986D01*
X300Y990D01*
X298Y990D01*
X298Y994D01*
X296Y994D01*
X296Y1004D01*
X294Y1004D01*
X294Y1012D01*
X296Y1012D01*
X296Y1022D01*
X298Y1022D01*
X298Y1026D01*
X300Y1026D01*
X300Y1030D01*
X302Y1030D01*
X302Y1034D01*
X304Y1034D01*
X304Y1036D01*
X306Y1036D01*
X306Y1038D01*
X308Y1038D01*
X308Y1040D01*
X310Y1040D01*
X310Y1044D01*
X312Y1044D01*
X312Y1046D01*
X316Y1046D01*
X316Y1048D01*
X318Y1048D01*
X318Y1050D01*
X320Y1050D01*
X320Y1052D01*
X324Y1052D01*
X324Y1054D01*
X328Y1054D01*
X328Y1056D01*
X332Y1056D01*
X332Y1058D01*
X340Y1058D01*
X340Y1060D01*
X40Y1060D01*
G37*
D02*
G36*
X352Y1060D02*
X352Y1058D01*
X360Y1058D01*
X360Y1056D01*
X366Y1056D01*
X366Y1054D01*
X368Y1054D01*
X368Y1052D01*
X372Y1052D01*
X372Y1050D01*
X374Y1050D01*
X374Y1048D01*
X378Y1048D01*
X378Y1046D01*
X380Y1046D01*
X380Y1044D01*
X382Y1044D01*
X382Y1042D01*
X384Y1042D01*
X384Y1040D01*
X386Y1040D01*
X386Y1036D01*
X388Y1036D01*
X388Y1034D01*
X390Y1034D01*
X390Y1030D01*
X392Y1030D01*
X392Y1028D01*
X394Y1028D01*
X394Y1022D01*
X396Y1022D01*
X396Y1014D01*
X398Y1014D01*
X398Y1002D01*
X396Y1002D01*
X396Y994D01*
X394Y994D01*
X394Y990D01*
X392Y990D01*
X392Y986D01*
X390Y986D01*
X390Y982D01*
X388Y982D01*
X388Y980D01*
X386Y980D01*
X386Y978D01*
X384Y978D01*
X384Y974D01*
X382Y974D01*
X382Y972D01*
X380Y972D01*
X380Y970D01*
X376Y970D01*
X376Y968D01*
X374Y968D01*
X374Y966D01*
X372Y966D01*
X372Y964D01*
X368Y964D01*
X368Y962D01*
X364Y962D01*
X364Y960D01*
X360Y960D01*
X360Y958D01*
X352Y958D01*
X352Y956D01*
X598Y956D01*
X598Y958D01*
X588Y958D01*
X588Y960D01*
X584Y960D01*
X584Y962D01*
X580Y962D01*
X580Y964D01*
X576Y964D01*
X576Y966D01*
X574Y966D01*
X574Y968D01*
X572Y968D01*
X572Y970D01*
X570Y970D01*
X570Y972D01*
X566Y972D01*
X566Y976D01*
X564Y976D01*
X564Y978D01*
X562Y978D01*
X562Y980D01*
X560Y980D01*
X560Y982D01*
X558Y982D01*
X558Y986D01*
X556Y986D01*
X556Y990D01*
X554Y990D01*
X554Y994D01*
X552Y994D01*
X552Y1002D01*
X550Y1002D01*
X550Y1014D01*
X552Y1014D01*
X552Y1022D01*
X554Y1022D01*
X554Y1026D01*
X556Y1026D01*
X556Y1030D01*
X558Y1030D01*
X558Y1034D01*
X560Y1034D01*
X560Y1036D01*
X562Y1036D01*
X562Y1038D01*
X564Y1038D01*
X564Y1042D01*
X566Y1042D01*
X566Y1044D01*
X568Y1044D01*
X568Y1046D01*
X572Y1046D01*
X572Y1048D01*
X574Y1048D01*
X574Y1050D01*
X576Y1050D01*
X576Y1052D01*
X580Y1052D01*
X580Y1054D01*
X584Y1054D01*
X584Y1056D01*
X588Y1056D01*
X588Y1058D01*
X596Y1058D01*
X596Y1060D01*
X352Y1060D01*
G37*
D02*
G36*
X40Y956D02*
X40Y954D01*
X1082Y954D01*
X1082Y956D01*
X40Y956D01*
G37*
D02*
G36*
X40Y956D02*
X40Y954D01*
X1082Y954D01*
X1082Y956D01*
X40Y956D01*
G37*
D02*
G36*
X40Y956D02*
X40Y954D01*
X1082Y954D01*
X1082Y956D01*
X40Y956D01*
G37*
D02*
G36*
X40Y954D02*
X40Y898D01*
X936Y898D01*
X936Y896D01*
X940Y896D01*
X940Y894D01*
X944Y894D01*
X944Y892D01*
X948Y892D01*
X948Y890D01*
X950Y890D01*
X950Y888D01*
X952Y888D01*
X952Y886D01*
X954Y886D01*
X954Y884D01*
X956Y884D01*
X956Y880D01*
X958Y880D01*
X958Y878D01*
X960Y878D01*
X960Y872D01*
X962Y872D01*
X962Y856D01*
X960Y856D01*
X960Y852D01*
X958Y852D01*
X958Y848D01*
X956Y848D01*
X956Y846D01*
X954Y846D01*
X954Y844D01*
X952Y844D01*
X952Y842D01*
X950Y842D01*
X950Y840D01*
X948Y840D01*
X948Y838D01*
X946Y838D01*
X946Y836D01*
X942Y836D01*
X942Y834D01*
X938Y834D01*
X938Y832D01*
X930Y832D01*
X930Y830D01*
X1196Y830D01*
X1196Y854D01*
X1082Y854D01*
X1082Y954D01*
X40Y954D01*
G37*
D02*
G36*
X40Y898D02*
X40Y882D01*
X612Y882D01*
X612Y880D01*
X618Y880D01*
X618Y878D01*
X622Y878D01*
X622Y876D01*
X626Y876D01*
X626Y874D01*
X630Y874D01*
X630Y872D01*
X632Y872D01*
X632Y870D01*
X634Y870D01*
X634Y868D01*
X636Y868D01*
X636Y866D01*
X638Y866D01*
X638Y864D01*
X640Y864D01*
X640Y862D01*
X642Y862D01*
X642Y860D01*
X644Y860D01*
X644Y856D01*
X646Y856D01*
X646Y854D01*
X648Y854D01*
X648Y850D01*
X650Y850D01*
X650Y844D01*
X652Y844D01*
X652Y838D01*
X654Y838D01*
X654Y830D01*
X926Y830D01*
X926Y832D01*
X918Y832D01*
X918Y834D01*
X914Y834D01*
X914Y836D01*
X912Y836D01*
X912Y838D01*
X910Y838D01*
X910Y840D01*
X906Y840D01*
X906Y842D01*
X904Y842D01*
X904Y846D01*
X902Y846D01*
X902Y848D01*
X900Y848D01*
X900Y852D01*
X898Y852D01*
X898Y856D01*
X896Y856D01*
X896Y874D01*
X898Y874D01*
X898Y878D01*
X900Y878D01*
X900Y880D01*
X902Y880D01*
X902Y884D01*
X904Y884D01*
X904Y886D01*
X906Y886D01*
X906Y888D01*
X908Y888D01*
X908Y890D01*
X910Y890D01*
X910Y892D01*
X914Y892D01*
X914Y894D01*
X916Y894D01*
X916Y896D01*
X922Y896D01*
X922Y898D01*
X40Y898D01*
G37*
D02*
G36*
X40Y882D02*
X40Y780D01*
X336Y780D01*
X336Y782D01*
X330Y782D01*
X330Y784D01*
X326Y784D01*
X326Y786D01*
X322Y786D01*
X322Y788D01*
X320Y788D01*
X320Y790D01*
X316Y790D01*
X316Y792D01*
X314Y792D01*
X314Y794D01*
X312Y794D01*
X312Y796D01*
X310Y796D01*
X310Y798D01*
X308Y798D01*
X308Y800D01*
X306Y800D01*
X306Y802D01*
X304Y802D01*
X304Y806D01*
X302Y806D01*
X302Y810D01*
X300Y810D01*
X300Y812D01*
X298Y812D01*
X298Y818D01*
X296Y818D01*
X296Y826D01*
X294Y826D01*
X294Y836D01*
X296Y836D01*
X296Y844D01*
X298Y844D01*
X298Y850D01*
X300Y850D01*
X300Y852D01*
X302Y852D01*
X302Y856D01*
X304Y856D01*
X304Y860D01*
X306Y860D01*
X306Y862D01*
X308Y862D01*
X308Y864D01*
X310Y864D01*
X310Y866D01*
X312Y866D01*
X312Y868D01*
X314Y868D01*
X314Y870D01*
X316Y870D01*
X316Y872D01*
X320Y872D01*
X320Y874D01*
X322Y874D01*
X322Y876D01*
X326Y876D01*
X326Y878D01*
X330Y878D01*
X330Y880D01*
X336Y880D01*
X336Y882D01*
X40Y882D01*
G37*
D02*
G36*
X356Y882D02*
X356Y880D01*
X362Y880D01*
X362Y878D01*
X366Y878D01*
X366Y876D01*
X370Y876D01*
X370Y874D01*
X374Y874D01*
X374Y872D01*
X376Y872D01*
X376Y870D01*
X378Y870D01*
X378Y868D01*
X380Y868D01*
X380Y866D01*
X382Y866D01*
X382Y864D01*
X384Y864D01*
X384Y862D01*
X386Y862D01*
X386Y860D01*
X388Y860D01*
X388Y856D01*
X390Y856D01*
X390Y854D01*
X392Y854D01*
X392Y850D01*
X394Y850D01*
X394Y846D01*
X396Y846D01*
X396Y838D01*
X398Y838D01*
X398Y824D01*
X396Y824D01*
X396Y816D01*
X394Y816D01*
X394Y812D01*
X392Y812D01*
X392Y808D01*
X390Y808D01*
X390Y806D01*
X388Y806D01*
X388Y802D01*
X386Y802D01*
X386Y800D01*
X384Y800D01*
X384Y798D01*
X382Y798D01*
X382Y796D01*
X380Y796D01*
X380Y794D01*
X378Y794D01*
X378Y792D01*
X376Y792D01*
X376Y790D01*
X374Y790D01*
X374Y788D01*
X370Y788D01*
X370Y786D01*
X366Y786D01*
X366Y784D01*
X362Y784D01*
X362Y782D01*
X356Y782D01*
X356Y780D01*
X592Y780D01*
X592Y782D01*
X586Y782D01*
X586Y784D01*
X582Y784D01*
X582Y786D01*
X578Y786D01*
X578Y788D01*
X576Y788D01*
X576Y790D01*
X572Y790D01*
X572Y792D01*
X570Y792D01*
X570Y794D01*
X568Y794D01*
X568Y796D01*
X566Y796D01*
X566Y798D01*
X564Y798D01*
X564Y800D01*
X562Y800D01*
X562Y802D01*
X560Y802D01*
X560Y806D01*
X558Y806D01*
X558Y810D01*
X556Y810D01*
X556Y812D01*
X554Y812D01*
X554Y818D01*
X552Y818D01*
X552Y826D01*
X550Y826D01*
X550Y836D01*
X552Y836D01*
X552Y844D01*
X554Y844D01*
X554Y850D01*
X556Y850D01*
X556Y852D01*
X558Y852D01*
X558Y856D01*
X560Y856D01*
X560Y860D01*
X562Y860D01*
X562Y862D01*
X564Y862D01*
X564Y864D01*
X566Y864D01*
X566Y866D01*
X568Y866D01*
X568Y868D01*
X570Y868D01*
X570Y870D01*
X572Y870D01*
X572Y872D01*
X576Y872D01*
X576Y874D01*
X578Y874D01*
X578Y876D01*
X582Y876D01*
X582Y878D01*
X586Y878D01*
X586Y880D01*
X592Y880D01*
X592Y882D01*
X356Y882D01*
G37*
D02*
G36*
X654Y830D02*
X654Y828D01*
X1196Y828D01*
X1196Y830D01*
X654Y830D01*
G37*
D02*
G36*
X654Y830D02*
X654Y828D01*
X1196Y828D01*
X1196Y830D01*
X654Y830D01*
G37*
D02*
G36*
X654Y828D02*
X654Y824D01*
X652Y824D01*
X652Y816D01*
X650Y816D01*
X650Y812D01*
X648Y812D01*
X648Y808D01*
X646Y808D01*
X646Y806D01*
X644Y806D01*
X644Y802D01*
X642Y802D01*
X642Y800D01*
X640Y800D01*
X640Y798D01*
X638Y798D01*
X638Y796D01*
X636Y796D01*
X636Y794D01*
X634Y794D01*
X634Y792D01*
X632Y792D01*
X632Y790D01*
X630Y790D01*
X630Y788D01*
X626Y788D01*
X626Y786D01*
X622Y786D01*
X622Y784D01*
X618Y784D01*
X618Y782D01*
X612Y782D01*
X612Y780D01*
X1196Y780D01*
X1196Y828D01*
X654Y828D01*
G37*
D02*
G36*
X40Y780D02*
X40Y778D01*
X1196Y778D01*
X1196Y780D01*
X40Y780D01*
G37*
D02*
G36*
X40Y780D02*
X40Y778D01*
X1196Y778D01*
X1196Y780D01*
X40Y780D01*
G37*
D02*
G36*
X40Y780D02*
X40Y778D01*
X1196Y778D01*
X1196Y780D01*
X40Y780D01*
G37*
D02*
G36*
X40Y778D02*
X40Y540D01*
X702Y540D01*
X702Y538D01*
X708Y538D01*
X708Y536D01*
X712Y536D01*
X712Y534D01*
X716Y534D01*
X716Y532D01*
X718Y532D01*
X718Y530D01*
X722Y530D01*
X722Y528D01*
X724Y528D01*
X724Y526D01*
X726Y526D01*
X726Y524D01*
X728Y524D01*
X728Y522D01*
X730Y522D01*
X730Y520D01*
X732Y520D01*
X732Y518D01*
X734Y518D01*
X734Y514D01*
X736Y514D01*
X736Y512D01*
X738Y512D01*
X738Y508D01*
X740Y508D01*
X740Y504D01*
X742Y504D01*
X742Y498D01*
X744Y498D01*
X744Y476D01*
X742Y476D01*
X742Y470D01*
X740Y470D01*
X740Y466D01*
X738Y466D01*
X738Y462D01*
X736Y462D01*
X736Y458D01*
X734Y458D01*
X734Y456D01*
X732Y456D01*
X732Y454D01*
X730Y454D01*
X730Y452D01*
X728Y452D01*
X728Y450D01*
X726Y450D01*
X726Y448D01*
X724Y448D01*
X724Y446D01*
X722Y446D01*
X722Y444D01*
X720Y444D01*
X720Y442D01*
X716Y442D01*
X716Y440D01*
X714Y440D01*
X714Y438D01*
X710Y438D01*
X710Y436D01*
X704Y436D01*
X704Y434D01*
X696Y434D01*
X696Y432D01*
X1212Y432D01*
X1212Y612D01*
X1196Y612D01*
X1196Y778D01*
X40Y778D01*
G37*
D02*
G36*
X40Y540D02*
X40Y432D01*
X86Y432D01*
X86Y540D01*
X40Y540D01*
G37*
D02*
G36*
X194Y540D02*
X194Y432D01*
X272Y432D01*
X272Y434D01*
X264Y434D01*
X264Y436D01*
X258Y436D01*
X258Y438D01*
X254Y438D01*
X254Y440D01*
X252Y440D01*
X252Y442D01*
X248Y442D01*
X248Y444D01*
X246Y444D01*
X246Y446D01*
X244Y446D01*
X244Y448D01*
X240Y448D01*
X240Y452D01*
X238Y452D01*
X238Y454D01*
X236Y454D01*
X236Y456D01*
X234Y456D01*
X234Y458D01*
X232Y458D01*
X232Y462D01*
X230Y462D01*
X230Y466D01*
X228Y466D01*
X228Y470D01*
X226Y470D01*
X226Y474D01*
X224Y474D01*
X224Y498D01*
X226Y498D01*
X226Y504D01*
X228Y504D01*
X228Y508D01*
X230Y508D01*
X230Y512D01*
X232Y512D01*
X232Y514D01*
X234Y514D01*
X234Y518D01*
X236Y518D01*
X236Y520D01*
X238Y520D01*
X238Y522D01*
X240Y522D01*
X240Y524D01*
X242Y524D01*
X242Y526D01*
X244Y526D01*
X244Y528D01*
X246Y528D01*
X246Y530D01*
X250Y530D01*
X250Y532D01*
X252Y532D01*
X252Y534D01*
X256Y534D01*
X256Y536D01*
X260Y536D01*
X260Y538D01*
X266Y538D01*
X266Y540D01*
X194Y540D01*
G37*
D02*
G36*
X288Y540D02*
X288Y538D01*
X294Y538D01*
X294Y536D01*
X298Y536D01*
X298Y534D01*
X302Y534D01*
X302Y532D01*
X304Y532D01*
X304Y530D01*
X308Y530D01*
X308Y528D01*
X310Y528D01*
X310Y526D01*
X312Y526D01*
X312Y524D01*
X314Y524D01*
X314Y522D01*
X316Y522D01*
X316Y520D01*
X318Y520D01*
X318Y518D01*
X320Y518D01*
X320Y516D01*
X322Y516D01*
X322Y512D01*
X324Y512D01*
X324Y508D01*
X326Y508D01*
X326Y506D01*
X328Y506D01*
X328Y500D01*
X330Y500D01*
X330Y490D01*
X332Y490D01*
X332Y482D01*
X330Y482D01*
X330Y474D01*
X328Y474D01*
X328Y468D01*
X326Y468D01*
X326Y464D01*
X324Y464D01*
X324Y460D01*
X322Y460D01*
X322Y458D01*
X320Y458D01*
X320Y456D01*
X318Y456D01*
X318Y452D01*
X316Y452D01*
X316Y450D01*
X314Y450D01*
X314Y448D01*
X312Y448D01*
X312Y446D01*
X308Y446D01*
X308Y444D01*
X306Y444D01*
X306Y442D01*
X304Y442D01*
X304Y440D01*
X300Y440D01*
X300Y438D01*
X296Y438D01*
X296Y436D01*
X292Y436D01*
X292Y434D01*
X284Y434D01*
X284Y432D01*
X408Y432D01*
X408Y434D01*
X400Y434D01*
X400Y436D01*
X396Y436D01*
X396Y438D01*
X392Y438D01*
X392Y440D01*
X388Y440D01*
X388Y442D01*
X386Y442D01*
X386Y444D01*
X384Y444D01*
X384Y446D01*
X382Y446D01*
X382Y448D01*
X378Y448D01*
X378Y450D01*
X376Y450D01*
X376Y454D01*
X374Y454D01*
X374Y456D01*
X372Y456D01*
X372Y458D01*
X370Y458D01*
X370Y462D01*
X368Y462D01*
X368Y464D01*
X366Y464D01*
X366Y468D01*
X364Y468D01*
X364Y474D01*
X362Y474D01*
X362Y498D01*
X364Y498D01*
X364Y504D01*
X366Y504D01*
X366Y508D01*
X368Y508D01*
X368Y512D01*
X370Y512D01*
X370Y514D01*
X372Y514D01*
X372Y518D01*
X374Y518D01*
X374Y520D01*
X376Y520D01*
X376Y522D01*
X378Y522D01*
X378Y524D01*
X380Y524D01*
X380Y526D01*
X382Y526D01*
X382Y528D01*
X384Y528D01*
X384Y530D01*
X388Y530D01*
X388Y532D01*
X390Y532D01*
X390Y534D01*
X394Y534D01*
X394Y536D01*
X398Y536D01*
X398Y538D01*
X404Y538D01*
X404Y540D01*
X288Y540D01*
G37*
D02*
G36*
X426Y540D02*
X426Y538D01*
X432Y538D01*
X432Y536D01*
X436Y536D01*
X436Y534D01*
X440Y534D01*
X440Y532D01*
X442Y532D01*
X442Y530D01*
X446Y530D01*
X446Y528D01*
X448Y528D01*
X448Y526D01*
X450Y526D01*
X450Y524D01*
X452Y524D01*
X452Y522D01*
X454Y522D01*
X454Y520D01*
X456Y520D01*
X456Y518D01*
X458Y518D01*
X458Y516D01*
X460Y516D01*
X460Y512D01*
X462Y512D01*
X462Y508D01*
X464Y508D01*
X464Y504D01*
X466Y504D01*
X466Y500D01*
X468Y500D01*
X468Y488D01*
X470Y488D01*
X470Y484D01*
X468Y484D01*
X468Y474D01*
X466Y474D01*
X466Y468D01*
X464Y468D01*
X464Y464D01*
X462Y464D01*
X462Y462D01*
X460Y462D01*
X460Y458D01*
X458Y458D01*
X458Y456D01*
X456Y456D01*
X456Y454D01*
X454Y454D01*
X454Y450D01*
X452Y450D01*
X452Y448D01*
X450Y448D01*
X450Y446D01*
X446Y446D01*
X446Y444D01*
X444Y444D01*
X444Y442D01*
X442Y442D01*
X442Y440D01*
X438Y440D01*
X438Y438D01*
X434Y438D01*
X434Y436D01*
X430Y436D01*
X430Y434D01*
X422Y434D01*
X422Y432D01*
X546Y432D01*
X546Y434D01*
X538Y434D01*
X538Y436D01*
X534Y436D01*
X534Y438D01*
X530Y438D01*
X530Y440D01*
X526Y440D01*
X526Y442D01*
X524Y442D01*
X524Y444D01*
X522Y444D01*
X522Y446D01*
X518Y446D01*
X518Y448D01*
X516Y448D01*
X516Y450D01*
X514Y450D01*
X514Y452D01*
X512Y452D01*
X512Y456D01*
X510Y456D01*
X510Y458D01*
X508Y458D01*
X508Y462D01*
X506Y462D01*
X506Y464D01*
X504Y464D01*
X504Y468D01*
X502Y468D01*
X502Y474D01*
X500Y474D01*
X500Y484D01*
X498Y484D01*
X498Y488D01*
X500Y488D01*
X500Y500D01*
X502Y500D01*
X502Y504D01*
X504Y504D01*
X504Y508D01*
X506Y508D01*
X506Y512D01*
X508Y512D01*
X508Y516D01*
X510Y516D01*
X510Y518D01*
X512Y518D01*
X512Y520D01*
X514Y520D01*
X514Y522D01*
X516Y522D01*
X516Y524D01*
X518Y524D01*
X518Y526D01*
X520Y526D01*
X520Y528D01*
X522Y528D01*
X522Y530D01*
X526Y530D01*
X526Y532D01*
X528Y532D01*
X528Y534D01*
X532Y534D01*
X532Y536D01*
X536Y536D01*
X536Y538D01*
X542Y538D01*
X542Y540D01*
X426Y540D01*
G37*
D02*
G36*
X564Y540D02*
X564Y538D01*
X570Y538D01*
X570Y536D01*
X574Y536D01*
X574Y534D01*
X578Y534D01*
X578Y532D01*
X580Y532D01*
X580Y530D01*
X584Y530D01*
X584Y528D01*
X586Y528D01*
X586Y526D01*
X588Y526D01*
X588Y524D01*
X590Y524D01*
X590Y522D01*
X592Y522D01*
X592Y520D01*
X594Y520D01*
X594Y518D01*
X596Y518D01*
X596Y514D01*
X598Y514D01*
X598Y512D01*
X600Y512D01*
X600Y508D01*
X602Y508D01*
X602Y504D01*
X604Y504D01*
X604Y498D01*
X606Y498D01*
X606Y474D01*
X604Y474D01*
X604Y468D01*
X602Y468D01*
X602Y464D01*
X600Y464D01*
X600Y462D01*
X598Y462D01*
X598Y458D01*
X596Y458D01*
X596Y456D01*
X594Y456D01*
X594Y454D01*
X592Y454D01*
X592Y450D01*
X590Y450D01*
X590Y448D01*
X586Y448D01*
X586Y446D01*
X584Y446D01*
X584Y444D01*
X582Y444D01*
X582Y442D01*
X578Y442D01*
X578Y440D01*
X576Y440D01*
X576Y438D01*
X572Y438D01*
X572Y436D01*
X568Y436D01*
X568Y434D01*
X560Y434D01*
X560Y432D01*
X684Y432D01*
X684Y434D01*
X676Y434D01*
X676Y436D01*
X672Y436D01*
X672Y438D01*
X668Y438D01*
X668Y440D01*
X664Y440D01*
X664Y442D01*
X662Y442D01*
X662Y444D01*
X660Y444D01*
X660Y446D01*
X656Y446D01*
X656Y448D01*
X654Y448D01*
X654Y450D01*
X652Y450D01*
X652Y452D01*
X650Y452D01*
X650Y456D01*
X648Y456D01*
X648Y458D01*
X646Y458D01*
X646Y460D01*
X644Y460D01*
X644Y464D01*
X642Y464D01*
X642Y468D01*
X640Y468D01*
X640Y472D01*
X638Y472D01*
X638Y482D01*
X636Y482D01*
X636Y492D01*
X638Y492D01*
X638Y500D01*
X640Y500D01*
X640Y506D01*
X642Y506D01*
X642Y508D01*
X644Y508D01*
X644Y512D01*
X646Y512D01*
X646Y516D01*
X648Y516D01*
X648Y518D01*
X650Y518D01*
X650Y520D01*
X652Y520D01*
X652Y522D01*
X654Y522D01*
X654Y524D01*
X656Y524D01*
X656Y526D01*
X658Y526D01*
X658Y528D01*
X660Y528D01*
X660Y530D01*
X662Y530D01*
X662Y532D01*
X666Y532D01*
X666Y534D01*
X670Y534D01*
X670Y536D01*
X674Y536D01*
X674Y538D01*
X680Y538D01*
X680Y540D01*
X564Y540D01*
G37*
D02*
G36*
X40Y432D02*
X40Y430D01*
X1212Y430D01*
X1212Y432D01*
X40Y432D01*
G37*
D02*
G36*
X40Y432D02*
X40Y430D01*
X1212Y430D01*
X1212Y432D01*
X40Y432D01*
G37*
D02*
G36*
X40Y432D02*
X40Y430D01*
X1212Y430D01*
X1212Y432D01*
X40Y432D01*
G37*
D02*
G36*
X40Y432D02*
X40Y430D01*
X1212Y430D01*
X1212Y432D01*
X40Y432D01*
G37*
D02*
G36*
X40Y432D02*
X40Y430D01*
X1212Y430D01*
X1212Y432D01*
X40Y432D01*
G37*
D02*
G36*
X40Y432D02*
X40Y430D01*
X1212Y430D01*
X1212Y432D01*
X40Y432D01*
G37*
D02*
G36*
X40Y430D02*
X40Y176D01*
X1754Y176D01*
X1754Y174D01*
X1760Y174D01*
X1760Y172D01*
X1764Y172D01*
X1764Y170D01*
X1768Y170D01*
X1768Y168D01*
X1770Y168D01*
X1770Y166D01*
X1774Y166D01*
X1774Y164D01*
X1776Y164D01*
X1776Y162D01*
X1778Y162D01*
X1778Y160D01*
X1780Y160D01*
X1780Y158D01*
X1782Y158D01*
X1782Y154D01*
X1784Y154D01*
X1784Y152D01*
X1786Y152D01*
X1786Y150D01*
X1806Y150D01*
X1806Y154D01*
X1808Y154D01*
X1808Y156D01*
X1810Y156D01*
X1810Y158D01*
X1812Y158D01*
X1812Y162D01*
X1816Y162D01*
X1816Y164D01*
X1818Y164D01*
X1818Y166D01*
X1820Y166D01*
X1820Y168D01*
X1824Y168D01*
X1824Y206D01*
X1410Y206D01*
X1410Y220D01*
X1228Y220D01*
X1228Y222D01*
X1222Y222D01*
X1222Y224D01*
X1220Y224D01*
X1220Y226D01*
X1218Y226D01*
X1218Y228D01*
X1216Y228D01*
X1216Y230D01*
X1214Y230D01*
X1214Y234D01*
X1212Y234D01*
X1212Y430D01*
X40Y430D01*
G37*
D02*
G36*
X1864Y206D02*
X1864Y170D01*
X1868Y170D01*
X1868Y168D01*
X1870Y168D01*
X1870Y166D01*
X1874Y166D01*
X1874Y164D01*
X1876Y164D01*
X1876Y162D01*
X1878Y162D01*
X1878Y160D01*
X1880Y160D01*
X1880Y158D01*
X1882Y158D01*
X1882Y154D01*
X1884Y154D01*
X1884Y152D01*
X1886Y152D01*
X1886Y148D01*
X1888Y148D01*
X1888Y144D01*
X1890Y144D01*
X1890Y138D01*
X1892Y138D01*
X1892Y120D01*
X1890Y120D01*
X1890Y114D01*
X1888Y114D01*
X1888Y110D01*
X1886Y110D01*
X1886Y106D01*
X1884Y106D01*
X1884Y104D01*
X1882Y104D01*
X1882Y100D01*
X1880Y100D01*
X1880Y98D01*
X1878Y98D01*
X1878Y96D01*
X1876Y96D01*
X1876Y94D01*
X1874Y94D01*
X1874Y92D01*
X1870Y92D01*
X1870Y90D01*
X1868Y90D01*
X1868Y88D01*
X1864Y88D01*
X1864Y86D01*
X1860Y86D01*
X1860Y84D01*
X1854Y84D01*
X1854Y82D01*
X2036Y82D01*
X2036Y206D01*
X1864Y206D01*
G37*
D02*
G36*
X40Y176D02*
X40Y166D01*
X100Y166D01*
X100Y164D01*
X108Y164D01*
X108Y162D01*
X114Y162D01*
X114Y160D01*
X120Y160D01*
X120Y158D01*
X124Y158D01*
X124Y156D01*
X128Y156D01*
X128Y154D01*
X130Y154D01*
X130Y152D01*
X134Y152D01*
X134Y150D01*
X136Y150D01*
X136Y148D01*
X140Y148D01*
X140Y146D01*
X142Y146D01*
X142Y144D01*
X144Y144D01*
X144Y142D01*
X146Y142D01*
X146Y140D01*
X148Y140D01*
X148Y138D01*
X150Y138D01*
X150Y136D01*
X152Y136D01*
X152Y134D01*
X154Y134D01*
X154Y130D01*
X156Y130D01*
X156Y128D01*
X158Y128D01*
X158Y126D01*
X160Y126D01*
X160Y122D01*
X162Y122D01*
X162Y118D01*
X164Y118D01*
X164Y116D01*
X166Y116D01*
X166Y110D01*
X168Y110D01*
X168Y106D01*
X170Y106D01*
X170Y100D01*
X172Y100D01*
X172Y86D01*
X174Y86D01*
X174Y82D01*
X436Y82D01*
X436Y84D01*
X430Y84D01*
X430Y86D01*
X426Y86D01*
X426Y88D01*
X424Y88D01*
X424Y90D01*
X420Y90D01*
X420Y92D01*
X418Y92D01*
X418Y94D01*
X416Y94D01*
X416Y96D01*
X412Y96D01*
X412Y100D01*
X410Y100D01*
X410Y102D01*
X408Y102D01*
X408Y104D01*
X406Y104D01*
X406Y108D01*
X404Y108D01*
X404Y110D01*
X402Y110D01*
X402Y116D01*
X400Y116D01*
X400Y122D01*
X398Y122D01*
X398Y136D01*
X400Y136D01*
X400Y142D01*
X402Y142D01*
X402Y148D01*
X404Y148D01*
X404Y150D01*
X406Y150D01*
X406Y154D01*
X408Y154D01*
X408Y156D01*
X410Y156D01*
X410Y158D01*
X412Y158D01*
X412Y162D01*
X416Y162D01*
X416Y164D01*
X418Y164D01*
X418Y166D01*
X420Y166D01*
X420Y168D01*
X424Y168D01*
X424Y170D01*
X426Y170D01*
X426Y172D01*
X430Y172D01*
X430Y174D01*
X436Y174D01*
X436Y176D01*
X40Y176D01*
G37*
D02*
G36*
X454Y176D02*
X454Y174D01*
X460Y174D01*
X460Y172D01*
X464Y172D01*
X464Y170D01*
X468Y170D01*
X468Y168D01*
X470Y168D01*
X470Y166D01*
X474Y166D01*
X474Y164D01*
X476Y164D01*
X476Y162D01*
X478Y162D01*
X478Y160D01*
X480Y160D01*
X480Y158D01*
X482Y158D01*
X482Y154D01*
X484Y154D01*
X484Y152D01*
X486Y152D01*
X486Y150D01*
X506Y150D01*
X506Y154D01*
X508Y154D01*
X508Y156D01*
X510Y156D01*
X510Y158D01*
X512Y158D01*
X512Y162D01*
X516Y162D01*
X516Y164D01*
X518Y164D01*
X518Y166D01*
X520Y166D01*
X520Y168D01*
X524Y168D01*
X524Y170D01*
X526Y170D01*
X526Y172D01*
X530Y172D01*
X530Y174D01*
X536Y174D01*
X536Y176D01*
X454Y176D01*
G37*
D02*
G36*
X554Y176D02*
X554Y174D01*
X560Y174D01*
X560Y172D01*
X564Y172D01*
X564Y170D01*
X568Y170D01*
X568Y168D01*
X570Y168D01*
X570Y166D01*
X574Y166D01*
X574Y164D01*
X576Y164D01*
X576Y162D01*
X578Y162D01*
X578Y160D01*
X580Y160D01*
X580Y158D01*
X582Y158D01*
X582Y154D01*
X584Y154D01*
X584Y152D01*
X586Y152D01*
X586Y150D01*
X606Y150D01*
X606Y154D01*
X608Y154D01*
X608Y156D01*
X610Y156D01*
X610Y158D01*
X612Y158D01*
X612Y162D01*
X616Y162D01*
X616Y164D01*
X618Y164D01*
X618Y166D01*
X620Y166D01*
X620Y168D01*
X624Y168D01*
X624Y170D01*
X626Y170D01*
X626Y172D01*
X630Y172D01*
X630Y174D01*
X636Y174D01*
X636Y176D01*
X554Y176D01*
G37*
D02*
G36*
X654Y176D02*
X654Y174D01*
X660Y174D01*
X660Y172D01*
X664Y172D01*
X664Y170D01*
X668Y170D01*
X668Y168D01*
X670Y168D01*
X670Y166D01*
X674Y166D01*
X674Y164D01*
X676Y164D01*
X676Y162D01*
X678Y162D01*
X678Y160D01*
X680Y160D01*
X680Y158D01*
X682Y158D01*
X682Y154D01*
X684Y154D01*
X684Y152D01*
X686Y152D01*
X686Y150D01*
X706Y150D01*
X706Y154D01*
X708Y154D01*
X708Y156D01*
X710Y156D01*
X710Y158D01*
X712Y158D01*
X712Y162D01*
X716Y162D01*
X716Y164D01*
X718Y164D01*
X718Y166D01*
X720Y166D01*
X720Y168D01*
X724Y168D01*
X724Y170D01*
X726Y170D01*
X726Y172D01*
X730Y172D01*
X730Y174D01*
X736Y174D01*
X736Y176D01*
X654Y176D01*
G37*
D02*
G36*
X754Y176D02*
X754Y174D01*
X760Y174D01*
X760Y172D01*
X764Y172D01*
X764Y170D01*
X768Y170D01*
X768Y168D01*
X770Y168D01*
X770Y166D01*
X774Y166D01*
X774Y164D01*
X776Y164D01*
X776Y162D01*
X778Y162D01*
X778Y160D01*
X780Y160D01*
X780Y158D01*
X782Y158D01*
X782Y154D01*
X784Y154D01*
X784Y152D01*
X786Y152D01*
X786Y150D01*
X806Y150D01*
X806Y154D01*
X808Y154D01*
X808Y156D01*
X810Y156D01*
X810Y158D01*
X812Y158D01*
X812Y162D01*
X816Y162D01*
X816Y164D01*
X818Y164D01*
X818Y166D01*
X820Y166D01*
X820Y168D01*
X824Y168D01*
X824Y170D01*
X826Y170D01*
X826Y172D01*
X830Y172D01*
X830Y174D01*
X836Y174D01*
X836Y176D01*
X754Y176D01*
G37*
D02*
G36*
X854Y176D02*
X854Y174D01*
X860Y174D01*
X860Y172D01*
X864Y172D01*
X864Y170D01*
X868Y170D01*
X868Y168D01*
X870Y168D01*
X870Y166D01*
X874Y166D01*
X874Y164D01*
X876Y164D01*
X876Y162D01*
X878Y162D01*
X878Y160D01*
X880Y160D01*
X880Y158D01*
X882Y158D01*
X882Y154D01*
X884Y154D01*
X884Y152D01*
X886Y152D01*
X886Y150D01*
X906Y150D01*
X906Y154D01*
X908Y154D01*
X908Y156D01*
X910Y156D01*
X910Y158D01*
X912Y158D01*
X912Y162D01*
X916Y162D01*
X916Y164D01*
X918Y164D01*
X918Y166D01*
X920Y166D01*
X920Y168D01*
X924Y168D01*
X924Y170D01*
X926Y170D01*
X926Y172D01*
X930Y172D01*
X930Y174D01*
X936Y174D01*
X936Y176D01*
X854Y176D01*
G37*
D02*
G36*
X954Y176D02*
X954Y174D01*
X960Y174D01*
X960Y172D01*
X964Y172D01*
X964Y170D01*
X968Y170D01*
X968Y168D01*
X970Y168D01*
X970Y166D01*
X974Y166D01*
X974Y164D01*
X976Y164D01*
X976Y162D01*
X978Y162D01*
X978Y160D01*
X980Y160D01*
X980Y158D01*
X982Y158D01*
X982Y154D01*
X984Y154D01*
X984Y152D01*
X986Y152D01*
X986Y150D01*
X1006Y150D01*
X1006Y154D01*
X1008Y154D01*
X1008Y156D01*
X1010Y156D01*
X1010Y158D01*
X1012Y158D01*
X1012Y162D01*
X1016Y162D01*
X1016Y164D01*
X1018Y164D01*
X1018Y166D01*
X1020Y166D01*
X1020Y168D01*
X1024Y168D01*
X1024Y170D01*
X1026Y170D01*
X1026Y172D01*
X1030Y172D01*
X1030Y174D01*
X1036Y174D01*
X1036Y176D01*
X954Y176D01*
G37*
D02*
G36*
X1054Y176D02*
X1054Y174D01*
X1060Y174D01*
X1060Y172D01*
X1064Y172D01*
X1064Y170D01*
X1068Y170D01*
X1068Y168D01*
X1070Y168D01*
X1070Y166D01*
X1074Y166D01*
X1074Y164D01*
X1076Y164D01*
X1076Y162D01*
X1078Y162D01*
X1078Y160D01*
X1080Y160D01*
X1080Y158D01*
X1082Y158D01*
X1082Y154D01*
X1084Y154D01*
X1084Y152D01*
X1086Y152D01*
X1086Y150D01*
X1106Y150D01*
X1106Y154D01*
X1108Y154D01*
X1108Y156D01*
X1110Y156D01*
X1110Y158D01*
X1112Y158D01*
X1112Y162D01*
X1116Y162D01*
X1116Y164D01*
X1118Y164D01*
X1118Y166D01*
X1120Y166D01*
X1120Y168D01*
X1124Y168D01*
X1124Y170D01*
X1126Y170D01*
X1126Y172D01*
X1130Y172D01*
X1130Y174D01*
X1136Y174D01*
X1136Y176D01*
X1054Y176D01*
G37*
D02*
G36*
X1154Y176D02*
X1154Y174D01*
X1160Y174D01*
X1160Y172D01*
X1164Y172D01*
X1164Y170D01*
X1168Y170D01*
X1168Y168D01*
X1170Y168D01*
X1170Y166D01*
X1174Y166D01*
X1174Y164D01*
X1176Y164D01*
X1176Y162D01*
X1178Y162D01*
X1178Y160D01*
X1180Y160D01*
X1180Y158D01*
X1182Y158D01*
X1182Y154D01*
X1184Y154D01*
X1184Y152D01*
X1186Y152D01*
X1186Y148D01*
X1188Y148D01*
X1188Y144D01*
X1190Y144D01*
X1190Y138D01*
X1192Y138D01*
X1192Y120D01*
X1190Y120D01*
X1190Y114D01*
X1188Y114D01*
X1188Y110D01*
X1186Y110D01*
X1186Y106D01*
X1184Y106D01*
X1184Y104D01*
X1182Y104D01*
X1182Y100D01*
X1180Y100D01*
X1180Y98D01*
X1178Y98D01*
X1178Y96D01*
X1176Y96D01*
X1176Y94D01*
X1174Y94D01*
X1174Y92D01*
X1170Y92D01*
X1170Y90D01*
X1168Y90D01*
X1168Y88D01*
X1164Y88D01*
X1164Y86D01*
X1160Y86D01*
X1160Y84D01*
X1154Y84D01*
X1154Y82D01*
X1336Y82D01*
X1336Y84D01*
X1330Y84D01*
X1330Y86D01*
X1326Y86D01*
X1326Y88D01*
X1324Y88D01*
X1324Y90D01*
X1320Y90D01*
X1320Y92D01*
X1318Y92D01*
X1318Y94D01*
X1316Y94D01*
X1316Y96D01*
X1312Y96D01*
X1312Y100D01*
X1310Y100D01*
X1310Y102D01*
X1308Y102D01*
X1308Y104D01*
X1306Y104D01*
X1306Y108D01*
X1304Y108D01*
X1304Y110D01*
X1302Y110D01*
X1302Y116D01*
X1300Y116D01*
X1300Y122D01*
X1298Y122D01*
X1298Y136D01*
X1300Y136D01*
X1300Y142D01*
X1302Y142D01*
X1302Y148D01*
X1304Y148D01*
X1304Y150D01*
X1306Y150D01*
X1306Y154D01*
X1308Y154D01*
X1308Y156D01*
X1310Y156D01*
X1310Y158D01*
X1312Y158D01*
X1312Y162D01*
X1316Y162D01*
X1316Y164D01*
X1318Y164D01*
X1318Y166D01*
X1320Y166D01*
X1320Y168D01*
X1324Y168D01*
X1324Y170D01*
X1326Y170D01*
X1326Y172D01*
X1330Y172D01*
X1330Y174D01*
X1336Y174D01*
X1336Y176D01*
X1154Y176D01*
G37*
D02*
G36*
X1354Y176D02*
X1354Y174D01*
X1360Y174D01*
X1360Y172D01*
X1364Y172D01*
X1364Y170D01*
X1368Y170D01*
X1368Y168D01*
X1370Y168D01*
X1370Y166D01*
X1374Y166D01*
X1374Y164D01*
X1376Y164D01*
X1376Y162D01*
X1378Y162D01*
X1378Y160D01*
X1380Y160D01*
X1380Y158D01*
X1382Y158D01*
X1382Y154D01*
X1384Y154D01*
X1384Y152D01*
X1386Y152D01*
X1386Y150D01*
X1406Y150D01*
X1406Y154D01*
X1408Y154D01*
X1408Y156D01*
X1410Y156D01*
X1410Y158D01*
X1412Y158D01*
X1412Y162D01*
X1416Y162D01*
X1416Y164D01*
X1418Y164D01*
X1418Y166D01*
X1420Y166D01*
X1420Y168D01*
X1424Y168D01*
X1424Y170D01*
X1426Y170D01*
X1426Y172D01*
X1430Y172D01*
X1430Y174D01*
X1436Y174D01*
X1436Y176D01*
X1354Y176D01*
G37*
D02*
G36*
X1454Y176D02*
X1454Y174D01*
X1460Y174D01*
X1460Y172D01*
X1464Y172D01*
X1464Y170D01*
X1468Y170D01*
X1468Y168D01*
X1470Y168D01*
X1470Y166D01*
X1474Y166D01*
X1474Y164D01*
X1476Y164D01*
X1476Y162D01*
X1478Y162D01*
X1478Y160D01*
X1480Y160D01*
X1480Y158D01*
X1482Y158D01*
X1482Y154D01*
X1484Y154D01*
X1484Y152D01*
X1486Y152D01*
X1486Y150D01*
X1506Y150D01*
X1506Y154D01*
X1508Y154D01*
X1508Y156D01*
X1510Y156D01*
X1510Y158D01*
X1512Y158D01*
X1512Y162D01*
X1516Y162D01*
X1516Y164D01*
X1518Y164D01*
X1518Y166D01*
X1520Y166D01*
X1520Y168D01*
X1524Y168D01*
X1524Y170D01*
X1526Y170D01*
X1526Y172D01*
X1530Y172D01*
X1530Y174D01*
X1536Y174D01*
X1536Y176D01*
X1454Y176D01*
G37*
D02*
G36*
X1554Y176D02*
X1554Y174D01*
X1560Y174D01*
X1560Y172D01*
X1564Y172D01*
X1564Y170D01*
X1568Y170D01*
X1568Y168D01*
X1570Y168D01*
X1570Y166D01*
X1574Y166D01*
X1574Y164D01*
X1576Y164D01*
X1576Y162D01*
X1578Y162D01*
X1578Y160D01*
X1580Y160D01*
X1580Y158D01*
X1582Y158D01*
X1582Y154D01*
X1584Y154D01*
X1584Y152D01*
X1586Y152D01*
X1586Y150D01*
X1606Y150D01*
X1606Y154D01*
X1608Y154D01*
X1608Y156D01*
X1610Y156D01*
X1610Y158D01*
X1612Y158D01*
X1612Y162D01*
X1616Y162D01*
X1616Y164D01*
X1618Y164D01*
X1618Y166D01*
X1620Y166D01*
X1620Y168D01*
X1624Y168D01*
X1624Y170D01*
X1626Y170D01*
X1626Y172D01*
X1630Y172D01*
X1630Y174D01*
X1636Y174D01*
X1636Y176D01*
X1554Y176D01*
G37*
D02*
G36*
X1654Y176D02*
X1654Y174D01*
X1660Y174D01*
X1660Y172D01*
X1664Y172D01*
X1664Y170D01*
X1668Y170D01*
X1668Y168D01*
X1670Y168D01*
X1670Y166D01*
X1674Y166D01*
X1674Y164D01*
X1676Y164D01*
X1676Y162D01*
X1678Y162D01*
X1678Y160D01*
X1680Y160D01*
X1680Y158D01*
X1682Y158D01*
X1682Y154D01*
X1684Y154D01*
X1684Y152D01*
X1686Y152D01*
X1686Y150D01*
X1706Y150D01*
X1706Y154D01*
X1708Y154D01*
X1708Y156D01*
X1710Y156D01*
X1710Y158D01*
X1712Y158D01*
X1712Y162D01*
X1716Y162D01*
X1716Y164D01*
X1718Y164D01*
X1718Y166D01*
X1720Y166D01*
X1720Y168D01*
X1724Y168D01*
X1724Y170D01*
X1726Y170D01*
X1726Y172D01*
X1730Y172D01*
X1730Y174D01*
X1736Y174D01*
X1736Y176D01*
X1654Y176D01*
G37*
D02*
G36*
X40Y166D02*
X40Y158D01*
X60Y158D01*
X60Y160D01*
X66Y160D01*
X66Y162D01*
X72Y162D01*
X72Y164D01*
X80Y164D01*
X80Y166D01*
X40Y166D01*
G37*
D02*
G36*
X486Y108D02*
X486Y106D01*
X484Y106D01*
X484Y104D01*
X482Y104D01*
X482Y100D01*
X480Y100D01*
X480Y98D01*
X478Y98D01*
X478Y96D01*
X476Y96D01*
X476Y94D01*
X474Y94D01*
X474Y92D01*
X470Y92D01*
X470Y90D01*
X468Y90D01*
X468Y88D01*
X464Y88D01*
X464Y86D01*
X460Y86D01*
X460Y84D01*
X454Y84D01*
X454Y82D01*
X536Y82D01*
X536Y84D01*
X530Y84D01*
X530Y86D01*
X526Y86D01*
X526Y88D01*
X524Y88D01*
X524Y90D01*
X520Y90D01*
X520Y92D01*
X518Y92D01*
X518Y94D01*
X516Y94D01*
X516Y96D01*
X512Y96D01*
X512Y100D01*
X510Y100D01*
X510Y102D01*
X508Y102D01*
X508Y104D01*
X506Y104D01*
X506Y108D01*
X486Y108D01*
G37*
D02*
G36*
X586Y108D02*
X586Y106D01*
X584Y106D01*
X584Y104D01*
X582Y104D01*
X582Y100D01*
X580Y100D01*
X580Y98D01*
X578Y98D01*
X578Y96D01*
X576Y96D01*
X576Y94D01*
X574Y94D01*
X574Y92D01*
X570Y92D01*
X570Y90D01*
X568Y90D01*
X568Y88D01*
X564Y88D01*
X564Y86D01*
X560Y86D01*
X560Y84D01*
X554Y84D01*
X554Y82D01*
X636Y82D01*
X636Y84D01*
X630Y84D01*
X630Y86D01*
X626Y86D01*
X626Y88D01*
X624Y88D01*
X624Y90D01*
X620Y90D01*
X620Y92D01*
X618Y92D01*
X618Y94D01*
X616Y94D01*
X616Y96D01*
X612Y96D01*
X612Y100D01*
X610Y100D01*
X610Y102D01*
X608Y102D01*
X608Y104D01*
X606Y104D01*
X606Y108D01*
X586Y108D01*
G37*
D02*
G36*
X686Y108D02*
X686Y106D01*
X684Y106D01*
X684Y104D01*
X682Y104D01*
X682Y100D01*
X680Y100D01*
X680Y98D01*
X678Y98D01*
X678Y96D01*
X676Y96D01*
X676Y94D01*
X674Y94D01*
X674Y92D01*
X670Y92D01*
X670Y90D01*
X668Y90D01*
X668Y88D01*
X664Y88D01*
X664Y86D01*
X660Y86D01*
X660Y84D01*
X654Y84D01*
X654Y82D01*
X736Y82D01*
X736Y84D01*
X730Y84D01*
X730Y86D01*
X726Y86D01*
X726Y88D01*
X724Y88D01*
X724Y90D01*
X720Y90D01*
X720Y92D01*
X718Y92D01*
X718Y94D01*
X716Y94D01*
X716Y96D01*
X712Y96D01*
X712Y100D01*
X710Y100D01*
X710Y102D01*
X708Y102D01*
X708Y104D01*
X706Y104D01*
X706Y108D01*
X686Y108D01*
G37*
D02*
G36*
X786Y108D02*
X786Y106D01*
X784Y106D01*
X784Y104D01*
X782Y104D01*
X782Y100D01*
X780Y100D01*
X780Y98D01*
X778Y98D01*
X778Y96D01*
X776Y96D01*
X776Y94D01*
X774Y94D01*
X774Y92D01*
X770Y92D01*
X770Y90D01*
X768Y90D01*
X768Y88D01*
X764Y88D01*
X764Y86D01*
X760Y86D01*
X760Y84D01*
X754Y84D01*
X754Y82D01*
X836Y82D01*
X836Y84D01*
X830Y84D01*
X830Y86D01*
X826Y86D01*
X826Y88D01*
X824Y88D01*
X824Y90D01*
X820Y90D01*
X820Y92D01*
X818Y92D01*
X818Y94D01*
X816Y94D01*
X816Y96D01*
X812Y96D01*
X812Y100D01*
X810Y100D01*
X810Y102D01*
X808Y102D01*
X808Y104D01*
X806Y104D01*
X806Y108D01*
X786Y108D01*
G37*
D02*
G36*
X886Y108D02*
X886Y106D01*
X884Y106D01*
X884Y104D01*
X882Y104D01*
X882Y100D01*
X880Y100D01*
X880Y98D01*
X878Y98D01*
X878Y96D01*
X876Y96D01*
X876Y94D01*
X874Y94D01*
X874Y92D01*
X870Y92D01*
X870Y90D01*
X868Y90D01*
X868Y88D01*
X864Y88D01*
X864Y86D01*
X860Y86D01*
X860Y84D01*
X854Y84D01*
X854Y82D01*
X936Y82D01*
X936Y84D01*
X930Y84D01*
X930Y86D01*
X926Y86D01*
X926Y88D01*
X924Y88D01*
X924Y90D01*
X920Y90D01*
X920Y92D01*
X918Y92D01*
X918Y94D01*
X916Y94D01*
X916Y96D01*
X912Y96D01*
X912Y100D01*
X910Y100D01*
X910Y102D01*
X908Y102D01*
X908Y104D01*
X906Y104D01*
X906Y108D01*
X886Y108D01*
G37*
D02*
G36*
X986Y108D02*
X986Y106D01*
X984Y106D01*
X984Y104D01*
X982Y104D01*
X982Y100D01*
X980Y100D01*
X980Y98D01*
X978Y98D01*
X978Y96D01*
X976Y96D01*
X976Y94D01*
X974Y94D01*
X974Y92D01*
X970Y92D01*
X970Y90D01*
X968Y90D01*
X968Y88D01*
X964Y88D01*
X964Y86D01*
X960Y86D01*
X960Y84D01*
X954Y84D01*
X954Y82D01*
X1036Y82D01*
X1036Y84D01*
X1030Y84D01*
X1030Y86D01*
X1026Y86D01*
X1026Y88D01*
X1024Y88D01*
X1024Y90D01*
X1020Y90D01*
X1020Y92D01*
X1018Y92D01*
X1018Y94D01*
X1016Y94D01*
X1016Y96D01*
X1012Y96D01*
X1012Y100D01*
X1010Y100D01*
X1010Y102D01*
X1008Y102D01*
X1008Y104D01*
X1006Y104D01*
X1006Y108D01*
X986Y108D01*
G37*
D02*
G36*
X1086Y108D02*
X1086Y106D01*
X1084Y106D01*
X1084Y104D01*
X1082Y104D01*
X1082Y100D01*
X1080Y100D01*
X1080Y98D01*
X1078Y98D01*
X1078Y96D01*
X1076Y96D01*
X1076Y94D01*
X1074Y94D01*
X1074Y92D01*
X1070Y92D01*
X1070Y90D01*
X1068Y90D01*
X1068Y88D01*
X1064Y88D01*
X1064Y86D01*
X1060Y86D01*
X1060Y84D01*
X1054Y84D01*
X1054Y82D01*
X1136Y82D01*
X1136Y84D01*
X1130Y84D01*
X1130Y86D01*
X1126Y86D01*
X1126Y88D01*
X1124Y88D01*
X1124Y90D01*
X1120Y90D01*
X1120Y92D01*
X1118Y92D01*
X1118Y94D01*
X1116Y94D01*
X1116Y96D01*
X1112Y96D01*
X1112Y100D01*
X1110Y100D01*
X1110Y102D01*
X1108Y102D01*
X1108Y104D01*
X1106Y104D01*
X1106Y108D01*
X1086Y108D01*
G37*
D02*
G36*
X1386Y108D02*
X1386Y106D01*
X1384Y106D01*
X1384Y104D01*
X1382Y104D01*
X1382Y100D01*
X1380Y100D01*
X1380Y98D01*
X1378Y98D01*
X1378Y96D01*
X1376Y96D01*
X1376Y94D01*
X1374Y94D01*
X1374Y92D01*
X1370Y92D01*
X1370Y90D01*
X1368Y90D01*
X1368Y88D01*
X1364Y88D01*
X1364Y86D01*
X1360Y86D01*
X1360Y84D01*
X1354Y84D01*
X1354Y82D01*
X1436Y82D01*
X1436Y84D01*
X1430Y84D01*
X1430Y86D01*
X1426Y86D01*
X1426Y88D01*
X1424Y88D01*
X1424Y90D01*
X1420Y90D01*
X1420Y92D01*
X1418Y92D01*
X1418Y94D01*
X1416Y94D01*
X1416Y96D01*
X1412Y96D01*
X1412Y100D01*
X1410Y100D01*
X1410Y102D01*
X1408Y102D01*
X1408Y104D01*
X1406Y104D01*
X1406Y108D01*
X1386Y108D01*
G37*
D02*
G36*
X1486Y108D02*
X1486Y106D01*
X1484Y106D01*
X1484Y104D01*
X1482Y104D01*
X1482Y100D01*
X1480Y100D01*
X1480Y98D01*
X1478Y98D01*
X1478Y96D01*
X1476Y96D01*
X1476Y94D01*
X1474Y94D01*
X1474Y92D01*
X1470Y92D01*
X1470Y90D01*
X1468Y90D01*
X1468Y88D01*
X1464Y88D01*
X1464Y86D01*
X1460Y86D01*
X1460Y84D01*
X1454Y84D01*
X1454Y82D01*
X1536Y82D01*
X1536Y84D01*
X1530Y84D01*
X1530Y86D01*
X1526Y86D01*
X1526Y88D01*
X1524Y88D01*
X1524Y90D01*
X1520Y90D01*
X1520Y92D01*
X1518Y92D01*
X1518Y94D01*
X1516Y94D01*
X1516Y96D01*
X1512Y96D01*
X1512Y100D01*
X1510Y100D01*
X1510Y102D01*
X1508Y102D01*
X1508Y104D01*
X1506Y104D01*
X1506Y108D01*
X1486Y108D01*
G37*
D02*
G36*
X1586Y108D02*
X1586Y106D01*
X1584Y106D01*
X1584Y104D01*
X1582Y104D01*
X1582Y100D01*
X1580Y100D01*
X1580Y98D01*
X1578Y98D01*
X1578Y96D01*
X1576Y96D01*
X1576Y94D01*
X1574Y94D01*
X1574Y92D01*
X1570Y92D01*
X1570Y90D01*
X1568Y90D01*
X1568Y88D01*
X1564Y88D01*
X1564Y86D01*
X1560Y86D01*
X1560Y84D01*
X1554Y84D01*
X1554Y82D01*
X1636Y82D01*
X1636Y84D01*
X1630Y84D01*
X1630Y86D01*
X1626Y86D01*
X1626Y88D01*
X1624Y88D01*
X1624Y90D01*
X1620Y90D01*
X1620Y92D01*
X1618Y92D01*
X1618Y94D01*
X1616Y94D01*
X1616Y96D01*
X1612Y96D01*
X1612Y100D01*
X1610Y100D01*
X1610Y102D01*
X1608Y102D01*
X1608Y104D01*
X1606Y104D01*
X1606Y108D01*
X1586Y108D01*
G37*
D02*
G36*
X1686Y108D02*
X1686Y106D01*
X1684Y106D01*
X1684Y104D01*
X1682Y104D01*
X1682Y100D01*
X1680Y100D01*
X1680Y98D01*
X1678Y98D01*
X1678Y96D01*
X1676Y96D01*
X1676Y94D01*
X1674Y94D01*
X1674Y92D01*
X1670Y92D01*
X1670Y90D01*
X1668Y90D01*
X1668Y88D01*
X1664Y88D01*
X1664Y86D01*
X1660Y86D01*
X1660Y84D01*
X1654Y84D01*
X1654Y82D01*
X1736Y82D01*
X1736Y84D01*
X1730Y84D01*
X1730Y86D01*
X1726Y86D01*
X1726Y88D01*
X1724Y88D01*
X1724Y90D01*
X1720Y90D01*
X1720Y92D01*
X1718Y92D01*
X1718Y94D01*
X1716Y94D01*
X1716Y96D01*
X1712Y96D01*
X1712Y100D01*
X1710Y100D01*
X1710Y102D01*
X1708Y102D01*
X1708Y104D01*
X1706Y104D01*
X1706Y108D01*
X1686Y108D01*
G37*
D02*
G36*
X1786Y108D02*
X1786Y106D01*
X1784Y106D01*
X1784Y104D01*
X1782Y104D01*
X1782Y100D01*
X1780Y100D01*
X1780Y98D01*
X1778Y98D01*
X1778Y96D01*
X1776Y96D01*
X1776Y94D01*
X1774Y94D01*
X1774Y92D01*
X1770Y92D01*
X1770Y90D01*
X1768Y90D01*
X1768Y88D01*
X1764Y88D01*
X1764Y86D01*
X1760Y86D01*
X1760Y84D01*
X1754Y84D01*
X1754Y82D01*
X1836Y82D01*
X1836Y84D01*
X1830Y84D01*
X1830Y86D01*
X1826Y86D01*
X1826Y88D01*
X1824Y88D01*
X1824Y90D01*
X1820Y90D01*
X1820Y92D01*
X1818Y92D01*
X1818Y94D01*
X1816Y94D01*
X1816Y96D01*
X1812Y96D01*
X1812Y100D01*
X1810Y100D01*
X1810Y102D01*
X1808Y102D01*
X1808Y104D01*
X1806Y104D01*
X1806Y108D01*
X1786Y108D01*
G37*
D02*
G36*
X174Y82D02*
X174Y80D01*
X2036Y80D01*
X2036Y82D01*
X174Y82D01*
G37*
D02*
G36*
X174Y82D02*
X174Y80D01*
X2036Y80D01*
X2036Y82D01*
X174Y82D01*
G37*
D02*
G36*
X174Y82D02*
X174Y80D01*
X2036Y80D01*
X2036Y82D01*
X174Y82D01*
G37*
D02*
G36*
X174Y82D02*
X174Y80D01*
X2036Y80D01*
X2036Y82D01*
X174Y82D01*
G37*
D02*
G36*
X174Y82D02*
X174Y80D01*
X2036Y80D01*
X2036Y82D01*
X174Y82D01*
G37*
D02*
G36*
X174Y82D02*
X174Y80D01*
X2036Y80D01*
X2036Y82D01*
X174Y82D01*
G37*
D02*
G36*
X174Y82D02*
X174Y80D01*
X2036Y80D01*
X2036Y82D01*
X174Y82D01*
G37*
D02*
G36*
X174Y82D02*
X174Y80D01*
X2036Y80D01*
X2036Y82D01*
X174Y82D01*
G37*
D02*
G36*
X174Y82D02*
X174Y80D01*
X2036Y80D01*
X2036Y82D01*
X174Y82D01*
G37*
D02*
G36*
X174Y82D02*
X174Y80D01*
X2036Y80D01*
X2036Y82D01*
X174Y82D01*
G37*
D02*
G36*
X174Y82D02*
X174Y80D01*
X2036Y80D01*
X2036Y82D01*
X174Y82D01*
G37*
D02*
G36*
X174Y82D02*
X174Y80D01*
X2036Y80D01*
X2036Y82D01*
X174Y82D01*
G37*
D02*
G36*
X174Y82D02*
X174Y80D01*
X2036Y80D01*
X2036Y82D01*
X174Y82D01*
G37*
D02*
G36*
X174Y82D02*
X174Y80D01*
X2036Y80D01*
X2036Y82D01*
X174Y82D01*
G37*
D02*
G36*
X174Y82D02*
X174Y80D01*
X2036Y80D01*
X2036Y82D01*
X174Y82D01*
G37*
D02*
G36*
X172Y80D02*
X172Y66D01*
X170Y66D01*
X170Y60D01*
X168Y60D01*
X168Y40D01*
X2036Y40D01*
X2036Y80D01*
X172Y80D01*
G37*
D02*
G36*
X1154Y1436D02*
X1154Y1282D01*
X1192Y1282D01*
X1192Y1436D01*
X1154Y1436D01*
G37*
D02*
G36*
X1252Y612D02*
X1252Y260D01*
X1278Y260D01*
X1278Y612D01*
X1252Y612D01*
G37*
D02*
G36*
X1024Y180D02*
X1063Y180D01*
X1063Y150D01*
X1024Y150D01*
X1024Y180D01*
G37*
D02*
G36*
X1024Y112D02*
X1063Y112D01*
X1063Y82D01*
X1024Y82D01*
X1024Y112D01*
G37*
D02*
G36*
X364Y2080D02*
X403Y2080D01*
X403Y2050D01*
X364Y2050D01*
X364Y2080D01*
G37*
D02*
G36*
X924Y112D02*
X963Y112D01*
X963Y82D01*
X924Y82D01*
X924Y112D01*
G37*
D02*
G36*
X52Y56D02*
X127Y56D01*
X127Y10D01*
X52Y10D01*
X52Y56D01*
G37*
D02*
G36*
X12Y122D02*
X60Y122D01*
X60Y47D01*
X12Y47D01*
X12Y122D01*
G37*
D02*
G36*
X118Y122D02*
X174Y122D01*
X174Y47D01*
X118Y47D01*
X118Y122D01*
G37*
D02*
G36*
X578Y1064D02*
X621Y1064D01*
X621Y1028D01*
X578Y1028D01*
X578Y1064D01*
G37*
D02*
G36*
X546Y1032D02*
X582Y1032D01*
X582Y989D01*
X546Y989D01*
X546Y1032D01*
G37*
D02*
G36*
X616Y1032D02*
X654Y1032D01*
X654Y989D01*
X616Y989D01*
X616Y1032D01*
G37*
D02*
G36*
X529Y544D02*
X574Y544D01*
X574Y508D01*
X529Y508D01*
X529Y544D01*
G37*
D02*
G36*
X529Y470D02*
X574Y470D01*
X574Y432D01*
X529Y432D01*
X529Y470D01*
G37*
D02*
G36*
X322Y1064D02*
X365Y1064D01*
X365Y1028D01*
X322Y1028D01*
X322Y1064D01*
G37*
D02*
G36*
X322Y994D02*
X365Y994D01*
X365Y956D01*
X322Y956D01*
X322Y994D01*
G37*
D02*
G36*
X360Y1032D02*
X398Y1032D01*
X398Y989D01*
X360Y989D01*
X360Y1032D01*
G37*
D02*
G36*
X115Y470D02*
X160Y470D01*
X160Y432D01*
X115Y432D01*
X115Y470D01*
G37*
D02*
G36*
X82Y511D02*
X118Y511D01*
X118Y466D01*
X82Y466D01*
X82Y511D01*
G37*
D02*
G36*
X391Y544D02*
X436Y544D01*
X436Y508D01*
X391Y508D01*
X391Y544D01*
G37*
D02*
G36*
X391Y470D02*
X436Y470D01*
X436Y432D01*
X391Y432D01*
X391Y470D01*
G37*
D02*
G36*
X667Y544D02*
X712Y544D01*
X712Y508D01*
X667Y508D01*
X667Y544D01*
G37*
D02*
G36*
X667Y470D02*
X712Y470D01*
X712Y432D01*
X667Y432D01*
X667Y470D01*
G37*
D02*
G36*
X708Y511D02*
X744Y511D01*
X744Y466D01*
X708Y466D01*
X708Y511D01*
G37*
D02*
G36*
X253Y544D02*
X298Y544D01*
X298Y508D01*
X253Y508D01*
X253Y544D01*
G37*
D02*
G36*
X253Y470D02*
X298Y470D01*
X298Y432D01*
X253Y432D01*
X253Y470D01*
G37*
D02*
G36*
X823Y1144D02*
X848Y1144D01*
X848Y1116D01*
X823Y1116D01*
X823Y1144D01*
G37*
D02*
G36*
X800Y1121D02*
X828Y1121D01*
X828Y1096D01*
X800Y1096D01*
X800Y1121D01*
G37*
D02*
G36*
X842Y1121D02*
X872Y1121D01*
X872Y1096D01*
X842Y1096D01*
X842Y1121D01*
G37*
D02*
G36*
X915Y860D02*
X940Y860D01*
X940Y830D01*
X915Y830D01*
X915Y860D01*
G37*
D02*
G36*
X892Y879D02*
X920Y879D01*
X920Y854D01*
X892Y854D01*
X892Y879D01*
G37*
D02*
G36*
X934Y879D02*
X962Y879D01*
X962Y854D01*
X934Y854D01*
X934Y879D01*
G37*
D02*
G54D22*
X110Y517D02*
X170Y517D01*
X170Y457D01*
X110Y457D01*
X110Y517D01*
D02*
G54D23*
X1625Y1699D02*
X1704Y1699D01*
X1621Y1698D02*
X1708Y1698D01*
X1618Y1697D02*
X1710Y1697D01*
X1616Y1696D02*
X1712Y1696D01*
X1615Y1695D02*
X1714Y1695D01*
X1613Y1694D02*
X1716Y1694D01*
X1612Y1693D02*
X1717Y1693D01*
X1611Y1692D02*
X1718Y1692D01*
X1609Y1691D02*
X1719Y1691D01*
X1608Y1690D02*
X1720Y1690D01*
X1607Y1689D02*
X1721Y1689D01*
X1607Y1688D02*
X1722Y1688D01*
X1606Y1687D02*
X1723Y1687D01*
X1605Y1686D02*
X1724Y1686D01*
X1604Y1685D02*
X1725Y1685D01*
X1604Y1684D02*
X1725Y1684D01*
X1603Y1683D02*
X1660Y1683D01*
X1669Y1683D02*
X1726Y1683D01*
X1602Y1682D02*
X1657Y1682D01*
X1672Y1682D02*
X1727Y1682D01*
X1602Y1681D02*
X1655Y1681D01*
X1674Y1681D02*
X1727Y1681D01*
X1601Y1680D02*
X1653Y1680D01*
X1676Y1680D02*
X1728Y1680D01*
X1601Y1679D02*
X1652Y1679D01*
X1677Y1679D02*
X1728Y1679D01*
X1600Y1678D02*
X1651Y1678D01*
X1678Y1678D02*
X1729Y1678D01*
X1600Y1677D02*
X1650Y1677D01*
X1679Y1677D02*
X1729Y1677D01*
X1599Y1676D02*
X1649Y1676D01*
X1680Y1676D02*
X1729Y1676D01*
X1599Y1675D02*
X1648Y1675D01*
X1681Y1675D02*
X1730Y1675D01*
X1599Y1674D02*
X1648Y1674D01*
X1681Y1674D02*
X1730Y1674D01*
X1598Y1673D02*
X1647Y1673D01*
X1682Y1673D02*
X1731Y1673D01*
X1598Y1672D02*
X1646Y1672D01*
X1683Y1672D02*
X1731Y1672D01*
X1598Y1671D02*
X1646Y1671D01*
X1683Y1671D02*
X1731Y1671D01*
X1597Y1670D02*
X1645Y1670D01*
X1683Y1670D02*
X1731Y1670D01*
X1597Y1669D02*
X1645Y1669D01*
X1684Y1669D02*
X1732Y1669D01*
X1597Y1668D02*
X1644Y1668D01*
X1684Y1668D02*
X1732Y1668D01*
X1597Y1667D02*
X1644Y1667D01*
X1685Y1667D02*
X1732Y1667D01*
X1597Y1666D02*
X1644Y1666D01*
X1685Y1666D02*
X1732Y1666D01*
X1597Y1665D02*
X1644Y1665D01*
X1685Y1665D02*
X1732Y1665D01*
X1596Y1664D02*
X1643Y1664D01*
X1685Y1664D02*
X1732Y1664D01*
X1596Y1663D02*
X1643Y1663D01*
X1686Y1663D02*
X1733Y1663D01*
X1596Y1662D02*
X1643Y1662D01*
X1686Y1662D02*
X1733Y1662D01*
X1596Y1661D02*
X1643Y1661D01*
X1686Y1661D02*
X1733Y1661D01*
X1596Y1660D02*
X1643Y1660D01*
X1686Y1660D02*
X1733Y1660D01*
X1596Y1659D02*
X1643Y1659D01*
X1686Y1659D02*
X1733Y1659D01*
X1596Y1658D02*
X1643Y1658D01*
X1686Y1658D02*
X1733Y1658D01*
X1596Y1657D02*
X1643Y1657D01*
X1686Y1657D02*
X1733Y1657D01*
X1596Y1656D02*
X1643Y1656D01*
X1686Y1656D02*
X1733Y1656D01*
X1596Y1655D02*
X1643Y1655D01*
X1686Y1655D02*
X1733Y1655D01*
X1596Y1654D02*
X1643Y1654D01*
X1686Y1654D02*
X1733Y1654D01*
X1596Y1653D02*
X1643Y1653D01*
X1685Y1653D02*
X1732Y1653D01*
X1596Y1652D02*
X1644Y1652D01*
X1685Y1652D02*
X1732Y1652D01*
X1597Y1651D02*
X1644Y1651D01*
X1685Y1651D02*
X1732Y1651D01*
X1597Y1650D02*
X1644Y1650D01*
X1685Y1650D02*
X1732Y1650D01*
X1597Y1649D02*
X1644Y1649D01*
X1684Y1649D02*
X1732Y1649D01*
X1597Y1648D02*
X1645Y1648D01*
X1684Y1648D02*
X1732Y1648D01*
X1597Y1647D02*
X1645Y1647D01*
X1684Y1647D02*
X1731Y1647D01*
X1598Y1646D02*
X1646Y1646D01*
X1683Y1646D02*
X1731Y1646D01*
X1598Y1645D02*
X1646Y1645D01*
X1683Y1645D02*
X1731Y1645D01*
X1598Y1644D02*
X1647Y1644D01*
X1682Y1644D02*
X1731Y1644D01*
X1598Y1643D02*
X1647Y1643D01*
X1682Y1643D02*
X1730Y1643D01*
X1599Y1642D02*
X1648Y1642D01*
X1681Y1642D02*
X1730Y1642D01*
X1599Y1641D02*
X1649Y1641D01*
X1680Y1641D02*
X1730Y1641D01*
X1600Y1640D02*
X1649Y1640D01*
X1679Y1640D02*
X1729Y1640D01*
X1600Y1639D02*
X1650Y1639D01*
X1678Y1639D02*
X1729Y1639D01*
X1600Y1638D02*
X1651Y1638D01*
X1677Y1638D02*
X1728Y1638D01*
X1601Y1637D02*
X1653Y1637D01*
X1676Y1637D02*
X1728Y1637D01*
X1601Y1636D02*
X1654Y1636D01*
X1675Y1636D02*
X1727Y1636D01*
X1602Y1635D02*
X1656Y1635D01*
X1673Y1635D02*
X1727Y1635D01*
X1603Y1634D02*
X1658Y1634D01*
X1671Y1634D02*
X1726Y1634D01*
X1603Y1633D02*
X1726Y1633D01*
X1604Y1632D02*
X1725Y1632D01*
X1605Y1631D02*
X1724Y1631D01*
X1605Y1630D02*
X1723Y1630D01*
X1606Y1629D02*
X1723Y1629D01*
X1607Y1628D02*
X1722Y1628D01*
X1608Y1627D02*
X1721Y1627D01*
X1609Y1626D02*
X1720Y1626D01*
X1610Y1625D02*
X1719Y1625D01*
X1611Y1624D02*
X1718Y1624D01*
X1613Y1623D02*
X1716Y1623D01*
X1614Y1622D02*
X1715Y1622D01*
X1616Y1621D02*
X1713Y1621D01*
X1618Y1620D02*
X1711Y1620D01*
X1620Y1619D02*
X1709Y1619D01*
X1623Y1618D02*
X1706Y1618D01*
X1630Y1617D02*
X1699Y1617D01*
X1623Y1305D02*
X1706Y1305D01*
X1620Y1304D02*
X1709Y1304D01*
X1618Y1303D02*
X1711Y1303D01*
X1616Y1302D02*
X1713Y1302D01*
X1614Y1301D02*
X1715Y1301D01*
X1613Y1300D02*
X1716Y1300D01*
X1611Y1299D02*
X1718Y1299D01*
X1610Y1298D02*
X1719Y1298D01*
X1609Y1297D02*
X1720Y1297D01*
X1608Y1296D02*
X1721Y1296D01*
X1607Y1295D02*
X1722Y1295D01*
X1606Y1294D02*
X1723Y1294D01*
X1605Y1293D02*
X1723Y1293D01*
X1605Y1292D02*
X1724Y1292D01*
X1604Y1291D02*
X1725Y1291D01*
X1603Y1290D02*
X1726Y1290D01*
X1603Y1289D02*
X1658Y1289D01*
X1671Y1289D02*
X1726Y1289D01*
X1602Y1288D02*
X1656Y1288D01*
X1673Y1288D02*
X1727Y1288D01*
X1602Y1287D02*
X1654Y1287D01*
X1675Y1287D02*
X1727Y1287D01*
X1601Y1286D02*
X1653Y1286D01*
X1676Y1286D02*
X1728Y1286D01*
X1601Y1285D02*
X1652Y1285D01*
X1677Y1285D02*
X1728Y1285D01*
X1600Y1284D02*
X1651Y1284D01*
X1678Y1284D02*
X1729Y1284D01*
X1600Y1283D02*
X1650Y1283D01*
X1679Y1283D02*
X1729Y1283D01*
X1599Y1282D02*
X1649Y1282D01*
X1680Y1282D02*
X1730Y1282D01*
X1599Y1281D02*
X1648Y1281D01*
X1681Y1281D02*
X1730Y1281D01*
X1599Y1280D02*
X1647Y1280D01*
X1682Y1280D02*
X1730Y1280D01*
X1598Y1279D02*
X1647Y1279D01*
X1682Y1279D02*
X1731Y1279D01*
X1598Y1278D02*
X1646Y1278D01*
X1683Y1278D02*
X1731Y1278D01*
X1598Y1277D02*
X1646Y1277D01*
X1683Y1277D02*
X1731Y1277D01*
X1597Y1276D02*
X1645Y1276D01*
X1684Y1276D02*
X1731Y1276D01*
X1597Y1275D02*
X1645Y1275D01*
X1684Y1275D02*
X1732Y1275D01*
X1597Y1274D02*
X1644Y1274D01*
X1684Y1274D02*
X1732Y1274D01*
X1597Y1273D02*
X1644Y1273D01*
X1685Y1273D02*
X1732Y1273D01*
X1597Y1272D02*
X1644Y1272D01*
X1685Y1272D02*
X1732Y1272D01*
X1596Y1271D02*
X1644Y1271D01*
X1685Y1271D02*
X1732Y1271D01*
X1596Y1270D02*
X1643Y1270D01*
X1685Y1270D02*
X1732Y1270D01*
X1596Y1269D02*
X1643Y1269D01*
X1686Y1269D02*
X1733Y1269D01*
X1596Y1268D02*
X1643Y1268D01*
X1686Y1268D02*
X1733Y1268D01*
X1596Y1267D02*
X1643Y1267D01*
X1686Y1267D02*
X1733Y1267D01*
X1596Y1266D02*
X1643Y1266D01*
X1686Y1266D02*
X1733Y1266D01*
X1596Y1265D02*
X1643Y1265D01*
X1686Y1265D02*
X1733Y1265D01*
X1596Y1264D02*
X1643Y1264D01*
X1686Y1264D02*
X1733Y1264D01*
X1596Y1263D02*
X1643Y1263D01*
X1686Y1263D02*
X1733Y1263D01*
X1596Y1262D02*
X1643Y1262D01*
X1686Y1262D02*
X1733Y1262D01*
X1596Y1261D02*
X1643Y1261D01*
X1686Y1261D02*
X1733Y1261D01*
X1596Y1260D02*
X1643Y1260D01*
X1686Y1260D02*
X1733Y1260D01*
X1596Y1259D02*
X1643Y1259D01*
X1685Y1259D02*
X1732Y1259D01*
X1597Y1258D02*
X1644Y1258D01*
X1685Y1258D02*
X1732Y1258D01*
X1597Y1257D02*
X1644Y1257D01*
X1685Y1257D02*
X1732Y1257D01*
X1597Y1256D02*
X1644Y1256D01*
X1685Y1256D02*
X1732Y1256D01*
X1597Y1255D02*
X1644Y1255D01*
X1684Y1255D02*
X1732Y1255D01*
X1597Y1254D02*
X1645Y1254D01*
X1684Y1254D02*
X1732Y1254D01*
X1597Y1253D02*
X1645Y1253D01*
X1684Y1253D02*
X1731Y1253D01*
X1598Y1252D02*
X1646Y1252D01*
X1683Y1252D02*
X1731Y1252D01*
X1598Y1251D02*
X1646Y1251D01*
X1683Y1251D02*
X1731Y1251D01*
X1598Y1250D02*
X1647Y1250D01*
X1682Y1250D02*
X1731Y1250D01*
X1599Y1249D02*
X1647Y1249D01*
X1681Y1249D02*
X1730Y1249D01*
X1599Y1248D02*
X1648Y1248D01*
X1681Y1248D02*
X1730Y1248D01*
X1599Y1247D02*
X1649Y1247D01*
X1680Y1247D02*
X1729Y1247D01*
X1600Y1246D02*
X1650Y1246D01*
X1679Y1246D02*
X1729Y1246D01*
X1600Y1245D02*
X1651Y1245D01*
X1678Y1245D02*
X1729Y1245D01*
X1601Y1244D02*
X1652Y1244D01*
X1677Y1244D02*
X1728Y1244D01*
X1601Y1243D02*
X1653Y1243D01*
X1676Y1243D02*
X1728Y1243D01*
X1602Y1242D02*
X1655Y1242D01*
X1674Y1242D02*
X1727Y1242D01*
X1602Y1241D02*
X1657Y1241D01*
X1672Y1241D02*
X1727Y1241D01*
X1603Y1240D02*
X1659Y1240D01*
X1670Y1240D02*
X1726Y1240D01*
X1603Y1239D02*
X1725Y1239D01*
X1604Y1238D02*
X1725Y1238D01*
X1605Y1237D02*
X1724Y1237D01*
X1606Y1236D02*
X1723Y1236D01*
X1606Y1235D02*
X1722Y1235D01*
X1607Y1234D02*
X1721Y1234D01*
X1608Y1233D02*
X1720Y1233D01*
X1609Y1232D02*
X1719Y1232D01*
X1611Y1231D02*
X1718Y1231D01*
X1612Y1230D02*
X1717Y1230D01*
X1613Y1229D02*
X1716Y1229D01*
X1615Y1228D02*
X1714Y1228D01*
X1616Y1227D02*
X1713Y1227D01*
X1618Y1226D02*
X1710Y1226D01*
X1621Y1225D02*
X1708Y1225D01*
X1624Y1224D02*
X1704Y1224D01*
X1626Y912D02*
X1703Y912D01*
X1622Y911D02*
X1707Y911D01*
X1619Y910D02*
X1710Y910D01*
X1617Y909D02*
X1712Y909D01*
X1615Y908D02*
X1714Y908D01*
X1614Y907D02*
X1715Y907D01*
X1612Y906D02*
X1717Y906D01*
X1611Y905D02*
X1718Y905D01*
X1610Y904D02*
X1719Y904D01*
X1609Y903D02*
X1720Y903D01*
X1608Y902D02*
X1721Y902D01*
X1607Y901D02*
X1722Y901D01*
X1606Y900D02*
X1723Y900D01*
X1605Y899D02*
X1724Y899D01*
X1604Y898D02*
X1724Y898D01*
X1604Y897D02*
X1725Y897D01*
X1603Y896D02*
X1661Y896D01*
X1668Y896D02*
X1726Y896D01*
X1602Y895D02*
X1657Y895D01*
X1671Y895D02*
X1726Y895D01*
X1602Y894D02*
X1655Y894D01*
X1674Y894D02*
X1727Y894D01*
X1601Y893D02*
X1654Y893D01*
X1675Y893D02*
X1727Y893D01*
X1601Y892D02*
X1652Y892D01*
X1677Y892D02*
X1728Y892D01*
X1600Y891D02*
X1651Y891D01*
X1678Y891D02*
X1729Y891D01*
X1600Y890D02*
X1650Y890D01*
X1679Y890D02*
X1729Y890D01*
X1599Y889D02*
X1649Y889D01*
X1680Y889D02*
X1729Y889D01*
X1599Y888D02*
X1648Y888D01*
X1680Y888D02*
X1730Y888D01*
X1599Y887D02*
X1648Y887D01*
X1681Y887D02*
X1730Y887D01*
X1598Y886D02*
X1647Y886D01*
X1682Y886D02*
X1730Y886D01*
X1598Y885D02*
X1646Y885D01*
X1682Y885D02*
X1731Y885D01*
X1598Y884D02*
X1646Y884D01*
X1683Y884D02*
X1731Y884D01*
X1598Y883D02*
X1645Y883D01*
X1683Y883D02*
X1731Y883D01*
X1597Y882D02*
X1645Y882D01*
X1684Y882D02*
X1732Y882D01*
X1597Y881D02*
X1645Y881D01*
X1684Y881D02*
X1732Y881D01*
X1597Y880D02*
X1644Y880D01*
X1685Y880D02*
X1732Y880D01*
X1597Y879D02*
X1644Y879D01*
X1685Y879D02*
X1732Y879D01*
X1597Y878D02*
X1644Y878D01*
X1685Y878D02*
X1732Y878D01*
X1596Y877D02*
X1644Y877D01*
X1685Y877D02*
X1732Y877D01*
X1596Y876D02*
X1643Y876D01*
X1686Y876D02*
X1733Y876D01*
X1596Y875D02*
X1643Y875D01*
X1686Y875D02*
X1733Y875D01*
X1596Y874D02*
X1643Y874D01*
X1686Y874D02*
X1733Y874D01*
X1596Y873D02*
X1643Y873D01*
X1686Y873D02*
X1733Y873D01*
X1596Y872D02*
X1643Y872D01*
X1686Y872D02*
X1733Y872D01*
X1596Y871D02*
X1643Y871D01*
X1686Y871D02*
X1733Y871D01*
X1596Y870D02*
X1643Y870D01*
X1686Y870D02*
X1733Y870D01*
X1596Y869D02*
X1643Y869D01*
X1686Y869D02*
X1733Y869D01*
X1596Y868D02*
X1643Y868D01*
X1686Y868D02*
X1733Y868D01*
X1596Y867D02*
X1643Y867D01*
X1686Y867D02*
X1733Y867D01*
X1596Y866D02*
X1643Y866D01*
X1686Y866D02*
X1733Y866D01*
X1596Y865D02*
X1644Y865D01*
X1685Y865D02*
X1732Y865D01*
X1597Y864D02*
X1644Y864D01*
X1685Y864D02*
X1732Y864D01*
X1597Y863D02*
X1644Y863D01*
X1685Y863D02*
X1732Y863D01*
X1597Y862D02*
X1644Y862D01*
X1685Y862D02*
X1732Y862D01*
X1597Y861D02*
X1645Y861D01*
X1684Y861D02*
X1732Y861D01*
X1597Y860D02*
X1645Y860D01*
X1684Y860D02*
X1732Y860D01*
X1598Y859D02*
X1645Y859D01*
X1683Y859D02*
X1731Y859D01*
X1598Y858D02*
X1646Y858D01*
X1683Y858D02*
X1731Y858D01*
X1598Y857D02*
X1646Y857D01*
X1682Y857D02*
X1731Y857D01*
X1598Y856D02*
X1647Y856D01*
X1682Y856D02*
X1730Y856D01*
X1599Y855D02*
X1648Y855D01*
X1681Y855D02*
X1730Y855D01*
X1599Y854D02*
X1648Y854D01*
X1680Y854D02*
X1730Y854D01*
X1599Y853D02*
X1649Y853D01*
X1680Y853D02*
X1729Y853D01*
X1600Y852D02*
X1650Y852D01*
X1679Y852D02*
X1729Y852D01*
X1600Y851D02*
X1651Y851D01*
X1678Y851D02*
X1729Y851D01*
X1601Y850D02*
X1652Y850D01*
X1677Y850D02*
X1728Y850D01*
X1601Y849D02*
X1654Y849D01*
X1675Y849D02*
X1727Y849D01*
X1602Y848D02*
X1655Y848D01*
X1674Y848D02*
X1727Y848D01*
X1602Y847D02*
X1657Y847D01*
X1671Y847D02*
X1726Y847D01*
X1603Y846D02*
X1661Y846D01*
X1668Y846D02*
X1726Y846D01*
X1604Y845D02*
X1725Y845D01*
X1604Y844D02*
X1724Y844D01*
X1605Y843D02*
X1724Y843D01*
X1606Y842D02*
X1723Y842D01*
X1607Y841D02*
X1722Y841D01*
X1608Y840D02*
X1721Y840D01*
X1609Y839D02*
X1720Y839D01*
X1610Y838D02*
X1719Y838D01*
X1611Y837D02*
X1718Y837D01*
X1612Y836D02*
X1717Y836D01*
X1614Y835D02*
X1715Y835D01*
X1615Y834D02*
X1714Y834D01*
X1617Y833D02*
X1712Y833D01*
X1619Y832D02*
X1710Y832D01*
X1622Y831D02*
X1707Y831D01*
X1626Y830D02*
X1703Y830D01*
X1624Y518D02*
X1704Y518D01*
X1621Y517D02*
X1708Y517D01*
X1618Y516D02*
X1710Y516D01*
X1616Y515D02*
X1713Y515D01*
X1615Y514D02*
X1714Y514D01*
X1613Y513D02*
X1716Y513D01*
X1612Y512D02*
X1717Y512D01*
X1611Y511D02*
X1718Y511D01*
X1609Y510D02*
X1719Y510D01*
X1608Y509D02*
X1720Y509D01*
X1607Y508D02*
X1721Y508D01*
X1606Y507D02*
X1722Y507D01*
X1606Y506D02*
X1723Y506D01*
X1605Y505D02*
X1724Y505D01*
X1604Y504D02*
X1725Y504D01*
X1603Y503D02*
X1725Y503D01*
X1603Y502D02*
X1659Y502D01*
X1670Y502D02*
X1726Y502D01*
X1602Y501D02*
X1657Y501D01*
X1672Y501D02*
X1727Y501D01*
X1602Y500D02*
X1655Y500D01*
X1674Y500D02*
X1727Y500D01*
X1601Y499D02*
X1653Y499D01*
X1676Y499D02*
X1728Y499D01*
X1601Y498D02*
X1652Y498D01*
X1677Y498D02*
X1728Y498D01*
X1600Y497D02*
X1651Y497D01*
X1678Y497D02*
X1729Y497D01*
X1600Y496D02*
X1650Y496D01*
X1679Y496D02*
X1729Y496D01*
X1599Y495D02*
X1649Y495D01*
X1680Y495D02*
X1729Y495D01*
X1599Y494D02*
X1648Y494D01*
X1681Y494D02*
X1730Y494D01*
X1599Y493D02*
X1647Y493D01*
X1681Y493D02*
X1730Y493D01*
X1598Y492D02*
X1647Y492D01*
X1682Y492D02*
X1731Y492D01*
X1598Y491D02*
X1646Y491D01*
X1683Y491D02*
X1731Y491D01*
X1598Y490D02*
X1646Y490D01*
X1683Y490D02*
X1731Y490D01*
X1597Y489D02*
X1645Y489D01*
X1684Y489D02*
X1731Y489D01*
X1597Y488D02*
X1645Y488D01*
X1684Y488D02*
X1732Y488D01*
X1597Y487D02*
X1644Y487D01*
X1684Y487D02*
X1732Y487D01*
X1597Y486D02*
X1644Y486D01*
X1685Y486D02*
X1732Y486D01*
X1597Y485D02*
X1644Y485D01*
X1685Y485D02*
X1732Y485D01*
X1597Y484D02*
X1644Y484D01*
X1685Y484D02*
X1732Y484D01*
X1596Y483D02*
X1643Y483D01*
X1685Y483D02*
X1732Y483D01*
X1596Y482D02*
X1643Y482D01*
X1686Y482D02*
X1733Y482D01*
X1596Y481D02*
X1643Y481D01*
X1686Y481D02*
X1733Y481D01*
X1596Y480D02*
X1643Y480D01*
X1686Y480D02*
X1733Y480D01*
X1596Y479D02*
X1643Y479D01*
X1686Y479D02*
X1733Y479D01*
X1596Y478D02*
X1643Y478D01*
X1686Y478D02*
X1733Y478D01*
X1596Y477D02*
X1643Y477D01*
X1686Y477D02*
X1733Y477D01*
X1596Y476D02*
X1643Y476D01*
X1686Y476D02*
X1733Y476D01*
X1596Y475D02*
X1643Y475D01*
X1686Y475D02*
X1733Y475D01*
X1596Y474D02*
X1643Y474D01*
X1686Y474D02*
X1733Y474D01*
X1596Y473D02*
X1643Y473D01*
X1686Y473D02*
X1733Y473D01*
X1596Y472D02*
X1643Y472D01*
X1685Y472D02*
X1732Y472D01*
X1596Y471D02*
X1644Y471D01*
X1685Y471D02*
X1732Y471D01*
X1597Y470D02*
X1644Y470D01*
X1685Y470D02*
X1732Y470D01*
X1597Y469D02*
X1644Y469D01*
X1685Y469D02*
X1732Y469D01*
X1597Y468D02*
X1644Y468D01*
X1684Y468D02*
X1732Y468D01*
X1597Y467D02*
X1645Y467D01*
X1684Y467D02*
X1732Y467D01*
X1597Y466D02*
X1645Y466D01*
X1684Y466D02*
X1731Y466D01*
X1598Y465D02*
X1646Y465D01*
X1683Y465D02*
X1731Y465D01*
X1598Y464D02*
X1646Y464D01*
X1683Y464D02*
X1731Y464D01*
X1598Y463D02*
X1647Y463D01*
X1682Y463D02*
X1731Y463D01*
X1599Y462D02*
X1647Y462D01*
X1682Y462D02*
X1730Y462D01*
X1599Y461D02*
X1648Y461D01*
X1681Y461D02*
X1730Y461D01*
X1599Y460D02*
X1649Y460D01*
X1680Y460D02*
X1730Y460D01*
X1600Y459D02*
X1650Y459D01*
X1679Y459D02*
X1729Y459D01*
X1600Y458D02*
X1651Y458D01*
X1678Y458D02*
X1729Y458D01*
X1601Y457D02*
X1652Y457D01*
X1677Y457D02*
X1728Y457D01*
X1601Y456D02*
X1653Y456D01*
X1676Y456D02*
X1728Y456D01*
X1602Y455D02*
X1654Y455D01*
X1675Y455D02*
X1727Y455D01*
X1602Y454D02*
X1656Y454D01*
X1673Y454D02*
X1727Y454D01*
X1603Y453D02*
X1658Y453D01*
X1670Y453D02*
X1726Y453D01*
X1603Y452D02*
X1726Y452D01*
X1604Y451D02*
X1725Y451D01*
X1605Y450D02*
X1724Y450D01*
X1605Y449D02*
X1723Y449D01*
X1606Y448D02*
X1723Y448D01*
X1607Y447D02*
X1722Y447D01*
X1608Y446D02*
X1721Y446D01*
X1609Y445D02*
X1720Y445D01*
X1610Y444D02*
X1719Y444D01*
X1611Y443D02*
X1718Y443D01*
X1613Y442D02*
X1716Y442D01*
X1614Y441D02*
X1715Y441D01*
X1616Y440D02*
X1713Y440D01*
X1618Y439D02*
X1711Y439D01*
X1620Y438D02*
X1709Y438D01*
X1623Y437D02*
X1706Y437D01*
D02*
G04 End of Copper0*
M02*