; NON-PLATED HOLES START AT T1
; THROUGH (PLATED) HOLES START AT T100
M48
INCH
T100C0.063071
T101C0.038000
T102C0.015748
T103C0.038417
T104C0.040000
T105C0.062677
T106C0.035000
T107C0.038445
%
T100
X024228Y015397
X024228Y003586
X024228Y009523
X022228Y013460
X024228Y011460
X024228Y017397
X024228Y005586
X022228Y007523
X023220Y016405
X023220Y008531
X024228Y013460
X022228Y015397
X022228Y003586
X023220Y012468
X022228Y009523
X023220Y004594
X024228Y007523
X022228Y011460
X022228Y017397
X022228Y005586
T101
X015354Y017381
X014354Y017381
X008480Y017775
X007480Y017775
X013354Y017381
X012354Y017381
X011354Y017381
T102
X004667Y014249
X021004Y009389
X010236Y010492
X005962Y010079
X005512Y008464
X020333Y009172
X004705Y009068
X021791Y012145
X021732Y003110
X006890Y014822
X005906Y015610
X012500Y007874
X011890Y007204
X008312Y006556
X014744Y010669
X009449Y010885
X019253Y009466
X015866Y008464
X010039Y002441
X018898Y007539
X011260Y002933
X019397Y011251
X004921Y007145
X006844Y010275
X021319Y015629
T103
X017030Y001110
X018030Y001110
X011030Y001110
X020030Y001110
X021030Y001110
X012030Y001110
X013030Y001110
X022030Y001110
X023030Y001110
X014030Y001110
X015030Y001110
X024030Y001110
X025030Y001110
X016030Y001110
T104
X004134Y019940
X001756Y006767
X002756Y005767
X001756Y007767
X005512Y019940
X002756Y006767
X001756Y008767
X002756Y007767
X001756Y009767
X002756Y008767
X001378Y019940
X002756Y009767
X002756Y019940
X001756Y005767
T105
X022230Y017395
X022230Y009521
X022230Y005584
X022230Y013458
T106
X005315Y001830
X007874Y003602
X005315Y003602
X007874Y001830
T107
X012430Y020110
X020030Y020110
X021030Y020110
X019030Y020110
X013430Y020110
X014430Y020110
X015430Y020110
X022030Y020110
X023030Y020110
X007430Y020110
X016430Y020110
X024030Y020110
X010430Y020110
X025030Y020110
X008430Y020110
X009430Y020110
X018030Y020110
X011430Y020110
T00
M30
