G04 #@! TF.FileFunction,Copper,L1,Top,Signal*
%FSLAX46Y46*%
G04 Gerber Fmt 4.6, Leading zero omitted, Abs format (unit mm)*
G04 Created by KiCad (PCBNEW 4.0.5) date 01/31/17 23:14:54*
%MOMM*%
%LPD*%
G01*
G04 APERTURE LIST*
%ADD10C,0.100000*%
%ADD11O,2.000000X1.200000*%
%ADD12C,2.000000*%
%ADD13R,1.350000X1.350000*%
%ADD14C,1.350000*%
%ADD15R,2.500000X0.600000*%
%ADD16R,2.500000X0.270000*%
%ADD17R,4.064000X4.064000*%
%ADD18R,1.600000X2.000000*%
%ADD19C,3.000000*%
%ADD20R,1.600000X1.600000*%
%ADD21O,1.600000X1.600000*%
%ADD22R,2.000000X1.700000*%
%ADD23R,1.700000X2.000000*%
%ADD24R,1.250000X1.500000*%
%ADD25R,1.500000X1.250000*%
%ADD26R,1.500000X1.300000*%
%ADD27R,13.700000X6.000000*%
%ADD28R,6.000000X0.940000*%
%ADD29C,3.500000*%
%ADD30O,1.524000X2.540000*%
%ADD31C,0.600000*%
%ADD32C,0.250000*%
G04 APERTURE END LIST*
D10*
D11*
X159258000Y-97663000D03*
X161798000Y-98933000D03*
X159258000Y-100203000D03*
X161798000Y-101473000D03*
X159258000Y-102743000D03*
X161798000Y-104013000D03*
X159258000Y-105283000D03*
X161798000Y-106553000D03*
X159258000Y-107823000D03*
X161798000Y-109093000D03*
X159258000Y-110363000D03*
X161798000Y-111633000D03*
D12*
X161028000Y-96298000D03*
D13*
X160020000Y-91948000D03*
D14*
X158020000Y-91948000D03*
D15*
X168716000Y-91313000D03*
X163516000Y-91313000D03*
X168716000Y-92583000D03*
X163516000Y-92583000D03*
D16*
X185710000Y-107680000D03*
X190210000Y-107680000D03*
X185710000Y-107180000D03*
X190210000Y-107180000D03*
X185710000Y-106680000D03*
X190210000Y-106680000D03*
X185710000Y-106180000D03*
X190210000Y-106180000D03*
X185710000Y-105680000D03*
X190210000Y-105680000D03*
D17*
X186690000Y-119380000D03*
X186690000Y-92710000D03*
D18*
X166370000Y-104362000D03*
X166370000Y-100362000D03*
D19*
X166116000Y-87630000D03*
D20*
X168656000Y-124460000D03*
D21*
X171196000Y-116840000D03*
X171196000Y-124460000D03*
X168656000Y-116840000D03*
D20*
X181102000Y-96774000D03*
D21*
X181102000Y-89154000D03*
D20*
X160020000Y-124460000D03*
D21*
X162560000Y-116840000D03*
X162560000Y-124460000D03*
X160020000Y-116840000D03*
D20*
X177292000Y-124460000D03*
D21*
X179832000Y-116840000D03*
X179832000Y-124460000D03*
X177292000Y-116840000D03*
D20*
X175006000Y-96774000D03*
D21*
X175006000Y-89154000D03*
D22*
X162020000Y-87884000D03*
X158020000Y-87884000D03*
X165767000Y-95250000D03*
X169767000Y-95250000D03*
D23*
X172212000Y-108236000D03*
X172212000Y-112236000D03*
X175387000Y-108236000D03*
X175387000Y-112236000D03*
D24*
X171704000Y-104882000D03*
X171704000Y-102382000D03*
X173990000Y-104882000D03*
X173990000Y-102382000D03*
X190754000Y-111526000D03*
X190754000Y-114026000D03*
X169164000Y-104882000D03*
X169164000Y-102382000D03*
D25*
X182098000Y-108712000D03*
X179598000Y-108712000D03*
X182098000Y-106680000D03*
X179598000Y-106680000D03*
D26*
X166290000Y-107442000D03*
X168990000Y-107442000D03*
D11*
X152654000Y-114173000D03*
X150114000Y-112903000D03*
X152654000Y-111633000D03*
X150114000Y-110363000D03*
X152654000Y-109093000D03*
X150114000Y-107823000D03*
X152654000Y-106553000D03*
X150114000Y-105283000D03*
X152654000Y-104013000D03*
X150114000Y-102743000D03*
X152654000Y-101473000D03*
X150114000Y-100203000D03*
D12*
X150884000Y-115538000D03*
D27*
X199684000Y-119180000D03*
D28*
X196604000Y-103920000D03*
X196604000Y-102540000D03*
X196604000Y-105300000D03*
X196604000Y-106680000D03*
X196604000Y-101160000D03*
X196604000Y-112200000D03*
X196604000Y-110820000D03*
X196604000Y-109440000D03*
X196604000Y-108060000D03*
D27*
X199684000Y-94180000D03*
D29*
X197104000Y-94180000D03*
X197104000Y-119180000D03*
D30*
X147828000Y-82804000D03*
X150368000Y-82804000D03*
X152908000Y-82804000D03*
X160528000Y-82804000D03*
X157988000Y-82804000D03*
X155448000Y-82804000D03*
X165608000Y-82804000D03*
X168148000Y-82804000D03*
X170688000Y-82804000D03*
X175768000Y-82804000D03*
X147828000Y-131064000D03*
X150368000Y-131064000D03*
X152908000Y-131064000D03*
X155448000Y-131064000D03*
X157988000Y-131064000D03*
X160528000Y-131064000D03*
X163068000Y-131064000D03*
X165608000Y-131064000D03*
X169672000Y-131064000D03*
X172212000Y-131064000D03*
X174752000Y-131064000D03*
X177292000Y-131064000D03*
X179832000Y-131064000D03*
X173228000Y-82804000D03*
D31*
X188595000Y-114427000D03*
X186690000Y-119380000D03*
X174117000Y-100711000D03*
X170942000Y-90424000D03*
X200660000Y-110744000D03*
X200660000Y-108204000D03*
X200660000Y-105156000D03*
X200660000Y-102616000D03*
X171704000Y-100838000D03*
X183642000Y-104902000D03*
X179832000Y-104648000D03*
X168656000Y-100330000D03*
X192532000Y-111760000D03*
X191008000Y-108712000D03*
X158242000Y-114046000D03*
X178816000Y-120396000D03*
X200600000Y-117500000D03*
X154686000Y-86614000D03*
X149352000Y-127762000D03*
X154432000Y-122682000D03*
X148082000Y-128016000D03*
D32*
X175387000Y-108236000D02*
X176181000Y-108236000D01*
X176181000Y-108236000D02*
X178181000Y-110236000D01*
X180574000Y-110236000D02*
X182098000Y-108712000D01*
X178181000Y-110236000D02*
X180574000Y-110236000D01*
X172212000Y-108236000D02*
X175387000Y-108236000D01*
X173990000Y-104882000D02*
X173990000Y-106839000D01*
X173990000Y-106839000D02*
X175387000Y-108236000D01*
X171704000Y-104882000D02*
X173990000Y-104882000D01*
X169164000Y-104882000D02*
X171704000Y-104882000D01*
X168990000Y-107442000D02*
X166290000Y-107442000D01*
X159258000Y-100203000D02*
X164211000Y-100203000D01*
X164592000Y-102584000D02*
X166370000Y-104362000D01*
X164592000Y-100584000D02*
X164592000Y-102584000D01*
X164211000Y-100203000D02*
X164592000Y-100584000D01*
X166290000Y-107442000D02*
X166290000Y-104442000D01*
X166290000Y-104442000D02*
X166370000Y-104362000D01*
X173736000Y-105136000D02*
X173482000Y-104882000D01*
X169164000Y-104882000D02*
X168990000Y-105056000D01*
X168990000Y-105056000D02*
X168990000Y-107442000D01*
X182098000Y-106680000D02*
X185710000Y-106680000D01*
X182098000Y-108712000D02*
X182098000Y-106680000D01*
X188996000Y-114026000D02*
X190754000Y-114026000D01*
X188595000Y-114427000D02*
X188996000Y-114026000D01*
X173990000Y-102382000D02*
X173990000Y-100838000D01*
X173990000Y-100838000D02*
X174117000Y-100711000D01*
X171704000Y-102382000D02*
X173990000Y-102382000D01*
X168716000Y-92583000D02*
X170561000Y-92583000D01*
X170942000Y-92202000D02*
X170942000Y-90424000D01*
X170561000Y-92583000D02*
X170942000Y-92202000D01*
X186690000Y-92710000D02*
X186690000Y-90932000D01*
X186690000Y-90932000D02*
X184912000Y-89154000D01*
X184912000Y-89154000D02*
X181102000Y-89154000D01*
X168716000Y-92583000D02*
X169037000Y-92583000D01*
X186690000Y-119380000D02*
X186690000Y-117348000D01*
X195834000Y-110820000D02*
X200482000Y-110566000D01*
X200482000Y-110566000D02*
X200660000Y-110744000D01*
X195834000Y-108060000D02*
X200550000Y-108314000D01*
X200550000Y-108314000D02*
X200660000Y-108204000D01*
X200516000Y-105300000D02*
X195834000Y-105300000D01*
X200660000Y-105156000D02*
X200516000Y-105300000D01*
X195834000Y-102540000D02*
X200584000Y-102540000D01*
X200584000Y-102540000D02*
X200660000Y-102616000D01*
X171704000Y-102382000D02*
X171704000Y-100838000D01*
X173990000Y-102382000D02*
X173990000Y-102108000D01*
X185710000Y-106180000D02*
X183650000Y-106180000D01*
X183642000Y-106172000D02*
X183642000Y-104902000D01*
X183650000Y-106180000D02*
X183642000Y-106172000D01*
X179598000Y-106680000D02*
X179598000Y-104882000D01*
X179598000Y-104882000D02*
X179832000Y-104648000D01*
X179598000Y-108712000D02*
X179598000Y-106680000D01*
X168656000Y-100330000D02*
X168656000Y-101874000D01*
X168656000Y-101874000D02*
X169164000Y-102382000D01*
X168624000Y-100362000D02*
X166370000Y-100362000D01*
X168656000Y-100330000D02*
X168624000Y-100362000D01*
X186690000Y-119380000D02*
X186690000Y-118090000D01*
X169350000Y-102200000D02*
X169400000Y-102150000D01*
X195834000Y-112200000D02*
X193108000Y-112200000D01*
X192668000Y-111760000D02*
X192532000Y-111760000D01*
X193108000Y-112200000D02*
X192668000Y-111760000D01*
X190210000Y-107680000D02*
X190210000Y-107914000D01*
X192298000Y-111526000D02*
X190754000Y-111526000D01*
X192532000Y-111760000D02*
X192298000Y-111526000D01*
X190210000Y-107914000D02*
X191008000Y-108712000D01*
X190500000Y-107696000D02*
X190210000Y-107680000D01*
X160020000Y-91948000D02*
X160528000Y-91948000D01*
X160528000Y-91948000D02*
X161163000Y-92583000D01*
X161163000Y-92583000D02*
X163516000Y-92583000D01*
X158020000Y-87884000D02*
X158020000Y-91948000D01*
X161798000Y-98933000D02*
X162084000Y-98933000D01*
X162084000Y-98933000D02*
X165767000Y-95250000D01*
X177292000Y-116840000D02*
X179832000Y-116840000D01*
X171196000Y-116840000D02*
X177292000Y-116840000D01*
X168656000Y-116840000D02*
X171196000Y-116840000D01*
X162560000Y-116840000D02*
X168656000Y-116840000D01*
X160020000Y-116840000D02*
X162560000Y-116840000D01*
X158242000Y-114046000D02*
X160020000Y-116078000D01*
X160020000Y-116078000D02*
X160020000Y-116840000D01*
X185710000Y-107680000D02*
X184547000Y-107680000D01*
X184547000Y-107680000D02*
X184150000Y-108077000D01*
X184150000Y-108077000D02*
X184150000Y-110490000D01*
X184150000Y-110490000D02*
X180848000Y-113792000D01*
X180848000Y-113792000D02*
X173768000Y-113792000D01*
X173768000Y-113792000D02*
X172212000Y-112236000D01*
X159258000Y-102743000D02*
X162814000Y-102743000D01*
X169545000Y-109474000D02*
X172212000Y-112141000D01*
X165100000Y-109474000D02*
X169545000Y-109474000D01*
X164084000Y-108458000D02*
X165100000Y-109474000D01*
X164084000Y-104775000D02*
X164084000Y-108458000D01*
X163322000Y-104013000D02*
X164084000Y-104775000D01*
X163322000Y-103251000D02*
X163322000Y-104013000D01*
X162814000Y-102743000D02*
X163322000Y-103251000D01*
X172212000Y-112141000D02*
X172212000Y-112236000D01*
X159385000Y-102870000D02*
X159258000Y-102743000D01*
X185710000Y-107180000D02*
X183904000Y-107180000D01*
X176625000Y-110998000D02*
X175387000Y-112236000D01*
X181991000Y-110998000D02*
X176625000Y-110998000D01*
X183388000Y-109601000D02*
X181991000Y-110998000D01*
X183388000Y-107696000D02*
X183388000Y-109601000D01*
X183904000Y-107180000D02*
X183388000Y-107696000D01*
X161798000Y-101473000D02*
X163703000Y-101473000D01*
X175387000Y-110617000D02*
X175387000Y-112236000D01*
X175133000Y-110363000D02*
X175387000Y-110617000D01*
X171323000Y-110363000D02*
X175133000Y-110363000D01*
X169799000Y-108839000D02*
X171323000Y-110363000D01*
X165227000Y-108839000D02*
X169799000Y-108839000D01*
X164719000Y-108331000D02*
X165227000Y-108839000D01*
X164719000Y-103886000D02*
X164719000Y-108331000D01*
X163957000Y-103124000D02*
X164719000Y-103886000D01*
X163957000Y-101727000D02*
X163957000Y-103124000D01*
X163703000Y-101473000D02*
X163957000Y-101727000D01*
X159258000Y-107823000D02*
X157607000Y-107823000D01*
X166751000Y-126365000D02*
X168656000Y-124460000D01*
X157988000Y-126365000D02*
X166751000Y-126365000D01*
X157099000Y-125476000D02*
X157988000Y-126365000D01*
X157099000Y-108331000D02*
X157099000Y-125476000D01*
X157607000Y-107823000D02*
X157099000Y-108331000D01*
X163449000Y-109093000D02*
X161798000Y-109093000D01*
X164592000Y-110236000D02*
X163449000Y-109093000D01*
X168656000Y-110236000D02*
X164592000Y-110236000D01*
X169545000Y-111125000D02*
X168656000Y-110236000D01*
X169545000Y-112776000D02*
X169545000Y-111125000D01*
X171958000Y-115189000D02*
X169545000Y-112776000D01*
X180721000Y-115189000D02*
X171958000Y-115189000D01*
X181737000Y-116205000D02*
X180721000Y-115189000D01*
X181737000Y-117094000D02*
X181737000Y-116205000D01*
X180721000Y-118110000D02*
X181737000Y-117094000D01*
X178943000Y-118110000D02*
X180721000Y-118110000D01*
X178816000Y-118237000D02*
X178943000Y-118110000D01*
X178816000Y-120396000D02*
X178816000Y-118237000D01*
X159258000Y-110363000D02*
X159258000Y-110617000D01*
X159258000Y-110617000D02*
X157607000Y-112268000D01*
X157607000Y-112268000D02*
X157607000Y-125222000D01*
X157607000Y-125222000D02*
X158115000Y-125730000D01*
X158115000Y-125730000D02*
X164592000Y-125730000D01*
X164592000Y-125730000D02*
X167132000Y-123190000D01*
X167132000Y-123190000D02*
X172085000Y-123190000D01*
X172085000Y-123190000D02*
X173355000Y-124460000D01*
X173355000Y-124460000D02*
X177292000Y-124460000D01*
X168716000Y-91313000D02*
X166497000Y-91313000D01*
X166497000Y-91313000D02*
X166116000Y-91694000D01*
X166116000Y-91694000D02*
X166116000Y-92710000D01*
X166116000Y-92710000D02*
X167005000Y-93599000D01*
X167005000Y-93599000D02*
X168783000Y-93599000D01*
X168783000Y-93599000D02*
X169767000Y-94583000D01*
X169767000Y-94583000D02*
X169767000Y-95250000D01*
X161798000Y-111633000D02*
X161671000Y-111633000D01*
X161671000Y-111633000D02*
X160782000Y-110744000D01*
X166116000Y-91694000D02*
X166497000Y-91313000D01*
X166116000Y-92710000D02*
X166116000Y-91694000D01*
X165227000Y-93599000D02*
X166116000Y-92710000D01*
X159004000Y-93599000D02*
X165227000Y-93599000D01*
X157607000Y-94996000D02*
X159004000Y-93599000D01*
X157607000Y-105791000D02*
X157607000Y-94996000D01*
X158369000Y-106553000D02*
X157607000Y-105791000D01*
X159893000Y-106553000D02*
X158369000Y-106553000D01*
X160782000Y-107442000D02*
X159893000Y-106553000D01*
X160782000Y-108204000D02*
X160782000Y-107442000D01*
X160274000Y-108712000D02*
X160782000Y-108204000D01*
X160274000Y-109474000D02*
X160274000Y-108712000D01*
X160782000Y-109982000D02*
X160274000Y-109474000D01*
X160782000Y-110744000D02*
X160782000Y-109982000D01*
X175006000Y-89154000D02*
X169164000Y-89154000D01*
X168716000Y-89602000D02*
X168716000Y-91313000D01*
X169164000Y-89154000D02*
X168716000Y-89602000D01*
X181102000Y-96774000D02*
X181102000Y-96266000D01*
X181102000Y-96266000D02*
X181610000Y-95758000D01*
X181610000Y-95758000D02*
X189484000Y-95758000D01*
X189484000Y-95758000D02*
X191062000Y-94180000D01*
X191062000Y-94180000D02*
X199684000Y-94180000D01*
X199684000Y-119180000D02*
X202384000Y-119180000D01*
X202384000Y-119180000D02*
X205740000Y-115824000D01*
X205740000Y-115824000D02*
X205740000Y-97536000D01*
X205740000Y-97536000D02*
X202384000Y-94180000D01*
X202384000Y-94180000D02*
X199684000Y-94180000D01*
X195000000Y-95000000D02*
X193420000Y-95000000D01*
X195000000Y-117500000D02*
X200400000Y-117500000D01*
X200400000Y-117500000D02*
X200600000Y-117500000D01*
X163516000Y-91313000D02*
X163516000Y-89380000D01*
X163516000Y-89380000D02*
X162020000Y-87884000D01*
X190210000Y-107180000D02*
X192016000Y-107180000D01*
X193260000Y-109440000D02*
X195834000Y-109440000D01*
X192532000Y-108712000D02*
X193260000Y-109440000D01*
X192532000Y-107696000D02*
X192532000Y-108712000D01*
X192016000Y-107180000D02*
X192532000Y-107696000D01*
X190210000Y-106680000D02*
X195834000Y-106680000D01*
X190210000Y-106180000D02*
X192016000Y-106180000D01*
X193260000Y-103920000D02*
X195834000Y-103920000D01*
X192532000Y-104648000D02*
X193260000Y-103920000D01*
X192532000Y-105664000D02*
X192532000Y-104648000D01*
X192016000Y-106180000D02*
X192532000Y-105664000D01*
X195834000Y-101160000D02*
X192600000Y-101160000D01*
X191500000Y-105680000D02*
X190210000Y-105680000D01*
X192024000Y-105156000D02*
X191500000Y-105680000D01*
X192024000Y-101736000D02*
X192024000Y-105156000D01*
X192600000Y-101160000D02*
X192024000Y-101736000D01*
X152654000Y-114173000D02*
X154813000Y-114173000D01*
X170688000Y-84328000D02*
X170688000Y-82804000D01*
X169926000Y-85090000D02*
X170688000Y-84328000D01*
X155448000Y-85090000D02*
X169926000Y-85090000D01*
X155448000Y-113792000D02*
X155448000Y-85090000D01*
X154813000Y-114173000D02*
X155448000Y-113792000D01*
X150114000Y-112903000D02*
X147828000Y-112903000D01*
X171450000Y-81026000D02*
X173228000Y-82804000D01*
X147574000Y-81026000D02*
X171450000Y-81026000D01*
X146558000Y-81915000D02*
X147574000Y-81026000D01*
X146558000Y-112522000D02*
X146558000Y-81915000D01*
X147828000Y-112903000D02*
X146558000Y-112522000D01*
X154686000Y-86614000D02*
X154940000Y-86868000D01*
X154940000Y-86868000D02*
X154940000Y-110998000D01*
X154940000Y-110998000D02*
X154305000Y-111633000D01*
X154305000Y-111633000D02*
X152654000Y-111633000D01*
X147574000Y-83058000D02*
X147574000Y-84836000D01*
X148717000Y-110363000D02*
X148336000Y-110363000D01*
X148336000Y-110363000D02*
X147574000Y-109728000D01*
X147574000Y-109728000D02*
X147574000Y-84836000D01*
X148717000Y-110363000D02*
X150114000Y-110363000D01*
X147574000Y-83058000D02*
X147828000Y-82804000D01*
X152654000Y-109093000D02*
X154051000Y-109093000D01*
X150368000Y-84524002D02*
X150368000Y-82804000D01*
X154489998Y-88646000D02*
X150368000Y-84524002D01*
X154489998Y-108654002D02*
X154489998Y-88646000D01*
X154051000Y-109093000D02*
X154489998Y-108654002D01*
X152908000Y-132080000D02*
X152908000Y-131064000D01*
X156210000Y-129286000D02*
X157988000Y-131064000D01*
X151384000Y-129286000D02*
X156210000Y-129286000D01*
X149352000Y-127762000D02*
X151384000Y-129286000D01*
X160528000Y-131064000D02*
X160528000Y-130556000D01*
X160528000Y-130556000D02*
X158750000Y-128778000D01*
X154432000Y-127254000D02*
X154432000Y-122682000D01*
X155194000Y-128778000D02*
X154432000Y-127254000D01*
X155702000Y-128778000D02*
X155194000Y-128778000D01*
X158750000Y-128778000D02*
X155702000Y-128778000D01*
X160528000Y-131064000D02*
X160528000Y-131572000D01*
X161290000Y-132842000D02*
X163068000Y-131064000D01*
X149860000Y-132842000D02*
X161290000Y-132842000D01*
X149098000Y-132080000D02*
X149860000Y-132842000D01*
X149098000Y-129032000D02*
X149098000Y-132080000D01*
X148082000Y-128016000D02*
X149098000Y-129032000D01*
X163068000Y-131826000D02*
X163068000Y-131064000D01*
X169672000Y-131064000D02*
X168910000Y-131064000D01*
M02*
