G04 #@! TF.FileFunction,Copper,L1,Top,Signal*
%FSLAX46Y46*%
G04 Gerber Fmt 4.6, Leading zero omitted, Abs format (unit mm)*
G04 Created by KiCad (PCBNEW 4.0.5) date 02/15/17 18:02:55*
%MOMM*%
%LPD*%
G01*
G04 APERTURE LIST*
%ADD10C,0.100000*%
%ADD11O,1.524000X2.540000*%
%ADD12O,2.000000X1.200000*%
%ADD13C,2.000000*%
%ADD14C,0.250000*%
G04 APERTURE END LIST*
D10*
D11*
X154178000Y-82804000D03*
X156718000Y-82804000D03*
X159258000Y-82804000D03*
X166878000Y-82804000D03*
X164338000Y-82804000D03*
X161798000Y-82804000D03*
X171958000Y-82804000D03*
X174498000Y-82804000D03*
X177038000Y-82804000D03*
X182118000Y-82804000D03*
X154178000Y-131064000D03*
X156718000Y-131064000D03*
X159258000Y-131064000D03*
X161798000Y-131064000D03*
X164338000Y-131064000D03*
X166878000Y-131064000D03*
X169418000Y-131064000D03*
X171958000Y-131064000D03*
X176022000Y-131064000D03*
X178562000Y-131064000D03*
X181102000Y-131064000D03*
X179578000Y-82804000D03*
D12*
X157480000Y-113030000D03*
X160020000Y-111760000D03*
X157480000Y-110490000D03*
X160020000Y-109220000D03*
X157480000Y-107950000D03*
X160020000Y-106680000D03*
X157480000Y-105410000D03*
X160020000Y-104140000D03*
X157480000Y-102870000D03*
X160020000Y-101600000D03*
X157480000Y-100330000D03*
X160020000Y-99060000D03*
D13*
X159280000Y-114380000D03*
D14*
X177038000Y-82804000D02*
X177038000Y-83566000D01*
X177038000Y-83566000D02*
X175768000Y-84836000D01*
X155448000Y-113030000D02*
X157480000Y-113030000D01*
X153924000Y-111506000D02*
X155448000Y-113030000D01*
X153924000Y-86106000D02*
X153924000Y-111506000D01*
X155194000Y-84836000D02*
X153924000Y-86106000D01*
X175768000Y-84836000D02*
X155194000Y-84836000D01*
X160020000Y-111760000D02*
X155702000Y-111760000D01*
X178054000Y-85598000D02*
X179578000Y-84074000D01*
X155702000Y-85598000D02*
X178054000Y-85598000D01*
X154686000Y-86614000D02*
X155702000Y-85598000D01*
X154686000Y-110744000D02*
X154686000Y-86614000D01*
X155702000Y-111760000D02*
X154686000Y-110744000D01*
X179578000Y-84074000D02*
X179578000Y-82804000D01*
X182118000Y-82804000D02*
X182118000Y-83566000D01*
X182118000Y-83566000D02*
X179324000Y-86360000D01*
X179324000Y-86360000D02*
X156464000Y-86360000D01*
X156464000Y-86360000D02*
X155448000Y-87376000D01*
X155448000Y-87376000D02*
X155448000Y-109474000D01*
X155448000Y-109474000D02*
X156464000Y-110490000D01*
X156464000Y-110490000D02*
X157480000Y-110490000D01*
X159258000Y-131064000D02*
X159258000Y-128016000D01*
X161290000Y-106680000D02*
X160020000Y-106680000D01*
X162052000Y-107315000D02*
X161290000Y-106680000D01*
X162052000Y-125222000D02*
X162052000Y-107315000D01*
X159258000Y-128016000D02*
X162052000Y-125222000D01*
X161798000Y-131064000D02*
X161798000Y-128016000D01*
X161036000Y-105410000D02*
X157480000Y-105410000D01*
X162560000Y-106934000D02*
X161036000Y-105410000D01*
X162560000Y-127254000D02*
X162560000Y-106934000D01*
X161798000Y-128016000D02*
X162560000Y-127254000D01*
X164338000Y-131064000D02*
X164338000Y-128270000D01*
X161290000Y-104140000D02*
X160020000Y-104140000D01*
X163068000Y-105918000D02*
X161290000Y-104140000D01*
X163068000Y-127000000D02*
X163068000Y-105918000D01*
X164338000Y-128270000D02*
X163068000Y-127000000D01*
X166878000Y-131064000D02*
X166878000Y-129794000D01*
X166878000Y-129794000D02*
X163576000Y-126492000D01*
X163576000Y-126492000D02*
X163576000Y-105410000D01*
X163576000Y-105410000D02*
X161036000Y-102870000D01*
X161036000Y-102870000D02*
X157480000Y-102870000D01*
X169418000Y-131064000D02*
X169418000Y-129286000D01*
X161798000Y-101600000D02*
X160020000Y-101600000D01*
X164084000Y-103886000D02*
X161798000Y-101600000D01*
X164084000Y-123952000D02*
X164084000Y-103886000D01*
X169418000Y-129286000D02*
X164084000Y-123952000D01*
X171958000Y-131064000D02*
X171958000Y-129794000D01*
X171958000Y-129794000D02*
X170942000Y-128778000D01*
X170942000Y-128778000D02*
X169926000Y-128778000D01*
X169926000Y-128778000D02*
X164592000Y-123444000D01*
X164592000Y-123444000D02*
X164592000Y-102616000D01*
X164592000Y-102616000D02*
X162306000Y-100330000D01*
X162306000Y-100330000D02*
X157480000Y-100330000D01*
X176022000Y-131064000D02*
X176022000Y-129540000D01*
X162814000Y-99060000D02*
X160020000Y-99060000D01*
X165354000Y-101600000D02*
X162814000Y-99060000D01*
X165354000Y-123190000D02*
X165354000Y-101600000D01*
X170180000Y-128016000D02*
X165354000Y-123190000D01*
X174498000Y-128016000D02*
X170180000Y-128016000D01*
X176022000Y-129540000D02*
X174498000Y-128016000D01*
M02*
