G04 #@! TF.FileFunction,Copper,L2,Bot,Signal*
%FSLAX46Y46*%
G04 Gerber Fmt 4.6, Leading zero omitted, Abs format (unit mm)*
G04 Created by KiCad (PCBNEW 4.0.5) date 02/15/17 18:02:55*
%MOMM*%
%LPD*%
G01*
G04 APERTURE LIST*
%ADD10C,0.100000*%
%ADD11O,1.524000X2.540000*%
%ADD12O,2.000000X1.200000*%
%ADD13C,2.000000*%
%ADD14C,0.250000*%
G04 APERTURE END LIST*
D10*
D11*
X154178000Y-82804000D03*
X156718000Y-82804000D03*
X159258000Y-82804000D03*
X166878000Y-82804000D03*
X164338000Y-82804000D03*
X161798000Y-82804000D03*
X171958000Y-82804000D03*
X174498000Y-82804000D03*
X177038000Y-82804000D03*
X182118000Y-82804000D03*
X154178000Y-131064000D03*
X156718000Y-131064000D03*
X159258000Y-131064000D03*
X161798000Y-131064000D03*
X164338000Y-131064000D03*
X166878000Y-131064000D03*
X169418000Y-131064000D03*
X171958000Y-131064000D03*
X176022000Y-131064000D03*
X178562000Y-131064000D03*
X181102000Y-131064000D03*
X179578000Y-82804000D03*
D12*
X157480000Y-113030000D03*
X160020000Y-111760000D03*
X157480000Y-110490000D03*
X160020000Y-109220000D03*
X157480000Y-107950000D03*
X160020000Y-106680000D03*
X157480000Y-105410000D03*
X160020000Y-104140000D03*
X157480000Y-102870000D03*
X160020000Y-101600000D03*
X157480000Y-100330000D03*
X160020000Y-99060000D03*
D13*
X159280000Y-114380000D03*
D14*
X154178000Y-82804000D02*
X154178000Y-108204000D01*
X155194000Y-109220000D02*
X160020000Y-109220000D01*
X154178000Y-108204000D02*
X155194000Y-109220000D01*
X157480000Y-107950000D02*
X155448000Y-107950000D01*
X156718000Y-85598000D02*
X156718000Y-82804000D01*
X155194000Y-87122000D02*
X156718000Y-85598000D01*
X155194000Y-107696000D02*
X155194000Y-87122000D01*
X155448000Y-107950000D02*
X155194000Y-107696000D01*
M02*
