G04 #@! TF.FileFunction,Legend,Top*
%FSLAX46Y46*%
G04 Gerber Fmt 4.6, Leading zero omitted, Abs format (unit mm)*
G04 Created by KiCad (PCBNEW 4.0.5) date 01/19/17 13:34:59*
%MOMM*%
%LPD*%
G01*
G04 APERTURE LIST*
%ADD10C,0.100000*%
%ADD11C,0.300000*%
%ADD12C,0.150000*%
%ADD13C,0.120000*%
G04 APERTURE END LIST*
D10*
X178458762Y-87313238D02*
X178354000Y-87365619D01*
X178144477Y-87365619D01*
X178039715Y-87313238D01*
X177987334Y-87260857D01*
X177934953Y-87156095D01*
X177934953Y-86841810D01*
X177987334Y-86737048D01*
X178039715Y-86684667D01*
X178144477Y-86632286D01*
X178354000Y-86632286D01*
X178458762Y-86684667D01*
X179087334Y-87365619D02*
X178982572Y-87313238D01*
X178930191Y-87260857D01*
X178877810Y-87156095D01*
X178877810Y-86841810D01*
X178930191Y-86737048D01*
X178982572Y-86684667D01*
X179087334Y-86632286D01*
X179244476Y-86632286D01*
X179349238Y-86684667D01*
X179401619Y-86737048D01*
X179454000Y-86841810D01*
X179454000Y-87156095D01*
X179401619Y-87260857D01*
X179349238Y-87313238D01*
X179244476Y-87365619D01*
X179087334Y-87365619D01*
X179925429Y-87365619D02*
X179925429Y-86632286D01*
X179925429Y-86737048D02*
X179977810Y-86684667D01*
X180082572Y-86632286D01*
X180239714Y-86632286D01*
X180344476Y-86684667D01*
X180396857Y-86789429D01*
X180396857Y-87365619D01*
X180396857Y-86789429D02*
X180449238Y-86684667D01*
X180554000Y-86632286D01*
X180711143Y-86632286D01*
X180815905Y-86684667D01*
X180868286Y-86789429D01*
X180868286Y-87365619D01*
X181392096Y-87365619D02*
X181392096Y-86632286D01*
X181392096Y-86737048D02*
X181444477Y-86684667D01*
X181549239Y-86632286D01*
X181706381Y-86632286D01*
X181811143Y-86684667D01*
X181863524Y-86789429D01*
X181863524Y-87365619D01*
X181863524Y-86789429D02*
X181915905Y-86684667D01*
X182020667Y-86632286D01*
X182177810Y-86632286D01*
X182282572Y-86684667D01*
X182334953Y-86789429D01*
X182334953Y-87365619D01*
X183015906Y-87365619D02*
X182911144Y-87313238D01*
X182858763Y-87260857D01*
X182806382Y-87156095D01*
X182806382Y-86841810D01*
X182858763Y-86737048D01*
X182911144Y-86684667D01*
X183015906Y-86632286D01*
X183173048Y-86632286D01*
X183277810Y-86684667D01*
X183330191Y-86737048D01*
X183382572Y-86841810D01*
X183382572Y-87156095D01*
X183330191Y-87260857D01*
X183277810Y-87313238D01*
X183173048Y-87365619D01*
X183015906Y-87365619D01*
X183854001Y-86632286D02*
X183854001Y-87365619D01*
X183854001Y-86737048D02*
X183906382Y-86684667D01*
X184011144Y-86632286D01*
X184168286Y-86632286D01*
X184273048Y-86684667D01*
X184325429Y-86789429D01*
X184325429Y-87365619D01*
X186158762Y-86632286D02*
X186158762Y-87522762D01*
X186106381Y-87627524D01*
X186054000Y-87679905D01*
X185949239Y-87732286D01*
X185792096Y-87732286D01*
X185687334Y-87679905D01*
X186158762Y-87313238D02*
X186054000Y-87365619D01*
X185844477Y-87365619D01*
X185739715Y-87313238D01*
X185687334Y-87260857D01*
X185634953Y-87156095D01*
X185634953Y-86841810D01*
X185687334Y-86737048D01*
X185739715Y-86684667D01*
X185844477Y-86632286D01*
X186054000Y-86632286D01*
X186158762Y-86684667D01*
X186682572Y-87365619D02*
X186682572Y-86632286D01*
X186682572Y-86841810D02*
X186734953Y-86737048D01*
X186787334Y-86684667D01*
X186892096Y-86632286D01*
X186996857Y-86632286D01*
X187520667Y-87365619D02*
X187415905Y-87313238D01*
X187363524Y-87260857D01*
X187311143Y-87156095D01*
X187311143Y-86841810D01*
X187363524Y-86737048D01*
X187415905Y-86684667D01*
X187520667Y-86632286D01*
X187677809Y-86632286D01*
X187782571Y-86684667D01*
X187834952Y-86737048D01*
X187887333Y-86841810D01*
X187887333Y-87156095D01*
X187834952Y-87260857D01*
X187782571Y-87313238D01*
X187677809Y-87365619D01*
X187520667Y-87365619D01*
X188830190Y-86632286D02*
X188830190Y-87365619D01*
X188358762Y-86632286D02*
X188358762Y-87208476D01*
X188411143Y-87313238D01*
X188515905Y-87365619D01*
X188673047Y-87365619D01*
X188777809Y-87313238D01*
X188830190Y-87260857D01*
X189354000Y-86632286D02*
X189354000Y-87365619D01*
X189354000Y-86737048D02*
X189406381Y-86684667D01*
X189511143Y-86632286D01*
X189668285Y-86632286D01*
X189773047Y-86684667D01*
X189825428Y-86789429D01*
X189825428Y-87365619D01*
X190820666Y-87365619D02*
X190820666Y-86265619D01*
X190820666Y-87313238D02*
X190715904Y-87365619D01*
X190506381Y-87365619D01*
X190401619Y-87313238D01*
X190349238Y-87260857D01*
X190296857Y-87156095D01*
X190296857Y-86841810D01*
X190349238Y-86737048D01*
X190401619Y-86684667D01*
X190506381Y-86632286D01*
X190715904Y-86632286D01*
X190820666Y-86684667D01*
X171624953Y-86632286D02*
X172044001Y-86632286D01*
X171782096Y-86265619D02*
X171782096Y-87208476D01*
X171834477Y-87313238D01*
X171939239Y-87365619D01*
X172044001Y-87365619D01*
X172410667Y-87365619D02*
X172410667Y-86632286D01*
X172410667Y-86841810D02*
X172463048Y-86737048D01*
X172515429Y-86684667D01*
X172620191Y-86632286D01*
X172724952Y-86632286D01*
X173091619Y-87365619D02*
X173091619Y-86632286D01*
X173091619Y-86265619D02*
X173039238Y-86318000D01*
X173091619Y-86370381D01*
X173144000Y-86318000D01*
X173091619Y-86265619D01*
X173091619Y-86370381D01*
X174086857Y-86632286D02*
X174086857Y-87522762D01*
X174034476Y-87627524D01*
X173982095Y-87679905D01*
X173877334Y-87732286D01*
X173720191Y-87732286D01*
X173615429Y-87679905D01*
X174086857Y-87313238D02*
X173982095Y-87365619D01*
X173772572Y-87365619D01*
X173667810Y-87313238D01*
X173615429Y-87260857D01*
X173563048Y-87156095D01*
X173563048Y-86841810D01*
X173615429Y-86737048D01*
X173667810Y-86684667D01*
X173772572Y-86632286D01*
X173982095Y-86632286D01*
X174086857Y-86684667D01*
X175082095Y-86632286D02*
X175082095Y-87522762D01*
X175029714Y-87627524D01*
X174977333Y-87679905D01*
X174872572Y-87732286D01*
X174715429Y-87732286D01*
X174610667Y-87679905D01*
X175082095Y-87313238D02*
X174977333Y-87365619D01*
X174767810Y-87365619D01*
X174663048Y-87313238D01*
X174610667Y-87260857D01*
X174558286Y-87156095D01*
X174558286Y-86841810D01*
X174610667Y-86737048D01*
X174663048Y-86684667D01*
X174767810Y-86632286D01*
X174977333Y-86632286D01*
X175082095Y-86684667D01*
X176024952Y-87313238D02*
X175920190Y-87365619D01*
X175710667Y-87365619D01*
X175605905Y-87313238D01*
X175553524Y-87208476D01*
X175553524Y-86789429D01*
X175605905Y-86684667D01*
X175710667Y-86632286D01*
X175920190Y-86632286D01*
X176024952Y-86684667D01*
X176077333Y-86789429D01*
X176077333Y-86894190D01*
X175553524Y-86998952D01*
X176548762Y-87365619D02*
X176548762Y-86632286D01*
X176548762Y-86841810D02*
X176601143Y-86737048D01*
X176653524Y-86684667D01*
X176758286Y-86632286D01*
X176863047Y-86632286D01*
X176839714Y-127150762D02*
X176982571Y-127198381D01*
X177220667Y-127198381D01*
X177315905Y-127150762D01*
X177363524Y-127103143D01*
X177411143Y-127007905D01*
X177411143Y-126912667D01*
X177363524Y-126817429D01*
X177315905Y-126769810D01*
X177220667Y-126722190D01*
X177030190Y-126674571D01*
X176934952Y-126626952D01*
X176887333Y-126579333D01*
X176839714Y-126484095D01*
X176839714Y-126388857D01*
X176887333Y-126293619D01*
X176934952Y-126246000D01*
X177030190Y-126198381D01*
X177268286Y-126198381D01*
X177411143Y-126246000D01*
X178554000Y-126150762D02*
X177696857Y-127436476D01*
X178839714Y-127150762D02*
X178934952Y-127198381D01*
X179125428Y-127198381D01*
X179220667Y-127150762D01*
X179268286Y-127055524D01*
X179268286Y-127007905D01*
X179220667Y-126912667D01*
X179125428Y-126865048D01*
X178982571Y-126865048D01*
X178887333Y-126817429D01*
X178839714Y-126722190D01*
X178839714Y-126674571D01*
X178887333Y-126579333D01*
X178982571Y-126531714D01*
X179125428Y-126531714D01*
X179220667Y-126579333D01*
X167918095Y-127150762D02*
X167822857Y-127198381D01*
X167632380Y-127198381D01*
X167537142Y-127150762D01*
X167489523Y-127103143D01*
X167441904Y-127007905D01*
X167441904Y-126722190D01*
X167489523Y-126626952D01*
X167537142Y-126579333D01*
X167632380Y-126531714D01*
X167822857Y-126531714D01*
X167918095Y-126579333D01*
X168346666Y-127198381D02*
X168346666Y-126198381D01*
X168775238Y-127198381D02*
X168775238Y-126674571D01*
X168727619Y-126579333D01*
X168632381Y-126531714D01*
X168489523Y-126531714D01*
X168394285Y-126579333D01*
X168346666Y-126626952D01*
X169680000Y-127198381D02*
X169680000Y-126674571D01*
X169632381Y-126579333D01*
X169537143Y-126531714D01*
X169346666Y-126531714D01*
X169251428Y-126579333D01*
X169680000Y-127150762D02*
X169584762Y-127198381D01*
X169346666Y-127198381D01*
X169251428Y-127150762D01*
X169203809Y-127055524D01*
X169203809Y-126960286D01*
X169251428Y-126865048D01*
X169346666Y-126817429D01*
X169584762Y-126817429D01*
X169680000Y-126769810D01*
X170156190Y-126531714D02*
X170156190Y-127198381D01*
X170156190Y-126626952D02*
X170203809Y-126579333D01*
X170299047Y-126531714D01*
X170441905Y-126531714D01*
X170537143Y-126579333D01*
X170584762Y-126674571D01*
X170584762Y-127198381D01*
X171060952Y-126531714D02*
X171060952Y-127198381D01*
X171060952Y-126626952D02*
X171108571Y-126579333D01*
X171203809Y-126531714D01*
X171346667Y-126531714D01*
X171441905Y-126579333D01*
X171489524Y-126674571D01*
X171489524Y-127198381D01*
X172346667Y-127150762D02*
X172251429Y-127198381D01*
X172060952Y-127198381D01*
X171965714Y-127150762D01*
X171918095Y-127055524D01*
X171918095Y-126674571D01*
X171965714Y-126579333D01*
X172060952Y-126531714D01*
X172251429Y-126531714D01*
X172346667Y-126579333D01*
X172394286Y-126674571D01*
X172394286Y-126769810D01*
X171918095Y-126865048D01*
X172965714Y-127198381D02*
X172870476Y-127150762D01*
X172822857Y-127055524D01*
X172822857Y-126198381D01*
X159813810Y-127198381D02*
X159480476Y-126722190D01*
X159242381Y-127198381D02*
X159242381Y-126198381D01*
X159623334Y-126198381D01*
X159718572Y-126246000D01*
X159766191Y-126293619D01*
X159813810Y-126388857D01*
X159813810Y-126531714D01*
X159766191Y-126626952D01*
X159718572Y-126674571D01*
X159623334Y-126722190D01*
X159242381Y-126722190D01*
X160670953Y-127198381D02*
X160670953Y-126674571D01*
X160623334Y-126579333D01*
X160528096Y-126531714D01*
X160337619Y-126531714D01*
X160242381Y-126579333D01*
X160670953Y-127150762D02*
X160575715Y-127198381D01*
X160337619Y-127198381D01*
X160242381Y-127150762D01*
X160194762Y-127055524D01*
X160194762Y-126960286D01*
X160242381Y-126865048D01*
X160337619Y-126817429D01*
X160575715Y-126817429D01*
X160670953Y-126769810D01*
X161147143Y-126531714D02*
X161147143Y-127198381D01*
X161147143Y-126626952D02*
X161194762Y-126579333D01*
X161290000Y-126531714D01*
X161432858Y-126531714D01*
X161528096Y-126579333D01*
X161575715Y-126674571D01*
X161575715Y-127198381D01*
X162480477Y-126531714D02*
X162480477Y-127341238D01*
X162432858Y-127436476D01*
X162385239Y-127484095D01*
X162290000Y-127531714D01*
X162147143Y-127531714D01*
X162051905Y-127484095D01*
X162480477Y-127150762D02*
X162385239Y-127198381D01*
X162194762Y-127198381D01*
X162099524Y-127150762D01*
X162051905Y-127103143D01*
X162004286Y-127007905D01*
X162004286Y-126722190D01*
X162051905Y-126626952D01*
X162099524Y-126579333D01*
X162194762Y-126531714D01*
X162385239Y-126531714D01*
X162480477Y-126579333D01*
X163337620Y-127150762D02*
X163242382Y-127198381D01*
X163051905Y-127198381D01*
X162956667Y-127150762D01*
X162909048Y-127055524D01*
X162909048Y-126674571D01*
X162956667Y-126579333D01*
X163051905Y-126531714D01*
X163242382Y-126531714D01*
X163337620Y-126579333D01*
X163385239Y-126674571D01*
X163385239Y-126769810D01*
X162909048Y-126865048D01*
D11*
X179995430Y-102532571D02*
X179995430Y-101032571D01*
X180709716Y-101746857D02*
X181209716Y-101746857D01*
X181424002Y-102532571D02*
X180709716Y-102532571D01*
X180709716Y-101032571D01*
X181424002Y-101032571D01*
X181995430Y-102461143D02*
X182209716Y-102532571D01*
X182566859Y-102532571D01*
X182709716Y-102461143D01*
X182781145Y-102389714D01*
X182852573Y-102246857D01*
X182852573Y-102104000D01*
X182781145Y-101961143D01*
X182709716Y-101889714D01*
X182566859Y-101818286D01*
X182281145Y-101746857D01*
X182138287Y-101675429D01*
X182066859Y-101604000D01*
X181995430Y-101461143D01*
X181995430Y-101318286D01*
X182066859Y-101175429D01*
X182138287Y-101104000D01*
X182281145Y-101032571D01*
X182638287Y-101032571D01*
X182852573Y-101104000D01*
X183424001Y-102461143D02*
X183638287Y-102532571D01*
X183995430Y-102532571D01*
X184138287Y-102461143D01*
X184209716Y-102389714D01*
X184281144Y-102246857D01*
X184281144Y-102104000D01*
X184209716Y-101961143D01*
X184138287Y-101889714D01*
X183995430Y-101818286D01*
X183709716Y-101746857D01*
X183566858Y-101675429D01*
X183495430Y-101604000D01*
X183424001Y-101461143D01*
X183424001Y-101318286D01*
X183495430Y-101175429D01*
X183566858Y-101104000D01*
X183709716Y-101032571D01*
X184066858Y-101032571D01*
X184281144Y-101104000D01*
X185924001Y-101532571D02*
X186281144Y-102532571D01*
X186638286Y-101532571D01*
X187495429Y-101032571D02*
X187638286Y-101032571D01*
X187781143Y-101104000D01*
X187852572Y-101175429D01*
X187924001Y-101318286D01*
X187995429Y-101604000D01*
X187995429Y-101961143D01*
X187924001Y-102246857D01*
X187852572Y-102389714D01*
X187781143Y-102461143D01*
X187638286Y-102532571D01*
X187495429Y-102532571D01*
X187352572Y-102461143D01*
X187281143Y-102389714D01*
X187209715Y-102246857D01*
X187138286Y-101961143D01*
X187138286Y-101604000D01*
X187209715Y-101318286D01*
X187281143Y-101175429D01*
X187352572Y-101104000D01*
X187495429Y-101032571D01*
X188638286Y-102389714D02*
X188709714Y-102461143D01*
X188638286Y-102532571D01*
X188566857Y-102461143D01*
X188638286Y-102389714D01*
X188638286Y-102532571D01*
X190138286Y-102532571D02*
X189281143Y-102532571D01*
X189709715Y-102532571D02*
X189709715Y-101032571D01*
X189566858Y-101246857D01*
X189424000Y-101389714D01*
X189281143Y-101461143D01*
X191424000Y-102461143D02*
X191281143Y-102532571D01*
X190995429Y-102532571D01*
X190852571Y-102461143D01*
X190781143Y-102389714D01*
X190709714Y-102246857D01*
X190709714Y-101818286D01*
X190781143Y-101675429D01*
X190852571Y-101604000D01*
X190995429Y-101532571D01*
X191281143Y-101532571D01*
X191424000Y-101604000D01*
D12*
X157758000Y-97063000D02*
X158758000Y-96063000D01*
X158758000Y-96063000D02*
X163298000Y-96063000D01*
X163298000Y-96063000D02*
X163298000Y-113233000D01*
X163298000Y-113233000D02*
X157758000Y-113233000D01*
X157758000Y-113233000D02*
X157758000Y-97063000D01*
X163798000Y-96063000D02*
X163798000Y-113233000D01*
X163798000Y-113233000D02*
X157258000Y-113233000D01*
X157258000Y-113233000D02*
X157258000Y-96063000D01*
X157258000Y-96063000D02*
X163798000Y-96063000D01*
X159020000Y-90948000D02*
X159020000Y-92948000D01*
X159020000Y-92948000D02*
X157020000Y-92948000D01*
X157020000Y-92948000D02*
X157020000Y-90948000D01*
X157020000Y-90948000D02*
X159020000Y-90948000D01*
X160020000Y-90448000D02*
X161520000Y-90448000D01*
X161520000Y-90448000D02*
X161520000Y-91948000D01*
X164616000Y-90598000D02*
G75*
G03X164616000Y-90598000I-250000J0D01*
G01*
X168366000Y-92198000D02*
X168366000Y-91698000D01*
X163866000Y-92948000D02*
X163866000Y-93448000D01*
X163866000Y-93448000D02*
X163866000Y-93698000D01*
X163866000Y-93698000D02*
X168366000Y-93698000D01*
X168366000Y-93698000D02*
X168366000Y-92948000D01*
X163866000Y-91698000D02*
X163866000Y-92198000D01*
X168366000Y-90948000D02*
X168366000Y-90198000D01*
X168366000Y-90198000D02*
X163866000Y-90198000D01*
X163866000Y-90198000D02*
X163866000Y-90948000D01*
X189960000Y-104680000D02*
X185960000Y-104680000D01*
X185960000Y-104680000D02*
X185960000Y-104930000D01*
X189960000Y-104680000D02*
X189960000Y-104930000D01*
X189710000Y-108180000D02*
G75*
G03X189710000Y-108180000I-250000J0D01*
G01*
X189960000Y-107930000D02*
X189960000Y-108680000D01*
X189960000Y-108680000D02*
X185960000Y-108680000D01*
X185960000Y-108680000D02*
X185960000Y-108430000D01*
X185960000Y-105430000D02*
X185960000Y-104930000D01*
X189960000Y-104930000D02*
X189960000Y-105430000D01*
X185960000Y-108430000D02*
X185960000Y-107930000D01*
X184190640Y-116880640D02*
X189189360Y-116880640D01*
X189189360Y-116880640D02*
X189189360Y-121879360D01*
X189189360Y-121879360D02*
X184190640Y-121879360D01*
X184190640Y-121879360D02*
X184190640Y-116880640D01*
X184190640Y-90210640D02*
X189189360Y-90210640D01*
X189189360Y-90210640D02*
X189189360Y-95209360D01*
X189189360Y-95209360D02*
X184190640Y-95209360D01*
X184190640Y-95209360D02*
X184190640Y-90210640D01*
X165345000Y-101362000D02*
X165345000Y-103362000D01*
X167395000Y-103362000D02*
X167395000Y-101362000D01*
D13*
X173676000Y-115640000D02*
X173676000Y-125660000D01*
X173676000Y-125660000D02*
X166176000Y-125660000D01*
X166176000Y-125660000D02*
X166176000Y-115640000D01*
X166176000Y-115640000D02*
X169926000Y-115640000D01*
X171831000Y-118620000D02*
X170561000Y-118620000D01*
X170561000Y-118620000D02*
X170561000Y-122680000D01*
X170561000Y-122680000D02*
X171831000Y-122680000D01*
X171831000Y-122680000D02*
X171831000Y-118620000D01*
X171831000Y-120650000D02*
X170561000Y-120650000D01*
X169291000Y-118620000D02*
X168021000Y-118620000D01*
X168021000Y-118620000D02*
X168021000Y-122680000D01*
X168021000Y-122680000D02*
X169291000Y-122680000D01*
X169291000Y-122680000D02*
X169291000Y-118620000D01*
X169291000Y-120650000D02*
X168021000Y-120650000D01*
X182820000Y-88208000D02*
X182820000Y-98228000D01*
X182820000Y-98228000D02*
X177860000Y-98228000D01*
X177860000Y-98228000D02*
X177860000Y-88208000D01*
X177860000Y-88208000D02*
X179070000Y-88208000D01*
X180975000Y-91188000D02*
X179705000Y-91188000D01*
X179705000Y-91188000D02*
X179705000Y-95248000D01*
X179705000Y-95248000D02*
X180975000Y-95248000D01*
X180975000Y-95248000D02*
X180975000Y-91188000D01*
X180975000Y-93218000D02*
X179705000Y-93218000D01*
X165548000Y-115640000D02*
X165548000Y-125660000D01*
X165548000Y-125660000D02*
X158048000Y-125660000D01*
X158048000Y-125660000D02*
X158048000Y-115640000D01*
X158048000Y-115640000D02*
X161798000Y-115640000D01*
X163703000Y-118620000D02*
X162433000Y-118620000D01*
X162433000Y-118620000D02*
X162433000Y-122680000D01*
X162433000Y-122680000D02*
X163703000Y-122680000D01*
X163703000Y-122680000D02*
X163703000Y-118620000D01*
X163703000Y-120650000D02*
X162433000Y-120650000D01*
X161163000Y-118620000D02*
X159893000Y-118620000D01*
X159893000Y-118620000D02*
X159893000Y-122680000D01*
X159893000Y-122680000D02*
X161163000Y-122680000D01*
X161163000Y-122680000D02*
X161163000Y-118620000D01*
X161163000Y-120650000D02*
X159893000Y-120650000D01*
X181804000Y-115640000D02*
X181804000Y-125660000D01*
X181804000Y-125660000D02*
X174304000Y-125660000D01*
X174304000Y-125660000D02*
X174304000Y-115640000D01*
X174304000Y-115640000D02*
X178054000Y-115640000D01*
X179959000Y-118620000D02*
X178689000Y-118620000D01*
X178689000Y-118620000D02*
X178689000Y-122680000D01*
X178689000Y-122680000D02*
X179959000Y-122680000D01*
X179959000Y-122680000D02*
X179959000Y-118620000D01*
X179959000Y-120650000D02*
X178689000Y-120650000D01*
X177419000Y-118620000D02*
X176149000Y-118620000D01*
X176149000Y-118620000D02*
X176149000Y-122680000D01*
X176149000Y-122680000D02*
X177419000Y-122680000D01*
X177419000Y-122680000D02*
X177419000Y-118620000D01*
X177419000Y-120650000D02*
X176149000Y-120650000D01*
X176724000Y-88208000D02*
X176724000Y-98228000D01*
X176724000Y-98228000D02*
X171764000Y-98228000D01*
X171764000Y-98228000D02*
X171764000Y-88208000D01*
X171764000Y-88208000D02*
X172974000Y-88208000D01*
X174879000Y-91188000D02*
X173609000Y-91188000D01*
X173609000Y-91188000D02*
X173609000Y-95248000D01*
X173609000Y-95248000D02*
X174879000Y-95248000D01*
X174879000Y-95248000D02*
X174879000Y-91188000D01*
X174879000Y-93218000D02*
X173609000Y-93218000D01*
D12*
X159020000Y-86809000D02*
X161020000Y-86809000D01*
X161020000Y-88959000D02*
X159020000Y-88959000D01*
X172661000Y-112760000D02*
X172661000Y-110760000D01*
X174811000Y-110760000D02*
X174811000Y-112760000D01*
X176217000Y-112760000D02*
X176217000Y-110760000D01*
X178367000Y-110760000D02*
X178367000Y-112760000D01*
D13*
X170854000Y-103132000D02*
X170854000Y-104132000D01*
X172554000Y-104132000D02*
X172554000Y-103132000D01*
X173140000Y-103132000D02*
X173140000Y-104132000D01*
X174840000Y-104132000D02*
X174840000Y-103132000D01*
X191604000Y-113276000D02*
X191604000Y-112276000D01*
X189904000Y-112276000D02*
X189904000Y-113276000D01*
X168314000Y-103132000D02*
X168314000Y-104132000D01*
X170014000Y-104132000D02*
X170014000Y-103132000D01*
X180348000Y-109562000D02*
X181348000Y-109562000D01*
X181348000Y-107862000D02*
X180348000Y-107862000D01*
X180348000Y-107530000D02*
X181348000Y-107530000D01*
X181348000Y-105830000D02*
X180348000Y-105830000D01*
D12*
X168240000Y-108317000D02*
X167040000Y-108317000D01*
X167040000Y-106567000D02*
X168240000Y-106567000D01*
X154178000Y-98044000D02*
X148590000Y-98044000D01*
X148590000Y-98044000D02*
X148590000Y-116332000D01*
X154178000Y-115316000D02*
X154178000Y-98044000D01*
X153162000Y-116332000D02*
X154178000Y-115316000D01*
X148590000Y-116332000D02*
X153162000Y-116332000D01*
X148209000Y-116713000D02*
X154559000Y-116713000D01*
X154559000Y-116713000D02*
X154559000Y-97663000D01*
X154559000Y-97663000D02*
X148209000Y-97663000D01*
X148209000Y-116713000D02*
X148209000Y-97663000D01*
X206375000Y-115951000D02*
X206375000Y-97536000D01*
X158372286Y-112810857D02*
X158372286Y-111610857D01*
X158829429Y-111610857D01*
X158943715Y-111668000D01*
X159000858Y-111725143D01*
X159058001Y-111839429D01*
X159058001Y-112010857D01*
X159000858Y-112125143D01*
X158943715Y-112182286D01*
X158829429Y-112239429D01*
X158372286Y-112239429D01*
X159515143Y-111725143D02*
X159572286Y-111668000D01*
X159686572Y-111610857D01*
X159972286Y-111610857D01*
X160086572Y-111668000D01*
X160143715Y-111725143D01*
X160200858Y-111839429D01*
X160200858Y-111953714D01*
X160143715Y-112125143D01*
X159458001Y-112810857D01*
X160200858Y-112810857D01*
X165201714Y-91290857D02*
X165201714Y-92262286D01*
X165258857Y-92376571D01*
X165316000Y-92433714D01*
X165430286Y-92490857D01*
X165658857Y-92490857D01*
X165773143Y-92433714D01*
X165830286Y-92376571D01*
X165887429Y-92262286D01*
X165887429Y-91290857D01*
X167087429Y-92490857D02*
X166401714Y-92490857D01*
X166744572Y-92490857D02*
X166744572Y-91290857D01*
X166630286Y-91462286D01*
X166516000Y-91576571D01*
X166401714Y-91633714D01*
X187302857Y-107594286D02*
X188274286Y-107594286D01*
X188388571Y-107537143D01*
X188445714Y-107480000D01*
X188502857Y-107365714D01*
X188502857Y-107137143D01*
X188445714Y-107022857D01*
X188388571Y-106965714D01*
X188274286Y-106908571D01*
X187302857Y-106908571D01*
X187417143Y-106394286D02*
X187360000Y-106337143D01*
X187302857Y-106222857D01*
X187302857Y-105937143D01*
X187360000Y-105822857D01*
X187417143Y-105765714D01*
X187531429Y-105708571D01*
X187645714Y-105708571D01*
X187817143Y-105765714D01*
X188502857Y-106451428D01*
X188502857Y-105708571D01*
X166203334Y-102719143D02*
X166155715Y-102766762D01*
X166012858Y-102814381D01*
X165917620Y-102814381D01*
X165774762Y-102766762D01*
X165679524Y-102671524D01*
X165631905Y-102576286D01*
X165584286Y-102385810D01*
X165584286Y-102242952D01*
X165631905Y-102052476D01*
X165679524Y-101957238D01*
X165774762Y-101862000D01*
X165917620Y-101814381D01*
X166012858Y-101814381D01*
X166155715Y-101862000D01*
X166203334Y-101909619D01*
X166536667Y-101814381D02*
X167155715Y-101814381D01*
X166822381Y-102195333D01*
X166965239Y-102195333D01*
X167060477Y-102242952D01*
X167108096Y-102290571D01*
X167155715Y-102385810D01*
X167155715Y-102623905D01*
X167108096Y-102719143D01*
X167060477Y-102766762D01*
X166965239Y-102814381D01*
X166679524Y-102814381D01*
X166584286Y-102766762D01*
X166536667Y-102719143D01*
X168179905Y-88400000D02*
X168084667Y-88352381D01*
X167941810Y-88352381D01*
X167798952Y-88400000D01*
X167703714Y-88495238D01*
X167656095Y-88590476D01*
X167608476Y-88780952D01*
X167608476Y-88923810D01*
X167656095Y-89114286D01*
X167703714Y-89209524D01*
X167798952Y-89304762D01*
X167941810Y-89352381D01*
X168037048Y-89352381D01*
X168179905Y-89304762D01*
X168227524Y-89257143D01*
X168227524Y-88923810D01*
X168037048Y-88923810D01*
X168656095Y-89352381D02*
X168656095Y-88352381D01*
X169227524Y-89352381D01*
X169227524Y-88352381D01*
X169703714Y-89352381D02*
X169703714Y-88352381D01*
X169941809Y-88352381D01*
X170084667Y-88400000D01*
X170179905Y-88495238D01*
X170227524Y-88590476D01*
X170275143Y-88780952D01*
X170275143Y-88923810D01*
X170227524Y-89114286D01*
X170179905Y-89209524D01*
X170084667Y-89304762D01*
X169941809Y-89352381D01*
X169703714Y-89352381D01*
X171227524Y-89352381D02*
X170656095Y-89352381D01*
X170941809Y-89352381D02*
X170941809Y-88352381D01*
X170846571Y-88495238D01*
X170751333Y-88590476D01*
X170656095Y-88638095D01*
X173378762Y-125046858D02*
X173426381Y-124904001D01*
X173426381Y-124665905D01*
X173378762Y-124570667D01*
X173331143Y-124523048D01*
X173235905Y-124475429D01*
X173140667Y-124475429D01*
X173045429Y-124523048D01*
X172997810Y-124570667D01*
X172950190Y-124665905D01*
X172902571Y-124856382D01*
X172854952Y-124951620D01*
X172807333Y-124999239D01*
X172712095Y-125046858D01*
X172616857Y-125046858D01*
X172521619Y-124999239D01*
X172474000Y-124951620D01*
X172426381Y-124856382D01*
X172426381Y-124618286D01*
X172474000Y-124475429D01*
X173521619Y-124284953D02*
X173521619Y-123523048D01*
X173331143Y-122713524D02*
X173378762Y-122761143D01*
X173426381Y-122904000D01*
X173426381Y-122999238D01*
X173378762Y-123142096D01*
X173283524Y-123237334D01*
X173188286Y-123284953D01*
X172997810Y-123332572D01*
X172854952Y-123332572D01*
X172664476Y-123284953D01*
X172569238Y-123237334D01*
X172474000Y-123142096D01*
X172426381Y-122999238D01*
X172426381Y-122904000D01*
X172474000Y-122761143D01*
X172521619Y-122713524D01*
X173426381Y-122284953D02*
X172426381Y-122284953D01*
X173426381Y-121856381D02*
X172902571Y-121856381D01*
X172807333Y-121904000D01*
X172759714Y-121999238D01*
X172759714Y-122142096D01*
X172807333Y-122237334D01*
X172854952Y-122284953D01*
X173426381Y-120951619D02*
X172902571Y-120951619D01*
X172807333Y-120999238D01*
X172759714Y-121094476D01*
X172759714Y-121284953D01*
X172807333Y-121380191D01*
X173378762Y-120951619D02*
X173426381Y-121046857D01*
X173426381Y-121284953D01*
X173378762Y-121380191D01*
X173283524Y-121427810D01*
X173188286Y-121427810D01*
X173093048Y-121380191D01*
X173045429Y-121284953D01*
X173045429Y-121046857D01*
X172997810Y-120951619D01*
X172759714Y-120475429D02*
X173426381Y-120475429D01*
X172854952Y-120475429D02*
X172807333Y-120427810D01*
X172759714Y-120332572D01*
X172759714Y-120189714D01*
X172807333Y-120094476D01*
X172902571Y-120046857D01*
X173426381Y-120046857D01*
X172759714Y-119570667D02*
X173426381Y-119570667D01*
X172854952Y-119570667D02*
X172807333Y-119523048D01*
X172759714Y-119427810D01*
X172759714Y-119284952D01*
X172807333Y-119189714D01*
X172902571Y-119142095D01*
X173426381Y-119142095D01*
X173378762Y-118284952D02*
X173426381Y-118380190D01*
X173426381Y-118570667D01*
X173378762Y-118665905D01*
X173283524Y-118713524D01*
X172902571Y-118713524D01*
X172807333Y-118665905D01*
X172759714Y-118570667D01*
X172759714Y-118380190D01*
X172807333Y-118284952D01*
X172902571Y-118237333D01*
X172997810Y-118237333D01*
X173093048Y-118713524D01*
X173426381Y-117665905D02*
X173378762Y-117761143D01*
X173283524Y-117808762D01*
X172426381Y-117808762D01*
X173426381Y-116761142D02*
X173426381Y-117332571D01*
X173426381Y-117046857D02*
X172426381Y-117046857D01*
X172569238Y-117142095D01*
X172664476Y-117237333D01*
X172712095Y-117332571D01*
X182522762Y-96725905D02*
X182570381Y-96583048D01*
X182570381Y-96344952D01*
X182522762Y-96249714D01*
X182475143Y-96202095D01*
X182379905Y-96154476D01*
X182284667Y-96154476D01*
X182189429Y-96202095D01*
X182141810Y-96249714D01*
X182094190Y-96344952D01*
X182046571Y-96535429D01*
X181998952Y-96630667D01*
X181951333Y-96678286D01*
X181856095Y-96725905D01*
X181760857Y-96725905D01*
X181665619Y-96678286D01*
X181618000Y-96630667D01*
X181570381Y-96535429D01*
X181570381Y-96297333D01*
X181618000Y-96154476D01*
X182665619Y-95964000D02*
X182665619Y-95202095D01*
X181618000Y-94440190D02*
X181570381Y-94535428D01*
X181570381Y-94678285D01*
X181618000Y-94821143D01*
X181713238Y-94916381D01*
X181808476Y-94964000D01*
X181998952Y-95011619D01*
X182141810Y-95011619D01*
X182332286Y-94964000D01*
X182427524Y-94916381D01*
X182522762Y-94821143D01*
X182570381Y-94678285D01*
X182570381Y-94583047D01*
X182522762Y-94440190D01*
X182475143Y-94392571D01*
X182141810Y-94392571D01*
X182141810Y-94583047D01*
X182570381Y-93964000D02*
X181903714Y-93964000D01*
X182094190Y-93964000D02*
X181998952Y-93916381D01*
X181951333Y-93868762D01*
X181903714Y-93773524D01*
X181903714Y-93678285D01*
X182570381Y-93202095D02*
X182522762Y-93297333D01*
X182475143Y-93344952D01*
X182379905Y-93392571D01*
X182094190Y-93392571D01*
X181998952Y-93344952D01*
X181951333Y-93297333D01*
X181903714Y-93202095D01*
X181903714Y-93059237D01*
X181951333Y-92963999D01*
X181998952Y-92916380D01*
X182094190Y-92868761D01*
X182379905Y-92868761D01*
X182475143Y-92916380D01*
X182522762Y-92963999D01*
X182570381Y-93059237D01*
X182570381Y-93202095D01*
X181903714Y-92011618D02*
X182570381Y-92011618D01*
X181903714Y-92440190D02*
X182427524Y-92440190D01*
X182522762Y-92392571D01*
X182570381Y-92297333D01*
X182570381Y-92154475D01*
X182522762Y-92059237D01*
X182475143Y-92011618D01*
X181903714Y-91535428D02*
X182570381Y-91535428D01*
X181998952Y-91535428D02*
X181951333Y-91487809D01*
X181903714Y-91392571D01*
X181903714Y-91249713D01*
X181951333Y-91154475D01*
X182046571Y-91106856D01*
X182570381Y-91106856D01*
X182570381Y-90202094D02*
X181570381Y-90202094D01*
X182522762Y-90202094D02*
X182570381Y-90297332D01*
X182570381Y-90487809D01*
X182522762Y-90583047D01*
X182475143Y-90630666D01*
X182379905Y-90678285D01*
X182094190Y-90678285D01*
X181998952Y-90630666D01*
X181951333Y-90583047D01*
X181903714Y-90487809D01*
X181903714Y-90297332D01*
X181951333Y-90202094D01*
X182570381Y-89202094D02*
X182570381Y-89773523D01*
X182570381Y-89487809D02*
X181570381Y-89487809D01*
X181713238Y-89583047D01*
X181808476Y-89678285D01*
X181856095Y-89773523D01*
X165250762Y-124332572D02*
X165298381Y-124189715D01*
X165298381Y-123951619D01*
X165250762Y-123856381D01*
X165203143Y-123808762D01*
X165107905Y-123761143D01*
X165012667Y-123761143D01*
X164917429Y-123808762D01*
X164869810Y-123856381D01*
X164822190Y-123951619D01*
X164774571Y-124142096D01*
X164726952Y-124237334D01*
X164679333Y-124284953D01*
X164584095Y-124332572D01*
X164488857Y-124332572D01*
X164393619Y-124284953D01*
X164346000Y-124237334D01*
X164298381Y-124142096D01*
X164298381Y-123904000D01*
X164346000Y-123761143D01*
X165393619Y-123570667D02*
X165393619Y-122808762D01*
X165298381Y-121999238D02*
X164822190Y-122332572D01*
X165298381Y-122570667D02*
X164298381Y-122570667D01*
X164298381Y-122189714D01*
X164346000Y-122094476D01*
X164393619Y-122046857D01*
X164488857Y-121999238D01*
X164631714Y-121999238D01*
X164726952Y-122046857D01*
X164774571Y-122094476D01*
X164822190Y-122189714D01*
X164822190Y-122570667D01*
X165298381Y-121142095D02*
X164774571Y-121142095D01*
X164679333Y-121189714D01*
X164631714Y-121284952D01*
X164631714Y-121475429D01*
X164679333Y-121570667D01*
X165250762Y-121142095D02*
X165298381Y-121237333D01*
X165298381Y-121475429D01*
X165250762Y-121570667D01*
X165155524Y-121618286D01*
X165060286Y-121618286D01*
X164965048Y-121570667D01*
X164917429Y-121475429D01*
X164917429Y-121237333D01*
X164869810Y-121142095D01*
X164631714Y-120665905D02*
X165298381Y-120665905D01*
X164726952Y-120665905D02*
X164679333Y-120618286D01*
X164631714Y-120523048D01*
X164631714Y-120380190D01*
X164679333Y-120284952D01*
X164774571Y-120237333D01*
X165298381Y-120237333D01*
X164631714Y-119332571D02*
X165441238Y-119332571D01*
X165536476Y-119380190D01*
X165584095Y-119427809D01*
X165631714Y-119523048D01*
X165631714Y-119665905D01*
X165584095Y-119761143D01*
X165250762Y-119332571D02*
X165298381Y-119427809D01*
X165298381Y-119618286D01*
X165250762Y-119713524D01*
X165203143Y-119761143D01*
X165107905Y-119808762D01*
X164822190Y-119808762D01*
X164726952Y-119761143D01*
X164679333Y-119713524D01*
X164631714Y-119618286D01*
X164631714Y-119427809D01*
X164679333Y-119332571D01*
X165250762Y-118475428D02*
X165298381Y-118570666D01*
X165298381Y-118761143D01*
X165250762Y-118856381D01*
X165155524Y-118904000D01*
X164774571Y-118904000D01*
X164679333Y-118856381D01*
X164631714Y-118761143D01*
X164631714Y-118570666D01*
X164679333Y-118475428D01*
X164774571Y-118427809D01*
X164869810Y-118427809D01*
X164965048Y-118904000D01*
X165298381Y-117475428D02*
X165298381Y-118046857D01*
X165298381Y-117761143D02*
X164298381Y-117761143D01*
X164441238Y-117856381D01*
X164536476Y-117951619D01*
X164584095Y-118046857D01*
X181506762Y-124530953D02*
X181554381Y-124388096D01*
X181554381Y-124150000D01*
X181506762Y-124054762D01*
X181459143Y-124007143D01*
X181363905Y-123959524D01*
X181268667Y-123959524D01*
X181173429Y-124007143D01*
X181125810Y-124054762D01*
X181078190Y-124150000D01*
X181030571Y-124340477D01*
X180982952Y-124435715D01*
X180935333Y-124483334D01*
X180840095Y-124530953D01*
X180744857Y-124530953D01*
X180649619Y-124483334D01*
X180602000Y-124435715D01*
X180554381Y-124340477D01*
X180554381Y-124102381D01*
X180602000Y-123959524D01*
X181649619Y-123769048D02*
X181649619Y-123007143D01*
X181506762Y-122816667D02*
X181554381Y-122673810D01*
X181554381Y-122435714D01*
X181506762Y-122340476D01*
X181459143Y-122292857D01*
X181363905Y-122245238D01*
X181268667Y-122245238D01*
X181173429Y-122292857D01*
X181125810Y-122340476D01*
X181078190Y-122435714D01*
X181030571Y-122626191D01*
X180982952Y-122721429D01*
X180935333Y-122769048D01*
X180840095Y-122816667D01*
X180744857Y-122816667D01*
X180649619Y-122769048D01*
X180602000Y-122721429D01*
X180554381Y-122626191D01*
X180554381Y-122388095D01*
X180602000Y-122245238D01*
X181554381Y-121388095D02*
X181030571Y-121388095D01*
X180935333Y-121435714D01*
X180887714Y-121530952D01*
X180887714Y-121721429D01*
X180935333Y-121816667D01*
X181506762Y-121388095D02*
X181554381Y-121483333D01*
X181554381Y-121721429D01*
X181506762Y-121816667D01*
X181411524Y-121864286D01*
X181316286Y-121864286D01*
X181221048Y-121816667D01*
X181173429Y-121721429D01*
X181173429Y-121483333D01*
X181125810Y-121388095D01*
X181554381Y-120911905D02*
X180887714Y-120911905D01*
X180982952Y-120911905D02*
X180935333Y-120864286D01*
X180887714Y-120769048D01*
X180887714Y-120626190D01*
X180935333Y-120530952D01*
X181030571Y-120483333D01*
X181554381Y-120483333D01*
X181030571Y-120483333D02*
X180935333Y-120435714D01*
X180887714Y-120340476D01*
X180887714Y-120197619D01*
X180935333Y-120102381D01*
X181030571Y-120054762D01*
X181554381Y-120054762D01*
X180887714Y-119578572D02*
X181887714Y-119578572D01*
X180935333Y-119578572D02*
X180887714Y-119483334D01*
X180887714Y-119292857D01*
X180935333Y-119197619D01*
X180982952Y-119150000D01*
X181078190Y-119102381D01*
X181363905Y-119102381D01*
X181459143Y-119150000D01*
X181506762Y-119197619D01*
X181554381Y-119292857D01*
X181554381Y-119483334D01*
X181506762Y-119578572D01*
X181554381Y-118530953D02*
X181506762Y-118626191D01*
X181411524Y-118673810D01*
X180554381Y-118673810D01*
X181506762Y-117769047D02*
X181554381Y-117864285D01*
X181554381Y-118054762D01*
X181506762Y-118150000D01*
X181411524Y-118197619D01*
X181030571Y-118197619D01*
X180935333Y-118150000D01*
X180887714Y-118054762D01*
X180887714Y-117864285D01*
X180935333Y-117769047D01*
X181030571Y-117721428D01*
X181125810Y-117721428D01*
X181221048Y-118197619D01*
X181554381Y-116769047D02*
X181554381Y-117340476D01*
X181554381Y-117054762D02*
X180554381Y-117054762D01*
X180697238Y-117150000D01*
X180792476Y-117245238D01*
X180840095Y-117340476D01*
X176172762Y-96932286D02*
X176220381Y-96789429D01*
X176220381Y-96551333D01*
X176172762Y-96456095D01*
X176125143Y-96408476D01*
X176029905Y-96360857D01*
X175934667Y-96360857D01*
X175839429Y-96408476D01*
X175791810Y-96456095D01*
X175744190Y-96551333D01*
X175696571Y-96741810D01*
X175648952Y-96837048D01*
X175601333Y-96884667D01*
X175506095Y-96932286D01*
X175410857Y-96932286D01*
X175315619Y-96884667D01*
X175268000Y-96837048D01*
X175220381Y-96741810D01*
X175220381Y-96503714D01*
X175268000Y-96360857D01*
X176315619Y-96170381D02*
X176315619Y-95408476D01*
X175220381Y-95313238D02*
X175220381Y-94741809D01*
X176220381Y-95027524D02*
X175220381Y-95027524D01*
X176220381Y-94408476D02*
X175553714Y-94408476D01*
X175744190Y-94408476D02*
X175648952Y-94360857D01*
X175601333Y-94313238D01*
X175553714Y-94218000D01*
X175553714Y-94122761D01*
X176220381Y-93789428D02*
X175553714Y-93789428D01*
X175220381Y-93789428D02*
X175268000Y-93837047D01*
X175315619Y-93789428D01*
X175268000Y-93741809D01*
X175220381Y-93789428D01*
X175315619Y-93789428D01*
X175553714Y-92884666D02*
X176363238Y-92884666D01*
X176458476Y-92932285D01*
X176506095Y-92979904D01*
X176553714Y-93075143D01*
X176553714Y-93218000D01*
X176506095Y-93313238D01*
X176172762Y-92884666D02*
X176220381Y-92979904D01*
X176220381Y-93170381D01*
X176172762Y-93265619D01*
X176125143Y-93313238D01*
X176029905Y-93360857D01*
X175744190Y-93360857D01*
X175648952Y-93313238D01*
X175601333Y-93265619D01*
X175553714Y-93170381D01*
X175553714Y-92979904D01*
X175601333Y-92884666D01*
X175553714Y-91979904D02*
X176363238Y-91979904D01*
X176458476Y-92027523D01*
X176506095Y-92075142D01*
X176553714Y-92170381D01*
X176553714Y-92313238D01*
X176506095Y-92408476D01*
X176172762Y-91979904D02*
X176220381Y-92075142D01*
X176220381Y-92265619D01*
X176172762Y-92360857D01*
X176125143Y-92408476D01*
X176029905Y-92456095D01*
X175744190Y-92456095D01*
X175648952Y-92408476D01*
X175601333Y-92360857D01*
X175553714Y-92265619D01*
X175553714Y-92075142D01*
X175601333Y-91979904D01*
X176172762Y-91122761D02*
X176220381Y-91217999D01*
X176220381Y-91408476D01*
X176172762Y-91503714D01*
X176077524Y-91551333D01*
X175696571Y-91551333D01*
X175601333Y-91503714D01*
X175553714Y-91408476D01*
X175553714Y-91217999D01*
X175601333Y-91122761D01*
X175696571Y-91075142D01*
X175791810Y-91075142D01*
X175887048Y-91551333D01*
X176220381Y-90646571D02*
X175553714Y-90646571D01*
X175744190Y-90646571D02*
X175648952Y-90598952D01*
X175601333Y-90551333D01*
X175553714Y-90456095D01*
X175553714Y-90360856D01*
X176220381Y-89503713D02*
X176220381Y-90075142D01*
X176220381Y-89789428D02*
X175220381Y-89789428D01*
X175363238Y-89884666D01*
X175458476Y-89979904D01*
X175506095Y-90075142D01*
X159853334Y-88336381D02*
X159520000Y-87860190D01*
X159281905Y-88336381D02*
X159281905Y-87336381D01*
X159662858Y-87336381D01*
X159758096Y-87384000D01*
X159805715Y-87431619D01*
X159853334Y-87526857D01*
X159853334Y-87669714D01*
X159805715Y-87764952D01*
X159758096Y-87812571D01*
X159662858Y-87860190D01*
X159281905Y-87860190D01*
X160805715Y-88336381D02*
X160234286Y-88336381D01*
X160520000Y-88336381D02*
X160520000Y-87336381D01*
X160424762Y-87479238D01*
X160329524Y-87574476D01*
X160234286Y-87622095D01*
X175966381Y-113140952D02*
X175490190Y-113474286D01*
X175966381Y-113712381D02*
X174966381Y-113712381D01*
X174966381Y-113331428D01*
X175014000Y-113236190D01*
X175061619Y-113188571D01*
X175156857Y-113140952D01*
X175299714Y-113140952D01*
X175394952Y-113188571D01*
X175442571Y-113236190D01*
X175490190Y-113331428D01*
X175490190Y-113712381D01*
X175966381Y-112712381D02*
X174966381Y-112712381D01*
X175061619Y-112283810D02*
X175014000Y-112236191D01*
X174966381Y-112140953D01*
X174966381Y-111902857D01*
X175014000Y-111807619D01*
X175061619Y-111760000D01*
X175156857Y-111712381D01*
X175252095Y-111712381D01*
X175394952Y-111760000D01*
X175966381Y-112331429D01*
X175966381Y-111712381D01*
X175871143Y-110712381D02*
X175918762Y-110760000D01*
X175966381Y-110902857D01*
X175966381Y-110998095D01*
X175918762Y-111140953D01*
X175823524Y-111236191D01*
X175728286Y-111283810D01*
X175537810Y-111331429D01*
X175394952Y-111331429D01*
X175204476Y-111283810D01*
X175109238Y-111236191D01*
X175014000Y-111140953D01*
X174966381Y-110998095D01*
X174966381Y-110902857D01*
X175014000Y-110760000D01*
X175061619Y-110712381D01*
X175966381Y-109760000D02*
X175966381Y-110331429D01*
X175966381Y-110045715D02*
X174966381Y-110045715D01*
X175109238Y-110140953D01*
X175204476Y-110236191D01*
X175252095Y-110331429D01*
X179522381Y-113140952D02*
X179046190Y-113474286D01*
X179522381Y-113712381D02*
X178522381Y-113712381D01*
X178522381Y-113331428D01*
X178570000Y-113236190D01*
X178617619Y-113188571D01*
X178712857Y-113140952D01*
X178855714Y-113140952D01*
X178950952Y-113188571D01*
X178998571Y-113236190D01*
X179046190Y-113331428D01*
X179046190Y-113712381D01*
X179522381Y-112712381D02*
X178522381Y-112712381D01*
X178617619Y-112283810D02*
X178570000Y-112236191D01*
X178522381Y-112140953D01*
X178522381Y-111902857D01*
X178570000Y-111807619D01*
X178617619Y-111760000D01*
X178712857Y-111712381D01*
X178808095Y-111712381D01*
X178950952Y-111760000D01*
X179522381Y-112331429D01*
X179522381Y-111712381D01*
X179427143Y-110712381D02*
X179474762Y-110760000D01*
X179522381Y-110902857D01*
X179522381Y-110998095D01*
X179474762Y-111140953D01*
X179379524Y-111236191D01*
X179284286Y-111283810D01*
X179093810Y-111331429D01*
X178950952Y-111331429D01*
X178760476Y-111283810D01*
X178665238Y-111236191D01*
X178570000Y-111140953D01*
X178522381Y-110998095D01*
X178522381Y-110902857D01*
X178570000Y-110760000D01*
X178617619Y-110712381D01*
X178617619Y-110331429D02*
X178570000Y-110283810D01*
X178522381Y-110188572D01*
X178522381Y-109950476D01*
X178570000Y-109855238D01*
X178617619Y-109807619D01*
X178712857Y-109760000D01*
X178808095Y-109760000D01*
X178950952Y-109807619D01*
X179522381Y-110379048D01*
X179522381Y-109760000D01*
X171537334Y-100941143D02*
X171489715Y-100988762D01*
X171346858Y-101036381D01*
X171251620Y-101036381D01*
X171108762Y-100988762D01*
X171013524Y-100893524D01*
X170965905Y-100798286D01*
X170918286Y-100607810D01*
X170918286Y-100464952D01*
X170965905Y-100274476D01*
X171013524Y-100179238D01*
X171108762Y-100084000D01*
X171251620Y-100036381D01*
X171346858Y-100036381D01*
X171489715Y-100084000D01*
X171537334Y-100131619D01*
X172489715Y-101036381D02*
X171918286Y-101036381D01*
X172204000Y-101036381D02*
X172204000Y-100036381D01*
X172108762Y-100179238D01*
X172013524Y-100274476D01*
X171918286Y-100322095D01*
X173823334Y-100941143D02*
X173775715Y-100988762D01*
X173632858Y-101036381D01*
X173537620Y-101036381D01*
X173394762Y-100988762D01*
X173299524Y-100893524D01*
X173251905Y-100798286D01*
X173204286Y-100607810D01*
X173204286Y-100464952D01*
X173251905Y-100274476D01*
X173299524Y-100179238D01*
X173394762Y-100084000D01*
X173537620Y-100036381D01*
X173632858Y-100036381D01*
X173775715Y-100084000D01*
X173823334Y-100131619D01*
X174204286Y-100131619D02*
X174251905Y-100084000D01*
X174347143Y-100036381D01*
X174585239Y-100036381D01*
X174680477Y-100084000D01*
X174728096Y-100131619D01*
X174775715Y-100226857D01*
X174775715Y-100322095D01*
X174728096Y-100464952D01*
X174156667Y-101036381D01*
X174775715Y-101036381D01*
X188555334Y-113133143D02*
X188507715Y-113180762D01*
X188364858Y-113228381D01*
X188269620Y-113228381D01*
X188126762Y-113180762D01*
X188031524Y-113085524D01*
X187983905Y-112990286D01*
X187936286Y-112799810D01*
X187936286Y-112656952D01*
X187983905Y-112466476D01*
X188031524Y-112371238D01*
X188126762Y-112276000D01*
X188269620Y-112228381D01*
X188364858Y-112228381D01*
X188507715Y-112276000D01*
X188555334Y-112323619D01*
X189412477Y-112561714D02*
X189412477Y-113228381D01*
X189174381Y-112180762D02*
X188936286Y-112895048D01*
X189555334Y-112895048D01*
X168997334Y-100941143D02*
X168949715Y-100988762D01*
X168806858Y-101036381D01*
X168711620Y-101036381D01*
X168568762Y-100988762D01*
X168473524Y-100893524D01*
X168425905Y-100798286D01*
X168378286Y-100607810D01*
X168378286Y-100464952D01*
X168425905Y-100274476D01*
X168473524Y-100179238D01*
X168568762Y-100084000D01*
X168711620Y-100036381D01*
X168806858Y-100036381D01*
X168949715Y-100084000D01*
X168997334Y-100131619D01*
X169902096Y-100036381D02*
X169425905Y-100036381D01*
X169378286Y-100512571D01*
X169425905Y-100464952D01*
X169521143Y-100417333D01*
X169759239Y-100417333D01*
X169854477Y-100464952D01*
X169902096Y-100512571D01*
X169949715Y-100607810D01*
X169949715Y-100845905D01*
X169902096Y-100941143D01*
X169854477Y-100988762D01*
X169759239Y-101036381D01*
X169521143Y-101036381D01*
X169425905Y-100988762D01*
X169378286Y-100941143D01*
X177379334Y-108307143D02*
X177331715Y-108354762D01*
X177188858Y-108402381D01*
X177093620Y-108402381D01*
X176950762Y-108354762D01*
X176855524Y-108259524D01*
X176807905Y-108164286D01*
X176760286Y-107973810D01*
X176760286Y-107830952D01*
X176807905Y-107640476D01*
X176855524Y-107545238D01*
X176950762Y-107450000D01*
X177093620Y-107402381D01*
X177188858Y-107402381D01*
X177331715Y-107450000D01*
X177379334Y-107497619D01*
X178236477Y-107402381D02*
X178046000Y-107402381D01*
X177950762Y-107450000D01*
X177903143Y-107497619D01*
X177807905Y-107640476D01*
X177760286Y-107830952D01*
X177760286Y-108211905D01*
X177807905Y-108307143D01*
X177855524Y-108354762D01*
X177950762Y-108402381D01*
X178141239Y-108402381D01*
X178236477Y-108354762D01*
X178284096Y-108307143D01*
X178331715Y-108211905D01*
X178331715Y-107973810D01*
X178284096Y-107878571D01*
X178236477Y-107830952D01*
X178141239Y-107783333D01*
X177950762Y-107783333D01*
X177855524Y-107830952D01*
X177807905Y-107878571D01*
X177760286Y-107973810D01*
X177379334Y-106529143D02*
X177331715Y-106576762D01*
X177188858Y-106624381D01*
X177093620Y-106624381D01*
X176950762Y-106576762D01*
X176855524Y-106481524D01*
X176807905Y-106386286D01*
X176760286Y-106195810D01*
X176760286Y-106052952D01*
X176807905Y-105862476D01*
X176855524Y-105767238D01*
X176950762Y-105672000D01*
X177093620Y-105624381D01*
X177188858Y-105624381D01*
X177331715Y-105672000D01*
X177379334Y-105719619D01*
X177712667Y-105624381D02*
X178379334Y-105624381D01*
X177950762Y-106624381D01*
X170521334Y-108148381D02*
X170045143Y-108148381D01*
X170045143Y-107148381D01*
X171378477Y-108148381D02*
X170807048Y-108148381D01*
X171092762Y-108148381D02*
X171092762Y-107148381D01*
X170997524Y-107291238D01*
X170902286Y-107386476D01*
X170807048Y-107434095D01*
X151768286Y-99856857D02*
X151768286Y-98656857D01*
X152225429Y-98656857D01*
X152339715Y-98714000D01*
X152396858Y-98771143D01*
X152454001Y-98885429D01*
X152454001Y-99056857D01*
X152396858Y-99171143D01*
X152339715Y-99228286D01*
X152225429Y-99285429D01*
X151768286Y-99285429D01*
X153482572Y-98656857D02*
X153254001Y-98656857D01*
X153139715Y-98714000D01*
X153082572Y-98771143D01*
X152968286Y-98942571D01*
X152911143Y-99171143D01*
X152911143Y-99628286D01*
X152968286Y-99742571D01*
X153025429Y-99799714D01*
X153139715Y-99856857D01*
X153368286Y-99856857D01*
X153482572Y-99799714D01*
X153539715Y-99742571D01*
X153596858Y-99628286D01*
X153596858Y-99342571D01*
X153539715Y-99228286D01*
X153482572Y-99171143D01*
X153368286Y-99114000D01*
X153139715Y-99114000D01*
X153025429Y-99171143D01*
X152968286Y-99228286D01*
X152911143Y-99342571D01*
X205684381Y-107418095D02*
X204684381Y-107418095D01*
X204684381Y-107037142D01*
X204732000Y-106941904D01*
X204779619Y-106894285D01*
X204874857Y-106846666D01*
X205017714Y-106846666D01*
X205112952Y-106894285D01*
X205160571Y-106941904D01*
X205208190Y-107037142D01*
X205208190Y-107418095D01*
X204684381Y-106513333D02*
X204684381Y-105894285D01*
X205065333Y-106227619D01*
X205065333Y-106084761D01*
X205112952Y-105989523D01*
X205160571Y-105941904D01*
X205255810Y-105894285D01*
X205493905Y-105894285D01*
X205589143Y-105941904D01*
X205636762Y-105989523D01*
X205684381Y-106084761D01*
X205684381Y-106370476D01*
X205636762Y-106465714D01*
X205589143Y-106513333D01*
M02*
