G04 #@! TF.FileFunction,Copper,L1,Top,Signal*
%FSLAX46Y46*%
G04 Gerber Fmt 4.6, Leading zero omitted, Abs format (unit mm)*
G04 Created by KiCad (PCBNEW 4.0.5) date 01/19/17 13:34:59*
%MOMM*%
%LPD*%
G01*
G04 APERTURE LIST*
%ADD10C,0.100000*%
%ADD11O,2.000000X1.200000*%
%ADD12C,2.000000*%
%ADD13O,1.524000X2.540000*%
%ADD14R,1.350000X1.350000*%
%ADD15C,1.350000*%
%ADD16R,2.500000X0.600000*%
%ADD17R,2.500000X0.270000*%
%ADD18R,4.064000X4.064000*%
%ADD19R,1.600000X2.000000*%
%ADD20C,3.000000*%
%ADD21R,1.600000X1.600000*%
%ADD22O,1.600000X1.600000*%
%ADD23R,2.000000X1.700000*%
%ADD24R,1.700000X2.000000*%
%ADD25R,1.250000X1.500000*%
%ADD26R,1.500000X1.250000*%
%ADD27R,1.500000X1.300000*%
%ADD28R,13.700000X6.000000*%
%ADD29R,6.000000X0.940000*%
%ADD30C,3.500000*%
%ADD31C,0.600000*%
%ADD32C,0.250000*%
G04 APERTURE END LIST*
D10*
D11*
X159258000Y-97663000D03*
X161798000Y-98933000D03*
X159258000Y-100203000D03*
X161798000Y-101473000D03*
X159258000Y-102743000D03*
X161798000Y-104013000D03*
X159258000Y-105283000D03*
X161798000Y-106553000D03*
X159258000Y-107823000D03*
X161798000Y-109093000D03*
X159258000Y-110363000D03*
X161798000Y-111633000D03*
D12*
X161028000Y-96298000D03*
D13*
X147828000Y-82804000D03*
X150368000Y-82804000D03*
X152908000Y-82804000D03*
X160528000Y-82804000D03*
X157988000Y-82804000D03*
X155448000Y-82804000D03*
X165608000Y-82804000D03*
X168148000Y-82804000D03*
X170688000Y-82804000D03*
X175768000Y-82804000D03*
X147828000Y-131064000D03*
X150368000Y-131064000D03*
X152908000Y-131064000D03*
X155448000Y-131064000D03*
X157988000Y-131064000D03*
X160528000Y-131064000D03*
X163068000Y-131064000D03*
X165608000Y-131064000D03*
X169672000Y-131064000D03*
X172212000Y-131064000D03*
X174752000Y-131064000D03*
X177292000Y-131064000D03*
X179832000Y-131064000D03*
X173228000Y-82804000D03*
D14*
X160020000Y-91948000D03*
D15*
X158020000Y-91948000D03*
D16*
X168716000Y-91313000D03*
X163516000Y-91313000D03*
X168716000Y-92583000D03*
X163516000Y-92583000D03*
D17*
X185710000Y-107680000D03*
X190210000Y-107680000D03*
X185710000Y-107180000D03*
X190210000Y-107180000D03*
X185710000Y-106680000D03*
X190210000Y-106680000D03*
X185710000Y-106180000D03*
X190210000Y-106180000D03*
X185710000Y-105680000D03*
X190210000Y-105680000D03*
D18*
X186690000Y-119380000D03*
X186690000Y-92710000D03*
D19*
X166370000Y-104362000D03*
X166370000Y-100362000D03*
D20*
X166116000Y-87630000D03*
D21*
X171196000Y-116840000D03*
D22*
X168656000Y-124460000D03*
X168656000Y-116840000D03*
X171196000Y-124460000D03*
D21*
X180340000Y-89408000D03*
D22*
X180340000Y-97028000D03*
D21*
X163068000Y-116840000D03*
D22*
X160528000Y-124460000D03*
X160528000Y-116840000D03*
X163068000Y-124460000D03*
D21*
X179324000Y-116840000D03*
D22*
X176784000Y-124460000D03*
X176784000Y-116840000D03*
X179324000Y-124460000D03*
D21*
X174244000Y-89408000D03*
D22*
X174244000Y-97028000D03*
D23*
X162020000Y-87884000D03*
X158020000Y-87884000D03*
D24*
X173736000Y-109760000D03*
X173736000Y-113760000D03*
X177292000Y-109760000D03*
X177292000Y-113760000D03*
D25*
X171704000Y-104882000D03*
X171704000Y-102382000D03*
X173990000Y-104882000D03*
X173990000Y-102382000D03*
X190754000Y-111526000D03*
X190754000Y-114026000D03*
X169164000Y-104882000D03*
X169164000Y-102382000D03*
D26*
X182098000Y-108712000D03*
X179598000Y-108712000D03*
X182098000Y-106680000D03*
X179598000Y-106680000D03*
D27*
X166290000Y-107442000D03*
X168990000Y-107442000D03*
D11*
X152654000Y-114173000D03*
X150114000Y-112903000D03*
X152654000Y-111633000D03*
X150114000Y-110363000D03*
X152654000Y-109093000D03*
X150114000Y-107823000D03*
X152654000Y-106553000D03*
X150114000Y-105283000D03*
X152654000Y-104013000D03*
X150114000Y-102743000D03*
X152654000Y-101473000D03*
X150114000Y-100203000D03*
D12*
X150884000Y-115538000D03*
D28*
X199684000Y-119180000D03*
D29*
X196604000Y-103920000D03*
X196604000Y-102540000D03*
X196604000Y-105300000D03*
X196604000Y-106680000D03*
X196604000Y-101160000D03*
X196604000Y-112200000D03*
X196604000Y-110820000D03*
X196604000Y-109440000D03*
X196604000Y-108060000D03*
D28*
X199684000Y-94180000D03*
D30*
X197104000Y-94180000D03*
X197104000Y-119180000D03*
D31*
X175000000Y-98400000D03*
X186436000Y-115316000D03*
X170434000Y-93980000D03*
X193548000Y-114808000D03*
X200660000Y-110744000D03*
X200660000Y-108204000D03*
X200660000Y-105156000D03*
X200660000Y-102616000D03*
X171704000Y-100838000D03*
X175260000Y-100838000D03*
X183642000Y-104902000D03*
X179832000Y-104648000D03*
X168656000Y-100330000D03*
X192532000Y-111760000D03*
X191008000Y-108712000D03*
X157988000Y-112522000D03*
X200600000Y-117500000D03*
X154686000Y-86614000D03*
X149352000Y-127762000D03*
X154432000Y-122682000D03*
X148082000Y-128016000D03*
D32*
X171704000Y-104882000D02*
X173990000Y-104882000D01*
X169164000Y-104882000D02*
X171704000Y-104882000D01*
X168990000Y-107442000D02*
X166290000Y-107442000D01*
X159258000Y-100203000D02*
X164211000Y-100203000D01*
X164592000Y-102584000D02*
X166370000Y-104362000D01*
X164592000Y-100584000D02*
X164592000Y-102584000D01*
X164211000Y-100203000D02*
X164592000Y-100584000D01*
X166290000Y-107442000D02*
X166290000Y-104442000D01*
X166290000Y-104442000D02*
X166370000Y-104362000D01*
X173736000Y-109760000D02*
X173736000Y-105136000D01*
X173736000Y-105136000D02*
X173482000Y-104882000D01*
X169164000Y-104882000D02*
X168990000Y-105056000D01*
X168990000Y-105056000D02*
X168990000Y-107442000D01*
X177292000Y-109760000D02*
X173736000Y-109760000D01*
X182098000Y-106680000D02*
X185710000Y-106680000D01*
X177292000Y-109760000D02*
X181050000Y-109760000D01*
X181050000Y-109760000D02*
X182098000Y-108712000D01*
X182098000Y-108712000D02*
X182098000Y-106680000D01*
X186690000Y-119380000D02*
X186690000Y-115570000D01*
X186690000Y-115570000D02*
X186436000Y-115316000D01*
X168716000Y-92583000D02*
X169037000Y-92583000D01*
X169037000Y-92583000D02*
X170434000Y-93980000D01*
X190754000Y-114026000D02*
X192552000Y-114026000D01*
X192552000Y-114026000D02*
X193548000Y-114808000D01*
X186690000Y-119380000D02*
X186690000Y-117348000D01*
X195834000Y-110820000D02*
X200482000Y-110566000D01*
X200482000Y-110566000D02*
X200660000Y-110744000D01*
X195834000Y-108060000D02*
X200550000Y-108314000D01*
X200550000Y-108314000D02*
X200660000Y-108204000D01*
X200516000Y-105300000D02*
X195834000Y-105300000D01*
X200660000Y-105156000D02*
X200516000Y-105300000D01*
X195834000Y-102540000D02*
X200584000Y-102540000D01*
X200584000Y-102540000D02*
X200660000Y-102616000D01*
X171704000Y-102382000D02*
X171704000Y-100838000D01*
X173990000Y-102382000D02*
X173990000Y-102108000D01*
X173990000Y-102108000D02*
X175260000Y-100838000D01*
X185710000Y-106180000D02*
X183650000Y-106180000D01*
X183650000Y-106180000D02*
X183642000Y-106172000D01*
X183642000Y-106172000D02*
X183642000Y-104902000D01*
X179598000Y-106680000D02*
X179598000Y-104882000D01*
X179598000Y-104882000D02*
X179832000Y-104648000D01*
X179598000Y-108712000D02*
X179598000Y-106680000D01*
X168656000Y-100330000D02*
X168656000Y-101874000D01*
X168656000Y-101874000D02*
X169164000Y-102382000D01*
X168624000Y-100362000D02*
X166370000Y-100362000D01*
X168656000Y-100330000D02*
X168624000Y-100362000D01*
X180340000Y-97028000D02*
X180340000Y-92964000D01*
X180340000Y-92964000D02*
X180594000Y-92710000D01*
X180594000Y-92710000D02*
X186690000Y-92710000D01*
X186690000Y-119380000D02*
X186690000Y-118090000D01*
X169350000Y-102200000D02*
X169400000Y-102150000D01*
X195834000Y-112200000D02*
X193108000Y-112200000D01*
X192668000Y-111760000D02*
X192532000Y-111760000D01*
X193108000Y-112200000D02*
X192668000Y-111760000D01*
X190210000Y-107680000D02*
X190210000Y-107914000D01*
X192298000Y-111526000D02*
X190754000Y-111526000D01*
X192532000Y-111760000D02*
X192298000Y-111526000D01*
X190210000Y-107914000D02*
X191008000Y-108712000D01*
X190500000Y-107696000D02*
X190210000Y-107680000D01*
X160020000Y-91948000D02*
X160528000Y-91948000D01*
X160528000Y-91948000D02*
X161163000Y-92583000D01*
X161163000Y-92583000D02*
X163516000Y-92583000D01*
X158020000Y-87884000D02*
X158020000Y-91948000D01*
X179324000Y-124460000D02*
X176784000Y-124460000D01*
X176784000Y-124460000D02*
X171196000Y-124460000D01*
X171196000Y-124460000D02*
X168656000Y-124460000D01*
X168656000Y-124460000D02*
X163068000Y-124460000D01*
X163068000Y-124460000D02*
X160528000Y-124460000D01*
X173736000Y-113760000D02*
X171990000Y-113760000D01*
X162814000Y-102870000D02*
X159385000Y-102870000D01*
X163322000Y-103378000D02*
X162814000Y-102870000D01*
X163322000Y-104140000D02*
X163322000Y-103378000D01*
X164338000Y-105156000D02*
X163322000Y-104140000D01*
X164338000Y-109474000D02*
X164338000Y-105156000D01*
X165608000Y-110744000D02*
X164338000Y-109474000D01*
X168974000Y-110744000D02*
X165608000Y-110744000D01*
X171990000Y-113760000D02*
X168974000Y-110744000D01*
X159385000Y-102870000D02*
X159258000Y-102743000D01*
X185710000Y-107680000D02*
X185710000Y-114010000D01*
X175292000Y-115316000D02*
X173736000Y-113760000D01*
X184404000Y-115316000D02*
X175292000Y-115316000D01*
X185710000Y-114010000D02*
X184404000Y-115316000D01*
X161798000Y-101473000D02*
X163957000Y-101473000D01*
X175546000Y-112014000D02*
X177292000Y-113760000D01*
X172466000Y-112014000D02*
X175546000Y-112014000D01*
X169926000Y-109474000D02*
X172466000Y-112014000D01*
X165862000Y-109474000D02*
X169926000Y-109474000D01*
X164846000Y-108458000D02*
X165862000Y-109474000D01*
X164846000Y-104394000D02*
X164846000Y-108458000D01*
X164084000Y-103632000D02*
X164846000Y-104394000D01*
X164084000Y-101600000D02*
X164084000Y-103632000D01*
X163957000Y-101473000D02*
X164084000Y-101600000D01*
X185710000Y-107180000D02*
X183904000Y-107180000D01*
X181896000Y-113760000D02*
X177292000Y-113760000D01*
X183388000Y-112268000D02*
X181896000Y-113760000D01*
X183388000Y-107696000D02*
X183388000Y-112268000D01*
X183904000Y-107180000D02*
X183388000Y-107696000D01*
X168656000Y-116840000D02*
X165862000Y-116840000D01*
X163068000Y-106934000D02*
X161798000Y-106553000D01*
X163830000Y-108712000D02*
X163068000Y-106934000D01*
X163830000Y-114300000D02*
X163830000Y-108712000D01*
X165608000Y-115824000D02*
X163830000Y-114300000D01*
X165608000Y-116586000D02*
X165608000Y-115824000D01*
X165862000Y-116840000D02*
X165608000Y-116586000D01*
X159258000Y-107823000D02*
X162941000Y-107823000D01*
X171196000Y-119126000D02*
X171196000Y-116840000D01*
X170180000Y-120142000D02*
X171196000Y-119126000D01*
X166624000Y-120142000D02*
X170180000Y-120142000D01*
X164846000Y-118364000D02*
X166624000Y-120142000D01*
X164846000Y-115824000D02*
X164846000Y-118364000D01*
X163322000Y-114554000D02*
X164846000Y-115824000D01*
X163322000Y-108712000D02*
X163322000Y-114554000D01*
X162941000Y-107823000D02*
X163322000Y-108712000D01*
X176784000Y-121666000D02*
X176784000Y-116840000D01*
X175964002Y-122485998D02*
X176784000Y-121666000D01*
X159569998Y-122485998D02*
X175964002Y-122485998D01*
X157480000Y-119888000D02*
X159569998Y-122485998D01*
X157480000Y-113538000D02*
X157480000Y-119888000D01*
X157988000Y-112522000D02*
X157480000Y-113538000D01*
X179324000Y-116840000D02*
X179324000Y-122936000D01*
X157861000Y-110363000D02*
X159258000Y-110363000D01*
X156972000Y-111760000D02*
X157861000Y-110363000D01*
X156972000Y-120396000D02*
X156972000Y-111760000D01*
X159004000Y-122936000D02*
X156972000Y-120396000D01*
X179324000Y-122936000D02*
X159004000Y-122936000D01*
X168716000Y-91313000D02*
X171577000Y-91313000D01*
X172720000Y-95504000D02*
X174244000Y-97028000D01*
X172720000Y-92456000D02*
X172720000Y-95504000D01*
X171577000Y-91313000D02*
X172720000Y-92456000D01*
X161798000Y-111633000D02*
X161798000Y-110744000D01*
X161798000Y-110744000D02*
X161290000Y-110236000D01*
X161290000Y-110236000D02*
X161036000Y-110236000D01*
X161036000Y-110236000D02*
X160020000Y-109220000D01*
X160020000Y-109220000D02*
X157480000Y-109220000D01*
X157480000Y-109220000D02*
X156718000Y-108458000D01*
X156718000Y-108458000D02*
X156718000Y-95504000D01*
X156718000Y-95504000D02*
X158496000Y-93726000D01*
X158496000Y-93726000D02*
X165354000Y-93726000D01*
X165354000Y-93726000D02*
X165862000Y-93218000D01*
X165862000Y-93218000D02*
X165862000Y-92202000D01*
X165862000Y-92202000D02*
X166751000Y-91313000D01*
X166751000Y-91313000D02*
X168716000Y-91313000D01*
X199684000Y-119180000D02*
X202384000Y-119180000D01*
X202384000Y-119180000D02*
X205740000Y-115824000D01*
X205740000Y-115824000D02*
X205740000Y-97536000D01*
X205740000Y-97536000D02*
X202384000Y-94180000D01*
X202384000Y-94180000D02*
X199684000Y-94180000D01*
X195000000Y-95000000D02*
X193420000Y-95000000D01*
X195000000Y-117500000D02*
X200400000Y-117500000D01*
X200400000Y-117500000D02*
X200600000Y-117500000D01*
X163516000Y-91313000D02*
X163516000Y-89380000D01*
X163516000Y-89380000D02*
X162020000Y-87884000D01*
X190210000Y-107180000D02*
X192016000Y-107180000D01*
X193260000Y-109440000D02*
X195834000Y-109440000D01*
X192532000Y-108712000D02*
X193260000Y-109440000D01*
X192532000Y-107696000D02*
X192532000Y-108712000D01*
X192016000Y-107180000D02*
X192532000Y-107696000D01*
X190210000Y-106680000D02*
X195834000Y-106680000D01*
X190210000Y-106180000D02*
X192016000Y-106180000D01*
X193260000Y-103920000D02*
X195834000Y-103920000D01*
X192532000Y-104648000D02*
X193260000Y-103920000D01*
X192532000Y-105664000D02*
X192532000Y-104648000D01*
X192016000Y-106180000D02*
X192532000Y-105664000D01*
X195834000Y-101160000D02*
X192600000Y-101160000D01*
X191500000Y-105680000D02*
X190210000Y-105680000D01*
X192024000Y-105156000D02*
X191500000Y-105680000D01*
X192024000Y-101736000D02*
X192024000Y-105156000D01*
X192600000Y-101160000D02*
X192024000Y-101736000D01*
X152654000Y-114173000D02*
X154813000Y-114173000D01*
X170688000Y-84328000D02*
X170688000Y-82804000D01*
X169926000Y-85090000D02*
X170688000Y-84328000D01*
X155448000Y-85090000D02*
X169926000Y-85090000D01*
X155448000Y-113792000D02*
X155448000Y-85090000D01*
X154813000Y-114173000D02*
X155448000Y-113792000D01*
X150114000Y-112903000D02*
X147828000Y-112903000D01*
X171450000Y-81026000D02*
X173228000Y-82804000D01*
X147574000Y-81026000D02*
X171450000Y-81026000D01*
X146558000Y-81915000D02*
X147574000Y-81026000D01*
X146558000Y-112522000D02*
X146558000Y-81915000D01*
X147828000Y-112903000D02*
X146558000Y-112522000D01*
X154686000Y-86614000D02*
X154940000Y-86868000D01*
X154940000Y-86868000D02*
X154940000Y-110998000D01*
X154940000Y-110998000D02*
X154305000Y-111633000D01*
X154305000Y-111633000D02*
X152654000Y-111633000D01*
X147574000Y-83058000D02*
X147574000Y-84836000D01*
X148717000Y-110363000D02*
X148336000Y-110363000D01*
X148336000Y-110363000D02*
X147574000Y-109728000D01*
X147574000Y-109728000D02*
X147574000Y-84836000D01*
X148717000Y-110363000D02*
X150114000Y-110363000D01*
X147574000Y-83058000D02*
X147828000Y-82804000D01*
X152654000Y-109093000D02*
X154051000Y-109093000D01*
X150368000Y-84524002D02*
X150368000Y-82804000D01*
X154489998Y-88646000D02*
X150368000Y-84524002D01*
X154489998Y-108654002D02*
X154489998Y-88646000D01*
X154051000Y-109093000D02*
X154489998Y-108654002D01*
X152908000Y-132080000D02*
X152908000Y-131064000D01*
X156210000Y-129286000D02*
X157988000Y-131064000D01*
X151384000Y-129286000D02*
X156210000Y-129286000D01*
X149352000Y-127762000D02*
X151384000Y-129286000D01*
X160528000Y-131064000D02*
X160528000Y-130556000D01*
X160528000Y-130556000D02*
X158750000Y-128778000D01*
X154432000Y-127254000D02*
X154432000Y-122682000D01*
X155194000Y-128778000D02*
X154432000Y-127254000D01*
X155702000Y-128778000D02*
X155194000Y-128778000D01*
X158750000Y-128778000D02*
X155702000Y-128778000D01*
X160528000Y-131064000D02*
X160528000Y-131572000D01*
X161290000Y-132842000D02*
X163068000Y-131064000D01*
X149860000Y-132842000D02*
X161290000Y-132842000D01*
X149098000Y-132080000D02*
X149860000Y-132842000D01*
X149098000Y-129032000D02*
X149098000Y-132080000D01*
X148082000Y-128016000D02*
X149098000Y-129032000D01*
X163068000Y-131826000D02*
X163068000Y-131064000D01*
X169672000Y-131064000D02*
X168910000Y-131064000D01*
M02*
