G04 #@! TF.FileFunction,Copper,L2,Bot,Signal*
%FSLAX46Y46*%
G04 Gerber Fmt 4.6, Leading zero omitted, Abs format (unit mm)*
G04 Created by KiCad (PCBNEW 4.0.5) date 01/19/17 13:34:59*
%MOMM*%
%LPD*%
G01*
G04 APERTURE LIST*
%ADD10C,0.100000*%
%ADD11O,2.000000X1.200000*%
%ADD12C,2.000000*%
%ADD13O,1.524000X2.540000*%
%ADD14R,1.350000X1.350000*%
%ADD15C,1.350000*%
%ADD16C,3.000000*%
%ADD17R,1.600000X1.600000*%
%ADD18O,1.600000X1.600000*%
%ADD19R,2.000000X1.700000*%
%ADD20R,1.700000X2.000000*%
%ADD21C,3.500000*%
%ADD22C,0.600000*%
%ADD23C,0.250000*%
%ADD24C,0.254000*%
G04 APERTURE END LIST*
D10*
D11*
X159258000Y-97663000D03*
X161798000Y-98933000D03*
X159258000Y-100203000D03*
X161798000Y-101473000D03*
X159258000Y-102743000D03*
X161798000Y-104013000D03*
X159258000Y-105283000D03*
X161798000Y-106553000D03*
X159258000Y-107823000D03*
X161798000Y-109093000D03*
X159258000Y-110363000D03*
X161798000Y-111633000D03*
D12*
X161028000Y-96298000D03*
D13*
X147828000Y-82804000D03*
X150368000Y-82804000D03*
X152908000Y-82804000D03*
X160528000Y-82804000D03*
X157988000Y-82804000D03*
X155448000Y-82804000D03*
X165608000Y-82804000D03*
X168148000Y-82804000D03*
X170688000Y-82804000D03*
X175768000Y-82804000D03*
X147828000Y-131064000D03*
X150368000Y-131064000D03*
X152908000Y-131064000D03*
X155448000Y-131064000D03*
X157988000Y-131064000D03*
X160528000Y-131064000D03*
X163068000Y-131064000D03*
X165608000Y-131064000D03*
X169672000Y-131064000D03*
X172212000Y-131064000D03*
X174752000Y-131064000D03*
X177292000Y-131064000D03*
X179832000Y-131064000D03*
X173228000Y-82804000D03*
D14*
X160020000Y-91948000D03*
D15*
X158020000Y-91948000D03*
D16*
X166116000Y-87630000D03*
D17*
X171196000Y-116840000D03*
D18*
X168656000Y-124460000D03*
X168656000Y-116840000D03*
X171196000Y-124460000D03*
D17*
X180340000Y-89408000D03*
D18*
X180340000Y-97028000D03*
D17*
X163068000Y-116840000D03*
D18*
X160528000Y-124460000D03*
X160528000Y-116840000D03*
X163068000Y-124460000D03*
D17*
X179324000Y-116840000D03*
D18*
X176784000Y-124460000D03*
X176784000Y-116840000D03*
X179324000Y-124460000D03*
D17*
X174244000Y-89408000D03*
D18*
X174244000Y-97028000D03*
D19*
X165640000Y-96520000D03*
X169640000Y-96520000D03*
D20*
X180340000Y-113760000D03*
X180340000Y-109760000D03*
X177292000Y-113760000D03*
X177292000Y-109760000D03*
X173736000Y-113760000D03*
X173736000Y-109760000D03*
X170180000Y-113760000D03*
X170180000Y-109760000D03*
X167132000Y-113760000D03*
X167132000Y-109760000D03*
X183388000Y-113760000D03*
X183388000Y-109760000D03*
D11*
X152654000Y-114173000D03*
X150114000Y-112903000D03*
X152654000Y-111633000D03*
X150114000Y-110363000D03*
X152654000Y-109093000D03*
X150114000Y-107823000D03*
X152654000Y-106553000D03*
X150114000Y-105283000D03*
X152654000Y-104013000D03*
X150114000Y-102743000D03*
X152654000Y-101473000D03*
X150114000Y-100203000D03*
D12*
X150884000Y-115538000D03*
D21*
X197104000Y-94180000D03*
X197104000Y-119180000D03*
D22*
X175000000Y-98400000D03*
X186436000Y-115316000D03*
X170434000Y-93980000D03*
X193548000Y-114808000D03*
X200660000Y-110744000D03*
X200660000Y-108204000D03*
X200660000Y-105156000D03*
X200660000Y-102616000D03*
X171704000Y-100838000D03*
X175260000Y-100838000D03*
X183642000Y-104902000D03*
X179832000Y-104648000D03*
X168656000Y-100330000D03*
X192532000Y-111760000D03*
X191008000Y-108712000D03*
X157988000Y-112522000D03*
X200600000Y-117500000D03*
X154686000Y-86614000D03*
X149352000Y-127762000D03*
X154432000Y-122682000D03*
X148082000Y-128016000D03*
D23*
X184944000Y-109760000D02*
X183388000Y-109760000D01*
X185928000Y-110744000D02*
X184944000Y-109760000D01*
X185928000Y-114808000D02*
X185928000Y-110744000D01*
X186436000Y-115316000D02*
X185928000Y-114808000D01*
X183388000Y-109760000D02*
X183388000Y-108204000D01*
X183388000Y-108204000D02*
X179832000Y-104648000D01*
X170434000Y-93980000D02*
X176022000Y-93980000D01*
X176022000Y-93980000D02*
X179070000Y-97028000D01*
X179070000Y-97028000D02*
X180340000Y-97028000D01*
X200152000Y-114808000D02*
X200660000Y-113284000D01*
X193548000Y-114808000D02*
X200152000Y-114808000D01*
X200660000Y-113284000D02*
X200660000Y-110744000D01*
X200660000Y-113284000D02*
X200660000Y-110744000D01*
X200660000Y-110490000D02*
X200660000Y-108204000D01*
X200660000Y-110744000D02*
X200660000Y-110490000D01*
X200660000Y-107188000D02*
X200660000Y-105156000D01*
X200660000Y-108204000D02*
X200660000Y-107188000D01*
X200660000Y-102616000D02*
X200660000Y-105156000D01*
X182626000Y-99314000D02*
X180340000Y-97028000D01*
X199644000Y-99060000D02*
X182626000Y-99314000D01*
X200660000Y-99568000D02*
X199644000Y-99060000D01*
X200660000Y-101092000D02*
X200660000Y-99568000D01*
X200660000Y-102616000D02*
X200660000Y-101092000D01*
X171196000Y-100330000D02*
X168656000Y-100330000D01*
X171704000Y-100838000D02*
X171196000Y-100330000D01*
X175260000Y-100838000D02*
X179070000Y-97028000D01*
X179070000Y-97028000D02*
X180340000Y-97028000D01*
X183642000Y-104902000D02*
X183388000Y-104648000D01*
X183388000Y-104648000D02*
X179832000Y-104648000D01*
X180340000Y-109760000D02*
X183388000Y-109760000D01*
X177292000Y-109760000D02*
X180340000Y-109760000D01*
X173736000Y-109760000D02*
X177292000Y-109760000D01*
X170180000Y-109760000D02*
X173736000Y-109760000D01*
X167132000Y-109760000D02*
X170180000Y-109760000D01*
X180340000Y-104140000D02*
X180340000Y-97028000D01*
X179832000Y-104648000D02*
X180340000Y-104140000D01*
X180340000Y-97028000D02*
X180340000Y-98552000D01*
X180340000Y-98552000D02*
X178562000Y-100330000D01*
X178562000Y-100330000D02*
X168656000Y-100330000D01*
X159258000Y-97663000D02*
X159258000Y-94742000D01*
X159258000Y-94742000D02*
X159512000Y-94488000D01*
X159512000Y-94488000D02*
X167132000Y-94488000D01*
X167132000Y-94488000D02*
X167640000Y-94996000D01*
X167640000Y-94996000D02*
X167640000Y-99314000D01*
X167640000Y-99314000D02*
X168656000Y-100330000D01*
X180340000Y-97028000D02*
X180340000Y-96520000D01*
X180340000Y-96520000D02*
X177292000Y-93472000D01*
X177292000Y-93472000D02*
X177292000Y-92456000D01*
X177292000Y-92456000D02*
X174244000Y-89408000D01*
X166116000Y-87630000D02*
X172466000Y-87630000D01*
X172466000Y-87630000D02*
X174244000Y-89408000D01*
X192532000Y-110236000D02*
X192532000Y-111760000D01*
X191008000Y-108712000D02*
X192532000Y-110236000D01*
X161798000Y-98933000D02*
X163227000Y-98933000D01*
X163227000Y-98933000D02*
X165640000Y-96520000D01*
X160528000Y-124460000D02*
X160528000Y-119126000D01*
X163322000Y-100457000D02*
X161798000Y-98933000D01*
X163322000Y-114300000D02*
X163322000Y-100457000D01*
X165100000Y-116078000D02*
X163322000Y-114300000D01*
X165100000Y-117856000D02*
X165100000Y-116078000D01*
X164084000Y-118872000D02*
X165100000Y-117856000D01*
X160782000Y-118872000D02*
X164084000Y-118872000D01*
X160528000Y-119126000D02*
X160782000Y-118872000D01*
X160528000Y-116840000D02*
X160020000Y-116840000D01*
X160020000Y-116840000D02*
X158242000Y-118618000D01*
X166116000Y-114776000D02*
X167132000Y-113760000D01*
X166116000Y-118364000D02*
X166116000Y-114776000D01*
X165100000Y-119380000D02*
X166116000Y-118364000D01*
X165100000Y-125222000D02*
X165100000Y-119380000D01*
X163830000Y-126492000D02*
X165100000Y-125222000D01*
X159258000Y-126492000D02*
X163830000Y-126492000D01*
X158242000Y-125476000D02*
X159258000Y-126492000D01*
X158242000Y-118618000D02*
X158242000Y-125476000D01*
X161798000Y-104013000D02*
X157099000Y-104013000D01*
X157734000Y-116840000D02*
X160528000Y-116840000D01*
X156718000Y-115824000D02*
X157734000Y-116840000D01*
X156718000Y-104394000D02*
X156718000Y-115824000D01*
X157099000Y-104013000D02*
X156718000Y-104394000D01*
X163068000Y-116840000D02*
X162052000Y-117856000D01*
X170180000Y-112522000D02*
X170180000Y-113760000D01*
X169418000Y-111760000D02*
X170180000Y-112522000D01*
X166370000Y-111760000D02*
X169418000Y-111760000D01*
X165608000Y-112522000D02*
X166370000Y-111760000D01*
X165608000Y-118110000D02*
X165608000Y-112522000D01*
X164592000Y-119126000D02*
X165608000Y-118110000D01*
X164592000Y-124968000D02*
X164592000Y-119126000D01*
X163576000Y-125984000D02*
X164592000Y-124968000D01*
X159512000Y-125984000D02*
X163576000Y-125984000D01*
X159004000Y-125476000D02*
X159512000Y-125984000D01*
X159004000Y-119126000D02*
X159004000Y-125476000D01*
X160020000Y-118110000D02*
X159004000Y-119126000D01*
X161798000Y-118110000D02*
X160020000Y-118110000D01*
X162052000Y-117856000D02*
X161798000Y-118110000D01*
X163068000Y-116840000D02*
X162814000Y-116840000D01*
X170180000Y-112776000D02*
X170180000Y-113760000D01*
X159258000Y-105283000D02*
X157861000Y-105283000D01*
X161798000Y-115570000D02*
X163068000Y-116840000D01*
X157480000Y-115570000D02*
X161798000Y-115570000D01*
X157168002Y-115258002D02*
X157480000Y-115570000D01*
X157168002Y-105975998D02*
X157168002Y-115258002D01*
X157861000Y-105283000D02*
X157168002Y-105975998D01*
X168656000Y-116840000D02*
X168656000Y-115316000D01*
X172466000Y-115316000D02*
X173736000Y-114046000D01*
X168656000Y-115316000D02*
X172466000Y-115316000D01*
X173736000Y-114046000D02*
X173736000Y-113760000D01*
X171196000Y-116840000D02*
X174498000Y-116840000D01*
X174498000Y-116840000D02*
X177292000Y-114046000D01*
X177292000Y-114046000D02*
X177292000Y-113760000D01*
X176784000Y-116840000D02*
X176784000Y-115824000D01*
X178530000Y-115570000D02*
X180340000Y-113760000D01*
X177038000Y-115570000D02*
X178530000Y-115570000D01*
X176784000Y-115824000D02*
X177038000Y-115570000D01*
X161798000Y-109093000D02*
X158369000Y-109093000D01*
X157734000Y-112268000D02*
X157988000Y-112522000D01*
X157734000Y-109728000D02*
X157734000Y-112268000D01*
X158369000Y-109093000D02*
X157734000Y-109728000D01*
X179324000Y-116840000D02*
X182626000Y-116840000D01*
X183388000Y-116078000D02*
X183388000Y-113760000D01*
X182626000Y-116840000D02*
X183388000Y-116078000D01*
X169640000Y-96520000D02*
X173736000Y-96520000D01*
X173736000Y-96520000D02*
X174244000Y-97028000D01*
X180340000Y-89408000D02*
X180340000Y-86360000D01*
X197104000Y-86360000D02*
X197104000Y-94180000D01*
X180340000Y-86360000D02*
X197104000Y-86360000D01*
X175768000Y-82804000D02*
X175768000Y-83058000D01*
X175768000Y-83058000D02*
X173736000Y-85090000D01*
X173736000Y-85090000D02*
X155702000Y-85090000D01*
X155702000Y-85090000D02*
X154686000Y-86106000D01*
X154686000Y-86106000D02*
X154686000Y-86614000D01*
X152908000Y-131064000D02*
X152908000Y-128778000D01*
X148844000Y-107823000D02*
X150114000Y-107823000D01*
X148529247Y-108144527D02*
X148844000Y-107823000D01*
X148590000Y-125984000D02*
X148529247Y-108144527D01*
X150876000Y-128270000D02*
X148590000Y-125984000D01*
X152400000Y-128270000D02*
X150876000Y-128270000D01*
X152908000Y-128778000D02*
X152400000Y-128270000D01*
X152654000Y-106553000D02*
X153035000Y-106553000D01*
X153035000Y-106553000D02*
X154051000Y-107950000D01*
X153670000Y-128270000D02*
X155448000Y-130048000D01*
X153670000Y-121158000D02*
X153670000Y-128270000D01*
X154051000Y-120396000D02*
X153670000Y-121158000D01*
X154051000Y-107950000D02*
X154051000Y-120396000D01*
X155448000Y-130048000D02*
X155448000Y-131064000D01*
X152527000Y-106426000D02*
X152654000Y-106553000D01*
X155448000Y-131064000D02*
X155448000Y-131572000D01*
X150114000Y-105283000D02*
X148591380Y-105268180D01*
X147828000Y-125984000D02*
X149352000Y-127762000D01*
X147828000Y-105918000D02*
X147828000Y-125984000D01*
X148591380Y-105268180D02*
X147828000Y-105918000D01*
X154686000Y-106299000D02*
X152654000Y-104013000D01*
X154686000Y-120523000D02*
X154686000Y-106299000D01*
X154432000Y-122682000D02*
X154686000Y-120523000D01*
X150114000Y-102743000D02*
X148717000Y-102743000D01*
X148082000Y-127254000D02*
X148082000Y-128016000D01*
X147320000Y-126492000D02*
X148082000Y-127254000D01*
X147320000Y-104140000D02*
X147320000Y-126492000D01*
X148717000Y-102743000D02*
X147320000Y-104140000D01*
X165608000Y-131064000D02*
X165608000Y-129286000D01*
X153670000Y-101473000D02*
X152654000Y-101473000D01*
X155321000Y-103124000D02*
X153670000Y-101473000D01*
X155321000Y-123063000D02*
X155321000Y-103124000D01*
X154813000Y-123571000D02*
X155321000Y-123063000D01*
X154813000Y-128016000D02*
X154813000Y-123571000D01*
X155829000Y-129032000D02*
X154813000Y-128016000D01*
X165354000Y-129032000D02*
X155829000Y-129032000D01*
X165608000Y-129286000D02*
X165354000Y-129032000D01*
X165608000Y-131064000D02*
X165608000Y-129794000D01*
X169672000Y-131064000D02*
X169164000Y-131064000D01*
X169164000Y-131064000D02*
X167386000Y-132842000D01*
X148082000Y-100203000D02*
X150114000Y-100203000D01*
X146685000Y-101600000D02*
X148082000Y-100203000D01*
X146558000Y-131191000D02*
X146685000Y-101600000D01*
X146558000Y-131953000D02*
X146558000Y-131191000D01*
X147193000Y-132842000D02*
X146558000Y-131953000D01*
X167386000Y-132842000D02*
X147193000Y-132842000D01*
D24*
G36*
X199009000Y-113157000D02*
X192584606Y-113157000D01*
X192113803Y-112686197D01*
X192071789Y-112658334D01*
X192024000Y-112649000D01*
X189028606Y-112649000D01*
X188087000Y-111707394D01*
X188087000Y-105208606D01*
X189028606Y-104267000D01*
X189992000Y-104267000D01*
X190041410Y-104256994D01*
X190081803Y-104229803D01*
X191605803Y-102705803D01*
X191633666Y-102663789D01*
X191643000Y-102616000D01*
X191643000Y-100203000D01*
X199009000Y-100203000D01*
X199009000Y-113157000D01*
X199009000Y-113157000D01*
G37*
X199009000Y-113157000D02*
X192584606Y-113157000D01*
X192113803Y-112686197D01*
X192071789Y-112658334D01*
X192024000Y-112649000D01*
X189028606Y-112649000D01*
X188087000Y-111707394D01*
X188087000Y-105208606D01*
X189028606Y-104267000D01*
X189992000Y-104267000D01*
X190041410Y-104256994D01*
X190081803Y-104229803D01*
X191605803Y-102705803D01*
X191633666Y-102663789D01*
X191643000Y-102616000D01*
X191643000Y-100203000D01*
X199009000Y-100203000D01*
X199009000Y-113157000D01*
G36*
X177546000Y-86562000D02*
X179580000Y-86562000D01*
X179580000Y-87960560D01*
X179540000Y-87960560D01*
X179304683Y-88004838D01*
X179088559Y-88143910D01*
X178943569Y-88356110D01*
X178892560Y-88608000D01*
X178892560Y-90208000D01*
X178936838Y-90443317D01*
X179075910Y-90659441D01*
X179288110Y-90804431D01*
X179540000Y-90855440D01*
X181140000Y-90855440D01*
X181375317Y-90811162D01*
X181591441Y-90672090D01*
X181736431Y-90459890D01*
X181787440Y-90208000D01*
X181787440Y-88608000D01*
X181743162Y-88372683D01*
X181604090Y-88156559D01*
X181391890Y-88011569D01*
X181140000Y-87960560D01*
X181100000Y-87960560D01*
X181100000Y-87120000D01*
X196344000Y-87120000D01*
X196344000Y-91913452D01*
X195754771Y-92156916D01*
X195083274Y-92827242D01*
X194719415Y-93703513D01*
X194718587Y-94652325D01*
X195080916Y-95529229D01*
X195751242Y-96200726D01*
X196627513Y-96564585D01*
X197576325Y-96565413D01*
X198453229Y-96203084D01*
X199124726Y-95532758D01*
X199488585Y-94656487D01*
X199489413Y-93707675D01*
X199127084Y-92830771D01*
X198456758Y-92159274D01*
X197864000Y-91913140D01*
X197864000Y-86562000D01*
X205538000Y-86562000D01*
X205538000Y-127306000D01*
X192151000Y-127306000D01*
X192151000Y-119652325D01*
X194718587Y-119652325D01*
X195080916Y-120529229D01*
X195751242Y-121200726D01*
X196627513Y-121564585D01*
X197576325Y-121565413D01*
X198453229Y-121203084D01*
X199124726Y-120532758D01*
X199488585Y-119656487D01*
X199489413Y-118707675D01*
X199127084Y-117830771D01*
X198981734Y-117685167D01*
X199664838Y-117685167D01*
X199806883Y-118028943D01*
X200069673Y-118292192D01*
X200413201Y-118434838D01*
X200785167Y-118435162D01*
X201128943Y-118293117D01*
X201392192Y-118030327D01*
X201534838Y-117686799D01*
X201535162Y-117314833D01*
X201393117Y-116971057D01*
X201130327Y-116707808D01*
X200786799Y-116565162D01*
X200414833Y-116564838D01*
X200071057Y-116706883D01*
X199807808Y-116969673D01*
X199665162Y-117313201D01*
X199664838Y-117685167D01*
X198981734Y-117685167D01*
X198456758Y-117159274D01*
X197580487Y-116795415D01*
X196631675Y-116794587D01*
X195754771Y-117156916D01*
X195083274Y-117827242D01*
X194719415Y-118703513D01*
X194718587Y-119652325D01*
X192151000Y-119652325D01*
X192151000Y-113919000D01*
X199644000Y-113919000D01*
X199693410Y-113908994D01*
X199735035Y-113880553D01*
X199762315Y-113838159D01*
X199771000Y-113792000D01*
X199771000Y-99568000D01*
X199760994Y-99518590D01*
X199732553Y-99476965D01*
X199690159Y-99449685D01*
X199644000Y-99441000D01*
X191008000Y-99441000D01*
X190958590Y-99451006D01*
X190916965Y-99479447D01*
X190889685Y-99521841D01*
X190881000Y-99568000D01*
X190881000Y-102055394D01*
X189431394Y-103505000D01*
X187452000Y-103505000D01*
X187402590Y-103515006D01*
X187360965Y-103543447D01*
X187333685Y-103585841D01*
X187325000Y-103632000D01*
X187325000Y-112268000D01*
X187335006Y-112317410D01*
X187362197Y-112357803D01*
X188378197Y-113373803D01*
X188420211Y-113401666D01*
X188468000Y-113411000D01*
X191389000Y-113411000D01*
X191389000Y-127306000D01*
X156920000Y-127306000D01*
X156920000Y-121920000D01*
X156865954Y-121648295D01*
X156712046Y-121417954D01*
X156591000Y-121337074D01*
X156591000Y-120724926D01*
X156712046Y-120644046D01*
X156865954Y-120413705D01*
X156920000Y-120142000D01*
X156920000Y-117100802D01*
X157196599Y-117377401D01*
X157443161Y-117542148D01*
X157734000Y-117600000D01*
X158185198Y-117600000D01*
X157704599Y-118080599D01*
X157539852Y-118327161D01*
X157482000Y-118618000D01*
X157482000Y-125476000D01*
X157539852Y-125766839D01*
X157704599Y-126013401D01*
X158720599Y-127029401D01*
X158967161Y-127194148D01*
X159258000Y-127252000D01*
X163830000Y-127252000D01*
X164120839Y-127194148D01*
X164367401Y-127029401D01*
X165637401Y-125759401D01*
X165802148Y-125512840D01*
X165860000Y-125222000D01*
X165860000Y-124431887D01*
X167221000Y-124431887D01*
X167221000Y-124488113D01*
X167330233Y-125037264D01*
X167641302Y-125502811D01*
X168106849Y-125813880D01*
X168656000Y-125923113D01*
X169205151Y-125813880D01*
X169670698Y-125502811D01*
X169926000Y-125120725D01*
X170181302Y-125502811D01*
X170646849Y-125813880D01*
X171196000Y-125923113D01*
X171745151Y-125813880D01*
X172210698Y-125502811D01*
X172521767Y-125037264D01*
X172631000Y-124488113D01*
X172631000Y-124431887D01*
X175349000Y-124431887D01*
X175349000Y-124488113D01*
X175458233Y-125037264D01*
X175769302Y-125502811D01*
X176234849Y-125813880D01*
X176784000Y-125923113D01*
X177333151Y-125813880D01*
X177798698Y-125502811D01*
X178054000Y-125120725D01*
X178309302Y-125502811D01*
X178774849Y-125813880D01*
X179324000Y-125923113D01*
X179873151Y-125813880D01*
X180338698Y-125502811D01*
X180649767Y-125037264D01*
X180759000Y-124488113D01*
X180759000Y-124431887D01*
X180649767Y-123882736D01*
X180338698Y-123417189D01*
X179873151Y-123106120D01*
X179324000Y-122996887D01*
X178774849Y-123106120D01*
X178309302Y-123417189D01*
X178054000Y-123799275D01*
X177798698Y-123417189D01*
X177333151Y-123106120D01*
X176784000Y-122996887D01*
X176234849Y-123106120D01*
X175769302Y-123417189D01*
X175458233Y-123882736D01*
X175349000Y-124431887D01*
X172631000Y-124431887D01*
X172521767Y-123882736D01*
X172210698Y-123417189D01*
X171745151Y-123106120D01*
X171196000Y-122996887D01*
X170646849Y-123106120D01*
X170181302Y-123417189D01*
X169926000Y-123799275D01*
X169670698Y-123417189D01*
X169205151Y-123106120D01*
X168656000Y-122996887D01*
X168106849Y-123106120D01*
X167641302Y-123417189D01*
X167330233Y-123882736D01*
X167221000Y-124431887D01*
X165860000Y-124431887D01*
X165860000Y-119694802D01*
X166653401Y-118901401D01*
X166818148Y-118654839D01*
X166876000Y-118364000D01*
X166876000Y-115407440D01*
X167896000Y-115407440D01*
X167896000Y-115627005D01*
X167641302Y-115797189D01*
X167330233Y-116262736D01*
X167221000Y-116811887D01*
X167221000Y-116868113D01*
X167330233Y-117417264D01*
X167641302Y-117882811D01*
X168106849Y-118193880D01*
X168656000Y-118303113D01*
X169205151Y-118193880D01*
X169670698Y-117882811D01*
X169767101Y-117738535D01*
X169792838Y-117875317D01*
X169931910Y-118091441D01*
X170144110Y-118236431D01*
X170396000Y-118287440D01*
X171996000Y-118287440D01*
X172231317Y-118243162D01*
X172447441Y-118104090D01*
X172592431Y-117891890D01*
X172643440Y-117640000D01*
X172643440Y-117600000D01*
X174498000Y-117600000D01*
X174788839Y-117542148D01*
X175035401Y-117377401D01*
X175381467Y-117031335D01*
X175458233Y-117417264D01*
X175769302Y-117882811D01*
X176234849Y-118193880D01*
X176784000Y-118303113D01*
X177333151Y-118193880D01*
X177798698Y-117882811D01*
X177895101Y-117738535D01*
X177920838Y-117875317D01*
X178059910Y-118091441D01*
X178272110Y-118236431D01*
X178524000Y-118287440D01*
X180124000Y-118287440D01*
X180359317Y-118243162D01*
X180575441Y-118104090D01*
X180720431Y-117891890D01*
X180771440Y-117640000D01*
X180771440Y-117600000D01*
X182626000Y-117600000D01*
X182916839Y-117542148D01*
X183163401Y-117377401D01*
X183925401Y-116615401D01*
X184090148Y-116368839D01*
X184148000Y-116078000D01*
X184148000Y-115407440D01*
X184238000Y-115407440D01*
X184473317Y-115363162D01*
X184689441Y-115224090D01*
X184834431Y-115011890D01*
X184885440Y-114760000D01*
X184885440Y-112760000D01*
X184841162Y-112524683D01*
X184702090Y-112308559D01*
X184489890Y-112163569D01*
X184238000Y-112112560D01*
X182538000Y-112112560D01*
X182302683Y-112156838D01*
X182086559Y-112295910D01*
X181941569Y-112508110D01*
X181890560Y-112760000D01*
X181890560Y-114760000D01*
X181934838Y-114995317D01*
X182073910Y-115211441D01*
X182286110Y-115356431D01*
X182538000Y-115407440D01*
X182628000Y-115407440D01*
X182628000Y-115763198D01*
X182311198Y-116080000D01*
X180771440Y-116080000D01*
X180771440Y-116040000D01*
X180727162Y-115804683D01*
X180588090Y-115588559D01*
X180375890Y-115443569D01*
X180197480Y-115407440D01*
X181190000Y-115407440D01*
X181425317Y-115363162D01*
X181641441Y-115224090D01*
X181786431Y-115011890D01*
X181837440Y-114760000D01*
X181837440Y-112760000D01*
X181793162Y-112524683D01*
X181654090Y-112308559D01*
X181441890Y-112163569D01*
X181190000Y-112112560D01*
X179490000Y-112112560D01*
X179254683Y-112156838D01*
X179038559Y-112295910D01*
X178893569Y-112508110D01*
X178842560Y-112760000D01*
X178842560Y-114182638D01*
X178789440Y-114235758D01*
X178789440Y-112760000D01*
X178745162Y-112524683D01*
X178606090Y-112308559D01*
X178393890Y-112163569D01*
X178142000Y-112112560D01*
X176442000Y-112112560D01*
X176206683Y-112156838D01*
X175990559Y-112295910D01*
X175845569Y-112508110D01*
X175794560Y-112760000D01*
X175794560Y-114468638D01*
X174183198Y-116080000D01*
X172643440Y-116080000D01*
X172643440Y-116040705D01*
X172756839Y-116018148D01*
X173003401Y-115853401D01*
X173449362Y-115407440D01*
X174586000Y-115407440D01*
X174821317Y-115363162D01*
X175037441Y-115224090D01*
X175182431Y-115011890D01*
X175233440Y-114760000D01*
X175233440Y-112760000D01*
X175189162Y-112524683D01*
X175050090Y-112308559D01*
X174837890Y-112163569D01*
X174586000Y-112112560D01*
X172886000Y-112112560D01*
X172650683Y-112156838D01*
X172434559Y-112295910D01*
X172289569Y-112508110D01*
X172238560Y-112760000D01*
X172238560Y-114468638D01*
X172151198Y-114556000D01*
X171677440Y-114556000D01*
X171677440Y-112760000D01*
X171633162Y-112524683D01*
X171494090Y-112308559D01*
X171281890Y-112163569D01*
X171030000Y-112112560D01*
X170802902Y-112112560D01*
X170717401Y-111984599D01*
X170011026Y-111278224D01*
X170053000Y-111236250D01*
X170053000Y-109887000D01*
X170307000Y-109887000D01*
X170307000Y-111236250D01*
X170465750Y-111395000D01*
X171156310Y-111395000D01*
X171389699Y-111298327D01*
X171568327Y-111119698D01*
X171665000Y-110886309D01*
X171665000Y-110045750D01*
X172251000Y-110045750D01*
X172251000Y-110886309D01*
X172347673Y-111119698D01*
X172526301Y-111298327D01*
X172759690Y-111395000D01*
X173450250Y-111395000D01*
X173609000Y-111236250D01*
X173609000Y-109887000D01*
X173863000Y-109887000D01*
X173863000Y-111236250D01*
X174021750Y-111395000D01*
X174712310Y-111395000D01*
X174945699Y-111298327D01*
X175124327Y-111119698D01*
X175221000Y-110886309D01*
X175221000Y-110045750D01*
X175807000Y-110045750D01*
X175807000Y-110886309D01*
X175903673Y-111119698D01*
X176082301Y-111298327D01*
X176315690Y-111395000D01*
X177006250Y-111395000D01*
X177165000Y-111236250D01*
X177165000Y-109887000D01*
X177419000Y-109887000D01*
X177419000Y-111236250D01*
X177577750Y-111395000D01*
X178268310Y-111395000D01*
X178501699Y-111298327D01*
X178680327Y-111119698D01*
X178777000Y-110886309D01*
X178777000Y-110045750D01*
X178855000Y-110045750D01*
X178855000Y-110886309D01*
X178951673Y-111119698D01*
X179130301Y-111298327D01*
X179363690Y-111395000D01*
X180054250Y-111395000D01*
X180213000Y-111236250D01*
X180213000Y-109887000D01*
X180467000Y-109887000D01*
X180467000Y-111236250D01*
X180625750Y-111395000D01*
X181316310Y-111395000D01*
X181549699Y-111298327D01*
X181728327Y-111119698D01*
X181825000Y-110886309D01*
X181825000Y-110045750D01*
X181903000Y-110045750D01*
X181903000Y-110886309D01*
X181999673Y-111119698D01*
X182178301Y-111298327D01*
X182411690Y-111395000D01*
X183102250Y-111395000D01*
X183261000Y-111236250D01*
X183261000Y-109887000D01*
X183515000Y-109887000D01*
X183515000Y-111236250D01*
X183673750Y-111395000D01*
X184364310Y-111395000D01*
X184597699Y-111298327D01*
X184776327Y-111119698D01*
X184873000Y-110886309D01*
X184873000Y-110045750D01*
X184714250Y-109887000D01*
X183515000Y-109887000D01*
X183261000Y-109887000D01*
X182061750Y-109887000D01*
X181903000Y-110045750D01*
X181825000Y-110045750D01*
X181666250Y-109887000D01*
X180467000Y-109887000D01*
X180213000Y-109887000D01*
X179013750Y-109887000D01*
X178855000Y-110045750D01*
X178777000Y-110045750D01*
X178618250Y-109887000D01*
X177419000Y-109887000D01*
X177165000Y-109887000D01*
X175965750Y-109887000D01*
X175807000Y-110045750D01*
X175221000Y-110045750D01*
X175062250Y-109887000D01*
X173863000Y-109887000D01*
X173609000Y-109887000D01*
X172409750Y-109887000D01*
X172251000Y-110045750D01*
X171665000Y-110045750D01*
X171506250Y-109887000D01*
X170307000Y-109887000D01*
X170053000Y-109887000D01*
X168853750Y-109887000D01*
X168695000Y-110045750D01*
X168695000Y-110886309D01*
X168742092Y-111000000D01*
X168569908Y-111000000D01*
X168617000Y-110886309D01*
X168617000Y-110045750D01*
X168458250Y-109887000D01*
X167259000Y-109887000D01*
X167259000Y-109907000D01*
X167005000Y-109907000D01*
X167005000Y-109887000D01*
X165805750Y-109887000D01*
X165647000Y-110045750D01*
X165647000Y-110886309D01*
X165743673Y-111119698D01*
X165840976Y-111217002D01*
X165832599Y-111222599D01*
X165070599Y-111984599D01*
X164905852Y-112231161D01*
X164848000Y-112522000D01*
X164848000Y-114751198D01*
X164082000Y-113985198D01*
X164082000Y-108633691D01*
X165647000Y-108633691D01*
X165647000Y-109474250D01*
X165805750Y-109633000D01*
X167005000Y-109633000D01*
X167005000Y-108283750D01*
X167259000Y-108283750D01*
X167259000Y-109633000D01*
X168458250Y-109633000D01*
X168617000Y-109474250D01*
X168617000Y-108633691D01*
X168695000Y-108633691D01*
X168695000Y-109474250D01*
X168853750Y-109633000D01*
X170053000Y-109633000D01*
X170053000Y-108283750D01*
X170307000Y-108283750D01*
X170307000Y-109633000D01*
X171506250Y-109633000D01*
X171665000Y-109474250D01*
X171665000Y-108633691D01*
X172251000Y-108633691D01*
X172251000Y-109474250D01*
X172409750Y-109633000D01*
X173609000Y-109633000D01*
X173609000Y-108283750D01*
X173863000Y-108283750D01*
X173863000Y-109633000D01*
X175062250Y-109633000D01*
X175221000Y-109474250D01*
X175221000Y-108633691D01*
X175807000Y-108633691D01*
X175807000Y-109474250D01*
X175965750Y-109633000D01*
X177165000Y-109633000D01*
X177165000Y-108283750D01*
X177419000Y-108283750D01*
X177419000Y-109633000D01*
X178618250Y-109633000D01*
X178777000Y-109474250D01*
X178777000Y-108633691D01*
X178855000Y-108633691D01*
X178855000Y-109474250D01*
X179013750Y-109633000D01*
X180213000Y-109633000D01*
X180213000Y-108283750D01*
X180467000Y-108283750D01*
X180467000Y-109633000D01*
X181666250Y-109633000D01*
X181825000Y-109474250D01*
X181825000Y-108633691D01*
X181903000Y-108633691D01*
X181903000Y-109474250D01*
X182061750Y-109633000D01*
X183261000Y-109633000D01*
X183261000Y-108283750D01*
X183515000Y-108283750D01*
X183515000Y-109633000D01*
X184714250Y-109633000D01*
X184873000Y-109474250D01*
X184873000Y-108633691D01*
X184776327Y-108400302D01*
X184597699Y-108221673D01*
X184364310Y-108125000D01*
X183673750Y-108125000D01*
X183515000Y-108283750D01*
X183261000Y-108283750D01*
X183102250Y-108125000D01*
X182411690Y-108125000D01*
X182178301Y-108221673D01*
X181999673Y-108400302D01*
X181903000Y-108633691D01*
X181825000Y-108633691D01*
X181728327Y-108400302D01*
X181549699Y-108221673D01*
X181316310Y-108125000D01*
X180625750Y-108125000D01*
X180467000Y-108283750D01*
X180213000Y-108283750D01*
X180054250Y-108125000D01*
X179363690Y-108125000D01*
X179130301Y-108221673D01*
X178951673Y-108400302D01*
X178855000Y-108633691D01*
X178777000Y-108633691D01*
X178680327Y-108400302D01*
X178501699Y-108221673D01*
X178268310Y-108125000D01*
X177577750Y-108125000D01*
X177419000Y-108283750D01*
X177165000Y-108283750D01*
X177006250Y-108125000D01*
X176315690Y-108125000D01*
X176082301Y-108221673D01*
X175903673Y-108400302D01*
X175807000Y-108633691D01*
X175221000Y-108633691D01*
X175124327Y-108400302D01*
X174945699Y-108221673D01*
X174712310Y-108125000D01*
X174021750Y-108125000D01*
X173863000Y-108283750D01*
X173609000Y-108283750D01*
X173450250Y-108125000D01*
X172759690Y-108125000D01*
X172526301Y-108221673D01*
X172347673Y-108400302D01*
X172251000Y-108633691D01*
X171665000Y-108633691D01*
X171568327Y-108400302D01*
X171389699Y-108221673D01*
X171156310Y-108125000D01*
X170465750Y-108125000D01*
X170307000Y-108283750D01*
X170053000Y-108283750D01*
X169894250Y-108125000D01*
X169203690Y-108125000D01*
X168970301Y-108221673D01*
X168791673Y-108400302D01*
X168695000Y-108633691D01*
X168617000Y-108633691D01*
X168520327Y-108400302D01*
X168341699Y-108221673D01*
X168108310Y-108125000D01*
X167417750Y-108125000D01*
X167259000Y-108283750D01*
X167005000Y-108283750D01*
X166846250Y-108125000D01*
X166155690Y-108125000D01*
X165922301Y-108221673D01*
X165743673Y-108400302D01*
X165647000Y-108633691D01*
X164082000Y-108633691D01*
X164082000Y-100457000D01*
X164024148Y-100166161D01*
X164024148Y-100166160D01*
X163859401Y-99919599D01*
X163552075Y-99612273D01*
X163764401Y-99470401D01*
X165217362Y-98017440D01*
X166640000Y-98017440D01*
X166875317Y-97973162D01*
X167091441Y-97834090D01*
X167236431Y-97621890D01*
X167287440Y-97370000D01*
X167287440Y-95670000D01*
X167992560Y-95670000D01*
X167992560Y-97370000D01*
X168036838Y-97605317D01*
X168175910Y-97821441D01*
X168388110Y-97966431D01*
X168640000Y-98017440D01*
X170640000Y-98017440D01*
X170875317Y-97973162D01*
X171091441Y-97834090D01*
X171236431Y-97621890D01*
X171287440Y-97370000D01*
X171287440Y-97280000D01*
X172853534Y-97280000D01*
X172918233Y-97605264D01*
X173229302Y-98070811D01*
X173694849Y-98381880D01*
X174064951Y-98455498D01*
X174064838Y-98585167D01*
X174206883Y-98928943D01*
X174469673Y-99192192D01*
X174813201Y-99334838D01*
X175185167Y-99335162D01*
X175528943Y-99193117D01*
X175792192Y-98930327D01*
X175934838Y-98586799D01*
X175935162Y-98214833D01*
X175793117Y-97871057D01*
X175552935Y-97630455D01*
X175569767Y-97605264D01*
X175615163Y-97377041D01*
X178948086Y-97377041D01*
X179187611Y-97883134D01*
X179602577Y-98259041D01*
X179990961Y-98419904D01*
X180213000Y-98297915D01*
X180213000Y-97155000D01*
X180467000Y-97155000D01*
X180467000Y-98297915D01*
X180689039Y-98419904D01*
X181077423Y-98259041D01*
X181492389Y-97883134D01*
X181731914Y-97377041D01*
X181610629Y-97155000D01*
X180467000Y-97155000D01*
X180213000Y-97155000D01*
X179069371Y-97155000D01*
X178948086Y-97377041D01*
X175615163Y-97377041D01*
X175679000Y-97056113D01*
X175679000Y-96999887D01*
X175615164Y-96678959D01*
X178948086Y-96678959D01*
X179069371Y-96901000D01*
X180213000Y-96901000D01*
X180213000Y-95758085D01*
X180467000Y-95758085D01*
X180467000Y-96901000D01*
X181610629Y-96901000D01*
X181731914Y-96678959D01*
X181492389Y-96172866D01*
X181077423Y-95796959D01*
X180689039Y-95636096D01*
X180467000Y-95758085D01*
X180213000Y-95758085D01*
X179990961Y-95636096D01*
X179602577Y-95796959D01*
X179187611Y-96172866D01*
X178948086Y-96678959D01*
X175615164Y-96678959D01*
X175569767Y-96450736D01*
X175258698Y-95985189D01*
X174793151Y-95674120D01*
X174244000Y-95564887D01*
X173694849Y-95674120D01*
X173566321Y-95760000D01*
X171287440Y-95760000D01*
X171287440Y-95670000D01*
X171243162Y-95434683D01*
X171104090Y-95218559D01*
X170891890Y-95073569D01*
X170640000Y-95022560D01*
X168640000Y-95022560D01*
X168404683Y-95066838D01*
X168188559Y-95205910D01*
X168043569Y-95418110D01*
X167992560Y-95670000D01*
X167287440Y-95670000D01*
X167243162Y-95434683D01*
X167104090Y-95218559D01*
X166891890Y-95073569D01*
X166640000Y-95022560D01*
X164640000Y-95022560D01*
X164404683Y-95066838D01*
X164188559Y-95205910D01*
X164043569Y-95418110D01*
X163992560Y-95670000D01*
X163992560Y-97092638D01*
X163056651Y-98028547D01*
X162702646Y-97792009D01*
X162230032Y-97698000D01*
X161921224Y-97698000D01*
X161952943Y-97684894D01*
X162413278Y-97225363D01*
X162662716Y-96624648D01*
X162663284Y-95974205D01*
X162414894Y-95373057D01*
X161955363Y-94912722D01*
X161354648Y-94663284D01*
X160704205Y-94662716D01*
X160103057Y-94911106D01*
X159642722Y-95370637D01*
X159393284Y-95971352D01*
X159392885Y-96428000D01*
X159385000Y-96428000D01*
X159385000Y-97536000D01*
X159405000Y-97536000D01*
X159405000Y-97790000D01*
X159385000Y-97790000D01*
X159385000Y-98898000D01*
X159785000Y-98898000D01*
X160160967Y-98782184D01*
X160130968Y-98933000D01*
X160156382Y-99060763D01*
X159690032Y-98968000D01*
X158825968Y-98968000D01*
X158353354Y-99062009D01*
X157952691Y-99329723D01*
X157684977Y-99730386D01*
X157590968Y-100203000D01*
X157684977Y-100675614D01*
X157952691Y-101076277D01*
X158353354Y-101343991D01*
X158825968Y-101438000D01*
X159690032Y-101438000D01*
X160156382Y-101345237D01*
X160130968Y-101473000D01*
X160156382Y-101600763D01*
X159690032Y-101508000D01*
X158825968Y-101508000D01*
X158353354Y-101602009D01*
X157952691Y-101869723D01*
X157684977Y-102270386D01*
X157590968Y-102743000D01*
X157684977Y-103215614D01*
X157709957Y-103253000D01*
X157099000Y-103253000D01*
X156920000Y-103288606D01*
X156920000Y-97980609D01*
X157664538Y-97980609D01*
X157668408Y-98018281D01*
X157894920Y-98446474D01*
X158268053Y-98755390D01*
X158731000Y-98898000D01*
X159131000Y-98898000D01*
X159131000Y-97790000D01*
X157789269Y-97790000D01*
X157664538Y-97980609D01*
X156920000Y-97980609D01*
X156920000Y-97345391D01*
X157664538Y-97345391D01*
X157789269Y-97536000D01*
X159131000Y-97536000D01*
X159131000Y-96428000D01*
X158731000Y-96428000D01*
X158268053Y-96570610D01*
X157894920Y-96879526D01*
X157668408Y-97307719D01*
X157664538Y-97345391D01*
X156920000Y-97345391D01*
X156920000Y-95250000D01*
X156865954Y-94978295D01*
X156712046Y-94747954D01*
X156591000Y-94667074D01*
X156591000Y-93546926D01*
X156712046Y-93466046D01*
X156865954Y-93235705D01*
X156920000Y-92964000D01*
X156920000Y-92700317D01*
X157276976Y-93057916D01*
X157758282Y-93257772D01*
X158279432Y-93258226D01*
X158761086Y-93059211D01*
X158828077Y-92992337D01*
X158880910Y-93074441D01*
X159093110Y-93219431D01*
X159345000Y-93270440D01*
X160695000Y-93270440D01*
X160930317Y-93226162D01*
X161146441Y-93087090D01*
X161291431Y-92874890D01*
X161342440Y-92623000D01*
X161342440Y-91273000D01*
X161298162Y-91037683D01*
X161159090Y-90821559D01*
X160946890Y-90676569D01*
X160695000Y-90625560D01*
X159345000Y-90625560D01*
X159109683Y-90669838D01*
X158893559Y-90808910D01*
X158828684Y-90903858D01*
X158763024Y-90838084D01*
X158281718Y-90638228D01*
X157760568Y-90637774D01*
X157278914Y-90836789D01*
X156920000Y-91195077D01*
X156920000Y-89143970D01*
X164781635Y-89143970D01*
X164941418Y-89462739D01*
X165732187Y-89772723D01*
X166581387Y-89756497D01*
X166732871Y-89693750D01*
X172809000Y-89693750D01*
X172809000Y-90334309D01*
X172905673Y-90567698D01*
X173084301Y-90746327D01*
X173317690Y-90843000D01*
X173958250Y-90843000D01*
X174117000Y-90684250D01*
X174117000Y-89535000D01*
X174371000Y-89535000D01*
X174371000Y-90684250D01*
X174529750Y-90843000D01*
X175170310Y-90843000D01*
X175403699Y-90746327D01*
X175582327Y-90567698D01*
X175679000Y-90334309D01*
X175679000Y-89693750D01*
X175520250Y-89535000D01*
X174371000Y-89535000D01*
X174117000Y-89535000D01*
X172967750Y-89535000D01*
X172809000Y-89693750D01*
X166732871Y-89693750D01*
X167290582Y-89462739D01*
X167450365Y-89143970D01*
X166116000Y-87809605D01*
X164781635Y-89143970D01*
X156920000Y-89143970D01*
X156920000Y-86562000D01*
X164241481Y-86562000D01*
X163973277Y-87246187D01*
X163989503Y-88095387D01*
X164283261Y-88804582D01*
X164602030Y-88964365D01*
X165936395Y-87630000D01*
X165922253Y-87615858D01*
X166101858Y-87436253D01*
X166116000Y-87450395D01*
X166130143Y-87436253D01*
X166309748Y-87615858D01*
X166295605Y-87630000D01*
X167629970Y-88964365D01*
X167948739Y-88804582D01*
X168075313Y-88481691D01*
X172809000Y-88481691D01*
X172809000Y-89122250D01*
X172967750Y-89281000D01*
X174117000Y-89281000D01*
X174117000Y-88131750D01*
X174371000Y-88131750D01*
X174371000Y-89281000D01*
X175520250Y-89281000D01*
X175679000Y-89122250D01*
X175679000Y-88481691D01*
X175582327Y-88248302D01*
X175403699Y-88069673D01*
X175170310Y-87973000D01*
X174529750Y-87973000D01*
X174371000Y-88131750D01*
X174117000Y-88131750D01*
X173958250Y-87973000D01*
X173317690Y-87973000D01*
X173084301Y-88069673D01*
X172905673Y-88248302D01*
X172809000Y-88481691D01*
X168075313Y-88481691D01*
X168258723Y-88013813D01*
X168242497Y-87164613D01*
X167992887Y-86562000D01*
X177038000Y-86562000D01*
X177292000Y-86511476D01*
X177546000Y-86562000D01*
X177546000Y-86562000D01*
G37*
X177546000Y-86562000D02*
X179580000Y-86562000D01*
X179580000Y-87960560D01*
X179540000Y-87960560D01*
X179304683Y-88004838D01*
X179088559Y-88143910D01*
X178943569Y-88356110D01*
X178892560Y-88608000D01*
X178892560Y-90208000D01*
X178936838Y-90443317D01*
X179075910Y-90659441D01*
X179288110Y-90804431D01*
X179540000Y-90855440D01*
X181140000Y-90855440D01*
X181375317Y-90811162D01*
X181591441Y-90672090D01*
X181736431Y-90459890D01*
X181787440Y-90208000D01*
X181787440Y-88608000D01*
X181743162Y-88372683D01*
X181604090Y-88156559D01*
X181391890Y-88011569D01*
X181140000Y-87960560D01*
X181100000Y-87960560D01*
X181100000Y-87120000D01*
X196344000Y-87120000D01*
X196344000Y-91913452D01*
X195754771Y-92156916D01*
X195083274Y-92827242D01*
X194719415Y-93703513D01*
X194718587Y-94652325D01*
X195080916Y-95529229D01*
X195751242Y-96200726D01*
X196627513Y-96564585D01*
X197576325Y-96565413D01*
X198453229Y-96203084D01*
X199124726Y-95532758D01*
X199488585Y-94656487D01*
X199489413Y-93707675D01*
X199127084Y-92830771D01*
X198456758Y-92159274D01*
X197864000Y-91913140D01*
X197864000Y-86562000D01*
X205538000Y-86562000D01*
X205538000Y-127306000D01*
X192151000Y-127306000D01*
X192151000Y-119652325D01*
X194718587Y-119652325D01*
X195080916Y-120529229D01*
X195751242Y-121200726D01*
X196627513Y-121564585D01*
X197576325Y-121565413D01*
X198453229Y-121203084D01*
X199124726Y-120532758D01*
X199488585Y-119656487D01*
X199489413Y-118707675D01*
X199127084Y-117830771D01*
X198981734Y-117685167D01*
X199664838Y-117685167D01*
X199806883Y-118028943D01*
X200069673Y-118292192D01*
X200413201Y-118434838D01*
X200785167Y-118435162D01*
X201128943Y-118293117D01*
X201392192Y-118030327D01*
X201534838Y-117686799D01*
X201535162Y-117314833D01*
X201393117Y-116971057D01*
X201130327Y-116707808D01*
X200786799Y-116565162D01*
X200414833Y-116564838D01*
X200071057Y-116706883D01*
X199807808Y-116969673D01*
X199665162Y-117313201D01*
X199664838Y-117685167D01*
X198981734Y-117685167D01*
X198456758Y-117159274D01*
X197580487Y-116795415D01*
X196631675Y-116794587D01*
X195754771Y-117156916D01*
X195083274Y-117827242D01*
X194719415Y-118703513D01*
X194718587Y-119652325D01*
X192151000Y-119652325D01*
X192151000Y-113919000D01*
X199644000Y-113919000D01*
X199693410Y-113908994D01*
X199735035Y-113880553D01*
X199762315Y-113838159D01*
X199771000Y-113792000D01*
X199771000Y-99568000D01*
X199760994Y-99518590D01*
X199732553Y-99476965D01*
X199690159Y-99449685D01*
X199644000Y-99441000D01*
X191008000Y-99441000D01*
X190958590Y-99451006D01*
X190916965Y-99479447D01*
X190889685Y-99521841D01*
X190881000Y-99568000D01*
X190881000Y-102055394D01*
X189431394Y-103505000D01*
X187452000Y-103505000D01*
X187402590Y-103515006D01*
X187360965Y-103543447D01*
X187333685Y-103585841D01*
X187325000Y-103632000D01*
X187325000Y-112268000D01*
X187335006Y-112317410D01*
X187362197Y-112357803D01*
X188378197Y-113373803D01*
X188420211Y-113401666D01*
X188468000Y-113411000D01*
X191389000Y-113411000D01*
X191389000Y-127306000D01*
X156920000Y-127306000D01*
X156920000Y-121920000D01*
X156865954Y-121648295D01*
X156712046Y-121417954D01*
X156591000Y-121337074D01*
X156591000Y-120724926D01*
X156712046Y-120644046D01*
X156865954Y-120413705D01*
X156920000Y-120142000D01*
X156920000Y-117100802D01*
X157196599Y-117377401D01*
X157443161Y-117542148D01*
X157734000Y-117600000D01*
X158185198Y-117600000D01*
X157704599Y-118080599D01*
X157539852Y-118327161D01*
X157482000Y-118618000D01*
X157482000Y-125476000D01*
X157539852Y-125766839D01*
X157704599Y-126013401D01*
X158720599Y-127029401D01*
X158967161Y-127194148D01*
X159258000Y-127252000D01*
X163830000Y-127252000D01*
X164120839Y-127194148D01*
X164367401Y-127029401D01*
X165637401Y-125759401D01*
X165802148Y-125512840D01*
X165860000Y-125222000D01*
X165860000Y-124431887D01*
X167221000Y-124431887D01*
X167221000Y-124488113D01*
X167330233Y-125037264D01*
X167641302Y-125502811D01*
X168106849Y-125813880D01*
X168656000Y-125923113D01*
X169205151Y-125813880D01*
X169670698Y-125502811D01*
X169926000Y-125120725D01*
X170181302Y-125502811D01*
X170646849Y-125813880D01*
X171196000Y-125923113D01*
X171745151Y-125813880D01*
X172210698Y-125502811D01*
X172521767Y-125037264D01*
X172631000Y-124488113D01*
X172631000Y-124431887D01*
X175349000Y-124431887D01*
X175349000Y-124488113D01*
X175458233Y-125037264D01*
X175769302Y-125502811D01*
X176234849Y-125813880D01*
X176784000Y-125923113D01*
X177333151Y-125813880D01*
X177798698Y-125502811D01*
X178054000Y-125120725D01*
X178309302Y-125502811D01*
X178774849Y-125813880D01*
X179324000Y-125923113D01*
X179873151Y-125813880D01*
X180338698Y-125502811D01*
X180649767Y-125037264D01*
X180759000Y-124488113D01*
X180759000Y-124431887D01*
X180649767Y-123882736D01*
X180338698Y-123417189D01*
X179873151Y-123106120D01*
X179324000Y-122996887D01*
X178774849Y-123106120D01*
X178309302Y-123417189D01*
X178054000Y-123799275D01*
X177798698Y-123417189D01*
X177333151Y-123106120D01*
X176784000Y-122996887D01*
X176234849Y-123106120D01*
X175769302Y-123417189D01*
X175458233Y-123882736D01*
X175349000Y-124431887D01*
X172631000Y-124431887D01*
X172521767Y-123882736D01*
X172210698Y-123417189D01*
X171745151Y-123106120D01*
X171196000Y-122996887D01*
X170646849Y-123106120D01*
X170181302Y-123417189D01*
X169926000Y-123799275D01*
X169670698Y-123417189D01*
X169205151Y-123106120D01*
X168656000Y-122996887D01*
X168106849Y-123106120D01*
X167641302Y-123417189D01*
X167330233Y-123882736D01*
X167221000Y-124431887D01*
X165860000Y-124431887D01*
X165860000Y-119694802D01*
X166653401Y-118901401D01*
X166818148Y-118654839D01*
X166876000Y-118364000D01*
X166876000Y-115407440D01*
X167896000Y-115407440D01*
X167896000Y-115627005D01*
X167641302Y-115797189D01*
X167330233Y-116262736D01*
X167221000Y-116811887D01*
X167221000Y-116868113D01*
X167330233Y-117417264D01*
X167641302Y-117882811D01*
X168106849Y-118193880D01*
X168656000Y-118303113D01*
X169205151Y-118193880D01*
X169670698Y-117882811D01*
X169767101Y-117738535D01*
X169792838Y-117875317D01*
X169931910Y-118091441D01*
X170144110Y-118236431D01*
X170396000Y-118287440D01*
X171996000Y-118287440D01*
X172231317Y-118243162D01*
X172447441Y-118104090D01*
X172592431Y-117891890D01*
X172643440Y-117640000D01*
X172643440Y-117600000D01*
X174498000Y-117600000D01*
X174788839Y-117542148D01*
X175035401Y-117377401D01*
X175381467Y-117031335D01*
X175458233Y-117417264D01*
X175769302Y-117882811D01*
X176234849Y-118193880D01*
X176784000Y-118303113D01*
X177333151Y-118193880D01*
X177798698Y-117882811D01*
X177895101Y-117738535D01*
X177920838Y-117875317D01*
X178059910Y-118091441D01*
X178272110Y-118236431D01*
X178524000Y-118287440D01*
X180124000Y-118287440D01*
X180359317Y-118243162D01*
X180575441Y-118104090D01*
X180720431Y-117891890D01*
X180771440Y-117640000D01*
X180771440Y-117600000D01*
X182626000Y-117600000D01*
X182916839Y-117542148D01*
X183163401Y-117377401D01*
X183925401Y-116615401D01*
X184090148Y-116368839D01*
X184148000Y-116078000D01*
X184148000Y-115407440D01*
X184238000Y-115407440D01*
X184473317Y-115363162D01*
X184689441Y-115224090D01*
X184834431Y-115011890D01*
X184885440Y-114760000D01*
X184885440Y-112760000D01*
X184841162Y-112524683D01*
X184702090Y-112308559D01*
X184489890Y-112163569D01*
X184238000Y-112112560D01*
X182538000Y-112112560D01*
X182302683Y-112156838D01*
X182086559Y-112295910D01*
X181941569Y-112508110D01*
X181890560Y-112760000D01*
X181890560Y-114760000D01*
X181934838Y-114995317D01*
X182073910Y-115211441D01*
X182286110Y-115356431D01*
X182538000Y-115407440D01*
X182628000Y-115407440D01*
X182628000Y-115763198D01*
X182311198Y-116080000D01*
X180771440Y-116080000D01*
X180771440Y-116040000D01*
X180727162Y-115804683D01*
X180588090Y-115588559D01*
X180375890Y-115443569D01*
X180197480Y-115407440D01*
X181190000Y-115407440D01*
X181425317Y-115363162D01*
X181641441Y-115224090D01*
X181786431Y-115011890D01*
X181837440Y-114760000D01*
X181837440Y-112760000D01*
X181793162Y-112524683D01*
X181654090Y-112308559D01*
X181441890Y-112163569D01*
X181190000Y-112112560D01*
X179490000Y-112112560D01*
X179254683Y-112156838D01*
X179038559Y-112295910D01*
X178893569Y-112508110D01*
X178842560Y-112760000D01*
X178842560Y-114182638D01*
X178789440Y-114235758D01*
X178789440Y-112760000D01*
X178745162Y-112524683D01*
X178606090Y-112308559D01*
X178393890Y-112163569D01*
X178142000Y-112112560D01*
X176442000Y-112112560D01*
X176206683Y-112156838D01*
X175990559Y-112295910D01*
X175845569Y-112508110D01*
X175794560Y-112760000D01*
X175794560Y-114468638D01*
X174183198Y-116080000D01*
X172643440Y-116080000D01*
X172643440Y-116040705D01*
X172756839Y-116018148D01*
X173003401Y-115853401D01*
X173449362Y-115407440D01*
X174586000Y-115407440D01*
X174821317Y-115363162D01*
X175037441Y-115224090D01*
X175182431Y-115011890D01*
X175233440Y-114760000D01*
X175233440Y-112760000D01*
X175189162Y-112524683D01*
X175050090Y-112308559D01*
X174837890Y-112163569D01*
X174586000Y-112112560D01*
X172886000Y-112112560D01*
X172650683Y-112156838D01*
X172434559Y-112295910D01*
X172289569Y-112508110D01*
X172238560Y-112760000D01*
X172238560Y-114468638D01*
X172151198Y-114556000D01*
X171677440Y-114556000D01*
X171677440Y-112760000D01*
X171633162Y-112524683D01*
X171494090Y-112308559D01*
X171281890Y-112163569D01*
X171030000Y-112112560D01*
X170802902Y-112112560D01*
X170717401Y-111984599D01*
X170011026Y-111278224D01*
X170053000Y-111236250D01*
X170053000Y-109887000D01*
X170307000Y-109887000D01*
X170307000Y-111236250D01*
X170465750Y-111395000D01*
X171156310Y-111395000D01*
X171389699Y-111298327D01*
X171568327Y-111119698D01*
X171665000Y-110886309D01*
X171665000Y-110045750D01*
X172251000Y-110045750D01*
X172251000Y-110886309D01*
X172347673Y-111119698D01*
X172526301Y-111298327D01*
X172759690Y-111395000D01*
X173450250Y-111395000D01*
X173609000Y-111236250D01*
X173609000Y-109887000D01*
X173863000Y-109887000D01*
X173863000Y-111236250D01*
X174021750Y-111395000D01*
X174712310Y-111395000D01*
X174945699Y-111298327D01*
X175124327Y-111119698D01*
X175221000Y-110886309D01*
X175221000Y-110045750D01*
X175807000Y-110045750D01*
X175807000Y-110886309D01*
X175903673Y-111119698D01*
X176082301Y-111298327D01*
X176315690Y-111395000D01*
X177006250Y-111395000D01*
X177165000Y-111236250D01*
X177165000Y-109887000D01*
X177419000Y-109887000D01*
X177419000Y-111236250D01*
X177577750Y-111395000D01*
X178268310Y-111395000D01*
X178501699Y-111298327D01*
X178680327Y-111119698D01*
X178777000Y-110886309D01*
X178777000Y-110045750D01*
X178855000Y-110045750D01*
X178855000Y-110886309D01*
X178951673Y-111119698D01*
X179130301Y-111298327D01*
X179363690Y-111395000D01*
X180054250Y-111395000D01*
X180213000Y-111236250D01*
X180213000Y-109887000D01*
X180467000Y-109887000D01*
X180467000Y-111236250D01*
X180625750Y-111395000D01*
X181316310Y-111395000D01*
X181549699Y-111298327D01*
X181728327Y-111119698D01*
X181825000Y-110886309D01*
X181825000Y-110045750D01*
X181903000Y-110045750D01*
X181903000Y-110886309D01*
X181999673Y-111119698D01*
X182178301Y-111298327D01*
X182411690Y-111395000D01*
X183102250Y-111395000D01*
X183261000Y-111236250D01*
X183261000Y-109887000D01*
X183515000Y-109887000D01*
X183515000Y-111236250D01*
X183673750Y-111395000D01*
X184364310Y-111395000D01*
X184597699Y-111298327D01*
X184776327Y-111119698D01*
X184873000Y-110886309D01*
X184873000Y-110045750D01*
X184714250Y-109887000D01*
X183515000Y-109887000D01*
X183261000Y-109887000D01*
X182061750Y-109887000D01*
X181903000Y-110045750D01*
X181825000Y-110045750D01*
X181666250Y-109887000D01*
X180467000Y-109887000D01*
X180213000Y-109887000D01*
X179013750Y-109887000D01*
X178855000Y-110045750D01*
X178777000Y-110045750D01*
X178618250Y-109887000D01*
X177419000Y-109887000D01*
X177165000Y-109887000D01*
X175965750Y-109887000D01*
X175807000Y-110045750D01*
X175221000Y-110045750D01*
X175062250Y-109887000D01*
X173863000Y-109887000D01*
X173609000Y-109887000D01*
X172409750Y-109887000D01*
X172251000Y-110045750D01*
X171665000Y-110045750D01*
X171506250Y-109887000D01*
X170307000Y-109887000D01*
X170053000Y-109887000D01*
X168853750Y-109887000D01*
X168695000Y-110045750D01*
X168695000Y-110886309D01*
X168742092Y-111000000D01*
X168569908Y-111000000D01*
X168617000Y-110886309D01*
X168617000Y-110045750D01*
X168458250Y-109887000D01*
X167259000Y-109887000D01*
X167259000Y-109907000D01*
X167005000Y-109907000D01*
X167005000Y-109887000D01*
X165805750Y-109887000D01*
X165647000Y-110045750D01*
X165647000Y-110886309D01*
X165743673Y-111119698D01*
X165840976Y-111217002D01*
X165832599Y-111222599D01*
X165070599Y-111984599D01*
X164905852Y-112231161D01*
X164848000Y-112522000D01*
X164848000Y-114751198D01*
X164082000Y-113985198D01*
X164082000Y-108633691D01*
X165647000Y-108633691D01*
X165647000Y-109474250D01*
X165805750Y-109633000D01*
X167005000Y-109633000D01*
X167005000Y-108283750D01*
X167259000Y-108283750D01*
X167259000Y-109633000D01*
X168458250Y-109633000D01*
X168617000Y-109474250D01*
X168617000Y-108633691D01*
X168695000Y-108633691D01*
X168695000Y-109474250D01*
X168853750Y-109633000D01*
X170053000Y-109633000D01*
X170053000Y-108283750D01*
X170307000Y-108283750D01*
X170307000Y-109633000D01*
X171506250Y-109633000D01*
X171665000Y-109474250D01*
X171665000Y-108633691D01*
X172251000Y-108633691D01*
X172251000Y-109474250D01*
X172409750Y-109633000D01*
X173609000Y-109633000D01*
X173609000Y-108283750D01*
X173863000Y-108283750D01*
X173863000Y-109633000D01*
X175062250Y-109633000D01*
X175221000Y-109474250D01*
X175221000Y-108633691D01*
X175807000Y-108633691D01*
X175807000Y-109474250D01*
X175965750Y-109633000D01*
X177165000Y-109633000D01*
X177165000Y-108283750D01*
X177419000Y-108283750D01*
X177419000Y-109633000D01*
X178618250Y-109633000D01*
X178777000Y-109474250D01*
X178777000Y-108633691D01*
X178855000Y-108633691D01*
X178855000Y-109474250D01*
X179013750Y-109633000D01*
X180213000Y-109633000D01*
X180213000Y-108283750D01*
X180467000Y-108283750D01*
X180467000Y-109633000D01*
X181666250Y-109633000D01*
X181825000Y-109474250D01*
X181825000Y-108633691D01*
X181903000Y-108633691D01*
X181903000Y-109474250D01*
X182061750Y-109633000D01*
X183261000Y-109633000D01*
X183261000Y-108283750D01*
X183515000Y-108283750D01*
X183515000Y-109633000D01*
X184714250Y-109633000D01*
X184873000Y-109474250D01*
X184873000Y-108633691D01*
X184776327Y-108400302D01*
X184597699Y-108221673D01*
X184364310Y-108125000D01*
X183673750Y-108125000D01*
X183515000Y-108283750D01*
X183261000Y-108283750D01*
X183102250Y-108125000D01*
X182411690Y-108125000D01*
X182178301Y-108221673D01*
X181999673Y-108400302D01*
X181903000Y-108633691D01*
X181825000Y-108633691D01*
X181728327Y-108400302D01*
X181549699Y-108221673D01*
X181316310Y-108125000D01*
X180625750Y-108125000D01*
X180467000Y-108283750D01*
X180213000Y-108283750D01*
X180054250Y-108125000D01*
X179363690Y-108125000D01*
X179130301Y-108221673D01*
X178951673Y-108400302D01*
X178855000Y-108633691D01*
X178777000Y-108633691D01*
X178680327Y-108400302D01*
X178501699Y-108221673D01*
X178268310Y-108125000D01*
X177577750Y-108125000D01*
X177419000Y-108283750D01*
X177165000Y-108283750D01*
X177006250Y-108125000D01*
X176315690Y-108125000D01*
X176082301Y-108221673D01*
X175903673Y-108400302D01*
X175807000Y-108633691D01*
X175221000Y-108633691D01*
X175124327Y-108400302D01*
X174945699Y-108221673D01*
X174712310Y-108125000D01*
X174021750Y-108125000D01*
X173863000Y-108283750D01*
X173609000Y-108283750D01*
X173450250Y-108125000D01*
X172759690Y-108125000D01*
X172526301Y-108221673D01*
X172347673Y-108400302D01*
X172251000Y-108633691D01*
X171665000Y-108633691D01*
X171568327Y-108400302D01*
X171389699Y-108221673D01*
X171156310Y-108125000D01*
X170465750Y-108125000D01*
X170307000Y-108283750D01*
X170053000Y-108283750D01*
X169894250Y-108125000D01*
X169203690Y-108125000D01*
X168970301Y-108221673D01*
X168791673Y-108400302D01*
X168695000Y-108633691D01*
X168617000Y-108633691D01*
X168520327Y-108400302D01*
X168341699Y-108221673D01*
X168108310Y-108125000D01*
X167417750Y-108125000D01*
X167259000Y-108283750D01*
X167005000Y-108283750D01*
X166846250Y-108125000D01*
X166155690Y-108125000D01*
X165922301Y-108221673D01*
X165743673Y-108400302D01*
X165647000Y-108633691D01*
X164082000Y-108633691D01*
X164082000Y-100457000D01*
X164024148Y-100166161D01*
X164024148Y-100166160D01*
X163859401Y-99919599D01*
X163552075Y-99612273D01*
X163764401Y-99470401D01*
X165217362Y-98017440D01*
X166640000Y-98017440D01*
X166875317Y-97973162D01*
X167091441Y-97834090D01*
X167236431Y-97621890D01*
X167287440Y-97370000D01*
X167287440Y-95670000D01*
X167992560Y-95670000D01*
X167992560Y-97370000D01*
X168036838Y-97605317D01*
X168175910Y-97821441D01*
X168388110Y-97966431D01*
X168640000Y-98017440D01*
X170640000Y-98017440D01*
X170875317Y-97973162D01*
X171091441Y-97834090D01*
X171236431Y-97621890D01*
X171287440Y-97370000D01*
X171287440Y-97280000D01*
X172853534Y-97280000D01*
X172918233Y-97605264D01*
X173229302Y-98070811D01*
X173694849Y-98381880D01*
X174064951Y-98455498D01*
X174064838Y-98585167D01*
X174206883Y-98928943D01*
X174469673Y-99192192D01*
X174813201Y-99334838D01*
X175185167Y-99335162D01*
X175528943Y-99193117D01*
X175792192Y-98930327D01*
X175934838Y-98586799D01*
X175935162Y-98214833D01*
X175793117Y-97871057D01*
X175552935Y-97630455D01*
X175569767Y-97605264D01*
X175615163Y-97377041D01*
X178948086Y-97377041D01*
X179187611Y-97883134D01*
X179602577Y-98259041D01*
X179990961Y-98419904D01*
X180213000Y-98297915D01*
X180213000Y-97155000D01*
X180467000Y-97155000D01*
X180467000Y-98297915D01*
X180689039Y-98419904D01*
X181077423Y-98259041D01*
X181492389Y-97883134D01*
X181731914Y-97377041D01*
X181610629Y-97155000D01*
X180467000Y-97155000D01*
X180213000Y-97155000D01*
X179069371Y-97155000D01*
X178948086Y-97377041D01*
X175615163Y-97377041D01*
X175679000Y-97056113D01*
X175679000Y-96999887D01*
X175615164Y-96678959D01*
X178948086Y-96678959D01*
X179069371Y-96901000D01*
X180213000Y-96901000D01*
X180213000Y-95758085D01*
X180467000Y-95758085D01*
X180467000Y-96901000D01*
X181610629Y-96901000D01*
X181731914Y-96678959D01*
X181492389Y-96172866D01*
X181077423Y-95796959D01*
X180689039Y-95636096D01*
X180467000Y-95758085D01*
X180213000Y-95758085D01*
X179990961Y-95636096D01*
X179602577Y-95796959D01*
X179187611Y-96172866D01*
X178948086Y-96678959D01*
X175615164Y-96678959D01*
X175569767Y-96450736D01*
X175258698Y-95985189D01*
X174793151Y-95674120D01*
X174244000Y-95564887D01*
X173694849Y-95674120D01*
X173566321Y-95760000D01*
X171287440Y-95760000D01*
X171287440Y-95670000D01*
X171243162Y-95434683D01*
X171104090Y-95218559D01*
X170891890Y-95073569D01*
X170640000Y-95022560D01*
X168640000Y-95022560D01*
X168404683Y-95066838D01*
X168188559Y-95205910D01*
X168043569Y-95418110D01*
X167992560Y-95670000D01*
X167287440Y-95670000D01*
X167243162Y-95434683D01*
X167104090Y-95218559D01*
X166891890Y-95073569D01*
X166640000Y-95022560D01*
X164640000Y-95022560D01*
X164404683Y-95066838D01*
X164188559Y-95205910D01*
X164043569Y-95418110D01*
X163992560Y-95670000D01*
X163992560Y-97092638D01*
X163056651Y-98028547D01*
X162702646Y-97792009D01*
X162230032Y-97698000D01*
X161921224Y-97698000D01*
X161952943Y-97684894D01*
X162413278Y-97225363D01*
X162662716Y-96624648D01*
X162663284Y-95974205D01*
X162414894Y-95373057D01*
X161955363Y-94912722D01*
X161354648Y-94663284D01*
X160704205Y-94662716D01*
X160103057Y-94911106D01*
X159642722Y-95370637D01*
X159393284Y-95971352D01*
X159392885Y-96428000D01*
X159385000Y-96428000D01*
X159385000Y-97536000D01*
X159405000Y-97536000D01*
X159405000Y-97790000D01*
X159385000Y-97790000D01*
X159385000Y-98898000D01*
X159785000Y-98898000D01*
X160160967Y-98782184D01*
X160130968Y-98933000D01*
X160156382Y-99060763D01*
X159690032Y-98968000D01*
X158825968Y-98968000D01*
X158353354Y-99062009D01*
X157952691Y-99329723D01*
X157684977Y-99730386D01*
X157590968Y-100203000D01*
X157684977Y-100675614D01*
X157952691Y-101076277D01*
X158353354Y-101343991D01*
X158825968Y-101438000D01*
X159690032Y-101438000D01*
X160156382Y-101345237D01*
X160130968Y-101473000D01*
X160156382Y-101600763D01*
X159690032Y-101508000D01*
X158825968Y-101508000D01*
X158353354Y-101602009D01*
X157952691Y-101869723D01*
X157684977Y-102270386D01*
X157590968Y-102743000D01*
X157684977Y-103215614D01*
X157709957Y-103253000D01*
X157099000Y-103253000D01*
X156920000Y-103288606D01*
X156920000Y-97980609D01*
X157664538Y-97980609D01*
X157668408Y-98018281D01*
X157894920Y-98446474D01*
X158268053Y-98755390D01*
X158731000Y-98898000D01*
X159131000Y-98898000D01*
X159131000Y-97790000D01*
X157789269Y-97790000D01*
X157664538Y-97980609D01*
X156920000Y-97980609D01*
X156920000Y-97345391D01*
X157664538Y-97345391D01*
X157789269Y-97536000D01*
X159131000Y-97536000D01*
X159131000Y-96428000D01*
X158731000Y-96428000D01*
X158268053Y-96570610D01*
X157894920Y-96879526D01*
X157668408Y-97307719D01*
X157664538Y-97345391D01*
X156920000Y-97345391D01*
X156920000Y-95250000D01*
X156865954Y-94978295D01*
X156712046Y-94747954D01*
X156591000Y-94667074D01*
X156591000Y-93546926D01*
X156712046Y-93466046D01*
X156865954Y-93235705D01*
X156920000Y-92964000D01*
X156920000Y-92700317D01*
X157276976Y-93057916D01*
X157758282Y-93257772D01*
X158279432Y-93258226D01*
X158761086Y-93059211D01*
X158828077Y-92992337D01*
X158880910Y-93074441D01*
X159093110Y-93219431D01*
X159345000Y-93270440D01*
X160695000Y-93270440D01*
X160930317Y-93226162D01*
X161146441Y-93087090D01*
X161291431Y-92874890D01*
X161342440Y-92623000D01*
X161342440Y-91273000D01*
X161298162Y-91037683D01*
X161159090Y-90821559D01*
X160946890Y-90676569D01*
X160695000Y-90625560D01*
X159345000Y-90625560D01*
X159109683Y-90669838D01*
X158893559Y-90808910D01*
X158828684Y-90903858D01*
X158763024Y-90838084D01*
X158281718Y-90638228D01*
X157760568Y-90637774D01*
X157278914Y-90836789D01*
X156920000Y-91195077D01*
X156920000Y-89143970D01*
X164781635Y-89143970D01*
X164941418Y-89462739D01*
X165732187Y-89772723D01*
X166581387Y-89756497D01*
X166732871Y-89693750D01*
X172809000Y-89693750D01*
X172809000Y-90334309D01*
X172905673Y-90567698D01*
X173084301Y-90746327D01*
X173317690Y-90843000D01*
X173958250Y-90843000D01*
X174117000Y-90684250D01*
X174117000Y-89535000D01*
X174371000Y-89535000D01*
X174371000Y-90684250D01*
X174529750Y-90843000D01*
X175170310Y-90843000D01*
X175403699Y-90746327D01*
X175582327Y-90567698D01*
X175679000Y-90334309D01*
X175679000Y-89693750D01*
X175520250Y-89535000D01*
X174371000Y-89535000D01*
X174117000Y-89535000D01*
X172967750Y-89535000D01*
X172809000Y-89693750D01*
X166732871Y-89693750D01*
X167290582Y-89462739D01*
X167450365Y-89143970D01*
X166116000Y-87809605D01*
X164781635Y-89143970D01*
X156920000Y-89143970D01*
X156920000Y-86562000D01*
X164241481Y-86562000D01*
X163973277Y-87246187D01*
X163989503Y-88095387D01*
X164283261Y-88804582D01*
X164602030Y-88964365D01*
X165936395Y-87630000D01*
X165922253Y-87615858D01*
X166101858Y-87436253D01*
X166116000Y-87450395D01*
X166130143Y-87436253D01*
X166309748Y-87615858D01*
X166295605Y-87630000D01*
X167629970Y-88964365D01*
X167948739Y-88804582D01*
X168075313Y-88481691D01*
X172809000Y-88481691D01*
X172809000Y-89122250D01*
X172967750Y-89281000D01*
X174117000Y-89281000D01*
X174117000Y-88131750D01*
X174371000Y-88131750D01*
X174371000Y-89281000D01*
X175520250Y-89281000D01*
X175679000Y-89122250D01*
X175679000Y-88481691D01*
X175582327Y-88248302D01*
X175403699Y-88069673D01*
X175170310Y-87973000D01*
X174529750Y-87973000D01*
X174371000Y-88131750D01*
X174117000Y-88131750D01*
X173958250Y-87973000D01*
X173317690Y-87973000D01*
X173084301Y-88069673D01*
X172905673Y-88248302D01*
X172809000Y-88481691D01*
X168075313Y-88481691D01*
X168258723Y-88013813D01*
X168242497Y-87164613D01*
X167992887Y-86562000D01*
X177038000Y-86562000D01*
X177292000Y-86511476D01*
X177546000Y-86562000D01*
M02*
