M48
;DRILL file {KiCad 4.0.5} date 01/19/17 13:34:56
;FORMAT={-:-/ absolute / inch / decimal}
FMAT,2
INCH,TZ
T1C0.016
T2C0.031
T3C0.033
T4C0.040
T5C0.059
T6C0.130
%
G90
G05
M72
T1
X5.83Y-5.04
X5.88Y-5.03
X6.08Y-4.83
X6.09Y-3.41
X6.22Y-4.43
X6.64Y-3.95
X6.71Y-3.7
X6.76Y-3.97
X6.8898Y-3.874
X6.9Y-3.97
X7.08Y-4.12
X7.23Y-4.13
X7.34Y-4.54
X7.52Y-4.28
X7.58Y-4.4
X7.62Y-4.52
X7.8976Y-4.626
X7.9Y-4.04
X7.9Y-4.14
X7.9Y-4.26
X7.9Y-4.36
T2
X6.2213Y-3.62
X6.3Y-3.62
X6.32Y-4.6
X6.32Y-4.9
X6.42Y-4.6
X6.42Y-4.9
X6.64Y-4.6
X6.64Y-4.9
X6.74Y-4.6
X6.74Y-4.9
X6.86Y-3.52
X6.86Y-3.82
X6.96Y-4.6
X6.96Y-4.9
X7.06Y-4.6
X7.06Y-4.9
X7.1Y-3.52
X7.1Y-3.82
T3
X5.91Y-3.945
X5.91Y-4.045
X5.91Y-4.145
X5.91Y-4.245
X5.91Y-4.345
X5.91Y-4.445
X6.01Y-3.995
X6.01Y-4.095
X6.01Y-4.195
X6.01Y-4.295
X6.01Y-4.395
X6.01Y-4.495
X6.27Y-3.845
X6.27Y-3.945
X6.27Y-4.045
X6.27Y-4.145
X6.27Y-4.245
X6.27Y-4.345
X6.37Y-3.895
X6.37Y-3.995
X6.37Y-4.095
X6.37Y-4.195
X6.37Y-4.295
X6.37Y-4.395
T4
X5.82Y-3.26
X5.82Y-5.16
X5.92Y-3.26
X5.92Y-5.16
X6.02Y-3.26
X6.02Y-5.16
X6.12Y-3.26
X6.12Y-5.16
X6.22Y-3.26
X6.22Y-5.16
X6.32Y-3.26
X6.32Y-5.16
X6.42Y-5.16
X6.52Y-3.26
X6.52Y-5.16
X6.62Y-3.26
X6.68Y-5.16
X6.72Y-3.26
X6.78Y-5.16
X6.82Y-3.26
X6.88Y-5.16
X6.92Y-3.26
X6.98Y-5.16
X7.08Y-5.16
T5
X6.54Y-3.45
T6
X7.76Y-3.7079
X7.76Y-4.6921
T0
M30
