G04 #@! TF.FileFunction,Legend,Bot*
%FSLAX46Y46*%
G04 Gerber Fmt 4.6, Leading zero omitted, Abs format (unit mm)*
G04 Created by KiCad (PCBNEW 4.0.5) date 02/15/17 17:48:56*
%MOMM*%
%LPD*%
G01*
G04 APERTURE LIST*
%ADD10C,0.100000*%
%ADD11C,0.300000*%
%ADD12C,0.150000*%
G04 APERTURE END LIST*
D10*
X169505238Y-97054143D02*
X170076667Y-97054143D01*
X169790953Y-97054143D02*
X169790953Y-96154143D01*
X169886191Y-96282714D01*
X169981429Y-96368429D01*
X170076667Y-96411286D01*
X168886191Y-96154143D02*
X168790952Y-96154143D01*
X168695714Y-96197000D01*
X168648095Y-96239857D01*
X168600476Y-96325571D01*
X168552857Y-96497000D01*
X168552857Y-96711286D01*
X168600476Y-96882714D01*
X168648095Y-96968429D01*
X168695714Y-97011286D01*
X168790952Y-97054143D01*
X168886191Y-97054143D01*
X168981429Y-97011286D01*
X169029048Y-96968429D01*
X169076667Y-96882714D01*
X169124286Y-96711286D01*
X169124286Y-96497000D01*
X169076667Y-96325571D01*
X169029048Y-96239857D01*
X168981429Y-96197000D01*
X168886191Y-96154143D01*
X168124286Y-97054143D02*
X168124286Y-96154143D01*
X168029048Y-96711286D02*
X167743333Y-97054143D01*
X167743333Y-96454143D02*
X168124286Y-96797000D01*
X183160143Y-121245238D02*
X183160143Y-121816667D01*
X183160143Y-121530953D02*
X182260143Y-121530953D01*
X182388714Y-121626191D01*
X182474429Y-121721429D01*
X182517286Y-121816667D01*
X182260143Y-120626191D02*
X182260143Y-120530952D01*
X182303000Y-120435714D01*
X182345857Y-120388095D01*
X182431571Y-120340476D01*
X182603000Y-120292857D01*
X182817286Y-120292857D01*
X182988714Y-120340476D01*
X183074429Y-120388095D01*
X183117286Y-120435714D01*
X183160143Y-120530952D01*
X183160143Y-120626191D01*
X183117286Y-120721429D01*
X183074429Y-120769048D01*
X182988714Y-120816667D01*
X182817286Y-120864286D01*
X182603000Y-120864286D01*
X182431571Y-120816667D01*
X182345857Y-120769048D01*
X182303000Y-120721429D01*
X182260143Y-120626191D01*
X183160143Y-119864286D02*
X182260143Y-119864286D01*
X182817286Y-119769048D02*
X183160143Y-119483333D01*
X182560143Y-119483333D02*
X182903000Y-119864286D01*
X174143143Y-121245238D02*
X174143143Y-121816667D01*
X174143143Y-121530953D02*
X173243143Y-121530953D01*
X173371714Y-121626191D01*
X173457429Y-121721429D01*
X173500286Y-121816667D01*
X173243143Y-120626191D02*
X173243143Y-120530952D01*
X173286000Y-120435714D01*
X173328857Y-120388095D01*
X173414571Y-120340476D01*
X173586000Y-120292857D01*
X173800286Y-120292857D01*
X173971714Y-120340476D01*
X174057429Y-120388095D01*
X174100286Y-120435714D01*
X174143143Y-120530952D01*
X174143143Y-120626191D01*
X174100286Y-120721429D01*
X174057429Y-120769048D01*
X173971714Y-120816667D01*
X173800286Y-120864286D01*
X173586000Y-120864286D01*
X173414571Y-120816667D01*
X173328857Y-120769048D01*
X173286000Y-120721429D01*
X173243143Y-120626191D01*
X174143143Y-119864286D02*
X173243143Y-119864286D01*
X173800286Y-119769048D02*
X174143143Y-119483333D01*
X173543143Y-119483333D02*
X173886000Y-119864286D01*
X165507143Y-121245238D02*
X165507143Y-121816667D01*
X165507143Y-121530953D02*
X164607143Y-121530953D01*
X164735714Y-121626191D01*
X164821429Y-121721429D01*
X164864286Y-121816667D01*
X164607143Y-120626191D02*
X164607143Y-120530952D01*
X164650000Y-120435714D01*
X164692857Y-120388095D01*
X164778571Y-120340476D01*
X164950000Y-120292857D01*
X165164286Y-120292857D01*
X165335714Y-120340476D01*
X165421429Y-120388095D01*
X165464286Y-120435714D01*
X165507143Y-120530952D01*
X165507143Y-120626191D01*
X165464286Y-120721429D01*
X165421429Y-120769048D01*
X165335714Y-120816667D01*
X165164286Y-120864286D01*
X164950000Y-120864286D01*
X164778571Y-120816667D01*
X164692857Y-120769048D01*
X164650000Y-120721429D01*
X164607143Y-120626191D01*
X165507143Y-119864286D02*
X164607143Y-119864286D01*
X165164286Y-119769048D02*
X165507143Y-119483333D01*
X164907143Y-119483333D02*
X165250000Y-119864286D01*
X158130143Y-89368428D02*
X158130143Y-89463667D01*
X158173000Y-89558905D01*
X158215857Y-89606524D01*
X158301571Y-89654143D01*
X158473000Y-89701762D01*
X158687286Y-89701762D01*
X158858714Y-89654143D01*
X158944429Y-89606524D01*
X158987286Y-89558905D01*
X159030143Y-89463667D01*
X159030143Y-89368428D01*
X158987286Y-89273190D01*
X158944429Y-89225571D01*
X158858714Y-89177952D01*
X158687286Y-89130333D01*
X158473000Y-89130333D01*
X158301571Y-89177952D01*
X158215857Y-89225571D01*
X158173000Y-89273190D01*
X158130143Y-89368428D01*
X159030143Y-90130333D02*
X158130143Y-90130333D01*
X158687286Y-90225571D02*
X159030143Y-90511286D01*
X158430143Y-90511286D02*
X158773000Y-90130333D01*
X159030143Y-91463667D02*
X159030143Y-90892238D01*
X159030143Y-91177952D02*
X158130143Y-91177952D01*
X158258714Y-91082714D01*
X158344429Y-90987476D01*
X158387286Y-90892238D01*
D11*
X191165714Y-101054143D02*
X190951428Y-101125571D01*
X190594285Y-101125571D01*
X190451428Y-101054143D01*
X190379999Y-100982714D01*
X190308571Y-100839857D01*
X190308571Y-100697000D01*
X190379999Y-100554143D01*
X190451428Y-100482714D01*
X190594285Y-100411286D01*
X190879999Y-100339857D01*
X191022857Y-100268429D01*
X191094285Y-100197000D01*
X191165714Y-100054143D01*
X191165714Y-99911286D01*
X191094285Y-99768429D01*
X191022857Y-99697000D01*
X190879999Y-99625571D01*
X190522857Y-99625571D01*
X190308571Y-99697000D01*
X189665714Y-100339857D02*
X189165714Y-100339857D01*
X188951428Y-101125571D02*
X189665714Y-101125571D01*
X189665714Y-99625571D01*
X188951428Y-99625571D01*
X187451428Y-100982714D02*
X187522857Y-101054143D01*
X187737143Y-101125571D01*
X187880000Y-101125571D01*
X188094285Y-101054143D01*
X188237143Y-100911286D01*
X188308571Y-100768429D01*
X188380000Y-100482714D01*
X188380000Y-100268429D01*
X188308571Y-99982714D01*
X188237143Y-99839857D01*
X188094285Y-99697000D01*
X187880000Y-99625571D01*
X187737143Y-99625571D01*
X187522857Y-99697000D01*
X187451428Y-99768429D01*
X185665714Y-101125571D02*
X185665714Y-99625571D01*
X185308571Y-99625571D01*
X185094286Y-99697000D01*
X184951428Y-99839857D01*
X184880000Y-99982714D01*
X184808571Y-100268429D01*
X184808571Y-100482714D01*
X184880000Y-100768429D01*
X184951428Y-100911286D01*
X185094286Y-101054143D01*
X185308571Y-101125571D01*
X185665714Y-101125571D01*
X184237143Y-100697000D02*
X183522857Y-100697000D01*
X184380000Y-101125571D02*
X183880000Y-99625571D01*
X183380000Y-101125571D01*
X181880000Y-101268429D02*
X182022857Y-101197000D01*
X182165714Y-101054143D01*
X182380000Y-100839857D01*
X182522857Y-100768429D01*
X182665714Y-100768429D01*
X182594286Y-101125571D02*
X182737143Y-101054143D01*
X182880000Y-100911286D01*
X182951429Y-100625571D01*
X182951429Y-100125571D01*
X182880000Y-99839857D01*
X182737143Y-99697000D01*
X182594286Y-99625571D01*
X182308572Y-99625571D01*
X182165714Y-99697000D01*
X182022857Y-99839857D01*
X181951429Y-100125571D01*
X181951429Y-100625571D01*
X182022857Y-100911286D01*
X182165714Y-101054143D01*
X182308572Y-101125571D01*
X182594286Y-101125571D01*
X180380000Y-99625571D02*
X179880000Y-101125571D01*
X179380000Y-99625571D01*
X178594286Y-99625571D02*
X178451429Y-99625571D01*
X178308572Y-99697000D01*
X178237143Y-99768429D01*
X178165714Y-99911286D01*
X178094286Y-100197000D01*
X178094286Y-100554143D01*
X178165714Y-100839857D01*
X178237143Y-100982714D01*
X178308572Y-101054143D01*
X178451429Y-101125571D01*
X178594286Y-101125571D01*
X178737143Y-101054143D01*
X178808572Y-100982714D01*
X178880000Y-100839857D01*
X178951429Y-100554143D01*
X178951429Y-100197000D01*
X178880000Y-99911286D01*
X178808572Y-99768429D01*
X178737143Y-99697000D01*
X178594286Y-99625571D01*
X177451429Y-100982714D02*
X177380001Y-101054143D01*
X177451429Y-101125571D01*
X177522858Y-101054143D01*
X177451429Y-100982714D01*
X177451429Y-101125571D01*
X176808572Y-99768429D02*
X176737143Y-99697000D01*
X176594286Y-99625571D01*
X176237143Y-99625571D01*
X176094286Y-99697000D01*
X176022857Y-99768429D01*
X175951429Y-99911286D01*
X175951429Y-100054143D01*
X176022857Y-100268429D01*
X176880000Y-101125571D01*
X175951429Y-101125571D01*
X175308572Y-101125571D02*
X175308572Y-99625571D01*
X175308572Y-100197000D02*
X175165715Y-100125571D01*
X174880001Y-100125571D01*
X174737144Y-100197000D01*
X174665715Y-100268429D01*
X174594286Y-100411286D01*
X174594286Y-100839857D01*
X174665715Y-100982714D01*
X174737144Y-101054143D01*
X174880001Y-101125571D01*
X175165715Y-101125571D01*
X175308572Y-101054143D01*
X190272855Y-102889857D02*
X190772855Y-102889857D01*
X190772855Y-103675571D02*
X190772855Y-102175571D01*
X190058569Y-102175571D01*
X188915713Y-103604143D02*
X189058570Y-103675571D01*
X189344284Y-103675571D01*
X189487141Y-103604143D01*
X189558570Y-103461286D01*
X189558570Y-102889857D01*
X189487141Y-102747000D01*
X189344284Y-102675571D01*
X189058570Y-102675571D01*
X188915713Y-102747000D01*
X188844284Y-102889857D01*
X188844284Y-103032714D01*
X189558570Y-103175571D01*
X188201427Y-103675571D02*
X188201427Y-102175571D01*
X188201427Y-102747000D02*
X188058570Y-102675571D01*
X187772856Y-102675571D01*
X187629999Y-102747000D01*
X187558570Y-102818429D01*
X187487141Y-102961286D01*
X187487141Y-103389857D01*
X187558570Y-103532714D01*
X187629999Y-103604143D01*
X187772856Y-103675571D01*
X188058570Y-103675571D01*
X188201427Y-103604143D01*
X186844284Y-103675571D02*
X186844284Y-102675571D01*
X186844284Y-102961286D02*
X186772856Y-102818429D01*
X186701427Y-102747000D01*
X186558570Y-102675571D01*
X186415713Y-102675571D01*
X185272856Y-102675571D02*
X185272856Y-103675571D01*
X185915713Y-102675571D02*
X185915713Y-103461286D01*
X185844285Y-103604143D01*
X185701427Y-103675571D01*
X185487142Y-103675571D01*
X185344285Y-103604143D01*
X185272856Y-103532714D01*
X183915713Y-103675571D02*
X183915713Y-102889857D01*
X183987142Y-102747000D01*
X184129999Y-102675571D01*
X184415713Y-102675571D01*
X184558570Y-102747000D01*
X183915713Y-103604143D02*
X184058570Y-103675571D01*
X184415713Y-103675571D01*
X184558570Y-103604143D01*
X184629999Y-103461286D01*
X184629999Y-103318429D01*
X184558570Y-103175571D01*
X184415713Y-103104143D01*
X184058570Y-103104143D01*
X183915713Y-103032714D01*
X183201427Y-103675571D02*
X183201427Y-102675571D01*
X183201427Y-102961286D02*
X183129999Y-102818429D01*
X183058570Y-102747000D01*
X182915713Y-102675571D01*
X182772856Y-102675571D01*
X182415713Y-102675571D02*
X182058570Y-103675571D01*
X181701428Y-102675571D02*
X182058570Y-103675571D01*
X182201428Y-104032714D01*
X182272856Y-104104143D01*
X182415713Y-104175571D01*
X180058571Y-102318429D02*
X179987142Y-102247000D01*
X179844285Y-102175571D01*
X179487142Y-102175571D01*
X179344285Y-102247000D01*
X179272856Y-102318429D01*
X179201428Y-102461286D01*
X179201428Y-102604143D01*
X179272856Y-102818429D01*
X180129999Y-103675571D01*
X179201428Y-103675571D01*
X178272857Y-102175571D02*
X178130000Y-102175571D01*
X177987143Y-102247000D01*
X177915714Y-102318429D01*
X177844285Y-102461286D01*
X177772857Y-102747000D01*
X177772857Y-103104143D01*
X177844285Y-103389857D01*
X177915714Y-103532714D01*
X177987143Y-103604143D01*
X178130000Y-103675571D01*
X178272857Y-103675571D01*
X178415714Y-103604143D01*
X178487143Y-103532714D01*
X178558571Y-103389857D01*
X178630000Y-103104143D01*
X178630000Y-102747000D01*
X178558571Y-102461286D01*
X178487143Y-102318429D01*
X178415714Y-102247000D01*
X178272857Y-102175571D01*
X176344286Y-103675571D02*
X177201429Y-103675571D01*
X176772857Y-103675571D02*
X176772857Y-102175571D01*
X176915714Y-102389857D01*
X177058572Y-102532714D01*
X177201429Y-102604143D01*
X175844286Y-102175571D02*
X174844286Y-102175571D01*
X175487143Y-103675571D01*
X193272858Y-105797000D02*
X192558572Y-105797000D01*
X193415715Y-106225571D02*
X192915715Y-104725571D01*
X192415715Y-106225571D01*
X191272858Y-105225571D02*
X191272858Y-106225571D01*
X191915715Y-105225571D02*
X191915715Y-106011286D01*
X191844287Y-106154143D01*
X191701429Y-106225571D01*
X191487144Y-106225571D01*
X191344287Y-106154143D01*
X191272858Y-106082714D01*
X190630001Y-106154143D02*
X190487144Y-106225571D01*
X190201429Y-106225571D01*
X190058572Y-106154143D01*
X189987144Y-106011286D01*
X189987144Y-105939857D01*
X190058572Y-105797000D01*
X190201429Y-105725571D01*
X190415715Y-105725571D01*
X190558572Y-105654143D01*
X190630001Y-105511286D01*
X190630001Y-105439857D01*
X190558572Y-105297000D01*
X190415715Y-105225571D01*
X190201429Y-105225571D01*
X190058572Y-105297000D01*
X189558572Y-105225571D02*
X188987143Y-105225571D01*
X189344286Y-104725571D02*
X189344286Y-106011286D01*
X189272858Y-106154143D01*
X189130000Y-106225571D01*
X188987143Y-106225571D01*
X188487143Y-106225571D02*
X188487143Y-105225571D01*
X188487143Y-104725571D02*
X188558572Y-104797000D01*
X188487143Y-104868429D01*
X188415715Y-104797000D01*
X188487143Y-104725571D01*
X188487143Y-104868429D01*
X187772857Y-105225571D02*
X187772857Y-106225571D01*
X187772857Y-105368429D02*
X187701429Y-105297000D01*
X187558571Y-105225571D01*
X187344286Y-105225571D01*
X187201429Y-105297000D01*
X187130000Y-105439857D01*
X187130000Y-106225571D01*
X184415714Y-106225571D02*
X184915714Y-105511286D01*
X185272857Y-106225571D02*
X185272857Y-104725571D01*
X184701429Y-104725571D01*
X184558571Y-104797000D01*
X184487143Y-104868429D01*
X184415714Y-105011286D01*
X184415714Y-105225571D01*
X184487143Y-105368429D01*
X184558571Y-105439857D01*
X184701429Y-105511286D01*
X185272857Y-105511286D01*
X183772857Y-106082714D02*
X183701429Y-106154143D01*
X183772857Y-106225571D01*
X183844286Y-106154143D01*
X183772857Y-106082714D01*
X183772857Y-106225571D01*
X182630000Y-104725571D02*
X182630000Y-105797000D01*
X182701428Y-106011286D01*
X182844285Y-106154143D01*
X183058571Y-106225571D01*
X183201428Y-106225571D01*
X181915714Y-106082714D02*
X181844286Y-106154143D01*
X181915714Y-106225571D01*
X181987143Y-106154143D01*
X181915714Y-106082714D01*
X181915714Y-106225571D01*
X180058571Y-106225571D02*
X180058571Y-104725571D01*
X179701428Y-104725571D01*
X179487143Y-104797000D01*
X179344285Y-104939857D01*
X179272857Y-105082714D01*
X179201428Y-105368429D01*
X179201428Y-105582714D01*
X179272857Y-105868429D01*
X179344285Y-106011286D01*
X179487143Y-106154143D01*
X179701428Y-106225571D01*
X180058571Y-106225571D01*
X178344285Y-106225571D02*
X178487143Y-106154143D01*
X178558571Y-106082714D01*
X178630000Y-105939857D01*
X178630000Y-105511286D01*
X178558571Y-105368429D01*
X178487143Y-105297000D01*
X178344285Y-105225571D01*
X178130000Y-105225571D01*
X177987143Y-105297000D01*
X177915714Y-105368429D01*
X177844285Y-105511286D01*
X177844285Y-105939857D01*
X177915714Y-106082714D01*
X177987143Y-106154143D01*
X178130000Y-106225571D01*
X178344285Y-106225571D01*
X177344285Y-105225571D02*
X177058571Y-106225571D01*
X176772857Y-105511286D01*
X176487142Y-106225571D01*
X176201428Y-105225571D01*
X175629999Y-105225571D02*
X175629999Y-106225571D01*
X175629999Y-105368429D02*
X175558571Y-105297000D01*
X175415713Y-105225571D01*
X175201428Y-105225571D01*
X175058571Y-105297000D01*
X174987142Y-105439857D01*
X174987142Y-106225571D01*
X173701428Y-106154143D02*
X173844285Y-106225571D01*
X174129999Y-106225571D01*
X174272856Y-106154143D01*
X174344285Y-106011286D01*
X174344285Y-105439857D01*
X174272856Y-105297000D01*
X174129999Y-105225571D01*
X173844285Y-105225571D01*
X173701428Y-105297000D01*
X173629999Y-105439857D01*
X173629999Y-105582714D01*
X174344285Y-105725571D01*
X173129999Y-105225571D02*
X172772856Y-106225571D01*
X172415714Y-105225571D02*
X172772856Y-106225571D01*
X172915714Y-106582714D01*
X172987142Y-106654143D01*
X173129999Y-106725571D01*
D12*
X161730000Y-91297000D02*
X161730000Y-89297000D01*
X159580000Y-89297000D02*
X159580000Y-91297000D01*
X169910000Y-93540000D02*
X167910000Y-93540000D01*
X167910000Y-95690000D02*
X169910000Y-95690000D01*
X179816000Y-120845000D02*
X177816000Y-120845000D01*
X177816000Y-122995000D02*
X179816000Y-122995000D01*
X170672000Y-118305000D02*
X168672000Y-118305000D01*
X168672000Y-120455000D02*
X170672000Y-120455000D01*
X170672000Y-120845000D02*
X168672000Y-120845000D01*
X168672000Y-122995000D02*
X170672000Y-122995000D01*
X162036000Y-118305000D02*
X160036000Y-118305000D01*
X160036000Y-120455000D02*
X162036000Y-120455000D01*
X162036000Y-120845000D02*
X160036000Y-120845000D01*
X160036000Y-122995000D02*
X162036000Y-122995000D01*
X179816000Y-118305000D02*
X177816000Y-118305000D01*
X177816000Y-120455000D02*
X179816000Y-120455000D01*
M02*
