G04 #@! TF.FileFunction,Soldermask,Top*
%FSLAX46Y46*%
G04 Gerber Fmt 4.6, Leading zero omitted, Abs format (unit mm)*
G04 Created by KiCad (PCBNEW 4.0.5) date 02/15/17 17:48:56*
%MOMM*%
%LPD*%
G01*
G04 APERTURE LIST*
%ADD10C,0.100000*%
%ADD11R,2.900000X0.670000*%
%ADD12R,4.464000X4.464000*%
%ADD13R,2.000000X2.400000*%
%ADD14C,3.400000*%
%ADD15R,2.000000X2.000000*%
%ADD16O,2.000000X2.000000*%
%ADD17R,2.100000X2.400000*%
%ADD18R,1.650000X1.900000*%
%ADD19R,1.900000X1.650000*%
%ADD20R,1.900000X1.700000*%
%ADD21R,14.100000X6.400000*%
%ADD22R,6.400000X1.340000*%
%ADD23C,3.900000*%
%ADD24R,1.000000X2.900000*%
%ADD25R,1.750000X1.750000*%
%ADD26C,1.750000*%
%ADD27O,2.400000X1.600000*%
%ADD28C,2.400000*%
G04 APERTURE END LIST*
D10*
D11*
X185710000Y-107680000D03*
X190210000Y-107680000D03*
X185710000Y-107180000D03*
X190210000Y-107180000D03*
X185710000Y-106680000D03*
X190210000Y-106680000D03*
X185710000Y-106180000D03*
X190210000Y-106180000D03*
X185710000Y-105680000D03*
X190210000Y-105680000D03*
D12*
X186690000Y-119380000D03*
X186690000Y-92710000D03*
D13*
X166370000Y-104362000D03*
X166370000Y-100362000D03*
D14*
X169799000Y-87757000D03*
D15*
X168656000Y-124460000D03*
D16*
X171196000Y-116840000D03*
X171196000Y-124460000D03*
X168656000Y-116840000D03*
D15*
X181102000Y-96774000D03*
D16*
X181102000Y-89154000D03*
D15*
X160020000Y-124460000D03*
D16*
X162560000Y-116840000D03*
X162560000Y-124460000D03*
X160020000Y-116840000D03*
D15*
X177292000Y-124460000D03*
D16*
X179832000Y-116840000D03*
X179832000Y-124460000D03*
X177292000Y-116840000D03*
D15*
X175006000Y-96774000D03*
D16*
X175006000Y-89154000D03*
D17*
X172212000Y-108236000D03*
X172212000Y-112236000D03*
X175387000Y-108236000D03*
X175387000Y-112236000D03*
D18*
X171704000Y-104882000D03*
X171704000Y-102382000D03*
X173990000Y-104882000D03*
X173990000Y-102382000D03*
X190754000Y-111526000D03*
X190754000Y-114026000D03*
X169164000Y-104882000D03*
X169164000Y-102382000D03*
D19*
X182098000Y-108712000D03*
X179598000Y-108712000D03*
X182098000Y-106680000D03*
X179598000Y-106680000D03*
D20*
X166290000Y-107442000D03*
X168990000Y-107442000D03*
D21*
X199684000Y-119180000D03*
D22*
X196604000Y-103920000D03*
X196604000Y-102540000D03*
X196604000Y-105300000D03*
X196604000Y-106680000D03*
X196604000Y-101160000D03*
X196604000Y-112200000D03*
X196604000Y-110820000D03*
X196604000Y-109440000D03*
X196604000Y-108060000D03*
D21*
X199684000Y-94180000D03*
D23*
X197104000Y-94180000D03*
X197104000Y-119180000D03*
D24*
X170688000Y-97790000D03*
X170688000Y-91376500D03*
X169418000Y-97790000D03*
X169418000Y-91376500D03*
D25*
X164211000Y-91694000D03*
D26*
X164211000Y-89154000D03*
D27*
X161798000Y-98298000D03*
X159258000Y-99568000D03*
X161798000Y-100838000D03*
X159258000Y-102108000D03*
X161798000Y-103378000D03*
X159258000Y-104648000D03*
X161798000Y-105918000D03*
X159258000Y-107188000D03*
X161798000Y-108458000D03*
X159258000Y-109728000D03*
X161798000Y-110998000D03*
X159258000Y-112268000D03*
D28*
X159998000Y-96948000D03*
M02*
