G04 #@! TF.FileFunction,Copper,L2,Bot,Signal*
%FSLAX46Y46*%
G04 Gerber Fmt 4.6, Leading zero omitted, Abs format (unit mm)*
G04 Created by KiCad (PCBNEW 4.0.5) date 02/02/17 02:07:39*
%MOMM*%
%LPD*%
G01*
G04 APERTURE LIST*
%ADD10C,0.100000*%
%ADD11R,1.350000X1.350000*%
%ADD12C,1.350000*%
%ADD13C,3.000000*%
%ADD14R,1.600000X1.600000*%
%ADD15O,1.600000X1.600000*%
%ADD16R,2.000000X1.700000*%
%ADD17C,3.500000*%
%ADD18O,2.000000X1.200000*%
%ADD19C,2.000000*%
%ADD20C,0.600000*%
%ADD21C,0.250000*%
%ADD22C,0.254000*%
G04 APERTURE END LIST*
D10*
D11*
X160020000Y-91948000D03*
D12*
X158020000Y-91948000D03*
D13*
X166116000Y-87630000D03*
D14*
X168656000Y-124460000D03*
D15*
X171196000Y-116840000D03*
X171196000Y-124460000D03*
X168656000Y-116840000D03*
D14*
X181102000Y-96774000D03*
D15*
X181102000Y-89154000D03*
D14*
X160020000Y-124460000D03*
D15*
X162560000Y-116840000D03*
X162560000Y-124460000D03*
X160020000Y-116840000D03*
D14*
X177292000Y-124460000D03*
D15*
X179832000Y-116840000D03*
X179832000Y-124460000D03*
X177292000Y-116840000D03*
D14*
X175006000Y-96774000D03*
D15*
X175006000Y-89154000D03*
D16*
X176816000Y-121920000D03*
X180816000Y-121920000D03*
X167672000Y-119380000D03*
X171672000Y-119380000D03*
X167672000Y-121920000D03*
X171672000Y-121920000D03*
X159036000Y-119380000D03*
X163036000Y-119380000D03*
X159036000Y-121920000D03*
X163036000Y-121920000D03*
X176816000Y-119380000D03*
X180816000Y-119380000D03*
D17*
X197104000Y-94180000D03*
X197104000Y-119180000D03*
D18*
X161798000Y-98298000D03*
X159258000Y-99568000D03*
X161798000Y-100838000D03*
X159258000Y-102108000D03*
X161798000Y-103378000D03*
X159258000Y-104648000D03*
X161798000Y-105918000D03*
X159258000Y-107188000D03*
X161798000Y-108458000D03*
X159258000Y-109728000D03*
X161798000Y-110998000D03*
X159258000Y-112268000D03*
D19*
X159998000Y-96948000D03*
D20*
X188595000Y-114427000D03*
X186690000Y-119380000D03*
X174117000Y-100711000D03*
X170942000Y-90424000D03*
X200660000Y-110744000D03*
X200660000Y-108204000D03*
X200660000Y-105156000D03*
X200660000Y-102616000D03*
X171704000Y-100838000D03*
X183642000Y-104902000D03*
X179832000Y-104648000D03*
X168656000Y-100330000D03*
X192532000Y-111760000D03*
X191008000Y-108712000D03*
X160147000Y-94107000D03*
X200600000Y-117500000D03*
D21*
X161798000Y-98298000D02*
X173482000Y-98298000D01*
X173482000Y-98298000D02*
X175006000Y-96774000D01*
X188595000Y-114427000D02*
X185293000Y-111125000D01*
X185293000Y-106553000D02*
X183642000Y-104902000D01*
X185293000Y-111125000D02*
X185293000Y-106553000D01*
X200660000Y-102616000D02*
X200660000Y-99568000D01*
X176784000Y-98552000D02*
X175006000Y-96774000D01*
X199644000Y-98552000D02*
X176784000Y-98552000D01*
X200660000Y-99568000D02*
X199644000Y-98552000D01*
X186690000Y-119380000D02*
X186690000Y-116332000D01*
X186690000Y-116332000D02*
X188595000Y-114427000D01*
X186690000Y-119380000D02*
X180816000Y-119380000D01*
X179832000Y-104648000D02*
X178054000Y-104648000D01*
X178054000Y-104648000D02*
X174117000Y-100711000D01*
X175006000Y-99822000D02*
X175006000Y-96774000D01*
X174117000Y-100711000D02*
X175006000Y-99822000D01*
X171672000Y-119380000D02*
X171704000Y-119380000D01*
X171704000Y-119380000D02*
X174752000Y-116332000D01*
X174752000Y-116332000D02*
X174752000Y-115062000D01*
X174752000Y-115062000D02*
X175260000Y-114554000D01*
X175260000Y-114554000D02*
X182118000Y-114554000D01*
X182118000Y-114554000D02*
X182626000Y-115062000D01*
X182626000Y-115062000D02*
X182626000Y-117570000D01*
X182626000Y-117570000D02*
X180816000Y-119380000D01*
X180816000Y-119380000D02*
X180816000Y-118904000D01*
X171672000Y-118904000D02*
X171672000Y-119380000D01*
X163036000Y-119380000D02*
X163068000Y-119380000D01*
X163068000Y-119380000D02*
X166624000Y-115824000D01*
X173482000Y-117570000D02*
X171672000Y-119380000D01*
X173482000Y-115824000D02*
X173482000Y-117570000D01*
X172720000Y-115062000D02*
X173482000Y-115824000D01*
X167132000Y-115062000D02*
X172720000Y-115062000D01*
X166624000Y-115570000D02*
X167132000Y-115062000D01*
X166624000Y-115824000D02*
X166624000Y-115570000D01*
X180816000Y-121920000D02*
X180816000Y-119380000D01*
X171672000Y-121920000D02*
X171672000Y-119380000D01*
X163036000Y-121920000D02*
X163036000Y-119380000D01*
X175006000Y-93472000D02*
X175006000Y-96774000D01*
X171958000Y-90424000D02*
X175006000Y-93472000D01*
X170942000Y-90424000D02*
X171958000Y-90424000D01*
X181102000Y-89154000D02*
X178816000Y-89154000D01*
X177292000Y-87630000D02*
X166116000Y-87630000D01*
X178816000Y-89154000D02*
X177292000Y-87630000D01*
X175006000Y-96774000D02*
X175006000Y-93726000D01*
X175006000Y-93726000D02*
X179578000Y-89154000D01*
X179578000Y-89154000D02*
X181102000Y-89154000D01*
X200660000Y-110744000D02*
X200660000Y-108204000D01*
X200660000Y-108204000D02*
X200660000Y-105156000D01*
X200660000Y-102616000D02*
X200660000Y-105156000D01*
X171196000Y-100330000D02*
X168656000Y-100330000D01*
X171704000Y-100838000D02*
X171196000Y-100330000D01*
X183642000Y-104902000D02*
X183388000Y-104648000D01*
X183388000Y-104648000D02*
X179832000Y-104648000D01*
X192532000Y-110236000D02*
X192532000Y-111760000D01*
X191008000Y-108712000D02*
X192532000Y-110236000D01*
X160020000Y-116840000D02*
X158369000Y-116840000D01*
X157099000Y-101727000D02*
X159258000Y-99568000D01*
X157099000Y-115570000D02*
X157099000Y-101727000D01*
X158369000Y-116840000D02*
X157099000Y-115570000D01*
X160528000Y-116840000D02*
X160020000Y-116840000D01*
X163068000Y-116840000D02*
X162814000Y-116840000D01*
X159036000Y-121920000D02*
X160528000Y-121920000D01*
X162560000Y-124460000D02*
X160528000Y-122682000D01*
X160528000Y-122682000D02*
X160528000Y-121920000D01*
X158528000Y-119888000D02*
X157480000Y-119888000D01*
X157988000Y-124460000D02*
X157480000Y-123952000D01*
X157480000Y-123952000D02*
X157480000Y-119888000D01*
X157988000Y-124460000D02*
X160020000Y-124460000D01*
X158528000Y-119888000D02*
X159036000Y-119380000D01*
X171196000Y-124460000D02*
X171196000Y-125222000D01*
X171196000Y-124460000D02*
X171196000Y-124206000D01*
X171196000Y-124206000D02*
X169672000Y-122682000D01*
X169672000Y-122682000D02*
X168434000Y-122682000D01*
X168434000Y-122682000D02*
X167672000Y-121920000D01*
X168656000Y-124460000D02*
X166624000Y-124460000D01*
X166370000Y-119380000D02*
X167672000Y-119380000D01*
X165862000Y-119888000D02*
X166370000Y-119380000D01*
X165862000Y-123698000D02*
X165862000Y-119888000D01*
X166624000Y-124460000D02*
X165862000Y-123698000D01*
X176816000Y-121920000D02*
X177292000Y-121920000D01*
X179832000Y-124460000D02*
X179832000Y-124206000D01*
X179832000Y-124206000D02*
X177546000Y-121920000D01*
X177546000Y-121920000D02*
X176816000Y-121920000D01*
X177292000Y-124460000D02*
X175768000Y-124460000D01*
X175260000Y-119380000D02*
X176816000Y-119380000D01*
X174752000Y-119888000D02*
X175260000Y-119380000D01*
X174752000Y-123444000D02*
X174752000Y-119888000D01*
X175768000Y-124460000D02*
X174752000Y-123444000D01*
X177292000Y-124460000D02*
X177292000Y-123952000D01*
X162560000Y-112268000D02*
X159258000Y-112268000D01*
X163703000Y-111125000D02*
X162560000Y-112268000D01*
X163703000Y-100330000D02*
X163703000Y-111125000D01*
X162941000Y-99568000D02*
X163703000Y-100330000D01*
X161163000Y-99568000D02*
X162941000Y-99568000D01*
X160147000Y-98552000D02*
X161163000Y-99568000D01*
X159385000Y-98552000D02*
X160147000Y-98552000D01*
X158496000Y-97663000D02*
X159385000Y-98552000D01*
X158496000Y-95758000D02*
X158496000Y-97663000D01*
X160147000Y-94107000D02*
X158496000Y-95758000D01*
X180340000Y-97028000D02*
X180340000Y-96520000D01*
D22*
G36*
X199009000Y-113157000D02*
X192584606Y-113157000D01*
X192113803Y-112686197D01*
X192071789Y-112658334D01*
X192024000Y-112649000D01*
X189028606Y-112649000D01*
X188087000Y-111707394D01*
X188087000Y-105208606D01*
X189028606Y-104267000D01*
X189992000Y-104267000D01*
X190041410Y-104256994D01*
X190081803Y-104229803D01*
X191605803Y-102705803D01*
X191633666Y-102663789D01*
X191643000Y-102616000D01*
X191643000Y-100203000D01*
X199009000Y-100203000D01*
X199009000Y-113157000D01*
X199009000Y-113157000D01*
G37*
X199009000Y-113157000D02*
X192584606Y-113157000D01*
X192113803Y-112686197D01*
X192071789Y-112658334D01*
X192024000Y-112649000D01*
X189028606Y-112649000D01*
X188087000Y-111707394D01*
X188087000Y-105208606D01*
X189028606Y-104267000D01*
X189992000Y-104267000D01*
X190041410Y-104256994D01*
X190081803Y-104229803D01*
X191605803Y-102705803D01*
X191633666Y-102663789D01*
X191643000Y-102616000D01*
X191643000Y-100203000D01*
X199009000Y-100203000D01*
X199009000Y-113157000D01*
G36*
X163973277Y-87246187D02*
X163989503Y-88095387D01*
X164283261Y-88804582D01*
X164602030Y-88964365D01*
X165936395Y-87630000D01*
X165922253Y-87615858D01*
X166101858Y-87436253D01*
X166116000Y-87450395D01*
X166130143Y-87436253D01*
X166309748Y-87615858D01*
X166295605Y-87630000D01*
X167629970Y-88964365D01*
X167948739Y-88804582D01*
X168258723Y-88013813D01*
X168242497Y-87164613D01*
X167992887Y-86562000D01*
X205538000Y-86562000D01*
X205538000Y-127306000D01*
X192151000Y-127306000D01*
X192151000Y-119652325D01*
X194718587Y-119652325D01*
X195080916Y-120529229D01*
X195751242Y-121200726D01*
X196627513Y-121564585D01*
X197576325Y-121565413D01*
X198453229Y-121203084D01*
X199124726Y-120532758D01*
X199488585Y-119656487D01*
X199489413Y-118707675D01*
X199127084Y-117830771D01*
X198981734Y-117685167D01*
X199664838Y-117685167D01*
X199806883Y-118028943D01*
X200069673Y-118292192D01*
X200413201Y-118434838D01*
X200785167Y-118435162D01*
X201128943Y-118293117D01*
X201392192Y-118030327D01*
X201534838Y-117686799D01*
X201535162Y-117314833D01*
X201393117Y-116971057D01*
X201130327Y-116707808D01*
X200786799Y-116565162D01*
X200414833Y-116564838D01*
X200071057Y-116706883D01*
X199807808Y-116969673D01*
X199665162Y-117313201D01*
X199664838Y-117685167D01*
X198981734Y-117685167D01*
X198456758Y-117159274D01*
X197580487Y-116795415D01*
X196631675Y-116794587D01*
X195754771Y-117156916D01*
X195083274Y-117827242D01*
X194719415Y-118703513D01*
X194718587Y-119652325D01*
X192151000Y-119652325D01*
X192151000Y-113919000D01*
X199644000Y-113919000D01*
X199693410Y-113908994D01*
X199735035Y-113880553D01*
X199762315Y-113838159D01*
X199771000Y-113792000D01*
X199771000Y-99568000D01*
X199760994Y-99518590D01*
X199732553Y-99476965D01*
X199690159Y-99449685D01*
X199644000Y-99441000D01*
X191008000Y-99441000D01*
X190958590Y-99451006D01*
X190916965Y-99479447D01*
X190889685Y-99521841D01*
X190881000Y-99568000D01*
X190881000Y-102055394D01*
X189431394Y-103505000D01*
X187452000Y-103505000D01*
X187402590Y-103515006D01*
X187360965Y-103543447D01*
X187333685Y-103585841D01*
X187325000Y-103632000D01*
X187325000Y-112268000D01*
X187335006Y-112317410D01*
X187362197Y-112357803D01*
X188378197Y-113373803D01*
X188420211Y-113401666D01*
X188468000Y-113411000D01*
X191389000Y-113411000D01*
X191389000Y-127306000D01*
X156920000Y-127306000D01*
X156920000Y-124455579D01*
X156942599Y-124489401D01*
X157450599Y-124997401D01*
X157697161Y-125162148D01*
X157988000Y-125220000D01*
X158572560Y-125220000D01*
X158572560Y-125260000D01*
X158616838Y-125495317D01*
X158755910Y-125711441D01*
X158968110Y-125856431D01*
X159220000Y-125907440D01*
X160820000Y-125907440D01*
X161055317Y-125863162D01*
X161271441Y-125724090D01*
X161416431Y-125511890D01*
X161447815Y-125356911D01*
X161545302Y-125502811D01*
X162010849Y-125813880D01*
X162560000Y-125923113D01*
X163109151Y-125813880D01*
X163574698Y-125502811D01*
X163885767Y-125037264D01*
X163995000Y-124488113D01*
X163995000Y-124431887D01*
X163885767Y-123882736D01*
X163574698Y-123417189D01*
X163556456Y-123405000D01*
X164162309Y-123405000D01*
X164395698Y-123308327D01*
X164574327Y-123129699D01*
X164671000Y-122896310D01*
X164671000Y-122205750D01*
X164512250Y-122047000D01*
X163163000Y-122047000D01*
X163163000Y-122067000D01*
X162909000Y-122067000D01*
X162909000Y-122047000D01*
X161559750Y-122047000D01*
X161401000Y-122205750D01*
X161401000Y-122436011D01*
X161288000Y-122337136D01*
X161288000Y-121920000D01*
X161230148Y-121629161D01*
X161065401Y-121382599D01*
X160818839Y-121217852D01*
X160683440Y-121190919D01*
X160683440Y-121070000D01*
X160639162Y-120834683D01*
X160518985Y-120647923D01*
X160632431Y-120481890D01*
X160683440Y-120230000D01*
X160683440Y-119665750D01*
X161401000Y-119665750D01*
X161401000Y-120356310D01*
X161497673Y-120589699D01*
X161557974Y-120650000D01*
X161497673Y-120710301D01*
X161401000Y-120943690D01*
X161401000Y-121634250D01*
X161559750Y-121793000D01*
X162909000Y-121793000D01*
X162909000Y-119507000D01*
X163163000Y-119507000D01*
X163163000Y-121793000D01*
X164512250Y-121793000D01*
X164671000Y-121634250D01*
X164671000Y-120943690D01*
X164574327Y-120710301D01*
X164514026Y-120650000D01*
X164574327Y-120589699D01*
X164671000Y-120356310D01*
X164671000Y-119888000D01*
X165102000Y-119888000D01*
X165102000Y-123698000D01*
X165159852Y-123988839D01*
X165324599Y-124235401D01*
X166086599Y-124997401D01*
X166333161Y-125162148D01*
X166624000Y-125220000D01*
X167208560Y-125220000D01*
X167208560Y-125260000D01*
X167252838Y-125495317D01*
X167391910Y-125711441D01*
X167604110Y-125856431D01*
X167856000Y-125907440D01*
X169456000Y-125907440D01*
X169691317Y-125863162D01*
X169907441Y-125724090D01*
X170052431Y-125511890D01*
X170083815Y-125356911D01*
X170181302Y-125502811D01*
X170646849Y-125813880D01*
X170779674Y-125840301D01*
X170905161Y-125924148D01*
X171196000Y-125982000D01*
X171486839Y-125924148D01*
X171612326Y-125840301D01*
X171745151Y-125813880D01*
X172210698Y-125502811D01*
X172521767Y-125037264D01*
X172631000Y-124488113D01*
X172631000Y-124431887D01*
X172521767Y-123882736D01*
X172210698Y-123417189D01*
X172192456Y-123405000D01*
X172798309Y-123405000D01*
X173031698Y-123308327D01*
X173210327Y-123129699D01*
X173307000Y-122896310D01*
X173307000Y-122205750D01*
X173148250Y-122047000D01*
X171799000Y-122047000D01*
X171799000Y-122067000D01*
X171545000Y-122067000D01*
X171545000Y-122047000D01*
X170195750Y-122047000D01*
X170142711Y-122100039D01*
X169962839Y-121979852D01*
X169672000Y-121922000D01*
X169319440Y-121922000D01*
X169319440Y-121070000D01*
X169275162Y-120834683D01*
X169154985Y-120647923D01*
X169268431Y-120481890D01*
X169319440Y-120230000D01*
X169319440Y-119665750D01*
X170037000Y-119665750D01*
X170037000Y-120356310D01*
X170133673Y-120589699D01*
X170193974Y-120650000D01*
X170133673Y-120710301D01*
X170037000Y-120943690D01*
X170037000Y-121634250D01*
X170195750Y-121793000D01*
X171545000Y-121793000D01*
X171545000Y-119507000D01*
X171799000Y-119507000D01*
X171799000Y-121793000D01*
X173148250Y-121793000D01*
X173307000Y-121634250D01*
X173307000Y-120943690D01*
X173210327Y-120710301D01*
X173150026Y-120650000D01*
X173210327Y-120589699D01*
X173307000Y-120356310D01*
X173307000Y-119888000D01*
X173992000Y-119888000D01*
X173992000Y-123444000D01*
X174049852Y-123734839D01*
X174214599Y-123981401D01*
X175230599Y-124997401D01*
X175477161Y-125162148D01*
X175768000Y-125220000D01*
X175844560Y-125220000D01*
X175844560Y-125260000D01*
X175888838Y-125495317D01*
X176027910Y-125711441D01*
X176240110Y-125856431D01*
X176492000Y-125907440D01*
X178092000Y-125907440D01*
X178327317Y-125863162D01*
X178543441Y-125724090D01*
X178688431Y-125511890D01*
X178719815Y-125356911D01*
X178817302Y-125502811D01*
X179282849Y-125813880D01*
X179832000Y-125923113D01*
X180381151Y-125813880D01*
X180846698Y-125502811D01*
X181157767Y-125037264D01*
X181267000Y-124488113D01*
X181267000Y-124431887D01*
X181157767Y-123882736D01*
X180846698Y-123417189D01*
X180828456Y-123405000D01*
X180943002Y-123405000D01*
X180943002Y-123246252D01*
X181101750Y-123405000D01*
X181942309Y-123405000D01*
X182175698Y-123308327D01*
X182354327Y-123129699D01*
X182451000Y-122896310D01*
X182451000Y-122205750D01*
X182292250Y-122047000D01*
X180943000Y-122047000D01*
X180943000Y-122067000D01*
X180689000Y-122067000D01*
X180689000Y-122047000D01*
X179339750Y-122047000D01*
X179181000Y-122205750D01*
X179181000Y-122480198D01*
X178463440Y-121762638D01*
X178463440Y-121070000D01*
X178419162Y-120834683D01*
X178298985Y-120647923D01*
X178412431Y-120481890D01*
X178463440Y-120230000D01*
X178463440Y-119665750D01*
X179181000Y-119665750D01*
X179181000Y-120356310D01*
X179277673Y-120589699D01*
X179337974Y-120650000D01*
X179277673Y-120710301D01*
X179181000Y-120943690D01*
X179181000Y-121634250D01*
X179339750Y-121793000D01*
X180689000Y-121793000D01*
X180689000Y-119507000D01*
X180943000Y-119507000D01*
X180943000Y-121793000D01*
X182292250Y-121793000D01*
X182451000Y-121634250D01*
X182451000Y-120943690D01*
X182354327Y-120710301D01*
X182294026Y-120650000D01*
X182354327Y-120589699D01*
X182451000Y-120356310D01*
X182451000Y-119665750D01*
X182292250Y-119507000D01*
X180943000Y-119507000D01*
X180689000Y-119507000D01*
X179339750Y-119507000D01*
X179181000Y-119665750D01*
X178463440Y-119665750D01*
X178463440Y-118530000D01*
X178419162Y-118294683D01*
X178280090Y-118078559D01*
X178148403Y-117988581D01*
X178306698Y-117882811D01*
X178562000Y-117500725D01*
X178817302Y-117882811D01*
X179271145Y-118186060D01*
X179181000Y-118403690D01*
X179181000Y-119094250D01*
X179339750Y-119253000D01*
X180689000Y-119253000D01*
X180689000Y-119233000D01*
X180943000Y-119233000D01*
X180943000Y-119253000D01*
X182292250Y-119253000D01*
X182451000Y-119094250D01*
X182451000Y-118403690D01*
X182354327Y-118170301D01*
X182175698Y-117991673D01*
X181942309Y-117895000D01*
X181101750Y-117895000D01*
X180943002Y-118053748D01*
X180943002Y-117895000D01*
X180828456Y-117895000D01*
X180846698Y-117882811D01*
X181157767Y-117417264D01*
X181267000Y-116868113D01*
X181267000Y-116811887D01*
X181157767Y-116262736D01*
X180846698Y-115797189D01*
X180381151Y-115486120D01*
X179832000Y-115376887D01*
X179282849Y-115486120D01*
X178817302Y-115797189D01*
X178562000Y-116179275D01*
X178306698Y-115797189D01*
X177841151Y-115486120D01*
X177292000Y-115376887D01*
X176742849Y-115486120D01*
X176277302Y-115797189D01*
X175966233Y-116262736D01*
X175857000Y-116811887D01*
X175857000Y-116868113D01*
X175966233Y-117417264D01*
X176277134Y-117882560D01*
X175816000Y-117882560D01*
X175580683Y-117926838D01*
X175364559Y-118065910D01*
X175219569Y-118278110D01*
X175168560Y-118530000D01*
X175168560Y-118638189D01*
X174969161Y-118677852D01*
X174924528Y-118707675D01*
X174722599Y-118842599D01*
X174214599Y-119350599D01*
X174049852Y-119597161D01*
X173992000Y-119888000D01*
X173307000Y-119888000D01*
X173307000Y-119665750D01*
X173148250Y-119507000D01*
X171799000Y-119507000D01*
X171545000Y-119507000D01*
X170195750Y-119507000D01*
X170037000Y-119665750D01*
X169319440Y-119665750D01*
X169319440Y-118530000D01*
X169275162Y-118294683D01*
X169208750Y-118191475D01*
X169670698Y-117882811D01*
X169926000Y-117500725D01*
X170181302Y-117882811D01*
X170332009Y-117983510D01*
X170312302Y-117991673D01*
X170133673Y-118170301D01*
X170037000Y-118403690D01*
X170037000Y-119094250D01*
X170195750Y-119253000D01*
X171545000Y-119253000D01*
X171545000Y-119233000D01*
X171799000Y-119233000D01*
X171799000Y-119253000D01*
X173148250Y-119253000D01*
X173307000Y-119094250D01*
X173307000Y-118403690D01*
X173210327Y-118170301D01*
X173031698Y-117991673D01*
X172798309Y-117895000D01*
X172192456Y-117895000D01*
X172210698Y-117882811D01*
X172521767Y-117417264D01*
X172631000Y-116868113D01*
X172631000Y-116811887D01*
X172521767Y-116262736D01*
X172210698Y-115797189D01*
X171745151Y-115486120D01*
X171196000Y-115376887D01*
X170646849Y-115486120D01*
X170181302Y-115797189D01*
X169926000Y-116179275D01*
X169670698Y-115797189D01*
X169205151Y-115486120D01*
X168656000Y-115376887D01*
X168106849Y-115486120D01*
X167641302Y-115797189D01*
X167330233Y-116262736D01*
X167221000Y-116811887D01*
X167221000Y-116868113D01*
X167330233Y-117417264D01*
X167641134Y-117882560D01*
X166672000Y-117882560D01*
X166436683Y-117926838D01*
X166220559Y-118065910D01*
X166075569Y-118278110D01*
X166024560Y-118530000D01*
X166024560Y-118714335D01*
X165832599Y-118842599D01*
X165324599Y-119350599D01*
X165159852Y-119597161D01*
X165102000Y-119888000D01*
X164671000Y-119888000D01*
X164671000Y-119665750D01*
X164512250Y-119507000D01*
X163163000Y-119507000D01*
X162909000Y-119507000D01*
X161559750Y-119507000D01*
X161401000Y-119665750D01*
X160683440Y-119665750D01*
X160683440Y-118530000D01*
X160639162Y-118294683D01*
X160572750Y-118191475D01*
X161034698Y-117882811D01*
X161290000Y-117500725D01*
X161545302Y-117882811D01*
X161696009Y-117983510D01*
X161676302Y-117991673D01*
X161497673Y-118170301D01*
X161401000Y-118403690D01*
X161401000Y-119094250D01*
X161559750Y-119253000D01*
X162909000Y-119253000D01*
X162909000Y-119233000D01*
X163163000Y-119233000D01*
X163163000Y-119253000D01*
X164512250Y-119253000D01*
X164671000Y-119094250D01*
X164671000Y-118403690D01*
X164574327Y-118170301D01*
X164395698Y-117991673D01*
X164162309Y-117895000D01*
X163556456Y-117895000D01*
X163574698Y-117882811D01*
X163885767Y-117417264D01*
X163995000Y-116868113D01*
X163995000Y-116811887D01*
X163885767Y-116262736D01*
X163574698Y-115797189D01*
X163109151Y-115486120D01*
X162560000Y-115376887D01*
X162010849Y-115486120D01*
X161545302Y-115797189D01*
X161290000Y-116179275D01*
X161034698Y-115797189D01*
X160569151Y-115486120D01*
X160020000Y-115376887D01*
X159470849Y-115486120D01*
X159005302Y-115797189D01*
X158816333Y-116080000D01*
X158683802Y-116080000D01*
X157859000Y-115255198D01*
X157859000Y-113001058D01*
X157952691Y-113141277D01*
X158353354Y-113408991D01*
X158825968Y-113503000D01*
X159690032Y-113503000D01*
X160162646Y-113408991D01*
X160563309Y-113141277D01*
X160638998Y-113028000D01*
X162560000Y-113028000D01*
X162850839Y-112970148D01*
X163097401Y-112805401D01*
X164240401Y-111662401D01*
X164405148Y-111415839D01*
X164463000Y-111125000D01*
X164463000Y-100330000D01*
X164405148Y-100039161D01*
X164240401Y-99792599D01*
X163478401Y-99030599D01*
X163263834Y-98887230D01*
X163387592Y-98653281D01*
X163391462Y-98615609D01*
X163266731Y-98425000D01*
X161925000Y-98425000D01*
X161925000Y-98445000D01*
X161671000Y-98445000D01*
X161671000Y-98425000D01*
X161651000Y-98425000D01*
X161651000Y-98171000D01*
X161671000Y-98171000D01*
X161671000Y-97063000D01*
X161925000Y-97063000D01*
X161925000Y-98171000D01*
X163266731Y-98171000D01*
X163391462Y-97980391D01*
X163387592Y-97942719D01*
X163161080Y-97514526D01*
X162787947Y-97205610D01*
X162325000Y-97063000D01*
X161925000Y-97063000D01*
X161671000Y-97063000D01*
X161632901Y-97063000D01*
X161632903Y-97059750D01*
X173571000Y-97059750D01*
X173571000Y-97700309D01*
X173667673Y-97933698D01*
X173846301Y-98112327D01*
X174079690Y-98209000D01*
X174720250Y-98209000D01*
X174879000Y-98050250D01*
X174879000Y-96901000D01*
X175133000Y-96901000D01*
X175133000Y-98050250D01*
X175291750Y-98209000D01*
X175932310Y-98209000D01*
X176165699Y-98112327D01*
X176344327Y-97933698D01*
X176441000Y-97700309D01*
X176441000Y-97059750D01*
X176282250Y-96901000D01*
X175133000Y-96901000D01*
X174879000Y-96901000D01*
X173729750Y-96901000D01*
X173571000Y-97059750D01*
X161632903Y-97059750D01*
X161633284Y-96624205D01*
X161384894Y-96023057D01*
X161209835Y-95847691D01*
X173571000Y-95847691D01*
X173571000Y-96488250D01*
X173729750Y-96647000D01*
X174879000Y-96647000D01*
X174879000Y-95497750D01*
X175133000Y-95497750D01*
X175133000Y-96647000D01*
X176282250Y-96647000D01*
X176409250Y-96520000D01*
X179580000Y-96520000D01*
X179580000Y-97028000D01*
X179637852Y-97318839D01*
X179654560Y-97343844D01*
X179654560Y-97574000D01*
X179698838Y-97809317D01*
X179837910Y-98025441D01*
X180050110Y-98170431D01*
X180302000Y-98221440D01*
X181902000Y-98221440D01*
X182137317Y-98177162D01*
X182353441Y-98038090D01*
X182498431Y-97825890D01*
X182549440Y-97574000D01*
X182549440Y-95974000D01*
X182505162Y-95738683D01*
X182366090Y-95522559D01*
X182153890Y-95377569D01*
X181902000Y-95326560D01*
X180302000Y-95326560D01*
X180066683Y-95370838D01*
X179850559Y-95509910D01*
X179705569Y-95722110D01*
X179654560Y-95974000D01*
X179654560Y-96204156D01*
X179637852Y-96229161D01*
X179580000Y-96520000D01*
X176409250Y-96520000D01*
X176441000Y-96488250D01*
X176441000Y-95847691D01*
X176344327Y-95614302D01*
X176165699Y-95435673D01*
X175932310Y-95339000D01*
X175291750Y-95339000D01*
X175133000Y-95497750D01*
X174879000Y-95497750D01*
X174720250Y-95339000D01*
X174079690Y-95339000D01*
X173846301Y-95435673D01*
X173667673Y-95614302D01*
X173571000Y-95847691D01*
X161209835Y-95847691D01*
X160925363Y-95562722D01*
X160324648Y-95313284D01*
X160015788Y-95313014D01*
X160286680Y-95042122D01*
X160332167Y-95042162D01*
X160675943Y-94900117D01*
X160924167Y-94652325D01*
X194718587Y-94652325D01*
X195080916Y-95529229D01*
X195751242Y-96200726D01*
X196627513Y-96564585D01*
X197576325Y-96565413D01*
X198453229Y-96203084D01*
X199124726Y-95532758D01*
X199488585Y-94656487D01*
X199489413Y-93707675D01*
X199127084Y-92830771D01*
X198456758Y-92159274D01*
X197580487Y-91795415D01*
X196631675Y-91794587D01*
X195754771Y-92156916D01*
X195083274Y-92827242D01*
X194719415Y-93703513D01*
X194718587Y-94652325D01*
X160924167Y-94652325D01*
X160939192Y-94637327D01*
X161081838Y-94293799D01*
X161082162Y-93921833D01*
X160940117Y-93578057D01*
X160677327Y-93314808D01*
X160570478Y-93270440D01*
X160695000Y-93270440D01*
X160930317Y-93226162D01*
X161146441Y-93087090D01*
X161291431Y-92874890D01*
X161342440Y-92623000D01*
X161342440Y-91273000D01*
X161298162Y-91037683D01*
X161159090Y-90821559D01*
X160946890Y-90676569D01*
X160695000Y-90625560D01*
X159345000Y-90625560D01*
X159109683Y-90669838D01*
X158893559Y-90808910D01*
X158828684Y-90903858D01*
X158763024Y-90838084D01*
X158281718Y-90638228D01*
X157760568Y-90637774D01*
X157278914Y-90836789D01*
X156920000Y-91195077D01*
X156920000Y-89143970D01*
X164781635Y-89143970D01*
X164941418Y-89462739D01*
X165732187Y-89772723D01*
X166581387Y-89756497D01*
X167290582Y-89462739D01*
X167450365Y-89143970D01*
X167432282Y-89125887D01*
X173571000Y-89125887D01*
X173571000Y-89182113D01*
X173680233Y-89731264D01*
X173991302Y-90196811D01*
X174456849Y-90507880D01*
X175006000Y-90617113D01*
X175555151Y-90507880D01*
X176020698Y-90196811D01*
X176331767Y-89731264D01*
X176377163Y-89503041D01*
X179710086Y-89503041D01*
X179949611Y-90009134D01*
X180364577Y-90385041D01*
X180752961Y-90545904D01*
X180975000Y-90423915D01*
X180975000Y-89281000D01*
X181229000Y-89281000D01*
X181229000Y-90423915D01*
X181451039Y-90545904D01*
X181839423Y-90385041D01*
X182254389Y-90009134D01*
X182493914Y-89503041D01*
X182372629Y-89281000D01*
X181229000Y-89281000D01*
X180975000Y-89281000D01*
X179831371Y-89281000D01*
X179710086Y-89503041D01*
X176377163Y-89503041D01*
X176441000Y-89182113D01*
X176441000Y-89125887D01*
X176377164Y-88804959D01*
X179710086Y-88804959D01*
X179831371Y-89027000D01*
X180975000Y-89027000D01*
X180975000Y-87884085D01*
X181229000Y-87884085D01*
X181229000Y-89027000D01*
X182372629Y-89027000D01*
X182493914Y-88804959D01*
X182254389Y-88298866D01*
X181839423Y-87922959D01*
X181451039Y-87762096D01*
X181229000Y-87884085D01*
X180975000Y-87884085D01*
X180752961Y-87762096D01*
X180364577Y-87922959D01*
X179949611Y-88298866D01*
X179710086Y-88804959D01*
X176377164Y-88804959D01*
X176331767Y-88576736D01*
X176020698Y-88111189D01*
X175555151Y-87800120D01*
X175006000Y-87690887D01*
X174456849Y-87800120D01*
X173991302Y-88111189D01*
X173680233Y-88576736D01*
X173571000Y-89125887D01*
X167432282Y-89125887D01*
X166116000Y-87809605D01*
X164781635Y-89143970D01*
X156920000Y-89143970D01*
X156920000Y-86562000D01*
X164241481Y-86562000D01*
X163973277Y-87246187D01*
X163973277Y-87246187D01*
G37*
X163973277Y-87246187D02*
X163989503Y-88095387D01*
X164283261Y-88804582D01*
X164602030Y-88964365D01*
X165936395Y-87630000D01*
X165922253Y-87615858D01*
X166101858Y-87436253D01*
X166116000Y-87450395D01*
X166130143Y-87436253D01*
X166309748Y-87615858D01*
X166295605Y-87630000D01*
X167629970Y-88964365D01*
X167948739Y-88804582D01*
X168258723Y-88013813D01*
X168242497Y-87164613D01*
X167992887Y-86562000D01*
X205538000Y-86562000D01*
X205538000Y-127306000D01*
X192151000Y-127306000D01*
X192151000Y-119652325D01*
X194718587Y-119652325D01*
X195080916Y-120529229D01*
X195751242Y-121200726D01*
X196627513Y-121564585D01*
X197576325Y-121565413D01*
X198453229Y-121203084D01*
X199124726Y-120532758D01*
X199488585Y-119656487D01*
X199489413Y-118707675D01*
X199127084Y-117830771D01*
X198981734Y-117685167D01*
X199664838Y-117685167D01*
X199806883Y-118028943D01*
X200069673Y-118292192D01*
X200413201Y-118434838D01*
X200785167Y-118435162D01*
X201128943Y-118293117D01*
X201392192Y-118030327D01*
X201534838Y-117686799D01*
X201535162Y-117314833D01*
X201393117Y-116971057D01*
X201130327Y-116707808D01*
X200786799Y-116565162D01*
X200414833Y-116564838D01*
X200071057Y-116706883D01*
X199807808Y-116969673D01*
X199665162Y-117313201D01*
X199664838Y-117685167D01*
X198981734Y-117685167D01*
X198456758Y-117159274D01*
X197580487Y-116795415D01*
X196631675Y-116794587D01*
X195754771Y-117156916D01*
X195083274Y-117827242D01*
X194719415Y-118703513D01*
X194718587Y-119652325D01*
X192151000Y-119652325D01*
X192151000Y-113919000D01*
X199644000Y-113919000D01*
X199693410Y-113908994D01*
X199735035Y-113880553D01*
X199762315Y-113838159D01*
X199771000Y-113792000D01*
X199771000Y-99568000D01*
X199760994Y-99518590D01*
X199732553Y-99476965D01*
X199690159Y-99449685D01*
X199644000Y-99441000D01*
X191008000Y-99441000D01*
X190958590Y-99451006D01*
X190916965Y-99479447D01*
X190889685Y-99521841D01*
X190881000Y-99568000D01*
X190881000Y-102055394D01*
X189431394Y-103505000D01*
X187452000Y-103505000D01*
X187402590Y-103515006D01*
X187360965Y-103543447D01*
X187333685Y-103585841D01*
X187325000Y-103632000D01*
X187325000Y-112268000D01*
X187335006Y-112317410D01*
X187362197Y-112357803D01*
X188378197Y-113373803D01*
X188420211Y-113401666D01*
X188468000Y-113411000D01*
X191389000Y-113411000D01*
X191389000Y-127306000D01*
X156920000Y-127306000D01*
X156920000Y-124455579D01*
X156942599Y-124489401D01*
X157450599Y-124997401D01*
X157697161Y-125162148D01*
X157988000Y-125220000D01*
X158572560Y-125220000D01*
X158572560Y-125260000D01*
X158616838Y-125495317D01*
X158755910Y-125711441D01*
X158968110Y-125856431D01*
X159220000Y-125907440D01*
X160820000Y-125907440D01*
X161055317Y-125863162D01*
X161271441Y-125724090D01*
X161416431Y-125511890D01*
X161447815Y-125356911D01*
X161545302Y-125502811D01*
X162010849Y-125813880D01*
X162560000Y-125923113D01*
X163109151Y-125813880D01*
X163574698Y-125502811D01*
X163885767Y-125037264D01*
X163995000Y-124488113D01*
X163995000Y-124431887D01*
X163885767Y-123882736D01*
X163574698Y-123417189D01*
X163556456Y-123405000D01*
X164162309Y-123405000D01*
X164395698Y-123308327D01*
X164574327Y-123129699D01*
X164671000Y-122896310D01*
X164671000Y-122205750D01*
X164512250Y-122047000D01*
X163163000Y-122047000D01*
X163163000Y-122067000D01*
X162909000Y-122067000D01*
X162909000Y-122047000D01*
X161559750Y-122047000D01*
X161401000Y-122205750D01*
X161401000Y-122436011D01*
X161288000Y-122337136D01*
X161288000Y-121920000D01*
X161230148Y-121629161D01*
X161065401Y-121382599D01*
X160818839Y-121217852D01*
X160683440Y-121190919D01*
X160683440Y-121070000D01*
X160639162Y-120834683D01*
X160518985Y-120647923D01*
X160632431Y-120481890D01*
X160683440Y-120230000D01*
X160683440Y-119665750D01*
X161401000Y-119665750D01*
X161401000Y-120356310D01*
X161497673Y-120589699D01*
X161557974Y-120650000D01*
X161497673Y-120710301D01*
X161401000Y-120943690D01*
X161401000Y-121634250D01*
X161559750Y-121793000D01*
X162909000Y-121793000D01*
X162909000Y-119507000D01*
X163163000Y-119507000D01*
X163163000Y-121793000D01*
X164512250Y-121793000D01*
X164671000Y-121634250D01*
X164671000Y-120943690D01*
X164574327Y-120710301D01*
X164514026Y-120650000D01*
X164574327Y-120589699D01*
X164671000Y-120356310D01*
X164671000Y-119888000D01*
X165102000Y-119888000D01*
X165102000Y-123698000D01*
X165159852Y-123988839D01*
X165324599Y-124235401D01*
X166086599Y-124997401D01*
X166333161Y-125162148D01*
X166624000Y-125220000D01*
X167208560Y-125220000D01*
X167208560Y-125260000D01*
X167252838Y-125495317D01*
X167391910Y-125711441D01*
X167604110Y-125856431D01*
X167856000Y-125907440D01*
X169456000Y-125907440D01*
X169691317Y-125863162D01*
X169907441Y-125724090D01*
X170052431Y-125511890D01*
X170083815Y-125356911D01*
X170181302Y-125502811D01*
X170646849Y-125813880D01*
X170779674Y-125840301D01*
X170905161Y-125924148D01*
X171196000Y-125982000D01*
X171486839Y-125924148D01*
X171612326Y-125840301D01*
X171745151Y-125813880D01*
X172210698Y-125502811D01*
X172521767Y-125037264D01*
X172631000Y-124488113D01*
X172631000Y-124431887D01*
X172521767Y-123882736D01*
X172210698Y-123417189D01*
X172192456Y-123405000D01*
X172798309Y-123405000D01*
X173031698Y-123308327D01*
X173210327Y-123129699D01*
X173307000Y-122896310D01*
X173307000Y-122205750D01*
X173148250Y-122047000D01*
X171799000Y-122047000D01*
X171799000Y-122067000D01*
X171545000Y-122067000D01*
X171545000Y-122047000D01*
X170195750Y-122047000D01*
X170142711Y-122100039D01*
X169962839Y-121979852D01*
X169672000Y-121922000D01*
X169319440Y-121922000D01*
X169319440Y-121070000D01*
X169275162Y-120834683D01*
X169154985Y-120647923D01*
X169268431Y-120481890D01*
X169319440Y-120230000D01*
X169319440Y-119665750D01*
X170037000Y-119665750D01*
X170037000Y-120356310D01*
X170133673Y-120589699D01*
X170193974Y-120650000D01*
X170133673Y-120710301D01*
X170037000Y-120943690D01*
X170037000Y-121634250D01*
X170195750Y-121793000D01*
X171545000Y-121793000D01*
X171545000Y-119507000D01*
X171799000Y-119507000D01*
X171799000Y-121793000D01*
X173148250Y-121793000D01*
X173307000Y-121634250D01*
X173307000Y-120943690D01*
X173210327Y-120710301D01*
X173150026Y-120650000D01*
X173210327Y-120589699D01*
X173307000Y-120356310D01*
X173307000Y-119888000D01*
X173992000Y-119888000D01*
X173992000Y-123444000D01*
X174049852Y-123734839D01*
X174214599Y-123981401D01*
X175230599Y-124997401D01*
X175477161Y-125162148D01*
X175768000Y-125220000D01*
X175844560Y-125220000D01*
X175844560Y-125260000D01*
X175888838Y-125495317D01*
X176027910Y-125711441D01*
X176240110Y-125856431D01*
X176492000Y-125907440D01*
X178092000Y-125907440D01*
X178327317Y-125863162D01*
X178543441Y-125724090D01*
X178688431Y-125511890D01*
X178719815Y-125356911D01*
X178817302Y-125502811D01*
X179282849Y-125813880D01*
X179832000Y-125923113D01*
X180381151Y-125813880D01*
X180846698Y-125502811D01*
X181157767Y-125037264D01*
X181267000Y-124488113D01*
X181267000Y-124431887D01*
X181157767Y-123882736D01*
X180846698Y-123417189D01*
X180828456Y-123405000D01*
X180943002Y-123405000D01*
X180943002Y-123246252D01*
X181101750Y-123405000D01*
X181942309Y-123405000D01*
X182175698Y-123308327D01*
X182354327Y-123129699D01*
X182451000Y-122896310D01*
X182451000Y-122205750D01*
X182292250Y-122047000D01*
X180943000Y-122047000D01*
X180943000Y-122067000D01*
X180689000Y-122067000D01*
X180689000Y-122047000D01*
X179339750Y-122047000D01*
X179181000Y-122205750D01*
X179181000Y-122480198D01*
X178463440Y-121762638D01*
X178463440Y-121070000D01*
X178419162Y-120834683D01*
X178298985Y-120647923D01*
X178412431Y-120481890D01*
X178463440Y-120230000D01*
X178463440Y-119665750D01*
X179181000Y-119665750D01*
X179181000Y-120356310D01*
X179277673Y-120589699D01*
X179337974Y-120650000D01*
X179277673Y-120710301D01*
X179181000Y-120943690D01*
X179181000Y-121634250D01*
X179339750Y-121793000D01*
X180689000Y-121793000D01*
X180689000Y-119507000D01*
X180943000Y-119507000D01*
X180943000Y-121793000D01*
X182292250Y-121793000D01*
X182451000Y-121634250D01*
X182451000Y-120943690D01*
X182354327Y-120710301D01*
X182294026Y-120650000D01*
X182354327Y-120589699D01*
X182451000Y-120356310D01*
X182451000Y-119665750D01*
X182292250Y-119507000D01*
X180943000Y-119507000D01*
X180689000Y-119507000D01*
X179339750Y-119507000D01*
X179181000Y-119665750D01*
X178463440Y-119665750D01*
X178463440Y-118530000D01*
X178419162Y-118294683D01*
X178280090Y-118078559D01*
X178148403Y-117988581D01*
X178306698Y-117882811D01*
X178562000Y-117500725D01*
X178817302Y-117882811D01*
X179271145Y-118186060D01*
X179181000Y-118403690D01*
X179181000Y-119094250D01*
X179339750Y-119253000D01*
X180689000Y-119253000D01*
X180689000Y-119233000D01*
X180943000Y-119233000D01*
X180943000Y-119253000D01*
X182292250Y-119253000D01*
X182451000Y-119094250D01*
X182451000Y-118403690D01*
X182354327Y-118170301D01*
X182175698Y-117991673D01*
X181942309Y-117895000D01*
X181101750Y-117895000D01*
X180943002Y-118053748D01*
X180943002Y-117895000D01*
X180828456Y-117895000D01*
X180846698Y-117882811D01*
X181157767Y-117417264D01*
X181267000Y-116868113D01*
X181267000Y-116811887D01*
X181157767Y-116262736D01*
X180846698Y-115797189D01*
X180381151Y-115486120D01*
X179832000Y-115376887D01*
X179282849Y-115486120D01*
X178817302Y-115797189D01*
X178562000Y-116179275D01*
X178306698Y-115797189D01*
X177841151Y-115486120D01*
X177292000Y-115376887D01*
X176742849Y-115486120D01*
X176277302Y-115797189D01*
X175966233Y-116262736D01*
X175857000Y-116811887D01*
X175857000Y-116868113D01*
X175966233Y-117417264D01*
X176277134Y-117882560D01*
X175816000Y-117882560D01*
X175580683Y-117926838D01*
X175364559Y-118065910D01*
X175219569Y-118278110D01*
X175168560Y-118530000D01*
X175168560Y-118638189D01*
X174969161Y-118677852D01*
X174924528Y-118707675D01*
X174722599Y-118842599D01*
X174214599Y-119350599D01*
X174049852Y-119597161D01*
X173992000Y-119888000D01*
X173307000Y-119888000D01*
X173307000Y-119665750D01*
X173148250Y-119507000D01*
X171799000Y-119507000D01*
X171545000Y-119507000D01*
X170195750Y-119507000D01*
X170037000Y-119665750D01*
X169319440Y-119665750D01*
X169319440Y-118530000D01*
X169275162Y-118294683D01*
X169208750Y-118191475D01*
X169670698Y-117882811D01*
X169926000Y-117500725D01*
X170181302Y-117882811D01*
X170332009Y-117983510D01*
X170312302Y-117991673D01*
X170133673Y-118170301D01*
X170037000Y-118403690D01*
X170037000Y-119094250D01*
X170195750Y-119253000D01*
X171545000Y-119253000D01*
X171545000Y-119233000D01*
X171799000Y-119233000D01*
X171799000Y-119253000D01*
X173148250Y-119253000D01*
X173307000Y-119094250D01*
X173307000Y-118403690D01*
X173210327Y-118170301D01*
X173031698Y-117991673D01*
X172798309Y-117895000D01*
X172192456Y-117895000D01*
X172210698Y-117882811D01*
X172521767Y-117417264D01*
X172631000Y-116868113D01*
X172631000Y-116811887D01*
X172521767Y-116262736D01*
X172210698Y-115797189D01*
X171745151Y-115486120D01*
X171196000Y-115376887D01*
X170646849Y-115486120D01*
X170181302Y-115797189D01*
X169926000Y-116179275D01*
X169670698Y-115797189D01*
X169205151Y-115486120D01*
X168656000Y-115376887D01*
X168106849Y-115486120D01*
X167641302Y-115797189D01*
X167330233Y-116262736D01*
X167221000Y-116811887D01*
X167221000Y-116868113D01*
X167330233Y-117417264D01*
X167641134Y-117882560D01*
X166672000Y-117882560D01*
X166436683Y-117926838D01*
X166220559Y-118065910D01*
X166075569Y-118278110D01*
X166024560Y-118530000D01*
X166024560Y-118714335D01*
X165832599Y-118842599D01*
X165324599Y-119350599D01*
X165159852Y-119597161D01*
X165102000Y-119888000D01*
X164671000Y-119888000D01*
X164671000Y-119665750D01*
X164512250Y-119507000D01*
X163163000Y-119507000D01*
X162909000Y-119507000D01*
X161559750Y-119507000D01*
X161401000Y-119665750D01*
X160683440Y-119665750D01*
X160683440Y-118530000D01*
X160639162Y-118294683D01*
X160572750Y-118191475D01*
X161034698Y-117882811D01*
X161290000Y-117500725D01*
X161545302Y-117882811D01*
X161696009Y-117983510D01*
X161676302Y-117991673D01*
X161497673Y-118170301D01*
X161401000Y-118403690D01*
X161401000Y-119094250D01*
X161559750Y-119253000D01*
X162909000Y-119253000D01*
X162909000Y-119233000D01*
X163163000Y-119233000D01*
X163163000Y-119253000D01*
X164512250Y-119253000D01*
X164671000Y-119094250D01*
X164671000Y-118403690D01*
X164574327Y-118170301D01*
X164395698Y-117991673D01*
X164162309Y-117895000D01*
X163556456Y-117895000D01*
X163574698Y-117882811D01*
X163885767Y-117417264D01*
X163995000Y-116868113D01*
X163995000Y-116811887D01*
X163885767Y-116262736D01*
X163574698Y-115797189D01*
X163109151Y-115486120D01*
X162560000Y-115376887D01*
X162010849Y-115486120D01*
X161545302Y-115797189D01*
X161290000Y-116179275D01*
X161034698Y-115797189D01*
X160569151Y-115486120D01*
X160020000Y-115376887D01*
X159470849Y-115486120D01*
X159005302Y-115797189D01*
X158816333Y-116080000D01*
X158683802Y-116080000D01*
X157859000Y-115255198D01*
X157859000Y-113001058D01*
X157952691Y-113141277D01*
X158353354Y-113408991D01*
X158825968Y-113503000D01*
X159690032Y-113503000D01*
X160162646Y-113408991D01*
X160563309Y-113141277D01*
X160638998Y-113028000D01*
X162560000Y-113028000D01*
X162850839Y-112970148D01*
X163097401Y-112805401D01*
X164240401Y-111662401D01*
X164405148Y-111415839D01*
X164463000Y-111125000D01*
X164463000Y-100330000D01*
X164405148Y-100039161D01*
X164240401Y-99792599D01*
X163478401Y-99030599D01*
X163263834Y-98887230D01*
X163387592Y-98653281D01*
X163391462Y-98615609D01*
X163266731Y-98425000D01*
X161925000Y-98425000D01*
X161925000Y-98445000D01*
X161671000Y-98445000D01*
X161671000Y-98425000D01*
X161651000Y-98425000D01*
X161651000Y-98171000D01*
X161671000Y-98171000D01*
X161671000Y-97063000D01*
X161925000Y-97063000D01*
X161925000Y-98171000D01*
X163266731Y-98171000D01*
X163391462Y-97980391D01*
X163387592Y-97942719D01*
X163161080Y-97514526D01*
X162787947Y-97205610D01*
X162325000Y-97063000D01*
X161925000Y-97063000D01*
X161671000Y-97063000D01*
X161632901Y-97063000D01*
X161632903Y-97059750D01*
X173571000Y-97059750D01*
X173571000Y-97700309D01*
X173667673Y-97933698D01*
X173846301Y-98112327D01*
X174079690Y-98209000D01*
X174720250Y-98209000D01*
X174879000Y-98050250D01*
X174879000Y-96901000D01*
X175133000Y-96901000D01*
X175133000Y-98050250D01*
X175291750Y-98209000D01*
X175932310Y-98209000D01*
X176165699Y-98112327D01*
X176344327Y-97933698D01*
X176441000Y-97700309D01*
X176441000Y-97059750D01*
X176282250Y-96901000D01*
X175133000Y-96901000D01*
X174879000Y-96901000D01*
X173729750Y-96901000D01*
X173571000Y-97059750D01*
X161632903Y-97059750D01*
X161633284Y-96624205D01*
X161384894Y-96023057D01*
X161209835Y-95847691D01*
X173571000Y-95847691D01*
X173571000Y-96488250D01*
X173729750Y-96647000D01*
X174879000Y-96647000D01*
X174879000Y-95497750D01*
X175133000Y-95497750D01*
X175133000Y-96647000D01*
X176282250Y-96647000D01*
X176409250Y-96520000D01*
X179580000Y-96520000D01*
X179580000Y-97028000D01*
X179637852Y-97318839D01*
X179654560Y-97343844D01*
X179654560Y-97574000D01*
X179698838Y-97809317D01*
X179837910Y-98025441D01*
X180050110Y-98170431D01*
X180302000Y-98221440D01*
X181902000Y-98221440D01*
X182137317Y-98177162D01*
X182353441Y-98038090D01*
X182498431Y-97825890D01*
X182549440Y-97574000D01*
X182549440Y-95974000D01*
X182505162Y-95738683D01*
X182366090Y-95522559D01*
X182153890Y-95377569D01*
X181902000Y-95326560D01*
X180302000Y-95326560D01*
X180066683Y-95370838D01*
X179850559Y-95509910D01*
X179705569Y-95722110D01*
X179654560Y-95974000D01*
X179654560Y-96204156D01*
X179637852Y-96229161D01*
X179580000Y-96520000D01*
X176409250Y-96520000D01*
X176441000Y-96488250D01*
X176441000Y-95847691D01*
X176344327Y-95614302D01*
X176165699Y-95435673D01*
X175932310Y-95339000D01*
X175291750Y-95339000D01*
X175133000Y-95497750D01*
X174879000Y-95497750D01*
X174720250Y-95339000D01*
X174079690Y-95339000D01*
X173846301Y-95435673D01*
X173667673Y-95614302D01*
X173571000Y-95847691D01*
X161209835Y-95847691D01*
X160925363Y-95562722D01*
X160324648Y-95313284D01*
X160015788Y-95313014D01*
X160286680Y-95042122D01*
X160332167Y-95042162D01*
X160675943Y-94900117D01*
X160924167Y-94652325D01*
X194718587Y-94652325D01*
X195080916Y-95529229D01*
X195751242Y-96200726D01*
X196627513Y-96564585D01*
X197576325Y-96565413D01*
X198453229Y-96203084D01*
X199124726Y-95532758D01*
X199488585Y-94656487D01*
X199489413Y-93707675D01*
X199127084Y-92830771D01*
X198456758Y-92159274D01*
X197580487Y-91795415D01*
X196631675Y-91794587D01*
X195754771Y-92156916D01*
X195083274Y-92827242D01*
X194719415Y-93703513D01*
X194718587Y-94652325D01*
X160924167Y-94652325D01*
X160939192Y-94637327D01*
X161081838Y-94293799D01*
X161082162Y-93921833D01*
X160940117Y-93578057D01*
X160677327Y-93314808D01*
X160570478Y-93270440D01*
X160695000Y-93270440D01*
X160930317Y-93226162D01*
X161146441Y-93087090D01*
X161291431Y-92874890D01*
X161342440Y-92623000D01*
X161342440Y-91273000D01*
X161298162Y-91037683D01*
X161159090Y-90821559D01*
X160946890Y-90676569D01*
X160695000Y-90625560D01*
X159345000Y-90625560D01*
X159109683Y-90669838D01*
X158893559Y-90808910D01*
X158828684Y-90903858D01*
X158763024Y-90838084D01*
X158281718Y-90638228D01*
X157760568Y-90637774D01*
X157278914Y-90836789D01*
X156920000Y-91195077D01*
X156920000Y-89143970D01*
X164781635Y-89143970D01*
X164941418Y-89462739D01*
X165732187Y-89772723D01*
X166581387Y-89756497D01*
X167290582Y-89462739D01*
X167450365Y-89143970D01*
X167432282Y-89125887D01*
X173571000Y-89125887D01*
X173571000Y-89182113D01*
X173680233Y-89731264D01*
X173991302Y-90196811D01*
X174456849Y-90507880D01*
X175006000Y-90617113D01*
X175555151Y-90507880D01*
X176020698Y-90196811D01*
X176331767Y-89731264D01*
X176377163Y-89503041D01*
X179710086Y-89503041D01*
X179949611Y-90009134D01*
X180364577Y-90385041D01*
X180752961Y-90545904D01*
X180975000Y-90423915D01*
X180975000Y-89281000D01*
X181229000Y-89281000D01*
X181229000Y-90423915D01*
X181451039Y-90545904D01*
X181839423Y-90385041D01*
X182254389Y-90009134D01*
X182493914Y-89503041D01*
X182372629Y-89281000D01*
X181229000Y-89281000D01*
X180975000Y-89281000D01*
X179831371Y-89281000D01*
X179710086Y-89503041D01*
X176377163Y-89503041D01*
X176441000Y-89182113D01*
X176441000Y-89125887D01*
X176377164Y-88804959D01*
X179710086Y-88804959D01*
X179831371Y-89027000D01*
X180975000Y-89027000D01*
X180975000Y-87884085D01*
X181229000Y-87884085D01*
X181229000Y-89027000D01*
X182372629Y-89027000D01*
X182493914Y-88804959D01*
X182254389Y-88298866D01*
X181839423Y-87922959D01*
X181451039Y-87762096D01*
X181229000Y-87884085D01*
X180975000Y-87884085D01*
X180752961Y-87762096D01*
X180364577Y-87922959D01*
X179949611Y-88298866D01*
X179710086Y-88804959D01*
X176377164Y-88804959D01*
X176331767Y-88576736D01*
X176020698Y-88111189D01*
X175555151Y-87800120D01*
X175006000Y-87690887D01*
X174456849Y-87800120D01*
X173991302Y-88111189D01*
X173680233Y-88576736D01*
X173571000Y-89125887D01*
X167432282Y-89125887D01*
X166116000Y-87809605D01*
X164781635Y-89143970D01*
X156920000Y-89143970D01*
X156920000Y-86562000D01*
X164241481Y-86562000D01*
X163973277Y-87246187D01*
M02*
