G04 #@! TF.FileFunction,Soldermask,Bot*
%FSLAX46Y46*%
G04 Gerber Fmt 4.6, Leading zero omitted, Abs format (unit mm)*
G04 Created by KiCad (PCBNEW 4.0.5) date 02/02/17 02:07:39*
%MOMM*%
%LPD*%
G01*
G04 APERTURE LIST*
%ADD10C,0.100000*%
%ADD11R,1.750000X1.750000*%
%ADD12C,1.750000*%
%ADD13C,3.400000*%
%ADD14R,2.000000X2.000000*%
%ADD15O,2.000000X2.000000*%
%ADD16R,2.400000X2.100000*%
%ADD17C,3.900000*%
%ADD18O,2.400000X1.600000*%
%ADD19C,2.400000*%
G04 APERTURE END LIST*
D10*
D11*
X160020000Y-91948000D03*
D12*
X158020000Y-91948000D03*
D13*
X166116000Y-87630000D03*
D14*
X168656000Y-124460000D03*
D15*
X171196000Y-116840000D03*
X171196000Y-124460000D03*
X168656000Y-116840000D03*
D14*
X181102000Y-96774000D03*
D15*
X181102000Y-89154000D03*
D14*
X160020000Y-124460000D03*
D15*
X162560000Y-116840000D03*
X162560000Y-124460000D03*
X160020000Y-116840000D03*
D14*
X177292000Y-124460000D03*
D15*
X179832000Y-116840000D03*
X179832000Y-124460000D03*
X177292000Y-116840000D03*
D14*
X175006000Y-96774000D03*
D15*
X175006000Y-89154000D03*
D16*
X176816000Y-121920000D03*
X180816000Y-121920000D03*
X167672000Y-119380000D03*
X171672000Y-119380000D03*
X167672000Y-121920000D03*
X171672000Y-121920000D03*
X159036000Y-119380000D03*
X163036000Y-119380000D03*
X159036000Y-121920000D03*
X163036000Y-121920000D03*
X176816000Y-119380000D03*
X180816000Y-119380000D03*
D17*
X197104000Y-94180000D03*
X197104000Y-119180000D03*
D18*
X161798000Y-98298000D03*
X159258000Y-99568000D03*
X161798000Y-100838000D03*
X159258000Y-102108000D03*
X161798000Y-103378000D03*
X159258000Y-104648000D03*
X161798000Y-105918000D03*
X159258000Y-107188000D03*
X161798000Y-108458000D03*
X159258000Y-109728000D03*
X161798000Y-110998000D03*
X159258000Y-112268000D03*
D19*
X159998000Y-96948000D03*
M02*
