G04 #@! TF.FileFunction,Copper,L1,Top,Signal*
%FSLAX46Y46*%
G04 Gerber Fmt 4.6, Leading zero omitted, Abs format (unit mm)*
G04 Created by KiCad (PCBNEW 4.0.5) date 02/02/17 02:07:39*
%MOMM*%
%LPD*%
G01*
G04 APERTURE LIST*
%ADD10C,0.100000*%
%ADD11R,1.350000X1.350000*%
%ADD12C,1.350000*%
%ADD13R,2.500000X0.600000*%
%ADD14R,2.500000X0.270000*%
%ADD15R,4.064000X4.064000*%
%ADD16R,1.600000X2.000000*%
%ADD17C,3.000000*%
%ADD18R,1.600000X1.600000*%
%ADD19O,1.600000X1.600000*%
%ADD20R,2.000000X1.700000*%
%ADD21R,1.700000X2.000000*%
%ADD22R,1.250000X1.500000*%
%ADD23R,1.500000X1.250000*%
%ADD24R,1.500000X1.300000*%
%ADD25R,13.700000X6.000000*%
%ADD26R,6.000000X0.940000*%
%ADD27C,3.500000*%
%ADD28O,2.000000X1.200000*%
%ADD29C,2.000000*%
%ADD30C,0.600000*%
%ADD31C,0.250000*%
G04 APERTURE END LIST*
D10*
D11*
X160020000Y-91948000D03*
D12*
X158020000Y-91948000D03*
D13*
X168716000Y-91313000D03*
X163516000Y-91313000D03*
X168716000Y-92583000D03*
X163516000Y-92583000D03*
D14*
X185710000Y-107680000D03*
X190210000Y-107680000D03*
X185710000Y-107180000D03*
X190210000Y-107180000D03*
X185710000Y-106680000D03*
X190210000Y-106680000D03*
X185710000Y-106180000D03*
X190210000Y-106180000D03*
X185710000Y-105680000D03*
X190210000Y-105680000D03*
D15*
X186690000Y-119380000D03*
X186690000Y-92710000D03*
D16*
X166370000Y-104362000D03*
X166370000Y-100362000D03*
D17*
X166116000Y-87630000D03*
D18*
X168656000Y-124460000D03*
D19*
X171196000Y-116840000D03*
X171196000Y-124460000D03*
X168656000Y-116840000D03*
D18*
X181102000Y-96774000D03*
D19*
X181102000Y-89154000D03*
D18*
X160020000Y-124460000D03*
D19*
X162560000Y-116840000D03*
X162560000Y-124460000D03*
X160020000Y-116840000D03*
D18*
X177292000Y-124460000D03*
D19*
X179832000Y-116840000D03*
X179832000Y-124460000D03*
X177292000Y-116840000D03*
D18*
X175006000Y-96774000D03*
D19*
X175006000Y-89154000D03*
D20*
X162020000Y-87884000D03*
X158020000Y-87884000D03*
X165767000Y-95250000D03*
X169767000Y-95250000D03*
D21*
X172212000Y-108236000D03*
X172212000Y-112236000D03*
X175387000Y-108236000D03*
X175387000Y-112236000D03*
D22*
X171704000Y-104882000D03*
X171704000Y-102382000D03*
X173990000Y-104882000D03*
X173990000Y-102382000D03*
X190754000Y-111526000D03*
X190754000Y-114026000D03*
X169164000Y-104882000D03*
X169164000Y-102382000D03*
D23*
X182098000Y-108712000D03*
X179598000Y-108712000D03*
X182098000Y-106680000D03*
X179598000Y-106680000D03*
D24*
X166290000Y-107442000D03*
X168990000Y-107442000D03*
D25*
X199684000Y-119180000D03*
D26*
X196604000Y-103920000D03*
X196604000Y-102540000D03*
X196604000Y-105300000D03*
X196604000Y-106680000D03*
X196604000Y-101160000D03*
X196604000Y-112200000D03*
X196604000Y-110820000D03*
X196604000Y-109440000D03*
X196604000Y-108060000D03*
D25*
X199684000Y-94180000D03*
D27*
X197104000Y-94180000D03*
X197104000Y-119180000D03*
D28*
X161798000Y-98298000D03*
X159258000Y-99568000D03*
X161798000Y-100838000D03*
X159258000Y-102108000D03*
X161798000Y-103378000D03*
X159258000Y-104648000D03*
X161798000Y-105918000D03*
X159258000Y-107188000D03*
X161798000Y-108458000D03*
X159258000Y-109728000D03*
X161798000Y-110998000D03*
X159258000Y-112268000D03*
D29*
X159998000Y-96948000D03*
D30*
X188595000Y-114427000D03*
X186690000Y-119380000D03*
X174117000Y-100711000D03*
X170942000Y-90424000D03*
X200660000Y-110744000D03*
X200660000Y-108204000D03*
X200660000Y-105156000D03*
X200660000Y-102616000D03*
X171704000Y-100838000D03*
X183642000Y-104902000D03*
X179832000Y-104648000D03*
X168656000Y-100330000D03*
X192532000Y-111760000D03*
X191008000Y-108712000D03*
X160147000Y-94107000D03*
X200600000Y-117500000D03*
D31*
X161798000Y-100838000D02*
X164719000Y-100838000D01*
X165100000Y-103092000D02*
X166370000Y-104362000D01*
X165100000Y-101219000D02*
X165100000Y-103092000D01*
X164719000Y-100838000D02*
X165100000Y-101219000D01*
X175387000Y-108236000D02*
X176181000Y-108236000D01*
X176181000Y-108236000D02*
X178181000Y-110236000D01*
X180574000Y-110236000D02*
X182098000Y-108712000D01*
X178181000Y-110236000D02*
X180574000Y-110236000D01*
X172212000Y-108236000D02*
X175387000Y-108236000D01*
X173990000Y-104882000D02*
X173990000Y-106839000D01*
X173990000Y-106839000D02*
X175387000Y-108236000D01*
X171704000Y-104882000D02*
X173990000Y-104882000D01*
X169164000Y-104882000D02*
X171704000Y-104882000D01*
X168990000Y-107442000D02*
X166290000Y-107442000D01*
X166290000Y-107442000D02*
X166290000Y-104442000D01*
X166290000Y-104442000D02*
X166370000Y-104362000D01*
X173736000Y-105136000D02*
X173482000Y-104882000D01*
X169164000Y-104882000D02*
X168990000Y-105056000D01*
X168990000Y-105056000D02*
X168990000Y-107442000D01*
X182098000Y-106680000D02*
X185710000Y-106680000D01*
X182098000Y-108712000D02*
X182098000Y-106680000D01*
X188996000Y-114026000D02*
X190754000Y-114026000D01*
X188595000Y-114427000D02*
X188996000Y-114026000D01*
X173990000Y-102382000D02*
X173990000Y-100838000D01*
X173990000Y-100838000D02*
X174117000Y-100711000D01*
X171704000Y-102382000D02*
X173990000Y-102382000D01*
X168716000Y-92583000D02*
X170561000Y-92583000D01*
X170942000Y-92202000D02*
X170942000Y-90424000D01*
X170561000Y-92583000D02*
X170942000Y-92202000D01*
X186690000Y-92710000D02*
X186690000Y-90932000D01*
X186690000Y-90932000D02*
X184912000Y-89154000D01*
X184912000Y-89154000D02*
X181102000Y-89154000D01*
X168716000Y-92583000D02*
X169037000Y-92583000D01*
X186690000Y-119380000D02*
X186690000Y-117348000D01*
X195834000Y-110820000D02*
X200482000Y-110566000D01*
X200482000Y-110566000D02*
X200660000Y-110744000D01*
X195834000Y-108060000D02*
X200550000Y-108314000D01*
X200550000Y-108314000D02*
X200660000Y-108204000D01*
X200516000Y-105300000D02*
X195834000Y-105300000D01*
X200660000Y-105156000D02*
X200516000Y-105300000D01*
X195834000Y-102540000D02*
X200584000Y-102540000D01*
X200584000Y-102540000D02*
X200660000Y-102616000D01*
X171704000Y-102382000D02*
X171704000Y-100838000D01*
X173990000Y-102382000D02*
X173990000Y-102108000D01*
X185710000Y-106180000D02*
X183650000Y-106180000D01*
X183642000Y-106172000D02*
X183642000Y-104902000D01*
X183650000Y-106180000D02*
X183642000Y-106172000D01*
X179598000Y-106680000D02*
X179598000Y-104882000D01*
X179598000Y-104882000D02*
X179832000Y-104648000D01*
X179598000Y-108712000D02*
X179598000Y-106680000D01*
X168656000Y-100330000D02*
X168656000Y-101874000D01*
X168656000Y-101874000D02*
X169164000Y-102382000D01*
X168624000Y-100362000D02*
X166370000Y-100362000D01*
X168656000Y-100330000D02*
X168624000Y-100362000D01*
X186690000Y-119380000D02*
X186690000Y-118090000D01*
X169350000Y-102200000D02*
X169400000Y-102150000D01*
X195834000Y-112200000D02*
X193108000Y-112200000D01*
X192668000Y-111760000D02*
X192532000Y-111760000D01*
X193108000Y-112200000D02*
X192668000Y-111760000D01*
X190210000Y-107680000D02*
X190210000Y-107914000D01*
X192298000Y-111526000D02*
X190754000Y-111526000D01*
X192532000Y-111760000D02*
X192298000Y-111526000D01*
X190210000Y-107914000D02*
X191008000Y-108712000D01*
X190500000Y-107696000D02*
X190210000Y-107680000D01*
X160020000Y-91948000D02*
X160528000Y-91948000D01*
X160528000Y-91948000D02*
X161163000Y-92583000D01*
X161163000Y-92583000D02*
X163516000Y-92583000D01*
X158020000Y-87884000D02*
X158020000Y-91948000D01*
X159258000Y-99568000D02*
X163068000Y-99568000D01*
X163068000Y-99568000D02*
X165767000Y-96869000D01*
X165767000Y-96869000D02*
X165767000Y-95250000D01*
X177292000Y-116840000D02*
X179832000Y-116840000D01*
X171196000Y-116840000D02*
X177292000Y-116840000D01*
X168656000Y-116840000D02*
X171196000Y-116840000D01*
X162560000Y-116840000D02*
X168656000Y-116840000D01*
X160020000Y-116840000D02*
X162560000Y-116840000D01*
X160020000Y-116078000D02*
X160020000Y-116840000D01*
X161798000Y-103378000D02*
X162179000Y-103378000D01*
X162179000Y-103378000D02*
X163576000Y-104775000D01*
X163576000Y-104775000D02*
X163576000Y-108077000D01*
X163576000Y-108077000D02*
X165354000Y-109855000D01*
X165354000Y-109855000D02*
X165354000Y-111252000D01*
X165354000Y-111252000D02*
X166338000Y-112236000D01*
X166338000Y-112236000D02*
X172212000Y-112236000D01*
X185710000Y-107680000D02*
X184547000Y-107680000D01*
X184547000Y-107680000D02*
X184150000Y-108077000D01*
X184150000Y-108077000D02*
X184150000Y-110490000D01*
X184150000Y-110490000D02*
X180848000Y-113665000D01*
X180848000Y-113665000D02*
X173863000Y-113665000D01*
X173863000Y-113665000D02*
X172212000Y-112236000D01*
X172212000Y-112141000D02*
X172212000Y-112236000D01*
X175387000Y-112236000D02*
X175387000Y-111887000D01*
X175387000Y-111887000D02*
X173990000Y-110490000D01*
X162814000Y-102108000D02*
X159258000Y-102108000D01*
X164211000Y-103505000D02*
X162814000Y-102108000D01*
X164211000Y-107569000D02*
X164211000Y-103505000D01*
X167132000Y-110490000D02*
X164211000Y-107569000D01*
X173990000Y-110490000D02*
X167132000Y-110490000D01*
X185710000Y-107180000D02*
X183904000Y-107180000D01*
X176625000Y-110998000D02*
X175387000Y-112236000D01*
X181991000Y-110998000D02*
X176625000Y-110998000D01*
X183388000Y-109601000D02*
X181991000Y-110998000D01*
X183388000Y-107696000D02*
X183388000Y-109601000D01*
X183904000Y-107180000D02*
X183388000Y-107696000D01*
X162560000Y-124460000D02*
X162560000Y-124968000D01*
X162560000Y-124968000D02*
X161798000Y-125730000D01*
X157861000Y-104648000D02*
X159258000Y-104648000D01*
X156845000Y-105664000D02*
X157861000Y-104648000D01*
X156845000Y-123698000D02*
X156845000Y-105664000D01*
X158877000Y-125730000D02*
X156845000Y-123698000D01*
X161798000Y-125730000D02*
X158877000Y-125730000D01*
X160020000Y-124460000D02*
X158496000Y-124460000D01*
X158242000Y-105918000D02*
X161798000Y-105918000D01*
X157480000Y-106680000D02*
X158242000Y-105918000D01*
X157480000Y-123444000D02*
X157480000Y-106680000D01*
X158496000Y-124460000D02*
X157480000Y-123444000D01*
X159258000Y-107188000D02*
X158242000Y-107188000D01*
X169418000Y-122682000D02*
X171196000Y-124460000D01*
X159639000Y-122682000D02*
X169418000Y-122682000D01*
X157930002Y-120973002D02*
X159639000Y-122682000D01*
X157930002Y-107499998D02*
X157930002Y-120973002D01*
X158242000Y-107188000D02*
X157930002Y-107499998D01*
X168656000Y-124460000D02*
X168656000Y-125222000D01*
X168656000Y-125222000D02*
X169545000Y-126111000D01*
X163068000Y-108458000D02*
X161798000Y-108458000D01*
X164338000Y-109728000D02*
X163068000Y-108458000D01*
X164338000Y-112776000D02*
X164338000Y-109728000D01*
X165735000Y-114173000D02*
X164338000Y-112776000D01*
X181356000Y-114173000D02*
X165735000Y-114173000D01*
X182372000Y-115189000D02*
X181356000Y-114173000D01*
X182372000Y-124841000D02*
X182372000Y-115189000D01*
X181102000Y-126111000D02*
X182372000Y-124841000D01*
X169545000Y-126111000D02*
X181102000Y-126111000D01*
X179832000Y-124460000D02*
X179832000Y-119380000D01*
X162814000Y-109728000D02*
X159258000Y-109728000D01*
X163576000Y-110490000D02*
X162814000Y-109728000D01*
X163576000Y-113157000D02*
X163576000Y-110490000D01*
X165100000Y-114681000D02*
X163576000Y-113157000D01*
X180848000Y-114681000D02*
X165100000Y-114681000D01*
X181610000Y-115443000D02*
X180848000Y-114681000D01*
X181610000Y-118237000D02*
X181610000Y-115443000D01*
X180848000Y-118999000D02*
X181610000Y-118237000D01*
X180213000Y-118999000D02*
X180848000Y-118999000D01*
X179832000Y-119380000D02*
X180213000Y-118999000D01*
X177292000Y-124460000D02*
X177292000Y-118618000D01*
X161798000Y-113919000D02*
X161798000Y-110998000D01*
X163195000Y-115316000D02*
X161798000Y-113919000D01*
X180467000Y-115316000D02*
X163195000Y-115316000D01*
X181102000Y-116332000D02*
X180467000Y-115316000D01*
X181085142Y-117349824D02*
X181102000Y-116332000D01*
X180467000Y-118364000D02*
X181085142Y-117349824D01*
X177546000Y-118364000D02*
X180467000Y-118364000D01*
X177292000Y-118618000D02*
X177546000Y-118364000D01*
X169767000Y-95250000D02*
X169767000Y-94583000D01*
X169767000Y-94583000D02*
X168656000Y-93472000D01*
X160782000Y-93472000D02*
X160147000Y-94107000D01*
X168656000Y-93472000D02*
X160782000Y-93472000D01*
X168716000Y-91313000D02*
X166497000Y-91313000D01*
X166497000Y-91313000D02*
X166116000Y-91694000D01*
X166116000Y-91694000D02*
X166116000Y-92710000D01*
X166116000Y-92710000D02*
X167005000Y-93599000D01*
X168783000Y-93599000D02*
X169767000Y-94583000D01*
X167005000Y-93599000D02*
X168783000Y-93599000D01*
X166116000Y-91694000D02*
X166497000Y-91313000D01*
X166116000Y-92710000D02*
X166116000Y-91694000D01*
X175006000Y-89154000D02*
X169164000Y-89154000D01*
X168716000Y-89602000D02*
X168716000Y-91313000D01*
X169164000Y-89154000D02*
X168716000Y-89602000D01*
X181102000Y-96774000D02*
X181102000Y-96266000D01*
X181102000Y-96266000D02*
X181610000Y-95758000D01*
X181610000Y-95758000D02*
X189484000Y-95758000D01*
X189484000Y-95758000D02*
X191062000Y-94180000D01*
X191062000Y-94180000D02*
X199684000Y-94180000D01*
X199684000Y-119180000D02*
X202384000Y-119180000D01*
X202384000Y-119180000D02*
X205740000Y-115824000D01*
X205740000Y-115824000D02*
X205740000Y-97536000D01*
X205740000Y-97536000D02*
X202384000Y-94180000D01*
X202384000Y-94180000D02*
X199684000Y-94180000D01*
X195000000Y-95000000D02*
X193420000Y-95000000D01*
X195000000Y-117500000D02*
X200400000Y-117500000D01*
X200400000Y-117500000D02*
X200600000Y-117500000D01*
X163516000Y-91313000D02*
X163516000Y-89380000D01*
X163516000Y-89380000D02*
X162020000Y-87884000D01*
X190210000Y-107180000D02*
X192016000Y-107180000D01*
X193260000Y-109440000D02*
X195834000Y-109440000D01*
X192532000Y-108712000D02*
X193260000Y-109440000D01*
X192532000Y-107696000D02*
X192532000Y-108712000D01*
X192016000Y-107180000D02*
X192532000Y-107696000D01*
X190210000Y-106680000D02*
X195834000Y-106680000D01*
X190210000Y-106180000D02*
X192016000Y-106180000D01*
X193260000Y-103920000D02*
X195834000Y-103920000D01*
X192532000Y-104648000D02*
X193260000Y-103920000D01*
X192532000Y-105664000D02*
X192532000Y-104648000D01*
X192016000Y-106180000D02*
X192532000Y-105664000D01*
X195834000Y-101160000D02*
X192600000Y-101160000D01*
X191500000Y-105680000D02*
X190210000Y-105680000D01*
X192024000Y-105156000D02*
X191500000Y-105680000D01*
X192024000Y-101736000D02*
X192024000Y-105156000D01*
X192600000Y-101160000D02*
X192024000Y-101736000D01*
M02*
