M48
;DRILL file {KiCad 4.0.5} date 02/02/17 02:07:43
;FORMAT={-:-/ absolute / inch / decimal}
FMAT,2
INCH,TZ
T1C0.016
T2C0.031
T3C0.033
T4C0.059
T5C0.130
%
G90
G05
M72
T1
X6.305Y-3.705
X6.64Y-3.95
X6.73Y-3.56
X6.76Y-3.97
X6.855Y-3.965
X7.08Y-4.12
X7.23Y-4.13
X7.35Y-4.7
X7.425Y-4.505
X7.52Y-4.28
X7.58Y-4.4
X7.8976Y-4.626
X7.9Y-4.04
X7.9Y-4.14
X7.9Y-4.26
X7.9Y-4.36
T2
X6.2213Y-3.62
X6.3Y-3.62
X6.3Y-4.6
X6.3Y-4.9
X6.4Y-4.6
X6.4Y-4.9
X6.64Y-4.6
X6.64Y-4.9
X6.74Y-4.6
X6.74Y-4.9
X6.89Y-3.51
X6.89Y-3.81
X6.98Y-4.6
X6.98Y-4.9
X7.08Y-4.6
X7.08Y-4.9
X7.13Y-3.51
X7.13Y-3.81
T3
X6.27Y-3.92
X6.27Y-4.02
X6.27Y-4.12
X6.27Y-4.22
X6.27Y-4.32
X6.27Y-4.42
X6.37Y-3.87
X6.37Y-3.97
X6.37Y-4.07
X6.37Y-4.17
X6.37Y-4.27
X6.37Y-4.37
T4
X6.54Y-3.45
T5
X7.76Y-3.7079
X7.76Y-4.6921
T0
M30
